#N canvas 96 139 1041 516 10;
#X obj 101 101 cnv 15 398 40 empty empty I/O 10 12 0 14 -233017 -66577
0;
#X obj 167 123 nbx 5 14 0 128 0 0 \$0_adcs \$0_adcs ADCs 0 -8 0 10
-262144 -1 -1 24 256;
#X obj 101 146 cnv 15 398 40 empty empty channel 10 12 0 14 -191407
-66577 0;
#X obj 186 168 nbx 5 14 0 64 0 0 \$0_channels \$0_channels CHANNELs
0 -8 0 10 -262144 -1 -1 16 256;
#X obj 266 168 nbx 5 14 0 16 0 0 \$0_fx \$0_fx FX-slots 0 -8 0 10 -262144
-1 -1 4 256;
#X obj 101 299 cnv 15 398 40 empty empty BUSses 10 12 0 14 -228856
-66577 0;
#X obj 186 321 nbx 5 14 0 64 0 0 \$0_bus \$0_bus BUSs 0 -8 0 10 -262144
-1 -1 16 256;
#X obj 101 359 cnv 15 199 40 empty empty SETTINGs 10 12 0 14 -191407
-66577 0;
#X obj 101 249 cnv 15 398 40 empty empty AMBISONICS 10 12 0 14 -191407
-66577 0;
#X obj 326 271 nbx 5 14 0 16 0 0 \$0_ambiorder \$0_ambiorder order
0 -8 0 10 -262144 -1 -1 4 256;
#X obj 220 264 popup 80 20 #ffffff type sphere hemi circ;
#X obj 219 262 cnv 15 81 23 empty empty type 0 -6 0 10 -1 -1 0;
#X obj 156 380 bng 15 250 50 0 \$0_save \$0_save save 17 7 0 10 -257985
-1 -1;
#X obj 206 380 bng 15 250 50 0 \$0_load \$0_load load 17 7 0 10 -4034
-1 -1;
#X obj 300 359 cnv 15 199 40 empty empty GENERATE 10 12 0 14 -66577
-191407 0;
#X obj 459 360 bng 38 250 50 0 \$0_generate \$0_generate empty 17 7
0 10 -258113 -257985 -1;
#X obj 329 382 tgl 12 0 \$0_force \$0_force overwrite 17 7 0 10 -262144
-1 -191407 0 1;
#X obj 459 440 route 0;
#X msg 459 402 0;
#X obj 101 192 cnv 15 398 40 empty empty AUX 10 12 0 14 -228856 -66577
0;
#X obj 186 213 nbx 5 14 4 4 0 0 \$0_auxsend \$0_auxsend AUX-sends 0
-8 0 10 -262144 -1 -1 4 256;
#X obj 356 213 nbx 5 14 0 16 0 0 \$0_auxsums \$0_auxsums AUX-sums 0
-8 0 10 -262144 -1 -1 8 256;
#X obj 356 321 nbx 5 14 2 2 0 0 \$0_lfc \$0_lfc LFCs 0 -8 0 10 -262144
-1 -1 2 256;
#X text 545 315 missing: LFCs \, (BUSdacs) \, compensated-dacs \, (offsets?)
;
#X obj 606 209 unpack 0 s;
#X obj 673 262 s \$0_ambitype;
#N canvas 79 54 1170 582 packit 0;
#X obj 55 56 r \$0_adcs;
#X obj 125 56 r \$0_dacs;
#X obj 195 56 r \$0_daccs;
#X obj 305 56 r \$0_channels;
#X obj 405 56 r \$0_fx;
#X obj 805 56 r \$0_auxsend;
#X obj 895 56 r \$0_auxsums;
#X obj 515 56 r \$0_bus;
#X obj 393 195 r \$0_ambidim;
#X obj 493 195 r \$0_ambiorder;
#X obj 603 195 r \$0_ambitype;
#X obj 713 195 r \$0_ambidacs;
#X obj 31 301 inlet;
#X obj 585 56 r \$0_lfc;
#X obj 91 327 pack 0 0 0 0 0 0 0 0 0 0 0 0 s 0 0 0;
#X obj 91 423 outlet #adc #dac #dacc #channels #fx #bus #lfc #auxsend
#auxsum #ambidim #ambiorder ambitype #ambidacs;
#X obj 91 385 l2i;
#X obj 603 217 symbol;
#X connect 0 0 14 1;
#X connect 1 0 14 2;
#X connect 2 0 14 3;
#X connect 3 0 14 4;
#X connect 4 0 14 5;
#X connect 5 0 14 8;
#X connect 6 0 14 9;
#X connect 7 0 14 6;
#X connect 8 0 14 10;
#X connect 9 0 14 11;
#X connect 10 0 17 0;
#X connect 11 0 14 13;
#X connect 12 0 14 0;
#X connect 13 0 14 7;
#X connect 14 0 16 0;
#X connect 16 0 15 0;
#X connect 17 0 14 12;
#X restore 459 421 pd packit;
#N canvas 759 267 1161 546 init 0;
#X obj 175 196 s \$0_adcs;
#X obj 245 196 s \$0_dacs;
#X obj 315 196 s \$0_daccs;
#X obj 175 256 s \$0_channels;
#X obj 275 256 s \$0_fx;
#X obj 245 316 s \$0_lfc;
#X obj 175 316 s \$0_bus;
#X obj 175 366 s \$0_auxsend;
#X obj 265 366 s \$0_auxsums;
#X obj 275 436 s \$0_ambiorder;
#X obj 175 436 s \$0_ambidim;
#X obj 385 436 s \$0_ambitype;
#X obj 495 436 s \$0_ambidacs;
#X msg 175 236 16;
#X obj 82 159 t b;
#X obj 82 219 t b;
#X obj 82 279 t b;
#X obj 82 329 t b;
#X obj 82 379 t b;
#X msg 31 70 bang;
#X msg 175 176 64;
#X msg 245 176 64;
#X msg 315 176 24;
#X msg 275 236 4;
#X msg 245 296 2;
#X msg 175 346 4;
#X msg 265 346 8;
#X msg 175 396 3;
#X msg 275 396 4;
#X msg 385 396 symbol sphere;
#X msg 495 396 24;
#X obj 31 47 inlet;
#X msg 175 296 16;
#X obj 222 151 t b b b;
#X obj 31 93 t b b b b b;
#X connect 13 0 3 0;
#X connect 14 0 33 0;
#X connect 15 0 13 0;
#X connect 15 0 23 0;
#X connect 16 0 32 0;
#X connect 16 0 24 0;
#X connect 17 0 25 0;
#X connect 17 0 26 0;
#X connect 18 0 27 0;
#X connect 18 0 28 0;
#X connect 18 0 29 0;
#X connect 18 0 30 0;
#X connect 19 0 34 0;
#X connect 20 0 0 0;
#X connect 21 0 1 0;
#X connect 22 0 2 0;
#X connect 23 0 4 0;
#X connect 24 0 5 0;
#X connect 25 0 7 0;
#X connect 26 0 8 0;
#X connect 27 0 10 0;
#X connect 28 0 9 0;
#X connect 29 0 11 0;
#X connect 30 0 12 0;
#X connect 31 0 19 0;
#X connect 32 0 6 0;
#X connect 33 0 22 0;
#X connect 33 1 21 0;
#X connect 33 2 20 0;
#X connect 34 0 18 0;
#X connect 34 1 17 0;
#X connect 34 2 16 0;
#X connect 34 3 15 0;
#X connect 34 4 14 0;
#X restore 596 153 pd init;
#X msg 277 73 range 0 \$1 \, bang;
#X obj 596 119 loadbang;
#X msg 663 119 bang;
#X obj 402 52 i;
#X msg 402 72 label compensated:\$1;
#X obj 329 485 value gPlugin_forceoverwrite;
#X obj 795 227 select sphere hemi circ;
#X obj 673 235 t s s;
#X obj 795 275 s \$0_ambidim;
#X msg 795 254 3;
#X msg 827 254 2;
#X msg 70 38 name type \, options sphere hemi circ;
#X obj 426 271 nbx 5 14 0 300 0 0 \$0_ambidacs \$0_ambidacs DACs 0
-8 0 10 -262144 -1 -1 24 256;
#X obj 866 56 r \$0_ambiorder;
#X obj 779 82 t b f;
#X obj 769 163 calc_ambichans;
#X obj 769 185 s \$0_ambidacs;
#X obj 769 56 r \$0_ambitype;
#X obj 769 136 pack s 0;
#X obj 769 109 symbol sphere;
#X text 634 465 tmp: for testing;
#X text 631 446 ../../lib: for production;
#X obj 566 29 r \$0_ambitype;
#X msg 566 71 set \$1;
#X obj 566 51 symbol;
#X obj 136 455 saveload_settings \$0;
#X obj 402 32 r \$0_daccs;
#N canvas 1349 334 450 373 dacrouting 0;
#X obj 225 174 r \$0-dacrouting;
#X obj 225 296 dacrouter \$0;
#X obj 225 253 pack 0 0;
#X obj 225 229 f;
#X obj 171 191 bng 15 250 50 0 empty empty empty 17 7 0 10 -262144
-1 -1;
#X obj 243 201 r \$0_dacs;
#X obj 278 231 r \$0_daccs;
#X connect 0 0 3 0;
#X connect 2 0 1 0;
#X connect 3 0 2 0;
#X connect 4 0 3 0;
#X connect 5 0 3 1;
#X connect 6 0 2 1;
#X restore 862 410 pd dacrouting;
#X obj 459 459 generators ../../lib \$0;
#X obj 277 137 cnv 2 200 2 empty empty empty 20 12 0 14 -162280 -66577
0;
#X obj 277 123 nbx 5 14 0 128 0 0 \$0_dacs \$0_dacs DACs 0 -8 0 10
-262144 -1 -1 0 256;
#X obj 342 123 nbx 5 14 0 30 0 0 \$0_daccs \$0_daccs compensatedDACs
0 -8 0 10 -262144 -1 -1 0 256;
#X obj 461 121 bng 15 250 50 0 \$0-dacrouting \$0-dacrouting routing
-20 -7 0 10 -203904 -4160 -1;
#X connect 10 0 24 0;
#X connect 15 0 18 0;
#X connect 16 0 33 0;
#X connect 17 0 56 0;
#X connect 18 0 26 0;
#X connect 24 1 35 0;
#X connect 26 0 17 0;
#X connect 28 0 59 0;
#X connect 29 0 27 0;
#X connect 30 0 27 0;
#X connect 31 0 32 0;
#X connect 34 0 37 0;
#X connect 34 1 37 0;
#X connect 34 2 38 0;
#X connect 35 0 25 0;
#X connect 35 1 34 0;
#X connect 37 0 36 0;
#X connect 38 0 36 0;
#X connect 39 0 10 0;
#X connect 41 0 42 0;
#X connect 42 0 47 0;
#X connect 42 1 46 1;
#X connect 43 0 44 0;
#X connect 45 0 47 0;
#X connect 46 0 43 0;
#X connect 47 0 46 0;
#X connect 50 0 52 0;
#X connect 51 0 10 0;
#X connect 52 0 51 0;
#X connect 54 0 31 0;
#X connect 58 0 28 0;
#X coords 0 -1 1 1 400 300 2 100 100;
