#N canvas 109 156 1041 516 10;
#X obj 101 101 cnv 15 398 40 empty empty I/O 10 12 0 14 -233017 -66577
0;
#X obj 167 123 nbx 5 14 0 128 0 0 \$0_adcs \$0_adcs ADCs 0 -8 0 10
-262144 -1 -1 64 256;
#X obj 267 123 nbx 5 14 0 128 0 0 \$0_dacs \$0_dacs DACs 0 -8 0 10
-262144 -1 -1 64 256;
#X obj 335 122 hsl 128 15 0 64 0 0 \$0_daccs \$0_daccs compensated:23
-2 -8 0 10 -262144 -1 -1 6548 1;
#X obj 101 146 cnv 15 398 40 empty empty channel 10 12 0 14 -191407
-66577 0;
#X obj 186 168 nbx 5 14 0 64 0 0 \$0_channels \$0_channels CHANNELs
0 -8 0 10 -262144 -1 -1 16 256;
#X obj 266 168 nbx 5 14 0 16 0 0 \$0_fx \$0_fx FX-slots 0 -8 0 10 -262144
-1 -1 4 256;
#X obj 101 299 cnv 15 398 40 empty empty BUSses 10 12 0 14 -228856
-66577 0;
#X obj 186 321 nbx 5 14 0 64 0 0 \$0_bus \$0_bus BUSs 0 -8 0 10 -262144
-1 -1 16 256;
#X obj 101 359 cnv 15 199 40 empty empty SETTINGs 10 12 0 14 -191407
-66577 0;
#X obj 101 249 cnv 15 398 40 empty empty AMBISONICS 10 12 0 14 -191407
-66577 0;
#X obj 326 271 nbx 5 14 0 16 0 0 \$0_ambiorder \$0_ambiorder order
0 -8 0 10 -262144 -1 -1 4 256;
#X obj 220 264 popup 80 20 #ffffff type sphere hemi circ;
#X obj 219 262 cnv 15 81 23 empty empty type 0 -6 0 10 -1 -1 0;
#X obj 156 380 bng 15 250 50 0 \$0_save \$0_save save 17 7 0 10 -257985
-1 -1;
#X obj 206 380 bng 15 250 50 0 \$0_load \$0_load load 17 7 0 10 -4034
-1 -1;
#X obj 300 359 cnv 15 199 40 empty empty GENERATE 10 12 0 14 -66577
-191407 0;
#X obj 459 360 bng 38 250 50 0 \$0_generate \$0_generate empty 17 7
0 10 -258113 -257985 -1;
#X obj 329 382 tgl 12 0 \$0_force \$0_force overwrite 17 7 0 10 -262144
-1 -191407 0 1;
#X obj 459 440 route 0;
#X msg 459 402 0;
#X obj 101 192 cnv 15 398 40 empty empty AUX 10 12 0 14 -228856 -66577
0;
#X obj 186 213 nbx 5 14 4 4 0 0 \$0_auxsend \$0_auxsend AUX-sends 0
-8 0 10 -262144 -1 -1 4 256;
#X obj 356 213 nbx 5 14 0 16 0 0 \$0_auxsums \$0_auxsums AUX-sums 0
-8 0 10 -262144 -1 -1 8 256;
#X obj 356 321 nbx 5 14 2 2 0 0 \$0_lfc \$0_lfc LFCs 0 -8 0 10 -262144
-1 -1 2 256;
#X text 545 315 missing: LFCs \, (BUSdacs) \, compensated-dacs \, (offsets?)
;
#X obj 606 209 unpack 0 s;
#X obj 673 262 s \$0_ambitype;
#N canvas 79 54 1170 582 packit 0;
#X obj 55 56 r \$0_adcs;
#X obj 125 56 r \$0_dacs;
#X obj 195 56 r \$0_daccs;
#X obj 305 56 r \$0_channels;
#X obj 405 56 r \$0_fx;
#X obj 805 56 r \$0_auxsend;
#X obj 895 56 r \$0_auxsums;
#X obj 515 56 r \$0_bus;
#X obj 393 195 r \$0_ambidim;
#X obj 493 195 r \$0_ambiorder;
#X obj 603 195 r \$0_ambitype;
#X obj 713 195 r \$0_ambidacs;
#X obj 31 301 inlet;
#X obj 585 56 r \$0_lfc;
#X obj 91 327 pack 0 0 0 0 0 0 0 0 0 0 0 0 s 0 0 0;
#X obj 91 423 outlet #adc #dac #dacc #channels #fx #bus #lfc #auxsend
#auxsum #ambidim #ambiorder ambitype #ambidacs;
#X obj 91 385 l2i;
#X obj 603 217 symbol;
#X connect 0 0 14 1;
#X connect 1 0 14 2;
#X connect 2 0 14 3;
#X connect 3 0 14 4;
#X connect 4 0 14 5;
#X connect 5 0 14 8;
#X connect 6 0 14 9;
#X connect 7 0 14 6;
#X connect 8 0 14 10;
#X connect 9 0 14 11;
#X connect 10 0 17 0;
#X connect 11 0 14 13;
#X connect 12 0 14 0;
#X connect 13 0 14 7;
#X connect 14 0 16 0;
#X connect 16 0 15 0;
#X connect 17 0 14 12;
#X restore 459 421 pd packit;
#N canvas 759 267 1161 546 init 0;
#X obj 175 136 s \$0_adcs;
#X obj 245 136 s \$0_dacs;
#X obj 315 136 s \$0_daccs;
#X obj 175 196 s \$0_channels;
#X obj 275 196 s \$0_fx;
#X obj 245 256 s \$0_lfc;
#X obj 175 256 s \$0_bus;
#X obj 175 306 s \$0_auxsend;
#X obj 265 306 s \$0_auxsums;
#X obj 275 376 s \$0_ambiorder;
#X obj 175 376 s \$0_ambidim;
#X obj 385 376 s \$0_ambitype;
#X obj 495 376 s \$0_ambidacs;
#X msg 175 176 16;
#X obj 82 99 t b;
#X obj 82 159 t b;
#X obj 82 219 t b;
#X obj 82 269 t b;
#X obj 82 319 t b;
#X obj 31 93 t b;
#X msg 31 70 bang;
#X msg 175 116 64;
#X msg 245 116 64;
#X msg 315 116 24;
#X msg 275 176 4;
#X msg 245 236 2;
#X msg 175 286 4;
#X msg 265 286 8;
#X msg 175 336 3;
#X msg 275 336 4;
#X msg 385 336 symbol sphere;
#X msg 495 336 24;
#X obj 31 47 inlet;
#X msg 175 236 16;
#X connect 13 0 3 0;
#X connect 14 0 21 0;
#X connect 14 0 22 0;
#X connect 14 0 23 0;
#X connect 15 0 13 0;
#X connect 15 0 24 0;
#X connect 16 0 33 0;
#X connect 16 0 25 0;
#X connect 17 0 26 0;
#X connect 17 0 27 0;
#X connect 18 0 28 0;
#X connect 18 0 29 0;
#X connect 18 0 30 0;
#X connect 18 0 31 0;
#X connect 19 0 14 0;
#X connect 19 0 15 0;
#X connect 19 0 16 0;
#X connect 19 0 17 0;
#X connect 19 0 18 0;
#X connect 20 0 19 0;
#X connect 21 0 0 0;
#X connect 22 0 1 0;
#X connect 23 0 2 0;
#X connect 24 0 4 0;
#X connect 25 0 5 0;
#X connect 26 0 7 0;
#X connect 27 0 8 0;
#X connect 28 0 10 0;
#X connect 29 0 9 0;
#X connect 30 0 11 0;
#X connect 31 0 12 0;
#X connect 32 0 20 0;
#X connect 33 0 6 0;
#X restore 596 153 pd init;
#X msg 332 73 range 0 \$1 \, bang;
#X obj 596 119 loadbang;
#X msg 663 119 bang;
#X obj 347 146 i;
#X msg 378 146 label compensated:\$1;
#X obj 329 485 value gPlugin_forceoverwrite;
#X obj 795 227 select sphere hemi circ;
#X obj 673 235 t s s;
#X obj 795 275 s \$0_ambidim;
#X msg 795 254 3;
#X msg 827 254 2;
#X msg 220 38 name type \, options sphere hemi circ;
#X obj 426 271 nbx 5 14 0 300 0 0 \$0_ambidacs \$0_ambidacs DACs 0
-8 0 10 -262144 -1 -1 29 256;
#X obj 866 56 r \$0_ambiorder;
#X obj 779 82 t b f;
#X obj 769 163 calc_ambichans;
#X obj 769 185 s \$0_ambidacs;
#X obj 769 56 r \$0_ambitype;
#X obj 769 136 pack s 0;
#X obj 769 109 symbol sphere;
#X obj 459 459 generators ../../lib;
#X text 614 465 tmp: for testing;
#X text 611 446 ../../lib: for production;
#N canvas 679 552 450 490 save/load 0;
#X msg 69 216 error:: \$1 not yet implemented!!;
#X obj 69 190 symbol;
#X msg 49 137 SAVE-settings;
#X msg 163 144 LOAD-settings;
#X obj 69 244 print CONFIGURATOR;
#X text 62 56 so many things todo...;
#N canvas 613 0 1168 903 save 0;
#X obj 92 48 r \$0_adcs;
#X obj 162 48 r \$0_dacs;
#X obj 232 48 r \$0_daccs;
#X obj 342 48 r \$0_channels;
#X obj 442 48 r \$0_fx;
#X obj 842 48 r \$0_auxsend;
#X obj 932 48 r \$0_auxsums;
#X obj 552 48 r \$0_bus;
#X obj 430 187 r \$0_ambidim;
#X obj 530 187 r \$0_ambiorder;
#X obj 640 187 r \$0_ambitype;
#X obj 750 187 r \$0_ambidacs;
#X obj 63 262 inlet;
#X obj 622 48 r \$0_lfc;
#X obj 128 319 pack 0 0 0 0 0 0 0 0 0 0 0 0 s 0 0 0;
#X obj 128 377 l2i;
#X obj 128 415 list split 1;
#N canvas 0 0 830 696 prepend_names 0;
#X obj 168 58 unpack 0 0 0 0 0 0 0 0 0 0 0 s 0 0 0;
#X obj 98 87 list prepend #adc;
#X obj 115 137 list prepend #dac;
#X obj 133 197 list prepend #dac_compensated;
#X obj 151 247 list prepend #channels;
#X obj 178 297 list prepend #fx;
#X obj 195 347 list prepend #bus;
#X obj 204 388 list prepend #lfc;
#X obj 231 457 list prepend #auxsend;
#X obj 328 87 list prepend #auxsum;
#X obj 345 137 list prepend ambisonic_dimension;
#X obj 363 197 list prepend ambisonic_order;
#X obj 381 247 list prepend ambisonic_type;
#X obj 408 297 list prepend #dac_ambisonic;
#X obj 98 475 t a;
#X obj 168 29 inlet;
#X obj 98 513 outlet;
#X connect 0 0 1 0;
#X connect 0 1 2 0;
#X connect 0 2 3 0;
#X connect 0 3 4 0;
#X connect 0 4 5 0;
#X connect 0 5 6 0;
#X connect 0 6 7 0;
#X connect 0 7 8 0;
#X connect 0 8 9 0;
#X connect 0 9 10 0;
#X connect 0 10 11 0;
#X connect 0 11 12 0;
#X connect 0 12 13 0;
#X connect 1 0 14 0;
#X connect 2 0 14 0;
#X connect 3 0 14 0;
#X connect 4 0 14 0;
#X connect 5 0 14 0;
#X connect 6 0 14 0;
#X connect 7 0 14 0;
#X connect 8 0 14 0;
#X connect 9 0 14 0;
#X connect 10 0 14 0;
#X connect 11 0 14 0;
#X connect 12 0 14 0;
#X connect 13 0 14 0;
#X connect 14 0 16 0;
#X connect 15 0 0 0;
#X restore 127 440 pd prepend_names;
#X obj 63 285 t s b b;
#X obj 127 581 textfile;
#X msg 188 551 clear;
#X obj 127 466 list prepend add;
#X obj 127 491 list trim;
#X msg 63 533 write \$1 cr;
#X obj 567 220 symbol;
#X connect 0 0 14 1;
#X connect 1 0 14 2;
#X connect 2 0 14 3;
#X connect 3 0 14 4;
#X connect 4 0 14 5;
#X connect 5 0 14 8;
#X connect 6 0 14 9;
#X connect 7 0 14 6;
#X connect 8 0 14 10;
#X connect 9 0 14 11;
#X connect 10 0 24 0;
#X connect 11 0 14 13;
#X connect 12 0 18 0;
#X connect 13 0 14 7;
#X connect 14 0 15 0;
#X connect 15 0 16 0;
#X connect 16 1 17 0;
#X connect 17 0 21 0;
#X connect 18 0 23 0;
#X connect 18 1 14 0;
#X connect 18 2 20 0;
#X connect 20 0 19 0;
#X connect 21 0 22 0;
#X connect 22 0 19 0;
#X connect 23 0 19 0;
#X connect 24 0 14 12;
#X restore 70 350 pd save;
#X obj 70 326 savepanel;
#X obj 70 303 bng 15 250 50 0 empty empty empty 17 7 0 10 -262144 -1
-1;
#X obj 160 303 bng 15 250 50 0 empty empty empty 17 7 0 10 -262144
-1 -1;
#N canvas 0 0 439 772 load 0;
#X obj 63 52 inlet;
#X obj 63 131 textfile;
#X obj 63 167 routesend #adc \$0_adcs;
#X obj 63 187 routesend #dac \$0_dacs;
#X obj 63 207 routesend #dac_compensated \$0_daccs;
#X obj 63 227 routesend #channels \$0_channels;
#X obj 63 247 routesend #fx \$0_fx;
#X obj 63 267 routesend #bus \$0_bus;
#X obj 63 287 routesend #lfc \$0_lfc;
#X obj 63 307 routesend #auxsend \$0_auxsend;
#X obj 63 327 routesend #auxsum \$0_auxsum;
#X obj 63 347 routesend ambisonic_dimension \$0_ambidim;
#X obj 63 367 routesend ambisonic_order \$0_ambiorder;
#X obj 63 387 routesend #dac_ambisonic \$0_ambidacs;
#X obj 63 105 until;
#X obj 63 75 t b s;
#X msg 107 105 read \$1 cr \, rewind;
#X obj 63 515 print CONFIGURATOR;
#X obj 63 472 list prepend error:: unknown key-value pair;
#X obj 63 492 list trim;
#X obj 63 407 routesend ambisonic_type \$0_ambitype;
#X obj 257 129 t a a;
#X obj 298 157 print loading;
#X connect 0 0 15 0;
#X connect 1 0 21 0;
#X connect 1 1 14 1;
#X connect 2 0 3 0;
#X connect 3 0 4 0;
#X connect 4 0 5 0;
#X connect 5 0 6 0;
#X connect 6 0 7 0;
#X connect 7 0 8 0;
#X connect 8 0 9 0;
#X connect 9 0 10 0;
#X connect 10 0 11 0;
#X connect 11 0 12 0;
#X connect 12 0 13 0;
#X connect 13 0 20 0;
#X connect 14 0 1 0;
#X connect 15 0 14 0;
#X connect 15 1 16 0;
#X connect 16 0 1 0;
#X connect 18 0 19 0;
#X connect 19 0 17 0;
#X connect 20 0 18 0;
#X connect 21 0 2 0;
#X connect 21 1 22 0;
#X restore 160 350 pd load;
#X obj 160 326 openpanel;
#X obj 54 281 r \$0_save;
#X obj 142 282 r \$0_load;
#X connect 0 0 4 0;
#X connect 1 0 0 0;
#X connect 2 0 1 0;
#X connect 3 0 1 0;
#X connect 7 0 6 0;
#X connect 8 0 7 0;
#X connect 9 0 11 0;
#X connect 11 0 10 0;
#X connect 12 0 7 0;
#X connect 13 0 11 0;
#X restore 136 455 pd save/load;
#X obj 566 29 r \$0_ambitype;
#X msg 566 71 set \$1;
#X obj 566 51 symbol;
#X connect 2 0 30 0;
#X connect 3 0 33 0;
#X connect 12 0 26 0;
#X connect 17 0 20 0;
#X connect 18 0 35 0;
#X connect 19 0 50 0;
#X connect 20 0 28 0;
#X connect 26 1 37 0;
#X connect 28 0 19 0;
#X connect 30 0 3 0;
#X connect 31 0 29 0;
#X connect 32 0 29 0;
#X connect 33 0 34 0;
#X connect 34 0 3 0;
#X connect 36 0 39 0;
#X connect 36 1 39 0;
#X connect 36 2 40 0;
#X connect 37 0 27 0;
#X connect 37 1 36 0;
#X connect 39 0 38 0;
#X connect 40 0 38 0;
#X connect 41 0 12 0;
#X connect 43 0 44 0;
#X connect 44 0 49 0;
#X connect 44 1 48 1;
#X connect 45 0 46 0;
#X connect 47 0 49 0;
#X connect 48 0 45 0;
#X connect 49 0 48 0;
#X connect 54 0 56 0;
#X connect 55 0 12 0;
#X connect 56 0 55 0;
#X coords 0 -1 1 1 400 300 2 100 100;
