#N canvas 1367 170 769 624 10;
#X obj 234 136 generators/DSP/IN_ADC_1~ \$1/DSP;
#X obj 234 376 generators/DSP/AUXS_1_SUM~ \$1/DSP;
#X obj 234 156 generators/DSP/OUT_DAC_1~ \$1/DSP;
#X obj 234 187 generators/DSP/CHANNEL_1~ \$1/DSP;
#X obj 233 207 generators/DSP/1_PLUGINS~ \$1/DSP;
#X obj 234 227 generators/DSP/1_aux_send_pre~ \$1/DSP;
#X obj 233 249 generators/DSP/1_aux_send_post~ \$1/DSP;
#X obj 233 269 generators/DSP/1_bus_send_post~ \$1/DSP;
#X obj 233 309 generators/DSP/1_2_bus_gainpack \$1/DSP;
#X obj 233 329 generators/DSP/1_LFC2_OUT3~ \$1/DSP;
#X obj 233 439 generators/DSP/1_2D_3O_BUS~ \$1/DSP;
#X text 473 156 << naming? (should hold both compensated and raw dacs)
;
#X obj 14 29 inlet #adc #dac #dacc #channels #fx #bus #lfc #auxsend
#auxsum #ambidim #ambiorder ambitype #ambidacs;
#X msg 150 135 \$1;
#N canvas 684 490 450 300 dacs 0;
#X obj 126 62 inlet;
#X obj 126 261 outlet;
#X text 169 80 alldacs \, compensateddacs;
#X text 186 237 compensateddacs \, rawdacs;
#X msg 126 101 \$3 \$2;
#X obj 126 134 unpack;
#X obj 126 225 pack;
#X text 177 117 compensateddacs \, alldacs;
#X obj 126 162 t f f;
#X obj 158 182 -;
#X obj 158 203 abs;
#X connect 0 0 4 0;
#X connect 4 0 5 0;
#X connect 5 0 8 0;
#X connect 5 1 9 1;
#X connect 6 0 1 0;
#X connect 8 0 6 0;
#X connect 8 1 9 0;
#X connect 9 0 10 0;
#X connect 10 0 6 1;
#X restore 150 156 pd dacs;
#X msg 150 186 \$4;
#X msg 150 206 \$5;
#X msg 150 226 \$8;
#X msg 150 266 \$6;
#X msg 150 329 \$6 \$7 \$2;
#X msg 150 309 \$6 \$7;
#X obj 88 135 t l l;
#X obj 49 185 t l l l l;
#X obj 14 107 t l l l l l;
#X obj 72 294 t l l l;
#X text 504 442 ambisonic;
#X obj 88 381 t l;
#X obj 90 433 t l;
#X msg 150 376 \$9;
#N canvas 0 0 450 300 ambi 0;
#X obj 86 66 inlet;
#X obj 86 248 outlet;
#X msg 86 94 list \$10 \$11 \$12 \$13;
#X text 239 95 dim order type dacs;
#X msg 86 169 list \$3\$1D\$2O \$4;
#X text 88 136 e.g. "3 4 sphere 24";
#X text 87 207 e.g. "sphere3D4O 24";
#X connect 0 0 2 0;
#X connect 2 0 4 0;
#X connect 4 0 1 0;
#X restore 146 440 pd ambi;
#X connect 12 0 23 0;
#X connect 13 0 0 0;
#X connect 14 0 2 0;
#X connect 15 0 3 0;
#X connect 16 0 4 0;
#X connect 17 0 6 0;
#X connect 17 0 5 0;
#X connect 18 0 7 0;
#X connect 19 0 9 0;
#X connect 20 0 8 0;
#X connect 21 0 14 0;
#X connect 21 1 13 0;
#X connect 22 0 18 0;
#X connect 22 1 17 0;
#X connect 22 2 16 0;
#X connect 22 3 15 0;
#X connect 23 0 27 0;
#X connect 23 1 26 0;
#X connect 23 2 24 0;
#X connect 23 3 22 0;
#X connect 23 4 21 0;
#X connect 24 1 19 0;
#X connect 24 2 20 0;
#X connect 26 0 28 0;
#X connect 27 0 29 0;
#X connect 28 0 1 0;
#X connect 29 0 10 0;
