#N canvas 1331 0 769 624 10;
#X obj 14 29 inlet #adc #dac #dacc #channels #fx #bus #lfc #auxsend
#auxsum #ambidim #ambiorder ambitype #ambidacs;
#N canvas 1588 58 888 597 DSP 0;
#X obj 234 136 generators/DSP/IN_ADC_1~ \$1/DSP;
#X obj 234 376 generators/DSP/AUXS_1_SUM~ \$1/DSP;
#X obj 234 156 generators/DSP/OUT_DAC_1~ \$1/DSP;
#X obj 234 187 generators/DSP/CHANNEL_1~ \$1/DSP;
#X obj 233 207 generators/DSP/1_PLUGINS~ \$1/DSP;
#X obj 234 227 generators/DSP/1_aux_send_pre~ \$1/DSP;
#X obj 233 249 generators/DSP/1_aux_send_post~ \$1/DSP;
#X obj 233 269 generators/DSP/1_bus_send_post~ \$1/DSP;
#X obj 233 309 generators/DSP/1_2_bus_gainpack \$1/DSP;
#X obj 233 439 generators/DSP/1_2D_3O_BUS~ \$1/DSP;
#X text 473 156 << naming? (should hold both compensated and raw dacs)
;
#X msg 150 135 \$1;
#N canvas 684 490 450 300 dacs 0;
#X obj 126 62 inlet;
#X obj 126 261 outlet;
#X text 169 80 alldacs \, compensateddacs;
#X text 186 237 compensateddacs \, rawdacs;
#X msg 126 101 \$3 \$2;
#X obj 126 134 unpack;
#X obj 126 225 pack;
#X text 177 117 compensateddacs \, alldacs;
#X obj 126 162 t f f;
#X obj 158 182 -;
#X obj 158 203 abs;
#X connect 0 0 4 0;
#X connect 4 0 5 0;
#X connect 5 0 8 0;
#X connect 5 1 9 1;
#X connect 6 0 1 0;
#X connect 8 0 6 0;
#X connect 8 1 9 0;
#X connect 9 0 10 0;
#X connect 10 0 6 1;
#X restore 150 156 pd dacs;
#X msg 150 186 \$4;
#X msg 150 206 \$5;
#X msg 150 226 \$8;
#X msg 150 266 \$6;
#X msg 150 329 \$6 \$7 \$2;
#X msg 150 309 \$6 \$7;
#X obj 88 135 t l l;
#X obj 49 185 t l l l l;
#X obj 14 107 t l l l l l;
#X obj 72 294 t l l l;
#X obj 88 381 t l;
#X obj 90 433 t l;
#X msg 150 376 \$9;
#X obj 14 29 inlet #adc #dac #dacc #channels #fx #bus #lfc #auxsend
#auxsum #ambidim #ambiorder ambitype #ambidacs;
#X obj 14 75 t l l;
#X obj 235 74 generators/DSP/MAIN \$1/DSP;
#X text 504 442 ambisonic bus;
#X text 509 469 ambisonic encoder;
#X obj 233 469 generators/DSP/1_2D_3O_ENCODER~ \$1/DSP;
#N canvas 692 134 403 553 ambibus 0;
#X obj 86 16 inlet;
#X obj 86 268 outlet;
#X msg 86 44 list \$10 \$11 \$12 \$13;
#X text 239 45 dim order type dacs;
#X obj 86 82 t l l;
#X msg 86 109 symbol \$3\$1D\$2O;
#X obj 86 205 pack s 0;
#X text 87 227 e.g. "sphere3D4O 25";
#X text 96 64 e.g. "3 4 sphere 24";
#X msg 139 150 list \$3 \$2;
#X obj 139 178 calc_ambichans;
#X connect 0 0 2 0;
#X connect 2 0 4 0;
#X connect 4 0 5 0;
#X connect 4 1 9 0;
#X connect 5 0 6 0;
#X connect 6 0 1 0;
#X connect 9 0 10 0;
#X connect 10 0 6 1;
#X restore 146 440 pd ambibus;
#N canvas 0 0 403 553 ambi 0;
#X obj 86 16 inlet;
#X obj 86 268 outlet;
#X msg 86 114 list \$12 \$10 \$11 \$13;
#X text 239 115 type #dim #order #dacs;
#X text 99 134 e.g. "sphere 3 4 24";
#X connect 0 0 2 0;
#X connect 2 0 1 0;
#X restore 146 470 pd ambi;
#X obj 233 489 generators/DSP/1_2D_3O_DECODER_OUT4~ \$1/DSP;
#X obj 233 509 generators/DSP/1_2D_3O_ambirotate_z~ \$1/DSP;
#X obj 233 329 generators/DSP/1_LFC2_OUT3~ \$1/DSP;
#X obj 147 492 t l l l;
#X connect 11 0 0 0;
#X connect 12 0 2 0;
#X connect 13 0 3 0;
#X connect 14 0 4 0;
#X connect 15 0 6 0;
#X connect 15 0 5 0;
#X connect 16 0 7 0;
#X connect 17 0 36 0;
#X connect 18 0 8 0;
#X connect 19 0 12 0;
#X connect 19 1 11 0;
#X connect 20 0 16 0;
#X connect 20 1 15 0;
#X connect 20 2 14 0;
#X connect 20 3 13 0;
#X connect 21 0 24 0;
#X connect 21 1 23 0;
#X connect 21 2 22 0;
#X connect 21 3 20 0;
#X connect 21 4 19 0;
#X connect 22 1 17 0;
#X connect 22 2 18 0;
#X connect 23 0 25 0;
#X connect 24 0 32 0;
#X connect 24 0 33 0;
#X connect 25 0 1 0;
#X connect 26 0 27 0;
#X connect 27 0 21 0;
#X connect 27 1 28 0;
#X connect 32 0 9 0;
#X connect 33 0 37 0;
#X connect 37 0 35 0;
#X connect 37 1 34 0;
#X connect 37 2 31 0;
#X restore 74 88 pd DSP;
#X obj 14 65 t l l l l;
#N canvas 1414 158 450 300 etc 0;
#X obj 14 29 inlet #adc #dac #dacc #channels #fx #bus #lfc #auxsend
#auxsum #ambidim #ambiorder ambitype #ambidacs;
#X obj 14 69 t l l;
#X obj 46 113 generators/ETC/patches.sh \$1/ETC;
#X connect 0 0 1 0;
#X connect 1 1 2 0;
#X restore 14 185 pd etc;
#N canvas 424 422 450 300 MIDI 0;
#X obj 14 29 inlet #adc #dac #dacc #channels #fx #bus #lfc #auxsend
#auxsum #ambidim #ambiorder ambitype #ambidacs;
#X obj 14 69 t l l;
#X obj 46 154 generators/MIDI/MAIN_IN1_BUS2 \$1/MIDI;
#X msg 46 117 \$4 \$6;
#X connect 0 0 1 0;
#X connect 1 1 3 0;
#X connect 3 0 2 0;
#X restore 54 113 pd MIDI;
#X connect 0 0 2 0;
#X connect 2 0 3 0;
#X connect 2 2 4 0;
#X connect 2 3 1 0;
