#N canvas 0 0 903 635 10;
#X obj 238 206 s2l;
#X obj 213 164 t s s b;
#X msg 264 183 symbol /;
#X obj 238 234 length;
#X obj 213 137 symbol ../../lib/plugins;
#X msg 213 285 symbol \$1/*/DSP.pd;
#X obj 213 327 s2l;
#X obj 213 455 niagara 4;
#X obj 280 480 niagara -1;
#X obj 103 120 bng 15 250 50 0 \$0-build \$0-build regenerate 17 7
0 10 -262144 -1 -1;
#X obj 414 180 i \$0;
#X obj 213 111 t b b;
#N canvas 0 0 529 335 clear 0;
#X obj 11 81 inlet;
#X msg 11 128 \; \$1 clear \; \$1 obj 101 101 cnv 15 96 20 empty empty
plugins 6 10 0 14 -233017 -66577 0;
#X connect 0 0 1 0;
#X restore 449 282 pd clear;
#N canvas 337 38 450 413 1003-gui 0;
#X obj 101 101 cnv 15 96 20 empty empty plugins 6 10 0 14 -233017 -66577
0;
#X coords 0 -1 1 1 98 260 1 100 100;
#X restore 101 139 pd \$0-gui;
#X obj 414 220 makefilename pd-%d-gui;
#N canvas 0 0 744 419 generate 0;
#X obj 75 40 inlet;
#X obj 305 41 inlet canvasname;
#X text 228 257 COMPANDER \$0-COMPANDER y canvasname \$0;
#X obj 75 255 pack s s 0 s \$0;
#X obj 100 104 pack s \$0;
#X obj 100 144 l2s;
#X msg 129 144 symbol -;
#X obj 132 206 i;
#X obj 164 207 + 20;
#X obj 132 229 t f f;
#X obj 75 76 t s s b;
#X obj 305 69 t s b b;
#X msg 151 186 130;
#X msg 100 123 \$2 \$1;
#X msg 75 282 \; \$4 obj 104 \$3 tgl 15 0 \$2 \$2 \$1 17 7 0 10 -262144
-1 -1 0 1 \; \$4 obj 304 \$3 gPluginHelper \$1 \$2 \$5 \; \$2 1;
#X connect 0 0 10 0;
#X connect 1 0 11 0;
#X connect 3 0 14 0;
#X connect 4 0 13 0;
#X connect 5 0 3 1;
#X connect 6 0 5 1;
#X connect 7 0 9 0;
#X connect 8 0 7 1;
#X connect 9 0 3 2;
#X connect 9 1 8 0;
#X connect 10 0 3 0;
#X connect 10 1 4 0;
#X connect 10 2 7 0;
#X connect 11 0 3 3;
#X connect 11 1 6 0;
#X connect 11 2 12 0;
#X connect 12 0 7 1;
#X connect 13 0 5 0;
#X restore 280 523 pd generate;
#X obj 414 258 t l l;
#X obj 414 239 pack s 0;
#X obj 414 200 t f f;
#X obj 642 184 s \$0-inlet;
#X msg 617 102 bang;
#X obj 642 205 r \$0-outlet;
#X msg 414 154 bang;
#X obj 642 234 route 1;
#X obj 642 260 symbol;
#X obj 617 131 t b b b;
#X msg 668 323 reset;
#N canvas 0 0 845 598 generateDSPpatch 0;
#X msg 190 510 clear;
#X obj 152 469 list prepend add;
#X obj 152 490 list trim;
#X obj 152 25 inlet;
#X obj 152 46 route reset bang symbol;
#X obj 273 154 symbol;
#X obj 273 274 pack s 0;
#X obj 273 174 t s b;
#X obj 332 195 i;
#X obj 152 69 t b b b;
#X obj 152 533 msgfile;
#X msg 152 92 #N canvas 0 0 450 300 10 \, #X obj 0 0 inlet~ \, #X obj
0 200 outlet~ \, #X obj 0 50 CUBEmixer_plugin0~ $$0 $$1 $$2;
#X msg 273 294 #X obj 60 \$2 CUBEmixer_plugin~ $$0 \$1 $$1 $$2;
#X obj 211 299 t b b;
#X obj 332 234 * 25;
#X obj 332 253 + 100;
#X msg 351 169 0;
#X obj 366 195 + 1;
#X obj 332 214 t f f;
#X obj 246 322 i;
#X obj 246 342 t f b;
#X obj 246 383 until;
#X obj 291 383 i;
#X obj 322 383 + 1;
#X msg 291 362 2;
#X msg 291 404 #X connect 0 0 \$1 0 \, #X connect \$1 0 1 0;
#X floatatom 304 330 5 0 0 0 - - -;
#X obj 246 362 + 1;
#X msg 211 448 write ../../lib/DSP/abs/EFF_PLUG_IN~.pd $$;
#X connect 0 0 10 0;
#X connect 1 0 2 0;
#X connect 2 0 10 0;
#X connect 3 0 4 0;
#X connect 4 0 9 0;
#X connect 4 1 13 0;
#X connect 4 2 5 0;
#X connect 5 0 7 0;
#X connect 6 0 12 0;
#X connect 7 0 6 0;
#X connect 7 1 8 0;
#X connect 8 0 17 0;
#X connect 8 0 18 0;
#X connect 9 0 11 0;
#X connect 9 1 0 0;
#X connect 9 2 16 0;
#X connect 11 0 1 0;
#X connect 12 0 1 0;
#X connect 13 0 28 0;
#X connect 13 1 19 0;
#X connect 14 0 15 0;
#X connect 15 0 6 1;
#X connect 16 0 8 1;
#X connect 17 0 8 1;
#X connect 18 0 14 0;
#X connect 18 1 19 1;
#X connect 19 0 20 0;
#X connect 19 0 26 0;
#X connect 20 0 27 0;
#X connect 20 1 24 0;
#X connect 21 0 22 0;
#X connect 22 0 23 0;
#X connect 22 0 25 0;
#X connect 23 0 22 1;
#X connect 24 0 22 0;
#X connect 25 0 1 0;
#X connect 27 0 21 0;
#X connect 28 0 10 0;
#X restore 642 388 pd generateDSPpatch;
#N canvas 0 0 845 410 generateGUIpatch 0;
#X msg 190 350 clear;
#X obj 152 293 list prepend add;
#X obj 152 314 list trim;
#X obj 152 25 inlet;
#X msg 152 96 #N canvas 0 0 450 300 10;
#X obj 152 46 route reset bang symbol;
#X obj 273 154 symbol;
#X obj 273 224 pack s 0;
#X obj 273 174 t s b;
#X obj 332 201 i;
#X obj 366 201 + 25;
#X msg 351 175 100;
#X obj 152 69 t b b b;
#X msg 273 244 #X obj 60 \$2 inchan/plugin/plugin \$1 $$1 $$2;
#X obj 152 373 msgfile;
#X msg 211 126 write ../../lib/GUI/inchan/plugin/EFF_PLUG_IN.pd $$
;
#X connect 0 0 14 0;
#X connect 1 0 2 0;
#X connect 2 0 14 0;
#X connect 3 0 5 0;
#X connect 4 0 1 0;
#X connect 5 0 12 0;
#X connect 5 1 15 0;
#X connect 5 2 6 0;
#X connect 6 0 8 0;
#X connect 7 0 13 0;
#X connect 8 0 7 0;
#X connect 8 1 9 0;
#X connect 9 0 10 0;
#X connect 9 0 7 1;
#X connect 10 0 9 1;
#X connect 11 0 9 1;
#X connect 12 0 4 0;
#X connect 12 1 0 0;
#X connect 12 2 11 0;
#X connect 13 0 1 0;
#X connect 15 0 14 0;
#X restore 677 367 pd generateGUIpatch;
#X obj 642 343 t a a;
#X obj 213 307 folder_list ../../lib/plugins/*/DSP.pd;
#X obj 229 431 s2l;
#X obj 229 388 l2s;
#X obj 229 409 folder_list ../../lib/plugins/*/GUI.pd;
#X obj 229 349 niagara -1;
#X obj 229 368 list append GUI.pd;
#X obj 213 88 loadbang;
#X obj 606 68 r CUBEmixer_generateConfig;
#X connect 0 0 3 0;
#X connect 1 0 5 0;
#X connect 1 1 0 0;
#X connect 1 2 2 0;
#X connect 2 0 0 1;
#X connect 2 0 6 1;
#X connect 2 0 31 1;
#X connect 2 0 32 1;
#X connect 3 0 7 1;
#X connect 4 0 1 0;
#X connect 5 0 30 0;
#X connect 6 0 34 0;
#X connect 7 1 8 0;
#X connect 8 0 15 0;
#X connect 9 0 11 0;
#X connect 10 0 18 0;
#X connect 11 0 4 0;
#X connect 11 1 10 0;
#X connect 14 0 17 0;
#X connect 16 0 15 1;
#X connect 16 1 12 0;
#X connect 17 0 16 0;
#X connect 18 0 14 0;
#X connect 18 1 17 1;
#X connect 20 0 25 0;
#X connect 21 0 23 0;
#X connect 22 0 10 0;
#X connect 23 0 24 0;
#X connect 24 0 29 0;
#X connect 25 0 29 0;
#X connect 25 1 19 0;
#X connect 25 2 26 0;
#X connect 26 0 29 0;
#X connect 29 0 27 0;
#X connect 29 1 28 0;
#X connect 30 0 6 0;
#X connect 31 0 7 0;
#X connect 32 0 33 0;
#X connect 33 0 31 0;
#X connect 34 0 35 0;
#X connect 35 0 32 0;
#X connect 36 0 11 0;
#X connect 37 0 20 0;
#X coords 0 -1 1 1 100 300 1 100 100;
