#N canvas 151 107 699 543 10;
#X obj 517 201 switch~;
#X obj 517 87 t b b;
#X msg 547 107 0;
#X msg 517 176 0;
#X obj 517 66 select 0;
#X obj 568 86 t f f;
#X obj 517 153 del 60;
#X obj 547 131 f;
#X obj 28 42 dither~;
#X obj 121 259 multiline~ 0 0 0 0 0 0 0 0 0 50;
#X obj 122 286 3_ambi_enc~ 1_RRR;
#X obj 151 310 3_ambi_enc~ 2_RRR;
#X obj 177 334 3_ambi_enc~ 3_RRR;
#X obj 195 359 3_ambi_enc~ 4_RRR;
#X obj 217 383 3_ambi_enc~ 5_RRR;
#X obj 239 407 3_ambi_enc~ 6_RRR;
#X obj 260 427 3_ambi_enc~ 7_RRR;
#X obj 281 451 3_ambi_enc~ 8_RRR;
#X obj 304 475 3_ambi_enc~ 9_RRR;
#X obj 374 247 route list;
#X text 184 502 3.Order Ambisonic for reverb is enough;
#X text 325 24 Room in Room Reverberation (RRR) (wr);
#X obj 517 40 sr_setting EXT_RRR_ON;
#X text 83 300 front;
#X text 104 318 side;
#X text 126 333 rear;
#X text 159 370 front;
#X text 176 389 side;
#X text 194 407 rear;
#X text 223 442 front;
#X text 238 462 side;
#X text 257 479 rear;
#X text 10 329 1st reflections;
#X text 71 406 2nd reflections;
#X text 160 473 late reverb;
#X obj 378 227 sendreceive EXT_RRR_PARAM;
#X obj 121 201 abs/REV_6_12_6~ ____________________;
#X obj 325 160 abs/RRR_SRC~ 6 22_ADC;
#X obj 421 346 t f;
#X obj 420 319 f 0;
#X obj 420 275 sel 1;
#X obj 462 274 sr_parameter EXT_RRR_VOL;
#X obj 445 405 sr_parameter EXT_RRR_PBANKFILE;
#X obj 461 298 dbtorms;
#X obj 123 30 abs/RRR_SRC~ 1 17_ADC;
#X obj 164 54 abs/RRR_SRC~ 2 18_ADC;
#X obj 206 83 abs/RRR_SRC~ 3 19_ADC;
#X obj 247 107 abs/RRR_SRC~ 4 20_ADC;
#X obj 287 131 abs/RRR_SRC~ 5 21_ADC;
#X connect 1 0 6 0;
#X connect 1 1 2 0;
#X connect 2 0 7 0;
#X connect 3 0 0 0;
#X connect 4 0 1 0;
#X connect 4 1 5 0;
#X connect 5 0 7 0;
#X connect 5 1 0 0;
#X connect 6 0 3 0;
#X connect 7 0 38 0;
#X connect 7 0 40 0;
#X connect 7 0 37 0;
#X connect 7 0 48 0;
#X connect 7 0 47 0;
#X connect 7 0 46 0;
#X connect 7 0 45 0;
#X connect 7 0 44 0;
#X connect 8 0 36 0;
#X connect 9 0 10 0;
#X connect 9 1 11 0;
#X connect 9 2 12 0;
#X connect 9 3 13 0;
#X connect 9 4 14 0;
#X connect 9 5 15 0;
#X connect 9 6 16 0;
#X connect 9 7 17 0;
#X connect 9 8 18 0;
#X connect 19 0 36 6;
#X connect 19 1 36 6;
#X connect 22 0 4 0;
#X connect 35 0 19 0;
#X connect 36 0 9 0;
#X connect 36 1 9 0;
#X connect 36 2 9 1;
#X connect 36 3 9 1;
#X connect 36 4 9 2;
#X connect 36 5 9 2;
#X connect 36 6 9 3;
#X connect 36 7 9 3;
#X connect 36 8 9 4;
#X connect 36 9 9 4;
#X connect 36 10 9 5;
#X connect 36 11 9 5;
#X connect 36 12 9 6;
#X connect 36 13 9 6;
#X connect 36 14 9 7;
#X connect 36 15 9 7;
#X connect 36 16 9 8;
#X connect 36 17 9 8;
#X connect 37 0 36 5;
#X connect 38 0 10 1;
#X connect 38 0 11 1;
#X connect 38 0 12 1;
#X connect 38 0 13 1;
#X connect 38 0 14 1;
#X connect 38 0 15 1;
#X connect 38 0 16 1;
#X connect 38 0 17 1;
#X connect 38 0 18 1;
#X connect 39 0 9 9;
#X connect 40 0 39 0;
#X connect 40 1 9 9;
#X connect 41 0 43 0;
#X connect 43 0 39 0;
#X connect 44 0 36 0;
#X connect 45 0 36 1;
#X connect 46 0 36 2;
#X connect 47 0 36 3;
#X connect 48 0 36 4;
