#N canvas 99 27 1251 842 10;
#X obj 517 201 switch~;
#X obj 517 87 t b b;
#X msg 547 107 0;
#X msg 517 176 0;
#X obj 517 66 select 0;
#X obj 568 86 t f f;
#X obj 517 153 del 60;
#X obj 547 131 f;
#X obj 28 42 dither~;
#X obj 480 249 route list;
#X obj 517 40 sr_setting EXT_RRR_ON;
#X obj 484 229 sendreceive EXT_RRR_PARAM;
#X obj 120 224 abs/REV_6_12_6~ ____________________;
#X obj 325 160 abs/RRR_SRC~ 6 22_ADC;
#X obj 589 186 f 0;
#X obj 589 142 sel 1;
#X obj 631 141 sr_parameter EXT_RRR_VOL;
#X obj 630 165 dbtorms;
#X obj 123 30 abs/RRR_SRC~ 1 17_ADC;
#X obj 163 59 abs/RRR_SRC~ 2 18_ADC;
#X obj 206 83 abs/RRR_SRC~ 3 19_ADC;
#X obj 247 107 abs/RRR_SRC~ 4 20_ADC;
#X obj 287 131 abs/RRR_SRC~ 5 21_ADC;
#X obj 765 45 t f;
#X obj 745 87 sr_parameter EXT_RRR_PRESET;
#X obj 746 111 sr_setting EXT_RRR_PBANKFILE;
#X text 234 1 Room in Room Reverberation (RRR) Thomas Musil;
#X text 394 20 adapted winfried ritsch;
#X floatatom 841 59 5 0 0 0 - - -;
#X obj 752 22 sr_parameter EXT_RRR_AMBI_JITTER;
#N canvas 0 0 1133 822 parametr_bandpass__________ 0;
#X floatatom 649 264 5 0 0 0 - - -;
#X text 692 263 Hz;
#X floatatom 684 280 5 0 0 0 - - -;
#X text 727 279 Q;
#X floatatom 717 298 5 0 0 0 - - -;
#X text 760 297 dB;
#X obj 75 337 para_bp2~ 48 1 -3 100;
#X obj 155 313 para_bp2~ 48 1 -3 100;
#X obj 234 337 para_bp2~ 48 1 -3 100;
#X obj 317 314 para_bp2~ 48 1 -3 100;
#X obj 400 335 para_bp2~ 48 1 -3 100;
#X obj 484 316 para_bp2~ 48 1 -3 100;
#X obj 651 244 unpack 0 0 0;
#X floatatom 654 373 5 0 0 0 - - -;
#X text 697 372 Hz;
#X floatatom 689 390 5 0 0 0 - - -;
#X text 732 388 Q;
#X floatatom 722 407 5 0 0 0 - - -;
#X obj 76 453 para_bp2~ 48 1 -3 100;
#X obj 158 432 para_bp2~ 48 1 -3 100;
#X obj 243 453 para_bp2~ 48 1 -3 100;
#X obj 326 431 para_bp2~ 48 1 -3 100;
#X obj 409 452 para_bp2~ 48 1 -3 100;
#X obj 496 431 para_bp2~ 48 1 -3 100;
#X obj 656 353 unpack 0 0 0;
#X obj 539 15 loadbang;
#X floatatom 646 514 5 0 0 0 - - -;
#X text 689 513 Hz;
#X floatatom 681 531 5 0 0 0 - - -;
#X text 724 529 Q;
#X floatatom 714 548 5 0 0 0 - - -;
#X obj 68 594 para_bp2~ 48 1 -3 100;
#X obj 150 573 para_bp2~ 48 1 -3 100;
#X obj 235 594 para_bp2~ 48 1 -3 100;
#X obj 318 572 para_bp2~ 48 1 -3 100;
#X obj 401 593 para_bp2~ 48 1 -3 100;
#X obj 488 572 para_bp2~ 48 1 -3 100;
#X obj 648 494 unpack 0 0 0;
#X obj 77 76 inlet~;
#X obj 70 787 outlet~;
#X obj 155 77 inlet~;
#X obj 148 788 outlet~;
#X obj 238 79 inlet~;
#X obj 231 790 outlet~;
#X obj 317 79 inlet~;
#X obj 310 790 outlet~;
#X obj 399 79 inlet~;
#X obj 392 790 outlet~;
#X obj 491 82 inlet~;
#X obj 484 793 outlet~;
#X msg 808 63 1250 2 -4;
#X msg 648 469 47 2 -6;
#X msg 651 219 705 2 -4;
#X msg 807 182 110 2 -4;
#X msg 656 328 330 2 -4;
#X floatatom 645 659 5 0 0 0 - - -;
#X text 688 658 Hz;
#X floatatom 680 676 5 0 0 0 - - -;
#X text 723 674 Q;
#X floatatom 713 693 5 0 0 0 - - -;
#X obj 67 739 para_bp2~ 48 1 -3 100;
#X obj 149 718 para_bp2~ 48 1 -3 100;
#X obj 234 739 para_bp2~ 48 1 -3 100;
#X obj 317 717 para_bp2~ 48 1 -3 100;
#X obj 400 738 para_bp2~ 48 1 -3 100;
#X obj 487 717 para_bp2~ 48 1 -3 100;
#X obj 647 639 unpack 0 0 0;
#X msg 647 614 33 2 -6;
#X floatatom 649 154 5 0 0 0 - - -;
#X text 692 153 Hz;
#X floatatom 684 170 5 0 0 0 - - -;
#X text 727 169 Q;
#X floatatom 717 188 5 0 0 0 - - -;
#X text 760 187 dB;
#X obj 75 227 para_bp2~ 48 1 -3 100;
#X obj 155 203 para_bp2~ 48 1 -3 100;
#X obj 234 227 para_bp2~ 48 1 -3 100;
#X obj 317 204 para_bp2~ 48 1 -3 100;
#X obj 400 225 para_bp2~ 48 1 -3 100;
#X obj 484 206 para_bp2~ 48 1 -3 100;
#X obj 651 134 unpack 0 0 0;
#X msg 651 109 1220 2 -4;
#X connect 0 0 6 1;
#X connect 0 0 7 1;
#X connect 0 0 9 1;
#X connect 0 0 10 1;
#X connect 0 0 11 1;
#X connect 2 0 6 2;
#X connect 2 0 7 2;
#X connect 2 0 8 2;
#X connect 2 0 9 2;
#X connect 2 0 10 2;
#X connect 2 0 11 2;
#X connect 4 0 6 3;
#X connect 4 0 7 3;
#X connect 4 0 8 3;
#X connect 4 0 9 3;
#X connect 4 0 10 3;
#X connect 4 0 11 3;
#X connect 6 0 18 0;
#X connect 7 0 19 0;
#X connect 8 0 20 0;
#X connect 9 0 21 0;
#X connect 10 0 22 0;
#X connect 11 0 23 0;
#X connect 12 0 0 0;
#X connect 12 1 2 0;
#X connect 12 2 4 0;
#X connect 13 0 18 1;
#X connect 13 0 19 1;
#X connect 13 0 21 1;
#X connect 13 0 22 1;
#X connect 13 0 23 1;
#X connect 15 0 18 2;
#X connect 15 0 19 2;
#X connect 15 0 20 2;
#X connect 15 0 21 2;
#X connect 15 0 22 2;
#X connect 15 0 23 2;
#X connect 17 0 18 3;
#X connect 17 0 19 3;
#X connect 17 0 20 3;
#X connect 17 0 21 3;
#X connect 17 0 22 3;
#X connect 17 0 23 3;
#X connect 18 0 31 0;
#X connect 19 0 32 0;
#X connect 20 0 33 0;
#X connect 21 0 34 0;
#X connect 22 0 35 0;
#X connect 23 0 36 0;
#X connect 24 0 13 0;
#X connect 24 1 15 0;
#X connect 24 2 17 0;
#X connect 25 0 52 0;
#X connect 25 0 54 0;
#X connect 25 0 51 0;
#X connect 25 0 67 0;
#X connect 25 0 81 0;
#X connect 26 0 31 1;
#X connect 26 0 32 1;
#X connect 26 0 34 1;
#X connect 26 0 35 1;
#X connect 26 0 36 1;
#X connect 28 0 31 2;
#X connect 28 0 32 2;
#X connect 28 0 33 2;
#X connect 28 0 34 2;
#X connect 28 0 35 2;
#X connect 28 0 36 2;
#X connect 30 0 31 3;
#X connect 30 0 32 3;
#X connect 30 0 33 3;
#X connect 30 0 34 3;
#X connect 30 0 35 3;
#X connect 30 0 36 3;
#X connect 31 0 60 0;
#X connect 32 0 61 0;
#X connect 33 0 62 0;
#X connect 34 0 63 0;
#X connect 35 0 64 0;
#X connect 36 0 65 0;
#X connect 37 0 26 0;
#X connect 37 1 28 0;
#X connect 37 2 30 0;
#X connect 38 0 74 0;
#X connect 40 0 75 0;
#X connect 42 0 76 0;
#X connect 44 0 77 0;
#X connect 46 0 78 0;
#X connect 48 0 79 0;
#X connect 51 0 37 0;
#X connect 52 0 12 0;
#X connect 54 0 24 0;
#X connect 55 0 60 1;
#X connect 55 0 61 1;
#X connect 55 0 63 1;
#X connect 55 0 64 1;
#X connect 55 0 65 1;
#X connect 57 0 60 2;
#X connect 57 0 61 2;
#X connect 57 0 62 2;
#X connect 57 0 63 2;
#X connect 57 0 64 2;
#X connect 57 0 65 2;
#X connect 59 0 60 3;
#X connect 59 0 61 3;
#X connect 59 0 62 3;
#X connect 59 0 63 3;
#X connect 59 0 64 3;
#X connect 59 0 65 3;
#X connect 60 0 39 0;
#X connect 61 0 41 0;
#X connect 62 0 43 0;
#X connect 63 0 45 0;
#X connect 64 0 47 0;
#X connect 65 0 49 0;
#X connect 66 0 55 0;
#X connect 66 1 57 0;
#X connect 66 2 59 0;
#X connect 67 0 66 0;
#X connect 68 0 74 1;
#X connect 68 0 75 1;
#X connect 68 0 77 1;
#X connect 68 0 78 1;
#X connect 68 0 79 1;
#X connect 70 0 74 2;
#X connect 70 0 75 2;
#X connect 70 0 76 2;
#X connect 70 0 77 2;
#X connect 70 0 78 2;
#X connect 70 0 79 2;
#X connect 72 0 74 3;
#X connect 72 0 75 3;
#X connect 72 0 76 3;
#X connect 72 0 77 3;
#X connect 72 0 78 3;
#X connect 72 0 79 3;
#X connect 74 0 6 0;
#X connect 75 0 7 0;
#X connect 76 0 8 0;
#X connect 77 0 9 0;
#X connect 78 0 10 0;
#X connect 79 0 11 0;
#X connect 80 0 68 0;
#X connect 80 1 70 0;
#X connect 80 2 72 0;
#X connect 81 0 80 0;
#X restore 121 186 pd parametr_bandpass__________;
#X obj 833 318 pp col;
#N canvas 1452 68 958 679 analys 0;
#X obj 483 135 for++ 0 2047;
#X obj 484 110 bng 15 250 50 0 empty empty empty 0 -6 0 8 -262144 -1
-1;
#X obj 482 84 loadbang;
#X obj 482 158 t f f;
#X obj 484 192 / 2048;
#X obj 484 217 * 3.14159;
#X obj 484 241 sin;
#X obj 485 266 t f f;
#X obj 483 291 *;
#X obj 125 91 *~;
#X obj 124 122 rfft~;
#X obj 116 159 *~;
#X obj 151 160 *~;
#X obj 123 186 +~;
#X obj 123 210 powtodb~;
#N canvas 0 0 450 300 graph26 0;
#X array \$0_spec1024 1024 float 0;
#X coords 0 140 1023 0 800 140 1;
#X restore 33 502 graph;
#X obj 126 38 inlet~;
#N canvas 0 0 450 300 graph26 0;
#X array \$0_spec128 128 float 0;
#X coords 0 140 127 0 512 140 1;
#X restore 33 334 graph;
#X obj 765 90 osc~ 100;
#X floatatom 767 63 8 0 0 0 - - -;
#X obj 34 263 tgl 55 0 empty empty empty 0 -6 0 8 -262144 -1 -1 0 1
;
#X obj 801 140 * 0.2;
#X obj 763 161 *~ 0;
#X obj 145 67 tabreceive~ \$0_hann;
#X obj 478 49 table \$0_hann 2048;
#X obj 124 238 tabsend~ \$0_spec1024;
#X obj 287 240 tabsend~ \$0_spec128;
#X obj 482 312 tabwrite \$0_hann;
#X obj 328 52 switch~ 2048 1;
#X obj 328 25 tgl 15 0 empty empty empty 0 -6 0 8 -262144 -1 -1 0 1
;
#X connect 0 0 3 0;
#X connect 1 0 0 0;
#X connect 2 0 1 0;
#X connect 3 0 4 0;
#X connect 3 1 27 1;
#X connect 4 0 5 0;
#X connect 5 0 6 0;
#X connect 6 0 7 0;
#X connect 7 0 8 0;
#X connect 7 1 8 1;
#X connect 8 0 27 0;
#X connect 9 0 10 0;
#X connect 10 0 11 0;
#X connect 10 0 11 1;
#X connect 10 1 12 0;
#X connect 10 1 12 1;
#X connect 11 0 13 0;
#X connect 12 0 13 1;
#X connect 13 0 14 0;
#X connect 14 0 25 0;
#X connect 14 0 26 0;
#X connect 16 0 9 0;
#X connect 18 0 22 0;
#X connect 19 0 18 0;
#X connect 20 0 21 0;
#X connect 21 0 22 1;
#X connect 22 0 9 0;
#X connect 23 0 9 1;
#X connect 29 0 28 0;
#X restore 20 275 pd analys;
#X text 480 369 set throw-name to 0_AMBI \, if not used;
#X obj 132 583 throw~ 0_AMBI_BUS;
#X obj 146 561 throw~ 0_AMBI_BUS;
#X obj 161 540 throw~ 0_AMBI_BUS;
#X obj 176 517 throw~ 0_AMBI_BUS;
#X obj 191 496 throw~ 0_AMBI_BUS;
#X obj 206 473 throw~ 0_AMBI_BUS;
#X obj 221 451 throw~ 0_AMBI_BUS;
#X obj 237 431 throw~ 0_AMBI_BUS;
#X obj 313 583 throw~ 0_AMBI_BUS;
#X obj 328 561 throw~ 0_AMBI_BUS;
#X obj 345 539 throw~ 0_AMBI_BUS;
#X obj 358 517 throw~ 0_AMBI_BUS;
#X obj 373 496 throw~ 0_AMBI_BUS;
#X obj 388 473 throw~ 0_AMBI_BUS;
#X obj 403 451 throw~ 0_AMBI_BUS;
#X obj 418 429 throw~ 0_AMBI_BUS;
#N canvas 0 0 969 385 set_name_____________________________________
0;
#X obj 834 10 inlet;
#X obj 834 35 sel 0 1;
#X obj 23 149 outlet;
#X obj 93 149 outlet;
#X obj 163 150 outlet;
#X obj 233 150 outlet;
#X obj 305 150 outlet;
#X obj 375 150 outlet;
#X obj 445 151 outlet;
#X obj 515 151 outlet;
#X obj 593 167 outlet;
#X obj 663 167 outlet;
#X obj 733 168 outlet;
#X obj 803 168 outlet;
#X obj 875 168 outlet;
#X obj 945 168 outlet;
#X obj 1015 169 outlet;
#X obj 1085 169 outlet;
#X msg 808 71 set 0_AMBI_BUS;
#X msg 1084 146 set 16_AMBI_BUS;
#X msg 1015 122 set 15_AMBI_BUS;
#X msg 945 145 set 14_AMBI_BUS;
#X msg 875 121 set 13_AMBI_BUS;
#X msg 803 145 set 12_AMBI_BUS;
#X msg 23 103 set 1_AMBI_BUS;
#X msg 93 126 set 2_AMBI_BUS;
#X msg 163 104 set 3_AMBI_BUS;
#X msg 306 103 set 5_AMBI_BUS;
#X msg 233 127 set 4_AMBI_BUS;
#X msg 375 126 set 6_AMBI_BUS;
#X msg 445 104 set 7_AMBI_BUS;
#X msg 516 127 set 8_AMBI_BUS;
#X msg 594 105 set 9_AMBI_BUS;
#X msg 664 144 set 10_AMBI_BUS;
#X msg 733 121 set 11_AMBI_BUS;
#X connect 0 0 1 0;
#X connect 1 0 18 0;
#X connect 1 1 24 0;
#X connect 1 1 25 0;
#X connect 1 1 26 0;
#X connect 1 1 28 0;
#X connect 1 1 27 0;
#X connect 1 1 29 0;
#X connect 1 1 30 0;
#X connect 1 1 31 0;
#X connect 1 1 32 0;
#X connect 1 1 33 0;
#X connect 1 1 34 0;
#X connect 1 1 23 0;
#X connect 1 1 22 0;
#X connect 1 1 21 0;
#X connect 1 1 20 0;
#X connect 1 1 19 0;
#X connect 18 0 2 0;
#X connect 18 0 3 0;
#X connect 18 0 4 0;
#X connect 18 0 5 0;
#X connect 18 0 6 0;
#X connect 18 0 7 0;
#X connect 18 0 8 0;
#X connect 18 0 9 0;
#X connect 18 0 10 0;
#X connect 18 0 11 0;
#X connect 18 0 12 0;
#X connect 18 0 13 0;
#X connect 18 0 14 0;
#X connect 18 0 15 0;
#X connect 18 0 16 0;
#X connect 18 0 17 0;
#X connect 19 0 17 0;
#X connect 20 0 16 0;
#X connect 21 0 15 0;
#X connect 22 0 14 0;
#X connect 23 0 13 0;
#X connect 24 0 2 0;
#X connect 25 0 3 0;
#X connect 26 0 4 0;
#X connect 27 0 6 0;
#X connect 28 0 5 0;
#X connect 29 0 7 0;
#X connect 30 0 8 0;
#X connect 31 0 9 0;
#X connect 32 0 10 0;
#X connect 33 0 11 0;
#X connect 34 0 12 0;
#X restore 113 369 pd set_name_____________________________________
;
#X obj 833 343 ambi_encode 3;
#X obj 106 301 matrix_diag_mul_line8~ 18 200 _________________;
#X obj 106 327 matrix_mul_line8~ 18 16 200 ___________________;
#X msg 506 283 diag \$1 \$1 \$1 \$1 \$1 \$1 \$1 \$1 \$1 \$1 \$1 \$1
\$1 \$1 \$1 \$1 \$1 \$1;
#X obj 935 365 rrr_transf_elv_azm 1;
#X obj 935 385 rrr_transf_elv_azm 2;
#X obj 935 405 rrr_transf_elv_azm 3;
#X obj 935 425 rrr_transf_elv_azm 4;
#X obj 935 445 rrr_transf_elv_azm 5;
#X obj 935 465 rrr_transf_elv_azm 6;
#X obj 935 485 rrr_transf_elv_azm 7;
#X obj 935 505 rrr_transf_elv_azm 8;
#X obj 935 525 rrr_transf_elv_azm 9;
#X obj 935 545 rrr_transf_elv_azm 10;
#X obj 935 565 rrr_transf_elv_azm 11;
#X obj 935 585 rrr_transf_elv_azm 12;
#X obj 935 605 rrr_transf_elv_azm 13;
#X obj 935 625 rrr_transf_elv_azm 14;
#X obj 935 645 rrr_transf_elv_azm 15;
#X obj 935 665 rrr_transf_elv_azm 16;
#X obj 935 685 rrr_transf_elv_azm 17;
#X obj 935 705 rrr_transf_elv_azm 18;
#X connect 1 0 6 0;
#X connect 1 1 2 0;
#X connect 2 0 7 0;
#X connect 3 0 0 0;
#X connect 4 0 1 0;
#X connect 4 1 5 0;
#X connect 5 0 7 0;
#X connect 5 1 0 0;
#X connect 5 1 50 0;
#X connect 6 0 3 0;
#X connect 7 0 15 0;
#X connect 7 0 13 0;
#X connect 7 0 22 0;
#X connect 7 0 21 0;
#X connect 7 0 20 0;
#X connect 7 0 19 0;
#X connect 7 0 18 0;
#X connect 8 0 12 0;
#X connect 9 0 12 6;
#X connect 9 1 12 6;
#X connect 10 0 4 0;
#X connect 11 0 9 0;
#X connect 12 0 52 0;
#X connect 12 1 52 1;
#X connect 12 2 52 2;
#X connect 12 3 52 3;
#X connect 12 4 52 4;
#X connect 12 5 52 5;
#X connect 12 6 52 6;
#X connect 12 7 52 7;
#X connect 12 8 52 8;
#X connect 12 9 52 9;
#X connect 12 10 52 10;
#X connect 12 11 52 11;
#X connect 12 12 52 12;
#X connect 12 13 52 13;
#X connect 12 14 52 14;
#X connect 12 15 52 15;
#X connect 12 16 52 16;
#X connect 12 17 52 17;
#X connect 13 0 30 5;
#X connect 14 0 54 0;
#X connect 15 0 14 0;
#X connect 15 1 54 0;
#X connect 16 0 17 0;
#X connect 17 0 14 0;
#X connect 18 0 30 0;
#X connect 19 0 30 1;
#X connect 20 0 30 2;
#X connect 21 0 30 3;
#X connect 22 0 30 4;
#X connect 29 0 23 0;
#X connect 29 0 28 0;
#X connect 30 0 12 0;
#X connect 30 1 12 1;
#X connect 30 2 12 2;
#X connect 30 3 12 3;
#X connect 30 4 12 4;
#X connect 30 5 12 5;
#X connect 31 0 51 0;
#X connect 50 0 34 0;
#X connect 50 1 35 0;
#X connect 50 2 36 0;
#X connect 50 3 37 0;
#X connect 50 4 38 0;
#X connect 50 5 39 0;
#X connect 50 6 40 0;
#X connect 50 7 41 0;
#X connect 50 8 42 0;
#X connect 50 9 43 0;
#X connect 50 10 44 0;
#X connect 50 11 45 0;
#X connect 50 12 46 0;
#X connect 50 13 47 0;
#X connect 50 14 48 0;
#X connect 50 15 49 0;
#X connect 51 0 53 0;
#X connect 52 0 53 0;
#X connect 52 1 53 1;
#X connect 52 2 53 2;
#X connect 52 3 53 3;
#X connect 52 4 53 4;
#X connect 52 5 53 5;
#X connect 52 6 53 6;
#X connect 52 7 53 7;
#X connect 52 8 53 8;
#X connect 52 9 53 9;
#X connect 52 10 53 10;
#X connect 52 11 53 11;
#X connect 52 12 53 12;
#X connect 52 13 53 13;
#X connect 52 14 53 14;
#X connect 52 15 53 15;
#X connect 52 16 53 16;
#X connect 52 17 53 17;
#X connect 53 0 34 0;
#X connect 53 0 32 0;
#X connect 53 1 35 0;
#X connect 53 2 36 0;
#X connect 53 3 37 0;
#X connect 53 4 38 0;
#X connect 53 5 39 0;
#X connect 53 6 40 0;
#X connect 53 7 41 0;
#X connect 53 8 42 0;
#X connect 53 9 43 0;
#X connect 53 10 44 0;
#X connect 53 11 45 0;
#X connect 53 12 46 0;
#X connect 53 13 47 0;
#X connect 53 14 48 0;
#X connect 53 15 49 0;
#X connect 54 0 52 0;
#X connect 55 0 31 0;
#X connect 56 0 31 0;
#X connect 57 0 31 0;
#X connect 58 0 31 0;
#X connect 59 0 31 0;
#X connect 60 0 31 0;
#X connect 61 0 31 0;
#X connect 62 0 31 0;
#X connect 63 0 31 0;
#X connect 64 0 31 0;
#X connect 65 0 31 0;
#X connect 66 0 31 0;
#X connect 67 0 31 0;
#X connect 68 0 31 0;
#X connect 69 0 31 0;
#X connect 70 0 31 0;
#X connect 71 0 31 0;
#X connect 72 0 31 0;
