#N canvas 1280 93 918 713 10;
#X obj 517 201 switch~;
#X obj 517 87 t b b;
#X msg 547 107 0;
#X msg 517 176 0;
#X obj 517 66 select 0;
#X obj 568 86 t f f;
#X obj 517 153 del 60;
#X obj 547 131 f;
#X obj 28 42 dither~;
#X obj 480 249 route list;
#X text 48 519 3.Order Ambisonic for reverb is enough;
#X obj 517 40 sr_setting EXT_RRR_ON;
#X text 83 300 front;
#X text 104 318 side;
#X text 126 333 rear;
#X text 159 370 front;
#X text 176 389 side;
#X text 194 407 rear;
#X text 223 442 front;
#X text 238 462 side;
#X text 257 479 rear;
#X text 10 329 1st reflections;
#X text 71 406 2nd reflections;
#X text 160 473 late reverb;
#X obj 484 229 sendreceive EXT_RRR_PARAM;
#X obj 121 201 abs/REV_6_12_6~ ____________________;
#X obj 325 160 abs/RRR_SRC~ 6 22_ADC;
#X obj 362 298 t f;
#X obj 526 321 f 0;
#X obj 526 277 sel 1;
#X obj 568 276 sr_parameter EXT_RRR_VOL;
#X obj 567 300 dbtorms;
#X obj 123 30 abs/RRR_SRC~ 1 17_ADC;
#X obj 164 54 abs/RRR_SRC~ 2 18_ADC;
#X obj 206 83 abs/RRR_SRC~ 3 19_ADC;
#X obj 247 107 abs/RRR_SRC~ 4 20_ADC;
#X obj 287 131 abs/RRR_SRC~ 5 21_ADC;
#X obj 120 287 3_ambi_jitter_enc~ 1_RRR;
#X obj 545 371 t f;
#X obj 542 444 sr_parameter EXT_RRR_PRESET;
#X obj 543 468 sr_setting EXT_RRR_PBANKFILE;
#X text 234 1 Room in Room Reverberation (RRR) Thomas Musil;
#X text 394 20 adapted winfried ritsch;
#X obj 151 310 3_ambi_jitter_enc~ 2_RRR;
#X obj 177 334 3_ambi_jitter_enc~ 3_RRR;
#X obj 195 359 3_ambi_jitter_enc~ 4_RRR;
#X obj 217 383 3_ambi_jitter_enc~ 5_RRR;
#X obj 239 407 3_ambi_jitter_enc~ 6_RRR;
#X obj 260 427 3_ambi_jitter_enc~ 7_RRR;
#X obj 281 451 3_ambi_jitter_enc~ 8_RRR;
#X obj 304 475 3_ambi_jitter_enc~ 9_RRR;
#X floatatom 621 385 5 0 0 0 - - -;
#X obj 532 348 sr_parameter EXT_RRR_AMBI_JITTER;
#X obj 333 502 3_ambi_jitter_enc~ 10_RRR;
#X obj 354 526 3_ambi_jitter_enc~ 11_RRR;
#X obj 377 550 3_ambi_jitter_enc~ 12_RRR;
#X obj 121 259 multiline~ 0 0 0 0 0 0 0 0 0 0 0 0 50;
#X connect 1 0 6 0;
#X connect 1 1 2 0;
#X connect 2 0 7 0;
#X connect 3 0 0 0;
#X connect 4 0 1 0;
#X connect 4 1 5 0;
#X connect 5 0 7 0;
#X connect 5 1 0 0;
#X connect 6 0 3 0;
#X connect 7 0 27 0;
#X connect 7 0 29 0;
#X connect 7 0 26 0;
#X connect 7 0 36 0;
#X connect 7 0 35 0;
#X connect 7 0 34 0;
#X connect 7 0 33 0;
#X connect 7 0 32 0;
#X connect 8 0 25 0;
#X connect 9 0 25 6;
#X connect 9 1 25 6;
#X connect 11 0 4 0;
#X connect 24 0 9 0;
#X connect 25 0 56 0;
#X connect 25 1 56 1;
#X connect 25 2 56 2;
#X connect 25 3 56 3;
#X connect 25 4 56 4;
#X connect 25 5 56 5;
#X connect 25 6 56 0;
#X connect 25 7 56 1;
#X connect 25 8 56 2;
#X connect 25 9 56 3;
#X connect 25 10 56 4;
#X connect 25 11 56 5;
#X connect 25 12 56 6;
#X connect 25 13 56 7;
#X connect 25 14 56 8;
#X connect 25 15 56 9;
#X connect 25 16 56 10;
#X connect 25 17 56 11;
#X connect 26 0 25 5;
#X connect 27 0 37 2;
#X connect 27 0 43 2;
#X connect 27 0 44 2;
#X connect 27 0 45 2;
#X connect 27 0 46 2;
#X connect 27 0 47 2;
#X connect 27 0 48 2;
#X connect 27 0 49 2;
#X connect 27 0 50 2;
#X connect 27 0 53 2;
#X connect 27 0 54 2;
#X connect 27 0 55 2;
#X connect 28 0 56 12;
#X connect 29 0 28 0;
#X connect 29 1 56 12;
#X connect 30 0 31 0;
#X connect 31 0 28 0;
#X connect 32 0 25 0;
#X connect 33 0 25 1;
#X connect 34 0 25 2;
#X connect 35 0 25 3;
#X connect 36 0 25 4;
#X connect 38 0 37 1;
#X connect 38 0 43 1;
#X connect 38 0 44 1;
#X connect 38 0 45 1;
#X connect 38 0 46 1;
#X connect 38 0 47 1;
#X connect 38 0 49 1;
#X connect 38 0 50 1;
#X connect 38 0 53 1;
#X connect 38 0 54 1;
#X connect 38 0 55 1;
#X connect 52 0 38 0;
#X connect 52 0 51 0;
#X connect 56 0 37 0;
#X connect 56 1 43 0;
#X connect 56 2 44 0;
#X connect 56 3 45 0;
#X connect 56 4 46 0;
#X connect 56 5 47 0;
#X connect 56 6 48 0;
#X connect 56 7 49 0;
#X connect 56 8 50 0;
#X connect 56 9 53 0;
#X connect 56 10 54 0;
#X connect 56 11 55 0;
