#N canvas 1911 366 282 262 10;
#X text 13 72 open_close_EDIT;
#X msg 22 91 1;
#X obj 11 11 cnv 15 83 58 empty empty RRREV 2 10 0 12 -228992 -66577
0;
#X obj 11 36 tgl 15 0 \$0_ON_fromgui \$0_ON_togui ON 0 -6 0 8 -233017
-1 -1 0 1;
#X obj 28 36 bng 15 250 50 0 \$0sEDIT \$0rEDIT EDIT 0 -6 0 8 -195568
-1 -1;
#X obj 18 173 sendreceive EXT_RRR_PARAM;
#X obj 25 113 tgl 15 0 empty empty empty 0 -6 0 8 -262144 -1 -1 1 1
;
#X obj 11 -17 gui_sr_offset \$0_ON EXT_RRR_ON 0;
#X text 14 195 should load send PBANK File;
#X obj 18 142 abs/room_EDIT+12_earlies 12;
#X obj 59 37 nbx 2 14 -1e+37 1e+37 0 0 \$0_preset_gui \$0_preset_gui
preset 0 -6 0 10 -262144 -195568 -195568 0 256;
#X obj 133 221 s \$0_preset_gui;
#X obj 101 116 r \$0_preset_gui;
#X connect 1 0 6 0;
#X connect 4 0 1 0;
#X connect 6 0 9 0;
#X connect 9 0 5 0;
#X connect 9 1 11 0;
#X connect 12 0 9 1;
#X coords 0 -1 1 1 85 60 1 10 10;
