#N canvas 420 290 324 447 10;
#X obj 62 20 inlet doit;
#X obj 62 43 t l l b;
#N canvas 350 88 765 319 generic 0;
#X obj 76 44 inlet;
#X obj 76 228 outlet;
#X obj 76 76 t b b;
#X msg 76 113 obj 100 100 inlet~;
#X connect 0 0 2 0;
#X connect 2 0 3 0;
#X connect 3 0 1 0;
#X restore 108 201 pd generic;
#X obj 85 294 t a;
#N canvas 339 213 910 619 generator 0;
#X obj 460 27 inlet;
#X obj 492 429 outlet;
#X obj 515 231 + 150;
#X obj 492 115 until;
#X obj 492 138 i;
#X msg 535 117 0;
#X obj 520 138 + 1;
#X obj 546 261 + 1;
#X obj 515 210 * 25;
#X obj 492 90 t f b b;
#X obj 492 159 t f f f;
#X obj 515 189 % 24;
#X obj 475 189 / 24;
#X obj 475 211 i;
#X obj 475 232 * 100;
#X obj 668 202 dollsym 1;
#X obj 492 282 pack 0 0 0 s;
#X obj 475 257 + 150;
#X obj 460 58 t b f;
#X msg 275 341 obj 200 100 outlet~;
#X obj 492 369 t a;
#X msg 492 341 obj \$1 \$2 aux_send_post~ \$4 \$3 \, connect 0 0 \$3
0;
#X connect 0 0 18 0;
#X connect 2 0 16 1;
#X connect 3 0 4 0;
#X connect 4 0 6 0;
#X connect 4 0 10 0;
#X connect 5 0 4 1;
#X connect 6 0 4 1;
#X connect 7 0 16 2;
#X connect 8 0 2 0;
#X connect 9 0 3 0;
#X connect 9 1 5 0;
#X connect 9 2 15 0;
#X connect 10 0 12 0;
#X connect 10 1 11 0;
#X connect 10 2 7 0;
#X connect 11 0 8 0;
#X connect 12 0 13 0;
#X connect 13 0 14 0;
#X connect 14 0 17 0;
#X connect 15 0 16 3;
#X connect 16 0 21 0;
#X connect 17 0 16 0;
#X connect 18 0 19 0;
#X connect 18 1 9 0;
#X connect 19 0 20 0;
#X connect 20 0 1 0;
#X connect 21 0 20 0;
#X restore 85 236 pd generator;
#X obj 85 173 t l b b;
#X msg 108 136 reset;
#X msg 148 17 4;
#X obj 85 376 patchwriter \$1;
#X msg 62 68 symbol \$1_aux_sends_post~;
#X connect 0 0 1 0;
#X connect 1 0 9 0;
#X connect 1 1 5 0;
#X connect 1 2 6 0;
#X connect 2 0 3 0;
#X connect 3 0 8 0;
#X connect 4 0 3 0;
#X connect 5 0 4 0;
#X connect 5 1 2 0;
#X connect 6 0 8 1;
#X connect 7 0 1 0;
#X connect 9 0 8 1;
