#N canvas 456 391 440 447 10;
#X obj 62 20 inlet doit;
#X obj 62 43 t l l b;
#N canvas 1470 571 765 319 generic 0;
#X obj 76 44 inlet;
#X obj 76 228 outlet;
#X obj 76 76 t b b;
#X msg 76 113 obj 100 100 inlet~ \, obj 200 100 outlet~ \, obj 300
100 aux_0_sum~ 0;
#X connect 0 0 2 0;
#X connect 2 0 3 0;
#X connect 3 0 1 0;
#X restore 108 201 pd generic;
#X obj 85 294 t a;
#N canvas 291 201 450 554 generator 0;
#X obj 158 251 + 150;
#X obj 135 115 until;
#X obj 135 138 i;
#X msg 178 117 0;
#X obj 163 138 + 1;
#X obj 158 230 * 25;
#X obj 135 90 t f b b;
#X obj 135 159 t f f f;
#X obj 158 209 % 24;
#X obj 118 209 / 24;
#X obj 118 231 i;
#X obj 118 297 + 100;
#X obj 135 35 inlet;
#X obj 135 376 outlet;
#X obj 202 296 + 1;
#X obj 118 253 + 1;
#X obj 118 276 * 200;
#X text 183 36 <num>;
#X msg 135 342 obj \$1 \$2 aux_2_sum~ \$3;
#X obj 135 322 pack 0 0 0;
#X connect 0 0 19 1;
#X connect 1 0 2 0;
#X connect 2 0 4 0;
#X connect 2 0 7 0;
#X connect 3 0 2 1;
#X connect 4 0 2 1;
#X connect 5 0 0 0;
#X connect 6 0 1 0;
#X connect 6 1 3 0;
#X connect 7 0 9 0;
#X connect 7 1 8 0;
#X connect 7 2 14 0;
#X connect 8 0 5 0;
#X connect 9 0 10 0;
#X connect 10 0 15 0;
#X connect 11 0 19 0;
#X connect 12 0 6 0;
#X connect 14 0 19 2;
#X connect 15 0 16 0;
#X connect 16 0 11 0;
#X connect 18 0 13 0;
#X connect 19 0 18 0;
#X restore 85 236 pd generator;
#X obj 85 173 t l b b;
#X msg 108 136 reset;
#X msg 62 68 symbol \$1_AUX_SUM_Distribute~;
#X text 146 10 \$1=#aux-busses;
#X obj 85 376 patchwriter \$1;
#X connect 0 0 1 0;
#X connect 1 0 7 0;
#X connect 1 1 5 0;
#X connect 1 2 6 0;
#X connect 2 0 3 0;
#X connect 3 0 9 0;
#X connect 4 0 3 0;
#X connect 5 0 4 0;
#X connect 5 1 2 0;
#X connect 6 0 9 1;
#X connect 7 0 9 1;
