#N canvas 420 290 324 447 10;
#X obj 62 20 inlet doit;
#X obj 62 43 t l l b;
#N canvas 350 88 765 319 generic 0;
#X obj 76 44 inlet;
#X obj 76 228 outlet;
#X obj 76 76 t b b;
#X msg 76 113 obj 100 100 inlet~ \, obj 200 100 outlet~;
#X connect 0 0 2 0;
#X connect 2 0 3 0;
#X connect 3 0 1 0;
#X restore 108 201 pd generic;
#X obj 85 294 t a;
#N canvas 0 0 450 451 generator 0;
#X obj 93 47 inlet;
#X obj 93 390 outlet;
#X obj 116 231 + 150;
#X obj 93 115 until;
#X obj 93 138 i;
#X msg 136 117 0;
#X obj 121 138 + 1;
#X obj 160 260 + 1;
#X obj 93 330 list append;
#X obj 93 356 list trim;
#X obj 116 210 * 25;
#X obj 93 90 t f b b;
#X obj 93 282 pack 0 0 0;
#X msg 93 302 obj \$1 \$2 adc_2_in~ \$3;
#X obj 93 159 t f f f;
#X obj 116 189 % 24;
#X obj 76 189 / 24;
#X obj 76 211 i;
#X obj 76 257 + 100;
#X obj 76 232 * 100;
#X connect 0 0 11 0;
#X connect 2 0 12 1;
#X connect 3 0 4 0;
#X connect 4 0 6 0;
#X connect 4 0 14 0;
#X connect 5 0 4 1;
#X connect 6 0 4 1;
#X connect 7 0 12 2;
#X connect 8 0 9 0;
#X connect 9 0 1 0;
#X connect 10 0 2 0;
#X connect 11 0 3 0;
#X connect 11 1 5 0;
#X connect 12 0 13 0;
#X connect 13 0 8 0;
#X connect 14 0 16 0;
#X connect 14 1 15 0;
#X connect 14 2 7 0;
#X connect 15 0 10 0;
#X connect 16 0 17 0;
#X connect 17 0 19 0;
#X connect 18 0 12 0;
#X connect 19 0 18 0;
#X restore 85 236 pd generator;
#X obj 85 173 t l b b;
#X msg 108 136 reset;
#X msg 62 68 symbol \$1_ADC_INS~;
#X obj 85 376 patchwriter \$1;
#X connect 0 0 1 0;
#X connect 1 0 7 0;
#X connect 1 1 5 0;
#X connect 1 2 6 0;
#X connect 2 0 3 0;
#X connect 3 0 8 0;
#X connect 4 0 3 0;
#X connect 5 0 4 0;
#X connect 5 1 2 0;
#X connect 6 0 8 1;
#X connect 7 0 8 1;
