#N canvas 501 149 677 637 10;
#X text 309 194 1.arg: <float> n_in;
#X obj 49 49 inlet~;
#X obj 51 414 outlet~;
#X obj 50 80 CHANNEL/channel~ 1 \$1 \$2 \$3 \$4 \$5;
#X obj 50 100 CHANNEL/channel~ 2 \$1 \$2 \$3 \$4 \$5;
#X obj 50 120 CHANNEL/channel~ 3 \$1 \$2 \$3 \$4 \$5;
#X obj 50 140 CHANNEL/channel~ 4 \$1 \$2 \$3 \$4 \$5;
#X obj 50 160 CHANNEL/channel~ 5 \$1 \$2 \$3 \$4 \$5;
#X obj 49 180 CHANNEL/channel~ 6 \$1 \$2 \$3 \$4 \$5;
#X obj 50 200 CHANNEL/channel~ 7 \$1 \$2 \$3 \$4 \$5;
#X obj 50 220 CHANNEL/channel~ 8 \$1 \$2 \$3 \$4 \$5;
#X obj 50 240 CHANNEL/channel~ 9 \$1 \$2 \$3 \$4 \$5;
#X obj 50 260 CHANNEL/channel~ 10 \$1 \$2 \$3 \$4 \$5;
#X obj 50 280 CHANNEL/channel~ 11 \$1 \$2 \$3 \$4 \$5;
#X obj 50 301 CHANNEL/channel~ 12 \$1 \$2 \$3 \$4 \$5;
#X obj 50 320 CHANNEL/channel~ 13 \$1 \$2 \$3 \$4 \$5;
#X obj 50 340 CHANNEL/channel~ 14 \$1 \$2 \$3 \$4 \$5;
#X obj 50 360 CHANNEL/channel~ 15 \$1 \$2 \$3 \$4 \$5;
#X obj 51 380 CHANNEL/channel~ 16 \$1 \$2 \$3 \$4 \$5;
#X obj 304 124 receive_parameter /IN/SOLO;
#X text 306 206 2.arg: <float> n_aux_send;
#X text 306 219 3.arg: <float> n_bus;
#X text 307 232 4.arg: <float> n_fxplugin_depth;
#X text 310 245 5.arg: <float> n_ambisonic_order;
