#N canvas 0 0 600 300 10;
#X text 300 100 1.arg: <float> #in;
#X text 300 120 2.arg: <float> #aux_send;
#X text 300 140 3.arg: <float> #bus;
#X text 300 160 4.arg: <float> #fxplugin_depth;
#X text 300 180 5.arg: <float> ambisonics_order;
#X obj 100 100 inlet~;
#X obj 200 100 outlet~;
#X obj 100 120 receive_parameter /IN/SOLO;
#X obj 100 150 CHANNEL/channel~ 1 \$1 \$2 \$3 \$4 \$5;
#X obj 100 175 CHANNEL/channel~ 2 \$1 \$2 \$3 \$4 \$5;
#X obj 100 200 CHANNEL/channel~ 3 \$1 \$2 \$3 \$4 \$5;
#X obj 100 225 CHANNEL/channel~ 4 \$1 \$2 \$3 \$4 \$5;
#X obj 100 250 CHANNEL/channel~ 5 \$1 \$2 \$3 \$4 \$5;
#X obj 100 275 CHANNEL/channel~ 6 \$1 \$2 \$3 \$4 \$5;
#X obj 100 300 CHANNEL/channel~ 7 \$1 \$2 \$3 \$4 \$5;
#X obj 100 325 CHANNEL/channel~ 8 \$1 \$2 \$3 \$4 \$5;
#X obj 100 350 CHANNEL/channel~ 9 \$1 \$2 \$3 \$4 \$5;
#X obj 100 375 CHANNEL/channel~ 10 \$1 \$2 \$3 \$4 \$5;
#X obj 100 400 CHANNEL/channel~ 11 \$1 \$2 \$3 \$4 \$5;
#X obj 100 425 CHANNEL/channel~ 12 \$1 \$2 \$3 \$4 \$5;
#X obj 100 450 CHANNEL/channel~ 13 \$1 \$2 \$3 \$4 \$5;
#X obj 100 475 CHANNEL/channel~ 14 \$1 \$2 \$3 \$4 \$5;
#X obj 100 500 CHANNEL/channel~ 15 \$1 \$2 \$3 \$4 \$5;
#X obj 100 525 CHANNEL/channel~ 16 \$1 \$2 \$3 \$4 \$5;
