#N canvas 1374 37 1140 829 10;
#X obj 31 103 r~ 1_AUX_SUM;
#X obj 30 255 throw~ 1_AMBI_BUS;
#X obj 78 316 throw~ 2_AMBI_BUS;
#X obj 131 290 throw~ 3_AMBI_BUS;
#X obj 174 234 throw~ 4_AMBI_BUS;
#X obj 367 225 switch~;
#X obj 31 190 multiline~ 0 0 0 0 50;
#X obj 367 111 t b b;
#X msg 397 132 0;
#X msg 367 200 0;
#X obj 367 90 select 0;
#X obj 420 111 t f f;
#X obj 31 56 symbol;
#X msg 31 78 set \$1_SUM;
#X obj 367 177 del 60;
#X text 277 6 Reverb mono to quad Thomas Musil;
#X obj 34 132 REVERB~;
#X obj 144 157 f 0;
#X obj 141 89 sel 1;
#X obj 160 136 dbtorms;
#X text 276 21 adapted by winfried ritsch;
#X obj 367 64 receive_setting EXT_REV_ON;
#X obj 30 13 receive_setting EXT_REV_SRC;
#X obj 43 370 receive_setting EXT_REV_PBANKFILE;
#X obj 56 404 receive_parameter EXT_REV_PRESET;
#X obj 160 110 receive_parameter EXT_REV_VOL;
#X obj 699 33 receive_parameter EXT_REV_EARLY_CUTOFF;
#X obj 698 55 receive_parameter EXT_REV_EARLY_Q;
#X obj 698 11 receive_parameter EXT_REV_EARLY_GAIN;
#X obj 697 88 receive_parameter EXT_REV_REVERB_GAIN;
#X obj 697 108 receive_parameter EXT_REV_REVERB_CUTOFF;
#X obj 698 129 receive_parameter EXT_REV_REVERB_Q;
#X obj 702 162 receive_parameter EXT_REV_REVERB_DEC_L_TIME;
#X obj 701 184 receive_parameter EXT_REV_REVERB_DEC_LM_FREQ;
#X obj 700 227 receive_parameter EXT_REV_REVERB_DEC_MH_FREQ;
#X obj 700 205 receive_parameter EXT_REV_REVERB_DEC_M_TIME;
#X obj 700 249 receive_parameter EXT_REV_REVERB_DEC_H_TIME;
#X obj 691 314 receive_parameter EXT_REV_EARLY_DAMP;
#X obj 691 336 receive_parameter EXT_REV_REVERB_DEL_TIME;
#X obj 692 362 receive_parameter EXT_REV_REVERB_MOD_FREQ;
#X obj 693 388 receive_parameter EXT_REV_REVERB_MOD_AMP;
#X obj 600 492 pp reverb;
#X obj 456 490 pp early;
#X obj 521 463 pp damp;
#X obj 658 436 pp del_time;
#X obj 905 442 pp del_mod_amp;
#X obj 768 437 pp del_mod_freq;
#X obj 574 415 dbtorms;
#X obj 574 394 + 100;
#X obj 525 364 unpack 0 0;
#X obj 521 441 pack 0 0;
#X obj 527 267 pp reverb;
#X obj 451 265 pp early;
#X obj 596 35 pp cutoff;
#X obj 598 11 pp gain;
#X obj 603 110 pp cutoff;
#X obj 605 86 pp gain;
#X obj 597 162 pp dec_l_time;
#X obj 596 58 pp Q;
#X obj 603 133 pp Q;
#X obj 593 205 pp dec_m_time;
#X obj 594 247 pp dec_h_time;
#X obj 591 227 pp dec_mh_freq;
#X obj 593 183 pp dec_lm_freq;
#X obj 363 386 nop;
#X obj 253 461 print X;
#X obj 525 343 REV/neg_exp_uzi 12;
#X obj 659 413 REV/exp_uzi 12;
#X obj 767 414 REV/exp_uzi 12;
#X obj 905 419 REV/exp_uzi 12;
#X obj 585 293 REV/exp_uzi 12;
#X obj 585 317 pp delay;
#X obj 692 292 receive_parameter EXT_REV_EARLY_DEL_TIME;
#X obj 66 599 pack 1 0 0;
#X obj 228 795 pp encode;
#X obj 66 571 t b f;
#X obj 101 553 t b f;
#X obj 66 511 receive_parameter EXT_REV_ENCODER_1_ELEVATION;
#X obj 101 532 receive_parameter EXT_REV_ENCODER_1_AZIMUTH;
#X obj 154 618 t b f;
#X obj 189 600 t b f;
#X obj 154 558 receive_parameter EXT_REV_ENCODER_2_ELEVATION;
#X obj 189 579 receive_parameter EXT_REV_ENCODER_2_AZIMUTH;
#X obj 154 646 pack 2 0 0;
#X obj 236 661 t b f;
#X obj 271 643 t b f;
#X obj 324 708 t b f;
#X obj 359 690 t b f;
#X obj 236 601 receive_parameter EXT_REV_ENCODER_3_ELEVATION;
#X obj 271 622 receive_parameter EXT_REV_ENCODER_3_AZIMUTH;
#X obj 236 689 pack 3 0 0;
#X obj 324 736 pack 4 0 0;
#X obj 324 648 receive_parameter EXT_REV_ENCODER_4_ELEVATION;
#X obj 359 669 receive_parameter EXT_REV_ENCODER_4_AZIMUTH;
#X connect 0 0 16 0;
#X connect 6 0 1 0;
#X connect 6 1 2 0;
#X connect 6 2 3 0;
#X connect 6 3 4 0;
#X connect 7 0 14 0;
#X connect 7 1 8 0;
#X connect 8 0 6 4;
#X connect 9 0 5 0;
#X connect 10 0 7 0;
#X connect 10 1 11 0;
#X connect 11 1 5 0;
#X connect 12 0 13 0;
#X connect 13 0 0 0;
#X connect 14 0 9 0;
#X connect 16 0 6 0;
#X connect 16 1 6 1;
#X connect 16 2 6 2;
#X connect 16 3 6 3;
#X connect 17 0 6 4;
#X connect 18 0 17 0;
#X connect 19 0 17 0;
#X connect 21 0 10 0;
#X connect 21 0 18 0;
#X connect 22 0 12 0;
#X connect 25 0 19 0;
#X connect 26 0 53 0;
#X connect 27 0 58 0;
#X connect 28 0 54 0;
#X connect 29 0 56 0;
#X connect 30 0 55 0;
#X connect 31 0 59 0;
#X connect 32 0 57 0;
#X connect 33 0 63 0;
#X connect 34 0 62 0;
#X connect 35 0 60 0;
#X connect 36 0 61 0;
#X connect 37 0 66 0;
#X connect 38 0 67 0;
#X connect 39 0 68 0;
#X connect 40 0 69 0;
#X connect 41 0 64 0;
#X connect 42 0 64 0;
#X connect 43 0 42 0;
#X connect 44 0 41 0;
#X connect 45 0 41 0;
#X connect 46 0 41 0;
#X connect 47 0 50 1;
#X connect 48 0 47 0;
#X connect 49 0 50 0;
#X connect 49 1 48 0;
#X connect 50 0 43 0;
#X connect 51 0 64 0;
#X connect 52 0 64 0;
#X connect 53 0 52 0;
#X connect 54 0 52 0;
#X connect 55 0 51 0;
#X connect 56 0 51 0;
#X connect 57 0 51 0;
#X connect 58 0 52 0;
#X connect 59 0 51 0;
#X connect 60 0 51 0;
#X connect 61 0 51 0;
#X connect 62 0 51 0;
#X connect 63 0 51 0;
#X connect 64 0 16 1;
#X connect 66 0 49 0;
#X connect 67 0 44 0;
#X connect 68 0 46 0;
#X connect 69 0 45 0;
#X connect 70 0 71 0;
#X connect 71 0 42 0;
#X connect 72 0 70 0;
#X connect 73 0 74 0;
#X connect 74 0 64 0;
#X connect 75 0 73 0;
#X connect 75 1 73 1;
#X connect 76 0 73 0;
#X connect 76 1 73 2;
#X connect 77 0 75 0;
#X connect 78 0 76 0;
#X connect 79 0 83 0;
#X connect 79 1 83 1;
#X connect 80 0 83 0;
#X connect 80 1 83 2;
#X connect 81 0 79 0;
#X connect 82 0 80 0;
#X connect 83 0 74 0;
#X connect 84 0 90 0;
#X connect 84 1 90 1;
#X connect 85 0 90 0;
#X connect 85 1 90 2;
#X connect 86 0 91 0;
#X connect 86 1 91 1;
#X connect 87 0 91 0;
#X connect 87 1 91 2;
#X connect 88 0 84 0;
#X connect 89 0 85 0;
#X connect 90 0 74 0;
#X connect 91 0 74 0;
#X connect 92 0 86 0;
#X connect 93 0 87 0;
