#N canvas 1359 92 638 488 10;
#X obj 31 98 r~ 1_AUX_SUM;
#X obj 30 250 throw~ 1_AMBI_BUS;
#X obj 78 311 throw~ 2_AMBI_BUS;
#X obj 131 285 throw~ 3_AMBI_BUS;
#X obj 174 229 throw~ 4_AMBI_BUS;
#X obj 367 220 switch~;
#X obj 31 185 multiline~ 0 0 0 0 50;
#X obj 367 106 t b b;
#X msg 397 127 0;
#X msg 367 195 0;
#X obj 367 85 select 0;
#X obj 420 106 t f f;
#X obj 179 57 route list;
#X obj 31 51 symbol;
#X msg 31 73 set \$1_SUM;
#X obj 367 172 del 60;
#X text 277 1 Reverb mono to quad Thomas Musil;
#X obj 30 8 sr_setting EXT_REV_SRC;
#X obj 178 31 sr_parameter EXT_REV_PARAM;
#X obj 34 127 REVERB~;
#X obj 43 365 sr_setting EXT_RRR_PBANKFILE;
#X obj 367 59 sr_setting EXT_REV_ON;
#X obj 144 152 f 0;
#X obj 144 108 sel 1;
#X obj 185 131 dbtorms;
#X text 276 16 adapted by winfried ritsch;
#X obj 185 105 sr_parameter EXT_REV_VOL;
#X connect 0 0 19 0;
#X connect 6 0 1 0;
#X connect 6 1 2 0;
#X connect 6 2 3 0;
#X connect 6 3 4 0;
#X connect 7 0 15 0;
#X connect 7 1 8 0;
#X connect 8 0 6 4;
#X connect 9 0 5 0;
#X connect 10 0 7 0;
#X connect 10 1 11 0;
#X connect 11 1 5 0;
#X connect 12 0 19 1;
#X connect 13 0 14 0;
#X connect 14 0 0 0;
#X connect 15 0 9 0;
#X connect 17 0 13 0;
#X connect 18 0 12 0;
#X connect 19 0 6 0;
#X connect 19 1 6 1;
#X connect 19 2 6 2;
#X connect 19 3 6 3;
#X connect 21 0 10 0;
#X connect 21 0 23 0;
#X connect 22 0 6 4;
#X connect 23 0 22 0;
#X connect 24 0 22 0;
#X connect 26 0 24 0;
