#N canvas 603 563 629 346 10;
#X obj 124 80 r~ 1_AUX_SUM;
#X obj 123 232 throw~ 1_AMBI_BUS;
#X obj 171 293 throw~ 2_AMBI_BUS;
#X obj 224 267 throw~ 3_AMBI_BUS;
#X obj 267 211 throw~ 4_AMBI_BUS;
#X obj 416 228 switch~;
#X obj 124 167 multiline~ 0 0 0 0 50;
#X obj 416 114 t b b;
#X msg 446 135 0;
#X msg 416 203 0;
#X obj 416 93 select 0;
#X obj 467 113 t f f;
#X obj 272 39 route list;
#X text 349 40 darn! we get a list \, but want anything!;
#X obj 124 33 symbol;
#X msg 124 55 set \$1_SUM;
#X obj 416 180 del 60;
#X text 277 1 Reverb mono to quad Thomas Musil;
#X obj 30 8 sr_setting EXT_REV_SRC;
#X obj 272 19 sr_parameter EXT_REV_PARAM;
#X obj 127 109 REVERB~;
#X obj 416 67 sr_setting EXT_REV_ON;
#X obj 384 285 sr_setting EXT_REV_PBANKFILE;
#X connect 0 0 20 0;
#X connect 6 0 1 0;
#X connect 6 1 2 0;
#X connect 6 2 3 0;
#X connect 6 3 4 0;
#X connect 7 0 16 0;
#X connect 7 1 8 0;
#X connect 8 0 6 4;
#X connect 9 0 5 0;
#X connect 10 0 7 0;
#X connect 10 1 11 0;
#X connect 11 0 6 4;
#X connect 11 1 5 0;
#X connect 12 0 20 1;
#X connect 14 0 15 0;
#X connect 15 0 0 0;
#X connect 16 0 9 0;
#X connect 18 0 14 0;
#X connect 19 0 12 0;
#X connect 20 0 6 0;
#X connect 20 1 6 1;
#X connect 20 2 6 2;
#X connect 20 3 6 3;
#X connect 21 0 10 0;
