#N canvas 16 369 796 402 10;
#X text 130 144 open_close_EDIT;
#X msg 122 118 1;
#X obj 49 34 popup 45 20 #ffffff AUX AUX 01 AUX 02 AUX 03 AUX 04 AUX 05
AUX 06 AUX 07 AUX 08;
#X obj 172 115 s \$0_AUXSRC_fromgui;
#X obj 113 2 r \$0_AUXSRC_togui;
#X obj 112 25 DSPnamesGUI AUX;
#X obj 152 46 loadbang;
#X msg 152 68 options none \, name AUX;
#X obj 11 11 cnv 15 88 198 empty empty REV 2 10 0 12 -228992 -66577
0;
#X obj 11 35 tgl 15 0 \$0_ON_fromgui \$0_ON_togui ON 0 -6 0 8 -233017
-1 -1 0 1;
#X obj 28 36 bng 15 250 50 0 \$0sEDIT \$0rEDIT EDIT 0 -6 0 8 -195568
-1 -1;
#X obj 317 29 r \$0_AUXSRC_fromgui;
#X obj 112 46 t a;
#X obj 317 48 route list;
#X obj 317 72 unpack 0 s;
#X obj 318 98 uglifysymbol;
#X obj 318 144 beautifysymbol;
#X obj 318 188 s \$0_AUXSRC_togui;
#X msg 318 166 set \$1;
#X text 266 1 Reverb from Thomas Musil \, IEM mono to quad;
#X obj 318 121 sendreceive EXT_REV_SRC;
#X obj 203 213 gui_sr_offset \$0_ON EXT_REV_ON 0;
#X obj 121 236 sendreceive EXT_REV_PARAM;
#X obj 121 186 REV/REV/room_EDIT \$1;
#X obj 55 65 vfad_scale -1;
#X obj 13 104 cnv 15 40 2 empty empty empty 20 12 0 14 -1 -66577 0
;
#X obj 19 61 vsl 30 131 0 130 0 0 \$0_rev_vol_gui \$0_rev_vol_gui -inf
1 140 0 8 -233017 -1 -1 0 1;
#X text 127 293 should load send PBANK File;
#X obj 499 67 route float;
#X obj 579 274 - 100;
#X msg 500 335 label \$1;
#X msg 500 313 symbol -inf;
#X obj 499 174 max 0;
#X obj 499 195 select 0 100;
#X obj 539 253 makefilename %03d;
#X msg 539 232 0;
#X obj 579 293 makefilename %+03d;
#X obj 499 134 t f f;
#X obj 499 111 fadtodb;
#X obj 590 216 dbtofad;
#X obj 499 46 r \$0_rev_vol_gui;
#X obj 590 195 sendreceive EXT_REV_VOL;
#X obj 500 358 s \$0_rev_vol_gui;
#X connect 1 0 23 0;
#X connect 2 0 3 0;
#X connect 4 0 2 0;
#X connect 5 0 12 0;
#X connect 6 0 7 0;
#X connect 7 0 12 0;
#X connect 10 0 1 0;
#X connect 11 0 13 0;
#X connect 12 0 2 0;
#X connect 13 0 14 0;
#X connect 14 1 15 0;
#X connect 15 0 20 0;
#X connect 16 0 18 0;
#X connect 18 0 17 0;
#X connect 20 0 16 0;
#X connect 23 0 22 0;
#X connect 28 0 38 0;
#X connect 29 0 36 0;
#X connect 30 0 42 0;
#X connect 31 0 30 0;
#X connect 32 0 33 0;
#X connect 33 0 31 0;
#X connect 33 1 35 0;
#X connect 33 2 29 0;
#X connect 34 0 30 0;
#X connect 35 0 34 0;
#X connect 36 0 30 0;
#X connect 37 0 32 0;
#X connect 37 1 41 0;
#X connect 38 0 37 0;
#X connect 39 0 42 0;
#X connect 40 0 28 0;
#X connect 41 0 39 0;
#X coords 0 -1 1 1 90 200 1 10 10;
