#N canvas 1307 0 461 348 10;
#X obj 158 101 inlet~;
#X obj 158 164 REV/REV_1_2_2~ 12 ++ stat;
#X obj 159 286 outlet~;
#X obj 216 284 outlet~;
#X obj 280 286 outlet~;
#X obj 339 286 outlet~;
#X obj 319 99 inlet;
#X text 65 12 Reverb mono to quad Thomas Musil;
#X obj 45 121 ambi_encode 1;
#X msg 42 72 1 0 60 \, 2 0 180 \, 3 0 300 \, 4 90 0;
#X obj 43 96 pp col;
#X obj 126 215 mtx_*~ 4 4 50 ____________________;
#X obj 42 46 loadbang;
#X connect 0 0 1 0;
#X connect 1 0 11 1;
#X connect 1 1 11 2;
#X connect 1 2 11 3;
#X connect 1 3 11 4;
#X connect 6 0 1 1;
#X connect 8 0 11 0;
#X connect 9 0 10 0;
#X connect 10 0 8 0;
#X connect 11 0 2 0;
#X connect 11 1 3 0;
#X connect 11 2 4 0;
#X connect 11 3 5 0;
#X connect 12 0 9 0;
