#N canvas 380 176 687 538 10;
#X obj 124 80 r~ 1_AUX_SUM;
#X obj 123 232 throw~ 1_AMBI_BUS;
#X obj 173 378 throw~ 2_AMBI_BUS;
#X obj 224 267 throw~ 3_AMBI_BUS;
#X obj 267 211 throw~ 4_AMBI_BUS;
#X obj 125 108 SIMPLEREV/REV_1_2_2~;
#X obj 272 18 sendreceive EXT_SIMPLEREV_PARAM;
#X obj 416 228 switch~;
#X obj 124 167 multiline~ 0 0 0 0 50;
#X obj 416 67 sendreceive EXT_SIMPLEREV_ON;
#X obj 416 114 t b b;
#X msg 446 135 0;
#X msg 416 203 0;
#X obj 416 93 select 0;
#X obj 467 113 t f f;
#X obj 272 39 route list;
#X text 349 40 darn! we get a list \, but want anything!;
#X obj 124 33 symbol;
#X obj 30 8 sendreceive EXT_SIMPLEREV_SRC;
#X msg 124 55 set \$1_SUM;
#X obj 416 180 del 60;
#X connect 0 0 5 0;
#X connect 5 0 8 0;
#X connect 5 1 8 1;
#X connect 5 2 8 2;
#X connect 5 3 8 3;
#X connect 6 0 15 0;
#X connect 8 0 1 0;
#X connect 8 1 2 0;
#X connect 8 2 3 0;
#X connect 8 3 4 0;
#X connect 9 0 13 0;
#X connect 10 0 20 0;
#X connect 10 1 11 0;
#X connect 11 0 8 4;
#X connect 12 0 7 0;
#X connect 13 0 10 0;
#X connect 13 1 14 0;
#X connect 14 0 8 4;
#X connect 14 1 7 0;
#X connect 15 0 5 1;
#X connect 17 0 19 0;
#X connect 18 0 17 0;
#X connect 19 0 0 0;
#X connect 20 0 12 0;
