#N canvas 380 176 629 346 10;
#X obj 124 80 r~ 1_AUX_SUM;
#X obj 123 232 throw~ 1_AMBI_BUS;
#X obj 171 293 throw~ 2_AMBI_BUS;
#X obj 224 267 throw~ 3_AMBI_BUS;
#X obj 267 211 throw~ 4_AMBI_BUS;
#X obj 125 108 SIMPLEREV/REV_1_2_2~;
#X obj 416 228 switch~;
#X obj 124 167 multiline~ 0 0 0 0 50;
#X obj 416 114 t b b;
#X msg 446 135 0;
#X msg 416 203 0;
#X obj 416 93 select 0;
#X obj 467 113 t f f;
#X obj 272 39 route list;
#X text 349 40 darn! we get a list \, but want anything!;
#X obj 124 33 symbol;
#X msg 124 55 set \$1_SUM;
#X obj 416 180 del 60;
#X obj 30 8 sr_setting EXT_SIMPLEREV_SRC;
#X obj 272 18 sr_parameter EXT_SIMPLEREV_PARAM;
#X obj 416 67 sr_setting EXT_SIMPLEREV_ON;
#X connect 0 0 5 0;
#X connect 5 0 7 0;
#X connect 5 1 7 1;
#X connect 5 2 7 2;
#X connect 5 3 7 3;
#X connect 7 0 1 0;
#X connect 7 1 2 0;
#X connect 7 2 3 0;
#X connect 7 3 4 0;
#X connect 8 0 17 0;
#X connect 8 1 9 0;
#X connect 9 0 7 4;
#X connect 10 0 6 0;
#X connect 11 0 8 0;
#X connect 11 1 12 0;
#X connect 12 0 7 4;
#X connect 12 1 6 0;
#X connect 13 0 5 1;
#X connect 15 0 16 0;
#X connect 16 0 0 0;
#X connect 17 0 10 0;
#X connect 18 0 15 0;
#X connect 19 0 13 0;
#X connect 20 0 11 0;
