#N canvas 198 0 733 513 10;
#X text 286 170 open_close_EDIT;
#X text 215 192 recall store;
#X obj 233 254 SIMPLEREV/REV/room_EDIT \$1;
#X msg 321 194 1;
#X obj 233 123 gui_sr_offset \$0_ON EXT_SIMPLEREV_ON 0;
#X msg 614 154 read;
#X obj 589 131 t b b;
#X msg 589 182 recall 0;
#X obj 11 254 sendreceive EXT_SIMPLEREV_PARAM;
#X obj 139 124 popup 45 20 #ffffff AUX AUX 01 AUX 02 AUX 03 AUX 04
AUX 05 AUX 06 AUX 07 AUX 08;
#X obj 139 173 s \$0_AUXSRC_fromgui;
#X obj 138 68 r \$0_AUXSRC_togui;
#X obj 330 33 DSPnamesGUI AUX;
#X obj 453 14 loadbang;
#X msg 453 36 options none \, name AUX;
#X obj 101 101 cnv 15 91 58 empty empty SIMPLEREV 2 10 0 12 -228992
-66577 0;
#X obj 101 126 tgl 15 0 \$0_ON_fromgui \$0_ON_togui ON 0 -6 0 8 -233017
-1 -1 0 1;
#X obj 118 126 bng 15 250 50 0 \$0sEDIT \$0rEDIT EDIT 0 -6 0 8 -195568
-1 -1;
#X obj 193 408 sendreceive EXT_SIMPLEREV_SRC;
#X obj 192 316 r \$0_AUXSRC_fromgui;
#X obj 330 54 t a;
#X obj 192 335 route list;
#X obj 192 359 unpack 0 s;
#X obj 193 385 uglifysymbol;
#X obj 193 431 beautifysymbol;
#X obj 193 475 s \$0_AUXSRC_togui;
#X msg 193 453 set \$1;
#X obj 528 92 r GUI_NET_initialized;
#X obj 528 113 del 1000;
#X msg 429 254 simplerev.pbank;
#X connect 2 0 8 0;
#X connect 2 1 29 0;
#X connect 3 0 2 1;
#X connect 5 0 2 0;
#X connect 6 0 7 0;
#X connect 6 1 5 0;
#X connect 7 0 2 0;
#X connect 8 0 2 0;
#X connect 9 0 10 0;
#X connect 11 0 9 0;
#X connect 12 0 20 0;
#X connect 13 0 14 0;
#X connect 14 0 20 0;
#X connect 17 0 3 0;
#X connect 18 0 24 0;
#X connect 19 0 21 0;
#X connect 20 0 9 0;
#X connect 21 0 22 0;
#X connect 22 1 23 0;
#X connect 23 0 18 0;
#X connect 24 0 26 0;
#X connect 26 0 25 0;
#X connect 27 0 28 0;
#X connect 28 0 6 0;
#X connect 29 0 2 2;
#X coords 0 -1 1 1 85 60 1 100 100;
