#N canvas 16 369 734 334 10;
#X text 7 194 open_close_EDIT;
#X obj 64 240 SIMPLEREV/REV/room_EDIT \$1;
#X msg 117 194 1;
#X obj 321 151 t b b;
#X msg 321 202 recall 0;
#X obj 139 124 popup 45 20 #ffffff AUX AUX 01 AUX 02 AUX 03 AUX 04
AUX 05 AUX 06 AUX 07 AUX 08;
#X obj 139 173 s \$0_AUXSRC_fromgui;
#X obj 138 68 r \$0_AUXSRC_togui;
#X obj 203 93 DSPnamesGUI AUX;
#X obj 278 42 loadbang;
#X msg 278 64 options none \, name AUX;
#X obj 101 101 cnv 15 91 58 empty empty REV 2 10 0 12 -228992 -66577
0;
#X obj 101 125 tgl 15 0 \$0_ON_fromgui \$0_ON_togui ON 0 -6 0 8 -233017
-1 -1 0 1;
#X obj 118 126 bng 15 250 50 0 \$0sEDIT \$0rEDIT EDIT 0 -6 0 8 -195568
-1 -1;
#X obj 509 58 r \$0_AUXSRC_fromgui;
#X obj 203 114 t a;
#X obj 509 77 route list;
#X obj 509 101 unpack 0 s;
#X obj 510 127 uglifysymbol;
#X obj 510 173 beautifysymbol;
#X obj 510 217 s \$0_AUXSRC_togui;
#X msg 510 195 set \$1;
#X obj 319 94 r GUI_NET_initialized;
#X obj 319 115 del 1000;
#X text 44 5 Reverb from Thomas Musil \, IEM mono to quad;
#X msg 339 178 load ../default.pbank;
#X obj 510 150 sendreceive EXT_REV_SRC;
#X obj 316 254 gui_sr_offset \$0_ON EXT_REV_ON 0;
#X obj 30 269 sendreceive EXT_REV_PARAM;
#X connect 1 0 28 0;
#X connect 2 0 1 1;
#X connect 3 0 4 0;
#X connect 3 1 25 0;
#X connect 4 0 1 0;
#X connect 5 0 6 0;
#X connect 7 0 5 0;
#X connect 8 0 15 0;
#X connect 9 0 10 0;
#X connect 10 0 15 0;
#X connect 13 0 2 0;
#X connect 14 0 16 0;
#X connect 15 0 5 0;
#X connect 16 0 17 0;
#X connect 17 1 18 0;
#X connect 18 0 26 0;
#X connect 19 0 21 0;
#X connect 21 0 20 0;
#X connect 22 0 23 0;
#X connect 23 0 3 0;
#X connect 25 0 1 0;
#X connect 26 0 19 0;
#X connect 28 0 1 0;
#X coords 0 -1 1 1 85 60 1 100 100;
