#N canvas 1394 34 1000 636 10;
#X text 61 1 perf: 6 x REV12 kosten 60 %;
#X obj 166 123 inlet~;
#X obj 208 538 outlet~;
#X obj 275 538 outlet~;
#X obj 329 538 outlet~;
#X obj 389 538 outlet~;
#X obj 240 358 REV/REV_2_4_4~ 12 ++ stat;
#X obj 410 308 inlet;
#X obj 239 392 +~;
#X obj 279 392 +~;
#X obj 319 392 +~;
#X obj 359 392 +~;
#X text 237 423 FL;
#X text 282 424 FR;
#X obj 479 538 outlet~;
#X obj 535 538 outlet~;
#X obj 589 538 outlet~;
#X obj 649 538 outlet~;
#X obj 706 538 outlet~;
#X obj 208 456 mtx_*~ 9 4 100 . . . . .;
#X obj 109 319 ambi_encode 2;
#X msg 109 273 1 0 60 \, 2 0 -60 \, 3 0 180 \, 4 90 0;
#X msg 201 294 ambi_weight 1 1 0.45;
#X obj 109 254 t b b;
#X obj 79 233 t b b;
#X obj 79 350 mtx 9 4;
#X msg 109 294 col \$1 \$2 \$3;
#X text 362 426 Ceil;
#X text 325 425 Back;
#X obj 79 212 loadbang;
#X connect 1 0 6 0;
#X connect 1 0 6 1;
#X connect 6 0 8 0;
#X connect 6 1 9 0;
#X connect 6 2 10 0;
#X connect 6 3 11 0;
#X connect 6 4 8 1;
#X connect 6 5 9 1;
#X connect 6 6 10 1;
#X connect 6 7 11 1;
#X connect 7 0 6 2;
#X connect 8 0 19 1;
#X connect 9 0 19 2;
#X connect 10 0 19 3;
#X connect 11 0 19 4;
#X connect 19 0 2 0;
#X connect 19 1 3 0;
#X connect 19 2 4 0;
#X connect 19 3 5 0;
#X connect 19 4 14 0;
#X connect 19 5 15 0;
#X connect 19 6 16 0;
#X connect 19 7 17 0;
#X connect 19 8 18 0;
#X connect 20 0 25 0;
#X connect 21 0 26 0;
#X connect 22 0 20 0;
#X connect 23 0 21 0;
#X connect 23 1 22 0;
#X connect 24 0 25 0;
#X connect 24 1 23 0;
#X connect 25 0 19 0;
#X connect 26 0 20 0;
#X connect 29 0 24 0;
