#N canvas 65 288 714 532 10;
#X obj 60 328 prvu~;
#X obj 61 350 vu 15 120 empty empty -1 -8 0 8 -66577 -1 0 0;
#X obj 96 328 prvu~;
#X obj 97 352 vu 15 120 empty empty -1 -8 0 8 -66577 -1 1 0;
#X obj 18 114 prvu~;
#X obj 19 154 vu 15 120 empty empty -1 -8 0 8 -66577 -1 1 0;
#X text 61 1 perf: 6 x REV12 kosten 60 %;
#X obj 422 220 tgl 15 0 empty empty empty 0 -6 0 8 -262144 -1 -1 1
1;
#X msg 273 251 read;
#X obj 166 123 inlet~;
#X obj 240 358 REV/REV_1_2_2~ 12 ++ stat;
#X obj 198 478 outlet~;
#X obj 255 476 outlet~;
#X obj 319 478 outlet~;
#X obj 379 480 outlet~;
#X msg 465 360 reverb.pbank;
#X msg 324 245 recall 4;
#X obj 246 98 loadbang;
#X obj 265 145 t b b;
#X connect 0 0 1 0;
#X connect 2 0 3 0;
#X connect 4 0 5 0;
#X connect 7 0 10 2;
#X connect 8 0 10 1;
#X connect 9 0 10 0;
#X connect 9 0 4 0;
#X connect 10 0 0 0;
#X connect 10 0 12 0;
#X connect 10 1 2 0;
#X connect 10 1 13 0;
#X connect 10 2 11 0;
#X connect 10 3 14 0;
#X connect 10 3 11 0;
#X connect 10 4 15 0;
#X connect 15 0 10 3;
#X connect 16 0 10 1;
#X connect 17 0 18 0;
#X connect 18 0 16 0;
#X connect 18 1 8 0;
