#N canvas 136 88 371 319 10;
#X obj 53 43 inlet~;
#X obj 53 106 REV/REV_1_2_2~ 12 ++ stat;
#X obj 54 228 outlet~;
#X obj 111 226 outlet~;
#X obj 175 228 outlet~;
#X obj 235 230 outlet~;
#X obj 185 162 *~ 1;
#X obj 235 209 *~ -1;
#X obj 214 41 inlet;
#X text 61 1 Reverb mono to quad Thomas Musil;
#X connect 0 0 1 0;
#X connect 1 0 3 0;
#X connect 1 1 4 0;
#X connect 1 2 6 0;
#X connect 1 3 6 0;
#X connect 6 0 2 0;
#X connect 6 0 7 0;
#X connect 7 0 5 0;
#X connect 8 0 1 1;
