#N canvas 570 221 531 516 10;
#X obj 11 11 cnv 15 63 88 empty empty AMBIVIS 2 10 0 12 -195568 -66577
0;
#X obj 122 9 r \$0_open;
#X obj 122 33 f \$0;
#X msg 122 87 \; \$1 vis 1;
#X obj 122 59 makefilename pd-%d-ambi_visuals;
#X obj 15 29 bng 15 250 50 0 \$0_open \$0_open open 20 7 0 12 -62784
-1 -1;
#N canvas 1333 52 344 343 8548-ambi_visuals 0;
#X obj 11 10 sphere;
#X coords 0 0 1 1 320 320 0;
#X restore 18 129 pd \$0-ambi_visuals;
#X connect 1 0 2 0;
#X connect 2 0 4 0;
#X connect 4 0 3 0;
#X coords 0 -1 1 1 65 90 1 10 10;
