#N canvas 110 142 1143 633 10;
#X obj 537 264 openpanel;
#X obj 537 288 t b s;
#X msg 537 333 /home/cubemixer/projects/weltraum/weiss_weisslich27/sounds/stereoforte.wav
;
#X msg 565 308 set \$1;
#X msg 537 243 bang;
#X msg 314 243 play;
#X msg 390 243 pause;
#X msg 220 288 loop \$1;
#X obj 584 98 sendreceive \$1_SFPLAY_POS;
#X obj 537 355 sendreceive \$1_SFPLAY_FILE;
#X obj 314 331 sendreceive \$1_SFPLAY_CTRL;
#X obj 314 32 r \$0play;
#X obj 384 32 r \$0pause;
#X obj 473 82 r \$0stop;
#X obj 642 247 r \$0load;
#X obj 314 215 select 1 0;
#X obj 385 63 i;
#X msg 314 54 1;
#X msg 490 134 0;
#X obj 385 90 == 0;
#X obj 385 115 t f f;
#X obj 320 87 t f f;
#X obj 101 101 cnv 15 158 88 empty empty soundfileplayer 4 8 0 14 -233017
-66577 0;
#X obj 105 118 bng 20 250 50 0 \$0play \$0play > 7 10 0 16 -262144
-24198 -1;
#X obj 135 118 bng 20 250 50 0 \$0pause \$0pause || 3 10 0 12 -262144
-260818 -1;
#X obj 165 118 bng 20 250 50 0 \$0stop \$0stop x 5 9 0 16 -262144 -258699
-1;
#X obj 234 119 bng 20 250 50 0 \$0load \$0load empty 0 -6 0 8 -228992
-1 -1;
#X obj 107 142 hsl 128 15 0 722000 0 0 \$0pos \$0pos empty -2 -6 0
8 -262144 -1 -1 9103 1;
#X msg 25 39 range 0 \$1;
#X obj 25 19 sendreceive \$1_SFPLAY_LENGTH;
#X msg 587 216 set \$1;
#X msg 250 245 play \$1;
#X obj 584 120 select -1;
#X obj 584 154 i;
#X msg 473 213 stop;
#X obj 547 123 i;
#X obj 250 216 t f f f;
#X obj 473 106 t b b b;
#X obj 194 120 tgl 15 0 empty empty L 5 7 0 10 -262144 -1 -1 0 1;
#X obj 584 180 t f;
#X obj 207 52 samplerate~;
#X obj 255 16 loadbang;
#N canvas 258 230 228 256 time 0;
#X obj 26 54 * 0.001;
#X obj 74 149 % 60;
#X obj 23 148 / 60;
#X obj 124 110 % 1000;
#X obj 42 30 inlet;
#X obj 38 79 i;
#X obj 40 108 change;
#X obj 21 173 i;
#X obj 22 196 change;
#X obj 22 217 outlet;
#X obj 75 216 outlet;
#X obj 123 217 outlet;
#X connect 0 0 5 0;
#X connect 1 0 10 0;
#X connect 2 0 7 0;
#X connect 3 0 11 0;
#X connect 4 0 0 0;
#X connect 4 0 3 0;
#X connect 5 0 6 0;
#X connect 6 0 2 0;
#X connect 6 0 1 0;
#X connect 7 0 8 0;
#X connect 8 0 9 0;
#X restore 28 132 pd time;
#N canvas 258 230 228 256 time 0;
#X obj 26 54 * 0.001;
#X obj 74 149 % 60;
#X obj 23 148 / 60;
#X obj 124 110 % 1000;
#X obj 42 30 inlet;
#X obj 38 79 i;
#X obj 40 108 change;
#X obj 21 173 i;
#X obj 22 196 change;
#X obj 22 217 outlet;
#X obj 75 216 outlet;
#X obj 123 217 outlet;
#X connect 0 0 5 0;
#X connect 1 0 10 0;
#X connect 2 0 7 0;
#X connect 3 0 11 0;
#X connect 4 0 0 0;
#X connect 4 0 3 0;
#X connect 5 0 6 0;
#X connect 6 0 2 0;
#X connect 6 0 1 0;
#X connect 7 0 8 0;
#X connect 8 0 9 0;
#X restore 272 144 pd time;
#X obj 145 162 nbx 2 14 -1e+37 1e+37 0 0 empty empty empty 0 -6 0 10
-262144 -1 -1 0 256;
#X obj 107 161 nbx 3 14 -1e+37 1e+37 0 0 empty empty empty 0 -6 0 10
-262144 -1 -1 0 256;
#X obj 224 164 nbx 2 14 -1e+37 1e+37 0 0 empty empty empty 0 -6 0 10
-262144 -1 -1 37 256;
#X obj 186 163 nbx 3 14 -1e+37 1e+37 0 0 empty empty empty 0 -6 0 10
-262144 -1 -1 8 256;
#X text 110 176 length;
#X text 188 177 position;
#X connect 0 0 1 0;
#X connect 1 0 2 0;
#X connect 1 1 3 0;
#X connect 2 0 9 0;
#X connect 3 0 2 0;
#X connect 4 0 0 0;
#X connect 5 0 10 0;
#X connect 6 0 10 0;
#X connect 7 0 10 0;
#X connect 8 0 32 0;
#X connect 11 0 17 0;
#X connect 12 0 16 0;
#X connect 13 0 37 0;
#X connect 14 0 0 0;
#X connect 15 0 5 0;
#X connect 15 1 6 0;
#X connect 16 0 19 0;
#X connect 17 0 21 0;
#X connect 18 0 16 1;
#X connect 19 0 20 0;
#X connect 20 0 15 0;
#X connect 20 1 16 1;
#X connect 21 0 15 0;
#X connect 21 1 16 1;
#X connect 27 0 36 0;
#X connect 28 0 27 0;
#X connect 29 0 28 0;
#X connect 29 0 42 0;
#X connect 30 0 27 0;
#X connect 31 0 10 0;
#X connect 32 0 33 0;
#X connect 32 1 39 0;
#X connect 33 0 39 0;
#X connect 34 0 10 0;
#X connect 35 0 39 0;
#X connect 36 0 31 0;
#X connect 36 1 33 1;
#X connect 36 2 35 1;
#X connect 37 0 34 0;
#X connect 37 1 18 0;
#X connect 37 2 35 0;
#X connect 38 0 7 0;
#X connect 39 0 30 0;
#X connect 39 0 43 0;
#X connect 41 0 40 0;
#X connect 42 0 45 0;
#X connect 42 1 44 0;
#X connect 43 0 47 0;
#X connect 43 1 46 0;
#X coords 0 -1 1 1 160 90 1 100 100;
