#N canvas 417 44 801 645 10;
#X declare -lib iem_bin_ambi;
#X declare -lib iem_spec2;
#X obj 444 295 dsp;
#X obj 444 278 tgl 15 0 empty dsp_tgl empty 0 -6 0 8 -262144 -1 -1
0 1;
#X floatatom 444 337 5 0 0 0 - - -;
#X floatatom 460 319 5 0 0 0 - - -;
#X text 405 518 2.arg: <float> # number of mixer-channels (fader);
#X text 389 493 **********************************************;
#X text 389 633 **********************************************;
#X text 383 493 *;
#X text 383 503 *;
#X text 383 513 *;
#X text 383 523 *;
#X text 383 533 *;
#X text 383 543 *;
#X text 383 553 *;
#X text 383 563 *;
#X text 383 573 *;
#X text 383 583 *;
#X text 383 593 *;
#X text 753 494 *;
#X text 753 504 *;
#X text 753 514 *;
#X text 753 524 *;
#X text 753 534 *;
#X text 753 544 *;
#X text 753 554 *;
#X text 753 564 *;
#X text 753 574 *;
#X text 753 584 *;
#X text 753 595 *;
#X text 389 463 **********************************************;
#X text 383 463 *;
#X text 383 473 *;
#X text 383 483 *;
#X text 753 464 *;
#X text 753 474 *;
#X text 753 484 *;
#X text 383 613 *;
#X text 753 634 *;
#X text 405 508 1.arg: <float> # of adc~s;
#X text 383 603 *;
#X text 753 604 *;
#X obj 27 129 NET/DSPnet;
#X obj 27 109 bng 15 250 50 0 empty empty init_net 0 -6 0 12 -262144
-1 -1;
#X obj 135 152 MIDI/test16+8bus;
#X obj 135 130 bng 15 250 50 0 empty empty aconnect 0 -6 0 8 -262144
-1 -1;
#X obj 286 81 CUE/main;
#X obj 135 73 loadbang;
#X obj 135 99 del 1000;
#X text 120 19 ---- Interfaces ----;
#X text 436 261 Intervention;
#X text 37 46 GUI;
#X text 140 47 MIDI;
#X text 266 47 SETTINGS/PARAMTER LOAD/SAVE;
#X text 435 245 --- Helper ---;
#X text 8 2 DSP-ENGINE Main Patch;
#X text 753 614 *;
#X text 753 624 *;
#X text 383 633 *;
#X text 383 623 *;
#X text 42 475 ---------- EXTENSIONS ------;
#X text 53 494 patches in extension folder;
#X obj 47 519 DSP/extensions;
#X text 448 477 The_MIXER~ Initial Arguments;
#N canvas 1337 190 452 247 QUIT 0;
#X msg 161 196 \; pd quit;
#X msg 306 169 DSP exiting ...;
#X obj 161 122 sendreceive /QUIT;
#X text 46 36 Logic in GUI;
#X text 46 19 other components have 500ms to do quitting work;
#X obj 161 177 del 500;
#X obj 306 189 print PD;
#X obj 161 152 t b b b;
#X obj 246 209 s /OUT/MASTER/GAIN;
#X msg 246 189 0;
#X connect 1 0 6 0;
#X connect 2 0 7 0;
#X connect 5 0 0 0;
#X connect 7 0 5 0;
#X connect 7 1 9 0;
#X connect 7 2 1 0;
#X connect 9 0 8 0;
#X restore 285 121 pd QUIT;
#X msg 114 541 DSP;
#X obj 112 572 print -----------;
#X obj 274 533 tests/srnames;
#X msg 274 510 bang;
#X text 405 538 4.arg: <float> # AUX sums (bus-width);
#X text 404 528 3.arg: <float> # AUX sends (sends from channel);
#X text 405 548 5.arg: <float> # output busses;
#X text 405 558 6.arg: <float> # of dac~s;
#X text 405 568 7.arg: <float> # of fx per channel;
#X text 405 578 8.arg: <float> ?? auxillary_plug_in_index;
#X text 405 588 9.arg: <float> ?? n_sf_play;
#X text 399 598 10.arg: <float> ?? n_sf_rec;
#X text 399 608 11.arg: <float> ambisonic_order;
#X text 23 223 *;
#X text 23 233 *;
#X text 23 243 *;
#X text 23 253 *;
#X text 23 263 *;
#X text 23 273 *;
#X text 23 283 *;
#X text 23 293 *;
#X text 23 303 *;
#X text 23 313 *;
#X text 23 323 *;
#X text 393 224 *;
#X text 393 234 *;
#X text 393 244 *;
#X text 393 254 *;
#X text 393 264 *;
#X text 393 274 *;
#X text 393 284 *;
#X text 393 294 *;
#X text 393 304 *;
#X text 393 314 *;
#X text 393 325 *;
#X text 23 193 *;
#X text 23 203 *;
#X text 23 213 *;
#X text 393 194 *;
#X text 393 204 *;
#X text 393 214 *;
#X text 23 343 *;
#X text 393 364 *;
#X text 23 333 *;
#X text 393 334 *;
#X text 87 177 ------------ MIXER ------------;
#X text 393 344 *;
#X text 393 354 *;
#X text 23 363 *;
#X text 23 353 *;
#X text 88 207 The_MIXER~ Initial Arguments;
#X text 45 238 1.arg: <float> # adc~s;
#X text 45 251 2.arg: <float> # dac~s;
#X text 44 267 3.arg: <float> # number of mixer-channels (fader);
#X text 44 299 5.arg: <float> # AUX sends (sends from channel);
#X text 44 314 6.arg: <float> # AUX sums (bus-width);
#X text 45 330 7.arg: <float> # output busses;
#X text 44 284 4.arg: <float> # fx-slots per channel;
#X text 39 358 09.arg: <float> ambisonic dimension (2d \, 3d);
#X text 39 386 11.arg: <float> ambisonic outputs ("dac");
#X text 29 193 ****************************************************
;
#X text 29 223 ****************************************************
;
#X text 393 373 *;
#X text 393 382 *;
#X text 393 421 *;
#X text 393 391 *;
#X text 393 401 *;
#X text 393 411 *;
#X text 393 431 *;
#X text 23 373 *;
#X text 23 383 *;
#X text 23 393 *;
#X text 23 403 *;
#X text 23 413 *;
#X text 23 433 *;
#X text 23 423 *;
#X text 29 433 ****************************************************
;
#X msg 384 447 The_MIXER~ 64 16 4 4 16 64 4 0 0 0 4;
#X text 39 343 08.arg: <symbol> ambisonic type;
#X text 39 372 10.arg: <float> ambisonic order;
#X obj 42 449 The_MIXER~ 64 64 16 4 4 8 16 sphere 3 4 24;
#X connect 0 0 2 0;
#X connect 0 1 3 0;
#X connect 1 0 0 0;
#X connect 42 0 41 0;
#X connect 44 0 43 0;
#X connect 46 0 47 0;
#X connect 47 0 44 0;
#X connect 64 0 65 0;
#X connect 67 0 66 0;
#X connect 144 0 61 0;
#X connect 144 1 61 1;
