#N canvas 465 0 563 469 10;
#X obj 444 295 dsp;
#X obj 444 278 tgl 15 0 empty dsp_tgl empty 0 -6 0 8 -262144 -1 -1
0 1;
#X floatatom 444 337 5 0 0 0 - - -;
#X floatatom 457 319 5 0 0 0 - - -;
#X text 52 312 2.arg: <float> n_mix_ch;
#X text 36 288 **********************************************;
#X text 36 428 **********************************************;
#X text 30 288 *;
#X text 30 298 *;
#X text 30 308 *;
#X text 30 318 *;
#X text 30 328 *;
#X text 30 338 *;
#X text 30 348 *;
#X text 30 358 *;
#X text 30 368 *;
#X text 30 378 *;
#X text 30 388 *;
#X text 359 288 *;
#X text 359 298 *;
#X text 359 308 *;
#X text 359 318 *;
#X text 359 328 *;
#X text 359 338 *;
#X text 359 348 *;
#X text 359 358 *;
#X text 359 368 *;
#X text 359 378 *;
#X text 359 388 *;
#X text 36 258 **********************************************;
#X text 30 258 *;
#X text 30 268 *;
#X text 30 278 *;
#X text 359 258 *;
#X text 359 268 *;
#X text 359 278 *;
#X text 52 340 5.arg: <float> n_bus;
#X text 30 408 *;
#X text 359 428 *;
#X text 52 303 1.arg: <float> n_in;
#X text 52 321 3.arg: <float> n_aux_send;
#X text 52 330 4.arg: <float> n_aux_return;
#X text 30 398 *;
#X text 359 398 *;
#X text 47 390 10.arg: <float> n_sf_rec;
#X text 52 380 9.arg: <float> n_sf_play;
#X text 52 350 6.arg: <float> n_out;
#X text 52 360 7.arg: <float> effect_plug_in_index;
#X text 52 370 8.arg: <float> auxillary_plug_in_index;
#X obj 27 129 NET/DSPnet;
#X obj 27 109 bng 15 250 50 0 empty empty init_net 0 -6 0 12 -262144
-1 -1;
#X obj 135 130 bng 15 250 50 0 empty empty aconnect 0 -6 0 8 -262144
-1 -1;
#X obj 286 81 CUE/main;
#X obj 135 73 loadbang;
#X obj 135 99 del 1000;
#X text 95 175 ---------- EXTENSIONS ------;
#X text 120 19 ---- Interfaces ----;
#X text 95 272 The_MIXIER~ Initial Arguments;
#X text 436 261 Intervention;
#X text 90 188 patches in extension folder;
#X text 37 46 GUI;
#X text 140 47 MIDI;
#X text 266 47 SETTINGS/PARAMTER LOAD/SAVE;
#X text 94 242 ------------ MIXER ------------;
#X text 435 245 --- Helper ---;
#X text 8 2 DSP-ENGINE Main Patch;
#X obj 164 213 DSP/extensions;
#X text 359 408 *;
#X text 359 418 *;
#X text 30 428 *;
#X text 30 418 *;
#X text 47 400 11.arg: <float> n_ambisonic_order;
#X obj 49 444 The_MIXER~ 26 16 4 4 12 26 4 0 0 0 4;
#X obj 137 152 MIDI/test16+8bus_win;
#X connect 0 0 2 0;
#X connect 0 1 3 0;
#X connect 1 0 0 0;
#X connect 50 0 49 0;
#X connect 53 0 54 0;
#X connect 54 0 51 0;
