#N canvas 721 128 559 542 10;
#X obj 444 295 dsp;
#X obj 444 278 tgl 15 0 empty dsp_tgl empty 0 -6 0 8 -262144 -1 -1
1 1;
#X floatatom 444 337 5 0 0 0 - - -;
#X floatatom 457 319 5 0 0 0 - - -;
#X text 45 247 2.arg: <float> n_mix_ch;
#X text 29 223 **********************************************;
#X text 29 363 **********************************************;
#X text 23 223 *;
#X text 23 233 *;
#X text 23 243 *;
#X text 23 253 *;
#X text 23 263 *;
#X text 23 273 *;
#X text 23 283 *;
#X text 23 293 *;
#X text 23 303 *;
#X text 23 313 *;
#X text 23 323 *;
#X text 353 224 *;
#X text 353 234 *;
#X text 353 244 *;
#X text 353 254 *;
#X text 353 264 *;
#X text 353 274 *;
#X text 353 284 *;
#X text 353 294 *;
#X text 353 304 *;
#X text 353 314 *;
#X text 353 324 *;
#X text 29 193 **********************************************;
#X text 23 193 *;
#X text 23 203 *;
#X text 23 213 *;
#X text 353 194 *;
#X text 353 204 *;
#X text 353 214 *;
#X text 45 275 5.arg: <float> n_bus;
#X text 23 343 *;
#X text 353 364 *;
#X text 45 238 1.arg: <float> n_in;
#X text 45 256 3.arg: <float> n_aux_send;
#X text 45 265 4.arg: <float> n_aux_return;
#X text 23 333 *;
#X text 353 334 *;
#X text 40 325 10.arg: <float> n_sf_rec;
#X text 45 315 9.arg: <float> n_sf_play;
#X text 45 285 6.arg: <float> n_out;
#X text 45 295 7.arg: <float> effect_plug_in_index;
#X text 45 305 8.arg: <float> auxillary_plug_in_index;
#X obj 27 129 NET/DSPnet;
#X obj 27 109 bng 15 250 50 0 empty empty init_net 0 -6 0 12 -262144
-1 -1;
#X obj 135 152 MIDI/test16+8bus;
#X obj 135 130 bng 15 250 50 0 empty empty aconnect 0 -6 0 8 -262144
-1 -1;
#X obj 286 81 CUE/main;
#X obj 135 73 loadbang;
#X obj 135 99 del 1000;
#X text 120 19 ---- Interfaces ----;
#X text 436 261 Intervention;
#X text 37 46 GUI;
#X text 140 47 MIDI;
#X text 266 47 SETTINGS/PARAMTER LOAD/SAVE;
#X text 87 177 ------------ MIXER ------------;
#X text 435 245 --- Helper ---;
#X text 8 2 DSP-ENGINE Main Patch;
#X text 353 344 *;
#X text 353 354 *;
#X text 23 363 *;
#X text 23 353 *;
#X text 40 335 11.arg: <float> n_ambisonic_order;
#X text 42 405 ---------- EXTENSIONS ------;
#X text 53 424 patches in extension folder;
#X obj 47 449 DSP/extensions;
#X text 88 207 The_MIXER~ Initial Arguments;
#X obj 42 379 The_MIXER~ 64 16 4 4 12 64 4 0 0 0 4;
#N canvas 1337 190 452 247 QUIT 0;
#X msg 159 196 \; pd quit;
#X obj 165 120 spigot;
#X msg 303 122 DSP exiting ...;
#X obj 216 76 sendreceive DSP_REALLY_QUIT;
#X obj 214 99 tgl 15 0 empty empty empty 0 -6 0 8 -262144 -1 -1 0 1
;
#X obj 156 42 sendreceive DSP_DO_QUIT;
#X text 46 36 Logic in GUI;
#X text 46 19 other components have 500ms to do quitting work;
#X obj 159 177 del 500;
#X obj 306 149 print PD;
#X obj 161 152 t b b b;
#X obj 266 209 s OUT_MASTER_GAIN;
#X msg 246 181 0;
#X connect 1 0 10 0;
#X connect 2 0 9 0;
#X connect 3 0 4 0;
#X connect 4 0 1 1;
#X connect 5 0 1 0;
#X connect 8 0 0 0;
#X connect 10 0 8 0;
#X connect 10 1 12 0;
#X connect 10 2 2 0;
#X connect 12 0 11 0;
#X restore 285 121 pd QUIT;
#X connect 0 0 2 0;
#X connect 0 1 3 0;
#X connect 1 0 0 0;
#X connect 50 0 49 0;
#X connect 52 0 51 0;
#X connect 54 0 55 0;
#X connect 55 0 52 0;
#X connect 73 0 71 0;
#X connect 73 1 71 1;
