#N canvas 232 293 782 369 10;
#X obj 444 295 dsp;
#X obj 444 278 tgl 15 0 empty dsp_tgl empty 0 -6 0 8 -262144 -1 -1
0 1;
#X floatatom 444 337 5 0 0 0 - - -;
#X floatatom 460 319 5 0 0 0 - - -;
#X obj 27 129 NET/DSPnet;
#X obj 27 109 bng 15 250 50 0 empty empty init_net 0 -6 0 12 -262144
-1 -1;
#X obj 135 130 bng 15 250 50 0 empty empty aconnect 0 -6 0 8 -262144
-1 -1;
#X obj 286 81 CUE/main;
#X obj 135 73 loadbang;
#X obj 135 99 del 1000;
#X text 120 19 ---- Interfaces ----;
#X text 436 261 Intervention;
#X text 37 46 GUI;
#X text 140 47 MIDI;
#X text 266 47 SETTINGS/PARAMTER LOAD/SAVE;
#X text 435 245 --- Helper ---;
#N canvas 1337 190 452 247 QUIT 0;
#X msg 161 196 \; pd quit;
#X msg 306 169 DSP exiting ...;
#X obj 161 122 sendreceive /QUIT;
#X text 46 36 Logic in GUI;
#X text 46 19 other components have 500ms to do quitting work;
#X obj 161 177 del 500;
#X obj 306 189 print PD;
#X obj 161 152 t b b b;
#X obj 246 209 s /OUT/MASTER/GAIN;
#X msg 246 189 0;
#X connect 1 0 6 0;
#X connect 2 0 7 0;
#X connect 5 0 0 0;
#X connect 7 0 5 0;
#X connect 7 1 9 0;
#X connect 7 2 1 0;
#X connect 9 0 8 0;
#X restore 285 121 pd QUIT;
#X msg 79 284 DSP;
#X obj 79 305 print -----------;
#X obj 209 303 tests/srnames;
#X msg 209 280 bang;
#X obj 135 156 outlet MIDI;
#X connect 0 0 2 0;
#X connect 0 1 3 0;
#X connect 1 0 0 0;
#X connect 5 0 4 0;
#X connect 6 0 21 0;
#X connect 8 0 9 0;
#X connect 9 0 6 0;
#X connect 17 0 18 0;
#X connect 20 0 19 0;
