#N canvas 1354 119 550 363 10;
#X declare -lib iem_bin_ambi;
#X declare -lib iem_spec2;
#X text 133 93 DSP-ENGINE Main Patch;
#X text 132 215 ---------- EXTENSIONS ------;
#X text 143 234 patches in extension folder;
#X obj 137 259 DSP/extensions;
#X obj 137 189 The_MIXER~ 64 64 16 4 4 8 16 sphere 3 4 24;
#X obj 135 118 fixedMAIN;
#X obj 135 142 MIDI/MAIN_IN16_BUS8;
#X connect 4 0 3 0;
#X connect 4 1 3 1;
#X connect 5 0 6 0;
