#N canvas 780 0 450 505 12;
#X obj 25 25 inlet;
#X msg 25 70 1 \$1;
#X obj 25 91 mtx_:;
#X obj 25 115 t a a;
#X obj 25 47 t f f;
#X obj 81 92 + 1;
#X obj 25 248 mtx_:;
#X obj 25 299 mtx_concat row;
#X msg 155 226 matrix 1 1 \$1;
#X obj 25 322 outlet;
#X obj 25 188 mtx_concat col;
#X obj 25 139 mtx_reverse;
#X obj 25 162 mtx_+ 0;
#X obj 25 227 mtx_transpose;
#X obj 95 50 sel 0;
#X msg 153 54 matrix 1 1 1;
#X connect 0 0 4 0;
#X connect 1 0 2 0;
#X connect 2 0 3 0;
#X connect 3 0 11 0;
#X connect 3 1 10 1;
#X connect 4 0 1 0;
#X connect 4 1 5 0;
#X connect 4 1 14 0;
#X connect 5 0 8 0;
#X connect 5 0 12 1;
#X connect 6 0 7 0;
#X connect 7 0 9 0;
#X connect 8 0 7 1;
#X connect 10 0 13 0;
#X connect 11 0 12 0;
#X connect 12 0 10 0;
#X connect 13 0 6 0;
#X connect 14 0 15 0;
#X connect 15 0 9 0;
