#N canvas 0 0 450 300 10;
#X floatatom 145 153 5 0 0 0 - - -;
#X obj 141 173 ACN2SID_3D_idx;
#X obj 141 203 make_ambiroutingmatrix;
#X obj 141 90 inlet;
#X obj 141 259 outlet;
#X connect 0 0 1 0;
#X connect 1 0 2 0;
#X connect 2 0 4 0;
#X connect 3 0 1 0;
