#N canvas 1386 51 766 438 10;
#X obj 566 84 SID2ACN_2D_idx;
#X floatatom 592 60 5 0 0 0 - - -;
#X obj 567 111 mtx_print SID2ACN_2D_idx;
#X obj 387 112 mtx_print ACN2SID_2D_idx;
#X floatatom 371 48 5 0 0 0 - - -;
#X floatatom 256 167 5 0 0 0 - - -;
#X floatatom 422 168 5 0 0 0 - - -;
#X obj 237 273 mtx_print SID2ACN_3D_idx;
#X obj 416 278 mtx_print ACN2SID_3D_idx;
#X obj 418 188 ACN2SID_3D_idx;
#X obj 367 73 ACN2SID_2D_idx;
#X obj 252 195 SID2ACN_3D_idx;
#X text 139 138 N3D=SN3D * sqrt(2n+1);
#X obj 91 181 N3D2SN3D;
#X obj 256 238 make_ambiroutingmatrix;
#X obj 91 208 mtx_diag;
#X floatatom 91 137 5 0 0 0 - - -;
#X obj 93 237 mtx_resize 26 26;
#X obj 93 353 outlet;
#X obj 89 39 inlet;
#X msg 110 106 4;
#X obj 3 109 mtx_eye 26 26;
#X obj 163 181 SN3D2N3D;
#X obj 89 76 route UNITY N3DtoSN3D SN3DtoN3D;
#X msg 231 105 4;
#X connect 0 0 2 0;
#X connect 1 0 0 0;
#X connect 4 0 10 0;
#X connect 5 0 11 0;
#X connect 6 0 9 0;
#X connect 9 0 8 0;
#X connect 9 0 14 0;
#X connect 10 0 3 0;
#X connect 11 0 7 0;
#X connect 11 0 14 0;
#X connect 13 0 15 0;
#X connect 15 0 17 0;
#X connect 16 0 13 0;
#X connect 17 0 18 0;
#X connect 19 0 23 0;
#X connect 20 0 16 0;
#X connect 21 0 18 0;
#X connect 22 0 15 0;
#X connect 23 0 21 0;
#X connect 23 1 20 0;
#X connect 23 2 24 0;
#X connect 24 0 22 0;
