#N canvas 154 51 1125 718 10;
#X msg 59 327 1;
#X msg 24 326 0;
#X obj 64 123 t b b;
#X msg 275 24 set open \$1;
#X msg 146 231 1;
#X msg 178 230 0;
#X obj 24 348 tgl 15 0 empty empty empty 0 -6 0 8 -262144 -1 -1 0 1
;
#X obj 24 368 switch~;
#X msg 67 169 0;
#X msg 245 43 open filename_not_set;
#X obj 19 124 t b b;
#X obj 16 -28 inlet~;
#X obj 245 3 t b a;
#X obj 105 368 s~ \$0_fade~;
#X obj 105 346 line~;
#X obj 29 -8 r \$0_ditit;
#X obj 138 199 del 10;
#X msg 29 8 0;
#X text 26 391 To be changed also for ambisonic playback;
#X obj 105 320 pack 0 10;
#X msg 137 281 0;
#X obj 105 280 f 0;
#X obj 24 306 del 1;
#X obj 19 196 del 50;
#X obj 751 50 s \$0_OUT_SRC;
#X obj 751 6 loadbang;
#X msg 751 23 symbol OUT;
#X obj 531 515 send_to_out 8 \$0;
#X obj 456 680 send_to_out 1 \$0;
#X obj 467 657 send_to_out 2 \$0;
#X obj 477 632 send_to_out 3 \$0;
#X obj 487 610 send_to_out 4 \$0;
#X obj 499 587 send_to_out 5 \$0;
#X obj 509 562 send_to_out 6 \$0;
#X obj 521 540 send_to_out 7 \$0;
#X obj 581 681 send_to_out 9 \$0;
#X obj 593 658 send_to_out 10 \$0;
#X obj 603 633 send_to_out 11 \$0;
#X obj 613 611 send_to_out 12 \$0;
#X obj 625 588 send_to_out 13 \$0;
#X obj 635 563 send_to_out 14 \$0;
#X obj 647 541 send_to_out 15 \$0;
#X obj 657 516 send_to_out 16 \$0;
#X obj 705 681 send_to_out 17 \$0;
#X obj 717 658 send_to_out 18 \$0;
#X obj 727 633 send_to_out 19 \$0;
#X obj 737 611 send_to_out 20 \$0;
#X obj 749 588 send_to_out 21 \$0;
#X obj 759 563 send_to_out 22 \$0;
#X obj 771 541 send_to_out 23 \$0;
#X obj 781 516 send_to_out 24 \$0;
#X obj 245 -15 receive_parameter /EXT/SFPO/FILENAME;
#X obj 729 -21 receive_setting /EXT/SFPO/OUT;
#X obj 19 26 sendreceive /EXT/SFPO/PLAY;
#X obj 166 104 receive_parameter /EXT/SFPO/GAIN;
#X obj 794 390 receive_setting /EXT/SFPO/OUT/26;
#X obj 105 301 dbtorms;
#X obj 790 493 send_to_out 25 \$0;
#X obj 787 414 send_to_single \$0;
#X obj 36 498 mtx_eye 26 26;
#X obj 36 474 loadbang;
#X obj 101 478 bng 15 250 50 0 empty empty empty 17 7 0 10 -262144
-1 -1;
#X obj 245 183 t a;
#X obj 456 380 mtx_*~ 26 26 100 ____________________________;
#N canvas 1 70 1278 520 sfplayer 0;
#X obj 398 52 s \$0_ditit;
#X obj 96 55 readsf~ 26 1e+06 _________________________;
#X obj 30 195 outlet~;
#X obj 40 215 outlet~;
#X obj 50 235 outlet~;
#X obj 60 255 outlet~;
#X obj 100 195 outlet~;
#X obj 110 215 outlet~;
#X obj 120 235 outlet~;
#X obj 130 255 outlet~;
#X obj 170 195 outlet~;
#X obj 180 215 outlet~;
#X obj 190 235 outlet~;
#X obj 200 255 outlet~;
#X obj 240 195 outlet~;
#X obj 250 215 outlet~;
#X obj 260 235 outlet~;
#X obj 270 255 outlet~;
#X obj 310 195 outlet~;
#X obj 320 215 outlet~;
#X obj 330 235 outlet~;
#X obj 340 255 outlet~;
#X obj 380 195 outlet~;
#X obj 390 215 outlet~;
#X obj 400 235 outlet~;
#X obj 410 255 outlet~;
#X obj 440 195 outlet~;
#X obj 450 215 outlet~;
#X obj 434 19 inlet sfctl;
#X connect 1 0 2 0;
#X connect 1 1 3 0;
#X connect 1 2 4 0;
#X connect 1 3 5 0;
#X connect 1 4 6 0;
#X connect 1 5 7 0;
#X connect 1 6 8 0;
#X connect 1 7 9 0;
#X connect 1 8 10 0;
#X connect 1 9 11 0;
#X connect 1 10 12 0;
#X connect 1 11 13 0;
#X connect 1 12 14 0;
#X connect 1 13 15 0;
#X connect 1 14 16 0;
#X connect 1 15 17 0;
#X connect 1 16 18 0;
#X connect 1 17 19 0;
#X connect 1 18 20 0;
#X connect 1 19 21 0;
#X connect 1 20 22 0;
#X connect 1 21 23 0;
#X connect 1 22 24 0;
#X connect 1 23 25 0;
#X connect 1 24 26 0;
#X connect 1 25 27 0;
#X connect 1 26 0 0;
#X connect 28 0 1 0;
#X restore 349 233 pd sfplayer ______________________________;
#X obj 825 118 select file adc;
#X msg 825 139 0;
#X msg 895 164 0;
#X msg 866 164 1;
#X obj 866 143 t b b;
#X obj 19 44 route 1 0;
#X obj 150 255 t f;
#X obj 506 184 sfpo_adc26~ _______________________________;
#X obj 825 98 receive_setting /EXT/SFPO/SOURCE;
#X obj 371 320 *~ 1;
#N canvas 1 51 450 300 matrix 0;
#X obj 65 258 outlet;
#X obj 65 191 matrix;
#X obj 65 130 receive_parameter /EXT/SFPO/MATRIX;
#X obj 65 151 list trim;
#N canvas 1 51 666 484 file 0;
#X obj 142 81 receive_parameter /EXT/SFPO/MATRIXFILE;
#X msg 165 146 read filename_not_set;
#X msg 188 123 set read \$1;
#X obj 142 102 t b b a;
#X obj 142 291 t a;
#X obj 142 374 outlet;
#X obj 182 200 t b a;
#X msg 215 221 set write \$1;
#X msg 182 249 write /home/cubemixer/projects/malham2013/matrix.mtx
;
#X obj 182 177 receive_parameter /EXT/SFPO/MATRIXFILESAVE;
#X obj 142 313 route bang;
#X obj 142 335 t b;
#X connect 0 0 3 0;
#X connect 1 0 4 0;
#X connect 2 0 1 0;
#X connect 3 0 4 0;
#X connect 3 1 1 0;
#X connect 3 2 2 0;
#X connect 4 0 10 0;
#X connect 6 0 8 0;
#X connect 6 1 7 0;
#X connect 7 0 8 0;
#X connect 8 0 4 0;
#X connect 9 0 6 0;
#X connect 10 0 11 0;
#X connect 10 1 5 0;
#X connect 11 0 5 0;
#X restore 138 151 pd file;
#X obj 275 250 mtx_print;
#X obj 65 236 mtx_resize 26 26;
#X obj 65 213 t a a;
#X obj 275 230 spigot;
#X obj 314 215 tgl 15 0 empty empty empty 17 7 0 10 -262144 -1 -1 0
1;
#X connect 1 0 7 0;
#X connect 2 0 3 0;
#X connect 3 0 1 0;
#X connect 4 0 1 0;
#X connect 6 0 0 0;
#X connect 7 0 6 0;
#X connect 7 1 8 0;
#X connect 8 0 5 0;
#X connect 9 0 8 1;
#X restore 456 136 pd matrix;
#X text 783 303 channel 26 is send to AMBIBUS and SINGLE !!!;
#X connect 0 0 6 0;
#X connect 1 0 6 0;
#X connect 2 0 16 0;
#X connect 2 1 20 0;
#X connect 3 0 9 0;
#X connect 4 0 71 0;
#X connect 5 0 71 0;
#X connect 6 0 7 0;
#X connect 8 0 14 0;
#X connect 9 0 62 0;
#X connect 10 0 23 0;
#X connect 10 1 8 0;
#X connect 10 1 9 0;
#X connect 10 1 0 0;
#X connect 12 0 9 0;
#X connect 12 1 3 0;
#X connect 14 0 13 0;
#X connect 15 0 17 0;
#X connect 16 0 5 0;
#X connect 16 0 22 0;
#X connect 17 0 53 0;
#X connect 17 0 70 0;
#X connect 19 0 14 0;
#X connect 20 0 56 0;
#X connect 21 0 56 0;
#X connect 22 0 1 0;
#X connect 23 0 4 0;
#X connect 23 0 21 0;
#X connect 25 0 26 0;
#X connect 26 0 24 0;
#X connect 51 0 12 0;
#X connect 52 0 24 0;
#X connect 53 0 70 0;
#X connect 54 0 21 0;
#X connect 55 0 58 1;
#X connect 56 0 19 0;
#X connect 59 0 63 0;
#X connect 60 0 59 0;
#X connect 61 0 59 0;
#X connect 62 0 64 0;
#X connect 63 0 28 0;
#X connect 63 1 29 0;
#X connect 63 2 30 0;
#X connect 63 3 31 0;
#X connect 63 4 32 0;
#X connect 63 5 33 0;
#X connect 63 6 34 0;
#X connect 63 7 27 0;
#X connect 63 8 35 0;
#X connect 63 9 36 0;
#X connect 63 10 37 0;
#X connect 63 11 38 0;
#X connect 63 12 39 0;
#X connect 63 13 40 0;
#X connect 63 14 41 0;
#X connect 63 15 42 0;
#X connect 63 16 43 0;
#X connect 63 17 44 0;
#X connect 63 18 45 0;
#X connect 63 19 46 0;
#X connect 63 20 47 0;
#X connect 63 21 48 0;
#X connect 63 22 49 0;
#X connect 63 23 50 0;
#X connect 63 24 57 0;
#X connect 63 25 58 0;
#X connect 64 0 63 1;
#X connect 64 1 63 2;
#X connect 64 2 74 0;
#X connect 64 3 63 4;
#X connect 64 4 63 5;
#X connect 64 5 63 6;
#X connect 64 6 63 7;
#X connect 64 7 63 8;
#X connect 64 8 63 9;
#X connect 64 9 63 10;
#X connect 64 10 63 11;
#X connect 64 11 63 12;
#X connect 64 12 63 13;
#X connect 64 13 63 14;
#X connect 64 14 63 15;
#X connect 64 15 63 16;
#X connect 64 16 63 17;
#X connect 64 17 63 18;
#X connect 64 18 63 19;
#X connect 64 19 63 20;
#X connect 64 20 63 21;
#X connect 64 21 63 22;
#X connect 64 22 63 23;
#X connect 64 23 63 24;
#X connect 64 24 63 25;
#X connect 64 25 63 26;
#X connect 65 0 66 0;
#X connect 65 1 69 0;
#X connect 66 0 72 0;
#X connect 67 0 64 0;
#X connect 68 0 6 0;
#X connect 68 0 72 0;
#X connect 69 0 68 0;
#X connect 69 1 67 0;
#X connect 70 0 10 0;
#X connect 70 1 2 0;
#X connect 71 0 62 0;
#X connect 72 0 63 1;
#X connect 72 1 63 2;
#X connect 72 2 63 3;
#X connect 72 3 63 4;
#X connect 72 4 63 5;
#X connect 72 5 63 6;
#X connect 72 6 63 7;
#X connect 72 7 63 8;
#X connect 72 8 63 9;
#X connect 72 9 63 10;
#X connect 72 10 63 11;
#X connect 72 11 63 12;
#X connect 72 12 63 13;
#X connect 72 13 63 14;
#X connect 72 14 63 15;
#X connect 72 15 63 16;
#X connect 72 16 63 17;
#X connect 72 17 63 18;
#X connect 72 18 63 19;
#X connect 72 19 63 20;
#X connect 72 20 63 21;
#X connect 72 21 63 22;
#X connect 72 22 63 23;
#X connect 72 23 63 24;
#X connect 72 24 63 25;
#X connect 72 25 63 26;
#X connect 73 0 65 0;
#X connect 74 0 63 3;
#X connect 75 0 63 0;
