#N canvas 1702 0 797 718 10;
#X msg 59 327 1;
#X msg 24 326 0;
#X obj 69 119 t b b;
#X msg 331 67 set open \$1;
#X msg 227 274 1;
#X msg 262 275 0;
#X obj 24 348 tgl 15 0 empty empty empty 0 -6 0 8 -262144 -1 -1 1 1
;
#X obj 24 368 switch~;
#X msg 67 169 0;
#X msg 71 68 start;
#X msg 19 69 stop;
#X msg 300 104 open /home/winfried/tmp/alsa32s.wav;
#X obj 19 124 t b b;
#X obj 16 -28 inlet~;
#X obj 18 44 route 0 1;
#X obj 303 41 t b a;
#X obj 15 94 route start stop;
#X obj 112 368 s~ \$0_fade~;
#X obj 112 346 line~;
#X obj 533 301 s \$0_ditit;
#X obj 77 -25 r \$0_ditit;
#X obj 138 199 del 10;
#X msg 78 -4 0;
#X text 26 391 To be changed also for ambisonic playback;
#X obj 226 300 readsf~ 26 1e+06 _________________________;
#X obj 296 3 sendreceive EXT_SFPO_FILENAME;
#X obj 16 19 sendreceive EXT_SFPO_PLAY;
#X obj 105 247 sendreceive EXT_SFPO_VOL;
#X obj 112 320 pack 0 10;
#X msg 137 281 0;
#X obj 105 280 f 0;
#X obj 24 306 del 1;
#X obj 19 196 del 50;
#X obj 440 229 s \$0_OUT_SRC;
#X obj 624 161 loadbang;
#X obj 440 194 sendreceive EXT_SFPO_OUT;
#X msg 620 188 symbol OUT;
#X obj 301 435 send_to_out 8 \$0;
#X obj 226 600 send_to_out 1 \$0;
#X obj 237 577 send_to_out 2 \$0;
#X obj 247 552 send_to_out 3 \$0;
#X obj 257 530 send_to_out 4 \$0;
#X obj 269 507 send_to_out 5 \$0;
#X obj 279 482 send_to_out 6 \$0;
#X obj 291 460 send_to_out 7 \$0;
#X obj 351 601 send_to_out 9 \$0;
#X obj 363 578 send_to_out 10 \$0;
#X obj 373 553 send_to_out 11 \$0;
#X obj 383 531 send_to_out 12 \$0;
#X obj 395 508 send_to_out 13 \$0;
#X obj 405 483 send_to_out 14 \$0;
#X obj 417 461 send_to_out 15 \$0;
#X obj 427 436 send_to_out 16 \$0;
#X obj 475 601 send_to_out 17 \$0;
#X obj 487 578 send_to_out 18 \$0;
#X obj 497 553 send_to_out 19 \$0;
#X obj 507 531 send_to_out 20 \$0;
#X obj 519 508 send_to_out 21 \$0;
#X obj 529 483 send_to_out 22 \$0;
#X obj 541 461 send_to_out 23 \$0;
#X obj 551 436 send_to_out 24 \$0;
#X obj 560 388 sendreceive EXT_SFPO_OUT_25;
#X obj 554 338 sendreceive EXT_SFPO_OUT_26;
#X obj 547 362 send_to_single \$0;
#X obj 552 410 send_to_single \$0;
#X obj 111 453 env~;
#X floatatom 110 489 5 0 0 0 - - -;
#X connect 0 0 6 0;
#X connect 1 0 6 0;
#X connect 2 0 21 0;
#X connect 2 1 29 0;
#X connect 3 0 11 0;
#X connect 4 0 24 0;
#X connect 5 0 24 0;
#X connect 6 0 7 0;
#X connect 8 0 18 0;
#X connect 9 0 16 0;
#X connect 10 0 16 0;
#X connect 11 0 24 0;
#X connect 12 0 32 0;
#X connect 12 1 8 0;
#X connect 12 1 11 0;
#X connect 12 1 0 0;
#X connect 14 0 10 0;
#X connect 14 1 9 0;
#X connect 15 0 11 0;
#X connect 15 1 3 0;
#X connect 16 0 12 0;
#X connect 16 1 2 0;
#X connect 18 0 17 0;
#X connect 20 0 22 0;
#X connect 21 0 5 0;
#X connect 21 0 31 0;
#X connect 22 0 26 0;
#X connect 22 0 14 0;
#X connect 24 0 38 0;
#X connect 24 0 65 0;
#X connect 24 1 39 0;
#X connect 24 2 40 0;
#X connect 24 3 41 0;
#X connect 24 4 42 0;
#X connect 24 5 43 0;
#X connect 24 6 44 0;
#X connect 24 7 37 0;
#X connect 24 8 45 0;
#X connect 24 9 46 0;
#X connect 24 10 47 0;
#X connect 24 11 48 0;
#X connect 24 12 49 0;
#X connect 24 13 50 0;
#X connect 24 14 51 0;
#X connect 24 15 52 0;
#X connect 24 16 53 0;
#X connect 24 17 54 0;
#X connect 24 18 55 0;
#X connect 24 19 56 0;
#X connect 24 20 57 0;
#X connect 24 21 58 0;
#X connect 24 22 59 0;
#X connect 24 23 60 0;
#X connect 24 24 64 0;
#X connect 24 25 63 0;
#X connect 24 26 19 0;
#X connect 25 0 15 0;
#X connect 26 0 14 0;
#X connect 27 0 30 0;
#X connect 28 0 18 0;
#X connect 29 0 28 0;
#X connect 30 0 28 0;
#X connect 31 0 1 0;
#X connect 32 0 4 0;
#X connect 32 0 30 0;
#X connect 34 0 36 0;
#X connect 35 0 33 0;
#X connect 36 0 33 0;
#X connect 61 0 64 1;
#X connect 62 0 63 1;
#X connect 65 0 66 0;
