#N canvas 1702 0 797 718 10;
#X msg 62 353 1;
#X msg 27 352 0;
#X obj 69 119 t b b;
#X msg 297 123 set open \$1;
#X msg 211 242 1;
#X msg 246 243 0;
#X obj 24 199 del 50;
#X obj 26 382 tgl 15 0 empty empty empty 0 -6 0 8 -262144 -1 -1 0 1
;
#X obj 26 402 switch~;
#X msg 118 273 0 \$1;
#X msg 82 274 1 \$1;
#X msg 96 155 0;
#X msg 71 68 start;
#X msg 19 69 stop;
#X obj 23 322 del 3;
#X msg 266 160 open /home/cubemixer/projects/sonenvir_290506/sonif_sounds/flatterecho1_dehn_20_RIR.wav
;
#X obj 19 124 t b b;
#X obj 16 -28 inlet~;
#X obj 262 59 sendreceive SFPO_OPEN;
#X obj 16 19 sendreceive SFPO_PLAY;
#X obj 18 44 route 0 1;
#X obj 269 97 t b a;
#X obj 15 94 route start stop;
#X obj 288 603 send_to_out 1 \$0;
#X obj 114 346 s~ \$0_fade~;
#X obj 114 318 line~;
#X obj 603 311 s \$0_ditit;
#X obj 197 -24 r \$0_ditit;
#X obj 23 164 del 10;
#X msg 82 242 10;
#X msg 128 241 10;
#X obj 157 170 del 10;
#X obj 299 580 send_to_out 2 \$0;
#X obj 309 555 send_to_out 3 \$0;
#X obj 319 533 send_to_out 4 \$0;
#X obj 331 510 send_to_out 5 \$0;
#X obj 341 485 send_to_out 6 \$0;
#X obj 353 463 send_to_out 7 \$0;
#X obj 363 438 send_to_out 8 \$0;
#X obj 413 604 send_to_out 9 \$0;
#X obj 425 581 send_to_out 10 \$0;
#X obj 435 556 send_to_out 11 \$0;
#X obj 445 534 send_to_out 12 \$0;
#X obj 457 511 send_to_out 13 \$0;
#X obj 467 486 send_to_out 14 \$0;
#X obj 479 464 send_to_out 15 \$0;
#X obj 489 439 send_to_out 16 \$0;
#X obj 537 604 send_to_out 17 \$0;
#X obj 549 581 send_to_out 18 \$0;
#X obj 559 556 send_to_out 19 \$0;
#X obj 569 534 send_to_out 20 \$0;
#X obj 581 511 send_to_out 21 \$0;
#X obj 591 486 send_to_out 22 \$0;
#X obj 603 464 send_to_out 23 \$0;
#X obj 613 439 send_to_out 24 \$0;
#X obj 622 415 send_to_out 32 \$0;
#X obj 634 393 send_to_out 33 \$0;
#X obj 288 279 readsf~ 24 1e+06 _________________________;
#X msg 86 -7 0;
#X obj 210 2 del 10;
#X text 7 450 To be changed also for ambisonic playback;
#X connect 0 0 7 0;
#X connect 1 0 7 0;
#X connect 2 0 31 0;
#X connect 2 1 30 0;
#X connect 3 0 15 0;
#X connect 4 0 57 0;
#X connect 5 0 57 0;
#X connect 6 0 4 0;
#X connect 6 0 29 0;
#X connect 7 0 8 0;
#X connect 9 0 25 0;
#X connect 10 0 25 0;
#X connect 11 0 25 0;
#X connect 12 0 22 0;
#X connect 13 0 22 0;
#X connect 14 0 1 0;
#X connect 15 0 57 0;
#X connect 16 0 28 0;
#X connect 16 1 11 0;
#X connect 16 1 15 0;
#X connect 18 0 21 0;
#X connect 19 0 20 0;
#X connect 20 0 13 0;
#X connect 20 1 12 0;
#X connect 21 0 15 0;
#X connect 21 1 3 0;
#X connect 22 0 16 0;
#X connect 22 1 2 0;
#X connect 25 0 24 0;
#X connect 27 0 59 0;
#X connect 27 0 58 0;
#X connect 28 0 0 0;
#X connect 28 0 6 0;
#X connect 29 0 10 0;
#X connect 30 0 9 0;
#X connect 31 0 5 0;
#X connect 31 0 14 0;
#X connect 57 0 23 0;
#X connect 57 1 32 0;
#X connect 57 2 33 0;
#X connect 57 3 34 0;
#X connect 57 4 35 0;
#X connect 57 5 36 0;
#X connect 57 6 37 0;
#X connect 57 7 38 0;
#X connect 57 8 39 0;
#X connect 57 9 40 0;
#X connect 57 10 41 0;
#X connect 57 11 42 0;
#X connect 57 12 43 0;
#X connect 57 13 44 0;
#X connect 57 14 45 0;
#X connect 57 15 46 0;
#X connect 57 16 47 0;
#X connect 57 17 48 0;
#X connect 57 18 49 0;
#X connect 57 19 50 0;
#X connect 57 20 51 0;
#X connect 57 21 52 0;
#X connect 57 22 53 0;
#X connect 57 23 54 0;
#X connect 57 24 26 0;
#X connect 58 0 19 0;
#X connect 59 0 58 0;
