#N canvas 1794 95 766 628 10;
#X text 139 258 N3D=SN3D * sqrt(2n+1);
#X obj 89 513 outlet;
#X obj 89 460 t a;
#X text 115 7 tm's decoder is SID/SN3D;
#N canvas 0 0 780 488 playground 0;
#X floatatom 78 94 5 0 0 0 - - -;
#X floatatom 244 95 5 0 0 0 - - -;
#X obj 59 200 mtx_print SID2ACN_3D_idx;
#X obj 238 205 mtx_print ACN2SID_3D_idx;
#X obj 240 115 ACN2SID_3D_idx;
#X obj 74 122 SID2ACN_3D_idx;
#X obj 78 165 make_ambiroutingmatrix;
#X obj 566 84 SID2ACN_2D_idx;
#X floatatom 592 60 5 0 0 0 - - -;
#X obj 567 111 mtx_print SID2ACN_2D_idx;
#X obj 387 112 mtx_print ACN2SID_2D_idx;
#X floatatom 371 48 5 0 0 0 - - -;
#X obj 367 73 ACN2SID_2D_idx;
#X connect 0 0 5 0;
#X connect 1 0 4 0;
#X connect 4 0 3 0;
#X connect 4 0 6 0;
#X connect 5 0 2 0;
#X connect 5 0 6 0;
#X connect 7 0 9 0;
#X connect 8 0 7 0;
#X connect 11 0 12 0;
#X connect 12 0 10 0;
#X restore 385 25 pd playground;
#X obj 89 429 mtx_*;
#X obj 89 39 inlet weights;
#X obj 468 85 inlet ordering;
#X obj 468 202 route UNITY FM2SID ACN2SID;
#X obj 262 48 loadbang;
#X msg 261 70 UNITY;
#X obj 438 293 t b a;
#X obj 261 96 t a a;
#X obj 89 176 route UNITY N3DtoSN3D SN3DtoN3D FM2SID;
#X obj 531 241 FM2SID_routing;
#X obj 89 90 list append 4;
#X obj 89 117 list trim;
#X obj 468 133 list append 4;
#X obj 468 160 list trim;
#X obj 586 53 t f f;
#X obj 89 405 mtx;
#X obj 89 309 t b a;
#X obj 89 378 del;
#X obj 617 274 ACN2SID_routing;
#X obj 89 218 UNITY_weights;
#X obj 423 228 UNITY_routing;
#X obj 219 233 SN3D2N3D_weights;
#X obj 153 282 N3D2SN3D_weights;
#X obj 287 201 FM_weights;
#X connect 2 0 1 0;
#X connect 5 0 2 0;
#X connect 6 0 15 0;
#X connect 7 0 17 0;
#X connect 8 0 25 0;
#X connect 8 1 14 0;
#X connect 8 2 23 0;
#X connect 9 0 10 0;
#X connect 10 0 12 0;
#X connect 11 0 22 0;
#X connect 11 1 5 1;
#X connect 12 0 15 0;
#X connect 12 1 17 0;
#X connect 13 0 24 0;
#X connect 13 1 27 0;
#X connect 13 2 26 0;
#X connect 13 3 28 0;
#X connect 14 0 11 0;
#X connect 15 0 16 0;
#X connect 16 0 13 0;
#X connect 17 0 18 0;
#X connect 18 0 8 0;
#X connect 19 0 15 1;
#X connect 19 1 17 1;
#X connect 20 0 5 0;
#X connect 21 0 22 0;
#X connect 21 1 20 1;
#X connect 22 0 20 0;
#X connect 23 0 11 0;
#X connect 24 0 21 0;
#X connect 25 0 11 0;
#X connect 26 0 21 0;
#X connect 27 0 21 0;
#X connect 28 0 21 0;
