#N canvas 780 0 450 708 12;
#X obj 25 25 inlet;
#X msg 83 200 1 \$1;
#X obj 83 221 mtx_:;
#X obj 83 290 t a a;
#X obj 83 542 outlet;
#X obj 83 338 mtx_concat col;
#X obj 83 269 mtx_reverse;
#X obj 83 407 mtx_transpose;
#X msg 25 76 matrix 1 1 1;
#X obj 83 246 mtx_* 2;
#X obj 229 309 mtx_+ 1;
#X obj 83 505 t a;
#X obj 83 478 mtx_concat row;
#X obj 83 428 mtx_:;
#X msg 204 407 matrix 1 1 1;
#X obj 83 177 t f b;
#X obj 25 53 sel 0 1;
#X msg 54 108 matrix 1 3 1 2 3;
#X connect 0 0 16 0;
#X connect 1 0 2 0;
#X connect 2 0 9 0;
#X connect 3 0 5 0;
#X connect 3 1 10 0;
#X connect 5 0 7 0;
#X connect 6 0 3 0;
#X connect 7 0 13 0;
#X connect 8 0 11 0;
#X connect 9 0 6 0;
#X connect 10 0 5 1;
#X connect 11 0 4 0;
#X connect 12 0 11 0;
#X connect 13 0 12 0;
#X connect 14 0 12 1;
#X connect 15 0 1 0;
#X connect 15 1 14 0;
#X connect 16 0 8 0;
#X connect 16 1 17 0;
#X connect 16 2 15 0;
#X connect 17 0 11 0;
