#N canvas 56 360 740 581 10;
#X obj 254 402 outlet;
#X obj 254 22 inlet order;
#X obj 254 44 t b f;
#X msg 254 194 2;
#X obj 254 216 sqrt;
#X obj 315 189 sqrt;
#X msg 315 167 3;
#X obj 396 198 sqrt;
#X msg 396 176 6;
#X obj 503 207 sqrt;
#X msg 503 185 15;
#X obj 254 327 pack 2 1 -1 1 1 3 -3 3 -3 1 6 -6 15 -15 10 -10;
#X obj 315 211 / 2;
#X obj 315 233 t f f;
#X obj 346 257 * -1;
#X obj 396 220 / 4;
#X obj 396 242 t f f;
#X obj 429 264 * -1;
#X obj 503 229 / 2;
#X obj 503 251 t f f;
#X obj 535 274 * -1;
#X obj 573 207 sqrt;
#X obj 573 251 t f f;
#X obj 605 274 * -1;
#X msg 573 185 10;
#X obj 573 229 / 4;
#X obj 254 142 t b b b b b;
#X obj 292 68 + 1;
#X obj 292 90 t f f;
#X obj 292 112 *;
#X obj 254 349 mtx_diag;
#X obj 254 371 mtx_resize;
#X connect 1 0 2 0;
#X connect 2 0 26 0;
#X connect 2 1 27 0;
#X connect 3 0 4 0;
#X connect 4 0 11 0;
#X connect 5 0 12 0;
#X connect 6 0 5 0;
#X connect 7 0 15 0;
#X connect 8 0 7 0;
#X connect 9 0 18 0;
#X connect 10 0 9 0;
#X connect 11 0 30 0;
#X connect 12 0 13 0;
#X connect 13 0 11 5;
#X connect 13 0 11 7;
#X connect 13 1 14 0;
#X connect 14 0 11 6;
#X connect 14 0 11 8;
#X connect 15 0 16 0;
#X connect 16 0 11 10;
#X connect 16 1 17 0;
#X connect 17 0 11 11;
#X connect 18 0 19 0;
#X connect 19 0 11 12;
#X connect 19 1 20 0;
#X connect 20 0 11 13;
#X connect 21 0 25 0;
#X connect 22 0 11 14;
#X connect 22 1 23 0;
#X connect 23 0 11 15;
#X connect 24 0 21 0;
#X connect 25 0 22 0;
#X connect 26 0 3 0;
#X connect 26 1 6 0;
#X connect 26 2 8 0;
#X connect 26 3 10 0;
#X connect 26 4 24 0;
#X connect 27 0 28 0;
#X connect 28 0 29 0;
#X connect 28 1 29 1;
#X connect 29 0 31 1;
#X connect 30 0 31 0;
#X connect 31 0 0 0;
