#N canvas 484 131 625 463 10;
#X obj 11 11 cnv 15 58 198 empty empty SF_OUT 2 10 0 12 -225271 -66577
0;
#X obj 14 32 tgl 20 0 \$0_PLAY_gui \$0_PLAY_gui empty 0 -6 0 8 -233017
-1 -1 0 1;
#X obj 46 38 bng 15 250 50 0 \$0_sfpo_edit \$0_sfpo_edit EDIT 0 -6
0 8 -62784 -1 -1;
#X obj 55 68 vfad_scale -1;
#X obj 13 107 cnv 2 40 2 empty empty empty 20 12 0 14 -1 -66577 0;
#X obj 19 64 vsl 30 131 0 130 0 0 \$0_sfpo_vol_gui \$0_sfpo_vol_gui
+00 1 140 0 8 -233017 -1 -1 0 1;
#X obj 312 74 route float;
#X msg 312 163 label \$1;
#X obj 312 119 t f f;
#X obj 312 96 fadtodb;
#X obj 403 164 dbtofad;
#X obj 312 53 r \$0_sfpo_vol_gui;
#X obj 312 196 s \$0_sfpo_vol_gui;
#X text 132 7 play 24(26) channels soundfiles;
#X text 135 29 to outs;
#X obj 109 366 makefilename pd-%d;
#X obj 109 341 i \$0;
#X msg 109 390 \; \$1-edit vis 1;
#X obj 109 320 r \$0_sfpo_edit;
#N canvas 1369 0 547 343 \$0-edit 0;
#N canvas 1451 63 931 439 gui 0;
#X obj 236 254 popup 80 20 #ffffff ------------ DACOUTS AMBIBUS;
#X obj 416 252 popup 60 20 #ffffff OUT OUT 01 OUT 02 OUT 03 OUT 04
OUT 05 OUT 06 OUT 07 OUT 08 OUT 09 OUT 10 OUT 11 OUT 12 OUT 13 OUT 14
OUT 15 OUT 16 OUT 17 OUT 18 OUT 19 OUT 20 OUT 21 OUT 22 OUT 23 OUT 24
OUT 25 OUT 26 OUT 27 OUT 28 OUT 29 OUT 30 OUT 31 OUT 32 OUT 33 OUT 34
OUT 35 OUT 36 OUT 37 OUT 38 OUT 39 OUT 40 OUT 41 OUT 42 OUT 43 OUT 44
OUT 45 OUT 46 OUT 47 OUT 48 OUT 49 OUT 50 OUT 51 OUT 52 OUT 53 OUT 54
OUT 55 OUT 56 OUT 57 OUT 58 OUT 59 OUT 60 OUT 61 OUT 62 OUT 63 OUT 64
;
#N canvas 63 81 551 231 outrouting_26 0;
#X obj 11 47 route bang;
#X obj 11 181 outlet;
#X obj 11 12 inlet;
#X obj 26 125 t a;
#X obj 205 44 unpack 0 s;
#X obj 270 68 uglifysymbol;
#X obj 270 112 beautifysymbol;
#X msg 270 133 name \$1;
#X obj 270 90 sendreceive_nofb /EXT/SFPO/OUT/26;
#X msg 13 70 options \, size 60 20 \, name ---;
#X obj 27 104 DSPnamesGUImultiple OUT BUS_OUT;
#X connect 0 0 9 0;
#X connect 0 1 4 0;
#X connect 2 0 0 0;
#X connect 3 0 1 0;
#X connect 4 1 5 0;
#X connect 5 0 8 0;
#X connect 6 0 7 0;
#X connect 7 0 1 0;
#X connect 8 0 6 0;
#X connect 9 0 1 0;
#X connect 10 0 3 0;
#X restore 406 318 pd outrouting_26;
#X obj 20 376 r \$0_filename_fromgui;
#X obj 196 359 r GUI_NET_initialized;
#X obj 196 378 del 1000;
#X obj 20 455 symbol;
#X obj 196 398 t b b;
#X obj 20 498 s \$0_filename_togui;
#X msg 199 421 filename_not_set;
#X obj 33 417 openpanel;
#X obj 33 396 r \$0_sfpo_open;
#X obj 20 478 sendreceive /EXT/SFPO/FILENAME;
#X obj 11 11 cnv 15 498 298 empty empty SF_OUT 2 10 0 12 -225271 -66577
0;
#X obj 82 200 tgl 15 0 \$0_PLAY_gui \$0_PLAY_gui PLAY 0 -6 0 8 -258113
-1 -1 0 1;
#X obj 82 166 bng 15 250 50 0 \$0_sfpo_open \$0_sfpo_open OPEN 0 -6
0 8 -4034 -1 -1;
#X obj 55 163 vfad_scale -1;
#X obj 19 159 vsl 30 131 0 130 0 0 \$0_sfpo_vol_gui \$0_sfpo_vol_gui
+00 1 140 0 8 -233017 -1 -1 0 1;
#X symbolatom 17 129 0 0 0 2 soundfile #0_filename_togui #0_filename_fromgui
;
#X text 335 257 Channel 26;
#X text 244 214 --- play file to ---;
#X obj 361 463 symbol;
#X obj 374 425 openpanel;
#X obj 362 486 sendreceive /EXT/SFPO/MATRIXFILE;
#X obj 377 404 r \$0_matrixfile_open;
#X obj 360 374 r \$0_matrixfile_fromgui;
#X obj 362 513 s \$0_matrixfile_togui;
#X obj 21 48 bng 15 250 50 0 \$0_matrixfile_open \$0_matrixfile_open
OPEN 0 -6 0 8 -4034 -1 -1;
#X symbolatom 17 87 0 0 0 2 matrixfile #0_matrixfile_togui #0_matrixfile_fromgui
;
#X text 146 255 Channel 1-25;
#N canvas 1719 309 336 323 outrouting_1-25 0;
#X obj 11 47 route bang;
#X obj 11 242 outlet;
#X obj 11 12 inlet;
#X obj 74 92 route 0 1;
#X obj 74 147 sendreceive_nofb /EXT/SFPO/OUT;
#X msg 74 124 symbol OUT;
#X msg 158 125 symbol AMBI_BUS;
#X msg 11 70 options DACOUTS AMBIBUS \, size 80 20 \, 0;
#X obj 73 168 route symbol;
#X obj 73 191 route OUT AMBI_BUS;
#X msg 72 213 0;
#X msg 130 215 1;
#X connect 0 0 7 0;
#X connect 0 1 3 0;
#X connect 2 0 0 0;
#X connect 3 0 5 0;
#X connect 3 1 6 0;
#X connect 4 0 8 0;
#X connect 5 0 4 0;
#X connect 6 0 4 0;
#X connect 7 0 1 0;
#X connect 8 0 9 0;
#X connect 8 1 9 0;
#X connect 9 0 10 0;
#X connect 9 1 11 0;
#X connect 10 0 1 0;
#X connect 11 0 1 0;
#X restore 255 330 pd outrouting_1-25;
#X text 189 233 BUS or SPEAKER;
#X text 348 235 EXTRACHANNEL (SUB);
#X text 66 11 play 24/25/26 channels to outs or AMBIBUS;
#X text 71 45 --- INPUTMATRIX ---;
#X text 79 106 --- SOUNDFILE ---;
#X obj 222 50 bng 15 250 50 0 \$0_matrixfile_save \$0_matrixfile_save
SAVE 0 -6 0 8 -260097 -1 -1;
#X obj 538 428 savepanel;
#X obj 541 408 r \$0_matrixfile_save;
#X obj 599 462 symbol;
#X obj 600 485 sendreceive /EXT/SFPO/MATRIXFILESAVE;
#X obj 230 160 vradio 15 1 0 2 \$0_source \$0_source empty 0 -8 0 10
-262144 -1 -1 0;
#X text 249 159 soundfile;
#X text 249 176 adc~;
#N canvas 1361 433 972 490 setadc 0;
#X obj 168 167 until;
#X msg 168 146 26;
#X obj 168 191 i;
#X obj 197 191 + 1;
#X obj 168 126 t b b f;
#X msg 209 169 0;
#X obj 168 214 t f f;
#X obj 168 343 sendreceive /EXT/SFPO/ADC/0/SOURCE;
#X msg 401 321 symbol /EXT/SFPO/ADC/\$1/SOURCE;
#X obj 168 245 + 0;
#X obj 168 276 moses 65;
#X msg 168 310 \$1_ADC;
#X obj 478 56 r \$0_source;
#X obj 478 87 route float;
#X obj 478 111 select 1;
#X obj 494 140 r \$0_firstadc;
#X obj 478 160 i;
#X connect 0 0 2 0;
#X connect 1 0 0 0;
#X connect 2 0 3 0;
#X connect 2 0 6 0;
#X connect 3 0 2 1;
#X connect 4 0 1 0;
#X connect 4 1 5 0;
#X connect 4 2 9 1;
#X connect 5 0 2 1;
#X connect 6 0 9 0;
#X connect 6 1 8 0;
#X connect 8 0 7 1;
#X connect 9 0 10 0;
#X connect 10 0 11 0;
#X connect 11 0 7 0;
#X connect 12 0 13 0;
#X connect 13 0 14 0;
#X connect 14 0 16 0;
#X connect 15 0 16 1;
#X connect 16 0 4 0;
#X restore 765 420 pd setadc;
#X obj 377 173 nbx 5 14 0 128 0 0 \$0_firstadc \$0_firstadc 1st_adc
0 -8 0 10 -262144 -1 -1 0 256;
#X obj 297 25 vradio 15 1 0 4 \$0-router \$0-router empty 0 -8 0 10
-262144 -1 -1 3;
#X text 423 24 unity;
#X text 320 38 N3D->SN3D;
#X text 319 55 SN3D->N3D;
#X obj 397 26 vradio 15 1 0 3 \$0-weighter \$0-weighter empty 0 -8
0 10 -262144 -1 -1 2;
#X text 421 40 ACN->SID;
#X text 318 23 unity;
#X text 421 59 FuMa->SID;
#N canvas 0 0 450 391 sourceselect 0;
#X obj 204 56 r \$0_source;
#X obj 204 111 select 0 1;
#X obj 149 161 sendreceive /EXT/SFPO/SOURCE;
#X msg 149 135 file;
#X msg 189 135 adc;
#X obj 149 288 s \$0_source;
#X msg 149 266 set \$1;
#X obj 149 184 symbol;
#X obj 149 207 select file adc;
#X msg 146 235 0;
#X msg 183 236 1;
#X obj 204 87 route float;
#X connect 0 0 11 0;
#X connect 1 0 3 0;
#X connect 1 1 4 0;
#X connect 2 0 7 0;
#X connect 3 0 2 0;
#X connect 4 0 2 0;
#X connect 6 0 5 0;
#X connect 7 0 8 0;
#X connect 8 0 9 0;
#X connect 8 1 10 0;
#X connect 9 0 6 0;
#X connect 10 0 6 0;
#X connect 11 0 1 0;
#X restore 742 263 pd sourceselect;
#N canvas 1308 156 883 394 matrices 0;
#X obj 53 268 sendreceive /EXT/SFPO/MATRIX;
#X msg 74 93 N3DtoSN3D;
#X msg 61 63 UNITY;
#X msg 80 128 SN3DtoN3D;
#X obj 128 65 select 0 1 2 3;
#X obj 128 44 r \$0-router;
#X obj 61 224 encodingconverter;
#X msg 99 152 FM2SID;
#X obj 73 177 t a;
#X msg 251 63 UNITY;
#X msg 289 152 FM2SID;
#X obj 263 177 t a;
#X obj 318 65 select 0 1 2;
#X msg 264 93 ACN2SID;
#X obj 318 44 r \$0-weighter;
#X obj 109 247 mtx_print SFPO_matrix;
#X connect 1 0 8 0;
#X connect 2 0 8 0;
#X connect 3 0 8 0;
#X connect 4 0 2 0;
#X connect 4 1 1 0;
#X connect 4 2 3 0;
#X connect 4 3 7 0;
#X connect 5 0 4 0;
#X connect 6 0 0 0;
#X connect 7 0 8 0;
#X connect 8 0 6 0;
#X connect 9 0 11 0;
#X connect 10 0 11 0;
#X connect 11 0 6 1;
#X connect 12 0 9 0;
#X connect 12 1 13 0;
#X connect 12 2 10 0;
#X connect 13 0 11 0;
#X connect 14 0 12 0;
#X restore 616 161 pd matrices;
#X text 318 72 Fuma->SID;
#X connect 0 0 30 0;
#X connect 1 0 2 0;
#X connect 2 0 1 0;
#X connect 3 0 6 0;
#X connect 4 0 5 0;
#X connect 5 0 7 0;
#X connect 6 0 12 0;
#X connect 7 1 9 0;
#X connect 9 0 6 0;
#X connect 9 0 21 0;
#X connect 10 0 6 0;
#X connect 11 0 10 0;
#X connect 12 0 8 0;
#X connect 21 0 23 0;
#X connect 22 0 21 0;
#X connect 23 0 26 0;
#X connect 24 0 22 0;
#X connect 25 0 21 0;
#X connect 30 0 0 0;
#X connect 37 0 39 0;
#X connect 38 0 37 0;
#X connect 39 0 40 0;
#X connect 40 0 26 0;
#X coords 0 -1 1 1 500 300 1 10 10;
#X restore 12 17 pd gui;
#X restore 13 217 pd \$0-edit;
#X obj 122 55 r \$0_PLAY_gui;
#X obj 122 150 s \$0_PLAY_gui;
#X obj 14 32 iem_image PICS/play_bg.gif 0 0 empty empty;
#X obj 122 77 route float;
#X obj 122 99 t f f;
#X obj 157 177 select 0;
#X msg 157 198 PICS/play_bg.gif;
#X msg 177 218 PICS/stop_bg.gif;
#X obj 157 239 symbol;
#X msg 157 263 open \$1;
#X obj 230 149 loadbang;
#X obj 230 169 del 100;
#X obj 403 143 sendreceive /EXT/SFPO/GAIN;
#X obj 122 126 sendreceive /EXT/SFPO/PLAY;
#X obj 312 142 dbtosym;
#X connect 6 0 9 0;
#X connect 7 0 12 0;
#X connect 8 0 34 0;
#X connect 8 1 32 0;
#X connect 9 0 8 0;
#X connect 10 0 12 0;
#X connect 11 0 6 0;
#X connect 15 0 17 0;
#X connect 16 0 15 0;
#X connect 18 0 16 0;
#X connect 20 0 23 0;
#X connect 23 0 24 0;
#X connect 23 1 33 0;
#X connect 24 0 33 0;
#X connect 24 1 25 0;
#X connect 25 0 26 0;
#X connect 25 1 27 0;
#X connect 26 0 28 0;
#X connect 27 0 28 0;
#X connect 28 0 29 0;
#X connect 29 0 22 0;
#X connect 30 0 31 0;
#X connect 31 0 26 0;
#X connect 32 0 10 0;
#X connect 33 0 21 0;
#X connect 34 0 7 0;
#X coords 0 -1 1 1 60 200 1 10 10;
