#N canvas 1434 131 376 583 10;
#X text 109 18 open_close_EDIT;
#X obj 11 11 cnv 15 58 198 empty empty SF_OUT 2 10 0 12 -225271 -66577
0;
#X obj 19 38 tgl 15 0 \$0_PLAY_fromgui \$0_PLAY_togui PLAY 0 -6 0 8
-233017 -1 -1 0 1;
#X obj 45 38 bng 15 250 50 0 \$0_open \$0_open OPEN 0 -6 0 8 -24198
-1 -1;
#X text 133 294 should load send PBANK File;
#X obj 55 65 vfad_scale -1;
#X obj 13 104 cnv 2 40 2 empty empty empty 20 12 0 14 -1 -66577 0;
#X obj 19 61 vsl 30 131 0 130 0 0 \$0_sfpo_vol_gui \$0_sfpo_vol_gui
+00 1 140 0 8 -233017 -1 -1 8700 1;
#X obj 48 237 route float;
#X obj 128 444 - 100;
#X msg 49 505 label \$1;
#X msg 49 483 symbol -inf;
#X obj 48 344 max 0;
#X obj 48 365 select 0 100;
#X obj 88 423 makefilename %03d;
#X msg 88 402 0;
#X obj 128 463 makefilename %+03d;
#X obj 48 304 t f f;
#X obj 48 281 fadtodb;
#X obj 139 386 dbtofad;
#X obj 150 157 sendreceive SFPO_PLAY;
#X obj 48 216 r \$0_sfpo_vol_gui;
#X obj 49 528 s \$0_sfpo_vol_gui;
#X obj 139 365 sendreceive EXT_SFPO_VOL;
#X obj 138 80 openpanel;
#X obj 138 57 r \$0_open;
#X obj 138 106 send_regname SFPO_OPEN;
#X obj 150 136 r \$0_PLAY_fromgui;
#X obj 148 181 s \$0_PLAY_togui;
#X connect 8 0 18 0;
#X connect 9 0 16 0;
#X connect 10 0 22 0;
#X connect 11 0 10 0;
#X connect 12 0 13 0;
#X connect 13 0 11 0;
#X connect 13 1 15 0;
#X connect 13 2 9 0;
#X connect 14 0 10 0;
#X connect 15 0 14 0;
#X connect 16 0 10 0;
#X connect 17 0 12 0;
#X connect 17 1 23 0;
#X connect 18 0 17 0;
#X connect 19 0 22 0;
#X connect 20 0 28 0;
#X connect 21 0 8 0;
#X connect 23 0 19 0;
#X connect 24 0 26 0;
#X connect 25 0 24 0;
#X connect 27 0 20 0;
#X coords 0 -1 1 1 60 200 1 10 10;
