#N canvas 484 131 540 410 10;
#X obj 11 11 cnv 15 58 198 empty empty SF_OUT 2 10 0 12 -225271 -66577
0;
#X obj 14 38 tgl 15 0 \$0_PLAY_gui \$0_PLAY_gui PLAY 0 -6 0 8 -233017
-1 -1 0 1;
#X obj 46 38 bng 15 250 50 0 \$0_sfpo_edit \$0_sfpo_edit EDIT 0 -6
0 8 -62784 -1 -1;
#X obj 55 65 vfad_scale -1;
#X obj 13 104 cnv 2 40 2 empty empty empty 20 12 0 14 -1 -66577 0;
#X obj 19 61 vsl 30 131 0 130 0 0 \$0_sfpo_vol_gui \$0_sfpo_vol_gui
-inf 1 140 0 8 -233017 -1 -1 0 1;
#X obj 312 74 route float;
#X obj 392 242 - 100;
#X msg 313 303 label \$1;
#X msg 313 281 symbol -inf;
#X obj 312 142 max 0;
#X obj 312 163 select 0 100;
#X obj 352 221 makefilename %03d;
#X msg 352 200 0;
#X obj 392 261 makefilename %+03d;
#X obj 312 119 t f f;
#X obj 312 96 fadtodb;
#X obj 403 184 dbtofad;
#X obj 312 53 r \$0_sfpo_vol_gui;
#X obj 313 326 s \$0_sfpo_vol_gui;
#X obj 403 163 sendreceive EXT_SFPO_VOL;
#X text 132 7 play 24(26) channels soundfiles;
#X text 135 29 to outs;
#X obj 111 316 makefilename pd-%d;
#X obj 111 291 i \$0;
#X msg 109 340 \; \$1-edit vis 1;
#X obj 109 270 r \$0_sfpo_edit;
#N canvas 193 190 312 210 6991-edit 0;
#N canvas 363 329 661 439 gui 0;
#X obj 225 93 popup 80 20 #ffffff ------------ DACOUTS AMBIBUS;
#N canvas 1719 309 336 323 outrouting_1-24 0;
#X obj 11 47 route bang;
#X obj 11 242 outlet;
#X obj 11 12 inlet;
#X obj 74 92 route 0 1;
#X obj 74 147 sendreceive_nofb EXT_SFPO_OUT;
#X msg 74 124 symbol OUT;
#X msg 158 125 symbol AMBI_BUS;
#X msg 11 70 options DACOUTS AMBIBUS \, size 80 20 \, 0;
#X obj 73 168 route symbol;
#X obj 73 191 route OUT AMBI_BUS;
#X msg 72 213 0;
#X msg 130 215 1;
#X connect 0 0 7 0;
#X connect 0 1 3 0;
#X connect 2 0 0 0;
#X connect 3 0 5 0;
#X connect 3 1 6 0;
#X connect 4 0 8 0;
#X connect 5 0 4 0;
#X connect 6 0 4 0;
#X connect 7 0 1 0;
#X connect 8 0 9 0;
#X connect 8 1 9 0;
#X connect 9 0 10 0;
#X connect 9 1 11 0;
#X connect 10 0 1 0;
#X connect 11 0 1 0;
#X restore 321 84 pd outrouting_1-24;
#X obj 226 175 popup 60 20 #ffffff BUS BUS 01 BUS 02 BUS 03 BUS 04
BUS 05 BUS 06 BUS 07 BUS 08 BUS 09 BUS 10 BUS 11 BUS 12 BUS 13 BUS 14
BUS 15 BUS 16 BUS LF OUT 01 OUT 02 OUT 03 OUT 04 OUT 05 OUT 06 OUT 07
OUT 08 OUT 09 OUT 10 OUT 11 OUT 12 OUT 13 OUT 14 OUT 15 OUT 16 OUT 17
OUT 18 OUT 19 OUT 20 OUT 21 OUT 22 OUT 23 OUT 24 OUT 25 OUT 26 OUT 27
OUT 28 OUT 29 OUT 30 OUT 31 OUT 32 OUT 33 OUT 34 OUT 35 OUT 36 OUT 37
OUT 38 OUT 39 OUT 40 OUT 41 OUT 42 OUT 43 OUT 44 OUT 45 OUT 46 OUT 47
OUT 48 OUT 49 OUT 50 OUT 51 OUT 52 OUT 53 OUT 54 OUT 55 OUT 56 OUT 57
OUT 58 OUT 59 OUT 60 OUT 61 OUT 62 OUT 63 OUT 64;
#N canvas 63 81 551 231 outrouting_26 0;
#X obj 11 47 route bang;
#X obj 11 181 outlet;
#X obj 11 12 inlet;
#X obj 26 125 t a;
#X obj 205 44 unpack 0 s;
#X obj 270 68 uglifysymbol;
#X obj 270 112 beautifysymbol;
#X msg 270 133 name \$1;
#X obj 270 90 sendreceive_nofb EXT_SFPO_OUT_26;
#X msg 13 70 options \, size 60 20 \, name ---;
#X obj 27 104 DSPnamesGUImultiple OUT BUS_OUT;
#X connect 0 0 9 0;
#X connect 0 1 4 0;
#X connect 2 0 0 0;
#X connect 3 0 1 0;
#X connect 4 1 5 0;
#X connect 5 0 8 0;
#X connect 6 0 7 0;
#X connect 7 0 1 0;
#X connect 8 0 6 0;
#X connect 9 0 1 0;
#X connect 10 0 3 0;
#X restore 316 176 pd outrouting_26;
#X obj 86 241 r \$0_filename_fromgui;
#X obj 253 235 r GUI_NET_initialized;
#X obj 252 254 del 1000;
#X obj 86 330 symbol;
#X obj 253 274 t b b;
#X obj 87 379 s \$0_filename_togui;
#X msg 255 297 filename_not_set;
#X obj 413 269 openpanel;
#X obj 417 236 r \$0_sfpo_open;
#X obj 86 353 sendreceive EXT_SFPO_FILENAME;
#X obj 226 135 popup 60 20 #ffffff OUT BUS 01 BUS 02 BUS 03 BUS 04
BUS 05 BUS 06 BUS 07 BUS 08 BUS 09 BUS 10 BUS 11 BUS 12 BUS 13 BUS 14
BUS 15 BUS 16 BUS LF OUT 01 OUT 02 OUT 03 OUT 04 OUT 05 OUT 06 OUT 07
OUT 08 OUT 09 OUT 10 OUT 11 OUT 12 OUT 13 OUT 14 OUT 15 OUT 16 OUT 17
OUT 18 OUT 19 OUT 20 OUT 21 OUT 22 OUT 23 OUT 24 OUT 25 OUT 26 OUT 27
OUT 28 OUT 29 OUT 30 OUT 31 OUT 32 OUT 33 OUT 34 OUT 35 OUT 36 OUT 37
OUT 38 OUT 39 OUT 40 OUT 41 OUT 42 OUT 43 OUT 44 OUT 45 OUT 46 OUT 47
OUT 48 OUT 49 OUT 50 OUT 51 OUT 52 OUT 53 OUT 54 OUT 55 OUT 56 OUT 57
OUT 58 OUT 59 OUT 60 OUT 61 OUT 62 OUT 63 OUT 64;
#N canvas 1437 411 551 231 outrouting_25 0;
#X obj 11 47 route bang;
#X obj 11 181 outlet;
#X obj 11 12 inlet;
#X obj 31 123 t a;
#X obj 92 44 unpack 0 s;
#X obj 129 137 uglifysymbol;
#X obj 129 181 beautifysymbol;
#X msg 129 202 name \$1;
#X obj 129 159 sendreceive_nofb EXT_SFPO_OUT_25;
#X msg 10 74 options \, size 60 20 \, name ---;
#X obj 31 102 DSPnamesGUImultiple OUT BUS_OUT;
#X connect 0 0 9 0;
#X connect 0 1 4 0;
#X connect 2 0 0 0;
#X connect 3 0 1 0;
#X connect 4 1 5 0;
#X connect 5 0 8 0;
#X connect 6 0 7 0;
#X connect 7 0 1 0;
#X connect 8 0 6 0;
#X connect 9 0 1 0;
#X connect 10 0 3 0;
#X restore 316 136 pd outrouting_25;
#X obj 11 11 cnv 15 298 198 empty empty SF_OUT 2 10 0 12 -225271 -66577
0;
#X obj 86 76 tgl 15 0 \$0_PLAY_gui \$0_PLAY_gui PLAY 0 -6 0 8 -233017
-1 -1 0 1;
#X obj 88 23 bng 15 250 50 0 \$0_sfpo_open \$0_sfpo_open OPEN 0 -6
0 8 -24198 -1 -1;
#X obj 55 69 vfad_scale -1;
#X obj 19 65 vsl 30 131 0 130 0 0 \$0_sfpo_vol_gui \$0_sfpo_vol_gui
-inf 1 140 0 8 -233017 -1 -1 0 1;
#X symbolatom 14 41 0 0 0 2 soundfile #0_filename_togui #0_filename_fromgui
;
#X text 135 94 Channel 1-24;
#X text 146 139 Channel 25;
#X text 145 180 Channel 26;
#X text 121 21 play 24/25/26 channels;
#X text 146 62 --- play file to ---;
#X connect 0 0 1 0;
#X connect 1 0 0 0;
#X connect 2 0 3 0;
#X connect 3 0 2 0;
#X connect 4 0 7 0;
#X connect 5 0 6 0;
#X connect 6 0 8 0;
#X connect 7 0 13 0;
#X connect 8 1 10 0;
#X connect 10 0 7 0;
#X connect 11 0 7 0;
#X connect 12 0 11 0;
#X connect 13 0 9 0;
#X connect 14 0 15 0;
#X connect 15 0 14 0;
#X coords 0 -1 1 1 300 200 1 10 10;
#X restore 4 3 pd gui;
#X restore 13 217 pd \$0-edit;
#X obj 122 126 sendreceive EXT_SFPO_PLAY;
#X obj 122 85 r \$0_PLAY_gui;
#X obj 124 160 s \$0_PLAY_gui;
#X connect 6 0 16 0;
#X connect 7 0 14 0;
#X connect 8 0 19 0;
#X connect 9 0 8 0;
#X connect 10 0 11 0;
#X connect 11 0 9 0;
#X connect 11 1 13 0;
#X connect 11 2 7 0;
#X connect 12 0 8 0;
#X connect 13 0 12 0;
#X connect 14 0 8 0;
#X connect 15 0 10 0;
#X connect 15 1 20 0;
#X connect 16 0 15 0;
#X connect 17 0 19 0;
#X connect 18 0 6 0;
#X connect 20 0 17 0;
#X connect 23 0 25 0;
#X connect 24 0 23 0;
#X connect 26 0 24 0;
#X connect 28 0 30 0;
#X connect 29 0 28 0;
#X coords 0 -1 1 1 60 200 1 10 10;
