#N canvas 0 0 450 300 10;
#X obj 70 31 inlet;
#X obj 146 161 i 0;
#X obj 173 160 + 1;
#X obj 141 294 mtx;
#X obj 146 101 t f f;
#X obj 146 122 t f b;
#X obj 146 141 until;
#X obj 146 224 mtx;
#X msg 188 122 1;
#X msg 146 202 element 1 \$1;
#X obj 146 181 t f f;
#X obj 146 244 pack;
#X obj 241 202 mtx_zeros;
#X msg 240 182 \$1 \$1;
#X obj 71 52 t b a a;
#X obj 94 80 mtx_size;
#X msg 146 265 element \$2 \$1 1;
#X obj 142 317 outlet;
#X connect 0 0 14 0;
#X connect 1 0 2 0;
#X connect 1 0 10 0;
#X connect 2 0 1 1;
#X connect 3 0 17 0;
#X connect 4 0 5 0;
#X connect 4 1 13 0;
#X connect 5 0 6 0;
#X connect 5 1 8 0;
#X connect 6 0 1 0;
#X connect 7 0 11 0;
#X connect 8 0 1 1;
#X connect 9 0 7 0;
#X connect 10 0 9 0;
#X connect 10 1 11 1;
#X connect 11 0 16 0;
#X connect 12 0 3 1;
#X connect 13 0 12 0;
#X connect 14 0 3 0;
#X connect 14 1 15 0;
#X connect 14 2 7 1;
#X connect 15 1 4 0;
#X connect 16 0 3 0;
