#N canvas 540 281 740 581 10;
#X obj 254 22 inlet;
#X obj 277 93 t f b;
#X msg 320 115 0;
#X obj 277 112 until;
#X obj 301 134 f;
#X obj 330 134 + 1;
#X obj 277 72 + 1;
#X obj 321 309 list;
#X obj 254 44 t b f b;
#X obj 323 267 until;
#X obj 322 288 f;
#X obj 323 243 t f b;
#X obj 357 309 t l;
#X obj 420 222 sqrt;
#X obj 301 153 * 2;
#X obj 301 173 + 1;
#X obj 293 415 list;
#X obj 300 195 t b f f;
#X obj 383 436 t l;
#X obj 293 436 list prepend;
#X obj 257 461 list;
#X obj 257 512 outlet;
#X obj 423 268 /;
#X msg 423 245 1 \$1;
#X obj 257 483 mtx_diag;
#X connect 0 0 8 0;
#X connect 1 0 3 0;
#X connect 1 1 2 0;
#X connect 2 0 4 1;
#X connect 3 0 4 0;
#X connect 4 0 5 0;
#X connect 4 0 14 0;
#X connect 5 0 4 1;
#X connect 6 0 1 0;
#X connect 7 0 12 0;
#X connect 7 0 16 1;
#X connect 8 0 20 0;
#X connect 8 1 6 0;
#X connect 8 2 19 1;
#X connect 9 0 10 0;
#X connect 10 0 7 0;
#X connect 11 0 9 0;
#X connect 11 1 7 1;
#X connect 12 0 7 1;
#X connect 13 0 23 0;
#X connect 14 0 15 0;
#X connect 15 0 17 0;
#X connect 16 0 19 0;
#X connect 17 0 16 0;
#X connect 17 1 11 0;
#X connect 17 2 13 0;
#X connect 18 0 19 1;
#X connect 19 0 18 0;
#X connect 19 0 20 1;
#X connect 20 0 24 0;
#X connect 22 0 10 1;
#X connect 23 0 22 0;
#X connect 24 0 21 0;
