#N canvas 0 0 1245 404 10;
#X obj 501 23 inlet ctl;
#X obj 11 291 outlet~;
#X obj 29 103 tgl 15 0 empty empty empty 0 -6 0 8 -262144 -1 -1 1 1
;
#X obj 29 123 switch~;
#X obj 29 82 != 0;
#X obj 10 261 sfpo_adc~ 1;
#X obj 101 291 outlet~;
#X obj 191 291 outlet~;
#X obj 281 291 outlet~;
#X obj 371 291 outlet~;
#X obj 461 291 outlet~;
#X obj 551 291 outlet~;
#X obj 641 291 outlet~;
#X obj 741 291 outlet~;
#X obj 831 291 outlet~;
#X obj 921 291 outlet~;
#X obj 1011 291 outlet~;
#X obj 1101 291 outlet~;
#X obj 1191 291 outlet~;
#X obj 1281 291 outlet~;
#X obj 1371 291 outlet~;
#X obj 1471 291 outlet~;
#X obj 1561 291 outlet~;
#X obj 1651 291 outlet~;
#X obj 1741 291 outlet~;
#X obj 1831 291 outlet~;
#X obj 1921 291 outlet~;
#X obj 2011 291 outlet~;
#X obj 2101 291 outlet~;
#X obj 2191 291 outlet~;
#X obj 2281 291 outlet~;
#X obj 33 59 t f;
#X obj 100 261 sfpo_adc~ 2;
#X obj 190 261 sfpo_adc~ 3;
#X obj 280 261 sfpo_adc~ 4;
#X obj 370 261 sfpo_adc~ 5;
#X obj 460 261 sfpo_adc~ 6;
#X obj 550 261 sfpo_adc~ 7;
#X obj 640 261 sfpo_adc~ 8;
#X obj 740 261 sfpo_adc~ 9;
#X obj 830 261 sfpo_adc~ 10;
#X obj 920 261 sfpo_adc~ 11;
#X obj 1010 261 sfpo_adc~ 12;
#X obj 1100 261 sfpo_adc~ 13;
#X obj 1190 261 sfpo_adc~ 14;
#X obj 1280 261 sfpo_adc~ 15;
#X obj 1370 261 sfpo_adc~ 16;
#X obj 1470 261 sfpo_adc~ 17;
#X obj 1560 261 sfpo_adc~ 18;
#X obj 1650 261 sfpo_adc~ 19;
#X obj 1740 261 sfpo_adc~ 20;
#X obj 1830 261 sfpo_adc~ 21;
#X obj 1920 261 sfpo_adc~ 22;
#X obj 2010 261 sfpo_adc~ 23;
#X obj 2100 261 sfpo_adc~ 24;
#X obj 2190 261 sfpo_adc~ 25;
#X obj 2280 261 sfpo_adc~ 26;
#X connect 0 0 31 0;
#X connect 2 0 3 0;
#X connect 4 0 2 0;
#X connect 5 0 1 0;
#X connect 31 0 4 0;
#X connect 32 0 6 0;
#X connect 33 0 7 0;
#X connect 34 0 8 0;
#X connect 35 0 9 0;
#X connect 36 0 10 0;
#X connect 37 0 11 0;
#X connect 38 0 12 0;
#X connect 39 0 13 0;
#X connect 40 0 14 0;
#X connect 41 0 15 0;
#X connect 42 0 16 0;
#X connect 43 0 17 0;
#X connect 44 0 18 0;
#X connect 45 0 19 0;
#X connect 46 0 20 0;
#X connect 47 0 21 0;
#X connect 48 0 22 0;
#X connect 49 0 23 0;
#X connect 50 0 24 0;
#X connect 51 0 25 0;
#X connect 52 0 26 0;
#X connect 53 0 27 0;
#X connect 54 0 28 0;
#X connect 55 0 29 0;
#X connect 56 0 30 0;
