#N canvas 732 69 450 525 12;
#X obj 25 25 inlet;
#X obj 25 91 mtx_:;
#X msg 25 70 1 \$1;
#X obj 25 47 t f f;
#X obj 25 137 t a b a;
#X obj 25 333 outlet;
#X obj 230 78 sel 0;
#X msg 230 100 matrix 1 1 1;
#X obj 25 280 mtx_concat row;
#X msg 148 230 matrix 1 1 \$1;
#X obj 148 206 f;
#X obj 172 158 * 2;
#X obj 172 181 + 1;
#X obj 148 254 mtx_concat row;
#X obj 287 198 mtx_reverse;
#X obj 25 114 mtx_* 2;
#X obj 287 220 mtx_- 1;
#X connect 0 0 3 0;
#X connect 1 0 15 0;
#X connect 2 0 1 0;
#X connect 3 0 2 0;
#X connect 3 1 6 0;
#X connect 3 1 11 0;
#X connect 4 0 8 0;
#X connect 4 1 10 0;
#X connect 4 2 14 0;
#X connect 6 0 7 0;
#X connect 7 0 5 0;
#X connect 8 0 5 0;
#X connect 9 0 13 0;
#X connect 10 0 9 0;
#X connect 11 0 12 0;
#X connect 12 0 10 1;
#X connect 13 0 8 1;
#X connect 14 0 16 0;
#X connect 15 0 4 0;
#X connect 16 0 13 1;
