#N canvas 540 281 740 581 10;
#X obj 311 44 + 1;
#X obj 386 44 *;
#X msg 340 44 \$1 \$1;
#X obj 386 83 mtx_zeros;
#X obj 410 321 f;
#X msg 428 280 0;
#X obj 409 301 t b f;
#X obj 478 301 + 1;
#X obj 439 321 +;
#X obj 450 301 * 2;
#X obj 189 490 outlet;
#X obj 254 22 inlet;
#X obj 254 44 t b f f;
#X obj 189 469 mtx;
#X msg 386 63 1 \$1;
#X obj 277 428 mtx_fill;
#X obj 277 133 t f b;
#X msg 296 179 0;
#X obj 277 152 until;
#X obj 277 198 f;
#X obj 306 198 + 1;
#X obj 277 364 mtx_+ 0;
#X obj 277 112 + 1;
#X obj 330 387 + 1;
#X msg 330 407 matrix 1 \$1;
#X obj 277 301 SID2ACN_2D_idx;
#X obj 277 227 t f f f;
#X connect 0 0 2 0;
#X connect 1 0 14 0;
#X connect 2 0 1 0;
#X connect 3 0 15 1;
#X connect 4 0 8 0;
#X connect 4 0 21 1;
#X connect 4 0 23 0;
#X connect 5 0 4 1;
#X connect 6 0 4 0;
#X connect 6 1 9 0;
#X connect 7 0 8 1;
#X connect 8 0 4 1;
#X connect 9 0 7 0;
#X connect 11 0 12 0;
#X connect 12 0 13 0;
#X connect 12 1 22 0;
#X connect 12 2 0 0;
#X connect 13 0 10 0;
#X connect 14 0 3 0;
#X connect 15 0 13 1;
#X connect 16 0 18 0;
#X connect 16 1 17 0;
#X connect 16 1 5 0;
#X connect 17 0 19 1;
#X connect 18 0 19 0;
#X connect 19 0 20 0;
#X connect 19 0 26 0;
#X connect 20 0 19 1;
#X connect 21 0 15 0;
#X connect 22 0 16 0;
#X connect 23 0 24 0;
#X connect 24 0 15 2;
#X connect 25 0 21 0;
#X connect 26 0 25 0;
#X connect 26 1 6 0;
