#N canvas 0 0 937 622 10;
#X obj 227 135 r~ 1_AUX_SUM;
#X obj 226 168 s~ 1_AUX_RET;
#X obj 164 77 r~ 0_AUX_SUM;
#X obj 163 110 s~ 0_AUX_RET;
#X obj 310 134 r~ 2_AUX_SUM;
#X obj 309 167 s~ 2_AUX_RET;
#X obj 393 135 r~ 3_AUX_SUM;
#X obj 392 168 s~ 3_AUX_RET;
#X obj 476 135 r~ 4_AUX_SUM;
#X obj 475 169 s~ 4_AUX_RET;
#X obj 229 251 r~ 5_AUX_SUM;
#X obj 228 284 s~ 5_AUX_RET;
#X obj 312 250 r~ 6_AUX_SUM;
#X obj 311 283 s~ 6_AUX_RET;
#X obj 395 251 r~ 7_AUX_SUM;
#X obj 394 285 s~ 7_AUX_RET;
#X obj 481 251 r~ 8_AUX_SUM;
#X obj 480 284 s~ 8_AUX_RET;
#X obj 36 65 inlet~;
#X obj 40 419 outlet~;
#X obj 656 119 bng 15 250 50 0 empty empty empty 0 -6 0 8 -262144 -1
-1;
#X obj 656 99 r DSP_get_in_sel;
#X obj 656 229 s DSP_in_sel_src;
#X obj 656 158 del 1;
#X text 207 450 2.arg: <float> n_aux_return;
#X text 207 441 1.arg: <float> n_aux_send;
#X obj 656 181 for++ 1 \$2;
#X msg 656 204 symbol \$1_AUX;
#X connect 20 0 23 0;
#X connect 21 0 20 0;
#X connect 23 0 26 0;
#X connect 26 0 27 0;
#X connect 27 0 22 0;
