#N canvas 501 149 677 637 10;
#X text 289 194 1.arg: <float> n_in;
#X obj 49 49 inlet~;
#X obj 51 414 outlet~;
#X obj 50 80 IN-CH~ 1 \$1 \$2 \$3 \$4 \$5;
#X obj 50 100 IN-CH~ 2 \$1 \$2 \$3 \$4 \$5;
#X obj 50 120 IN-CH~ 3 \$1 \$2 \$3 \$4 \$5;
#X obj 50 140 IN-CH~ 4 \$1 \$2 \$3 \$4 \$5;
#X obj 50 160 IN-CH~ 5 \$1 \$2 \$3 \$4 \$5;
#X obj 49 180 IN-CH~ 6 \$1 \$2 \$3 \$4 \$5;
#X obj 50 200 IN-CH~ 7 \$1 \$2 \$3 \$4 \$5;
#X obj 50 220 IN-CH~ 8 \$1 \$2 \$3 \$4 \$5;
#X obj 50 240 IN-CH~ 9 \$1 \$2 \$3 \$4 \$5;
#X obj 50 260 IN-CH~ 10 \$1 \$2 \$3 \$4 \$5;
#X obj 50 280 IN-CH~ 11 \$1 \$2 \$3 \$4 \$5;
#X obj 50 301 IN-CH~ 12 \$1 \$2 \$3 \$4 \$5;
#X obj 50 320 IN-CH~ 13 \$1 \$2 \$3 \$4 \$5;
#X obj 50 340 IN-CH~ 14 \$1 \$2 \$3 \$4 \$5;
#X obj 50 360 IN-CH~ 15 \$1 \$2 \$3 \$4 \$5;
#X obj 51 380 IN-CH~ 16 \$1 \$2 \$3 \$4 \$5;
#X obj 234 124 receive_parameter /IN/SOLO;
#X text 286 206 2.arg: <float> n_aux_send;
#X text 286 219 3.arg: <float> n_bus;
#X text 287 232 4.arg: <float> n_fxplugin_depth;
#X text 290 245 5.arg: <float> n_ambisonic_order;
