#N canvas 0 0 470 320 10;
#X obj 43 57 inlet~;
#X obj 76 305 outlet~;
#X obj 43 207 mull~ 1 50;
#N canvas 0 0 1012 691 COMPANDER 0;
#X obj 31 78 inlet~;
#N canvas 0 0 450 300 graph14 0;
#X array \$0_compand 130 float 1;
#A 0 0 0 1 2 3 4 5 6 7 8 9 10 11 12 13 14 15 16 17 18 19 20 21 22 23
24 25 26 27 28 29 30 31 32 33 34 35 36 37 38 39 40 41 42 43 44 45 46
47 48 49 50 51 52 53 54 55 56 57 58 59 60 61 62 63 64 65 66 67 68 69
70 71 72 73 74 75 76 77 78 79 80 81 82 83 84 85 86 87 88 88.5 89 89.5
90 90.5 91 91.5 92 92.5 93 93.5 94 94 94 94 94 94 94 94 94 94 94 94
94 94 94 94 94 94 94 94 94 94 94 94 94 94 94 94 94;
#X coords 0 127 129 0 200 200 1;
#X restore 520 255 graph;
#N canvas 0 0 890 651 draw 0;
#X obj 196 17 inlet;
#X obj 228 93 repack 2;
#X obj 228 248 repack 2;
#X obj 239 157 length;
#X obj 228 116 unpack 0 0;
#X obj 228 226 pack 0 0;
#X obj 190 305 transf_fader;
#X obj 228 271 pp pairs;
#X obj 196 67 t b b l l;
#X obj 100 229 for++ 0 127 0.1;
#X obj 148 351 f;
#X obj 176 350 f;
#X msg 176 202 0;
#X msg 177 419 \$1 0;
#X msg 135 204 127;
#X msg 132 415 \$1 128;
#X msg 79 417 \$1 129;
#X obj 138 156 t b b b b b;
#X obj 100 255 t b f f;
#X obj 114 351 f;
#X obj 222 379 + 1;
#X obj 131 451 tabwrite \$0_compand;
#X connect 0 0 8 0;
#X connect 1 0 4 0;
#X connect 2 0 7 0;
#X connect 3 0 2 1;
#X connect 4 0 5 0;
#X connect 4 1 5 1;
#X connect 5 0 2 0;
#X connect 6 0 10 1;
#X connect 6 0 11 1;
#X connect 6 0 19 1;
#X connect 7 0 6 0;
#X connect 8 1 17 0;
#X connect 8 2 1 0;
#X connect 8 3 3 0;
#X connect 9 0 18 0;
#X connect 10 0 15 0;
#X connect 10 0 16 0;
#X connect 11 0 13 0;
#X connect 12 0 6 0;
#X connect 13 0 21 0;
#X connect 14 0 6 0;
#X connect 15 0 21 0;
#X connect 16 0 21 0;
#X connect 17 0 9 0;
#X connect 17 1 10 0;
#X connect 17 2 14 0;
#X connect 17 3 11 0;
#X connect 17 4 12 0;
#X connect 18 0 19 0;
#X connect 18 1 6 0;
#X connect 18 2 20 0;
#X connect 19 0 21 0;
#X connect 20 0 21 1;
#X restore 777 302 pd draw;
#X obj 32 643 outlet~;
#N canvas 0 0 536 486 compander~ 0;
#X obj 150 53 inlet~;
#X text 159 34 env;
#X obj 137 175 -~;
#X obj 151 82 rmstodb~;
#X obj 137 220 dbtorms~;
#X obj 137 198 +~ 100;
#X obj 228 317 *~;
#X obj 229 343 outlet~;
#X obj 118 120 +~ 1;
#X obj 118 143 tabread4~ \$0_compand;
#X obj 321 86 delread~ \$0_helpdel 5;
#X obj 321 63 inlet;
#X text 322 41 delay;
#X connect 0 0 3 0;
#X connect 2 0 5 0;
#X connect 3 0 2 1;
#X connect 3 0 8 0;
#X connect 4 0 6 0;
#X connect 5 0 4 0;
#X connect 6 0 7 0;
#X connect 8 0 9 0;
#X connect 9 0 2 0;
#X connect 10 0 6 1;
#X connect 11 0 10 0;
#X restore 32 428 pd compander~;
#X obj 59 524 dbtorms;
#X obj 31 205 clip~ -100 100;
#X obj 59 256 peakenv~ 100;
#X obj 208 310 mull~ 0 50;
#X obj 60 305 mull~ 1 50;
#X obj 91 345 +~;
#X obj 473 90 clip 0 1;
#X msg 458 173 1 \$1;
#X obj 458 197 -;
#X obj 110 53 clip 0 1000;
#N canvas 0 0 470 320 delwrite 0;
#X obj 29 58 delwrite~ \$0_helpdel 1000;
#X obj 19 27 inlet~;
#X obj 19 195 outlet~;
#X obj 273 26 inlet~;
#X connect 1 0 0 0;
#X connect 3 0 2 0;
#X restore 31 370 pd delwrite;
#X obj 209 286 peakenv~ 100;
#X text 69 235 peak_envelope;
#X obj 209 239 abs~;
#X text 241 241 rectified mean value envelope;
#X obj 210 263 lp1_t~ 10 300;
#X obj 59 278 lp1_t~ 10 300;
#X obj 110 28 r \$1_IN_COMPANDER_ATT_TIME_to_DSP;
#X obj 217 143 r \$1_IN_COMPANDER_REL_TIME_to_DSP;
#X obj 193 342 r \$1_IN_COMPANDER_DEL_TIME_to_DSP;
#X obj 122 450 r \$1_IN_COMPANDER_OUT_GAIN_to_DSP;
#X obj 459 496 r \$1_IN_COMPANDER_ON1_OFF0_to_DSP;
#X obj 738 77 r \$1_IN_COMPANDER_CHARACTERISTIC_to_DSP;
#X obj 471 62 r \$1_IN_COMPANDER_PEAK_RATIO_to_DSP;
#X obj 431 134 s \$1_IN_COMPANDER_PEAK_RATIO_from_DSP;
#X obj 746 480 s \$1_IN_COMPANDER_CHARACTERISTIC_from_DSP;
#X obj 101 495 s \$1_IN_COMPANDER_OUT_GAIN_from_DSP;
#X obj 199 413 s \$1_IN_COMPANDER_DEL_TIME_from_DSP;
#X obj 191 213 s \$1_IN_COMPANDER_REL_TIME_from_DSP;
#X obj 96 97 s \$1_IN_COMPANDER_ATT_TIME_from_DSP;
#X obj 79 75 f 10;
#X obj 87 546 r DSP_MIX_INTERPOL_TIME;
#X obj 193 364 clip 0 1000;
#X obj 190 391 f 1000;
#X obj 175 192 f 100;
#X obj 222 166 clip 0 50000;
#X obj 431 113 f 1;
#X obj 336 16 r DSP_get_parameters;
#X obj 483 652 switch~;
#X obj 483 521 sel 0 1;
#X msg 483 621 0;
#X msg 529 619 1;
#X obj 515 565 r DSP_MIX_INTERPOL_TIME;
#X obj 483 586 del 50;
#X obj 774 102 unsymbol;
#X msg 777 235 0 0 88 88 94 91 100 94 127 94;
#X obj 777 175 route LIMITER COMP_1_4;
#X msg 786 150 LIMITER;
#X obj 788 129 loadbang;
#X msg 728 383 set LIMITER;
#X msg 821 382 set COMP_1_4;
#X msg 746 457 LIMITER;
#X msg 798 267 0 0 88 88 94 91 100 94 127 94;
#X obj 32 617 mull~ 0 50;
#X obj 96 472 f 0;
#X obj 59 595 * 0;
#X obj 394 520 t b f;
#X obj 323 38 t b b b b b b;
#X connect 0 0 6 0;
#X connect 4 0 58 0;
#X connect 5 0 60 0;
#X connect 6 0 7 0;
#X connect 6 0 15 0;
#X connect 6 0 18 0;
#X connect 7 0 21 0;
#X connect 8 0 10 1;
#X connect 9 0 10 0;
#X connect 10 0 15 1;
#X connect 11 0 12 0;
#X connect 11 0 41 1;
#X connect 11 0 9 1;
#X connect 12 0 13 0;
#X connect 13 0 8 1;
#X connect 14 0 20 1;
#X connect 14 0 21 1;
#X connect 14 0 35 1;
#X connect 15 0 4 0;
#X connect 16 0 8 0;
#X connect 18 0 20 0;
#X connect 20 0 16 0;
#X connect 21 0 9 0;
#X connect 22 0 14 0;
#X connect 23 0 40 0;
#X connect 24 0 37 0;
#X connect 25 0 59 1;
#X connect 26 0 44 0;
#X connect 26 0 61 0;
#X connect 27 0 49 0;
#X connect 28 0 11 0;
#X connect 35 0 34 0;
#X connect 36 0 58 2;
#X connect 37 0 4 1;
#X connect 37 0 38 1;
#X connect 38 0 32 0;
#X connect 39 0 33 0;
#X connect 40 0 16 1;
#X connect 40 0 7 1;
#X connect 40 0 39 1;
#X connect 41 0 29 0;
#X connect 42 0 62 0;
#X connect 44 0 48 0;
#X connect 44 1 46 0;
#X connect 45 0 43 0;
#X connect 46 0 43 0;
#X connect 47 0 48 1;
#X connect 48 0 45 0;
#X connect 49 0 51 0;
#X connect 50 0 2 0;
#X connect 51 0 50 0;
#X connect 51 0 54 0;
#X connect 51 1 55 0;
#X connect 51 1 57 0;
#X connect 52 0 51 0;
#X connect 53 0 52 0;
#X connect 54 0 56 0;
#X connect 55 0 56 0;
#X connect 56 0 30 0;
#X connect 57 0 2 0;
#X connect 58 0 3 0;
#X connect 59 0 5 0;
#X connect 59 0 31 0;
#X connect 60 0 58 1;
#X connect 61 0 60 0;
#X connect 61 1 60 1;
#X connect 62 0 35 0;
#X connect 62 1 39 0;
#X connect 62 2 59 0;
#X connect 62 3 38 0;
#X connect 62 4 41 0;
#X connect 62 5 56 0;
#X restore 129 226 pd COMPANDER;
#X obj 78 258 +~;
#X obj 167 121 s \$1_IN_COMPANDER_ON1_OFF0_from_DSP;
#X obj 168 98 f 0;
#X obj 159 38 r DSP_get_parameters;
#X obj 184 68 r \$1_IN_COMPANDER_ON1_OFF0_to_DSP;
#X obj 70 183 == 0;
#X obj 105 184 r DSP_MIX_INTERPOL_TIME;
#X connect 0 0 2 0;
#X connect 0 0 3 0;
#X connect 2 0 4 0;
#X connect 3 0 4 1;
#X connect 4 0 1 0;
#X connect 6 0 5 0;
#X connect 7 0 6 0;
#X connect 8 0 6 1;
#X connect 8 0 9 0;
#X connect 9 0 2 1;
#X connect 10 0 2 2;
