#N canvas 309 49 843 758 10;
#X obj 12 -42 inlet~;
#X obj 393 324 *~ 0.25;
#X obj 335 324 +~;
#X obj 350 324 +~;
#X obj 364 324 +~;
#X obj 379 324 +~;
#X text 465 432 the 25-th LS will be added to;
#X text 467 408 LS 21 \, 22 \, 23 and 24;
#X text 468 448 with 25 %;
#X obj 96 -43 inlet;
#X text 136 10 25 ambisonic signals;
#X text 31 -62 ambi order weight list;
#X obj 535 175 inlet;
#X obj 545 370 switch~;
#X obj 538 252 sel 0 1;
#X obj 538 274 del 50;
#X msg 542 326 0;
#X msg 573 326 1;
#X obj 591 273 r DSP_MIX_INTERPOL_TIME;
#X obj 47 50 r~ 1_AMBI_BUS;
#X obj 63 70 r~ 2_AMBI_BUS;
#X obj 79 90 r~ 3_AMBI_BUS;
#X obj 95 110 r~ 4_AMBI_BUS;
#X obj 111 130 r~ 5_AMBI_BUS;
#X obj 127 150 r~ 6_AMBI_BUS;
#X obj 143 170 r~ 7_AMBI_BUS;
#X obj 159 190 r~ 8_AMBI_BUS;
#X obj 175 50 r~ 9_AMBI_BUS;
#X obj 192 70 r~ 10_AMBI_BUS;
#X obj 207 90 r~ 11_AMBI_BUS;
#X obj 223 110 r~ 12_AMBI_BUS;
#X obj 239 130 r~ 13_AMBI_BUS;
#X obj 255 150 r~ 14_AMBI_BUS;
#X obj 272 170 r~ 15_AMBI_BUS;
#X obj 287 189 r~ 16_AMBI_BUS;
#X obj 535 207 dbtorms;
#X text 531 153 gain;
#X obj 19 399 throw~ 1_OUT;
#X obj 34 419 throw~ 2_OUT;
#X obj 49 439 throw~ 3_OUT;
#X obj 64 459 throw~ 4_OUT;
#X obj 79 480 throw~ 5_OUT;
#X obj 94 499 throw~ 6_OUT;
#X obj 109 520 throw~ 7_OUT;
#X obj 124 539 throw~ 8_OUT;
#X obj 243 540 throw~ 16_OUT;
#X obj 227 519 throw~ 15_OUT;
#X obj 212 499 throw~ 14_OUT;
#X obj 197 479 throw~ 13_OUT;
#X obj 182 459 throw~ 12_OUT;
#X obj 167 439 throw~ 11_OUT;
#X obj 153 419 throw~ 10_OUT;
#X obj 137 400 throw~ 9_OUT;
#X obj 256 399 throw~ 17_OUT;
#X obj 271 419 throw~ 18_OUT;
#X obj 286 439 throw~ 19_OUT;
#X obj 301 459 throw~ 20_OUT;
#X obj 316 480 throw~ 21_OUT;
#X obj 331 499 throw~ 22_OUT;
#X obj 346 520 throw~ 23_OUT;
#X obj 361 539 throw~ 24_OUT;
#X obj 13 509 outlet~;
#X obj 18 361 multiline~ 0 0 0 0 0 0 0 0 0 0 0 0 0 0 0 0 0 0 0 0 0
0 0 0 50;
#N canvas 697 145 683 664 ambi_dec_calc_matrix 0;
#X obj 150 188 t b b b b b b b;
#X msg 150 501 pseudo_inverse;
#X obj 164 544 round_zero 1e-06;
#X obj 206 482 pp pht_ls;
#X obj 192 444 pp mir_ls;
#X obj 178 380 pp mrg_ls;
#X obj 164 329 pp ind_ls;
#N canvas 0 0 511 314 zero_count 0;
#X obj 39 86 repack 1;
#X obj 40 109 sel 0;
#X obj 54 146 f;
#X obj 85 144 + 1;
#X msg 102 99 0;
#X obj 60 21 inlet;
#X obj 129 230 outlet;
#X obj 130 200 f;
#X obj 60 51 t a b;
#X obj 158 86 del 10;
#X msg 174 115 ***************************************;
#X obj 174 139 print ***;
#X obj 158 164 del 10;
#X connect 0 0 1 0;
#X connect 1 0 2 0;
#X connect 2 0 3 0;
#X connect 2 0 7 1;
#X connect 3 0 2 1;
#X connect 4 0 3 0;
#X connect 4 0 2 0;
#X connect 5 0 8 0;
#X connect 7 0 6 0;
#X connect 8 0 0 0;
#X connect 8 1 4 0;
#X connect 8 1 9 0;
#X connect 9 0 12 0;
#X connect 9 0 10 0;
#X connect 10 0 11 0;
#X connect 12 0 7 0;
#X restore 164 566 pd zero_count;
#X obj 164 598 print number_of_zeros_in_decoder:;
#X text 371 269 LS 13 .. 24 + 25;
#X obj 39 17 inlet;
#X obj 267 566 print decoder;
#X obj 235 265 pp ambi_weight;
#X obj 150 162 t b l;
#X obj 250 205 f 0.863;
#X msg 178 348 1 0 0 \, 2 0 330 \, 3 0 300 \, 4 0 270 \, 5 0 240 \,
6 0 210 \, 7 0 180 \, 8 0 150 \, 9 0 120 \, 10 0 90 \, 11 0 60 \, 12
0 30;
#X msg 164 283 1 30 337.5 \, 2 30 292.5 \, 3 30 247.5 \, 4 30 202.5
\, 5 30 157.5 \, 6 30 112.5 \, 7 30 67.5 \, 8 30 22.5 \, 9 60 315 \,
10 60 225 \, 11 60 135 \, 12 60 45 \, 13 90 0;
#X msg 192 399 1 -30 0 \, 2 -30 330 \, 3 -30 300 \, 4 -30 270 \, 5
-30 240 \, 6 -30 210 \, 7 -30 180 \, 8 -30 150 \, 9 -30 120 \, 10 -30
90 \, 11 -30 60 \, 12 -30 30;
#X msg 206 463 1 -60 315 \, 2 -60 225 \, 3 -60 135 \, 4 -60 45 \, 5
-90 0;
#X obj 150 45 clip -20 20;
#X obj 236 45 clip -20 20;
#X obj 259 64 clip -20 20;
#X obj 172 65 clip -20 20;
#X obj 195 85 clip -20 20;
#X msg 250 224 mirror_weight \$1;
#X obj 11 610 outlet;
#X text 51 23 comment;
#X text 367 330 LS 1 .. 12;
#X obj 79 141 bng 15 250 50 0 empty empty empty 0 -6 0 8 -262144 -1
-1;
#X obj 79 119 loadbang;
#X obj 150 21 unpack 0 0 0 0 0 0;
#X obj 281 85 clip -20 20;
#X obj 150 141 pack 0 0 0 0 0 0;
#X obj 164 522 ambi_decode2 4 3 13 12 5;
#X obj 233 244 any 1.66667 1.50751 1.09085 0.57582 0.159154;
#X connect 0 0 1 0;
#X connect 0 1 16 0;
#X connect 0 2 15 0;
#X connect 0 3 17 0;
#X connect 0 4 18 0;
#X connect 0 5 34 0;
#X connect 0 6 14 0;
#X connect 1 0 33 0;
#X connect 2 0 7 0;
#X connect 2 0 25 0;
#X connect 3 0 33 0;
#X connect 4 0 33 0;
#X connect 5 0 33 0;
#X connect 6 0 33 0;
#X connect 7 0 8 0;
#X connect 10 0 30 0;
#X connect 12 0 33 0;
#X connect 13 0 0 0;
#X connect 13 1 34 1;
#X connect 14 0 24 0;
#X connect 15 0 5 0;
#X connect 16 0 6 0;
#X connect 17 0 4 0;
#X connect 18 0 3 0;
#X connect 19 0 32 0;
#X connect 20 0 32 3;
#X connect 21 0 32 4;
#X connect 22 0 32 1;
#X connect 23 0 32 2;
#X connect 24 0 33 0;
#X connect 28 0 0 0;
#X connect 29 0 28 0;
#X connect 30 0 19 0;
#X connect 30 1 22 0;
#X connect 30 2 23 0;
#X connect 30 3 20 0;
#X connect 30 4 21 0;
#X connect 30 5 31 0;
#X connect 31 0 32 5;
#X connect 32 0 13 0;
#X connect 33 0 2 0;
#X connect 34 0 12 0;
#X restore 12 -11 pd ambi_dec_calc_matrix;
#X obj 305 50 r~ 17_AMBI_BUS;
#X obj 319 70 r~ 18_AMBI_BUS;
#X obj 334 90 r~ 19_AMBI_BUS;
#X obj 350 110 r~ 20_AMBI_BUS;
#X obj 366 130 r~ 21_AMBI_BUS;
#X obj 382 150 r~ 22_AMBI_BUS;
#X obj 399 170 r~ 23_AMBI_BUS;
#X obj 415 189 r~ 24_AMBI_BUS;
#X obj 431 49 r~ 25_AMBI_BUS;
#X obj 34 260 mtx_*~ 25 25 0 _____________________________________________
;
#X obj 642 178 inlet;
#X text 646 156 on off;
#X obj 432 287 f 0;
#X msg 502 289 0;
#X obj 48 232 ambi_rotate_z_4o_3d~ _____________________________________
;
#X msg 481 99 rho_z \$1;
#X msg 548 99 interpol_time \$1;
#X obj 727 174 inlet rot/Z;
#X connect 1 0 2 1;
#X connect 1 0 3 1;
#X connect 1 0 4 1;
#X connect 1 0 5 1;
#X connect 2 0 62 20;
#X connect 3 0 62 21;
#X connect 4 0 62 22;
#X connect 5 0 62 23;
#X connect 9 0 63 0;
#X connect 12 0 35 0;
#X connect 14 0 15 0;
#X connect 14 0 77 0;
#X connect 14 1 17 0;
#X connect 14 1 76 0;
#X connect 15 0 16 0;
#X connect 16 0 13 0;
#X connect 17 0 13 0;
#X connect 18 0 15 1;
#X connect 18 0 62 25;
#X connect 18 0 80 0;
#X connect 19 0 78 0;
#X connect 20 0 78 1;
#X connect 21 0 78 2;
#X connect 22 0 78 3;
#X connect 23 0 78 4;
#X connect 24 0 78 5;
#X connect 25 0 78 6;
#X connect 26 0 78 7;
#X connect 27 0 78 8;
#X connect 28 0 78 9;
#X connect 29 0 78 10;
#X connect 30 0 78 11;
#X connect 31 0 78 12;
#X connect 32 0 78 13;
#X connect 33 0 78 14;
#X connect 34 0 78 15;
#X connect 35 0 76 0;
#X connect 62 0 37 0;
#X connect 62 1 38 0;
#X connect 62 2 39 0;
#X connect 62 3 40 0;
#X connect 62 4 41 0;
#X connect 62 5 42 0;
#X connect 62 6 43 0;
#X connect 62 7 44 0;
#X connect 62 8 52 0;
#X connect 62 9 51 0;
#X connect 62 10 50 0;
#X connect 62 11 49 0;
#X connect 62 12 48 0;
#X connect 62 13 47 0;
#X connect 62 14 46 0;
#X connect 62 15 45 0;
#X connect 62 16 53 0;
#X connect 62 17 54 0;
#X connect 62 18 55 0;
#X connect 62 19 56 0;
#X connect 62 20 57 0;
#X connect 62 21 58 0;
#X connect 62 22 59 0;
#X connect 62 23 60 0;
#X connect 63 0 73 0;
#X connect 64 0 78 16;
#X connect 65 0 78 17;
#X connect 66 0 78 18;
#X connect 67 0 78 19;
#X connect 68 0 78 20;
#X connect 69 0 78 21;
#X connect 70 0 78 22;
#X connect 71 0 78 23;
#X connect 72 0 78 24;
#X connect 73 0 62 12;
#X connect 73 1 62 13;
#X connect 73 2 62 14;
#X connect 73 3 62 15;
#X connect 73 4 62 16;
#X connect 73 5 62 17;
#X connect 73 6 62 18;
#X connect 73 7 62 19;
#X connect 73 8 2 0;
#X connect 73 9 3 0;
#X connect 73 10 4 0;
#X connect 73 11 5 0;
#X connect 73 12 1 0;
#X connect 73 13 62 0;
#X connect 73 14 62 1;
#X connect 73 15 62 2;
#X connect 73 16 62 3;
#X connect 73 17 62 4;
#X connect 73 18 62 5;
#X connect 73 19 62 6;
#X connect 73 20 62 7;
#X connect 73 21 62 8;
#X connect 73 22 62 9;
#X connect 73 23 62 10;
#X connect 73 24 62 11;
#X connect 74 0 14 0;
#X connect 76 0 62 24;
#X connect 77 0 62 24;
#X connect 78 0 73 1;
#X connect 78 1 73 2;
#X connect 78 2 73 3;
#X connect 78 3 73 4;
#X connect 78 4 73 5;
#X connect 78 5 73 6;
#X connect 78 6 73 7;
#X connect 78 7 73 8;
#X connect 78 8 73 9;
#X connect 78 9 73 10;
#X connect 78 10 73 11;
#X connect 78 11 73 12;
#X connect 78 12 73 13;
#X connect 78 13 73 14;
#X connect 78 14 73 15;
#X connect 78 15 73 16;
#X connect 78 16 73 17;
#X connect 78 17 73 18;
#X connect 78 18 73 19;
#X connect 78 19 73 20;
#X connect 78 20 73 21;
#X connect 78 21 73 22;
#X connect 78 22 73 23;
#X connect 78 23 73 24;
#X connect 78 24 73 25;
#X connect 79 0 78 25;
#X connect 80 0 78 25;
#X connect 81 0 79 0;
