#N canvas 0 0 450 300 10;
#X obj 36 39 inlet~;
#X obj 42 275 outlet~;
#X text 172 271 only here \, the 3 parameters are sended back;
#X obj 131 108 aux_send_post~ \$1 1;
#X obj 131 211 aux_send_post~ \$1 4;
#X obj 131 139 aux_send_post~ \$1 2;
#X obj 131 180 aux_send_post~ \$1 3;
#X connect 0 0 3 0;
#X connect 0 0 4 0;
#X connect 0 0 5 0;
#X connect 0 0 6 0;
