#N canvas 464 277 816 328 10;
#N canvas 0 0 510 360 null~ 0;
#X obj 38 52 catch~ 0_AMBI_BUS;
#X obj 37 79 s~ 0_AMBI_SUM;
#X connect 0 0 1 0;
#X restore 129 19 pd null~;
#X text 436 82 (basic);
#X text 634 110 (medium1);
#X text 658 226 (strong weighted);
#X msg 489 249 1 0.904509 0.654509 0.345492 0.0954921;
#X msg 371 81 1 1 1 1 1;
#X msg 375 226 1.66667 1.50751 1.09085 0.57582 0.159154;
#X msg 371 112 1.1236 1.1236 1.1236 1.1236 0.505618;
#X msg 571 133 1 1 1 1 0.45;
#X msg 372 166 1.32767 1.33032 1.1949 0.819172 0.327934;
#X msg 531 186 1 1.002 0.9 0.617 0.247;
#X text 659 167 (medium2);
#X text 262 50 1.arg: <float> n_ambisonic_order;
#X obj 55 39 inlet~;
#X obj 53 248 outlet~;
#X obj 76 119 any 1.6 1.36569 0.8 0.234315;
#X obj 133 178 receive_parameter OUT_AMBI_GAIN;
#X obj 84 143 receive_parameter AMBI_ORDER_WEIGHT;
#X obj 54 201 \$1_ambi_dec~;
#X obj 149 197 receive_setting OUT_AMBI_24;
#X connect 13 0 18 0;
#X connect 16 0 18 2;
#X connect 17 0 18 1;
#X connect 18 0 14 0;
#X connect 19 0 18 3;
