#N canvas 1483 212 1003 636 10;
#X text 190 37 25 ambisonic signals;
#X obj 78 53 AMBI-BUS-catch~ 1_AMBI_BUS;
#X obj 92 73 AMBI-BUS-catch~ 2_AMBI_BUS;
#X obj 107 93 AMBI-BUS-catch~ 3_AMBI_BUS;
#X obj 122 113 AMBI-BUS-catch~ 4_AMBI_BUS;
#X obj 138 133 AMBI-BUS-catch~ 5_AMBI_BUS;
#X obj 152 153 AMBI-BUS-catch~ 6_AMBI_BUS;
#X obj 166 173 AMBI-BUS-catch~ 7_AMBI_BUS;
#X obj 181 193 AMBI-BUS-catch~ 8_AMBI_BUS;
#X obj 308 58 AMBI-BUS-catch~ 9_AMBI_BUS;
#X obj 323 78 AMBI-BUS-catch~ 10_AMBI_BUS;
#X obj 337 98 AMBI-BUS-catch~ 11_AMBI_BUS;
#X obj 352 118 AMBI-BUS-catch~ 12_AMBI_BUS;
#X obj 368 138 AMBI-BUS-catch~ 13_AMBI_BUS;
#X obj 382 158 AMBI-BUS-catch~ 14_AMBI_BUS;
#X obj 397 178 AMBI-BUS-catch~ 15_AMBI_BUS;
#X obj 411 197 AMBI-BUS-catch~ 16_AMBI_BUS;
#X obj 411 359 s~ 16_AMBI_BUS;
#X obj 395 339 s~ 15_AMBI_BUS;
#X obj 381 319 s~ 14_AMBI_BUS;
#X obj 367 299 s~ 13_AMBI_BUS;
#X obj 353 279 s~ 12_AMBI_BUS;
#X obj 337 259 s~ 11_AMBI_BUS;
#X obj 323 239 s~ 10_AMBI_BUS;
#X obj 309 219 s~ 9_AMBI_BUS;
#X obj 79 216 s~ 1_AMBI_BUS;
#X obj 93 236 s~ 2_AMBI_BUS;
#X obj 107 256 s~ 3_AMBI_BUS;
#X obj 123 276 s~ 4_AMBI_BUS;
#X obj 137 296 s~ 5_AMBI_BUS;
#X obj 151 317 s~ 6_AMBI_BUS;
#X obj 165 336 s~ 7_AMBI_BUS;
#X obj 181 356 s~ 8_AMBI_BUS;
#X obj 563 59 AMBI-BUS-catch~ 17_AMBI_BUS;
#X obj 578 79 AMBI-BUS-catch~ 18_AMBI_BUS;
#X obj 592 99 AMBI-BUS-catch~ 19_AMBI_BUS;
#X obj 607 119 AMBI-BUS-catch~ 20_AMBI_BUS;
#X obj 623 139 AMBI-BUS-catch~ 21_AMBI_BUS;
#X obj 637 159 AMBI-BUS-catch~ 22_AMBI_BUS;
#X obj 652 179 AMBI-BUS-catch~ 23_AMBI_BUS;
#X obj 666 198 AMBI-BUS-catch~ 24_AMBI_BUS;
#X obj 763 58 AMBI-BUS-catch~ 25_AMBI_BUS;
#X obj 763 221 s~ 25_AMBI_BUS;
#X obj 666 360 s~ 24_AMBI_BUS;
#X obj 650 340 s~ 23_AMBI_BUS;
#X obj 636 320 s~ 22_AMBI_BUS;
#X obj 622 300 s~ 21_AMBI_BUS;
#X obj 608 280 s~ 20_AMBI_BUS;
#X obj 592 260 s~ 19_AMBI_BUS;
#X obj 578 240 s~ 18_AMBI_BUS;
#X obj 564 220 s~ 17_AMBI_BUS;
#X obj 18 14 inlet~;
#X obj 25 378 outlet~;
#X connect 1 0 25 0;
#X connect 2 0 26 0;
#X connect 3 0 27 0;
#X connect 4 0 28 0;
#X connect 5 0 29 0;
#X connect 6 0 30 0;
#X connect 7 0 31 0;
#X connect 8 0 32 0;
#X connect 9 0 24 0;
#X connect 10 0 23 0;
#X connect 11 0 22 0;
#X connect 12 0 21 0;
#X connect 13 0 20 0;
#X connect 14 0 19 0;
#X connect 15 0 18 0;
#X connect 16 0 17 0;
#X connect 33 0 50 0;
#X connect 34 0 49 0;
#X connect 35 0 48 0;
#X connect 36 0 47 0;
#X connect 37 0 46 0;
#X connect 38 0 45 0;
#X connect 39 0 44 0;
#X connect 40 0 43 0;
#X connect 41 0 42 0;
