#N canvas 1483 212 656 408 10;
#X text 190 37 25 ambisonic signals;
#X obj 78 53 catch~ 1_AMBI_BUS;
#X obj 92 73 catch~ 2_AMBI_BUS;
#X obj 107 93 catch~ 3_AMBI_BUS;
#X obj 122 113 catch~ 4_AMBI_BUS;
#X obj 138 133 catch~ 5_AMBI_BUS;
#X obj 152 153 catch~ 6_AMBI_BUS;
#X obj 166 173 catch~ 7_AMBI_BUS;
#X obj 181 193 catch~ 8_AMBI_BUS;
#X obj 206 53 catch~ 9_AMBI_BUS;
#X obj 221 73 catch~ 10_AMBI_BUS;
#X obj 235 93 catch~ 11_AMBI_BUS;
#X obj 250 113 catch~ 12_AMBI_BUS;
#X obj 266 133 catch~ 13_AMBI_BUS;
#X obj 280 153 catch~ 14_AMBI_BUS;
#X obj 295 173 catch~ 15_AMBI_BUS;
#X obj 309 192 catch~ 16_AMBI_BUS;
#X obj 309 354 s~ 16_AMBI_BUS;
#X obj 293 334 s~ 15_AMBI_BUS;
#X obj 279 314 s~ 14_AMBI_BUS;
#X obj 265 294 s~ 13_AMBI_BUS;
#X obj 251 274 s~ 12_AMBI_BUS;
#X obj 235 254 s~ 11_AMBI_BUS;
#X obj 221 234 s~ 10_AMBI_BUS;
#X obj 207 214 s~ 9_AMBI_BUS;
#X obj 79 216 s~ 1_AMBI_BUS;
#X obj 93 236 s~ 2_AMBI_BUS;
#X obj 107 256 s~ 3_AMBI_BUS;
#X obj 123 276 s~ 4_AMBI_BUS;
#X obj 137 296 s~ 5_AMBI_BUS;
#X obj 151 317 s~ 6_AMBI_BUS;
#X obj 165 336 s~ 7_AMBI_BUS;
#X obj 181 356 s~ 8_AMBI_BUS;
#X obj 339 53 catch~ 17_AMBI_BUS;
#X obj 354 73 catch~ 18_AMBI_BUS;
#X obj 368 93 catch~ 19_AMBI_BUS;
#X obj 383 113 catch~ 20_AMBI_BUS;
#X obj 399 133 catch~ 21_AMBI_BUS;
#X obj 413 153 catch~ 22_AMBI_BUS;
#X obj 428 173 catch~ 23_AMBI_BUS;
#X obj 442 192 catch~ 24_AMBI_BUS;
#X obj 472 52 catch~ 25_AMBI_BUS;
#X obj 472 215 s~ 25_AMBI_BUS;
#X obj 442 354 s~ 24_AMBI_BUS;
#X obj 426 334 s~ 23_AMBI_BUS;
#X obj 412 314 s~ 22_AMBI_BUS;
#X obj 398 294 s~ 21_AMBI_BUS;
#X obj 384 274 s~ 20_AMBI_BUS;
#X obj 368 254 s~ 19_AMBI_BUS;
#X obj 354 234 s~ 18_AMBI_BUS;
#X obj 340 214 s~ 17_AMBI_BUS;
#X obj 18 14 inlet~;
#X obj 25 378 outlet~;
#X connect 1 0 25 0;
#X connect 2 0 26 0;
#X connect 3 0 27 0;
#X connect 4 0 28 0;
#X connect 5 0 29 0;
#X connect 6 0 30 0;
#X connect 7 0 31 0;
#X connect 8 0 32 0;
#X connect 9 0 24 0;
#X connect 10 0 23 0;
#X connect 11 0 22 0;
#X connect 12 0 21 0;
#X connect 13 0 20 0;
#X connect 14 0 19 0;
#X connect 15 0 18 0;
#X connect 16 0 17 0;
#X connect 33 0 50 0;
#X connect 34 0 49 0;
#X connect 35 0 48 0;
#X connect 36 0 47 0;
#X connect 37 0 46 0;
#X connect 38 0 45 0;
#X connect 39 0 44 0;
#X connect 40 0 43 0;
#X connect 41 0 42 0;
