#N canvas 196 59 548 462 10;
#N canvas 0 0 506 356 null~ 0;
#X obj 38 52 catch~ 0_AMBI_BUS;
#X obj 37 79 s~ 0_AMBI_SUM;
#X connect 0 0 1 0;
#X restore 113 18 pd null~;
#N canvas 4 2 1100 693 AMBI_Decoder 0;
#X obj 4 76 inlet~;
#X obj 351 439 *~ 0.25;
#X obj 293 439 +~;
#X obj 308 439 +~;
#X obj 322 439 +~;
#X obj 337 439 +~;
#X obj 510 549 ambi_decode2 4 3 13 12 5;
#X obj 496 215 t b b b b b b b;
#X msg 496 528 pseudo_inverse;
#X obj 510 571 round_zero 1e-06;
#X obj 416 62 bng 15 250 50 0 empty empty empty 0 -6 0 8 -262144 -1
-1;
#X obj 552 509 pp pht_ls;
#X obj 538 471 pp mir_ls;
#X obj 524 407 pp mrg_ls;
#X obj 510 356 pp ind_ls;
#N canvas 0 0 511 314 zero_count 0;
#X obj 39 86 repack 1;
#X obj 40 109 sel 0;
#X obj 54 146 f;
#X obj 85 144 + 1;
#X msg 102 99 0;
#X obj 60 21 inlet;
#X obj 129 230 outlet;
#X obj 130 200 f;
#X obj 60 51 t a b;
#X obj 158 86 del 10;
#X msg 174 115 ***************************************;
#X obj 174 139 print ***;
#X obj 158 164 del 10;
#X connect 0 0 1 0;
#X connect 1 0 2 0;
#X connect 2 0 3 0;
#X connect 2 0 7 1;
#X connect 3 0 2 1;
#X connect 4 0 3 0;
#X connect 4 0 2 0;
#X connect 5 0 8 0;
#X connect 7 0 6 0;
#X connect 8 0 0 0;
#X connect 8 1 4 0;
#X connect 8 1 9 0;
#X connect 9 0 12 0;
#X connect 9 0 10 0;
#X connect 10 0 11 0;
#X connect 12 0 7 0;
#X restore 510 593 pd zero_count;
#X obj 510 625 print number_of_zeros_in_decoder:;
#X text 717 296 LS 13 .. 24 + 25;
#X text 747 361 LS 1 .. 12;
#X text 329 396 the 25-th LS will be added to;
#X text 351 409 LS 21 \, 22 \, 23 and 24;
#X text 374 422 with 25 %;
#X obj 496 26 inlet;
#X obj 613 593 print decoder;
#X obj 416 40 loadbang;
#X text 131 3 25 ambisonic signals;
#X text 493 10 ambi order weight list;
#X obj 566 292 pp ambi_weight;
#X obj 496 155 t b l;
#X obj 496 48 unpack 0 0 0 0 0;
#X obj 496 134 pack 0 0 0 0 0;
#X obj 566 273 any 1 0.904509 0.654509 0.345492 0.0954921;
#X obj 596 234 f 0.863;
#X msg 524 375 1 0 0 \, 2 0 330 \, 3 0 300 \, 4 0 270 \, 5 0 240 \,
6 0 210 \, 7 0 180 \, 8 0 150 \, 9 0 120 \, 10 0 90 \, 11 0 60 \, 12
0 30;
#X msg 510 310 1 30 337.5 \, 2 30 292.5 \, 3 30 247.5 \, 4 30 202.5
\, 5 30 157.5 \, 6 30 112.5 \, 7 30 67.5 \, 8 30 22.5 \, 9 60 315 \,
10 60 225 \, 11 60 135 \, 12 60 45 \, 13 90 0;
#X msg 538 426 1 -30 0 \, 2 -30 330 \, 3 -30 300 \, 4 -30 270 \, 5
-30 240 \, 6 -30 210 \, 7 -30 180 \, 8 -30 150 \, 9 -30 120 \, 10 -30
90 \, 11 -30 60 \, 12 -30 30;
#X msg 552 490 1 -60 315 \, 2 -60 225 \, 3 -60 135 \, 4 -60 45 \, 5
-90 0;
#X obj 496 72 clip -20 20;
#X obj 564 72 clip -20 20;
#X obj 587 91 clip -20 20;
#X obj 518 92 clip -20 20;
#X obj 541 112 clip -20 20;
#X obj 676 26 inlet;
#X obj 676 87 t f f;
#X obj 701 108 > 0;
#X obj 744 175 switch~;
#X obj 701 130 sel 0 1;
#X obj 701 152 del 50;
#X msg 745 152 0;
#X msg 776 152 1;
#X obj 733 106 r DSP_MIX_INTERPOL_TIME;
#X obj 19 19 catch~ 1_AMBI_BUS;
#X obj 33 39 catch~ 2_AMBI_BUS;
#X obj 48 59 catch~ 3_AMBI_BUS;
#X obj 63 79 catch~ 4_AMBI_BUS;
#X obj 79 99 catch~ 5_AMBI_BUS;
#X obj 93 119 catch~ 6_AMBI_BUS;
#X obj 107 139 catch~ 7_AMBI_BUS;
#X obj 122 159 catch~ 8_AMBI_BUS;
#X obj 137 19 catch~ 9_AMBI_BUS;
#X obj 152 39 catch~ 10_AMBI_BUS;
#X obj 166 59 catch~ 11_AMBI_BUS;
#X obj 181 79 catch~ 12_AMBI_BUS;
#X obj 197 99 catch~ 13_AMBI_BUS;
#X obj 211 119 catch~ 14_AMBI_BUS;
#X obj 226 139 catch~ 15_AMBI_BUS;
#X obj 240 158 catch~ 16_AMBI_BUS;
#X obj 255 19 catch~ 17_AMBI_BUS;
#X obj 270 39 catch~ 18_AMBI_BUS;
#X obj 285 59 catch~ 19_AMBI_BUS;
#X obj 300 79 catch~ 20_AMBI_BUS;
#X obj 315 99 catch~ 21_AMBI_BUS;
#X obj 329 119 catch~ 22_AMBI_BUS;
#X obj 344 139 catch~ 23_AMBI_BUS;
#X obj 359 159 catch~ 24_AMBI_BUS;
#X obj 375 19 catch~ 25_AMBI_BUS;
#X obj 676 64 dbtorms;
#X text 653 8 gain;
#X obj 20 182 s~ 1_AMBI_SUM;
#X obj 34 202 s~ 2_AMBI_SUM;
#X obj 48 222 s~ 3_AMBI_SUM;
#X obj 64 242 s~ 4_AMBI_SUM;
#X obj 78 262 s~ 5_AMBI_SUM;
#X obj 92 282 s~ 6_AMBI_SUM;
#X obj 106 302 s~ 7_AMBI_SUM;
#X obj 122 322 s~ 8_AMBI_SUM;
#X obj 138 180 s~ 9_AMBI_SUM;
#X obj 152 200 s~ 10_AMBI_SUM;
#X obj 166 220 s~ 11_AMBI_SUM;
#X obj 182 240 s~ 12_AMBI_SUM;
#X obj 196 260 s~ 13_AMBI_SUM;
#X obj 210 280 s~ 14_AMBI_SUM;
#X obj 224 300 s~ 15_AMBI_SUM;
#X obj 240 320 s~ 16_AMBI_SUM;
#X obj 256 182 s~ 17_AMBI_SUM;
#X obj 270 202 s~ 18_AMBI_SUM;
#X obj 284 222 s~ 19_AMBI_SUM;
#X obj 300 242 s~ 20_AMBI_SUM;
#X obj 314 262 s~ 21_AMBI_SUM;
#X obj 328 282 s~ 22_AMBI_SUM;
#X obj 342 302 s~ 23_AMBI_SUM;
#X obj 358 322 s~ 24_AMBI_SUM;
#X obj 374 182 s~ 25_AMBI_SUM;
#X obj 20 500 throw~ 1_OUT;
#X obj 35 520 throw~ 2_OUT;
#X obj 50 540 throw~ 3_OUT;
#X obj 65 560 throw~ 4_OUT;
#X obj 80 581 throw~ 5_OUT;
#X obj 95 600 throw~ 6_OUT;
#X obj 110 621 throw~ 7_OUT;
#X obj 125 640 throw~ 8_OUT;
#X obj 249 641 throw~ 16_OUT;
#X obj 233 620 throw~ 15_OUT;
#X obj 218 600 throw~ 14_OUT;
#X obj 203 580 throw~ 13_OUT;
#X obj 188 560 throw~ 12_OUT;
#X obj 173 540 throw~ 11_OUT;
#X obj 159 520 throw~ 10_OUT;
#X obj 143 501 throw~ 9_OUT;
#X obj 266 500 throw~ 17_OUT;
#X obj 281 520 throw~ 18_OUT;
#X obj 296 540 throw~ 19_OUT;
#X obj 311 560 throw~ 20_OUT;
#X obj 326 581 throw~ 21_OUT;
#X obj 341 600 throw~ 22_OUT;
#X obj 356 621 throw~ 23_OUT;
#X obj 371 640 throw~ 24_OUT;
#X obj 14 610 outlet~;
#X obj 20 347 mtx_*~ 25 25 0 ____________________________________;
#X obj 19 462 multiline~ 0 0 0 0 0 0 0 0 0 0 0 0 0 0 0 0 0 0 0 0 0
0 0 0 50;
#X msg 596 253 mirror_weight \$1;
#X connect 1 0 2 1;
#X connect 1 0 3 1;
#X connect 1 0 4 1;
#X connect 1 0 5 1;
#X connect 2 0 129 20;
#X connect 3 0 129 21;
#X connect 4 0 129 22;
#X connect 5 0 129 23;
#X connect 6 0 9 0;
#X connect 7 0 8 0;
#X connect 7 1 34 0;
#X connect 7 2 33 0;
#X connect 7 3 35 0;
#X connect 7 4 36 0;
#X connect 7 5 31 0;
#X connect 7 6 32 0;
#X connect 8 0 6 0;
#X connect 9 0 15 0;
#X connect 9 0 128 0;
#X connect 10 0 7 0;
#X connect 11 0 6 0;
#X connect 12 0 6 0;
#X connect 13 0 6 0;
#X connect 14 0 6 0;
#X connect 15 0 16 0;
#X connect 22 0 29 0;
#X connect 24 0 10 0;
#X connect 27 0 6 0;
#X connect 28 0 7 0;
#X connect 28 1 31 1;
#X connect 29 0 37 0;
#X connect 29 1 40 0;
#X connect 29 2 41 0;
#X connect 29 3 38 0;
#X connect 29 4 39 0;
#X connect 30 0 28 0;
#X connect 31 0 27 0;
#X connect 32 0 130 0;
#X connect 33 0 13 0;
#X connect 34 0 14 0;
#X connect 35 0 12 0;
#X connect 36 0 11 0;
#X connect 37 0 30 0;
#X connect 38 0 30 3;
#X connect 39 0 30 4;
#X connect 40 0 30 1;
#X connect 41 0 30 2;
#X connect 42 0 76 0;
#X connect 43 0 129 24;
#X connect 43 1 44 0;
#X connect 44 0 46 0;
#X connect 46 0 47 0;
#X connect 46 1 49 0;
#X connect 47 0 48 0;
#X connect 48 0 45 0;
#X connect 49 0 45 0;
#X connect 50 0 47 1;
#X connect 50 0 129 25;
#X connect 51 0 78 0;
#X connect 51 0 128 1;
#X connect 52 0 79 0;
#X connect 52 0 128 2;
#X connect 53 0 80 0;
#X connect 53 0 128 3;
#X connect 54 0 81 0;
#X connect 54 0 128 4;
#X connect 55 0 82 0;
#X connect 55 0 128 5;
#X connect 56 0 83 0;
#X connect 56 0 128 6;
#X connect 57 0 84 0;
#X connect 57 0 128 7;
#X connect 58 0 85 0;
#X connect 58 0 128 8;
#X connect 59 0 86 0;
#X connect 59 0 128 9;
#X connect 60 0 87 0;
#X connect 60 0 128 10;
#X connect 61 0 88 0;
#X connect 61 0 128 11;
#X connect 62 0 89 0;
#X connect 62 0 128 12;
#X connect 63 0 90 0;
#X connect 63 0 128 13;
#X connect 64 0 91 0;
#X connect 64 0 128 14;
#X connect 65 0 92 0;
#X connect 65 0 128 15;
#X connect 66 0 93 0;
#X connect 66 0 128 16;
#X connect 67 0 94 0;
#X connect 67 0 128 17;
#X connect 68 0 95 0;
#X connect 68 0 128 18;
#X connect 69 0 96 0;
#X connect 69 0 128 19;
#X connect 70 0 97 0;
#X connect 70 0 128 20;
#X connect 71 0 98 0;
#X connect 71 0 128 21;
#X connect 72 0 99 0;
#X connect 72 0 128 22;
#X connect 73 0 100 0;
#X connect 73 0 128 23;
#X connect 74 0 101 0;
#X connect 74 0 128 24;
#X connect 75 0 102 0;
#X connect 75 0 128 25;
#X connect 76 0 43 0;
#X connect 128 0 129 12;
#X connect 128 1 129 13;
#X connect 128 2 129 14;
#X connect 128 3 129 15;
#X connect 128 4 129 16;
#X connect 128 5 129 17;
#X connect 128 6 129 18;
#X connect 128 7 129 19;
#X connect 128 8 2 0;
#X connect 128 9 3 0;
#X connect 128 10 4 0;
#X connect 128 11 5 0;
#X connect 128 12 1 0;
#X connect 128 13 129 0;
#X connect 128 14 129 1;
#X connect 128 15 129 2;
#X connect 128 16 129 3;
#X connect 128 17 129 4;
#X connect 128 18 129 5;
#X connect 128 19 129 6;
#X connect 128 20 129 7;
#X connect 128 21 129 8;
#X connect 128 22 129 9;
#X connect 128 23 129 10;
#X connect 128 24 129 11;
#X connect 129 0 103 0;
#X connect 129 1 104 0;
#X connect 129 2 105 0;
#X connect 129 3 106 0;
#X connect 129 4 107 0;
#X connect 129 5 108 0;
#X connect 129 6 109 0;
#X connect 129 7 110 0;
#X connect 129 8 118 0;
#X connect 129 9 117 0;
#X connect 129 10 116 0;
#X connect 129 11 115 0;
#X connect 129 12 114 0;
#X connect 129 13 113 0;
#X connect 129 14 112 0;
#X connect 129 15 111 0;
#X connect 129 16 119 0;
#X connect 129 17 120 0;
#X connect 129 18 121 0;
#X connect 129 19 122 0;
#X connect 129 20 123 0;
#X connect 129 21 124 0;
#X connect 129 22 125 0;
#X connect 129 23 126 0;
#X connect 130 0 6 0;
#X restore 280 259 pd AMBI_Decoder;
#X obj 319 156 r AMBI_MAIN_GAIN;
#X obj 286 131 r AMBI_ORDER_WEIGHT;
#X msg 29 170 1 0.904509 0.654509 0.345492 0.0954921;
#X obj 28 148 loadbang;
#X obj 34 38 inlet~;
#X obj 49 338 outlet~;
#X connect 1 0 7 0;
#X connect 2 0 1 2;
#X connect 3 0 1 1;
#X connect 4 0 1 1;
#X connect 5 0 4 0;
#X connect 6 0 1 0;
