#N canvas 111 302 626 450 10;
#X obj 36 28 inlet~;
#X obj 327 162 t b f;
#X obj 69 159 t f f;
#X obj 99 181 > 0;
#X obj 200 375 switch~;
#X obj 200 314 sel 0 1;
#X obj 200 333 del 50;
#X msg 200 354 0;
#X msg 226 354 1;
#X obj 37 327 mull~ 0 50;
#X obj 102 291 r DSP_MIX_INTERPOL_TIME;
#X obj 69 138 dbtorms;
#X msg 349 258 set \$1_SND;
#X obj 200 258 && 1;
#X obj 327 140 == 0;
#X obj 305 25 pack \$1 \$2;
#X msg 305 5 bang;
#X obj 305 46 makesymbol %s_IN_AUX_%s;
#X obj 349 5 loadbang;
#X obj 305 66 t s s s;
#X msg 327 95 symbol \$1_PRE;
#X msg 69 97 symbol \$1_GAIN;
#X msg 349 214 symbol \$1_DST;
#X obj 38 356 throw~ \$2_AUX_SUM;
#X obj 349 236 receive_setting \$1_IN_AUX_1_DST;
#X obj 69 117 receive_parameter \$1_IN_AUX_1_GAIN;
#X obj 327 117 receive_setting \$1_IN_AUX_1_PRE;
#X connect 0 0 9 0;
#X connect 1 0 13 0;
#X connect 1 1 13 1;
#X connect 2 0 9 1;
#X connect 2 1 3 0;
#X connect 3 0 13 0;
#X connect 5 0 6 0;
#X connect 5 1 8 0;
#X connect 6 0 7 0;
#X connect 7 0 4 0;
#X connect 8 0 4 0;
#X connect 9 0 23 0;
#X connect 10 0 9 2;
#X connect 10 0 6 1;
#X connect 11 0 2 0;
#X connect 12 0 23 0;
#X connect 13 0 5 0;
#X connect 14 0 1 0;
#X connect 15 0 17 0;
#X connect 16 0 15 0;
#X connect 17 0 19 0;
#X connect 18 0 15 0;
#X connect 19 0 21 0;
#X connect 19 1 20 0;
#X connect 19 2 22 0;
#X connect 20 0 26 0;
#X connect 21 0 25 0;
#X connect 22 0 24 0;
#X connect 24 0 12 0;
#X connect 25 0 11 0;
#X connect 26 0 14 0;
