#N canvas 0 0 716 534 10;
#X obj 41 183 s~ \$1_AUX_SUM;
#X obj 23 13 inlet~;
#X obj 33 232 outlet~;
#X obj 37 44 catch~ \$1_AUX_SUM;
#X obj 271 106 DSP_label AUX \$1_AUX;
#X obj 41 144 mull~ 0 50;
#X obj 154 136 r DSP_MIX_INTERPOL_TIME;
#X obj 129 91 dbtorms;
#X obj 129 65 sr_parameter \$1_AUX_SUM_GAIN;
#X connect 3 0 5 0;
#X connect 5 0 0 0;
#X connect 6 0 5 2;
#X connect 7 0 5 1;
#X connect 8 0 7 0;
