#N canvas 111 302 782 460 10;
#X obj 36 138 inlet~;
#X obj 293 162 t b f;
#X obj 84 159 t f f;
#X obj 109 181 > 0;
#X obj 201 384 switch~;
#X obj 200 304 sel 0 1;
#X obj 185 333 del 50;
#X msg 185 354 0;
#X msg 227 356 1;
#X obj 37 327 mull~ 0 50;
#X obj 100 281 r DSP_MIX_INTERPOL_TIME;
#X obj 156 34 r DSP_get_parameters;
#X obj 156 56 t b b;
#X obj 84 138 dbtorms;
#X obj 278 247 r DSP_get_settings;
#X obj 278 290 sendreceive \$1_IN_AUX_1_DST;
#X msg 278 312 set \$1_SND;
#X obj 293 96 f 0;
#X obj 293 117 sendreceive \$1_IN_AUX_1_PRE;
#X obj 200 258 && 1;
#X obj 293 140 == 0;
#X obj 84 96 f 0;
#X obj 84 117 sendreceive \$1_IN_AUX_1_GAIN;
#X obj 455 25 pack \$1 \$2;
#X msg 455 5 bang;
#X obj 455 46 makesymbol %s_IN_AUX_%s;
#X obj 499 5 loadbang;
#X obj 455 66 t s s s;
#X msg 477 95 symbol \$1_PRE;
#X msg 275 71 symbol \$1_GAIN;
#X msg 462 262 symbol \$1_DST;
#X obj 38 356 throw~ \$2_AUX_SUM;
#X obj 278 269 symbol \$2_AUX;
#X connect 0 0 9 0;
#X connect 1 0 19 0;
#X connect 1 1 19 1;
#X connect 2 0 9 1;
#X connect 2 1 3 0;
#X connect 3 0 19 0;
#X connect 5 0 6 0;
#X connect 5 1 8 0;
#X connect 6 0 7 0;
#X connect 7 0 4 0;
#X connect 8 0 4 0;
#X connect 9 0 31 0;
#X connect 10 0 9 2;
#X connect 10 0 6 1;
#X connect 11 0 12 0;
#X connect 12 0 21 0;
#X connect 12 1 17 0;
#X connect 13 0 2 0;
#X connect 14 0 32 0;
#X connect 15 0 16 0;
#X connect 15 0 32 1;
#X connect 16 0 31 0;
#X connect 17 0 18 0;
#X connect 18 0 17 1;
#X connect 18 0 20 0;
#X connect 19 0 5 0;
#X connect 20 0 1 0;
#X connect 21 0 22 0;
#X connect 22 0 21 1;
#X connect 22 0 13 0;
#X connect 23 0 25 0;
#X connect 24 0 23 0;
#X connect 25 0 27 0;
#X connect 26 0 23 0;
#X connect 27 0 29 0;
#X connect 27 1 28 0;
#X connect 27 2 30 0;
#X connect 28 0 18 1;
#X connect 29 0 22 1;
#X connect 30 0 15 1;
#X connect 32 0 15 0;
