#N canvas 372 127 687 445 10;
#X obj 41 108 inlet~;
#X obj 212 231 t b f;
#X obj 113 184 t f f;
#X obj 138 206 > 0;
#X obj 198 415 switch~;
#X obj 222 324 sel 0 1;
#X obj 189 367 del 50;
#X msg 189 388 0;
#X msg 240 387 1;
#X obj 41 384 mull~ 0 50;
#X obj 106 297 r DSP_MIX_INTERPOL_TIME;
#X obj 113 163 dbtorms;
#X msg 296 282 set \$1_SUM;
#X obj 296 262 symbol;
#X obj 222 267 && 0;
#X text 64 19 !!!! wird im post-fader-zweig registriert !!!!;
#X obj 113 137 iem_r \$1_IN_AUX_1_GAIN;
#X obj 212 180 iem_r \$1_IN_AUX_1_PRE;
#X obj 296 240 iem_r \$1_IN_AUX_1_DST;
#X obj 42 413 throw~ \$2_AUX_SUM;
#X obj 474 52 pack \$1 \$2;
#X msg 474 13 bang;
#X obj 474 73 makesymbol %s_IN_AUX_%s;
#X obj 488 32 loadbang;
#X obj 474 99 t s s s;
#X msg 113 117 set \$1_GAIN;
#X msg 212 160 set \$1_PRE;
#X msg 296 219 set \$1_DST;
#X text 53 57 [aux_send_pre~ <INCH#> <AUX#>];
#X connect 0 0 9 0;
#X connect 1 0 14 0;
#X connect 1 1 14 1;
#X connect 2 0 9 1;
#X connect 2 1 3 0;
#X connect 3 0 14 0;
#X connect 5 0 6 0;
#X connect 5 1 8 0;
#X connect 6 0 7 0;
#X connect 7 0 4 0;
#X connect 8 0 4 0;
#X connect 9 0 19 0;
#X connect 10 0 9 2;
#X connect 10 0 6 1;
#X connect 11 0 2 0;
#X connect 12 0 19 0;
#X connect 13 0 12 0;
#X connect 14 0 5 0;
#X connect 16 0 11 0;
#X connect 17 0 1 0;
#X connect 18 0 13 0;
#X connect 20 0 22 0;
#X connect 21 0 20 0;
#X connect 22 0 24 0;
#X connect 23 0 20 0;
#X connect 24 0 25 0;
#X connect 24 1 26 0;
#X connect 24 2 27 0;
#X connect 25 0 16 0;
#X connect 26 0 17 0;
#X connect 27 0 18 0;
