#N canvas 176 409 603 407 10;
#X obj 138 300 prvu~;
#X obj 195 94 f 1;
#X obj 195 70 r DSP_get_parameters;
#X obj 195 233 pp set;
#X obj 138 323 s \$1_VUMB_LEVEL;
#X obj 96 58 inlet;
#X text 92 33 start stop;
#X text 277 291 1.arg: index;
#X obj 195 115 sendreceive \$1_VUMB_SRC;
#X obj 195 159 sel 0 1 2 3 4 5 6;
#X obj 388 147 r;
#X obj 195 256 r~ \$1_DAC;
#X connect 0 0 4 0;
#X connect 1 0 8 0;
#X connect 2 0 1 0;
#X connect 3 0 11 0;
#X connect 5 0 0 0;
#X connect 8 0 9 0;
#X connect 8 0 1 1;
#X connect 11 0 0 0;
