#N canvas 109 0 987 820 10;
#N canvas 0 0 494 344 null~ 0;
#X obj 68 54 catch~ 0_BUS;
#X obj 68 88 throw~ 0_OUT;
#X connect 0 0 1 0;
#X restore 81 36 pd null~;
#X obj 34 58 catch~ 1_BUS;
#X obj 49 79 catch~ 2_BUS;
#X obj 64 100 catch~ 3_BUS;
#X obj 79 121 catch~ 4_BUS;
#X obj 94 141 catch~ 5_BUS;
#X obj 110 162 catch~ 6_BUS;
#X obj 125 183 catch~ 7_BUS;
#X obj 140 204 catch~ 8_BUS;
#X obj 155 62 catch~ 9_BUS;
#X obj 169 83 catch~ 10_BUS;
#X obj 12 434 throw~ 1_OUT;
#X obj 19 455 throw~ 2_OUT;
#X obj 27 479 throw~ 3_OUT;
#X obj 34 500 throw~ 4_OUT;
#X obj 44 522 throw~ 5_OUT;
#X obj 51 543 throw~ 6_OUT;
#X obj 59 567 throw~ 7_OUT;
#X obj 66 588 throw~ 8_OUT;
#X obj 76 611 throw~ 9_OUT;
#X obj 83 632 throw~ 10_OUT;
#X obj 91 656 throw~ 11_OUT;
#X obj 98 677 throw~ 12_OUT;
#X obj 108 699 throw~ 13_OUT;
#X obj 167 434 throw~ 14_OUT;
#X obj 175 458 throw~ 15_OUT;
#X obj 182 479 throw~ 16_OUT;
#X obj 191 501 throw~ 17_OUT;
#X obj 198 522 throw~ 18_OUT;
#X obj 206 546 throw~ 19_OUT;
#X obj 213 567 throw~ 20_OUT;
#X obj 223 589 throw~ 21_OUT;
#X obj 230 610 throw~ 22_OUT;
#X obj 238 634 throw~ 23_OUT;
#X obj 245 655 throw~ 24_OUT;
#X obj 253 678 throw~ 25_OUT;
#X obj 260 699 throw~ 26_OUT;
#X obj 32 35 inlet~;
#X obj 9 720 outlet~;
#X obj 185 104 catch~ 11_BUS;
#X obj 201 124 catch~ 12_BUS;
#X obj 321 25 catch~ LF_BUS;
#X obj 320 136 lp4_butt~ 75 300;
#X obj 311 94 lp4_butt~ 75 300;
#X obj 403 382 r DSP_MIX_INTERPOL_TIME;
#X obj 672 162 r DSP_get_parameters;
#X obj 758 304 mtx_dbtorms;
#X obj 672 256 relay element matrix;
#N canvas 0 0 454 304 dbtorms 0;
#X obj 122 51 inlet;
#X obj 122 189 outlet;
#X obj 122 71 route element;
#X obj 122 96 unpack 0 0 0;
#X msg 122 163 element \$1 \$2 \$3;
#X obj 122 140 pack 0 0 0;
#X obj 201 116 dbtorms;
#X connect 0 0 2 0;
#X connect 2 0 3 0;
#X connect 3 0 5 0;
#X connect 3 1 5 1;
#X connect 3 2 6 0;
#X connect 4 0 1 0;
#X connect 5 0 4 0;
#X connect 6 0 5 2;
#X restore 672 298 pd dbtorms;
#X obj 672 278 t a a;
#X obj 672 318 t a;
#X obj 672 227 route list;
#X obj 33 228 multiline~ 0 0 0 0 0 0 0 0 0 0 0 0 0 0 50;
#X obj 374 679 pp set;
#X obj 374 701 throw~ 25_OUT;
#X obj 679 706 throw~ 26_OUT;
#X obj 679 681 pp set;
#X obj 388 329 switch~;
#X obj 388 240 sel 0 1;
#X msg 388 307 0;
#X msg 424 307 1;
#X obj 388 286 del 50;
#X msg 418 261 stop;
#X obj 7 407 mtx_*~ 26 12 50 ____________________________;
#X obj 672 183 matrix 26 12;
#X obj 758 280 mtx_resize 26 12;
#N canvas 228 214 830 651 pack14 0;
#X obj 59 599 outlet;
#X obj 25 458 del 0;
#X obj 22 112 t b f;
#X obj 61 132 t b f;
#X obj 100 152 t b f;
#X obj 139 172 t b f;
#X obj 178 192 t b f;
#X obj 217 212 t b f;
#X obj 256 232 t b f;
#X obj 295 252 t b f;
#X obj 335 272 t b f;
#X obj 374 292 t b f;
#X obj 414 312 t b f;
#X obj 453 332 t b f;
#X obj 492 352 t b f;
#X obj 531 372 t b f;
#X obj 59 556 f;
#X obj 62 475 dbtorms;
#X obj 80 495 dbtorms;
#X obj 96 516 dbtorms;
#X obj 111 537 dbtorms;
#X obj 137 470 dbtorms;
#X obj 151 491 dbtorms;
#X obj 166 512 dbtorms;
#X obj 183 533 dbtorms;
#X obj 208 469 dbtorms;
#X obj 224 489 dbtorms;
#X obj 240 510 dbtorms;
#X obj 254 531 dbtorms;
#X obj 294 507 dbtorms;
#X obj 309 527 dbtorms;
#X obj 59 577 pack 0 0 0 0 0 0 0 0 0 0 0 0 0 0;
#X obj 22 92 receive_parameter 1_OUT_BUS_GAIN;
#X obj 61 112 receive_parameter 2_OUT_BUS_GAIN;
#X obj 100 132 receive_parameter 3_OUT_BUS_GAIN;
#X obj 139 152 receive_parameter 4_OUT_BUS_GAIN;
#X obj 178 172 receive_parameter 5_OUT_BUS_GAIN;
#X obj 217 192 receive_parameter 6_OUT_BUS_GAIN;
#X obj 256 212 receive_parameter 7_OUT_BUS_GAIN;
#X obj 295 232 receive_parameter 8_OUT_BUS_GAIN;
#X obj 335 252 receive_parameter 9_OUT_BUS_GAIN;
#X obj 374 272 receive_parameter 10_OUT_BUS_GAIN;
#X obj 414 292 receive_parameter 11_OUT_BUS_GAIN;
#X obj 453 312 receive_parameter 12_OUT_BUS_GAIN;
#X obj 492 332 receive_parameter 1_OUT_LFC_GAIN;
#X obj 531 352 receive_parameter 2_OUT_LFC_GAIN;
#X connect 1 0 16 0;
#X connect 2 0 1 0;
#X connect 2 1 17 0;
#X connect 3 0 1 0;
#X connect 3 1 18 0;
#X connect 4 0 1 0;
#X connect 4 1 19 0;
#X connect 5 0 1 0;
#X connect 5 1 20 0;
#X connect 6 0 1 0;
#X connect 6 1 21 0;
#X connect 7 0 1 0;
#X connect 7 1 22 0;
#X connect 8 0 1 0;
#X connect 8 1 23 0;
#X connect 9 0 1 0;
#X connect 9 1 24 0;
#X connect 10 0 1 0;
#X connect 10 1 25 0;
#X connect 11 0 1 0;
#X connect 11 1 26 0;
#X connect 12 0 1 0;
#X connect 12 1 27 0;
#X connect 13 0 1 0;
#X connect 13 1 28 0;
#X connect 14 0 1 0;
#X connect 14 1 29 0;
#X connect 15 0 1 0;
#X connect 15 1 30 0;
#X connect 16 0 31 0;
#X connect 17 0 16 1;
#X connect 18 0 31 1;
#X connect 19 0 31 2;
#X connect 20 0 31 3;
#X connect 21 0 31 4;
#X connect 22 0 31 5;
#X connect 23 0 31 6;
#X connect 24 0 31 7;
#X connect 25 0 31 8;
#X connect 26 0 31 9;
#X connect 27 0 31 10;
#X connect 28 0 31 11;
#X connect 29 0 31 12;
#X connect 30 0 31 13;
#X connect 31 0 0 0;
#X connect 32 0 2 0;
#X connect 33 0 3 0;
#X connect 34 0 4 0;
#X connect 35 0 5 0;
#X connect 36 0 6 0;
#X connect 37 0 7 0;
#X connect 38 0 8 0;
#X connect 39 0 9 0;
#X connect 40 0 10 0;
#X connect 41 0 11 0;
#X connect 42 0 12 0;
#X connect 43 0 13 0;
#X connect 44 0 14 0;
#X connect 45 0 15 0;
#X restore 388 182 pd pack14;
#X obj 388 201 sum;
#X obj 388 220 != 0;
#X obj 364 73 receive_parameter 1_OUT_LFC_HIGHCUT_FREQ;
#X text 650 73 75;
#X obj 373 116 receive_parameter 2_OUT_LFC_HIGHCUT_FREQ;
#X text 657 117 75;
#X obj 679 658 receive_parameter 2_OUT_LFC_BUS_DST;
#X text 929 659 26_OUT;
#X obj 374 656 receive_parameter 1_OUT_LFC_BUS_DST;
#X text 628 656 25_OUT;
#X obj 672 204 sendreceive BUS_ROUTE;
#X text 783 183 FIX THIS!!!;
#X connect 1 0 52 0;
#X connect 2 0 52 1;
#X connect 3 0 52 2;
#X connect 4 0 52 3;
#X connect 5 0 52 4;
#X connect 6 0 52 5;
#X connect 7 0 52 6;
#X connect 8 0 52 7;
#X connect 9 0 52 8;
#X connect 10 0 52 9;
#X connect 39 0 52 10;
#X connect 40 0 52 11;
#X connect 41 0 42 0;
#X connect 41 0 43 0;
#X connect 42 0 52 13;
#X connect 43 0 52 12;
#X connect 44 0 52 15;
#X connect 44 0 61 1;
#X connect 44 0 63 13;
#X connect 45 0 64 0;
#X connect 46 0 50 0;
#X connect 47 0 49 0;
#X connect 47 1 65 0;
#X connect 48 0 50 0;
#X connect 49 0 48 0;
#X connect 49 1 64 0;
#X connect 50 0 63 0;
#X connect 51 0 47 0;
#X connect 51 1 47 0;
#X connect 52 0 63 1;
#X connect 52 1 63 2;
#X connect 52 2 63 3;
#X connect 52 3 63 4;
#X connect 52 4 63 5;
#X connect 52 5 63 6;
#X connect 52 6 63 7;
#X connect 52 7 63 8;
#X connect 52 8 63 9;
#X connect 52 9 63 10;
#X connect 52 10 63 11;
#X connect 52 11 63 12;
#X connect 52 12 54 0;
#X connect 52 13 55 0;
#X connect 53 0 54 0;
#X connect 56 0 55 0;
#X connect 58 0 61 0;
#X connect 58 1 60 0;
#X connect 58 1 62 0;
#X connect 59 0 57 0;
#X connect 60 0 57 0;
#X connect 61 0 59 0;
#X connect 62 0 61 0;
#X connect 63 0 11 0;
#X connect 63 0 38 0;
#X connect 63 1 12 0;
#X connect 63 2 13 0;
#X connect 63 3 14 0;
#X connect 63 4 15 0;
#X connect 63 5 16 0;
#X connect 63 6 17 0;
#X connect 63 7 18 0;
#X connect 63 8 19 0;
#X connect 63 9 20 0;
#X connect 63 10 21 0;
#X connect 63 11 22 0;
#X connect 63 12 23 0;
#X connect 63 13 24 0;
#X connect 63 14 25 0;
#X connect 63 15 26 0;
#X connect 63 16 27 0;
#X connect 63 17 28 0;
#X connect 63 18 29 0;
#X connect 63 19 30 0;
#X connect 63 20 31 0;
#X connect 63 21 32 0;
#X connect 63 22 33 0;
#X connect 63 23 34 0;
#X connect 63 24 35 0;
#X connect 63 25 36 0;
#X connect 64 0 77 0;
#X connect 65 0 46 0;
#X connect 65 0 64 1;
#X connect 66 0 52 14;
#X connect 66 0 67 0;
#X connect 67 0 68 0;
#X connect 68 0 58 0;
#X connect 69 0 43 1;
#X connect 71 0 42 1;
#X connect 73 0 56 0;
#X connect 75 0 53 0;
#X connect 77 0 51 0;
