#N canvas 64 7 709 688 10;
#N canvas 0 0 490 340 null~ 0;
#X obj 68 54 catch~ 0_BUS;
#X obj 68 88 throw~ 0_OUT;
#X connect 0 0 1 0;
#X restore 81 36 pd null~;
#X obj 34 58 catch~ 1_BUS;
#X obj 49 79 catch~ 2_BUS;
#X obj 64 100 catch~ 3_BUS;
#X obj 79 121 catch~ 4_BUS;
#X obj 94 141 catch~ 5_BUS;
#X obj 110 162 catch~ 6_BUS;
#X obj 125 183 catch~ 7_BUS;
#X obj 140 204 catch~ 8_BUS;
#X obj 155 62 catch~ 9_BUS;
#X obj 169 83 catch~ 10_BUS;
#X obj 14 327 throw~ 1_OUT;
#X obj 21 348 throw~ 2_OUT;
#X obj 29 372 throw~ 3_OUT;
#X obj 36 393 throw~ 4_OUT;
#X obj 46 415 throw~ 5_OUT;
#X obj 53 436 throw~ 6_OUT;
#X obj 61 460 throw~ 7_OUT;
#X obj 68 481 throw~ 8_OUT;
#X obj 78 504 throw~ 9_OUT;
#X obj 85 525 throw~ 10_OUT;
#X obj 93 549 throw~ 11_OUT;
#X obj 100 570 throw~ 12_OUT;
#X obj 110 592 throw~ 13_OUT;
#X obj 117 613 throw~ 14_OUT;
#X obj 125 637 throw~ 15_OUT;
#X obj 132 658 throw~ 16_OUT;
#X obj 117 325 throw~ 17_OUT;
#X obj 124 346 throw~ 18_OUT;
#X obj 132 370 throw~ 19_OUT;
#X obj 139 391 throw~ 20_OUT;
#X obj 149 413 throw~ 21_OUT;
#X obj 156 434 throw~ 22_OUT;
#X obj 164 458 throw~ 23_OUT;
#X obj 171 479 throw~ 24_OUT;
#X obj 179 502 throw~ 25_OUT;
#X obj 186 523 throw~ 26_OUT;
#X obj 194 547 throw~ 27_OUT;
#X obj 201 568 throw~ 28_OUT;
#X obj 211 589 throw~ 29_OUT;
#X obj 218 611 throw~ 30_OUT;
#X obj 226 635 throw~ 31_OUT;
#X obj 233 656 throw~ 32_OUT;
#X obj 32 35 inlet~;
#X obj 11 536 outlet~;
#X obj 185 104 catch~ 11_BUS;
#X obj 201 124 catch~ 12_BUS;
#X obj 216 144 catch~ 13_BUS;
#X obj 231 165 catch~ 14_BUS;
#X obj 246 185 catch~ 15_BUS;
#X obj 261 206 catch~ 16_BUS;
#X obj 218 325 throw~ 33_OUT;
#X obj 225 346 throw~ 34_OUT;
#X obj 233 370 throw~ 35_OUT;
#X obj 240 391 throw~ 36_OUT;
#X obj 250 412 throw~ 37_OUT;
#X obj 257 434 throw~ 38_OUT;
#X obj 265 458 throw~ 39_OUT;
#X obj 274 479 throw~ 40_OUT;
#X obj 284 501 throw~ 41_OUT;
#X obj 293 522 throw~ 42_OUT;
#X obj 301 546 throw~ 43_OUT;
#X obj 308 567 throw~ 44_OUT;
#X obj 318 588 throw~ 45_OUT;
#X obj 325 610 throw~ 46_OUT;
#X obj 333 634 throw~ 47_OUT;
#X obj 340 655 throw~ 48_OUT;
#X obj 319 327 throw~ 49_OUT;
#X obj 342 392 throw~ 52_OUT;
#X obj 328 349 throw~ 50_OUT;
#X obj 335 371 throw~ 51_OUT;
#X obj 290 27 catch~ LF_BUS;
#X obj 291 118 lp4_butt~ 75 300;
#X obj 275 81 lp4_butt~ 75 300;
#X obj 368 252 r DSP_MIX_INTERPOL_TIME;
#X obj 33 228 multiline~ 0 0 0 0 0 0 0 0 0 0 0 0 0 0 0 0 0 0 50;
#N canvas 197 36 755 658 pack18 0;
#X obj 74 599 outlet;
#X obj 74 577 pack 0 0 0 0 0 0 0 0 0 0 0 0 0 0 0 0 0 0;
#X obj 25 458 del 0;
#X obj 34 92 t b f;
#X obj 69 131 t b f;
#X obj 105 171 t b f;
#X obj 140 210 t b f;
#X obj 176 251 t b f;
#X obj 211 290 t b f;
#X obj 246 329 t b f;
#X obj 281 369 t b f;
#X obj 316 409 t b f;
#X obj 281 91 t b f;
#X obj 316 131 t b f;
#X obj 351 170 t b f;
#X obj 386 210 t b f;
#X obj 422 250 t b f;
#X obj 457 290 t b f;
#X obj 492 330 t b f;
#X obj 529 370 t b f;
#X obj 565 410 t b f;
#X obj 59 556 f;
#X obj 34 72 sendreceive OUT_BUS_1_GAIN;
#X obj 69 111 sendreceive OUT_BUS_2_GAIN;
#X obj 105 151 sendreceive OUT_BUS_3_GAIN;
#X obj 140 190 sendreceive OUT_BUS_4_GAIN;
#X obj 176 231 sendreceive OUT_BUS_5_GAIN;
#X obj 211 270 sendreceive OUT_BUS_6_GAIN;
#X obj 246 309 sendreceive OUT_BUS_7_GAIN;
#X obj 281 349 sendreceive OUT_BUS_8_GAIN;
#X obj 316 389 sendreceive OUT_BUS_9_GAIN;
#X obj 281 71 sendreceive OUT_BUS_10_GAIN;
#X obj 316 111 sendreceive OUT_BUS_11_GAIN;
#X obj 351 150 sendreceive OUT_BUS_12_GAIN;
#X obj 386 190 sendreceive OUT_BUS_13_GAIN;
#X obj 422 230 sendreceive OUT_BUS_14_GAIN;
#X obj 457 270 sendreceive OUT_BUS_15_GAIN;
#X obj 492 310 sendreceive OUT_BUS_16_GAIN;
#X obj 529 350 sendreceive OUT_LFC_1_GAIN;
#X obj 565 390 sendreceive OUT_LFC_2_GAIN;
#X obj 164 26 t b b b b b b b b b b b b b b b b b b;
#X obj 565 371 f 0;
#X obj 529 331 f 0;
#X obj 492 291 f 0;
#X obj 456 251 f 0;
#X obj 421 211 f 0;
#X obj 386 171 f 0;
#X obj 351 131 f 0;
#X obj 316 91 f 0;
#X obj 281 51 f 0;
#X obj 316 369 f 0;
#X obj 281 329 f 0;
#X obj 246 290 f 0;
#X obj 211 251 f 0;
#X obj 176 211 f 0;
#X obj 140 171 f 0;
#X obj 105 131 f 0;
#X obj 69 91 f 0;
#X obj 34 51 f 0;
#X obj 62 475 dbtorms;
#X obj 80 495 dbtorms;
#X obj 96 516 dbtorms;
#X obj 111 537 dbtorms;
#X obj 118 474 dbtorms;
#X obj 132 495 dbtorms;
#X obj 147 516 dbtorms;
#X obj 164 537 dbtorms;
#X obj 173 474 dbtorms;
#X obj 189 494 dbtorms;
#X obj 205 515 dbtorms;
#X obj 219 536 dbtorms;
#X obj 224 474 dbtorms;
#X obj 242 494 dbtorms;
#X obj 258 515 dbtorms;
#X obj 273 535 dbtorms;
#X obj 279 474 dbtorms;
#X obj 294 494 dbtorms;
#X obj 164 4 inlet;
#X connect 1 0 0 0;
#X connect 2 0 21 0;
#X connect 3 0 2 0;
#X connect 3 1 59 0;
#X connect 4 0 2 0;
#X connect 4 1 60 0;
#X connect 5 0 2 0;
#X connect 5 1 61 0;
#X connect 6 0 2 0;
#X connect 6 1 62 0;
#X connect 7 0 2 0;
#X connect 7 1 63 0;
#X connect 8 0 2 0;
#X connect 8 1 64 0;
#X connect 9 0 2 0;
#X connect 9 1 65 0;
#X connect 10 0 2 0;
#X connect 10 1 66 0;
#X connect 11 0 2 0;
#X connect 11 1 67 0;
#X connect 12 0 2 0;
#X connect 12 1 68 0;
#X connect 13 0 2 0;
#X connect 13 1 69 0;
#X connect 14 0 2 0;
#X connect 14 1 70 0;
#X connect 15 0 2 0;
#X connect 15 1 71 0;
#X connect 16 0 2 0;
#X connect 16 1 72 0;
#X connect 17 0 2 0;
#X connect 17 1 73 0;
#X connect 18 0 2 0;
#X connect 18 1 74 0;
#X connect 19 0 2 0;
#X connect 19 1 75 0;
#X connect 20 0 2 0;
#X connect 20 1 76 0;
#X connect 21 0 1 0;
#X connect 22 0 3 0;
#X connect 22 0 58 1;
#X connect 23 0 4 0;
#X connect 23 0 57 1;
#X connect 24 0 5 0;
#X connect 24 0 56 1;
#X connect 25 0 6 0;
#X connect 25 0 55 1;
#X connect 26 0 7 0;
#X connect 26 0 54 1;
#X connect 27 0 8 0;
#X connect 27 0 53 1;
#X connect 28 0 9 0;
#X connect 28 0 52 1;
#X connect 29 0 10 0;
#X connect 29 0 51 1;
#X connect 30 0 11 0;
#X connect 30 0 50 1;
#X connect 31 0 12 0;
#X connect 31 0 49 1;
#X connect 32 0 13 0;
#X connect 32 0 48 1;
#X connect 33 0 14 0;
#X connect 33 0 47 1;
#X connect 34 0 15 0;
#X connect 34 0 46 1;
#X connect 35 0 16 0;
#X connect 35 0 45 1;
#X connect 36 0 17 0;
#X connect 36 0 44 1;
#X connect 37 0 18 0;
#X connect 37 0 43 1;
#X connect 38 0 19 0;
#X connect 38 0 42 1;
#X connect 39 0 20 0;
#X connect 39 0 41 1;
#X connect 40 0 58 0;
#X connect 40 1 57 0;
#X connect 40 2 56 0;
#X connect 40 3 55 0;
#X connect 40 4 54 0;
#X connect 40 5 53 0;
#X connect 40 6 52 0;
#X connect 40 7 51 0;
#X connect 40 8 50 0;
#X connect 40 9 49 0;
#X connect 40 10 48 0;
#X connect 40 11 47 0;
#X connect 40 12 46 0;
#X connect 40 13 45 0;
#X connect 40 14 44 0;
#X connect 40 15 43 0;
#X connect 40 16 42 0;
#X connect 40 17 41 0;
#X connect 41 0 39 0;
#X connect 42 0 38 0;
#X connect 43 0 37 0;
#X connect 44 0 36 0;
#X connect 45 0 35 0;
#X connect 46 0 34 0;
#X connect 47 0 33 0;
#X connect 48 0 32 0;
#X connect 49 0 31 0;
#X connect 50 0 30 0;
#X connect 51 0 29 0;
#X connect 52 0 28 0;
#X connect 53 0 27 0;
#X connect 54 0 26 0;
#X connect 55 0 25 0;
#X connect 56 0 24 0;
#X connect 57 0 23 0;
#X connect 58 0 22 0;
#X connect 59 0 21 1;
#X connect 60 0 1 1;
#X connect 61 0 1 2;
#X connect 62 0 1 3;
#X connect 63 0 1 4;
#X connect 64 0 1 5;
#X connect 65 0 1 6;
#X connect 66 0 1 7;
#X connect 67 0 1 8;
#X connect 68 0 1 9;
#X connect 69 0 1 10;
#X connect 70 0 1 11;
#X connect 71 0 1 12;
#X connect 72 0 1 13;
#X connect 73 0 1 14;
#X connect 74 0 1 15;
#X connect 75 0 1 16;
#X connect 76 0 1 17;
#X connect 77 0 40 0;
#X restore 393 189 pd pack18;
#X obj 15 302 mtx_*~ 52 18 50 _______________________________________
;
#X obj 402 14 r DSP_get_parameters;
#X obj 402 79 sendreceive LFC_1_HIGHCUT_FREQ;
#X obj 402 58 f 75;
#X obj 436 100 f 75;
#X obj 411 37 t b b;
#X obj 436 121 sendreceive LFC_2_HIGHCUT_FREQ;
#X obj 393 168 r DSP_get_parameters;
#X obj 563 216 r DSP_get_parameters;
#X obj 563 258 sendreceive BUS_ROUTE;
#X obj 571 280 route element;
#X obj 571 301 pp element;
#X obj 563 237 matrix 52 18;
#X connect 1 0 75 0;
#X connect 2 0 75 1;
#X connect 3 0 75 2;
#X connect 4 0 75 3;
#X connect 5 0 75 4;
#X connect 6 0 75 5;
#X connect 7 0 75 6;
#X connect 8 0 75 7;
#X connect 9 0 75 8;
#X connect 10 0 75 9;
#X connect 45 0 75 10;
#X connect 46 0 75 11;
#X connect 47 0 75 12;
#X connect 48 0 75 13;
#X connect 49 0 75 14;
#X connect 50 0 75 15;
#X connect 71 0 72 0;
#X connect 71 0 73 0;
#X connect 72 0 75 17;
#X connect 73 0 75 16;
#X connect 74 0 75 19;
#X connect 74 0 77 19;
#X connect 75 0 77 1;
#X connect 75 1 77 2;
#X connect 75 2 77 3;
#X connect 75 3 77 4;
#X connect 75 4 77 5;
#X connect 75 5 77 6;
#X connect 75 6 77 7;
#X connect 75 7 77 8;
#X connect 75 8 77 9;
#X connect 75 9 77 10;
#X connect 75 10 77 11;
#X connect 75 11 77 12;
#X connect 75 12 77 13;
#X connect 75 13 77 14;
#X connect 75 14 77 15;
#X connect 75 15 77 16;
#X connect 75 16 77 17;
#X connect 75 17 77 18;
#X connect 76 0 75 18;
#X connect 77 0 11 0;
#X connect 77 0 44 0;
#X connect 77 1 12 0;
#X connect 77 2 13 0;
#X connect 77 3 14 0;
#X connect 77 4 15 0;
#X connect 77 5 16 0;
#X connect 77 6 17 0;
#X connect 77 7 18 0;
#X connect 77 8 19 0;
#X connect 77 9 20 0;
#X connect 77 10 21 0;
#X connect 77 11 22 0;
#X connect 77 12 23 0;
#X connect 77 13 24 0;
#X connect 77 14 25 0;
#X connect 77 15 26 0;
#X connect 77 16 27 0;
#X connect 77 17 28 0;
#X connect 77 18 29 0;
#X connect 77 19 30 0;
#X connect 77 20 31 0;
#X connect 77 21 32 0;
#X connect 77 22 33 0;
#X connect 77 23 34 0;
#X connect 77 24 35 0;
#X connect 77 25 36 0;
#X connect 77 26 37 0;
#X connect 77 27 38 0;
#X connect 77 28 39 0;
#X connect 77 29 40 0;
#X connect 77 30 41 0;
#X connect 77 31 42 0;
#X connect 77 32 51 0;
#X connect 77 33 52 0;
#X connect 77 34 53 0;
#X connect 77 35 54 0;
#X connect 77 36 55 0;
#X connect 77 37 56 0;
#X connect 77 38 57 0;
#X connect 77 39 58 0;
#X connect 77 40 59 0;
#X connect 77 41 60 0;
#X connect 77 42 61 0;
#X connect 77 43 62 0;
#X connect 77 44 63 0;
#X connect 77 45 64 0;
#X connect 77 46 65 0;
#X connect 77 47 66 0;
#X connect 77 48 67 0;
#X connect 77 49 69 0;
#X connect 77 50 70 0;
#X connect 77 51 68 0;
#X connect 78 0 82 0;
#X connect 79 0 80 1;
#X connect 79 0 73 1;
#X connect 80 0 79 0;
#X connect 81 0 83 0;
#X connect 82 0 80 0;
#X connect 82 1 81 0;
#X connect 83 0 81 1;
#X connect 83 0 72 1;
#X connect 84 0 76 0;
#X connect 85 0 89 0;
#X connect 86 0 87 0;
#X connect 86 0 77 0;
#X connect 87 0 88 0;
#X connect 87 1 89 1;
#X connect 88 0 89 0;
#X connect 89 0 86 0;
