#N canvas 1323 174 1144 718 10;
#N canvas 0 0 490 340 null~ 0;
#X obj 68 54 catch~ 0_BUS;
#X obj 68 88 throw~ 0_OUT;
#X connect 0 0 1 0;
#X restore 85 13 pd null~;
#X obj 14 327 throw~ 1_OUT;
#X obj 21 348 throw~ 2_OUT;
#X obj 29 372 throw~ 3_OUT;
#X obj 36 393 throw~ 4_OUT;
#X obj 46 415 throw~ 5_OUT;
#X obj 53 436 throw~ 6_OUT;
#X obj 61 460 throw~ 7_OUT;
#X obj 68 481 throw~ 8_OUT;
#X obj 78 504 throw~ 9_OUT;
#X obj 85 525 throw~ 10_OUT;
#X obj 93 549 throw~ 11_OUT;
#X obj 100 570 throw~ 12_OUT;
#X obj 110 592 throw~ 13_OUT;
#X obj 117 613 throw~ 14_OUT;
#X obj 125 637 throw~ 15_OUT;
#X obj 132 658 throw~ 16_OUT;
#X obj 117 325 throw~ 17_OUT;
#X obj 124 346 throw~ 18_OUT;
#X obj 132 370 throw~ 19_OUT;
#X obj 139 391 throw~ 20_OUT;
#X obj 149 413 throw~ 21_OUT;
#X obj 156 434 throw~ 22_OUT;
#X obj 164 458 throw~ 23_OUT;
#X obj 171 479 throw~ 24_OUT;
#X obj 179 502 throw~ 25_OUT;
#X obj 186 523 throw~ 26_OUT;
#X obj 194 547 throw~ 27_OUT;
#X obj 201 568 throw~ 28_OUT;
#X obj 211 589 throw~ 29_OUT;
#X obj 218 611 throw~ 30_OUT;
#X obj 226 635 throw~ 31_OUT;
#X obj 233 656 throw~ 32_OUT;
#X obj 36 12 inlet~;
#X obj 11 536 outlet~;
#X obj 218 325 throw~ 33_OUT;
#X obj 225 346 throw~ 34_OUT;
#X obj 233 370 throw~ 35_OUT;
#X obj 240 391 throw~ 36_OUT;
#X obj 250 412 throw~ 37_OUT;
#X obj 257 434 throw~ 38_OUT;
#X obj 265 458 throw~ 39_OUT;
#X obj 274 479 throw~ 40_OUT;
#X obj 284 501 throw~ 41_OUT;
#X obj 293 522 throw~ 42_OUT;
#X obj 301 546 throw~ 43_OUT;
#X obj 308 567 throw~ 44_OUT;
#X obj 318 588 throw~ 45_OUT;
#X obj 325 610 throw~ 46_OUT;
#X obj 333 634 throw~ 47_OUT;
#X obj 340 655 throw~ 48_OUT;
#X obj 319 327 throw~ 49_OUT;
#X obj 342 392 throw~ 52_OUT;
#X obj 328 349 throw~ 50_OUT;
#X obj 335 371 throw~ 51_OUT;
#X obj 333 113 lp4_butt~ 75 300;
#X obj 314 68 lp4_butt~ 75 300;
#X obj 395 230 r DSP_MIX_INTERPOL_TIME;
#X obj 33 228 multiline~ 0 0 0 0 0 0 0 0 0 0 0 0 0 0 0 0 0 0 50;
#X obj 456 15 r DSP_get_parameters;
#X obj 456 59 f 75;
#X obj 490 101 f 75;
#X obj 465 38 t b b;
#X obj 15 302 mtx_*~ 52 16 50 _______________________________________
;
#X obj 476 329 r DSP_get_parameters;
#X obj 476 350 symbol 25_OUT;
#X obj 476 394 pp set;
#X obj 476 416 throw~ 25_OUT;
#X obj 665 416 throw~ 26_OUT;
#X obj 665 326 r DSP_get_parameters;
#X obj 665 391 pp set;
#X obj 665 347 symbol 26_OUT;
#X obj 456 80 sendreceive 1_OUT_LFC_HIGHCUT_FREQ;
#X obj 490 122 sendreceive 2_OUT_LFC_HIGHCUT_FREQ;
#X obj 476 371 sendreceive 1_OUT_LFC_BUS_DST;
#X obj 665 368 sendreceive 2_OUT_LFC_BUS_DST;
#X obj 821 213 mtx_dbtorms;
#X obj 735 145 relay element matrix;
#N canvas 0 0 454 304 dbtorms 0;
#X obj 122 51 inlet;
#X obj 122 189 outlet;
#X obj 122 71 route element;
#X obj 122 96 unpack 0 0 0;
#X msg 122 163 element \$1 \$2 \$3;
#X obj 122 140 pack 0 0 0;
#X obj 201 116 dbtorms;
#X connect 0 0 2 0;
#X connect 2 0 3 0;
#X connect 3 0 5 0;
#X connect 3 1 5 1;
#X connect 3 2 6 0;
#X connect 4 0 1 0;
#X connect 5 0 4 0;
#X connect 6 0 5 2;
#X restore 735 187 pd dbtorms;
#X obj 735 167 t a a;
#X obj 735 207 t a;
#X obj 735 116 route list;
#X obj 735 93 sendreceive BUS_ROUTE;
#N canvas 830 330 450 457 CUEstorage 0;
#X msg 137 131 bang;
#X obj 137 225 route bang;
#X obj 137 110 bang;
#X obj 202 267 s CUE_PARAMETERS_SET;
#X obj 137 89 r CUE_PARAMETERS_GET;
#X obj 202 246 pp BUS_ROUTE;
#X obj 303 72 inlet element;
#X obj 353 92 inlet matrix;
#X obj 137 199 matrix 52 16;
#X connect 0 0 8 0;
#X connect 1 1 5 0;
#X connect 2 0 0 0;
#X connect 4 0 2 0;
#X connect 5 0 3 0;
#X connect 6 0 8 0;
#X connect 7 0 8 1;
#X connect 8 0 1 0;
#X restore 765 235 pd CUEstorage;
#X obj 821 191 t a a;
#X obj 821 169 mtx_resize 52 16;
#N canvas 0 0 945 761 parameterpack18 0;
#X obj 59 599 outlet;
#X obj 25 458 del 0;
#X obj 22 112 t b f;
#X obj 61 132 t b f;
#X obj 100 152 t b f;
#X obj 139 172 t b f;
#X obj 178 192 t b f;
#X obj 217 212 t b f;
#X obj 256 232 t b f;
#X obj 295 252 t b f;
#X obj 335 272 t b f;
#X obj 374 292 t b f;
#X obj 414 312 t b f;
#X obj 453 332 t b f;
#X obj 499 112 t b f;
#X obj 538 132 t b f;
#X obj 59 556 f;
#X obj 62 475 dbtorms;
#X obj 80 495 dbtorms;
#X obj 96 516 dbtorms;
#X obj 111 537 dbtorms;
#X obj 137 470 dbtorms;
#X obj 151 491 dbtorms;
#X obj 166 512 dbtorms;
#X obj 183 533 dbtorms;
#X obj 208 469 dbtorms;
#X obj 224 489 dbtorms;
#X obj 240 510 dbtorms;
#X obj 254 531 dbtorms;
#X obj 397 489 dbtorms;
#X obj 412 509 dbtorms;
#X obj 22 92 receive_parameter 1_OUT_BUS_GAIN;
#X obj 61 112 receive_parameter 2_OUT_BUS_GAIN;
#X obj 100 132 receive_parameter 3_OUT_BUS_GAIN;
#X obj 139 152 receive_parameter 4_OUT_BUS_GAIN;
#X obj 178 172 receive_parameter 5_OUT_BUS_GAIN;
#X obj 217 192 receive_parameter 6_OUT_BUS_GAIN;
#X obj 256 212 receive_parameter 7_OUT_BUS_GAIN;
#X obj 295 232 receive_parameter 8_OUT_BUS_GAIN;
#X obj 335 252 receive_parameter 9_OUT_BUS_GAIN;
#X obj 374 272 receive_parameter 10_OUT_BUS_GAIN;
#X obj 414 292 receive_parameter 11_OUT_BUS_GAIN;
#X obj 453 312 receive_parameter 12_OUT_BUS_GAIN;
#X obj 499 92 receive_parameter 1_OUT_LFC_GAIN;
#X obj 538 112 receive_parameter 2_OUT_LFC_GAIN;
#X obj 496 355 t b f;
#X obj 535 375 t b f;
#X obj 575 395 t b f;
#X obj 614 415 t b f;
#X obj 496 335 receive_parameter 13_OUT_BUS_GAIN;
#X obj 535 355 receive_parameter 14_OUT_BUS_GAIN;
#X obj 575 375 receive_parameter 15_OUT_BUS_GAIN;
#X obj 614 395 receive_parameter 16_OUT_BUS_GAIN;
#X obj 59 578 pack 0 0 0 0 0 0 0 0 0 0 0 0 0 0 0 0 0 0;
#X obj 276 464 dbtorms;
#X obj 291 484 dbtorms;
#X obj 305 508 dbtorms;
#X obj 320 528 dbtorms;
#X connect 1 0 16 0;
#X connect 2 0 1 0;
#X connect 2 1 17 0;
#X connect 3 0 1 0;
#X connect 3 1 18 0;
#X connect 4 0 1 0;
#X connect 4 1 19 0;
#X connect 5 0 1 0;
#X connect 5 1 20 0;
#X connect 6 0 1 0;
#X connect 6 1 21 0;
#X connect 7 0 1 0;
#X connect 7 1 22 0;
#X connect 8 0 1 0;
#X connect 8 1 23 0;
#X connect 9 0 1 0;
#X connect 9 1 24 0;
#X connect 10 0 1 0;
#X connect 10 1 25 0;
#X connect 11 0 1 0;
#X connect 11 1 26 0;
#X connect 12 0 1 0;
#X connect 12 1 27 0;
#X connect 13 0 1 0;
#X connect 13 1 28 0;
#X connect 14 0 1 0;
#X connect 14 1 29 0;
#X connect 15 0 1 0;
#X connect 15 1 30 0;
#X connect 16 0 53 0;
#X connect 17 0 16 1;
#X connect 18 0 53 1;
#X connect 19 0 53 2;
#X connect 20 0 53 3;
#X connect 21 0 53 4;
#X connect 22 0 53 5;
#X connect 23 0 53 6;
#X connect 24 0 53 7;
#X connect 25 0 53 8;
#X connect 26 0 53 9;
#X connect 27 0 53 10;
#X connect 28 0 53 11;
#X connect 29 0 53 16;
#X connect 30 0 53 17;
#X connect 31 0 2 0;
#X connect 32 0 3 0;
#X connect 33 0 4 0;
#X connect 34 0 5 0;
#X connect 35 0 6 0;
#X connect 36 0 7 0;
#X connect 37 0 8 0;
#X connect 38 0 9 0;
#X connect 39 0 10 0;
#X connect 40 0 11 0;
#X connect 41 0 12 0;
#X connect 42 0 13 0;
#X connect 43 0 14 0;
#X connect 44 0 15 0;
#X connect 45 0 1 0;
#X connect 45 1 54 0;
#X connect 46 0 1 0;
#X connect 46 1 55 0;
#X connect 47 0 1 0;
#X connect 47 1 56 0;
#X connect 48 0 1 1;
#X connect 48 1 57 0;
#X connect 49 0 45 0;
#X connect 50 0 46 0;
#X connect 51 0 47 0;
#X connect 52 0 48 0;
#X connect 53 0 0 0;
#X connect 54 0 53 12;
#X connect 55 0 53 13;
#X connect 56 0 53 14;
#X connect 57 0 53 15;
#X restore 385 176 pd parameterpack18;
#N canvas 1896 45 525 423 register_OUTS 1;
#X restore 163 27 pd register_OUTS;
#X obj 22 56 BUS-catch~ 1_BUS;
#X obj 37 77 BUS-catch~ 2_BUS;
#X obj 53 98 BUS-catch~ 3_BUS;
#X obj 67 119 BUS-catch~ 4_BUS;
#X obj 82 139 BUS-catch~ 5_BUS;
#X obj 98 160 BUS-catch~ 6_BUS;
#X obj 113 181 BUS-catch~ 7_BUS;
#X obj 128 202 BUS-catch~ 8_BUS;
#X obj 155 62 BUS-catch~ 9_BUS;
#X obj 169 83 BUS-catch~ 10_BUS;
#X obj 185 104 BUS-catch~ 11_BUS;
#X obj 201 124 BUS-catch~ 12_BUS;
#X obj 216 144 BUS-catch~ 13_BUS;
#X obj 231 165 BUS-catch~ 14_BUS;
#X obj 246 185 BUS-catch~ 15_BUS;
#X obj 261 206 BUS-catch~ 16_BUS;
#X obj 325 29 BUS-catch~ LF_BUS;
#X connect 55 0 58 17;
#X connect 56 0 58 16;
#X connect 57 0 58 19;
#X connect 57 0 63 17;
#X connect 58 0 63 1;
#X connect 58 1 63 2;
#X connect 58 2 63 3;
#X connect 58 3 63 4;
#X connect 58 4 63 5;
#X connect 58 5 63 6;
#X connect 58 6 63 7;
#X connect 58 7 63 8;
#X connect 58 8 63 9;
#X connect 58 9 63 10;
#X connect 58 10 63 11;
#X connect 58 11 63 12;
#X connect 58 12 63 13;
#X connect 58 13 63 14;
#X connect 58 14 63 15;
#X connect 58 15 63 16;
#X connect 58 16 67 0;
#X connect 58 17 68 0;
#X connect 59 0 62 0;
#X connect 60 0 72 0;
#X connect 61 0 73 0;
#X connect 62 0 60 0;
#X connect 62 1 61 0;
#X connect 63 0 1 0;
#X connect 63 0 34 0;
#X connect 63 1 2 0;
#X connect 63 2 3 0;
#X connect 63 3 4 0;
#X connect 63 4 5 0;
#X connect 63 5 6 0;
#X connect 63 6 7 0;
#X connect 63 7 8 0;
#X connect 63 8 9 0;
#X connect 63 9 10 0;
#X connect 63 10 11 0;
#X connect 63 11 12 0;
#X connect 63 12 13 0;
#X connect 63 13 14 0;
#X connect 63 14 15 0;
#X connect 63 15 16 0;
#X connect 63 16 17 0;
#X connect 63 17 18 0;
#X connect 63 18 19 0;
#X connect 63 19 20 0;
#X connect 63 20 21 0;
#X connect 63 21 22 0;
#X connect 63 22 23 0;
#X connect 63 23 24 0;
#X connect 63 24 25 0;
#X connect 63 25 26 0;
#X connect 63 26 27 0;
#X connect 63 27 28 0;
#X connect 63 28 29 0;
#X connect 63 29 30 0;
#X connect 63 30 31 0;
#X connect 63 31 32 0;
#X connect 63 32 35 0;
#X connect 63 33 36 0;
#X connect 63 34 37 0;
#X connect 63 35 38 0;
#X connect 63 36 39 0;
#X connect 63 37 40 0;
#X connect 63 38 41 0;
#X connect 63 39 42 0;
#X connect 63 40 43 0;
#X connect 63 41 44 0;
#X connect 63 42 45 0;
#X connect 63 43 46 0;
#X connect 63 44 47 0;
#X connect 63 45 48 0;
#X connect 63 46 49 0;
#X connect 63 47 50 0;
#X connect 63 48 51 0;
#X connect 63 49 53 0;
#X connect 63 50 54 0;
#X connect 63 51 52 0;
#X connect 64 0 65 0;
#X connect 65 0 74 0;
#X connect 66 0 67 0;
#X connect 69 0 71 0;
#X connect 70 0 68 0;
#X connect 71 0 75 0;
#X connect 72 0 60 1;
#X connect 72 0 56 1;
#X connect 73 0 61 1;
#X connect 73 0 55 1;
#X connect 74 0 66 0;
#X connect 75 0 70 0;
#X connect 76 0 80 0;
#X connect 77 0 79 0;
#X connect 77 1 85 0;
#X connect 78 0 80 0;
#X connect 79 0 78 0;
#X connect 79 1 83 0;
#X connect 80 0 63 0;
#X connect 81 0 77 0;
#X connect 81 1 77 0;
#X connect 82 0 81 0;
#X connect 84 0 76 0;
#X connect 84 1 83 1;
#X connect 85 0 84 0;
#X connect 86 0 58 18;
#X connect 88 0 58 0;
#X connect 89 0 58 1;
#X connect 90 0 58 2;
#X connect 91 0 58 3;
#X connect 92 0 58 4;
#X connect 93 0 58 5;
#X connect 94 0 58 6;
#X connect 95 0 58 7;
#X connect 96 0 58 8;
#X connect 97 0 58 9;
#X connect 98 0 58 10;
#X connect 99 0 58 11;
#X connect 100 0 58 12;
#X connect 101 0 58 13;
#X connect 102 0 58 14;
#X connect 103 0 58 15;
#X connect 104 0 55 0;
#X connect 104 0 56 0;
