#N canvas 49 26 987 820 10;
#N canvas 0 0 494 344 null~ 0;
#X obj 68 54 catch~ 0_BUS;
#X obj 68 88 throw~ 0_OUT;
#X connect 0 0 1 0;
#X restore 81 36 pd null~;
#X obj 34 58 catch~ 1_BUS;
#X obj 49 79 catch~ 2_BUS;
#X obj 64 100 catch~ 3_BUS;
#X obj 79 121 catch~ 4_BUS;
#X obj 94 141 catch~ 5_BUS;
#X obj 110 162 catch~ 6_BUS;
#X obj 125 183 catch~ 7_BUS;
#X obj 140 204 catch~ 8_BUS;
#X obj 155 62 catch~ 9_BUS;
#X obj 169 83 catch~ 10_BUS;
#X obj 12 434 throw~ 1_OUT;
#X obj 19 455 throw~ 2_OUT;
#X obj 27 479 throw~ 3_OUT;
#X obj 34 500 throw~ 4_OUT;
#X obj 44 522 throw~ 5_OUT;
#X obj 51 543 throw~ 6_OUT;
#X obj 59 567 throw~ 7_OUT;
#X obj 66 588 throw~ 8_OUT;
#X obj 76 611 throw~ 9_OUT;
#X obj 83 632 throw~ 10_OUT;
#X obj 91 656 throw~ 11_OUT;
#X obj 98 677 throw~ 12_OUT;
#X obj 108 699 throw~ 13_OUT;
#X obj 167 434 throw~ 14_OUT;
#X obj 175 458 throw~ 15_OUT;
#X obj 182 479 throw~ 16_OUT;
#X obj 191 501 throw~ 17_OUT;
#X obj 198 522 throw~ 18_OUT;
#X obj 206 546 throw~ 19_OUT;
#X obj 213 567 throw~ 20_OUT;
#X obj 223 589 throw~ 21_OUT;
#X obj 230 610 throw~ 22_OUT;
#X obj 238 634 throw~ 23_OUT;
#X obj 245 655 throw~ 24_OUT;
#X obj 253 678 throw~ 25_OUT;
#X obj 260 699 throw~ 26_OUT;
#X obj 32 35 inlet~;
#X obj 9 720 outlet~;
#X obj 185 104 catch~ 11_BUS;
#X obj 201 124 catch~ 12_BUS;
#X obj 321 25 catch~ LF_BUS;
#X obj 320 136 lp4_butt~ 75 300;
#X obj 311 94 lp4_butt~ 75 300;
#X obj 403 332 r DSP_MIX_INTERPOL_TIME;
#X obj 455 6 r DSP_get_parameters;
#X obj 455 50 f 75;
#X obj 489 92 f 75;
#X obj 464 29 t b b;
#X obj 388 176 r DSP_get_parameters;
#X obj 672 162 r DSP_get_parameters;
#X obj 672 204 sendreceive BUS_ROUTE;
#X obj 758 304 mtx_dbtorms;
#X obj 672 256 relay element matrix;
#N canvas 0 0 454 304 dbtorms 0;
#X obj 122 51 inlet;
#X obj 122 189 outlet;
#X obj 122 71 route element;
#X obj 122 96 unpack 0 0 0;
#X msg 122 163 element \$1 \$2 \$3;
#X obj 122 140 pack 0 0 0;
#X obj 201 116 dbtorms;
#X connect 0 0 2 0;
#X connect 2 0 3 0;
#X connect 3 0 5 0;
#X connect 3 1 5 1;
#X connect 3 2 6 0;
#X connect 4 0 1 0;
#X connect 5 0 4 0;
#X connect 6 0 5 2;
#X restore 672 298 pd dbtorms;
#X obj 672 278 t a a;
#X obj 672 318 t a;
#X obj 672 227 route list;
#X obj 33 228 multiline~ 0 0 0 0 0 0 0 0 0 0 0 0 0 0 50;
#X obj 374 614 r DSP_get_parameters;
#X obj 374 635 symbol 25_OUT;
#X obj 374 679 pp set;
#X obj 374 701 throw~ 25_OUT;
#X obj 390 581 throw~ 26_OUT;
#X obj 390 491 r DSP_get_parameters;
#X obj 390 556 pp set;
#X obj 390 512 symbol 26_OUT;
#X obj 455 71 sendreceive 1_OUT_LFC_HIGHCUT_FREQ;
#X obj 489 113 sendreceive 2_OUT_LFC_HIGHCUT_FREQ;
#X obj 390 533 sendreceive 2_OUT_LFC_BUS_DST;
#X obj 374 656 sendreceive 1_OUT_LFC_BUS_DST;
#N canvas 0 0 535 651 if_all_gains_are_zero 0;
#X obj 56 40 inlet;
#X obj 73 482 outlet;
#X obj 265 176 +;
#X obj 249 196 +;
#X obj 234 217 +;
#X obj 218 238 +;
#X obj 201 260 +;
#X obj 185 280 +;
#X obj 170 301 +;
#X obj 154 322 +;
#X obj 138 343 +;
#X obj 122 363 +;
#X obj 107 384 +;
#X obj 91 406 +;
#X obj 75 428 +;
#X obj 75 452 != 0;
#X obj 56 71 unpack 0 0 0 0 0 0 0 0 0 0 0 0 0 0;
#X connect 0 0 16 0;
#X connect 2 0 3 1;
#X connect 3 0 4 1;
#X connect 4 0 5 1;
#X connect 5 0 6 1;
#X connect 6 0 7 1;
#X connect 7 0 8 1;
#X connect 8 0 9 1;
#X connect 9 0 10 1;
#X connect 10 0 11 1;
#X connect 11 0 12 1;
#X connect 12 0 13 1;
#X connect 13 0 14 1;
#X connect 14 0 15 0;
#X connect 15 0 1 0;
#X connect 16 0 14 0;
#X connect 16 1 13 0;
#X connect 16 2 12 0;
#X connect 16 3 11 0;
#X connect 16 4 10 0;
#X connect 16 5 9 0;
#X connect 16 6 8 0;
#X connect 16 7 7 0;
#X connect 16 8 6 0;
#X connect 16 9 5 0;
#X connect 16 10 4 0;
#X connect 16 11 3 0;
#X connect 16 12 2 0;
#X connect 16 13 2 1;
#X restore 388 219 pd if_all_gains_are_zero;
#X obj 390 305 switch~;
#X obj 388 240 sel 0 1;
#X msg 383 283 0;
#X msg 424 283 1;
#X obj 388 262 del 50;
#X msg 438 261 stop;
#X obj 7 407 mtx_*~ 26 12 50 ____________________________;
#X obj 672 183 matrix 26 12;
#X obj 758 280 mtx_resize 26 12;
#N canvas 197 36 755 658 pack14 0;
#X obj 74 599 outlet;
#X obj 25 458 del 0;
#X obj 34 92 t b f;
#X obj 69 131 t b f;
#X obj 105 171 t b f;
#X obj 140 210 t b f;
#X obj 176 251 t b f;
#X obj 211 290 t b f;
#X obj 246 329 t b f;
#X obj 281 369 t b f;
#X obj 316 409 t b f;
#X obj 281 91 t b f;
#X obj 316 131 t b f;
#X obj 351 170 t b f;
#X obj 401 235 t b f;
#X obj 447 276 t b f;
#X obj 59 556 f;
#X obj 34 72 sendreceive 1_OUT_BUS_GAIN;
#X obj 69 111 sendreceive 2_OUT_BUS_GAIN;
#X obj 105 151 sendreceive 3_OUT_BUS_GAIN;
#X obj 140 190 sendreceive 4_OUT_BUS_GAIN;
#X obj 176 231 sendreceive 5_OUT_BUS_GAIN;
#X obj 211 270 sendreceive 6_OUT_BUS_GAIN;
#X obj 246 309 sendreceive 7_OUT_BUS_GAIN;
#X obj 281 349 sendreceive 8_OUT_BUS_GAIN;
#X obj 316 389 sendreceive 9_OUT_BUS_GAIN;
#X obj 281 71 sendreceive 10_OUT_BUS_GAIN;
#X obj 316 111 sendreceive 11_OUT_BUS_GAIN;
#X obj 351 150 sendreceive 12_OUT_BUS_GAIN;
#X obj 401 215 sendreceive 1_OUT_LFC_GAIN;
#X obj 447 256 sendreceive 2_OUT_LFC_GAIN;
#X obj 164 26 t b b b b b b b b b b b b b b b b b b;
#X obj 447 237 f 0;
#X obj 401 196 f 0;
#X obj 351 131 f 0;
#X obj 316 91 f 0;
#X obj 281 51 f 0;
#X obj 316 369 f 0;
#X obj 281 329 f 0;
#X obj 246 290 f 0;
#X obj 211 251 f 0;
#X obj 176 211 f 0;
#X obj 140 171 f 0;
#X obj 105 131 f 0;
#X obj 69 91 f 0;
#X obj 34 51 f 0;
#X obj 62 475 dbtorms;
#X obj 80 495 dbtorms;
#X obj 96 516 dbtorms;
#X obj 111 537 dbtorms;
#X obj 137 470 dbtorms;
#X obj 151 491 dbtorms;
#X obj 166 512 dbtorms;
#X obj 183 533 dbtorms;
#X obj 208 469 dbtorms;
#X obj 224 489 dbtorms;
#X obj 240 510 dbtorms;
#X obj 254 531 dbtorms;
#X obj 294 507 dbtorms;
#X obj 309 527 dbtorms;
#X obj 164 4 inlet;
#X obj 74 577 pack 0 0 0 0 0 0 0 0 0 0 0 0 0 0;
#X connect 1 0 16 0;
#X connect 2 0 1 0;
#X connect 2 1 46 0;
#X connect 3 0 1 0;
#X connect 3 1 47 0;
#X connect 4 0 1 0;
#X connect 4 1 48 0;
#X connect 5 0 1 0;
#X connect 5 1 49 0;
#X connect 6 0 1 0;
#X connect 6 1 50 0;
#X connect 7 0 1 0;
#X connect 7 1 51 0;
#X connect 8 0 1 0;
#X connect 8 1 52 0;
#X connect 9 0 1 0;
#X connect 9 1 53 0;
#X connect 10 0 1 0;
#X connect 10 1 54 0;
#X connect 11 0 1 0;
#X connect 11 1 55 0;
#X connect 12 0 1 0;
#X connect 12 1 56 0;
#X connect 13 0 1 0;
#X connect 13 1 57 0;
#X connect 14 0 1 0;
#X connect 14 1 58 0;
#X connect 15 0 1 0;
#X connect 15 1 59 0;
#X connect 16 0 61 0;
#X connect 17 0 2 0;
#X connect 17 0 45 1;
#X connect 18 0 3 0;
#X connect 18 0 44 1;
#X connect 19 0 4 0;
#X connect 19 0 43 1;
#X connect 20 0 5 0;
#X connect 20 0 42 1;
#X connect 21 0 6 0;
#X connect 21 0 41 1;
#X connect 22 0 7 0;
#X connect 22 0 40 1;
#X connect 23 0 8 0;
#X connect 23 0 39 1;
#X connect 24 0 9 0;
#X connect 24 0 38 1;
#X connect 25 0 10 0;
#X connect 25 0 37 1;
#X connect 26 0 11 0;
#X connect 26 0 36 1;
#X connect 27 0 12 0;
#X connect 27 0 35 1;
#X connect 28 0 13 0;
#X connect 28 0 34 1;
#X connect 29 0 14 0;
#X connect 29 0 33 1;
#X connect 30 0 15 0;
#X connect 30 0 32 1;
#X connect 31 0 45 0;
#X connect 31 1 44 0;
#X connect 31 2 43 0;
#X connect 31 3 42 0;
#X connect 31 4 41 0;
#X connect 31 5 40 0;
#X connect 31 6 39 0;
#X connect 31 7 38 0;
#X connect 31 8 37 0;
#X connect 31 9 36 0;
#X connect 31 10 35 0;
#X connect 31 11 34 0;
#X connect 31 12 33 0;
#X connect 31 13 32 0;
#X connect 32 0 30 0;
#X connect 33 0 29 0;
#X connect 34 0 28 0;
#X connect 35 0 27 0;
#X connect 36 0 26 0;
#X connect 37 0 25 0;
#X connect 38 0 24 0;
#X connect 39 0 23 0;
#X connect 40 0 22 0;
#X connect 41 0 21 0;
#X connect 42 0 20 0;
#X connect 43 0 19 0;
#X connect 44 0 18 0;
#X connect 45 0 17 0;
#X connect 46 0 16 1;
#X connect 47 0 61 1;
#X connect 48 0 61 2;
#X connect 49 0 61 3;
#X connect 50 0 61 4;
#X connect 51 0 61 5;
#X connect 52 0 61 6;
#X connect 53 0 61 7;
#X connect 54 0 61 8;
#X connect 55 0 61 9;
#X connect 56 0 61 10;
#X connect 57 0 61 11;
#X connect 58 0 61 12;
#X connect 59 0 61 13;
#X connect 60 0 31 0;
#X connect 61 0 0 0;
#X restore 388 197 pd pack14;
#X connect 1 0 58 0;
#X connect 2 0 58 1;
#X connect 3 0 58 2;
#X connect 4 0 58 3;
#X connect 5 0 58 4;
#X connect 6 0 58 5;
#X connect 7 0 58 6;
#X connect 8 0 58 7;
#X connect 9 0 58 8;
#X connect 10 0 58 9;
#X connect 39 0 58 10;
#X connect 40 0 58 11;
#X connect 41 0 42 0;
#X connect 41 0 43 0;
#X connect 42 0 58 13;
#X connect 43 0 58 12;
#X connect 44 0 58 15;
#X connect 44 0 76 1;
#X connect 44 0 78 13;
#X connect 45 0 48 0;
#X connect 46 0 67 0;
#X connect 47 0 68 0;
#X connect 48 0 46 0;
#X connect 48 1 47 0;
#X connect 49 0 81 0;
#X connect 50 0 79 0;
#X connect 51 0 57 0;
#X connect 52 0 56 0;
#X connect 53 0 55 0;
#X connect 53 1 79 1;
#X connect 53 1 80 0;
#X connect 54 0 56 0;
#X connect 55 0 54 0;
#X connect 55 1 79 0;
#X connect 56 0 78 0;
#X connect 57 0 53 0;
#X connect 57 1 53 0;
#X connect 58 0 78 1;
#X connect 58 1 78 2;
#X connect 58 2 78 3;
#X connect 58 3 78 4;
#X connect 58 4 78 5;
#X connect 58 5 78 6;
#X connect 58 6 78 7;
#X connect 58 7 78 8;
#X connect 58 8 78 9;
#X connect 58 9 78 10;
#X connect 58 10 78 11;
#X connect 58 11 78 12;
#X connect 58 12 62 0;
#X connect 58 13 63 0;
#X connect 59 0 60 0;
#X connect 60 0 70 0;
#X connect 61 0 62 0;
#X connect 64 0 66 0;
#X connect 65 0 63 0;
#X connect 66 0 69 0;
#X connect 67 0 46 1;
#X connect 67 0 43 1;
#X connect 68 0 47 1;
#X connect 68 0 42 1;
#X connect 69 0 65 0;
#X connect 70 0 61 0;
#X connect 71 0 73 0;
#X connect 73 0 76 0;
#X connect 73 1 75 0;
#X connect 73 1 77 0;
#X connect 74 0 72 0;
#X connect 75 0 72 0;
#X connect 76 0 74 0;
#X connect 77 0 76 0;
#X connect 78 0 11 0;
#X connect 78 0 38 0;
#X connect 78 1 12 0;
#X connect 78 2 13 0;
#X connect 78 3 14 0;
#X connect 78 4 15 0;
#X connect 78 5 16 0;
#X connect 78 6 17 0;
#X connect 78 7 18 0;
#X connect 78 8 19 0;
#X connect 78 9 20 0;
#X connect 78 10 21 0;
#X connect 78 11 22 0;
#X connect 78 12 23 0;
#X connect 78 13 24 0;
#X connect 78 14 25 0;
#X connect 78 15 26 0;
#X connect 78 16 27 0;
#X connect 78 17 28 0;
#X connect 78 18 29 0;
#X connect 78 19 30 0;
#X connect 78 20 31 0;
#X connect 78 21 32 0;
#X connect 78 22 33 0;
#X connect 78 23 34 0;
#X connect 78 24 35 0;
#X connect 78 25 36 0;
#X connect 79 0 51 0;
#X connect 80 0 52 0;
#X connect 81 0 58 14;
#X connect 81 0 71 0;
