#N canvas 96 9 712 678 10;
#N canvas 0 0 490 340 null~ 0;
#X obj 68 54 catch~ 0_BUS;
#X obj 68 88 throw~ 0_OUT;
#X connect 0 0 1 0;
#X restore 84 23 pd null~;
#X obj 37 45 catch~ 1_BUS;
#X obj 56 66 catch~ 2_BUS;
#X obj 76 87 catch~ 3_BUS;
#X obj 97 108 catch~ 4_BUS;
#X obj 118 128 catch~ 5_BUS;
#X obj 139 149 catch~ 6_BUS;
#X obj 160 170 catch~ 7_BUS;
#X obj 181 191 catch~ 8_BUS;
#X obj 202 49 catch~ 9_BUS;
#X obj 222 70 catch~ 10_BUS;
#X obj 35 264 throw~ 1_OUT;
#X obj 42 285 throw~ 2_OUT;
#X obj 50 309 throw~ 3_OUT;
#X obj 57 330 throw~ 4_OUT;
#X obj 67 352 throw~ 5_OUT;
#X obj 74 373 throw~ 6_OUT;
#X obj 82 397 throw~ 7_OUT;
#X obj 89 418 throw~ 8_OUT;
#X obj 99 441 throw~ 9_OUT;
#X obj 106 462 throw~ 10_OUT;
#X obj 114 486 throw~ 11_OUT;
#X obj 121 507 throw~ 12_OUT;
#X obj 131 529 throw~ 13_OUT;
#X obj 138 550 throw~ 14_OUT;
#X obj 146 574 throw~ 15_OUT;
#X obj 153 595 throw~ 16_OUT;
#X obj 148 262 throw~ 17_OUT;
#X obj 155 283 throw~ 18_OUT;
#X obj 163 307 throw~ 19_OUT;
#X obj 170 328 throw~ 20_OUT;
#X obj 180 350 throw~ 21_OUT;
#X obj 187 371 throw~ 22_OUT;
#X obj 195 395 throw~ 23_OUT;
#X obj 202 416 throw~ 24_OUT;
#X obj 210 439 throw~ 25_OUT;
#X obj 217 460 throw~ 26_OUT;
#X obj 225 484 throw~ 27_OUT;
#X obj 232 505 throw~ 28_OUT;
#X obj 242 526 throw~ 29_OUT;
#X obj 249 548 throw~ 30_OUT;
#X obj 257 572 throw~ 31_OUT;
#X obj 264 593 throw~ 32_OUT;
#X obj 35 22 inlet~;
#X obj 28 424 outlet~;
#X obj 243 91 catch~ 11_BUS;
#X obj 264 111 catch~ 12_BUS;
#X obj 285 131 catch~ 13_BUS;
#X obj 306 152 catch~ 14_BUS;
#X obj 327 172 catch~ 15_BUS;
#X obj 348 193 catch~ 16_BUS;
#X obj 259 262 throw~ 33_OUT;
#X obj 266 283 throw~ 34_OUT;
#X obj 274 307 throw~ 35_OUT;
#X obj 281 328 throw~ 36_OUT;
#X obj 291 349 throw~ 37_OUT;
#X obj 298 371 throw~ 38_OUT;
#X obj 306 395 throw~ 39_OUT;
#X obj 315 416 throw~ 40_OUT;
#X obj 325 438 throw~ 41_OUT;
#X obj 334 459 throw~ 42_OUT;
#X obj 342 483 throw~ 43_OUT;
#X obj 349 504 throw~ 44_OUT;
#X obj 359 525 throw~ 45_OUT;
#X obj 366 547 throw~ 46_OUT;
#X obj 374 571 throw~ 47_OUT;
#X obj 381 592 throw~ 48_OUT;
#X obj 370 264 throw~ 49_OUT;
#X obj 393 329 throw~ 52_OUT;
#X obj 379 286 throw~ 50_OUT;
#X obj 386 308 throw~ 51_OUT;
#X obj 369 26 catch~ LF_BUS;
#X obj 36 239 matrix_mul_line8~ 18 52 50 _________________________________
;
#X obj 36 215 matrix_diag_mul_line8~ 18 50 _______________________________
;
#X obj 392 151 lp4_butt~ 75 300;
#X obj 369 91 lp4_butt~ 75 300;
#X msg 142 45 time \$1;
#X obj 142 23 r DSP_MIX_INTERPOL_TIME;
#X connect 1 0 73 0;
#X connect 2 0 73 1;
#X connect 3 0 73 2;
#X connect 4 0 73 3;
#X connect 5 0 73 4;
#X connect 6 0 73 5;
#X connect 7 0 73 6;
#X connect 8 0 73 7;
#X connect 9 0 73 8;
#X connect 10 0 73 9;
#X connect 45 0 73 10;
#X connect 46 0 73 11;
#X connect 47 0 73 12;
#X connect 48 0 73 13;
#X connect 49 0 73 14;
#X connect 50 0 73 15;
#X connect 71 0 74 0;
#X connect 71 0 75 0;
#X connect 72 0 11 0;
#X connect 72 0 44 0;
#X connect 72 1 12 0;
#X connect 72 2 13 0;
#X connect 72 3 14 0;
#X connect 72 4 15 0;
#X connect 72 5 16 0;
#X connect 72 6 17 0;
#X connect 72 7 18 0;
#X connect 72 8 19 0;
#X connect 72 9 20 0;
#X connect 72 10 21 0;
#X connect 72 11 22 0;
#X connect 72 12 23 0;
#X connect 72 13 24 0;
#X connect 72 14 25 0;
#X connect 72 15 26 0;
#X connect 72 16 27 0;
#X connect 72 17 28 0;
#X connect 72 18 29 0;
#X connect 72 19 30 0;
#X connect 72 20 31 0;
#X connect 72 21 32 0;
#X connect 72 22 33 0;
#X connect 72 23 34 0;
#X connect 72 24 35 0;
#X connect 72 25 36 0;
#X connect 72 26 37 0;
#X connect 72 27 38 0;
#X connect 72 28 39 0;
#X connect 72 29 40 0;
#X connect 72 30 41 0;
#X connect 72 31 42 0;
#X connect 72 32 51 0;
#X connect 72 33 52 0;
#X connect 72 34 53 0;
#X connect 72 35 54 0;
#X connect 72 36 55 0;
#X connect 72 37 56 0;
#X connect 72 38 57 0;
#X connect 72 39 58 0;
#X connect 72 40 59 0;
#X connect 72 41 60 0;
#X connect 72 42 61 0;
#X connect 72 43 62 0;
#X connect 72 44 63 0;
#X connect 72 45 64 0;
#X connect 72 46 65 0;
#X connect 72 47 66 0;
#X connect 72 48 67 0;
#X connect 72 49 69 0;
#X connect 72 50 70 0;
#X connect 72 51 68 0;
#X connect 73 0 72 0;
#X connect 73 1 72 1;
#X connect 73 2 72 2;
#X connect 73 3 72 3;
#X connect 73 4 72 4;
#X connect 73 5 72 5;
#X connect 73 6 72 6;
#X connect 73 7 72 7;
#X connect 73 8 72 8;
#X connect 73 9 72 9;
#X connect 73 10 72 10;
#X connect 73 11 72 11;
#X connect 73 12 72 12;
#X connect 73 13 72 13;
#X connect 73 14 72 14;
#X connect 73 15 72 15;
#X connect 73 16 72 16;
#X connect 73 17 72 17;
#X connect 74 0 73 17;
#X connect 75 0 73 16;
#X connect 76 0 72 0;
#X connect 76 0 73 0;
#X connect 77 0 76 0;
