#N canvas 96 9 684 720 10;
#N canvas 0 0 490 340 null~ 0;
#X obj 68 54 catch~ 0_BUS;
#X obj 68 88 throw~ 0_OUT;
#X connect 0 0 1 0;
#X restore 84 23 pd null~;
#X obj 37 45 catch~ 1_BUS;
#X obj 56 66 catch~ 2_BUS;
#X obj 76 87 catch~ 3_BUS;
#X obj 97 108 catch~ 4_BUS;
#X obj 118 128 catch~ 5_BUS;
#X obj 139 149 catch~ 6_BUS;
#X obj 160 170 catch~ 7_BUS;
#X obj 181 191 catch~ 8_BUS;
#X obj 202 49 catch~ 9_BUS;
#X obj 222 70 catch~ 10_BUS;
#X obj 35 264 throw~ 1_OUT;
#X obj 42 285 throw~ 2_OUT;
#X obj 50 309 throw~ 3_OUT;
#X obj 57 330 throw~ 4_OUT;
#X obj 67 352 throw~ 5_OUT;
#X obj 74 373 throw~ 6_OUT;
#X obj 82 397 throw~ 7_OUT;
#X obj 89 418 throw~ 8_OUT;
#X obj 99 441 throw~ 9_OUT;
#X obj 106 462 throw~ 10_OUT;
#X obj 114 486 throw~ 11_OUT;
#X obj 121 507 throw~ 12_OUT;
#X obj 131 529 throw~ 13_OUT;
#X obj 138 550 throw~ 14_OUT;
#X obj 146 574 throw~ 15_OUT;
#X obj 153 595 throw~ 16_OUT;
#X obj 148 262 throw~ 17_OUT;
#X obj 155 283 throw~ 18_OUT;
#X obj 163 307 throw~ 19_OUT;
#X obj 170 328 throw~ 20_OUT;
#X obj 180 350 throw~ 21_OUT;
#X obj 187 371 throw~ 22_OUT;
#X obj 195 395 throw~ 23_OUT;
#X obj 202 416 throw~ 24_OUT;
#X obj 210 439 throw~ 25_OUT;
#X obj 217 460 throw~ 26_OUT;
#X obj 225 484 throw~ 27_OUT;
#X obj 232 505 throw~ 28_OUT;
#X obj 242 526 throw~ 29_OUT;
#X obj 249 548 throw~ 30_OUT;
#X obj 257 572 throw~ 31_OUT;
#X obj 264 593 throw~ 32_OUT;
#X obj 35 22 inlet~;
#X obj 28 424 outlet~;
#X obj 243 91 catch~ 11_BUS;
#X obj 264 111 catch~ 12_BUS;
#X obj 285 131 catch~ 13_BUS;
#X obj 306 152 catch~ 14_BUS;
#X obj 327 172 catch~ 15_BUS;
#X obj 348 193 catch~ 16_BUS;
#X obj 259 262 throw~ 33_OUT;
#X obj 266 283 throw~ 34_OUT;
#X obj 274 307 throw~ 35_OUT;
#X obj 281 328 throw~ 36_OUT;
#X obj 291 349 throw~ 37_OUT;
#X obj 298 371 throw~ 38_OUT;
#X obj 306 395 throw~ 39_OUT;
#X obj 315 416 throw~ 40_OUT;
#X obj 325 438 throw~ 41_OUT;
#X obj 334 459 throw~ 42_OUT;
#X obj 342 483 throw~ 43_OUT;
#X obj 349 504 throw~ 44_OUT;
#X obj 359 525 throw~ 45_OUT;
#X obj 366 547 throw~ 46_OUT;
#X obj 374 571 throw~ 47_OUT;
#X obj 381 592 throw~ 48_OUT;
#X obj 370 264 throw~ 49_OUT;
#X obj 393 329 throw~ 52_OUT;
#X obj 379 286 throw~ 50_OUT;
#X obj 386 308 throw~ 51_OUT;
#X obj 369 26 catch~ LF_BUS;
#X obj 392 151 lp4_butt~ 75 300;
#X obj 369 91 lp4_butt~ 75 300;
#X obj 451 204 r DSP_MIX_INTERPOL_TIME;
#X obj 36 239 mtx_*~ 52 18 50 ____________________________________________
;
#X obj 36 215 multiline~ 0 0 0 0 0 0 0 0 0 0 0 0 0 0 0 0 0 0 50;
#N canvas 120 0 995 353 pack18 0;
#X obj 78 311 outlet;
#X obj 78 289 pack 0 0 0 0 0 0 0 0 0 0 0 0 0 0 0 0 0 0;
#X obj 78 245 del 0;
#X obj 0 0 r OUT_BUS_1_GAIN;
#X obj 0 20 t b f;
#X obj 50 20 r OUT_BUS_2_GAIN;
#X obj 50 40 t b f;
#X obj 100 40 r OUT_BUS_3_GAIN;
#X obj 100 60 t b f;
#X obj 150 60 r OUT_BUS_4_GAIN;
#X obj 150 80 t b f;
#X obj 200 0 r OUT_BUS_5_GAIN;
#X obj 200 20 t b f;
#X obj 250 20 r OUT_BUS_6_GAIN;
#X obj 250 40 t b f;
#X obj 300 40 r OUT_BUS_7_GAIN;
#X obj 300 60 t b f;
#X obj 350 60 r OUT_BUS_8_GAIN;
#X obj 350 80 t b f;
#X obj 400 0 r OUT_BUS_9_GAIN;
#X obj 400 20 t b f;
#X obj 450 20 r OUT_BUS_10_GAIN;
#X obj 450 40 t b f;
#X obj 500 40 r OUT_BUS_11_GAIN;
#X obj 500 60 t b f;
#X obj 550 60 r OUT_BUS_12_GAIN;
#X obj 550 80 t b f;
#X obj 600 0 r OUT_BUS_13_GAIN;
#X obj 600 20 t b f;
#X obj 650 20 r OUT_BUS_14_GAIN;
#X obj 650 40 t b f;
#X obj 700 40 r OUT_BUS_15_GAIN;
#X obj 700 60 t b f;
#X obj 750 60 r OUT_BUS_16_GAIN;
#X obj 750 80 t b f;
#X obj 800 20 t b f;
#X obj 850 40 t b f;
#X obj 800 0 r OUT_SUB_1_GAIN;
#X obj 850 20 r OUT_SUB_2_GAIN;
#X obj 78 268 f;
#X connect 1 0 0 0;
#X connect 2 0 39 0;
#X connect 3 0 4 0;
#X connect 4 0 2 0;
#X connect 4 1 39 1;
#X connect 5 0 6 0;
#X connect 6 0 2 0;
#X connect 6 1 1 1;
#X connect 7 0 8 0;
#X connect 8 0 2 0;
#X connect 8 1 1 2;
#X connect 9 0 10 0;
#X connect 10 0 2 0;
#X connect 10 1 1 3;
#X connect 11 0 12 0;
#X connect 12 0 2 0;
#X connect 12 1 1 4;
#X connect 13 0 14 0;
#X connect 14 0 2 0;
#X connect 14 1 1 5;
#X connect 15 0 16 0;
#X connect 16 0 2 0;
#X connect 16 1 1 6;
#X connect 17 0 18 0;
#X connect 18 0 2 0;
#X connect 18 1 1 7;
#X connect 19 0 20 0;
#X connect 20 0 2 0;
#X connect 20 1 1 8;
#X connect 21 0 22 0;
#X connect 22 0 2 0;
#X connect 22 1 1 9;
#X connect 23 0 24 0;
#X connect 24 0 2 0;
#X connect 24 1 1 10;
#X connect 25 0 26 0;
#X connect 26 0 2 0;
#X connect 26 1 1 11;
#X connect 27 0 28 0;
#X connect 28 0 2 0;
#X connect 28 1 1 12;
#X connect 29 0 30 0;
#X connect 30 0 2 0;
#X connect 30 1 1 13;
#X connect 31 0 32 0;
#X connect 32 0 2 0;
#X connect 32 1 1 14;
#X connect 33 0 34 0;
#X connect 34 0 2 0;
#X connect 34 1 1 15;
#X connect 35 0 2 0;
#X connect 35 1 1 16;
#X connect 36 0 2 0;
#X connect 36 1 1 17;
#X connect 37 0 35 0;
#X connect 38 0 36 0;
#X connect 39 0 1 0;
#X restore 454 183 pd pack18;
#X connect 1 0 76 0;
#X connect 2 0 76 1;
#X connect 3 0 76 2;
#X connect 4 0 76 3;
#X connect 5 0 76 4;
#X connect 6 0 76 5;
#X connect 7 0 76 6;
#X connect 8 0 76 7;
#X connect 9 0 76 8;
#X connect 10 0 76 9;
#X connect 45 0 76 10;
#X connect 46 0 76 11;
#X connect 47 0 76 12;
#X connect 48 0 76 13;
#X connect 49 0 76 14;
#X connect 50 0 76 15;
#X connect 71 0 72 0;
#X connect 71 0 73 0;
#X connect 72 0 76 17;
#X connect 73 0 76 16;
#X connect 74 0 75 19;
#X connect 74 0 76 19;
#X connect 75 0 11 0;
#X connect 75 0 44 0;
#X connect 75 1 12 0;
#X connect 75 2 13 0;
#X connect 75 3 14 0;
#X connect 75 4 15 0;
#X connect 75 5 16 0;
#X connect 75 6 17 0;
#X connect 75 7 18 0;
#X connect 75 8 19 0;
#X connect 75 9 20 0;
#X connect 75 10 21 0;
#X connect 75 11 22 0;
#X connect 75 12 23 0;
#X connect 75 13 24 0;
#X connect 75 14 25 0;
#X connect 75 15 26 0;
#X connect 75 16 27 0;
#X connect 75 17 28 0;
#X connect 75 18 29 0;
#X connect 75 19 30 0;
#X connect 75 20 31 0;
#X connect 75 21 32 0;
#X connect 75 22 33 0;
#X connect 75 23 34 0;
#X connect 75 24 35 0;
#X connect 75 25 36 0;
#X connect 75 26 37 0;
#X connect 75 27 38 0;
#X connect 75 28 39 0;
#X connect 75 29 40 0;
#X connect 75 30 41 0;
#X connect 75 31 42 0;
#X connect 75 32 51 0;
#X connect 75 33 52 0;
#X connect 75 34 53 0;
#X connect 75 35 54 0;
#X connect 75 36 55 0;
#X connect 75 37 56 0;
#X connect 75 38 57 0;
#X connect 75 39 58 0;
#X connect 75 40 59 0;
#X connect 75 41 60 0;
#X connect 75 42 61 0;
#X connect 75 43 62 0;
#X connect 75 44 63 0;
#X connect 75 45 64 0;
#X connect 75 46 65 0;
#X connect 75 47 66 0;
#X connect 75 48 67 0;
#X connect 75 49 69 0;
#X connect 75 50 70 0;
#X connect 75 51 68 0;
#X connect 76 0 75 1;
#X connect 76 1 75 2;
#X connect 76 2 75 3;
#X connect 76 3 75 4;
#X connect 76 4 75 5;
#X connect 76 5 75 6;
#X connect 76 6 75 7;
#X connect 76 7 75 8;
#X connect 76 8 75 9;
#X connect 76 9 75 10;
#X connect 76 10 75 11;
#X connect 76 11 75 12;
#X connect 76 12 75 13;
#X connect 76 13 75 14;
#X connect 76 14 75 15;
#X connect 76 15 75 16;
#X connect 76 16 75 17;
#X connect 76 17 75 18;
#X connect 77 0 76 18;
