#N canvas 77 338 583 375 10;
#X obj 30 48 inlet~;
#X obj 86 131 t f f;
#X obj 111 153 > 0;
#X obj 149 282 switch~;
#X obj 142 204 sel 0 1;
#X obj 130 234 del 50;
#X msg 130 255 0;
#X msg 172 255 1;
#X obj 31 237 mull~ 0 50;
#X obj 92 180 r DSP_MIX_INTERPOL_TIME;
#X obj 86 41 r DSP_get_parameters;
#X obj 86 63 f 0;
#X obj 86 110 dbtorms;
#X obj 86 87 sendreceive \$1_IN_BUS_1_GAIN;
#X obj 362 57 pack \$1 \$2;
#X msg 362 18 bang;
#X obj 376 37 loadbang;
#X msg 362 103 symbol \$1_GAIN;
#X obj 30 266 throw~ \$2_BUS;
#X obj 362 78 makesymbol %s_IN_BUS_%s;
#X connect 0 0 8 0;
#X connect 1 0 8 1;
#X connect 1 1 2 0;
#X connect 2 0 4 0;
#X connect 4 0 5 0;
#X connect 4 1 7 0;
#X connect 5 0 6 0;
#X connect 6 0 3 0;
#X connect 7 0 3 0;
#X connect 8 0 18 0;
#X connect 9 0 8 2;
#X connect 9 0 5 1;
#X connect 10 0 11 0;
#X connect 11 0 13 0;
#X connect 12 0 1 0;
#X connect 13 0 11 1;
#X connect 13 0 12 0;
#X connect 14 0 19 0;
#X connect 15 0 14 0;
#X connect 16 0 14 0;
#X connect 17 0 13 1;
#X connect 19 0 17 0;
