#N canvas 0 0 450 300 10;
#X obj 41 44 inlet~;
#X text 96 44 BUS_OUT;
#X text 295 77;
#X obj 56 144 pp set;
#X text 144 174 default ist BUS_Number;
#X obj 39 186 throw~ \$1_OUT;
#X obj 56 122 receive_parameter \$1_OUT_BUS_DST;
#X text 140 80 1.arg: <float> n_out (eg. 1 for 1_OUT_BUST_DEST);
#X connect 0 0 5 0;
#X connect 3 0 5 0;
#X connect 6 0 3 0;
