#N canvas 313 309 563 402 10;
#X obj 45 327 dac~ \$1;
#X obj 44 111 z~ 0;
#X obj 135 59 unpack f f;
#X obj 43 44 catch~ \$1_OUT;
#X obj 141 324 s~ \$1_DAC;
#X obj 42 18 inlet~;
#X text 205 59 del + gain;
#X obj 135 38 r \$1_compensation_del_gain;
#X obj 162 124 pack \$1 f f;
#X obj 168 96 t b f;
#X obj 162 156 print del_amp;
#X obj 75 224 t b f;
#X obj 64 250 * 1;
#X obj 129 240 r DSP_MIX_INTERPOL_TIME;
#X obj 45 272 mull~ 0 50;
#X text 159 270 1.arg: <float> dac index;
#X text 161 282 2.arg: <float> dollar-0 unique number of parent patch
;
#X obj 64 197 r \$2lin_OUT_MASTER_GAIN;
#X obj 305 118 DSP_label OUT \$1_DAC;
#X connect 1 0 14 0;
#X connect 2 0 1 0;
#X connect 2 0 9 0;
#X connect 2 1 8 2;
#X connect 2 1 11 0;
#X connect 3 0 1 0;
#X connect 7 0 2 0;
#X connect 8 0 10 0;
#X connect 9 0 8 0;
#X connect 9 1 8 1;
#X connect 11 0 12 0;
#X connect 11 1 12 1;
#X connect 12 0 14 1;
#X connect 13 0 14 2;
#X connect 14 0 4 0;
#X connect 14 0 0 0;
#X connect 17 0 12 0;
