#N canvas 0 0 551 390 10;
#X obj 44 208 dac~ \$1;
#X obj 44 111 z~ 0;
#X obj 44 153 *~ 1;
#X obj 135 59 unpack f f;
#X obj 43 44 catch~ \$1_OUT;
#X obj 140 205 s~ \$1_DAC;
#X obj 42 18 inlet~;
#X text 205 59 del + gain;
#X obj 135 38 r \$1_compensation_del_gain;
#X obj 162 124 pack \$1 f f;
#X obj 168 96 t b f;
#X obj 162 156 print del_amp;
#X connect 1 0 2 0;
#X connect 2 0 5 0;
#X connect 2 0 0 0;
#X connect 3 0 1 0;
#X connect 3 0 10 0;
#X connect 3 1 2 1;
#X connect 3 1 9 2;
#X connect 4 0 1 0;
#X connect 8 0 3 0;
#X connect 9 0 11 0;
#X connect 10 0 9 0;
#X connect 10 1 9 1;
