#N canvas 0 0 519 358 10;
#X obj 44 208 dac~ \$1;
#X obj 43 174 z~ 0;
#X obj 43 122 *~ 1;
#X obj 146 43 r \$1_compensation_gain_del;
#X obj 146 64 unpack f f;
#X obj 43 44 catch~ \$1_OUT;
#X obj 140 205 s~ \$1_DAC;
#X obj 42 18 inlet~;
#X connect 1 0 0 0;
#X connect 1 0 6 0;
#X connect 2 0 1 0;
#X connect 3 0 4 0;
#X connect 4 0 2 1;
#X connect 4 1 1 0;
#X connect 5 0 2 0;
