#N canvas 1632 299 647 365 10;
#X obj 55 271 inlet~;
#X obj 57 333 outlet~;
#X obj 56 298 mull~ 1 50;
#X obj 191 275 select 1;
#X msg 191 299 0;
#X obj 191 319 f;
#X msg 220 299 1;
#X obj 284 37 DSP_label PLUGIN none;
#X obj 191 251 r \$1_used;
#X obj 105 227 s \$1_slot;
#X obj 105 117 receive_setting /IN/\$2/PLUGIN/\$3;
#X obj 374 110 receive_setting /IN/\$2/PLUGIN/\$3/ON;
#X text 102 40 \$1==parenddollarzero;
#X text 103 57 \$2==#INCH;
#X text 103 77 \$3=plugin-slot;
#X text 390 90 on/off;
#X text 114 102 select plugin for slot;
#N canvas 282 324 760 300 notes 0;
#X text 68 88 problem:;
#X text 92 105 when a plugin is turned on and then the plugin is changed
\, the old one is still active \, and the new one not;
#X text 74 153 solution:;
#X text 118 174 changing the plugin in the slot will turn all plugins
OFF and then turn the active one ON again (or not);
#X text 123 209 changing ON/OFF should be propagated to all plugins
;
#X restore 342 278 pd notes;
#X obj 105 168 pack s 0;
#X obj 105 146 symbol none;
#X obj 189 147 t b f;
#X obj 105 187 list trim;
#X obj 105 206 t a b;
#X connect 0 0 2 0;
#X connect 2 0 1 0;
#X connect 3 0 4 0;
#X connect 4 0 5 0;
#X connect 5 0 2 1;
#X connect 6 0 5 0;
#X connect 8 0 3 0;
#X connect 10 0 19 0;
#X connect 11 0 20 0;
#X connect 18 0 21 0;
#X connect 19 0 18 0;
#X connect 20 0 19 0;
#X connect 20 1 18 1;
#X connect 21 0 22 0;
#X connect 22 0 9 0;
#X connect 22 1 6 0;
