#N canvas 0 5 1012 718 10;
#N canvas 0 0 494 344 null~ 0;
#X obj 45 38 catch~ 0_OUT;
#X obj 45 62 s~ 0_DAC;
#X connect 0 0 1 0;
#X restore 50 60 pd null~;
#X obj 663 496 matrix 2 24;
#X obj 843 437 textfile;
#X obj 810 136 openpanel;
#X obj 810 113 bng 15 250 50 0 empty empty empty 0 -6 0 8 -262144 -1
-1;
#X msg 809 160 read \$1 cr;
#X obj 806 293 bng 15 250 50 0 empty empty empty 0 -6 0 8 -262144 -1
-1;
#X msg 918 405 rewind;
#X obj 789 511 pp;
#X obj 800 313 del 20;
#X obj 662 390 del 20;
#X msg 662 474 col \$1;
#X obj 701 622 iem_s;
#X obj 741 560 makefilename %d_compensation_gain_del;
#X msg 741 581 set \$1;
#X obj 662 450 t f f;
#X obj 687 38 inlet;
#X text 638 20 compensation-filename;
#X obj 687 126 symbol \$2;
#X text 391 67 1.arg: <float> number of DACs;
#X obj 687 70 route set ON_OFF;
#X obj 662 411 for++ 1 24 0.1;
#X obj 680 189 for++ 1 24 0.1;
#X obj 732 93 sel 0 1;
#X msg 680 273 \$1 0 1;
#X obj 680 213 t f f;
#X text 391 79 2.arg: <symbol> name of compensation file;
#X msg 777 438 row 2;
#X msg 827 508 row 1;
#X obj 843 482 spigot;
#X msg 937 448 0;
#X msg 906 447 1;
#X obj 800 341 t b b b b b b b b b;
#X obj 872 508 spigot;
#X msg 919 474 0;
#X msg 947 474 1;
#X msg 872 530 \$2;
#X obj 724 476 mtx_zeros;
#X obj 52 32 inlet~;
#X obj 264 588 outlet~;
#X obj 50 80 catch_out_2_dac~ 1;
#X obj 50 100 catch_out_2_dac~ 2;
#X obj 50 120 catch_out_2_dac~ 3;
#X obj 50 140 catch_out_2_dac~ 4;
#X obj 50 160 catch_out_2_dac~ 5;
#X obj 50 180 catch_out_2_dac~ 6;
#X obj 50 200 catch_out_2_dac~ 7;
#X obj 50 220 catch_out_2_dac~ 8;
#X obj 50 240 catch_out_2_dac~ 9;
#X obj 50 260 catch_out_2_dac~ 10;
#X obj 50 280 catch_out_2_dac~ 11;
#X obj 50 300 catch_out_2_dac~ 12;
#X obj 50 320 catch_out_2_dac~ 13;
#X obj 50 340 catch_out_2_dac~ 14;
#X obj 50 360 catch_out_2_dac~ 15;
#X obj 50 380 catch_out_2_dac~ 16;
#X obj 50 400 catch_out_2_dac~ 17;
#X obj 50 420 catch_out_2_dac~ 18;
#X obj 50 440 catch_out_2_dac~ 19;
#X obj 50 460 catch_out_2_dac~ 20;
#X obj 50 480 catch_out_2_dac~ 21;
#X obj 50 500 catch_out_2_dac~ 22;
#X obj 50 520 catch_out_2_dac~ 23;
#X obj 50 540 catch_out_2_dac~ 24;
#X obj 50 560 catch_out_2_dac~ 25;
#X obj 50 580 catch_out_2_dac~ 26;
#X obj 50 600 catch_out_2_dac~ 27;
#X obj 50 620 catch_out_2_dac~ 28;
#X obj 50 640 catch_out_2_dac~ 29;
#X obj 50 660 catch_out_2_dac~ 30;
#X obj 50 680 catch_out_2_dac~ 31;
#X obj 50 700 catch_out_2_dac~ 32;
#X obj 50 720 catch_out_2_dac~ 33;
#X obj 50 740 catch_out_2_dac~ 34;
#X obj 50 760 catch_out_2_dac~ 35;
#X obj 50 780 catch_out_2_dac~ 36;
#X obj 50 800 catch_out_2_dac~ 37;
#X obj 50 820 catch_out_2_dac~ 38;
#X obj 50 840 catch_out_2_dac~ 39;
#X obj 50 860 catch_out_2_dac~ 40;
#X obj 50 880 catch_out_2_dac~ 41;
#X obj 50 900 catch_out_2_dac~ 42;
#X obj 50 920 catch_out_2_dac~ 43;
#X obj 50 940 catch_out_2_dac~ 44;
#X obj 50 960 catch_out_2_dac~ 45;
#X obj 50 980 catch_out_2_dac~ 46;
#X obj 50 1000 catch_out_2_dac~ 47;
#X obj 50 1020 catch_out_2_dac~ 48;
#X obj 50 1040 catch_out_2_dac~ 49;
#X obj 50 1060 catch_out_2_dac~ 50;
#X obj 50 1080 catch_out_2_dac~ 51;
#X obj 50 1100 catch_out_2_dac~ 52;
#X connect 1 0 12 0;
#X connect 2 0 29 0;
#X connect 2 0 33 0;
#X connect 3 0 5 0;
#X connect 4 0 3 0;
#X connect 5 0 2 0;
#X connect 5 0 6 0;
#X connect 6 0 9 0;
#X connect 7 0 2 0;
#X connect 8 0 1 0;
#X connect 9 0 10 0;
#X connect 9 0 32 0;
#X connect 10 0 21 0;
#X connect 11 0 1 0;
#X connect 13 0 14 0;
#X connect 14 0 12 1;
#X connect 15 0 11 0;
#X connect 15 1 13 0;
#X connect 16 0 20 0;
#X connect 18 0 5 0;
#X connect 20 0 18 0;
#X connect 20 1 23 0;
#X connect 21 0 15 0;
#X connect 22 0 25 0;
#X connect 23 0 22 0;
#X connect 23 1 6 0;
#X connect 24 0 12 0;
#X connect 25 0 24 0;
#X connect 25 1 13 0;
#X connect 27 0 8 1;
#X connect 28 0 8 1;
#X connect 29 0 8 0;
#X connect 30 0 29 1;
#X connect 31 0 29 1;
#X connect 32 0 2 0;
#X connect 32 1 27 0;
#X connect 32 2 2 0;
#X connect 32 3 28 0;
#X connect 32 5 31 0;
#X connect 32 5 34 0;
#X connect 32 6 2 0;
#X connect 32 7 30 0;
#X connect 32 7 35 0;
#X connect 32 8 7 0;
#X connect 33 0 36 0;
#X connect 33 0 37 0;
#X connect 34 0 33 1;
#X connect 35 0 33 1;
#X connect 36 0 21 1;
#X connect 36 0 22 1;
#X connect 37 0 1 1;
