#N canvas 1346 260 984 557 10;
#X obj 680 389 matrix 2 24;
#X obj 756 170 openpanel;
#X obj 756 147 bng 15 250 50 0 empty empty empty 0 -6 0 8 -262144 -1
-1;
#X obj 680 221 bng 15 250 50 0 empty empty empty 0 -6 0 8 -262144 -1
-1;
#X obj 680 245 del 20;
#X msg 680 349 col \$1;
#X obj 656 486 iem_s;
#X msg 696 445 set \$1;
#X obj 680 325 t f f;
#X obj 687 38 inlet;
#X text 638 20 compensation-filename;
#X obj 687 167 symbol \$2;
#X text 230 41 1.arg: <float> number of DACs;
#X obj 687 70 route set ON_OFF;
#X obj 680 300 for++ 1 24 0.1;
#X obj 573 221 for++ 1 24 0.1;
#X obj 732 93 sel 0 1;
#X text 230 53 2.arg: <symbol> name of compensation file;
#X msg 756 193 read \$1;
#X text 548 479 del + gain;
#X msg 573 271 0 1;
#X obj 696 424 makefilename %d_compensation_del_gain;
#X obj 573 245 t b f;
#X obj 766 233 print compensation;
#X obj 219 119 dbtorms;
#X obj 230 142 s \$0lin_OUT_MASTER_GAIN;
#X obj 219 97 receive_regname OUT_MASTER_GAIN;
#N canvas 1974 37 420 305 out_master_vol~ 0;
#X obj 37 114 pack 0 50;
#X obj 35 24 inlet;
#X obj 124 59 r DSP_MIX_INTERPOL_TIME;
#X obj 54 59 loadbang;
#X obj 39 171 s~ lin_out_master_gain~;
#X text 160 113 send mastergain signal to vol outs;
#X obj 39 146 line~;
#X connect 0 0 6 0;
#X connect 1 0 0 0;
#X connect 2 0 0 1;
#X connect 3 0 0 0;
#X connect 6 0 4 0;
#X restore 219 168 pd out_master_vol~;
#X text 508 196 only first 24 are compensated;
#N canvas 0 0 498 348 null~ 0;
#X obj 45 38 catch~ 0_OUT;
#X obj 45 62 s~ 0_DAC;
#X connect 0 0 1 0;
#X restore 62 80 pd null~;
#X obj 52 32 inlet~;
#X obj 55 434 outlet~;
#X obj 53 120 \$1_DAC_OUTS~ \$0;
#X connect 0 0 6 0;
#X connect 1 0 18 0;
#X connect 2 0 1 0;
#X connect 3 0 4 0;
#X connect 4 0 14 0;
#X connect 5 0 0 0;
#X connect 7 0 6 1;
#X connect 8 0 5 0;
#X connect 8 1 21 0;
#X connect 9 0 13 0;
#X connect 11 0 18 0;
#X connect 13 0 11 0;
#X connect 13 1 16 0;
#X connect 14 0 8 0;
#X connect 15 0 22 0;
#X connect 16 0 15 0;
#X connect 16 1 11 0;
#X connect 18 0 3 0;
#X connect 18 0 0 0;
#X connect 18 0 23 0;
#X connect 20 0 6 0;
#X connect 21 0 7 0;
#X connect 22 0 20 0;
#X connect 22 1 21 0;
#X connect 24 0 25 0;
#X connect 24 0 27 0;
#X connect 26 0 24 0;
#X connect 30 0 32 0;
#X connect 32 0 31 0;
