#N canvas 308 110 866 514 10;
#X obj 129 105 r DSP_getLabel;
#X obj 215 362 s DSP_setLabel;
#X obj 129 149 symbol;
#X obj 129 197 t b b;
#X obj 215 314 pack s s;
#X text 192 44 e.g. [DSP_label IN 1_ADC];
#X text 168 129 e.g. "IN";
#X text 320 365 e.g. "IN 1_ADC";
#X obj 129 175 select \$1;
#X obj 265 106 inlet category;
#X obj 376 105 inlet name;
#X obj 129 222 symbol \$2;
#X obj 199 222 symbol \$1;
#X msg 215 339 \$2 \$1;
#X obj 129 286 select symbol;
#X obj 129 248 t s b;
#X msg 215 265 symbol;
#X obj 265 126 symbol;
#X obj 265 147 t s s;
#X obj 376 127 symbol;
#X text 189 17 DSP_label <category> <name>;
#X connect 0 0 2 0;
#X connect 2 0 8 0;
#X connect 3 0 11 0;
#X connect 3 1 12 0;
#X connect 4 0 13 0;
#X connect 8 0 3 0;
#X connect 9 0 17 0;
#X connect 10 0 19 0;
#X connect 11 0 15 0;
#X connect 12 0 4 1;
#X connect 13 0 1 0;
#X connect 14 1 4 0;
#X connect 15 0 14 0;
#X connect 15 1 16 0;
#X connect 16 0 14 1;
#X connect 17 0 18 0;
#X connect 18 0 8 1;
#X connect 18 1 12 1;
#X connect 19 0 11 1;
