#N canvas 0 0 450 300 10;
#X obj 129 55 r DSP_getLabel;
#X obj 129 214 s DSP_setLabel;
#X obj 129 192 symbol \$1;
#X obj 129 99 route \$2;
#X obj 129 172 t b;
#X connect 0 0 3 0;
#X connect 2 0 1 0;
#X connect 3 0 4 0;
#X connect 4 0 2 0;
