#N canvas 347 0 554 312 10;
#X obj 45 66 inlet~;
#X obj 45 261 outlet~;
#X obj 84 135 plugin~ \$0 COMPANDER \$1 \$2;
#X obj 85 155 plugin~ \$0 DISTANCE \$1 \$2;
#X obj 44 95 plugin0~ \$0 \$1 \$2;
#X connect 0 0 2 0;
#X connect 0 0 3 0;
#X connect 0 0 4 0;
#X connect 2 0 1 0;
#X connect 3 0 1 0;
#X connect 4 0 1 0;
