#N canvas 305 299 554 312 10;
#X obj 95 66 inlet~;
#X obj 95 221 outlet~;
#X obj 134 135 plugin~ \$0 COMPANDER \$1 \$2;
#N canvas 0 0 653 446 no-plugin 0;
#X obj 55 271 inlet~;
#X obj 57 333 outlet~;
#X obj 56 298 mull~ 1 50;
#X obj 177 185 r \$0_used;
#X obj 177 209 select 1;
#X msg 177 233 0;
#X obj 177 253 f;
#X msg 206 233 1;
#X obj 105 128 s \$0_slot;
#X obj 105 44 loadbang;
#X msg 166 44 bang;
#X obj 284 37 DSP_label PLUGIN none;
#X obj 105 107 receive_setting \$1_IN_PLUGIN_$2_NAME;
#X obj 374 110 receive_setting \$1_IN_PLUGIN_$2_ON;
#X obj 374 160 s \$0_on;
#X obj 374 135 t f b;
#X obj 105 66 i \$2;
#X obj 105 87 makefilename \$1_IN_PLUGIN_%d_NAME;
#X obj 374 89 makefilename \$1_IN_PLUGIN_%d_ON;
#X connect 0 0 2 0;
#X connect 2 0 1 0;
#X connect 3 0 4 0;
#X connect 4 0 5 0;
#X connect 5 0 6 0;
#X connect 6 0 2 1;
#X connect 7 0 6 0;
#X connect 9 0 16 0;
#X connect 10 0 16 0;
#X connect 12 0 8 0;
#X connect 13 0 15 0;
#X connect 15 0 14 0;
#X connect 15 1 7 0;
#X connect 16 0 17 0;
#X connect 16 0 18 0;
#X connect 17 0 12 0;
#X connect 18 0 13 0;
#X restore 44 135 pd no-plugin;
#X obj 327 134 plugin~ \$0 distance \$1 \$2;
#X connect 0 0 2 0;
#X connect 0 0 3 0;
#X connect 0 0 4 0;
#X connect 2 0 1 0;
#X connect 3 0 1 0;
#X connect 4 0 1 0;
