#N canvas 140 1 845 718 10;
#N canvas 6 3 797 718 ambi_enc 0;
#X obj 43 76 inlet~;
#X obj 56 299 pp col 1;
#N canvas 18 6 564 404 ambi_weight 0;
#X obj 61 41 inlet;
#X obj 65 344 outlet;
#X obj 61 64 clip 0 1;
#X obj 62 127 * 7;
#X text 135 62 radius is clipped between 0 and 1 (= ambisonic radius)
;
#N canvas 379 48 627 614 /SUBPATCH/ 0;
#X obj 89 31 inlet;
#X obj 54 357 outlet;
#X obj 144 244 wrap;
#X obj 30 153 + 1;
#X obj 32 255 -;
#X text 58 256 k;
#X obj 33 282 *;
#X obj 54 330 +;
#X obj 144 222 + 1;
#X text 245 176 2 point interpolation;
#X obj 90 117 t f f f;
#X obj 91 197 tabread AMBI_WEIGHT_GAIN;
#X obj 30 176 tabread AMBI_WEIGHT_GAIN;
#X obj 162 357 outlet;
#X connect 0 0 10 0;
#X connect 2 0 6 1;
#X connect 2 0 13 0;
#X connect 3 0 12 0;
#X connect 4 0 6 0;
#X connect 6 0 7 0;
#X connect 7 0 1 0;
#X connect 8 0 2 0;
#X connect 10 0 3 0;
#X connect 10 1 11 0;
#X connect 10 2 8 0;
#X connect 11 0 7 1;
#X connect 11 0 4 1;
#X connect 12 0 4 0;
#X restore 187 203 pd;
#N canvas 379 48 611 598 _3 0;
#X obj 89 31 inlet;
#X obj 55 421 outlet;
#X obj 30 153 + 1;
#X obj 39 280 -;
#X text 65 281 k;
#X obj 40 307 *;
#X obj 54 330 +;
#X obj 30 176 tabread AMBI_WEIGHT_3;
#X obj 91 197 tabread AMBI_WEIGHT_3;
#X text 187 179 2 point interpolation;
#X obj 186 30 inlet;
#X obj 280 30 inlet;
#X text 280 13 wrap+1;
#X text 170 13 correct_gain;
#X obj 54 364 * 1;
#X obj 89 117 t f f;
#X connect 0 0 15 0;
#X connect 2 0 7 0;
#X connect 3 0 5 0;
#X connect 5 0 6 0;
#X connect 6 0 14 0;
#X connect 7 0 3 0;
#X connect 8 0 6 1;
#X connect 8 0 3 1;
#X connect 10 0 14 1;
#X connect 11 0 5 1;
#X connect 14 0 1 0;
#X connect 15 0 2 0;
#X connect 15 1 8 0;
#X restore 185 286 pd _3;
#N canvas 379 48 611 598 _0 0;
#X obj 89 31 inlet;
#X obj 55 421 outlet;
#X obj 30 153 + 1;
#X obj 39 280 -;
#X text 65 281 k;
#X obj 40 307 *;
#X obj 54 330 +;
#X text 187 179 2 point interpolation;
#X obj 186 30 inlet;
#X obj 280 30 inlet;
#X text 280 13 wrap+1;
#X text 170 13 correct_gain;
#X obj 54 364 * 1;
#X obj 89 117 t f f;
#X obj 91 197 tabread AMBI_WEIGHT_0;
#X obj 30 176 tabread AMBI_WEIGHT_0;
#X connect 0 0 13 0;
#X connect 2 0 15 0;
#X connect 3 0 5 0;
#X connect 5 0 6 0;
#X connect 6 0 12 0;
#X connect 8 0 12 1;
#X connect 9 0 5 1;
#X connect 12 0 1 0;
#X connect 13 0 2 0;
#X connect 13 1 14 0;
#X connect 14 0 6 1;
#X connect 14 0 3 1;
#X connect 15 0 3 0;
#X restore 44 284 pd _0;
#N canvas 379 48 611 598 _1 0;
#X obj 89 31 inlet;
#X obj 55 421 outlet;
#X obj 30 153 + 1;
#X obj 39 280 -;
#X text 65 281 k;
#X obj 40 307 *;
#X obj 54 330 +;
#X text 187 179 2 point interpolation;
#X obj 186 30 inlet;
#X obj 280 30 inlet;
#X text 280 13 wrap+1;
#X text 170 13 correct_gain;
#X obj 54 364 * 1;
#X obj 89 117 t f f;
#X obj 91 197 tabread AMBI_WEIGHT_1;
#X obj 30 176 tabread AMBI_WEIGHT_1;
#X connect 0 0 13 0;
#X connect 2 0 15 0;
#X connect 3 0 5 0;
#X connect 5 0 6 0;
#X connect 6 0 12 0;
#X connect 8 0 12 1;
#X connect 9 0 5 1;
#X connect 12 0 1 0;
#X connect 13 0 2 0;
#X connect 13 1 14 0;
#X connect 14 0 6 1;
#X connect 14 0 3 1;
#X connect 15 0 3 0;
#X restore 91 285 pd _1;
#N canvas 379 48 615 602 _2 0;
#X obj 89 31 inlet;
#X obj 54 389 outlet;
#X obj 30 153 + 1;
#X obj 39 280 -;
#X text 65 281 k;
#X obj 40 307 *;
#X obj 54 330 +;
#X text 201 177 2 point interpolation;
#X obj 186 30 inlet;
#X obj 280 30 inlet;
#X text 280 13 wrap+1;
#X text 170 13 correct_gain;
#X obj 54 364 * 1;
#X obj 89 117 t f f;
#X obj 91 197 tabread AMBI_WEIGHT_2;
#X obj 30 176 tabread AMBI_WEIGHT_2;
#X connect 0 0 13 0;
#X connect 2 0 15 0;
#X connect 3 0 5 0;
#X connect 5 0 6 0;
#X connect 6 0 12 0;
#X connect 8 0 12 1;
#X connect 9 0 5 1;
#X connect 12 0 1 0;
#X connect 13 0 2 0;
#X connect 13 1 14 0;
#X connect 14 0 6 1;
#X connect 14 0 3 1;
#X connect 15 0 3 0;
#X restore 135 286 pd _2;
#X msg 61 85 \$1 \$1;
#X obj 61 106 *;
#X obj 65 319 pack 0 0 0 0;
#X obj 62 168 t f f f f f;
#X connect 0 0 2 0;
#X connect 2 0 10 0;
#X connect 3 0 13 0;
#X connect 5 0 6 1;
#X connect 5 0 7 1;
#X connect 5 0 8 1;
#X connect 5 0 9 1;
#X connect 5 1 6 2;
#X connect 5 1 7 2;
#X connect 5 1 8 2;
#X connect 5 1 9 2;
#X connect 6 0 12 3;
#X connect 7 0 12 0;
#X connect 8 0 12 1;
#X connect 9 0 12 2;
#X connect 10 0 11 0;
#X connect 11 0 3 0;
#X connect 12 0 1 0;
#X connect 13 0 7 0;
#X connect 13 1 8 0;
#X connect 13 2 9 0;
#X connect 13 3 6 0;
#X connect 13 4 5 0;
#X restore 101 150 pd ambi_weight;
#X obj 101 171 pp ambi_weight;
#X obj 281 327 switch~;
#X obj 210 169 sel 0 1;
#X obj 280 256 del 50;
#X msg 280 281 0;
#X msg 309 281 1;
#X text 415 387 set throw-name to 0_AMBI \, if not used;
#N canvas 85 42 861 621 distance 0;
#X obj 76 51 inlet~;
#X obj 78 466 outlet~;
#X obj 585 53 inlet;
#X obj 164 226 transf_fader;
#X obj 164 51 loadbang;
#X msg 164 72 pairs 0 9000 10 8000 20 7000 30 6000 40 5000 50 4200
60 3500 70 2900 80 2600 90 2300 100 2000;
#X obj 116 320 * 2;
#X obj 77 343 lp1~ 18000 100;
#X obj 193 202 transf_fader;
#X obj 193 140 loadbang;
#X msg 193 161 pairs 0 0 10 20 20 40 30 54 40 67 50 78 60 87 70 94
80 97 90 99 100 100;
#X obj 156 320 * 2;
#X obj 624 98 clip 1 10000;
#X obj 624 143 /;
#X msg 624 121 1 \$1;
#X obj 780 54 inlet;
#X obj 580 282 t b f;
#X text 583 34 radius;
#X text 774 36 switch;
#X obj 554 99 clip 0 1;
#X obj 554 120 * 100;
#X obj 164 247 change 9000;
#X obj 274 257 r DSP_MIX_INTERPOL_TIME;
#X obj 77 427 mull~ 0 50;
#X obj 382 351 * 0;
#X connect 0 0 7 0;
#X connect 2 0 12 0;
#X connect 2 0 19 0;
#X connect 3 0 21 0;
#X connect 4 0 5 0;
#X connect 5 0 3 0;
#X connect 6 0 7 1;
#X connect 7 0 23 0;
#X connect 8 0 3 0;
#X connect 9 0 10 0;
#X connect 10 0 8 0;
#X connect 11 0 7 2;
#X connect 12 0 14 0;
#X connect 13 0 24 0;
#X connect 14 0 13 0;
#X connect 15 0 16 0;
#X connect 16 0 24 0;
#X connect 16 1 24 1;
#X connect 19 0 20 0;
#X connect 20 0 8 0;
#X connect 21 0 6 0;
#X connect 22 0 11 0;
#X connect 22 0 23 2;
#X connect 23 0 1 0;
#X connect 24 0 23 1;
#X restore 44 321 pd distance;
#X msg 210 246 0;
#X msg 239 246 1;
#X obj 381 236 r DSP_MIX_INTERPOL_TIME;
#X obj 128 102 f 1;
#X obj 327 102 f 0;
#X obj 522 104 f 0;
#X obj 304 226 pack 0 0;
#X text 447 178 1.)azimut;
#X text 480 194 2.)elevation;
#X obj 108 580 throw~ 0_AMBI_BUS;
#X obj 122 558 throw~ 0_AMBI_BUS;
#X obj 137 537 throw~ 0_AMBI_BUS;
#X obj 152 514 throw~ 0_AMBI_BUS;
#X obj 167 493 throw~ 0_AMBI_BUS;
#X obj 182 470 throw~ 0_AMBI_BUS;
#X obj 197 448 throw~ 0_AMBI_BUS;
#X obj 213 428 throw~ 0_AMBI_BUS;
#X obj 289 580 throw~ 0_AMBI_BUS;
#X obj 304 558 throw~ 0_AMBI_BUS;
#X obj 321 536 throw~ 0_AMBI_BUS;
#X obj 334 514 throw~ 0_AMBI_BUS;
#X obj 349 493 throw~ 0_AMBI_BUS;
#X obj 364 470 throw~ 0_AMBI_BUS;
#X obj 379 448 throw~ 0_AMBI_BUS;
#X obj 394 426 throw~ 0_AMBI_BUS;
#X obj 127 17 r DSP_get_parameters;
#X obj 127 40 t b b b b;
#X obj 273 24 inlet;
#X text 268 5 ambi_on;
#X obj 39 610 outlet~;
#X obj 522 127 sendreceive \$1_IN_AMBI_AZM;
#X obj 327 126 sendreceive \$1_IN_AMBI_ELV;
#X obj 128 126 sendreceive \$1_IN_AMBI_RAD;
#X obj 522 150 t b f;
#X obj 327 146 t b f;
#X obj 327 188 f;
#X obj 327 166 del 0;
#X obj 357 189 loadbang;
#X obj 422 35 loadbang;
#X msg 422 57 0 0;
#X obj 63 125 loadbang;
#X msg 63 147 1;
#X obj 101 193 t b a;
#X obj 56 278 ambi_encode 3;
#X obj 43 356 mtx_*~ 16 1 50 __________________________________;
#N canvas 0 0 969 385 set_name_____________________________________
0;
#X obj 834 10 inlet;
#X obj 832 40 sel 0 1;
#X obj 23 149 outlet;
#X obj 93 149 outlet;
#X obj 163 150 outlet;
#X obj 233 150 outlet;
#X obj 305 150 outlet;
#X obj 375 150 outlet;
#X obj 445 151 outlet;
#X obj 515 151 outlet;
#X obj 593 167 outlet;
#X obj 663 167 outlet;
#X obj 733 168 outlet;
#X obj 803 168 outlet;
#X obj 875 168 outlet;
#X obj 945 168 outlet;
#X obj 1015 169 outlet;
#X obj 1085 169 outlet;
#X msg 808 71 set 0_AMBI_BUS;
#X msg 1084 146 set 16_AMBI_BUS;
#X msg 1015 122 set 15_AMBI_BUS;
#X msg 945 145 set 14_AMBI_BUS;
#X msg 875 121 set 13_AMBI_BUS;
#X msg 803 145 set 12_AMBI_BUS;
#X msg 23 103 set 1_AMBI_BUS;
#X msg 93 126 set 2_AMBI_BUS;
#X msg 163 104 set 3_AMBI_BUS;
#X msg 306 103 set 5_AMBI_BUS;
#X msg 233 127 set 4_AMBI_BUS;
#X msg 375 126 set 6_AMBI_BUS;
#X msg 445 104 set 7_AMBI_BUS;
#X msg 516 127 set 8_AMBI_BUS;
#X msg 594 105 set 9_AMBI_BUS;
#X msg 664 144 set 10_AMBI_BUS;
#X msg 733 121 set 11_AMBI_BUS;
#X connect 0 0 1 0;
#X connect 1 0 18 0;
#X connect 1 1 24 0;
#X connect 1 1 25 0;
#X connect 1 1 26 0;
#X connect 1 1 28 0;
#X connect 1 1 27 0;
#X connect 1 1 29 0;
#X connect 1 1 30 0;
#X connect 1 1 31 0;
#X connect 1 1 32 0;
#X connect 1 1 33 0;
#X connect 1 1 34 0;
#X connect 1 1 23 0;
#X connect 1 1 22 0;
#X connect 1 1 21 0;
#X connect 1 1 20 0;
#X connect 1 1 19 0;
#X connect 18 0 2 0;
#X connect 18 0 3 0;
#X connect 18 0 4 0;
#X connect 18 0 5 0;
#X connect 18 0 6 0;
#X connect 18 0 7 0;
#X connect 18 0 8 0;
#X connect 18 0 9 0;
#X connect 18 0 10 0;
#X connect 18 0 11 0;
#X connect 18 0 12 0;
#X connect 18 0 13 0;
#X connect 18 0 14 0;
#X connect 18 0 15 0;
#X connect 18 0 16 0;
#X connect 18 0 17 0;
#X connect 19 0 17 0;
#X connect 20 0 16 0;
#X connect 21 0 15 0;
#X connect 22 0 14 0;
#X connect 23 0 13 0;
#X connect 24 0 2 0;
#X connect 25 0 3 0;
#X connect 26 0 4 0;
#X connect 27 0 6 0;
#X connect 28 0 5 0;
#X connect 29 0 7 0;
#X connect 30 0 8 0;
#X connect 31 0 9 0;
#X connect 32 0 10 0;
#X connect 33 0 11 0;
#X connect 34 0 12 0;
#X restore 48 387 pd set_name_____________________________________
;
#X connect 0 0 10 0;
#X connect 1 0 55 0;
#X connect 2 0 3 0;
#X connect 3 0 53 0;
#X connect 5 0 6 0;
#X connect 5 0 11 0;
#X connect 5 1 8 0;
#X connect 5 1 12 0;
#X connect 6 0 7 0;
#X connect 7 0 4 0;
#X connect 7 0 56 0;
#X connect 8 0 4 0;
#X connect 8 0 56 0;
#X connect 10 0 55 1;
#X connect 11 0 10 2;
#X connect 12 0 10 2;
#X connect 13 0 6 1;
#X connect 13 0 55 2;
#X connect 14 0 43 0;
#X connect 15 0 42 0;
#X connect 16 0 41 0;
#X connect 17 0 54 0;
#X connect 36 0 37 0;
#X connect 37 1 14 0;
#X connect 37 2 15 0;
#X connect 37 3 16 0;
#X connect 38 0 5 0;
#X connect 41 0 16 1;
#X connect 41 0 44 0;
#X connect 42 0 15 1;
#X connect 42 0 45 0;
#X connect 43 0 14 1;
#X connect 43 0 2 0;
#X connect 43 0 10 1;
#X connect 44 0 47 0;
#X connect 44 1 17 1;
#X connect 45 0 47 0;
#X connect 45 1 46 1;
#X connect 46 0 17 0;
#X connect 47 0 46 0;
#X connect 48 0 17 0;
#X connect 49 0 50 0;
#X connect 50 0 17 0;
#X connect 51 0 52 0;
#X connect 52 0 14 0;
#X connect 53 0 17 0;
#X connect 53 1 54 0;
#X connect 54 0 1 0;
#X connect 55 0 20 0;
#X connect 55 1 21 0;
#X connect 55 2 22 0;
#X connect 55 3 23 0;
#X connect 55 4 24 0;
#X connect 55 5 25 0;
#X connect 55 6 26 0;
#X connect 55 7 27 0;
#X connect 55 8 28 0;
#X connect 55 9 29 0;
#X connect 55 10 30 0;
#X connect 55 11 31 0;
#X connect 55 12 32 0;
#X connect 55 13 33 0;
#X connect 55 14 34 0;
#X connect 55 15 35 0;
#X connect 56 0 20 0;
#X connect 56 1 21 0;
#X connect 56 2 22 0;
#X connect 56 3 23 0;
#X connect 56 4 24 0;
#X connect 56 5 25 0;
#X connect 56 6 26 0;
#X connect 56 7 27 0;
#X connect 56 8 28 0;
#X connect 56 9 29 0;
#X connect 56 10 30 0;
#X connect 56 11 31 0;
#X connect 56 12 32 0;
#X connect 56 13 33 0;
#X connect 56 14 34 0;
#X connect 56 15 35 0;
#X restore 246 506 pd ambi_enc;
#X text 59 5 dummy;
#X text 63 578 dummy;
#X text 42 359 fader;
#X text 78 497 fader;
#X text 46 348 pre;
#X text 79 487 post;
#X text 16 102 EQ;
#X obj 165 383 t b f;
#X obj 166 423 r DSP_MIX_INTERPOL_TIME;
#X obj 111 444 mull~ 0 50;
#X obj 138 423 * 0;
#X obj 45 147 pp set;
#X obj 45 169 r~ 0_ADC;
#X obj 45 83 r DSP_get_settings;
#X obj 400 69 r DSP_get_settings;
#N canvas 109 51 543 478 del_inv_gain 0;
#X obj 36 432 outlet~;
#X obj 36 305 mull~ 1 50;
#X obj 63 263 * 1;
#X obj 385 149 t b f;
#X obj 385 126 clip -1 1;
#X obj 306 316 clip 0 1000;
#X obj 63 284 * 1;
#X obj 237 68 t b f;
#N canvas 0 0 478 328 delay2 0;
#X obj 101 61 inlet~;
#X obj 101 129 outlet~;
#X obj 102 101 delread~ \$0_mix_ch_del 0;
#X obj 221 60 inlet;
#X connect 2 0 1 0;
#X connect 3 0 2 0;
#X restore 37 376 pd delay2;
#N canvas 0 0 462 312 delay1 0;
#X obj 146 50 inlet~;
#X obj 144 206 outlet~;
#X obj 146 106 delwrite~ \$0_mix_ch_del 1000;
#X connect 0 0 2 0;
#X restore 36 349 pd delay1;
#X text 238 23 ON_OFF;
#X text 242 32 mute;
#X obj 92 281 r DSP_MIX_INTERPOL_TIME;
#X obj 306 272 f 0;
#X obj 385 82 f 1;
#X obj 63 131 f 100;
#X obj 63 176 dbtorms;
#X obj 360 34 r DSP_get_settings;
#X obj 63 108 r DSP_get_parameters;
#X obj 35 69 inlet~;
#X obj 360 57 t b b;
#X obj 306 295 sendreceive \$1_IN_DEL;
#X obj 385 104 sendreceive \$1_IN_INV;
#X obj 63 152 sendreceive \$1_IN_ADJ_GAIN;
#X obj 237 47 inlet;
#X obj 63 240 f 1;
#X connect 1 0 9 0;
#X connect 2 0 6 0;
#X connect 3 0 25 0;
#X connect 3 1 2 1;
#X connect 4 0 3 0;
#X connect 4 0 14 1;
#X connect 5 0 8 1;
#X connect 5 0 13 1;
#X connect 6 0 1 1;
#X connect 7 0 2 0;
#X connect 7 1 6 1;
#X connect 8 0 0 0;
#X connect 9 0 8 0;
#X connect 12 0 1 2;
#X connect 13 0 21 0;
#X connect 14 0 22 0;
#X connect 15 0 23 0;
#X connect 16 0 25 0;
#X connect 17 0 20 0;
#X connect 18 0 15 0;
#X connect 19 0 1 0;
#X connect 20 0 13 0;
#X connect 20 1 14 0;
#X connect 21 0 5 0;
#X connect 22 0 4 0;
#X connect 23 0 16 0;
#X connect 23 0 15 1;
#X connect 24 0 7 0;
#X connect 25 0 2 0;
#X restore 45 191 pd del_inv_gain;
#N canvas 0 0 358 431 para_EQ_4 0;
#X obj 63 51 inlet~;
#X obj 72 362 outlet~;
#X obj 150 52 r DSP_get_parameters;
#X obj 72 327 +~;
#X obj 113 203 r DSP_MIX_INTERPOL_TIME;
#X obj 45 231 mull~ 1 50;
#X obj 74 198 == 0;
#N canvas 3 33 910 588 para_EQ_4 0;
#X obj 24 28 inlet~;
#X obj 396 526 outlet~;
#X obj 691 385 switch~;
#X obj 684 290 sel 0 1;
#X msg 691 354 0;
#X msg 719 354 1;
#X obj 53 120 - 100;
#X obj 115 504 - 100;
#X obj 53 78 f 100;
#X obj 115 459 f 100;
#X obj 25 300 hml_shelf~ 0 100 0 4000 0 300;
#X obj 25 526 para_bp2~ 440 1 0 300;
#X obj 395 256 para_bp2~ 1200 1 0 300;
#X obj 458 144 f 1;
#X obj 426 99 f 1200;
#X obj 395 499 mull~ 0 50;
#X obj 684 331 del 50;
#X obj 732 301 r DSP_MIX_INTERPOL_TIME;
#X obj 81 142 f 100;
#X obj 97 24 r DSP_get_parameters;
#X obj 97 44 t b b b b;
#X obj 72 323 r DSP_get_parameters;
#X obj 72 343 t b b b;
#X obj 452 54 r DSP_get_parameters;
#X obj 452 74 t b b b;
#X obj 684 56 inlet;
#X text 682 35 EQ_on;
#X obj 81 163 sendreceive \$1_IN_EQ_LOW_TRANS_FREQ;
#X obj 53 99 sendreceive \$1_IN_EQ_LOW_GAIN;
#X obj 165 273 - 100;
#X obj 165 231 f 100;
#X obj 165 252 sendreceive \$1_IN_EQ_HIGH_GAIN;
#X obj 137 187 f 4000;
#X obj 137 208 sendreceive \$1_IN_EQ_HIGH_TRANS_FREQ;
#X obj 426 122 sendreceive \$1_IN_EQ_MID1_FREQ;
#X obj 55 389 sendreceive \$1_IN_EQ_MID2_FREQ;
#X obj 55 366 f 440;
#X obj 85 413 f 1;
#X obj 85 437 sendreceive \$1_IN_EQ_MID2_Q;
#X obj 458 168 sendreceive \$1_IN_EQ_MID1_Q;
#X obj 115 481 sendreceive \$1_IN_EQ_MID2_GAIN;
#X obj 490 235 - 100;
#X obj 490 190 f 100;
#X obj 490 211 sendreceive \$1_IN_EQ_MID1_GAIN;
#X connect 0 0 10 0;
#X connect 3 0 16 0;
#X connect 3 1 5 0;
#X connect 4 0 2 0;
#X connect 5 0 2 0;
#X connect 6 0 10 1;
#X connect 7 0 11 3;
#X connect 8 0 28 0;
#X connect 9 0 40 0;
#X connect 10 0 11 0;
#X connect 11 0 12 0;
#X connect 12 0 15 0;
#X connect 13 0 39 0;
#X connect 14 0 34 0;
#X connect 15 0 1 0;
#X connect 16 0 4 0;
#X connect 17 0 16 1;
#X connect 17 0 15 2;
#X connect 18 0 27 0;
#X connect 19 0 20 0;
#X connect 20 0 8 0;
#X connect 20 1 18 0;
#X connect 20 2 32 0;
#X connect 20 3 30 0;
#X connect 21 0 22 0;
#X connect 22 0 36 0;
#X connect 22 1 37 0;
#X connect 22 2 9 0;
#X connect 23 0 24 0;
#X connect 24 0 14 0;
#X connect 24 1 13 0;
#X connect 24 2 42 0;
#X connect 25 0 3 0;
#X connect 25 0 15 1;
#X connect 27 0 10 2;
#X connect 27 0 18 1;
#X connect 28 0 8 1;
#X connect 28 0 6 0;
#X connect 29 0 10 5;
#X connect 30 0 31 0;
#X connect 31 0 30 1;
#X connect 31 0 29 0;
#X connect 32 0 33 0;
#X connect 33 0 32 1;
#X connect 33 0 10 4;
#X connect 34 0 14 1;
#X connect 34 0 12 1;
#X connect 35 0 36 1;
#X connect 35 0 11 1;
#X connect 36 0 35 0;
#X connect 37 0 38 0;
#X connect 38 0 37 1;
#X connect 38 0 11 2;
#X connect 39 0 13 1;
#X connect 39 0 12 2;
#X connect 40 0 9 1;
#X connect 40 0 7 0;
#X connect 41 0 12 3;
#X connect 42 0 43 0;
#X connect 43 0 42 1;
#X connect 43 0 41 0;
#X restore 132 232 pd para_EQ_4;
#X obj 150 77 f 0;
#X obj 150 98 sendreceive \$1_IN_EQ_ON;
#X connect 0 0 5 0;
#X connect 0 0 7 0;
#X connect 2 0 8 0;
#X connect 3 0 1 0;
#X connect 4 0 5 2;
#X connect 5 0 3 0;
#X connect 6 0 5 1;
#X connect 7 0 3 1;
#X connect 8 0 9 0;
#X connect 9 0 8 1;
#X connect 9 0 6 0;
#X connect 9 0 7 1;
#X restore 45 235 pd para_EQ_4;
#X obj 495 343 switch~;
#X obj 493 228 sel 0 1;
#X msg 495 315 0;
#X msg 524 315 1;
#X obj 538 252 r DSP_MIX_INTERPOL_TIME;
#X obj 495 277 del 50;
#N canvas 0 0 738 691 low_high_cutoff 0;
#X obj 66 25 inlet~;
#X obj 65 613 outlet~;
#X obj 126 75 r DSP_get_parameters;
#X obj 126 95 t b b b b;
#X obj 158 176 f 8000;
#X obj 65 499 +~;
#X obj 64 590 +~;
#X obj 128 434 r DSP_MIX_INTERPOL_TIME;
#X obj 126 530 r DSP_MIX_INTERPOL_TIME;
#X obj 64 558 mull~ 1 50;
#X obj 65 467 mull~ 1 50;
#X obj 94 434 == 0;
#X obj 90 533 == 0;
#N canvas 0 0 509 702 LOWCUT 0;
#X obj 50 24 inlet~;
#X obj 50 287 outlet~;
#X obj 51 119 hp3_bess~ 75 300;
#X obj 50 240 mull~ 0 50;
#X obj 132 22 inlet;
#X obj 227 19 inlet;
#X text 133 6 freq;
#X text 226 3 on_off;
#X obj 238 294 switch~;
#X obj 325 120 sel 0 1;
#X msg 238 263 0;
#X msg 284 261 1;
#X obj 173 120 r DSP_MIX_INTERPOL_TIME;
#X obj 238 228 del 50;
#X connect 0 0 2 0;
#X connect 2 0 3 0;
#X connect 3 0 1 0;
#X connect 4 0 2 1;
#X connect 5 0 3 1;
#X connect 5 0 9 0;
#X connect 9 0 13 0;
#X connect 9 1 11 0;
#X connect 10 0 8 0;
#X connect 11 0 8 0;
#X connect 12 0 3 2;
#X connect 12 0 13 1;
#X connect 13 0 10 0;
#X restore 135 466 pd LOWCUT;
#N canvas 0 0 513 706 HIGHCUT 0;
#X obj 50 24 inlet~;
#X obj 50 287 outlet~;
#X obj 50 240 mull~ 0 50;
#X obj 132 22 inlet;
#X obj 227 19 inlet;
#X text 133 6 freq;
#X text 226 3 on_off;
#X obj 238 294 switch~;
#X obj 325 120 sel 0 1;
#X msg 238 263 0;
#X msg 284 261 1;
#X obj 173 120 r DSP_MIX_INTERPOL_TIME;
#X obj 238 228 del 50;
#X obj 51 118 lp3_bess~ 8000 300;
#X connect 0 0 13 0;
#X connect 2 0 1 0;
#X connect 3 0 13 1;
#X connect 4 0 2 1;
#X connect 4 0 8 0;
#X connect 8 0 12 0;
#X connect 8 1 10 0;
#X connect 9 0 7 0;
#X connect 10 0 7 0;
#X connect 11 0 2 2;
#X connect 11 0 12 1;
#X connect 12 0 9 0;
#X connect 13 0 2 0;
#X restore 134 556 pd HIGHCUT;
#X obj 142 232 f 0;
#X obj 175 125 f 0;
#X obj 126 279 f 75;
#X obj 175 146 sendreceive \$1_IN_EQ_HIGHCUT_ON;
#X obj 158 198 sendreceive \$1_IN_EQ_HIGHCUT_FREQ;
#X obj 142 253 sendreceive \$1_IN_EQ_LOWCUT_ON;
#X obj 126 302 sendreceive \$1_IN_EQ_LOWCUT_FREQ;
#X connect 0 0 10 0;
#X connect 0 0 13 0;
#X connect 2 0 3 0;
#X connect 3 0 17 0;
#X connect 3 1 15 0;
#X connect 3 2 4 0;
#X connect 3 3 16 0;
#X connect 4 0 19 0;
#X connect 5 0 9 0;
#X connect 5 0 14 0;
#X connect 6 0 1 0;
#X connect 7 0 10 2;
#X connect 8 0 9 2;
#X connect 9 0 6 0;
#X connect 10 0 5 0;
#X connect 11 0 10 1;
#X connect 12 0 9 1;
#X connect 13 0 5 1;
#X connect 14 0 6 1;
#X connect 15 0 20 0;
#X connect 16 0 18 0;
#X connect 17 0 21 0;
#X connect 18 0 16 1;
#X connect 18 0 12 0;
#X connect 18 0 14 2;
#X connect 19 0 4 1;
#X connect 19 0 14 1;
#X connect 20 0 15 1;
#X connect 20 0 13 2;
#X connect 20 0 11 0;
#X connect 21 0 17 1;
#X connect 21 0 13 1;
#X restore 45 212 pd low_high_cutoff;
#X obj 400 92 f 0;
#X text 356 19 1.arg: <float> mix_ch_index;
#X obj 60 22 inlet~;
#X obj 47 615 outlet~;
#X text 356 46 4.arg: <float> n_bus;
#X text 356 37 3.arg: <float> n_aux_send;
#X text 356 28 2.arg: <float> n_in;
#X text 356 56 5.arg: <float> effect_plug_in_index;
#X obj 45 258 \$5_EFF_PLUG_IN~;
#X obj 45 105 symbol 0_ADC;
#X obj 169 236 dbtorms;
#X obj 169 168 r DSP_get_parameters;
#X obj 169 212 sendreceive \$1_IN_FADER_GAIN;
#X obj 169 191 f 0;
#X obj 400 113 sendreceive \$1_IN_ON;
#N canvas 0 0 360 474 low_freq_ch 0;
#X obj 38 114 inlet~;
#X obj 103 140 t f f;
#X obj 128 162 > 0;
#X obj 226 337 switch~;
#X obj 220 243 sel 0 1;
#X obj 187 286 del 50;
#X msg 187 307 0;
#X msg 274 305 1;
#X obj 39 303 mull~ 0 50;
#X obj 120 220 r DSP_MIX_INTERPOL_TIME;
#X obj 39 346 throw~ LF_BUS;
#X obj 51 416 outlet~;
#X obj 103 47 r DSP_get_parameters;
#X obj 103 69 f 0;
#X obj 103 116 dbtorms;
#X obj 103 93 sendreceive \$1_IN_LFC_GAIN;
#X connect 0 0 8 0;
#X connect 1 0 8 1;
#X connect 1 1 2 0;
#X connect 2 0 4 0;
#X connect 4 0 5 0;
#X connect 4 1 7 0;
#X connect 5 0 6 0;
#X connect 6 0 3 0;
#X connect 7 0 3 0;
#X connect 8 0 10 0;
#X connect 9 0 8 2;
#X connect 9 0 5 1;
#X connect 12 0 13 0;
#X connect 13 0 15 0;
#X connect 14 0 1 0;
#X connect 15 0 13 1;
#X connect 15 0 14 0;
#X restore 342 586 pd low_freq_ch;
#N canvas 0 0 637 439 spat_mode 0;
#X obj 63 246 outlet;
#X obj 159 247 outlet;
#X msg 58 216 0;
#X msg 88 216 1;
#X msg 155 217 0;
#X msg 185 217 1;
#X obj 255 246 outlet;
#X msg 251 216 0;
#X msg 281 216 1;
#X obj 63 69 r DSP_get_settings;
#X obj 63 92 f 0;
#X obj 63 113 sendreceive \$1_IN_SPATIALIZATION;
#X text 64 271 0:ambi;
#X text 152 274 1:direct;
#X text 256 272 2:pan;
#X obj 62 138 sel 0 1 2;
#X obj 29 42 loadbang;
#X msg 29 63 0;
#X connect 2 0 0 0;
#X connect 3 0 0 0;
#X connect 4 0 1 0;
#X connect 5 0 1 0;
#X connect 7 0 6 0;
#X connect 8 0 6 0;
#X connect 9 0 10 0;
#X connect 10 0 11 0;
#X connect 11 0 10 1;
#X connect 11 0 15 0;
#X connect 15 0 3 0;
#X connect 15 0 4 0;
#X connect 15 0 7 0;
#X connect 15 1 5 0;
#X connect 15 1 2 0;
#X connect 15 1 7 0;
#X connect 15 2 8 0;
#X connect 15 2 2 0;
#X connect 15 2 4 0;
#X connect 16 0 17 0;
#X connect 17 0 15 0;
#X restore 307 485 pd spat_mode AMBI DIRECT PAN;
#X text 157 105 52_ADC \, 1_AUX_RET \, 8_AUX_RET;
#X obj 630 412 prvu~;
#X msg 630 370 start;
#X msg 590 370 stop;
#X obj 685 301 sendreceive \$1_IN_VU_SRC;
#X obj 685 281 f 1;
#X obj 685 257 r DSP_get_parameters;
#X obj 685 325 clip 0 2;
#X obj 45 126 sendreceive \$1_IN_SRC;
#X obj 685 347 select 0 1 2;
#X msg 685 389 set \$1;
#X obj 178 276 s~ \$1_INPUT;
#X obj 227 478 s~ \$1_POST;
#X obj 70 284 s~ \$1_PRE;
#X obj 735 389 symbol \$1_PRE;
#X obj 685 369 symbol \$1_INPUT;
#X obj 796 368 symbol \$1_POST;
#X obj 685 412 r~ \$1_PRE;
#X msg 502 253 stop;
#X obj 522 380 del 50;
#X msg 522 401 reset;
#X obj 591 278 t b b;
#X obj 617 298 random 300;
#X obj 580 325 del 150;
#X msg 558 301 stop;
#X obj 630 435 send_regname \$1_IN_VU_LEVEL;
#N canvas 0 0 355 396 4_aux_sends_pre 0;
#X obj 43 33 inlet~;
#N canvas 0 0 524 449 aux_send_pre 0;
#X obj 41 48 inlet~;
#X obj 212 171 t b f;
#X obj 113 124 t f f;
#X obj 138 146 > 0;
#X obj 198 355 switch~;
#X obj 222 264 sel 0 1;
#X obj 189 307 del 50;
#X msg 189 328 0;
#X msg 240 327 1;
#X obj 41 324 mull~ 0 50;
#X obj 108 237 r DSP_MIX_INTERPOL_TIME;
#X text 368 139 ^;
#X text 368 143 |;
#X text 368 150 |;
#X text 368 157 |;
#X text 368 164 v;
#X text 382 150 Edit this;
#X obj 113 103 dbtorms;
#X msg 296 222 set \$1_SND;
#X obj 296 202 symbol;
#X obj 222 207 && 0;
#X obj 42 353 throw~ 1_AUX_SUM;
#X obj 113 77 receive_regname \$1_IN_AUX_1_GAIN;
#X obj 212 120 receive_regname \$1_IN_AUX_1_PRE;
#X obj 296 180 receive_regname \$1_IN_AUX_1_DST;
#X connect 0 0 9 0;
#X connect 1 0 20 0;
#X connect 1 1 20 1;
#X connect 2 0 9 1;
#X connect 2 1 3 0;
#X connect 3 0 20 0;
#X connect 5 0 6 0;
#X connect 5 1 8 0;
#X connect 6 0 7 0;
#X connect 7 0 4 0;
#X connect 8 0 4 0;
#X connect 9 0 21 0;
#X connect 10 0 9 2;
#X connect 10 0 6 1;
#X connect 17 0 2 0;
#X connect 18 0 21 0;
#X connect 19 0 18 0;
#X connect 20 0 5 0;
#X connect 22 0 17 0;
#X connect 23 0 1 0;
#X connect 24 0 19 0;
#X restore 43 65 pd aux_send_pre 1;
#X obj 47 261 outlet~;
#N canvas 0 0 528 453 aux_send_pre 0;
#X obj 41 48 inlet~;
#X obj 212 171 t b f;
#X obj 113 124 t f f;
#X obj 138 146 > 0;
#X obj 198 355 switch~;
#X obj 222 264 sel 0 1;
#X obj 189 307 del 50;
#X msg 189 328 0;
#X msg 240 327 1;
#X obj 41 324 mull~ 0 50;
#X obj 108 237 r DSP_MIX_INTERPOL_TIME;
#X text 368 139 ^;
#X text 368 143 |;
#X text 368 150 |;
#X text 368 157 |;
#X text 368 164 v;
#X text 382 150 Edit this;
#X obj 113 103 dbtorms;
#X msg 296 222 set \$1_SND;
#X obj 296 202 symbol;
#X obj 113 77 receive_regname \$1_IN_AUX_2_GAIN;
#X obj 212 129 receive_regname \$1_IN_AUX_2_PRE;
#X obj 296 180 receive_regname \$1_IN_AUX_2_DST;
#X obj 222 207 && 0;
#X obj 42 353 throw~ 2_AUX_SUM;
#X connect 0 0 9 0;
#X connect 1 0 23 0;
#X connect 1 1 23 1;
#X connect 2 0 9 1;
#X connect 2 1 3 0;
#X connect 3 0 23 0;
#X connect 5 0 6 0;
#X connect 5 1 8 0;
#X connect 6 0 7 0;
#X connect 7 0 4 0;
#X connect 8 0 4 0;
#X connect 9 0 24 0;
#X connect 10 0 9 2;
#X connect 10 0 6 1;
#X connect 17 0 2 0;
#X connect 18 0 24 0;
#X connect 19 0 18 0;
#X connect 20 0 17 0;
#X connect 21 0 1 0;
#X connect 22 0 19 0;
#X connect 23 0 5 0;
#X restore 53 85 pd aux_send_pre 2;
#N canvas 0 0 528 453 aux_send_pre 0;
#X obj 41 48 inlet~;
#X obj 212 171 t b f;
#X obj 113 124 t f f;
#X obj 138 146 > 0;
#X obj 198 355 switch~;
#X obj 222 264 sel 0 1;
#X obj 189 307 del 50;
#X msg 189 328 0;
#X msg 240 327 1;
#X obj 41 324 mull~ 0 50;
#X obj 108 237 r DSP_MIX_INTERPOL_TIME;
#X text 368 139 ^;
#X text 368 143 |;
#X text 368 150 |;
#X text 368 157 |;
#X text 368 164 v;
#X text 382 150 Edit this;
#X obj 113 103 dbtorms;
#X msg 296 222 set \$1_SND;
#X obj 296 202 symbol;
#X obj 113 77 receive_regname \$1_IN_AUX_3_GAIN;
#X obj 212 129 receive_regname \$1_IN_AUX_3_PRE;
#X obj 296 180 receive_regname \$1_IN_AUX_3_DST;
#X obj 222 207 && 0;
#X obj 42 353 throw~ 3_AUX_SUM;
#X connect 0 0 9 0;
#X connect 1 0 23 0;
#X connect 1 1 23 1;
#X connect 2 0 9 1;
#X connect 2 1 3 0;
#X connect 3 0 23 0;
#X connect 5 0 6 0;
#X connect 5 1 8 0;
#X connect 6 0 7 0;
#X connect 7 0 4 0;
#X connect 8 0 4 0;
#X connect 9 0 24 0;
#X connect 10 0 9 2;
#X connect 10 0 6 1;
#X connect 17 0 2 0;
#X connect 18 0 24 0;
#X connect 19 0 18 0;
#X connect 20 0 17 0;
#X connect 21 0 1 0;
#X connect 22 0 19 0;
#X connect 23 0 5 0;
#X restore 63 105 pd aux_send_pre 3;
#N canvas 0 0 536 461 aux_send_pre 0;
#X obj 41 48 inlet~;
#X obj 212 171 t b f;
#X obj 113 124 t f f;
#X obj 138 146 > 0;
#X obj 198 355 switch~;
#X obj 222 264 sel 0 1;
#X obj 189 307 del 50;
#X msg 189 328 0;
#X msg 240 327 1;
#X obj 41 324 mull~ 0 50;
#X obj 108 237 r DSP_MIX_INTERPOL_TIME;
#X text 368 139 ^;
#X text 368 143 |;
#X text 368 150 |;
#X text 368 157 |;
#X text 368 164 v;
#X text 382 150 Edit this;
#X obj 113 103 dbtorms;
#X msg 296 222 set \$1_SND;
#X obj 296 202 symbol;
#X obj 113 77 receive_regname \$1_IN_AUX_4_GAIN;
#X obj 212 129 receive_regname \$1_IN_AUX_4_PRE;
#X obj 296 180 receive_regname \$1_IN_AUX_4_DST;
#X obj 222 207 && 0;
#X obj 42 353 throw~ 4_AUX_SUM;
#X connect 0 0 9 0;
#X connect 1 0 23 0;
#X connect 1 1 23 1;
#X connect 2 0 9 1;
#X connect 2 1 3 0;
#X connect 3 0 23 0;
#X connect 5 0 6 0;
#X connect 5 1 8 0;
#X connect 6 0 7 0;
#X connect 7 0 4 0;
#X connect 8 0 4 0;
#X connect 9 0 24 0;
#X connect 10 0 9 2;
#X connect 10 0 6 1;
#X connect 17 0 2 0;
#X connect 18 0 24 0;
#X connect 19 0 18 0;
#X connect 20 0 17 0;
#X connect 21 0 1 0;
#X connect 22 0 19 0;
#X connect 23 0 5 0;
#X restore 73 125 pd aux_send_pre 4;
#X connect 0 0 1 0;
#X connect 0 0 3 0;
#X connect 0 0 4 0;
#X connect 0 0 5 0;
#X restore 23 375 pd 4_aux_sends_pre;
#N canvas 0 0 505 365 4_aux_sends_post 0;
#X obj 36 39 inlet~;
#N canvas 0 0 513 461 aux_send_post 0;
#X obj 36 138 inlet~;
#X obj 263 161 t b f;
#X obj 84 159 t f f;
#X obj 109 181 > 0;
#X obj 201 384 switch~;
#X obj 200 304 sel 0 1;
#X obj 185 333 del 50;
#X msg 185 354 0;
#X msg 227 356 1;
#X obj 37 327 mull~ 0 50;
#X obj 100 281 r DSP_MIX_INTERPOL_TIME;
#X text 396 139 ^;
#X text 396 143 |;
#X text 396 150 |;
#X text 396 157 |;
#X text 396 164 v;
#X text 410 150 Edit this;
#X obj 156 34 r DSP_get_parameters;
#X obj 156 56 t b b;
#X obj 84 138 dbtorms;
#X obj 278 247 r DSP_get_settings;
#X obj 278 269 symbol 1_AUX;
#X obj 278 290 sendreceive \$1_IN_AUX_1_DST;
#X msg 278 312 set \$1_SND;
#X obj 263 95 f 0;
#X obj 263 116 sendreceive \$1_IN_AUX_1_PRE;
#X obj 200 258 && 1;
#X obj 263 139 == 0;
#X obj 84 96 f 0;
#X obj 84 117 sendreceive \$1_IN_AUX_1_GAIN;
#X obj 38 356 throw~ 1_AUX_SUM;
#X connect 0 0 9 0;
#X connect 1 0 26 0;
#X connect 1 1 26 1;
#X connect 2 0 9 1;
#X connect 2 1 3 0;
#X connect 3 0 26 0;
#X connect 5 0 6 0;
#X connect 5 1 8 0;
#X connect 6 0 7 0;
#X connect 7 0 4 0;
#X connect 8 0 4 0;
#X connect 9 0 30 0;
#X connect 10 0 9 2;
#X connect 10 0 6 1;
#X connect 17 0 18 0;
#X connect 18 0 28 0;
#X connect 18 1 24 0;
#X connect 19 0 2 0;
#X connect 20 0 21 0;
#X connect 21 0 22 0;
#X connect 22 0 21 1;
#X connect 22 0 23 0;
#X connect 23 0 30 0;
#X connect 24 0 25 0;
#X connect 25 0 24 1;
#X connect 25 0 27 0;
#X connect 26 0 5 0;
#X connect 27 0 1 0;
#X connect 28 0 29 0;
#X connect 29 0 28 1;
#X connect 29 0 19 0;
#X restore 36 70 pd aux_send_post 1;
#X obj 42 275 outlet~;
#X text 172 271 only here \, the 3 parameters are sended back;
#N canvas 0 0 513 461 aux_send_post 0;
#X obj 36 138 inlet~;
#X obj 263 161 t b f;
#X obj 84 159 t f f;
#X obj 109 181 > 0;
#X obj 201 384 switch~;
#X obj 200 304 sel 0 1;
#X obj 185 333 del 50;
#X msg 185 354 0;
#X msg 227 356 1;
#X obj 37 327 mull~ 0 50;
#X obj 100 281 r DSP_MIX_INTERPOL_TIME;
#X text 396 139 ^;
#X text 396 143 |;
#X text 396 150 |;
#X text 396 157 |;
#X text 396 164 v;
#X text 410 150 Edit this;
#X obj 156 34 r DSP_get_parameters;
#X obj 156 56 t b b;
#X obj 84 138 dbtorms;
#X obj 278 247 r DSP_get_settings;
#X obj 263 95 f 0;
#X obj 200 258 && 1;
#X obj 263 139 == 0;
#X obj 84 96 f 0;
#X obj 38 356 throw~ 2_AUX_SUM;
#X obj 278 290 sendreceive \$1_IN_AUX_2_DST;
#X obj 263 116 sendreceive \$1_IN_AUX_2_PRE;
#X obj 84 117 sendreceive \$1_IN_AUX_2_GAIN;
#X obj 278 269 symbol 2_AUX;
#X msg 278 312 set \$1_SUM;
#X connect 0 0 9 0;
#X connect 1 0 22 0;
#X connect 1 1 22 1;
#X connect 2 0 9 1;
#X connect 2 1 3 0;
#X connect 3 0 22 0;
#X connect 5 0 6 0;
#X connect 5 1 8 0;
#X connect 6 0 7 0;
#X connect 7 0 4 0;
#X connect 8 0 4 0;
#X connect 9 0 25 0;
#X connect 10 0 9 2;
#X connect 10 0 6 1;
#X connect 17 0 18 0;
#X connect 18 0 24 0;
#X connect 18 1 21 0;
#X connect 19 0 2 0;
#X connect 20 0 29 0;
#X connect 21 0 27 0;
#X connect 22 0 5 0;
#X connect 23 0 1 0;
#X connect 24 0 28 0;
#X connect 26 0 30 0;
#X connect 26 0 29 1;
#X connect 27 0 21 1;
#X connect 27 0 23 0;
#X connect 28 0 24 1;
#X connect 28 0 19 0;
#X connect 29 0 26 0;
#X connect 30 0 25 0;
#X restore 46 90 pd aux_send_post 2;
#N canvas 0 0 521 469 aux_send_post 0;
#X obj 36 138 inlet~;
#X obj 263 161 t b f;
#X obj 84 159 t f f;
#X obj 109 181 > 0;
#X obj 201 384 switch~;
#X obj 200 304 sel 0 1;
#X obj 185 333 del 50;
#X msg 185 354 0;
#X msg 227 356 1;
#X obj 37 327 mull~ 0 50;
#X obj 100 281 r DSP_MIX_INTERPOL_TIME;
#X text 396 139 ^;
#X text 396 143 |;
#X text 396 150 |;
#X text 396 157 |;
#X text 396 164 v;
#X text 410 150 Edit this;
#X obj 156 34 r DSP_get_parameters;
#X obj 156 56 t b b;
#X obj 84 138 dbtorms;
#X obj 278 247 r DSP_get_settings;
#X obj 263 95 f 0;
#X obj 200 258 && 1;
#X obj 263 139 == 0;
#X obj 84 96 f 0;
#X obj 263 116 sendreceive \$1_IN_AUX_3_PRE;
#X obj 84 117 sendreceive \$1_IN_AUX_3_GAIN;
#X obj 278 290 sendreceive \$1_IN_AUX_3_DST;
#X msg 278 312 set \$1_SUM;
#X obj 278 269 symbol 3_AUX;
#X obj 38 356 throw~ 3_AUX_SUM;
#X connect 0 0 9 0;
#X connect 1 0 22 0;
#X connect 1 1 22 1;
#X connect 2 0 9 1;
#X connect 2 1 3 0;
#X connect 3 0 22 0;
#X connect 5 0 6 0;
#X connect 5 1 8 0;
#X connect 6 0 7 0;
#X connect 7 0 4 0;
#X connect 8 0 4 0;
#X connect 9 0 30 0;
#X connect 10 0 9 2;
#X connect 10 0 6 1;
#X connect 17 0 18 0;
#X connect 18 0 24 0;
#X connect 18 1 21 0;
#X connect 19 0 2 0;
#X connect 20 0 29 0;
#X connect 21 0 25 0;
#X connect 22 0 5 0;
#X connect 23 0 1 0;
#X connect 24 0 26 0;
#X connect 25 0 21 1;
#X connect 25 0 23 0;
#X connect 26 0 24 1;
#X connect 26 0 19 0;
#X connect 27 0 28 0;
#X connect 27 0 29 1;
#X connect 28 0 30 0;
#X connect 29 0 27 0;
#X restore 56 110 pd aux_send_post 3;
#N canvas 0 0 513 461 aux_send_post 0;
#X obj 36 138 inlet~;
#X obj 263 161 t b f;
#X obj 84 159 t f f;
#X obj 109 181 > 0;
#X obj 201 384 switch~;
#X obj 200 304 sel 0 1;
#X obj 185 333 del 50;
#X msg 185 354 0;
#X msg 227 356 1;
#X obj 37 327 mull~ 0 50;
#X obj 100 281 r DSP_MIX_INTERPOL_TIME;
#X text 396 139 ^;
#X text 396 143 |;
#X text 396 150 |;
#X text 396 157 |;
#X text 396 164 v;
#X text 410 150 Edit this;
#X obj 156 34 r DSP_get_parameters;
#X obj 156 56 t b b;
#X obj 84 138 dbtorms;
#X obj 278 247 r DSP_get_settings;
#X obj 263 95 f 0;
#X obj 200 258 && 1;
#X obj 263 139 == 0;
#X obj 84 96 f 0;
#X obj 278 269 symbol 4_AUX;
#X obj 278 290 sendreceive \$1_IN_AUX_4_DST;
#X msg 278 312 set \$1_SUM;
#X obj 38 356 throw~ 4_AUX_SUM;
#X obj 263 116 sendreceive \$1_IN_AUX_4_PRE;
#X obj 84 117 sendreceive \$1_IN_AUX_4_GAIN;
#X connect 0 0 9 0;
#X connect 1 0 22 0;
#X connect 1 1 22 1;
#X connect 2 0 9 1;
#X connect 2 1 3 0;
#X connect 3 0 22 0;
#X connect 5 0 6 0;
#X connect 5 1 8 0;
#X connect 6 0 7 0;
#X connect 7 0 4 0;
#X connect 8 0 4 0;
#X connect 9 0 28 0;
#X connect 10 0 9 2;
#X connect 10 0 6 1;
#X connect 17 0 18 0;
#X connect 18 0 24 0;
#X connect 18 1 21 0;
#X connect 19 0 2 0;
#X connect 20 0 25 0;
#X connect 21 0 29 0;
#X connect 22 0 5 0;
#X connect 23 0 1 0;
#X connect 24 0 30 0;
#X connect 25 0 26 0;
#X connect 26 0 27 0;
#X connect 26 0 25 1;
#X connect 27 0 28 0;
#X connect 29 0 21 1;
#X connect 29 0 23 0;
#X connect 30 0 24 1;
#X connect 30 0 19 0;
#X restore 66 130 pd aux_send_post 4;
#X connect 0 0 1 0;
#X connect 0 0 4 0;
#X connect 0 0 5 0;
#X connect 0 0 6 0;
#X restore 46 513 pd 4_aux_sends_post;
#N canvas 126 54 747 718 12_bus_sends_post 0;
#X obj 34 25 inlet~;
#N canvas 0 0 358 384 bus_send_post 0;
#X obj 30 48 inlet~;
#X obj 86 131 t f f;
#X obj 111 153 > 0;
#X obj 149 282 switch~;
#X obj 142 204 sel 0 1;
#X obj 130 234 del 50;
#X msg 130 255 0;
#X msg 172 255 1;
#X obj 31 237 mull~ 0 50;
#X obj 92 180 r DSP_MIX_INTERPOL_TIME;
#X text 222 104 ^;
#X text 222 108 |;
#X text 222 115 |;
#X text 222 122 |;
#X text 222 129 v;
#X text 236 115 Edit this;
#X obj 86 41 r DSP_get_parameters;
#X obj 86 63 f 0;
#X obj 86 110 dbtorms;
#X obj 30 266 throw~ 1_BUS;
#X obj 86 87 sendreceive \$1_IN_BUS_1_GAIN;
#X connect 0 0 8 0;
#X connect 1 0 8 1;
#X connect 1 1 2 0;
#X connect 2 0 4 0;
#X connect 4 0 5 0;
#X connect 4 1 7 0;
#X connect 5 0 6 0;
#X connect 6 0 3 0;
#X connect 7 0 3 0;
#X connect 8 0 19 0;
#X connect 9 0 8 2;
#X connect 9 0 5 1;
#X connect 16 0 17 0;
#X connect 17 0 20 0;
#X connect 18 0 1 0;
#X connect 20 0 17 1;
#X connect 20 0 18 0;
#X restore 33 60 pd bus_send_post 1;
#X obj 47 506 outlet~;
#X obj 356 224 switch~;
#X obj 343 81 sel 0 1;
#X obj 355 153 del 50;
#X msg 355 178 0;
#X msg 384 178 1;
#X obj 394 103 r DSP_MIX_INTERPOL_TIME;
#X obj 343 47 inlet;
#X text 337 24 matrix-spat on;
#N canvas 0 0 354 380 bus_send_post 0;
#X obj 30 48 inlet~;
#X obj 86 131 t f f;
#X obj 111 153 > 0;
#X obj 149 282 switch~;
#X obj 142 204 sel 0 1;
#X obj 130 234 del 50;
#X msg 130 255 0;
#X msg 172 255 1;
#X obj 31 237 mull~ 0 50;
#X obj 92 180 r DSP_MIX_INTERPOL_TIME;
#X text 222 104 ^;
#X text 222 108 |;
#X text 222 115 |;
#X text 222 122 |;
#X text 222 129 v;
#X text 236 115 Edit this;
#X obj 86 41 r DSP_get_parameters;
#X obj 86 63 f 0;
#X obj 86 110 dbtorms;
#X obj 86 87 sendreceive \$1_IN_BUS_2_GAIN;
#X obj 30 266 throw~ 2_BUS;
#X connect 0 0 8 0;
#X connect 1 0 8 1;
#X connect 1 1 2 0;
#X connect 2 0 4 0;
#X connect 4 0 5 0;
#X connect 4 1 7 0;
#X connect 5 0 6 0;
#X connect 6 0 3 0;
#X connect 7 0 3 0;
#X connect 8 0 20 0;
#X connect 9 0 8 2;
#X connect 9 0 5 1;
#X connect 16 0 17 0;
#X connect 17 0 19 0;
#X connect 18 0 1 0;
#X connect 19 0 17 1;
#X connect 19 0 18 0;
#X restore 43 80 pd bus_send_post 2;
#N canvas 0 0 350 376 bus_send_post 0;
#X obj 30 48 inlet~;
#X obj 86 131 t f f;
#X obj 111 153 > 0;
#X obj 149 282 switch~;
#X obj 142 204 sel 0 1;
#X obj 130 234 del 50;
#X msg 130 255 0;
#X msg 172 255 1;
#X obj 31 237 mull~ 0 50;
#X obj 92 180 r DSP_MIX_INTERPOL_TIME;
#X text 222 104 ^;
#X text 222 108 |;
#X text 222 115 |;
#X text 222 122 |;
#X text 222 129 v;
#X text 236 115 Edit this;
#X obj 86 41 r DSP_get_parameters;
#X obj 86 63 f 0;
#X obj 86 110 dbtorms;
#X obj 86 87 sendreceive \$1_IN_BUS_3_GAIN;
#X obj 30 266 throw~ 3_BUS;
#X connect 0 0 8 0;
#X connect 1 0 8 1;
#X connect 1 1 2 0;
#X connect 2 0 4 0;
#X connect 4 0 5 0;
#X connect 4 1 7 0;
#X connect 5 0 6 0;
#X connect 6 0 3 0;
#X connect 7 0 3 0;
#X connect 8 0 20 0;
#X connect 9 0 8 2;
#X connect 9 0 5 1;
#X connect 16 0 17 0;
#X connect 17 0 19 0;
#X connect 18 0 1 0;
#X connect 19 0 17 1;
#X connect 19 0 18 0;
#X restore 53 100 pd bus_send_post 3;
#N canvas 0 0 350 376 bus_send_post 0;
#X obj 30 48 inlet~;
#X obj 86 131 t f f;
#X obj 111 153 > 0;
#X obj 149 282 switch~;
#X obj 142 204 sel 0 1;
#X obj 130 234 del 50;
#X msg 130 255 0;
#X msg 172 255 1;
#X obj 31 237 mull~ 0 50;
#X obj 92 180 r DSP_MIX_INTERPOL_TIME;
#X text 222 104 ^;
#X text 222 108 |;
#X text 222 115 |;
#X text 222 122 |;
#X text 222 129 v;
#X text 236 115 Edit this;
#X obj 86 41 r DSP_get_parameters;
#X obj 86 63 f 0;
#X obj 86 110 dbtorms;
#X obj 86 87 sendreceive \$1_IN_BUS_4_GAIN;
#X obj 30 266 throw~ 4_BUS;
#X connect 0 0 8 0;
#X connect 1 0 8 1;
#X connect 1 1 2 0;
#X connect 2 0 4 0;
#X connect 4 0 5 0;
#X connect 4 1 7 0;
#X connect 5 0 6 0;
#X connect 6 0 3 0;
#X connect 7 0 3 0;
#X connect 8 0 20 0;
#X connect 9 0 8 2;
#X connect 9 0 5 1;
#X connect 16 0 17 0;
#X connect 17 0 19 0;
#X connect 18 0 1 0;
#X connect 19 0 17 1;
#X connect 19 0 18 0;
#X restore 63 120 pd bus_send_post 4;
#N canvas 0 0 350 376 bus_send_post 0;
#X obj 30 48 inlet~;
#X obj 86 131 t f f;
#X obj 111 153 > 0;
#X obj 149 282 switch~;
#X obj 142 204 sel 0 1;
#X obj 130 234 del 50;
#X msg 130 255 0;
#X msg 172 255 1;
#X obj 31 237 mull~ 0 50;
#X obj 92 180 r DSP_MIX_INTERPOL_TIME;
#X text 222 104 ^;
#X text 222 108 |;
#X text 222 115 |;
#X text 222 122 |;
#X text 222 129 v;
#X text 236 115 Edit this;
#X obj 86 41 r DSP_get_parameters;
#X obj 86 63 f 0;
#X obj 86 110 dbtorms;
#X obj 86 87 sendreceive \$1_IN_BUS_5_GAIN;
#X obj 30 266 throw~ 5_BUS;
#X connect 0 0 8 0;
#X connect 1 0 8 1;
#X connect 1 1 2 0;
#X connect 2 0 4 0;
#X connect 4 0 5 0;
#X connect 4 1 7 0;
#X connect 5 0 6 0;
#X connect 6 0 3 0;
#X connect 7 0 3 0;
#X connect 8 0 20 0;
#X connect 9 0 8 2;
#X connect 9 0 5 1;
#X connect 16 0 17 0;
#X connect 17 0 19 0;
#X connect 18 0 1 0;
#X connect 19 0 17 1;
#X connect 19 0 18 0;
#X restore 43 160 pd bus_send_post 5;
#N canvas 0 0 350 376 bus_send_post 0;
#X obj 30 48 inlet~;
#X obj 86 131 t f f;
#X obj 111 153 > 0;
#X obj 149 282 switch~;
#X obj 142 204 sel 0 1;
#X obj 130 234 del 50;
#X msg 130 255 0;
#X msg 172 255 1;
#X obj 31 237 mull~ 0 50;
#X obj 92 180 r DSP_MIX_INTERPOL_TIME;
#X text 222 104 ^;
#X text 222 108 |;
#X text 222 115 |;
#X text 222 122 |;
#X text 222 129 v;
#X text 236 115 Edit this;
#X obj 86 41 r DSP_get_parameters;
#X obj 86 63 f 0;
#X obj 86 110 dbtorms;
#X obj 86 87 sendreceive \$1_IN_BUS_6_GAIN;
#X obj 30 266 throw~ 6_BUS;
#X connect 0 0 8 0;
#X connect 1 0 8 1;
#X connect 1 1 2 0;
#X connect 2 0 4 0;
#X connect 4 0 5 0;
#X connect 4 1 7 0;
#X connect 5 0 6 0;
#X connect 6 0 3 0;
#X connect 7 0 3 0;
#X connect 8 0 20 0;
#X connect 9 0 8 2;
#X connect 9 0 5 1;
#X connect 16 0 17 0;
#X connect 17 0 19 0;
#X connect 18 0 1 0;
#X connect 19 0 17 1;
#X connect 19 0 18 0;
#X restore 53 180 pd bus_send_post 6;
#N canvas 0 0 350 376 bus_send_post 0;
#X obj 30 48 inlet~;
#X obj 86 131 t f f;
#X obj 111 153 > 0;
#X obj 149 282 switch~;
#X obj 142 204 sel 0 1;
#X obj 130 234 del 50;
#X msg 130 255 0;
#X msg 172 255 1;
#X obj 31 237 mull~ 0 50;
#X obj 92 180 r DSP_MIX_INTERPOL_TIME;
#X text 222 104 ^;
#X text 222 108 |;
#X text 222 115 |;
#X text 222 122 |;
#X text 222 129 v;
#X text 236 115 Edit this;
#X obj 86 41 r DSP_get_parameters;
#X obj 86 63 f 0;
#X obj 86 110 dbtorms;
#X obj 86 87 sendreceive \$1_IN_BUS_7_GAIN;
#X obj 30 266 throw~ 7_BUS;
#X connect 0 0 8 0;
#X connect 1 0 8 1;
#X connect 1 1 2 0;
#X connect 2 0 4 0;
#X connect 4 0 5 0;
#X connect 4 1 7 0;
#X connect 5 0 6 0;
#X connect 6 0 3 0;
#X connect 7 0 3 0;
#X connect 8 0 20 0;
#X connect 9 0 8 2;
#X connect 9 0 5 1;
#X connect 16 0 17 0;
#X connect 17 0 19 0;
#X connect 18 0 1 0;
#X connect 19 0 17 1;
#X connect 19 0 18 0;
#X restore 63 200 pd bus_send_post 7;
#N canvas 0 0 350 376 bus_send_post 0;
#X obj 30 48 inlet~;
#X obj 86 131 t f f;
#X obj 111 153 > 0;
#X obj 149 282 switch~;
#X obj 142 204 sel 0 1;
#X obj 130 234 del 50;
#X msg 130 255 0;
#X msg 172 255 1;
#X obj 31 237 mull~ 0 50;
#X obj 92 180 r DSP_MIX_INTERPOL_TIME;
#X text 222 104 ^;
#X text 222 108 |;
#X text 222 115 |;
#X text 222 122 |;
#X text 222 129 v;
#X text 236 115 Edit this;
#X obj 86 41 r DSP_get_parameters;
#X obj 86 63 f 0;
#X obj 86 110 dbtorms;
#X obj 31 266 throw~ 8_BUS;
#X obj 86 87 sendreceive \$1_IN_BUS_8_GAIN;
#X connect 0 0 8 0;
#X connect 1 0 8 1;
#X connect 1 1 2 0;
#X connect 2 0 4 0;
#X connect 4 0 5 0;
#X connect 4 1 7 0;
#X connect 5 0 6 0;
#X connect 6 0 3 0;
#X connect 7 0 3 0;
#X connect 8 0 19 0;
#X connect 9 0 8 2;
#X connect 9 0 5 1;
#X connect 16 0 17 0;
#X connect 17 0 20 0;
#X connect 18 0 1 0;
#X connect 20 0 17 1;
#X connect 20 0 18 0;
#X restore 73 220 pd bus_send_post 8;
#N canvas 0 0 350 376 bus_send_post 0;
#X obj 30 48 inlet~;
#X obj 86 131 t f f;
#X obj 111 153 > 0;
#X obj 149 282 switch~;
#X obj 142 204 sel 0 1;
#X obj 130 234 del 50;
#X msg 130 255 0;
#X msg 172 255 1;
#X obj 31 237 mull~ 0 50;
#X obj 92 180 r DSP_MIX_INTERPOL_TIME;
#X text 222 104 ^;
#X text 222 108 |;
#X text 222 115 |;
#X text 222 122 |;
#X text 222 129 v;
#X text 236 115 Edit this;
#X obj 86 41 r DSP_get_parameters;
#X obj 86 63 f 0;
#X obj 86 110 dbtorms;
#X obj 30 266 throw~ 9_BUS;
#X obj 86 87 sendreceive \$1_IN_BUS_9_GAIN;
#X connect 0 0 8 0;
#X connect 1 0 8 1;
#X connect 1 1 2 0;
#X connect 2 0 4 0;
#X connect 4 0 5 0;
#X connect 4 1 7 0;
#X connect 5 0 6 0;
#X connect 6 0 3 0;
#X connect 7 0 3 0;
#X connect 8 0 19 0;
#X connect 9 0 8 2;
#X connect 9 0 5 1;
#X connect 16 0 17 0;
#X connect 17 0 20 0;
#X connect 18 0 1 0;
#X connect 20 0 17 1;
#X connect 20 0 18 0;
#X restore 53 250 pd bus_send_post 9;
#N canvas 0 0 350 376 bus_send_post 0;
#X obj 30 48 inlet~;
#X obj 86 131 t f f;
#X obj 111 153 > 0;
#X obj 149 282 switch~;
#X obj 142 204 sel 0 1;
#X obj 130 234 del 50;
#X msg 130 255 0;
#X msg 172 255 1;
#X obj 31 237 mull~ 0 50;
#X obj 92 180 r DSP_MIX_INTERPOL_TIME;
#X text 222 104 ^;
#X text 222 108 |;
#X text 222 115 |;
#X text 222 122 |;
#X text 222 129 v;
#X text 236 115 Edit this;
#X obj 86 41 r DSP_get_parameters;
#X obj 86 63 f 0;
#X obj 86 110 dbtorms;
#X obj 30 266 throw~ 10_BUS;
#X obj 86 87 sendreceive \$1_IN_BUS_10_GAIN;
#X connect 0 0 8 0;
#X connect 1 0 8 1;
#X connect 1 1 2 0;
#X connect 2 0 4 0;
#X connect 4 0 5 0;
#X connect 4 1 7 0;
#X connect 5 0 6 0;
#X connect 6 0 3 0;
#X connect 7 0 3 0;
#X connect 8 0 19 0;
#X connect 9 0 8 2;
#X connect 9 0 5 1;
#X connect 16 0 17 0;
#X connect 17 0 20 0;
#X connect 18 0 1 0;
#X connect 20 0 17 1;
#X connect 20 0 18 0;
#X restore 63 270 pd bus_send_post 10;
#N canvas 0 0 350 376 bus_send_post 0;
#X obj 30 48 inlet~;
#X obj 86 131 t f f;
#X obj 111 153 > 0;
#X obj 149 282 switch~;
#X obj 142 204 sel 0 1;
#X obj 130 234 del 50;
#X msg 130 255 0;
#X msg 172 255 1;
#X obj 31 237 mull~ 0 50;
#X obj 92 180 r DSP_MIX_INTERPOL_TIME;
#X text 222 104 ^;
#X text 222 108 |;
#X text 222 115 |;
#X text 222 122 |;
#X text 222 129 v;
#X text 236 115 Edit this;
#X obj 86 41 r DSP_get_parameters;
#X obj 86 63 f 0;
#X obj 86 110 dbtorms;
#X obj 30 266 throw~ 11_BUS;
#X obj 86 87 sendreceive \$1_IN_BUS_11_GAIN;
#X connect 0 0 8 0;
#X connect 1 0 8 1;
#X connect 1 1 2 0;
#X connect 2 0 4 0;
#X connect 4 0 5 0;
#X connect 4 1 7 0;
#X connect 5 0 6 0;
#X connect 6 0 3 0;
#X connect 7 0 3 0;
#X connect 8 0 19 0;
#X connect 9 0 8 2;
#X connect 9 0 5 1;
#X connect 16 0 17 0;
#X connect 17 0 20 0;
#X connect 18 0 1 0;
#X connect 20 0 17 1;
#X connect 20 0 18 0;
#X restore 73 290 pd bus_send_post 11;
#N canvas 0 0 350 376 bus_send_post 0;
#X obj 30 48 inlet~;
#X obj 86 131 t f f;
#X obj 111 153 > 0;
#X obj 149 282 switch~;
#X obj 142 204 sel 0 1;
#X obj 130 234 del 50;
#X msg 130 255 0;
#X msg 172 255 1;
#X obj 31 237 mull~ 0 50;
#X obj 92 180 r DSP_MIX_INTERPOL_TIME;
#X text 222 104 ^;
#X text 222 108 |;
#X text 222 115 |;
#X text 222 122 |;
#X text 222 129 v;
#X text 236 115 Edit this;
#X obj 86 41 r DSP_get_parameters;
#X obj 86 63 f 0;
#X obj 86 110 dbtorms;
#X obj 30 266 throw~ 12_BUS;
#X obj 86 87 sendreceive \$1_IN_BUS_12_GAIN;
#X connect 0 0 8 0;
#X connect 1 0 8 1;
#X connect 1 1 2 0;
#X connect 2 0 4 0;
#X connect 4 0 5 0;
#X connect 4 1 7 0;
#X connect 5 0 6 0;
#X connect 6 0 3 0;
#X connect 7 0 3 0;
#X connect 8 0 19 0;
#X connect 9 0 8 2;
#X connect 9 0 5 1;
#X connect 16 0 17 0;
#X connect 17 0 20 0;
#X connect 18 0 1 0;
#X connect 20 0 17 1;
#X connect 20 0 18 0;
#X restore 83 310 pd bus_send_post 12;
#X connect 0 0 1 0;
#X connect 0 0 11 0;
#X connect 0 0 12 0;
#X connect 0 0 13 0;
#X connect 0 0 14 0;
#X connect 0 0 15 0;
#X connect 0 0 16 0;
#X connect 0 0 17 0;
#X connect 0 0 18 0;
#X connect 0 0 19 0;
#X connect 0 0 20 0;
#X connect 0 0 21 0;
#X connect 4 0 5 0;
#X connect 4 1 7 0;
#X connect 5 0 6 0;
#X connect 6 0 3 0;
#X connect 7 0 3 0;
#X connect 8 0 5 1;
#X connect 9 0 4 0;
#X restore 167 584 pd 12_bus_sends_post;
#X obj 356 257 r IN_SOLO;
#X obj 420 181 spigot38 1;
#X text 508 616 wenn SOLO != \$1 dann \$1-channel unbedingt OFF;
#X text 507 547 wenn SOLO == 0 dann aufheben von SOLO in \$1-channel
d.h. alter zustand (IN-ON);
#X text 508 580 wenn SOLO == \$1 dann \$1-channel unbedingt ON \, (alle
anderen OFF \, wird von 3.) erledigt);
#X obj 356 282 sel 0 \$1;
#X msg 403 305 0;
#X msg 377 305 1;
#X obj 400 138 f 0;
#X obj 388 330 f 0;
#X obj 388 350 t f f;
#X obj 412 373 == 0;
#X connect 0 0 28 0;
#X connect 8 0 11 0;
#X connect 8 1 11 1;
#X connect 9 0 10 2;
#X connect 10 0 0 0;
#X connect 10 0 69 0;
#X connect 10 0 70 0;
#X connect 10 0 40 0;
#X connect 10 0 54 0;
#X connect 11 0 10 1;
#X connect 12 0 13 0;
#X connect 13 0 16 0;
#X connect 13 0 53 0;
#X connect 14 0 34 0;
#X connect 15 0 25 0;
#X connect 16 0 24 0;
#X connect 17 0 33 0;
#X connect 19 0 23 0;
#X connect 19 0 66 0;
#X connect 19 1 21 0;
#X connect 19 1 44 0;
#X connect 19 1 60 0;
#X connect 19 1 63 0;
#X connect 20 0 18 0;
#X connect 21 0 18 0;
#X connect 22 0 23 1;
#X connect 23 0 20 0;
#X connect 23 0 61 0;
#X connect 23 0 45 0;
#X connect 24 0 17 0;
#X connect 25 0 39 0;
#X connect 33 0 10 0;
#X connect 33 0 68 0;
#X connect 33 0 55 0;
#X connect 34 0 50 0;
#X connect 35 0 11 0;
#X connect 36 0 38 0;
#X connect 37 0 35 0;
#X connect 37 0 38 1;
#X connect 38 0 37 0;
#X connect 39 0 25 1;
#X connect 39 0 79 0;
#X connect 40 0 28 0;
#X connect 41 0 0 1;
#X connect 41 1 70 1;
#X connect 43 0 67 0;
#X connect 44 0 43 0;
#X connect 45 0 43 0;
#X connect 46 0 49 0;
#X connect 47 0 46 0;
#X connect 48 0 47 0;
#X connect 49 0 47 1;
#X connect 49 0 51 0;
#X connect 50 0 12 0;
#X connect 50 0 34 1;
#X connect 51 0 57 0;
#X connect 51 1 56 0;
#X connect 51 2 58 0;
#X connect 52 0 59 0;
#X connect 56 0 52 0;
#X connect 57 0 52 0;
#X connect 58 0 52 0;
#X connect 59 0 43 0;
#X connect 60 0 23 0;
#X connect 60 0 61 0;
#X connect 61 0 62 0;
#X connect 62 0 43 0;
#X connect 63 0 65 0;
#X connect 63 1 64 0;
#X connect 64 0 65 1;
#X connect 65 0 44 0;
#X connect 66 0 65 0;
#X connect 68 0 28 0;
#X connect 69 0 28 0;
#X connect 70 0 28 0;
#X connect 71 0 76 0;
#X connect 72 0 19 0;
#X connect 72 0 8 0;
#X connect 76 0 79 0;
#X connect 76 1 78 0;
#X connect 76 2 77 0;
#X connect 77 0 80 0;
#X connect 78 0 80 0;
#X connect 79 0 72 0;
#X connect 80 0 81 0;
#X connect 81 0 8 0;
#X connect 81 0 19 0;
#X connect 81 1 82 0;
#X connect 82 0 72 1;
