#N canvas 42 0 821 674 10;
#N canvas 87 12 781 711 ambi_enc 0;
#X obj 43 76 inlet~;
#X obj 63 268 ambi_encode 4;
#X obj 63 289 pp col 1;
#N canvas 18 6 530 272 ambi_weight 0;
#X obj 61 33 inlet;
#X obj 60 201 outlet;
#X obj 60 176 pack 0 0 0 0 0;
#X obj 61 118 t f f f f f;
#N canvas 379 48 627 614 /SUBPATCH/ 0;
#X obj 89 31 inlet;
#X obj 54 355 outlet;
#X obj 146 258 wrap;
#X obj 30 153 + 1;
#X obj 39 280 -;
#X text 65 281 k;
#X obj 40 307 *;
#X obj 54 330 +;
#X obj 89 117 t f f f;
#X obj 146 236 + 1;
#X obj 30 176 tabread AMBI_WEIGHT_0;
#X obj 91 197 tabread AMBI_WEIGHT_0;
#X text 182 176 2 point interpolation;
#X connect 0 0 8 0;
#X connect 2 0 6 1;
#X connect 3 0 10 0;
#X connect 4 0 6 0;
#X connect 6 0 7 0;
#X connect 7 0 1 0;
#X connect 8 0 3 0;
#X connect 8 1 11 0;
#X connect 8 2 9 0;
#X connect 9 0 2 0;
#X connect 10 0 4 0;
#X connect 11 0 7 1;
#X connect 11 0 4 1;
#X restore 57 147 pd;
#N canvas 379 48 615 602 /SUBPATCH/ 0;
#X obj 89 31 inlet;
#X obj 54 355 outlet;
#X obj 146 258 wrap;
#X obj 30 153 + 1;
#X obj 39 280 -;
#X text 65 281 k;
#X obj 40 307 *;
#X obj 54 330 +;
#X obj 89 117 t f f f;
#X obj 146 236 + 1;
#X text 207 143 2 point interpolation;
#X obj 30 176 tabread AMBI_WEIGHT_1;
#X obj 91 197 tabread AMBI_WEIGHT_1;
#X connect 0 0 8 0;
#X connect 2 0 6 1;
#X connect 3 0 11 0;
#X connect 4 0 6 0;
#X connect 6 0 7 0;
#X connect 7 0 1 0;
#X connect 8 0 3 0;
#X connect 8 1 12 0;
#X connect 8 2 9 0;
#X connect 9 0 2 0;
#X connect 11 0 4 0;
#X connect 12 0 7 1;
#X connect 12 0 4 1;
#X restore 81 147 pd;
#N canvas 379 48 615 602 /SUBPATCH/ 0;
#X obj 89 31 inlet;
#X obj 54 355 outlet;
#X obj 146 258 wrap;
#X obj 30 153 + 1;
#X obj 39 280 -;
#X text 65 281 k;
#X obj 40 307 *;
#X obj 54 330 +;
#X obj 89 117 t f f f;
#X obj 146 236 + 1;
#X text 212 144 2 point interpolation;
#X obj 30 176 tabread AMBI_WEIGHT_2;
#X obj 91 197 tabread AMBI_WEIGHT_2;
#X connect 0 0 8 0;
#X connect 2 0 6 1;
#X connect 3 0 11 0;
#X connect 4 0 6 0;
#X connect 6 0 7 0;
#X connect 7 0 1 0;
#X connect 8 0 3 0;
#X connect 8 1 12 0;
#X connect 8 2 9 0;
#X connect 9 0 2 0;
#X connect 11 0 4 0;
#X connect 12 0 7 1;
#X connect 12 0 4 1;
#X restore 105 147 pd;
#N canvas 379 48 611 598 /SUBPATCH/ 0;
#X obj 89 31 inlet;
#X obj 54 355 outlet;
#X obj 146 258 wrap;
#X obj 30 153 + 1;
#X obj 39 280 -;
#X text 65 281 k;
#X obj 40 307 *;
#X obj 54 330 +;
#X obj 89 117 t f f f;
#X obj 146 236 + 1;
#X obj 30 176 tabread AMBI_WEIGHT_3;
#X obj 91 197 tabread AMBI_WEIGHT_3;
#X text 176 158 2 point interpolation;
#X connect 0 0 8 0;
#X connect 2 0 6 1;
#X connect 3 0 10 0;
#X connect 4 0 6 0;
#X connect 6 0 7 0;
#X connect 7 0 1 0;
#X connect 8 0 3 0;
#X connect 8 1 11 0;
#X connect 8 2 9 0;
#X connect 9 0 2 0;
#X connect 10 0 4 0;
#X connect 11 0 7 1;
#X connect 11 0 4 1;
#X restore 129 147 pd;
#N canvas 379 48 615 602 /SUBPATCH/ 0;
#X obj 89 31 inlet;
#X obj 54 355 outlet;
#X obj 146 258 wrap;
#X obj 30 153 + 1;
#X obj 39 280 -;
#X text 65 281 k;
#X obj 40 307 *;
#X obj 54 330 +;
#X obj 89 117 t f f f;
#X obj 146 236 + 1;
#X obj 30 176 tabread AMBI_WEIGHT_4;
#X obj 91 197 tabread AMBI_WEIGHT_4;
#X text 177 159 2 point interpolation;
#X connect 0 0 8 0;
#X connect 2 0 6 1;
#X connect 3 0 10 0;
#X connect 4 0 6 0;
#X connect 6 0 7 0;
#X connect 7 0 1 0;
#X connect 8 0 3 0;
#X connect 8 1 11 0;
#X connect 8 2 9 0;
#X connect 9 0 2 0;
#X connect 10 0 4 0;
#X connect 11 0 7 1;
#X connect 11 0 4 1;
#X restore 153 148 pd;
#X obj 61 56 clip 0 1;
#X obj 61 77 * 7;
#X text 115 54 radius is clipped between 0 and 1 (= ambisonic radius)
;
#X connect 0 0 9 0;
#X connect 2 0 1 0;
#X connect 3 0 4 0;
#X connect 3 1 5 0;
#X connect 3 2 6 0;
#X connect 3 3 7 0;
#X connect 3 4 8 0;
#X connect 4 0 2 0;
#X connect 5 0 2 1;
#X connect 6 0 2 2;
#X connect 7 0 2 3;
#X connect 8 0 2 4;
#X connect 9 0 10 0;
#X connect 10 0 3 0;
#X restore 116 221 pd ambi_weight;
#X obj 116 242 pp ambi_weight;
#X obj 281 327 switch~;
#N canvas 0 0 969 385 set_name_________________________________________________
0;
#X obj 834 10 inlet;
#X obj 832 40 sel 0 1;
#X obj 23 149 outlet;
#X obj 93 149 outlet;
#X obj 163 150 outlet;
#X obj 233 150 outlet;
#X obj 305 150 outlet;
#X obj 375 150 outlet;
#X obj 445 151 outlet;
#X obj 515 151 outlet;
#X obj 593 167 outlet;
#X obj 663 167 outlet;
#X obj 733 168 outlet;
#X obj 803 168 outlet;
#X obj 875 168 outlet;
#X obj 945 168 outlet;
#X obj 1015 169 outlet;
#X obj 1085 169 outlet;
#X obj 1159 191 outlet;
#X obj 1229 191 outlet;
#X obj 1299 192 outlet;
#X obj 1369 192 outlet;
#X obj 1441 192 outlet;
#X obj 1511 192 outlet;
#X obj 1581 193 outlet;
#X obj 1651 193 outlet;
#X obj 1725 194 outlet;
#X msg 808 71 set 0_AMBI_BUS;
#X msg 1725 171 set 25_AMBI_BUS;
#X msg 1650 147 set 24_AMBI_BUS;
#X msg 1581 170 set 23_AMBI_BUS;
#X msg 1511 146 set 22_AMBI_BUS;
#X msg 1441 169 set 21_AMBI_BUS;
#X msg 1369 146 set 20_AMBI_BUS;
#X msg 1299 169 set 19_AMBI_BUS;
#X msg 1229 145 set 18_AMBI_BUS;
#X msg 1159 168 set 17_AMBI_BUS;
#X msg 1084 146 set 16_AMBI_BUS;
#X msg 1015 122 set 15_AMBI_BUS;
#X msg 945 145 set 14_AMBI_BUS;
#X msg 875 121 set 13_AMBI_BUS;
#X msg 803 145 set 12_AMBI_BUS;
#X msg 23 103 set 1_AMBI_BUS;
#X msg 93 126 set 2_AMBI_BUS;
#X msg 163 104 set 3_AMBI_BUS;
#X msg 306 103 set 5_AMBI_BUS;
#X msg 233 127 set 4_AMBI_BUS;
#X msg 375 126 set 6_AMBI_BUS;
#X msg 445 104 set 7_AMBI_BUS;
#X msg 516 127 set 8_AMBI_BUS;
#X msg 594 105 set 9_AMBI_BUS;
#X msg 664 144 set 10_AMBI_BUS;
#X msg 733 121 set 11_AMBI_BUS;
#X connect 0 0 1 0;
#X connect 1 0 27 0;
#X connect 1 1 42 0;
#X connect 1 1 43 0;
#X connect 1 1 44 0;
#X connect 1 1 46 0;
#X connect 1 1 45 0;
#X connect 1 1 47 0;
#X connect 1 1 48 0;
#X connect 1 1 49 0;
#X connect 1 1 50 0;
#X connect 1 1 51 0;
#X connect 1 1 52 0;
#X connect 1 1 41 0;
#X connect 1 1 40 0;
#X connect 1 1 39 0;
#X connect 1 1 38 0;
#X connect 1 1 37 0;
#X connect 1 1 36 0;
#X connect 1 1 35 0;
#X connect 1 1 34 0;
#X connect 1 1 33 0;
#X connect 1 1 32 0;
#X connect 1 1 31 0;
#X connect 1 1 30 0;
#X connect 1 1 29 0;
#X connect 1 1 28 0;
#X connect 27 0 2 0;
#X connect 27 0 3 0;
#X connect 27 0 4 0;
#X connect 27 0 5 0;
#X connect 27 0 6 0;
#X connect 27 0 7 0;
#X connect 27 0 8 0;
#X connect 27 0 9 0;
#X connect 27 0 10 0;
#X connect 27 0 11 0;
#X connect 27 0 12 0;
#X connect 27 0 13 0;
#X connect 27 0 14 0;
#X connect 27 0 15 0;
#X connect 27 0 16 0;
#X connect 27 0 17 0;
#X connect 27 0 18 0;
#X connect 27 0 19 0;
#X connect 27 0 20 0;
#X connect 27 0 21 0;
#X connect 27 0 22 0;
#X connect 27 0 23 0;
#X connect 27 0 24 0;
#X connect 27 0 25 0;
#X connect 27 0 26 0;
#X connect 28 0 26 0;
#X connect 29 0 25 0;
#X connect 30 0 24 0;
#X connect 31 0 23 0;
#X connect 32 0 22 0;
#X connect 33 0 21 0;
#X connect 34 0 20 0;
#X connect 35 0 19 0;
#X connect 36 0 18 0;
#X connect 37 0 17 0;
#X connect 38 0 16 0;
#X connect 39 0 15 0;
#X connect 40 0 14 0;
#X connect 41 0 13 0;
#X connect 42 0 2 0;
#X connect 43 0 3 0;
#X connect 44 0 4 0;
#X connect 45 0 6 0;
#X connect 46 0 5 0;
#X connect 47 0 7 0;
#X connect 48 0 8 0;
#X connect 49 0 9 0;
#X connect 50 0 10 0;
#X connect 51 0 11 0;
#X connect 52 0 12 0;
#X restore 48 437 pd set_name_________________________________________________
;
#X obj 210 169 sel 0 1;
#X obj 280 256 del 50;
#X msg 280 281 0;
#X msg 309 281 1;
#X text 415 437 set throw-name to 0_AMBI \, if not used;
#N canvas 85 42 857 617 distance 0;
#X obj 76 51 inlet~;
#X obj 78 466 outlet~;
#X obj 585 53 inlet;
#X obj 164 226 transf_fader;
#X obj 164 51 loadbang;
#X msg 164 72 pairs 0 9000 10 8000 20 7000 30 6000 40 5000 50 4200
60 3500 70 2900 80 2600 90 2300 100 2000;
#X obj 116 320 * 2;
#X obj 77 343 lp1~ 18000 100;
#X obj 193 202 transf_fader;
#X obj 193 140 loadbang;
#X msg 193 161 pairs 0 0 10 20 20 40 30 54 40 67 50 78 60 87 70 94
80 97 90 99 100 100;
#X obj 156 320 * 2;
#X obj 624 98 clip 1 10000;
#X obj 624 143 /;
#X msg 624 121 1 \$1;
#X obj 780 54 inlet;
#X obj 580 282 t b f;
#X text 583 34 radius;
#X text 774 36 switch;
#X obj 554 99 clip 0 1;
#X obj 554 120 * 100;
#X obj 164 247 change 9000;
#X obj 274 257 r DSP_MIX_INTERPOL_TIME;
#X obj 77 427 mull~ 0 50;
#X obj 382 351 * 0;
#X connect 0 0 7 0;
#X connect 2 0 12 0;
#X connect 2 0 19 0;
#X connect 3 0 21 0;
#X connect 4 0 5 0;
#X connect 5 0 3 0;
#X connect 6 0 7 1;
#X connect 7 0 23 0;
#X connect 8 0 3 0;
#X connect 9 0 10 0;
#X connect 10 0 8 0;
#X connect 11 0 7 2;
#X connect 12 0 14 0;
#X connect 13 0 24 0;
#X connect 14 0 13 0;
#X connect 15 0 16 0;
#X connect 16 0 24 0;
#X connect 16 1 24 1;
#X connect 19 0 20 0;
#X connect 20 0 8 0;
#X connect 21 0 6 0;
#X connect 22 0 11 0;
#X connect 22 0 23 2;
#X connect 23 0 1 0;
#X connect 24 0 23 1;
#X restore 44 321 pd distance;
#X msg 210 246 0;
#X msg 239 246 1;
#X obj 381 216 r DSP_MIX_INTERPOL_TIME;
#X obj 58 173 f 1;
#X obj 288 96 f 0;
#X obj 492 104 f 0;
#X obj 372 166 pack 0 0;
#X text 505 148 1.)azimut;
#X text 538 164 2.)elevation;
#X obj 43 630 throw~ 0_AMBI_BUS;
#X obj 57 608 throw~ 0_AMBI_BUS;
#X obj 72 587 throw~ 0_AMBI_BUS;
#X obj 87 564 throw~ 0_AMBI_BUS;
#X obj 102 543 throw~ 0_AMBI_BUS;
#X obj 117 520 throw~ 0_AMBI_BUS;
#X obj 132 498 throw~ 0_AMBI_BUS;
#X obj 148 478 throw~ 0_AMBI_BUS;
#X obj 160 630 throw~ 0_AMBI_BUS;
#X obj 175 608 throw~ 0_AMBI_BUS;
#X obj 192 586 throw~ 0_AMBI_BUS;
#X obj 205 564 throw~ 0_AMBI_BUS;
#X obj 220 543 throw~ 0_AMBI_BUS;
#X obj 235 520 throw~ 0_AMBI_BUS;
#X obj 250 498 throw~ 0_AMBI_BUS;
#X obj 265 476 throw~ 0_AMBI_BUS;
#X obj 279 630 throw~ 0_AMBI_BUS;
#X obj 294 608 throw~ 0_AMBI_BUS;
#X obj 309 586 throw~ 0_AMBI_BUS;
#X obj 324 564 throw~ 0_AMBI_BUS;
#X obj 339 542 throw~ 0_AMBI_BUS;
#X obj 354 520 throw~ 0_AMBI_BUS;
#X obj 369 498 throw~ 0_AMBI_BUS;
#X obj 384 478 throw~ 0_AMBI_BUS;
#X obj 398 631 throw~ 0_AMBI_BUS;
#X obj 127 17 r DSP_get_parameters;
#X obj 127 40 t b b b b;
#X obj 273 24 inlet;
#X text 268 5 ambi_on;
#X obj 39 660 outlet~;
#X obj 69 148 r \$1_IN_AMBI_RAD_to_DSP;
#X obj 58 197 s \$1_IN_AMBI_RAD_from_DSP;
#X obj 288 120 s \$1_IN_AMBI_ELV_from_DSP;
#X obj 301 68 r \$1_IN_AMBI_ELV_to_DSP;
#X obj 484 76 r \$1_IN_AMBI_AZM_to_DSP;
#X obj 492 127 s \$1_IN_AMBI_AZM_from_DSP;
#X obj 43 406 mtx_*~ 25 1 50 __________________________________;
#X connect 0 0 12 0;
#X connect 1 0 2 0;
#X connect 2 0 58 0;
#X connect 3 0 4 0;
#X connect 4 0 1 0;
#X connect 6 0 22 0;
#X connect 6 1 23 0;
#X connect 6 2 24 0;
#X connect 6 3 25 0;
#X connect 6 4 26 0;
#X connect 6 5 27 0;
#X connect 6 6 28 0;
#X connect 6 7 29 0;
#X connect 6 8 30 0;
#X connect 6 9 31 0;
#X connect 6 10 32 0;
#X connect 6 11 33 0;
#X connect 6 12 34 0;
#X connect 6 13 35 0;
#X connect 6 14 36 0;
#X connect 6 15 37 0;
#X connect 6 16 38 0;
#X connect 6 17 39 0;
#X connect 6 18 40 0;
#X connect 6 19 41 0;
#X connect 6 20 42 0;
#X connect 6 21 43 0;
#X connect 6 22 44 0;
#X connect 6 23 45 0;
#X connect 6 24 46 0;
#X connect 7 0 8 0;
#X connect 7 0 13 0;
#X connect 7 1 10 0;
#X connect 7 1 14 0;
#X connect 8 0 9 0;
#X connect 9 0 5 0;
#X connect 9 0 6 0;
#X connect 10 0 5 0;
#X connect 10 0 6 0;
#X connect 12 0 58 1;
#X connect 13 0 12 2;
#X connect 14 0 12 2;
#X connect 15 0 8 1;
#X connect 15 0 58 2;
#X connect 16 0 53 0;
#X connect 17 0 54 0;
#X connect 18 0 57 0;
#X connect 19 0 1 0;
#X connect 47 0 48 0;
#X connect 48 1 16 0;
#X connect 48 2 17 0;
#X connect 48 3 18 0;
#X connect 49 0 7 0;
#X connect 52 0 16 1;
#X connect 52 0 3 0;
#X connect 52 0 12 1;
#X connect 55 0 17 1;
#X connect 55 0 19 0;
#X connect 56 0 18 1;
#X connect 56 0 19 1;
#X connect 58 0 22 0;
#X connect 58 1 23 0;
#X connect 58 2 24 0;
#X connect 58 3 25 0;
#X connect 58 4 26 0;
#X connect 58 5 27 0;
#X connect 58 6 28 0;
#X connect 58 7 29 0;
#X connect 58 8 30 0;
#X connect 58 9 31 0;
#X connect 58 10 32 0;
#X connect 58 11 33 0;
#X connect 58 12 34 0;
#X connect 58 13 35 0;
#X connect 58 14 36 0;
#X connect 58 15 37 0;
#X connect 58 16 38 0;
#X connect 58 17 39 0;
#X connect 58 18 40 0;
#X connect 58 19 41 0;
#X connect 58 20 42 0;
#X connect 58 21 43 0;
#X connect 58 22 44 0;
#X connect 58 23 45 0;
#X connect 58 24 46 0;
#X restore 266 521 pd ambi_enc;
#X text 59 5 dummy;
#X text 63 578 dummy;
#X text 42 359 fader;
#X text 92 508 fader;
#X text 46 348 pre;
#X text 94 497 post;
#X text 21 114 EQ;
#X obj 191 391 t b f;
#X obj 167 420 r DSP_MIX_INTERPOL_TIME;
#X obj 138 364 dbtorms;
#X obj 191 368 r \$1_IN_CH_ON1_OFF0_to_DSP;
#X obj 361 390 r DSP_get_parameters;
#X obj 111 444 mull~ 0 50;
#X obj 138 342 r \$1_IN_FADER_GAIN_to_DSP;
#X obj 361 435 s \$1_IN_FADER_GAIN_from_DSP;
#X obj 138 423 * 0;
#X obj 361 413 f 0;
#X obj 60 102 pp set;
#X obj 60 128 r~ 0_ADC;
#X msg 191 126 0_ADC;
#X obj 191 101 r DSP_get_settings;
#X obj 60 74 r \$1_IN_SEL_SRC_to_DSP;
#X obj 191 148 s \$1_IN_SEL_SRC_from_DSP;
#X obj 363 512 s \$1_IN_CH_ON1_OFF0_from_DSP;
#X obj 364 464 r DSP_get_settings;
#N canvas 381 149 762 618 del_inv_gain 0;
#X obj 60 470 outlet~;
#X obj 60 343 mull~ 1 50;
#X obj 87 301 * 1;
#X obj 96 215 t b f;
#X obj 96 192 clip -1 1;
#X obj 133 381 clip 0 1000;
#X obj 87 322 * 1;
#X obj 198 100 t b f;
#N canvas 0 0 478 328 delay2 0;
#X obj 101 61 inlet~;
#X obj 101 129 outlet~;
#X obj 102 101 delread~ \$0_mix_ch_del 0;
#X obj 221 60 inlet;
#X connect 2 0 1 0;
#X connect 3 0 2 0;
#X restore 61 414 pd delay2;
#N canvas 0 0 462 312 delay1 0;
#X obj 146 50 inlet~;
#X obj 144 206 outlet~;
#X obj 146 106 delwrite~ \$0_mix_ch_del 1000;
#X connect 0 0 2 0;
#X restore 60 387 pd delay1;
#X text 253 53 ON_OFF;
#X text 257 62 mute;
#X obj 116 319 r DSP_MIX_INTERPOL_TIME;
#X obj 330 310 f 0;
#X obj 361 281 f 1;
#X obj 413 244 f 100;
#X obj 87 263 dbtorms;
#X obj 95 170 r \$1_IN_INV_to_DSP;
#X obj 133 359 r \$1_IN_DEL_to_DSP;
#X obj 198 77 r \$1_IN_CH_ON1_OFF0_to_DSP;
#X obj 384 72 r DSP_get_settings;
#X obj 413 221 r DSP_get_parameters;
#X obj 361 304 s \$1_IN_INV_from_DSP;
#X obj 330 332 s \$1_IN_DEL_from_DSP;
#X obj 87 241 r \$1_IN_ADJ_GAIN_to_DSP;
#X obj 413 266 s \$1_IN_ADJ_GAIN_from_DSP;
#X obj 59 107 inlet~;
#X obj 384 95 t b b;
#X connect 1 0 9 0;
#X connect 2 0 6 0;
#X connect 3 0 2 0;
#X connect 3 1 2 1;
#X connect 4 0 3 0;
#X connect 4 0 14 1;
#X connect 5 0 8 1;
#X connect 5 0 13 1;
#X connect 6 0 1 1;
#X connect 7 0 2 0;
#X connect 7 1 6 1;
#X connect 8 0 0 0;
#X connect 9 0 8 0;
#X connect 12 0 1 2;
#X connect 13 0 23 0;
#X connect 14 0 22 0;
#X connect 15 0 25 0;
#X connect 16 0 2 0;
#X connect 17 0 4 0;
#X connect 18 0 5 0;
#X connect 19 0 7 0;
#X connect 20 0 27 0;
#X connect 21 0 15 0;
#X connect 24 0 15 1;
#X connect 24 0 16 0;
#X connect 26 0 1 0;
#X connect 27 0 13 0;
#X connect 27 1 14 0;
#X restore 60 151 pd del_inv_gain;
#N canvas 0 0 428 427 para_EQ_4 0;
#X obj 77 41 inlet~;
#X obj 86 352 outlet~;
#X obj 156 78 r DSP_get_parameters;
#X obj 86 317 +~;
#X obj 127 193 r DSP_MIX_INTERPOL_TIME;
#X obj 59 221 mull~ 1 50;
#X obj 88 188 == 0;
#X obj 161 152 s \$1_IN_EQ_ON1_OFF0_from_DSP;
#X obj 175 101 r \$1_IN_EQ_ON1_OFF0_to_DSP;
#N canvas 0 0 966 711 para_EQ_4 0;
#X obj 50 24 inlet~;
#X obj 564 636 outlet~;
#X obj 653 411 switch~;
#X obj 661 291 sel 0 1;
#X msg 653 380 0;
#X msg 681 380 1;
#X obj 65 196 - 100;
#X obj 191 322 - 100;
#X obj 658 201 - 100;
#X obj 141 585 - 100;
#X obj 106 97 r \$1_IN_EQ_LOW_TRANS_FREQ_to_DSP;
#X obj 304 177 r \$1_IN_EQ_HIGH_TRANS_FREQ_to_DSP;
#X obj 94 371 r \$1_IN_EQ_MID1_FREQ_to_DSP;
#X obj 615 33 r \$1_IN_EQ_MID2_FREQ_to_DSP;
#X obj 120 457 r \$1_IN_EQ_MID1_Q_to_DSP;
#X obj 636 102 r \$1_IN_EQ_MID2_Q_to_DSP;
#X obj 65 170 r \$1_IN_EQ_LOW_GAIN_to_DSP;
#X obj 191 254 r \$1_IN_EQ_HIGH_GAIN_to_DSP;
#X obj 147 528 r \$1_IN_EQ_MID1_GAIN_to_DSP;
#X obj 690 176 r \$1_IN_EQ_MID2_GAIN_to_DSP;
#X obj 661 265 r \$1_IN_EQ_ON1_OFF0_to_DSP;
#X obj 119 145 s \$1_IN_EQ_LOW_TRANS_FREQ_from_DSP;
#X obj 310 223 s \$1_IN_EQ_HIGH_TRANS_FREQ_from_DSP;
#X obj 82 426 s \$1_IN_EQ_MID1_FREQ_from_DSP;
#X obj 624 82 s \$1_IN_EQ_MID2_FREQ_from_DSP;
#X obj 111 504 s \$1_IN_EQ_MID1_Q_from_DSP;
#X obj 648 151 s \$1_IN_EQ_MID2_Q_from_DSP;
#X obj 115 216 s \$1_IN_EQ_LOW_GAIN_from_DSP;
#X obj 231 307 s \$1_IN_EQ_HIGH_GAIN_from_DSP;
#X obj 713 226 s \$1_IN_EQ_MID2_GAIN_from_DSP;
#X obj 115 193 f 100;
#X obj 231 284 f 100;
#X obj 183 576 s \$1_IN_EQ_MID1_GAIN_from_DSP;
#X obj 183 554 f 100;
#X obj 713 205 f 100;
#X obj 51 349 hml_shelf~ 0 100 0 4000 0 300;
#X obj 51 607 para_bp2~ 440 1 0 300;
#X obj 562 223 para_bp2~ 1200 1 0 300;
#X obj 648 127 f 1;
#X obj 111 481 f 1;
#X obj 82 405 f 440;
#X obj 624 59 f 1200;
#X obj 563 366 mull~ 0 50;
#X obj 646 357 del 50;
#X obj 694 327 r DSP_MIX_INTERPOL_TIME;
#X obj 119 123 f 100;
#X obj 310 201 f 4000;
#X obj 363 35 r DSP_get_parameters;
#X obj 363 55 t b b b b;
#X obj 286 408 r DSP_get_parameters;
#X obj 286 428 t b b b;
#X obj 825 36 r DSP_get_parameters;
#X obj 825 56 t b b b;
#X connect 0 0 35 0;
#X connect 3 0 43 0;
#X connect 3 1 5 0;
#X connect 4 0 2 0;
#X connect 5 0 2 0;
#X connect 6 0 35 1;
#X connect 7 0 35 5;
#X connect 8 0 37 3;
#X connect 9 0 36 3;
#X connect 10 0 35 2;
#X connect 10 0 45 1;
#X connect 11 0 35 4;
#X connect 11 0 46 1;
#X connect 12 0 36 1;
#X connect 12 0 40 1;
#X connect 13 0 37 1;
#X connect 13 0 41 1;
#X connect 14 0 36 2;
#X connect 14 0 39 1;
#X connect 15 0 37 2;
#X connect 15 0 38 1;
#X connect 16 0 30 1;
#X connect 16 0 6 0;
#X connect 17 0 31 1;
#X connect 17 0 7 0;
#X connect 18 0 33 1;
#X connect 18 0 9 0;
#X connect 19 0 34 1;
#X connect 19 0 8 0;
#X connect 20 0 3 0;
#X connect 20 0 42 1;
#X connect 30 0 27 0;
#X connect 31 0 28 0;
#X connect 33 0 32 0;
#X connect 34 0 29 0;
#X connect 35 0 36 0;
#X connect 36 0 37 0;
#X connect 37 0 42 0;
#X connect 38 0 26 0;
#X connect 39 0 25 0;
#X connect 40 0 23 0;
#X connect 41 0 24 0;
#X connect 42 0 1 0;
#X connect 43 0 4 0;
#X connect 44 0 43 1;
#X connect 44 0 42 2;
#X connect 45 0 21 0;
#X connect 46 0 22 0;
#X connect 47 0 48 0;
#X connect 48 0 45 0;
#X connect 48 1 30 0;
#X connect 48 2 31 0;
#X connect 48 3 46 0;
#X connect 49 0 50 0;
#X connect 50 0 40 0;
#X connect 50 1 39 0;
#X connect 50 2 33 0;
#X connect 51 0 52 0;
#X connect 52 0 41 0;
#X connect 52 1 38 0;
#X connect 52 2 34 0;
#X restore 149 242 pd para_EQ_4;
#X obj 161 125 f 0;
#X connect 0 0 5 0;
#X connect 0 0 9 0;
#X connect 2 0 10 0;
#X connect 3 0 1 0;
#X connect 4 0 5 2;
#X connect 5 0 3 0;
#X connect 6 0 5 1;
#X connect 8 0 10 1;
#X connect 8 0 6 0;
#X connect 9 0 3 1;
#X connect 10 0 7 0;
#X restore 61 209 pd para_EQ_4;
#X obj 279 311 switch~;
#X obj 282 194 sel 0 1;
#X msg 279 280 0;
#X msg 325 278 1;
#X obj 308 224 r DSP_MIX_INTERPOL_TIME;
#X obj 279 245 del 50;
#N canvas 0 0 730 683 low_high_cutoff 0;
#X obj 50 24 inlet~;
#X obj 72 571 outlet~;
#X obj 233 71 r \$1_IN_LOWCUT_ON1_OFF0_to_DSP;
#X obj 237 297 r \$1_IN_HIGHCUT_ON1_OFF0_to_DSP;
#X obj 174 44 r \$1_IN_LOWCUT_FREQ_to_DSP;
#X obj 158 249 r \$1_IN_HIGHCUT_FREQ_to_DSP;
#X obj 222 545 s \$1_IN_LOWCUT_FREQ_from_DSP;
#X obj 435 483 s \$1_IN_LOWCUT_ON1_OFF0_from_DSP;
#X obj 496 443 s \$1_IN_HIGHCUT_ON1_OFF0_from_DSP;
#X obj 298 517 s \$1_IN_HIGHCUT_FREQ_from_DSP;
#X obj 438 321 r DSP_get_parameters;
#X obj 438 341 t b b b b;
#X obj 222 517 f 75;
#X obj 298 495 f 8000;
#X obj 37 289 +~;
#X obj 72 536 +~;
#X obj 95 121 r DSP_MIX_INTERPOL_TIME;
#X obj 152 381 r DSP_MIX_INTERPOL_TIME;
#X obj 435 457 f 0;
#X obj 493 406 f 0;
#X obj 36 419 mull~ 1 50;
#X obj 32 154 mull~ 1 50;
#X obj 61 121 == 0;
#X obj 62 394 == 0;
#N canvas 0 0 501 694 LOWCUT 0;
#X obj 50 24 inlet~;
#X obj 50 287 outlet~;
#X obj 51 119 hp3_bess~ 75 300;
#X obj 50 240 mull~ 0 50;
#X obj 132 22 inlet;
#X obj 227 19 inlet;
#X text 133 6 freq;
#X text 226 3 on_off;
#X obj 238 294 switch~;
#X obj 325 120 sel 0 1;
#X msg 238 263 0;
#X msg 284 261 1;
#X obj 173 120 r DSP_MIX_INTERPOL_TIME;
#X obj 238 228 del 50;
#X connect 0 0 2 0;
#X connect 2 0 3 0;
#X connect 3 0 1 0;
#X connect 4 0 2 1;
#X connect 5 0 3 1;
#X connect 5 0 9 0;
#X connect 9 0 13 0;
#X connect 9 1 11 0;
#X connect 10 0 8 0;
#X connect 11 0 8 0;
#X connect 12 0 3 2;
#X connect 12 0 13 1;
#X connect 13 0 10 0;
#X restore 129 170 pd LOWCUT;
#N canvas 0 0 509 702 HIGHCUT 0;
#X obj 50 24 inlet~;
#X obj 50 287 outlet~;
#X obj 50 240 mull~ 0 50;
#X obj 132 22 inlet;
#X obj 227 19 inlet;
#X text 133 6 freq;
#X text 226 3 on_off;
#X obj 238 294 switch~;
#X obj 325 120 sel 0 1;
#X msg 238 263 0;
#X msg 284 261 1;
#X obj 173 120 r DSP_MIX_INTERPOL_TIME;
#X obj 238 228 del 50;
#X obj 51 118 lp3_bess~ 8000 300;
#X connect 0 0 13 0;
#X connect 2 0 1 0;
#X connect 3 0 13 1;
#X connect 4 0 2 1;
#X connect 4 0 8 0;
#X connect 8 0 12 0;
#X connect 8 1 10 0;
#X connect 9 0 7 0;
#X connect 10 0 7 0;
#X connect 11 0 2 2;
#X connect 11 0 12 1;
#X connect 12 0 9 0;
#X connect 13 0 2 0;
#X restore 125 448 pd HIGHCUT;
#X connect 0 0 21 0;
#X connect 0 0 24 0;
#X connect 2 0 18 1;
#X connect 2 0 22 0;
#X connect 2 0 24 2;
#X connect 3 0 19 1;
#X connect 3 0 23 0;
#X connect 3 0 25 2;
#X connect 4 0 12 1;
#X connect 4 0 24 1;
#X connect 5 0 13 1;
#X connect 5 0 25 1;
#X connect 10 0 11 0;
#X connect 11 0 12 0;
#X connect 11 1 18 0;
#X connect 11 2 13 0;
#X connect 11 3 19 0;
#X connect 12 0 6 0;
#X connect 13 0 9 0;
#X connect 14 0 20 0;
#X connect 14 0 25 0;
#X connect 15 0 1 0;
#X connect 16 0 21 2;
#X connect 17 0 20 2;
#X connect 18 0 7 0;
#X connect 19 0 8 0;
#X connect 20 0 15 0;
#X connect 21 0 14 0;
#X connect 22 0 21 1;
#X connect 23 0 20 1;
#X connect 24 0 14 1;
#X connect 25 0 15 1;
#X restore 60 184 pd low_high_cutoff;
#X obj 139 310 s~ \$1_PRE;
#X obj 226 476 s~ \$1_POST;
#X obj 363 491 f 0;
#X text 356 19 1.arg: <float> mix_ch_index;
#N canvas 0 0 532 538 8_aux_sends_pre 0;
#X obj 40 25 inlet~;
#N canvas 0 0 614 657 aux_send_pre 0;
#X obj 45 195 inlet~;
#X obj 217 231 t b f;
#X obj 110 221 t f f;
#X obj 135 243 > 0;
#X obj 227 267 &&;
#X obj 233 418 switch~;
#X obj 227 324 sel 0 1;
#X obj 194 367 del 50;
#X msg 194 388 0;
#X msg 281 386 1;
#X obj 46 384 mull~ 0 50;
#X obj 362 209 r \$1_IN_AUX_SND_DST_1_to_DSP;
#X obj 326 235 pp set;
#X obj 127 301 r DSP_MIX_INTERPOL_TIME;
#X text 482 161 ^;
#X text 482 165 |;
#X text 482 172 |;
#X text 482 179 |;
#X text 482 186 v;
#X text 496 172 Edit this;
#X obj 326 132 r \$1_IN_AUX_SND_PST1_PRE0_1_to_DSP;
#X obj 110 131 r \$1_IN_AUX_SND_GAIN_1_to_DSP;
#X obj 110 200 dbtorms;
#X obj 326 155 == 0;
#X obj 47 413 throw~ 1_AUX_SND;
#X connect 0 0 10 0;
#X connect 1 0 4 0;
#X connect 1 1 4 1;
#X connect 2 0 10 1;
#X connect 2 1 3 0;
#X connect 3 0 4 0;
#X connect 4 0 6 0;
#X connect 6 0 7 0;
#X connect 6 1 9 0;
#X connect 7 0 8 0;
#X connect 8 0 5 0;
#X connect 9 0 5 0;
#X connect 10 0 24 0;
#X connect 11 0 12 0;
#X connect 12 0 24 0;
#X connect 13 0 10 2;
#X connect 13 0 7 1;
#X connect 20 0 23 0;
#X connect 21 0 22 0;
#X connect 22 0 2 0;
#X connect 23 0 1 0;
#X restore 32 100 pd aux_send_pre 1;
#N canvas 0 0 610 653 aux_send_pre 0;
#X obj 45 195 inlet~;
#X obj 217 231 t b f;
#X obj 110 221 t f f;
#X obj 135 243 > 0;
#X obj 227 267 &&;
#X obj 233 418 switch~;
#X obj 227 324 sel 0 1;
#X obj 194 367 del 50;
#X msg 194 388 0;
#X msg 281 386 1;
#X obj 46 384 mull~ 0 50;
#X obj 326 235 pp set;
#X obj 127 301 r DSP_MIX_INTERPOL_TIME;
#X text 482 161 ^;
#X text 482 165 |;
#X text 482 172 |;
#X text 482 179 |;
#X text 482 186 v;
#X text 496 172 Edit this;
#X obj 110 200 dbtorms;
#X obj 326 155 == 0;
#X obj 110 131 r \$1_IN_AUX_SND_GAIN_2_to_DSP;
#X obj 326 132 r \$1_IN_AUX_SND_PST1_PRE0_2_to_DSP;
#X obj 362 209 r \$1_IN_AUX_SND_DST_2_to_DSP;
#X obj 47 413 throw~ 2_AUX_SND;
#X connect 0 0 10 0;
#X connect 1 0 4 0;
#X connect 1 1 4 1;
#X connect 2 0 10 1;
#X connect 2 1 3 0;
#X connect 3 0 4 0;
#X connect 4 0 6 0;
#X connect 6 0 7 0;
#X connect 6 1 9 0;
#X connect 7 0 8 0;
#X connect 8 0 5 0;
#X connect 9 0 5 0;
#X connect 10 0 24 0;
#X connect 11 0 24 0;
#X connect 12 0 10 2;
#X connect 12 0 7 1;
#X connect 19 0 2 0;
#X connect 20 0 1 0;
#X connect 21 0 19 0;
#X connect 22 0 20 0;
#X connect 23 0 11 0;
#X restore 52 130 pd aux_send_pre 2;
#N canvas 0 0 610 653 aux_send_pre 0;
#X obj 45 195 inlet~;
#X obj 217 231 t b f;
#X obj 110 221 t f f;
#X obj 135 243 > 0;
#X obj 227 267 &&;
#X obj 233 418 switch~;
#X obj 227 324 sel 0 1;
#X obj 194 367 del 50;
#X msg 194 388 0;
#X msg 281 386 1;
#X obj 46 384 mull~ 0 50;
#X obj 326 235 pp set;
#X obj 127 301 r DSP_MIX_INTERPOL_TIME;
#X text 482 161 ^;
#X text 482 165 |;
#X text 482 172 |;
#X text 482 179 |;
#X text 482 186 v;
#X text 496 172 Edit this;
#X obj 110 200 dbtorms;
#X obj 326 155 == 0;
#X obj 110 130 r \$1_IN_AUX_SND_GAIN_3_to_DSP;
#X obj 326 132 r \$1_IN_AUX_SND_PST1_PRE0_3_to_DSP;
#X obj 362 209 r \$1_IN_AUX_SND_DST_3_to_DSP;
#X obj 47 413 throw~ 3_AUX_SND;
#X connect 0 0 10 0;
#X connect 1 0 4 0;
#X connect 1 1 4 1;
#X connect 2 0 10 1;
#X connect 2 1 3 0;
#X connect 3 0 4 0;
#X connect 4 0 6 0;
#X connect 6 0 7 0;
#X connect 6 1 9 0;
#X connect 7 0 8 0;
#X connect 8 0 5 0;
#X connect 9 0 5 0;
#X connect 10 0 24 0;
#X connect 11 0 24 0;
#X connect 12 0 10 2;
#X connect 12 0 7 1;
#X connect 19 0 2 0;
#X connect 20 0 1 0;
#X connect 21 0 19 0;
#X connect 22 0 20 0;
#X connect 23 0 11 0;
#X restore 72 160 pd aux_send_pre 3;
#N canvas 0 0 610 653 aux_send_pre 0;
#X obj 45 195 inlet~;
#X obj 217 231 t b f;
#X obj 110 221 t f f;
#X obj 135 243 > 0;
#X obj 227 267 &&;
#X obj 233 418 switch~;
#X obj 227 324 sel 0 1;
#X obj 194 367 del 50;
#X msg 194 388 0;
#X msg 281 386 1;
#X obj 46 384 mull~ 0 50;
#X obj 326 235 pp set;
#X obj 127 301 r DSP_MIX_INTERPOL_TIME;
#X text 482 161 ^;
#X text 482 165 |;
#X text 482 172 |;
#X text 482 179 |;
#X text 482 186 v;
#X text 496 172 Edit this;
#X obj 110 200 dbtorms;
#X obj 326 155 == 0;
#X obj 110 131 r \$1_IN_AUX_SND_GAIN_4_to_DSP;
#X obj 326 132 r \$1_IN_AUX_SND_PST1_PRE0_4_to_DSP;
#X obj 362 209 r \$1_IN_AUX_SND_DST_4_to_DSP;
#X obj 47 413 throw~ 4_AUX_SND;
#X connect 0 0 10 0;
#X connect 1 0 4 0;
#X connect 1 1 4 1;
#X connect 2 0 10 1;
#X connect 2 1 3 0;
#X connect 3 0 4 0;
#X connect 4 0 6 0;
#X connect 6 0 7 0;
#X connect 6 1 9 0;
#X connect 7 0 8 0;
#X connect 8 0 5 0;
#X connect 9 0 5 0;
#X connect 10 0 24 0;
#X connect 11 0 24 0;
#X connect 12 0 10 2;
#X connect 12 0 7 1;
#X connect 19 0 2 0;
#X connect 20 0 1 0;
#X connect 21 0 19 0;
#X connect 22 0 20 0;
#X connect 23 0 11 0;
#X restore 92 190 pd aux_send_pre 4;
#N canvas 0 0 610 653 aux_send_pre 0;
#X obj 45 195 inlet~;
#X obj 217 231 t b f;
#X obj 110 221 t f f;
#X obj 135 243 > 0;
#X obj 227 267 &&;
#X obj 233 418 switch~;
#X obj 227 324 sel 0 1;
#X obj 194 367 del 50;
#X msg 194 388 0;
#X msg 281 386 1;
#X obj 46 384 mull~ 0 50;
#X obj 326 235 pp set;
#X obj 127 301 r DSP_MIX_INTERPOL_TIME;
#X text 482 161 ^;
#X text 482 165 |;
#X text 482 172 |;
#X text 482 179 |;
#X text 482 186 v;
#X text 496 172 Edit this;
#X obj 110 200 dbtorms;
#X obj 326 155 == 0;
#X obj 47 413 throw~ 5_AUX_SND;
#X obj 110 131 r \$1_IN_AUX_SND_GAIN_5_to_DSP;
#X obj 326 132 r \$1_IN_AUX_SND_PST1_PRE0_5_to_DSP;
#X obj 362 209 r \$1_IN_AUX_SND_DST_5_to_DSP;
#X connect 0 0 10 0;
#X connect 1 0 4 0;
#X connect 1 1 4 1;
#X connect 2 0 10 1;
#X connect 2 1 3 0;
#X connect 3 0 4 0;
#X connect 4 0 6 0;
#X connect 6 0 7 0;
#X connect 6 1 9 0;
#X connect 7 0 8 0;
#X connect 8 0 5 0;
#X connect 9 0 5 0;
#X connect 10 0 21 0;
#X connect 11 0 21 0;
#X connect 12 0 10 2;
#X connect 12 0 7 1;
#X connect 19 0 2 0;
#X connect 20 0 1 0;
#X connect 22 0 19 0;
#X connect 23 0 20 0;
#X connect 24 0 11 0;
#X restore 120 224 pd aux_send_pre 5;
#N canvas 0 0 610 653 aux_send_pre 0;
#X obj 45 195 inlet~;
#X obj 217 231 t b f;
#X obj 110 221 t f f;
#X obj 135 243 > 0;
#X obj 227 267 &&;
#X obj 233 418 switch~;
#X obj 227 324 sel 0 1;
#X obj 194 367 del 50;
#X msg 194 388 0;
#X msg 281 386 1;
#X obj 46 384 mull~ 0 50;
#X obj 326 235 pp set;
#X obj 127 301 r DSP_MIX_INTERPOL_TIME;
#X text 482 161 ^;
#X text 482 165 |;
#X text 482 172 |;
#X text 482 179 |;
#X text 482 186 v;
#X text 496 172 Edit this;
#X obj 110 200 dbtorms;
#X obj 326 155 == 0;
#X obj 47 413 throw~ 6_AUX_SND;
#X obj 326 132 r \$1_IN_AUX_SND_PST1_PRE0_6_to_DSP;
#X obj 362 209 r \$1_IN_AUX_SND_DST_6_to_DSP;
#X obj 110 131 r \$1_IN_AUX_SND_GAIN_6_to_DSP;
#X connect 0 0 10 0;
#X connect 1 0 4 0;
#X connect 1 1 4 1;
#X connect 2 0 10 1;
#X connect 2 1 3 0;
#X connect 3 0 4 0;
#X connect 4 0 6 0;
#X connect 6 0 7 0;
#X connect 6 1 9 0;
#X connect 7 0 8 0;
#X connect 8 0 5 0;
#X connect 9 0 5 0;
#X connect 10 0 21 0;
#X connect 11 0 21 0;
#X connect 12 0 10 2;
#X connect 12 0 7 1;
#X connect 19 0 2 0;
#X connect 20 0 1 0;
#X connect 22 0 20 0;
#X connect 23 0 11 0;
#X connect 24 0 19 0;
#X restore 140 254 pd aux_send_pre 6;
#N canvas 0 0 610 653 aux_send_pre 0;
#X obj 45 195 inlet~;
#X obj 217 231 t b f;
#X obj 110 221 t f f;
#X obj 135 243 > 0;
#X obj 227 267 &&;
#X obj 233 418 switch~;
#X obj 227 324 sel 0 1;
#X obj 194 367 del 50;
#X msg 194 388 0;
#X msg 281 386 1;
#X obj 46 384 mull~ 0 50;
#X obj 326 235 pp set;
#X obj 127 301 r DSP_MIX_INTERPOL_TIME;
#X text 482 161 ^;
#X text 482 165 |;
#X text 482 172 |;
#X text 482 179 |;
#X text 482 186 v;
#X text 496 172 Edit this;
#X obj 110 200 dbtorms;
#X obj 326 155 == 0;
#X obj 47 413 throw~ 7_AUX_SND;
#X obj 326 132 r \$1_IN_AUX_SND_PST1_PRE0_7_to_DSP;
#X obj 362 209 r \$1_IN_AUX_SND_DST_7_to_DSP;
#X obj 110 130 r \$1_IN_AUX_SND_GAIN_7_to_DSP;
#X connect 0 0 10 0;
#X connect 1 0 4 0;
#X connect 1 1 4 1;
#X connect 2 0 10 1;
#X connect 2 1 3 0;
#X connect 3 0 4 0;
#X connect 4 0 6 0;
#X connect 6 0 7 0;
#X connect 6 1 9 0;
#X connect 7 0 8 0;
#X connect 8 0 5 0;
#X connect 9 0 5 0;
#X connect 10 0 21 0;
#X connect 11 0 21 0;
#X connect 12 0 10 2;
#X connect 12 0 7 1;
#X connect 19 0 2 0;
#X connect 20 0 1 0;
#X connect 22 0 20 0;
#X connect 23 0 11 0;
#X connect 24 0 19 0;
#X restore 160 284 pd aux_send_pre 7;
#N canvas 0 0 610 653 aux_send_pre 0;
#X obj 45 195 inlet~;
#X obj 217 231 t b f;
#X obj 110 221 t f f;
#X obj 135 243 > 0;
#X obj 227 267 &&;
#X obj 233 418 switch~;
#X obj 227 324 sel 0 1;
#X obj 194 367 del 50;
#X msg 194 388 0;
#X msg 281 386 1;
#X obj 46 384 mull~ 0 50;
#X obj 326 235 pp set;
#X obj 127 301 r DSP_MIX_INTERPOL_TIME;
#X text 482 161 ^;
#X text 482 165 |;
#X text 482 172 |;
#X text 482 179 |;
#X text 482 186 v;
#X text 496 172 Edit this;
#X obj 110 200 dbtorms;
#X obj 326 155 == 0;
#X obj 47 413 throw~ 8_AUX_SND;
#X obj 362 209 r \$1_IN_AUX_SND_DST_8_to_DSP;
#X obj 326 132 r \$1_IN_AUX_SND_PST1_PRE0_8_to_DSP;
#X obj 110 131 r \$1_IN_AUX_SND_GAIN_8_to_DSP;
#X connect 0 0 10 0;
#X connect 1 0 4 0;
#X connect 1 1 4 1;
#X connect 2 0 10 1;
#X connect 2 1 3 0;
#X connect 3 0 4 0;
#X connect 4 0 6 0;
#X connect 6 0 7 0;
#X connect 6 1 9 0;
#X connect 7 0 8 0;
#X connect 8 0 5 0;
#X connect 9 0 5 0;
#X connect 10 0 21 0;
#X connect 11 0 21 0;
#X connect 12 0 10 2;
#X connect 12 0 7 1;
#X connect 19 0 2 0;
#X connect 20 0 1 0;
#X connect 22 0 11 0;
#X connect 23 0 20 0;
#X connect 24 0 19 0;
#X restore 180 314 pd aux_send_pre 8;
#X obj 46 387 outlet~;
#X connect 0 0 1 0;
#X connect 0 0 2 0;
#X connect 0 0 3 0;
#X connect 0 0 4 0;
#X connect 0 0 5 0;
#X connect 0 0 6 0;
#X connect 0 0 7 0;
#X connect 0 0 8 0;
#X restore 23 375 pd 8_aux_sends_pre;
#N canvas 0 0 514 561 8_aux_sends_post 0;
#X obj 40 25 inlet~;
#N canvas 0 0 614 657 aux_send_post 0;
#X obj 45 195 inlet~;
#X obj 217 231 t b f;
#X obj 110 221 t f f;
#X obj 135 243 > 0;
#X obj 227 267 &&;
#X obj 233 418 switch~;
#X obj 227 324 sel 0 1;
#X obj 194 367 del 50;
#X msg 194 388 0;
#X msg 281 386 1;
#X obj 46 384 mull~ 0 50;
#X obj 362 209 r \$1_IN_AUX_SND_DST_1_to_DSP;
#X obj 326 235 pp set;
#X obj 362 290 s \$1_IN_AUX_SND_DST_1_from_DSP;
#X obj 127 301 r DSP_MIX_INTERPOL_TIME;
#X text 481 241 ^;
#X text 481 245 |;
#X text 481 252 |;
#X text 481 259 |;
#X text 481 266 v;
#X text 495 252 Edit this;
#X obj 314 84 r \$1_IN_AUX_SND_PST1_PRE0_1_to_DSP;
#X obj 309 130 s \$1_IN_AUX_SND_PST1_PRE0_1_from_DSP;
#X obj 302 106 f 0;
#X obj 179 50 r DSP_get_parameters;
#X obj 336 181 r DSP_get_settings;
#X obj 110 131 r \$1_IN_AUX_SND_GAIN_1_to_DSP;
#X obj 124 156 f 0;
#X obj 179 72 t b b;
#X obj 124 177 s \$1_IN_AUX_SND_GAIN_1_from_DSP;
#X obj 110 200 dbtorms;
#X obj 47 413 throw~ 1_AUX_SND;
#X msg 335 262 1_AUX_SND;
#X connect 0 0 10 0;
#X connect 1 0 4 0;
#X connect 1 1 4 1;
#X connect 2 0 10 1;
#X connect 2 1 3 0;
#X connect 3 0 4 0;
#X connect 4 0 6 0;
#X connect 6 0 7 0;
#X connect 6 1 9 0;
#X connect 7 0 8 0;
#X connect 8 0 5 0;
#X connect 9 0 5 0;
#X connect 10 0 31 0;
#X connect 11 0 12 0;
#X connect 12 0 32 0;
#X connect 12 0 31 0;
#X connect 14 0 10 2;
#X connect 14 0 7 1;
#X connect 21 0 23 1;
#X connect 21 0 1 0;
#X connect 23 0 22 0;
#X connect 24 0 28 0;
#X connect 25 0 32 0;
#X connect 26 0 27 1;
#X connect 26 0 30 0;
#X connect 27 0 29 0;
#X connect 28 0 27 0;
#X connect 28 1 23 0;
#X connect 30 0 2 0;
#X connect 32 0 13 0;
#X restore 32 100 pd aux_send_post 1;
#N canvas 0 0 610 653 aux_send_post 0;
#X obj 45 195 inlet~;
#X obj 217 231 t b f;
#X obj 110 221 t f f;
#X obj 135 243 > 0;
#X obj 227 267 &&;
#X obj 233 418 switch~;
#X obj 227 324 sel 0 1;
#X obj 194 367 del 50;
#X msg 194 388 0;
#X msg 281 386 1;
#X obj 46 384 mull~ 0 50;
#X obj 326 235 pp set;
#X obj 127 301 r DSP_MIX_INTERPOL_TIME;
#X text 481 241 ^;
#X text 481 245 |;
#X text 481 252 |;
#X text 481 259 |;
#X text 481 266 v;
#X text 495 252 Edit this;
#X obj 302 106 f 0;
#X obj 179 50 r DSP_get_parameters;
#X obj 336 181 r DSP_get_settings;
#X obj 124 156 f 0;
#X obj 179 72 t b b;
#X obj 110 200 dbtorms;
#X obj 314 84 r \$1_IN_AUX_SND_PST1_PRE0_2_to_DSP;
#X obj 309 130 s \$1_IN_AUX_SND_PST1_PRE0_2_from_DSP;
#X obj 362 209 r \$1_IN_AUX_SND_DST_2_to_DSP;
#X obj 362 290 s \$1_IN_AUX_SND_DST_2_from_DSP;
#X obj 124 177 s \$1_IN_AUX_SND_GAIN_2_from_DSP;
#X obj 110 131 r \$1_IN_AUX_SND_GAIN_2_to_DSP;
#X obj 47 413 throw~ 2_AUX_SND;
#X msg 335 262 2_AUX_SND;
#X connect 0 0 10 0;
#X connect 1 0 4 0;
#X connect 1 1 4 1;
#X connect 2 0 10 1;
#X connect 2 1 3 0;
#X connect 3 0 4 0;
#X connect 4 0 6 0;
#X connect 6 0 7 0;
#X connect 6 1 9 0;
#X connect 7 0 8 0;
#X connect 8 0 5 0;
#X connect 9 0 5 0;
#X connect 10 0 31 0;
#X connect 11 0 32 0;
#X connect 11 0 31 0;
#X connect 12 0 10 2;
#X connect 12 0 7 1;
#X connect 19 0 26 0;
#X connect 20 0 23 0;
#X connect 21 0 32 0;
#X connect 22 0 29 0;
#X connect 23 0 22 0;
#X connect 23 1 19 0;
#X connect 24 0 2 0;
#X connect 25 0 19 1;
#X connect 25 0 1 0;
#X connect 27 0 11 0;
#X connect 30 0 22 1;
#X connect 30 0 24 0;
#X connect 32 0 28 0;
#X restore 52 130 pd aux_send_post 2;
#N canvas 0 0 606 649 aux_send_post 0;
#X obj 45 195 inlet~;
#X obj 217 231 t b f;
#X obj 110 221 t f f;
#X obj 135 243 > 0;
#X obj 227 267 &&;
#X obj 233 418 switch~;
#X obj 227 324 sel 0 1;
#X obj 194 367 del 50;
#X msg 194 388 0;
#X msg 281 386 1;
#X obj 46 384 mull~ 0 50;
#X obj 326 235 pp set;
#X obj 127 301 r DSP_MIX_INTERPOL_TIME;
#X text 481 241 ^;
#X text 481 245 |;
#X text 481 252 |;
#X text 481 259 |;
#X text 481 266 v;
#X text 495 252 Edit this;
#X obj 302 106 f 0;
#X obj 179 50 r DSP_get_parameters;
#X obj 336 181 r DSP_get_settings;
#X obj 124 156 f 0;
#X obj 179 72 t b b;
#X obj 110 200 dbtorms;
#X obj 314 84 r \$1_IN_AUX_SND_PST1_PRE0_3_to_DSP;
#X obj 309 130 s \$1_IN_AUX_SND_PST1_PRE0_3_from_DSP;
#X obj 362 208 r \$1_IN_AUX_SND_DST_3_to_DSP;
#X obj 362 290 s \$1_IN_AUX_SND_DST_3_from_DSP;
#X obj 124 178 s \$1_IN_AUX_SND_GAIN_3_from_DSP;
#X obj 110 131 r \$1_IN_AUX_SND_GAIN_3_to_DSP;
#X obj 47 413 throw~ 3_AUX_SND;
#X msg 335 262 3_AUX_SND;
#X connect 0 0 10 0;
#X connect 1 0 4 0;
#X connect 1 1 4 1;
#X connect 2 0 10 1;
#X connect 2 1 3 0;
#X connect 3 0 4 0;
#X connect 4 0 6 0;
#X connect 6 0 7 0;
#X connect 6 1 9 0;
#X connect 7 0 8 0;
#X connect 8 0 5 0;
#X connect 9 0 5 0;
#X connect 10 0 31 0;
#X connect 11 0 32 0;
#X connect 11 0 31 0;
#X connect 12 0 10 2;
#X connect 12 0 7 1;
#X connect 19 0 26 0;
#X connect 20 0 23 0;
#X connect 21 0 32 0;
#X connect 22 0 29 0;
#X connect 23 0 22 0;
#X connect 23 1 19 0;
#X connect 24 0 2 0;
#X connect 25 0 19 1;
#X connect 25 0 1 0;
#X connect 27 0 11 0;
#X connect 30 0 22 1;
#X connect 30 0 24 0;
#X connect 32 0 28 0;
#X restore 72 160 pd aux_send_post 3;
#N canvas 0 0 610 653 aux_send_post 0;
#X obj 45 195 inlet~;
#X obj 217 231 t b f;
#X obj 110 221 t f f;
#X obj 135 243 > 0;
#X obj 227 267 &&;
#X obj 233 418 switch~;
#X obj 227 324 sel 0 1;
#X obj 194 367 del 50;
#X msg 194 388 0;
#X msg 281 386 1;
#X obj 46 384 mull~ 0 50;
#X obj 326 235 pp set;
#X obj 127 301 r DSP_MIX_INTERPOL_TIME;
#X text 481 241 ^;
#X text 481 245 |;
#X text 481 252 |;
#X text 481 259 |;
#X text 481 266 v;
#X text 495 252 Edit this;
#X obj 302 106 f 0;
#X obj 179 50 r DSP_get_parameters;
#X obj 336 181 r DSP_get_settings;
#X obj 124 156 f 0;
#X obj 179 72 t b b;
#X obj 110 200 dbtorms;
#X obj 314 84 r \$1_IN_AUX_SND_PST1_PRE0_4_to_DSP;
#X obj 310 131 s \$1_IN_AUX_SND_PST1_PRE0_4_from_DSP;
#X obj 362 210 r \$1_IN_AUX_SND_DST_4_to_DSP;
#X obj 363 290 s \$1_IN_AUX_SND_DST_4_from_DSP;
#X obj 125 178 s \$1_IN_AUX_SND_GAIN_4_from_DSP;
#X obj 110 131 r \$1_IN_AUX_SND_GAIN_4_to_DSP;
#X obj 47 413 throw~ 4_AUX_SND;
#X msg 335 262 4_AUX_SND;
#X connect 0 0 10 0;
#X connect 1 0 4 0;
#X connect 1 1 4 1;
#X connect 2 0 10 1;
#X connect 2 1 3 0;
#X connect 3 0 4 0;
#X connect 4 0 6 0;
#X connect 6 0 7 0;
#X connect 6 1 9 0;
#X connect 7 0 8 0;
#X connect 8 0 5 0;
#X connect 9 0 5 0;
#X connect 10 0 31 0;
#X connect 11 0 32 0;
#X connect 11 0 31 0;
#X connect 12 0 10 2;
#X connect 12 0 7 1;
#X connect 19 0 26 0;
#X connect 20 0 23 0;
#X connect 21 0 32 0;
#X connect 22 0 29 0;
#X connect 23 0 22 0;
#X connect 23 1 19 0;
#X connect 24 0 2 0;
#X connect 25 0 19 1;
#X connect 25 0 1 0;
#X connect 27 0 11 0;
#X connect 30 0 22 1;
#X connect 30 0 24 0;
#X connect 32 0 28 0;
#X restore 92 190 pd aux_send_post 4;
#X obj 64 396 outlet~;
#N canvas 0 0 606 649 aux_send_post 0;
#X obj 45 195 inlet~;
#X obj 217 231 t b f;
#X obj 110 221 t f f;
#X obj 135 243 > 0;
#X obj 227 267 &&;
#X obj 233 418 switch~;
#X obj 227 324 sel 0 1;
#X obj 194 367 del 50;
#X msg 194 388 0;
#X msg 281 386 1;
#X obj 46 384 mull~ 0 50;
#X obj 326 235 pp set;
#X obj 127 301 r DSP_MIX_INTERPOL_TIME;
#X text 481 241 ^;
#X text 481 245 |;
#X text 481 252 |;
#X text 481 259 |;
#X text 481 266 v;
#X text 495 252 Edit this;
#X obj 302 106 f 0;
#X obj 179 50 r DSP_get_parameters;
#X obj 336 181 r DSP_get_settings;
#X obj 124 156 f 0;
#X obj 179 72 t b b;
#X obj 110 200 dbtorms;
#X obj 47 413 throw~ 5_AUX_SND;
#X obj 362 290 s \$1_IN_AUX_SND_DST_5_from_DSP;
#X obj 362 209 r \$1_IN_AUX_SND_DST_5_to_DSP;
#X obj 309 130 s \$1_IN_AUX_SND_PST1_PRE0_5_from_DSP;
#X obj 314 84 r \$1_IN_AUX_SND_PST1_PRE0_5_to_DSP;
#X obj 110 131 r \$1_IN_AUX_SND_GAIN_5_to_DSP;
#X obj 124 177 s \$1_IN_AUX_SND_GAIN_5_from_DSP;
#X msg 335 262 5_AUX_SND;
#X connect 0 0 10 0;
#X connect 1 0 4 0;
#X connect 1 1 4 1;
#X connect 2 0 10 1;
#X connect 2 1 3 0;
#X connect 3 0 4 0;
#X connect 4 0 6 0;
#X connect 6 0 7 0;
#X connect 6 1 9 0;
#X connect 7 0 8 0;
#X connect 8 0 5 0;
#X connect 9 0 5 0;
#X connect 10 0 25 0;
#X connect 11 0 32 0;
#X connect 11 0 25 0;
#X connect 12 0 10 2;
#X connect 12 0 7 1;
#X connect 19 0 28 0;
#X connect 20 0 23 0;
#X connect 21 0 32 0;
#X connect 22 0 31 0;
#X connect 23 0 22 0;
#X connect 23 1 19 0;
#X connect 24 0 2 0;
#X connect 27 0 11 0;
#X connect 29 0 19 1;
#X connect 29 0 1 0;
#X connect 30 0 22 1;
#X connect 30 0 24 0;
#X connect 32 0 26 0;
#X restore 122 225 pd aux_send_post 5;
#N canvas 0 0 602 645 aux_send_post 0;
#X obj 45 195 inlet~;
#X obj 217 231 t b f;
#X obj 110 221 t f f;
#X obj 135 243 > 0;
#X obj 227 267 &&;
#X obj 233 418 switch~;
#X obj 227 324 sel 0 1;
#X obj 194 367 del 50;
#X msg 194 388 0;
#X msg 281 386 1;
#X obj 46 384 mull~ 0 50;
#X obj 326 235 pp set;
#X obj 127 301 r DSP_MIX_INTERPOL_TIME;
#X text 481 241 ^;
#X text 481 245 |;
#X text 481 252 |;
#X text 481 259 |;
#X text 481 266 v;
#X text 495 252 Edit this;
#X obj 302 106 f 0;
#X obj 179 50 r DSP_get_parameters;
#X obj 336 181 r DSP_get_settings;
#X obj 124 156 f 0;
#X obj 179 72 t b b;
#X obj 110 200 dbtorms;
#X obj 47 413 throw~ 6_AUX_SND;
#X obj 362 290 s \$1_IN_AUX_SND_DST_6_from_DSP;
#X obj 362 209 r \$1_IN_AUX_SND_DST_6_to_DSP;
#X obj 309 130 s \$1_IN_AUX_SND_PST1_PRE0_6_from_DSP;
#X obj 314 84 r \$1_IN_AUX_SND_PST1_PRE0_6_to_DSP;
#X obj 110 131 r \$1_IN_AUX_SND_GAIN_6_to_DSP;
#X obj 124 177 s \$1_IN_AUX_SND_GAIN_6_from_DSP;
#X msg 335 262 6_AUX_SND;
#X connect 0 0 10 0;
#X connect 1 0 4 0;
#X connect 1 1 4 1;
#X connect 2 0 10 1;
#X connect 2 1 3 0;
#X connect 3 0 4 0;
#X connect 4 0 6 0;
#X connect 6 0 7 0;
#X connect 6 1 9 0;
#X connect 7 0 8 0;
#X connect 8 0 5 0;
#X connect 9 0 5 0;
#X connect 10 0 25 0;
#X connect 11 0 32 0;
#X connect 11 0 25 0;
#X connect 12 0 10 2;
#X connect 12 0 7 1;
#X connect 19 0 28 0;
#X connect 20 0 23 0;
#X connect 21 0 32 0;
#X connect 22 0 31 0;
#X connect 23 0 22 0;
#X connect 23 1 19 0;
#X connect 24 0 2 0;
#X connect 27 0 11 0;
#X connect 29 0 19 1;
#X connect 29 0 1 0;
#X connect 30 0 22 1;
#X connect 30 0 24 0;
#X connect 32 0 26 0;
#X restore 142 255 pd aux_send_post 6;
#N canvas 0 0 602 645 aux_send_post 0;
#X obj 45 195 inlet~;
#X obj 217 231 t b f;
#X obj 110 221 t f f;
#X obj 135 243 > 0;
#X obj 227 267 &&;
#X obj 233 418 switch~;
#X obj 227 324 sel 0 1;
#X obj 194 367 del 50;
#X msg 194 388 0;
#X msg 281 386 1;
#X obj 46 384 mull~ 0 50;
#X obj 326 235 pp set;
#X obj 127 301 r DSP_MIX_INTERPOL_TIME;
#X text 481 241 ^;
#X text 481 245 |;
#X text 481 252 |;
#X text 481 259 |;
#X text 481 266 v;
#X text 495 252 Edit this;
#X obj 302 106 f 0;
#X obj 179 50 r DSP_get_parameters;
#X obj 336 181 r DSP_get_settings;
#X obj 124 156 f 0;
#X obj 179 72 t b b;
#X obj 110 200 dbtorms;
#X obj 47 413 throw~ 7_AUX_SND;
#X msg 335 262 7_AUX_SND;
#X obj 362 290 s \$1_IN_AUX_SND_DST_7_from_DSP;
#X obj 362 208 r \$1_IN_AUX_SND_DST_7_to_DSP;
#X obj 309 130 s \$1_IN_AUX_SND_PST1_PRE0_7_from_DSP;
#X obj 314 84 r \$1_IN_AUX_SND_PST1_PRE0_7_to_DSP;
#X obj 110 131 r \$1_IN_AUX_SND_GAIN_7_to_DSP;
#X obj 124 178 s \$1_IN_AUX_SND_GAIN_7_from_DSP;
#X connect 0 0 10 0;
#X connect 1 0 4 0;
#X connect 1 1 4 1;
#X connect 2 0 10 1;
#X connect 2 1 3 0;
#X connect 3 0 4 0;
#X connect 4 0 6 0;
#X connect 6 0 7 0;
#X connect 6 1 9 0;
#X connect 7 0 8 0;
#X connect 8 0 5 0;
#X connect 9 0 5 0;
#X connect 10 0 25 0;
#X connect 11 0 26 0;
#X connect 11 0 25 0;
#X connect 12 0 10 2;
#X connect 12 0 7 1;
#X connect 19 0 29 0;
#X connect 20 0 23 0;
#X connect 21 0 26 0;
#X connect 22 0 32 0;
#X connect 23 0 22 0;
#X connect 23 1 19 0;
#X connect 24 0 2 0;
#X connect 26 0 27 0;
#X connect 28 0 11 0;
#X connect 30 0 19 1;
#X connect 30 0 1 0;
#X connect 31 0 22 1;
#X connect 31 0 24 0;
#X restore 162 285 pd aux_send_post 7;
#N canvas 0 0 606 649 aux_send_post 0;
#X obj 45 195 inlet~;
#X obj 217 231 t b f;
#X obj 110 221 t f f;
#X obj 135 243 > 0;
#X obj 227 267 &&;
#X obj 233 418 switch~;
#X obj 227 324 sel 0 1;
#X obj 194 367 del 50;
#X msg 194 388 0;
#X msg 281 386 1;
#X obj 46 384 mull~ 0 50;
#X obj 326 235 pp set;
#X obj 127 301 r DSP_MIX_INTERPOL_TIME;
#X text 481 241 ^;
#X text 481 245 |;
#X text 481 252 |;
#X text 481 259 |;
#X text 481 266 v;
#X text 495 252 Edit this;
#X obj 302 106 f 0;
#X obj 179 50 r DSP_get_parameters;
#X obj 336 181 r DSP_get_settings;
#X obj 124 156 f 0;
#X obj 179 72 t b b;
#X obj 110 200 dbtorms;
#X obj 363 290 s \$1_IN_AUX_SND_DST_8_from_DSP;
#X obj 362 210 r \$1_IN_AUX_SND_DST_8_to_DSP;
#X obj 310 131 s \$1_IN_AUX_SND_PST1_PRE0_8_from_DSP;
#X obj 314 84 r \$1_IN_AUX_SND_PST1_PRE0_8_to_DSP;
#X obj 110 131 r \$1_IN_AUX_SND_GAIN_8_to_DSP;
#X obj 125 178 s \$1_IN_AUX_SND_GAIN_8_from_DSP;
#X msg 335 262 8_AUX_SND;
#X obj 47 413 throw~ 8_AUX_SND;
#X connect 0 0 10 0;
#X connect 1 0 4 0;
#X connect 1 1 4 1;
#X connect 2 0 10 1;
#X connect 2 1 3 0;
#X connect 3 0 4 0;
#X connect 4 0 6 0;
#X connect 6 0 7 0;
#X connect 6 1 9 0;
#X connect 7 0 8 0;
#X connect 8 0 5 0;
#X connect 9 0 5 0;
#X connect 10 0 32 0;
#X connect 11 0 31 0;
#X connect 11 0 32 0;
#X connect 12 0 10 2;
#X connect 12 0 7 1;
#X connect 19 0 27 0;
#X connect 20 0 23 0;
#X connect 21 0 31 0;
#X connect 22 0 30 0;
#X connect 23 0 22 0;
#X connect 23 1 19 0;
#X connect 24 0 2 0;
#X connect 26 0 11 0;
#X connect 28 0 19 1;
#X connect 28 0 1 0;
#X connect 29 0 22 1;
#X connect 29 0 24 0;
#X connect 31 0 25 0;
#X restore 182 315 pd aux_send_post 8;
#X text 194 392 only here \, the 3 parameters are sended back;
#X connect 0 0 1 0;
#X connect 0 0 2 0;
#X connect 0 0 3 0;
#X connect 0 0 4 0;
#X connect 0 0 6 0;
#X connect 0 0 7 0;
#X connect 0 0 8 0;
#X connect 0 0 9 0;
#X restore 57 526 pd 8_aux_sends_post;
#X obj 60 22 inlet~;
#X obj 47 615 outlet~;
#N canvas 0 0 723 718 16_bus_sends_post 0;
#X obj 33 27 inlet~;
#N canvas 0 0 626 669 bus_send_post 0;
#X obj 45 195 inlet~;
#X obj 110 221 t f f;
#X obj 135 243 > 0;
#X obj 233 418 switch~;
#X obj 227 324 sel 0 1;
#X obj 194 367 del 50;
#X msg 194 388 0;
#X msg 281 386 1;
#X obj 46 384 mull~ 0 50;
#X obj 326 235 pp set;
#X obj 127 301 r DSP_MIX_INTERPOL_TIME;
#X text 481 241 ^;
#X text 481 245 |;
#X text 481 252 |;
#X text 481 259 |;
#X text 481 266 v;
#X text 495 252 Edit this;
#X obj 179 50 r DSP_get_parameters;
#X obj 336 181 r DSP_get_settings;
#X obj 124 156 f 0;
#X obj 110 200 dbtorms;
#X obj 362 209 r \$1_IN_BUS_SND_DST_1_to_DSP;
#X obj 362 290 s \$1_IN_BUS_SND_DST_1_from_DSP;
#X obj 110 131 r \$1_IN_BUS_SND_GAIN_1_to_DSP;
#X obj 124 177 s \$1_IN_BUS_SND_GAIN_1_from_DSP;
#X obj 46 427 throw~ 1_BUS;
#X msg 335 262 1_BUS;
#X obj 179 72 t b;
#X connect 0 0 8 0;
#X connect 1 0 8 1;
#X connect 1 1 2 0;
#X connect 2 0 4 0;
#X connect 4 0 5 0;
#X connect 4 1 7 0;
#X connect 5 0 6 0;
#X connect 6 0 3 0;
#X connect 7 0 3 0;
#X connect 8 0 25 0;
#X connect 9 0 26 0;
#X connect 9 0 25 0;
#X connect 10 0 8 2;
#X connect 10 0 5 1;
#X connect 17 0 27 0;
#X connect 18 0 26 0;
#X connect 19 0 24 0;
#X connect 20 0 1 0;
#X connect 21 0 9 0;
#X connect 23 0 19 1;
#X connect 23 0 20 0;
#X connect 26 0 22 0;
#X connect 27 0 19 0;
#X restore 34 101 pd bus_send_post 1;
#N canvas 0 0 622 665 bus_send_post 0;
#X obj 45 195 inlet~;
#X obj 110 221 t f f;
#X obj 135 243 > 0;
#X obj 233 418 switch~;
#X obj 227 324 sel 0 1;
#X obj 194 367 del 50;
#X msg 194 388 0;
#X msg 281 386 1;
#X obj 46 384 mull~ 0 50;
#X obj 326 235 pp set;
#X obj 127 301 r DSP_MIX_INTERPOL_TIME;
#X text 481 241 ^;
#X text 481 245 |;
#X text 481 252 |;
#X text 481 259 |;
#X text 481 266 v;
#X text 495 252 Edit this;
#X obj 179 50 r DSP_get_parameters;
#X obj 336 181 r DSP_get_settings;
#X obj 124 156 f 0;
#X obj 110 200 dbtorms;
#X obj 362 209 r \$1_IN_BUS_SND_DST_2_to_DSP;
#X obj 362 290 s \$1_IN_BUS_SND_DST_2_from_DSP;
#X obj 110 131 r \$1_IN_BUS_SND_GAIN_2_to_DSP;
#X obj 124 177 s \$1_IN_BUS_SND_GAIN_2_from_DSP;
#X obj 46 427 throw~ 2_BUS;
#X msg 335 262 2_BUS;
#X obj 179 72 t b;
#X connect 0 0 8 0;
#X connect 1 0 8 1;
#X connect 1 1 2 0;
#X connect 2 0 4 0;
#X connect 4 0 5 0;
#X connect 4 1 7 0;
#X connect 5 0 6 0;
#X connect 6 0 3 0;
#X connect 7 0 3 0;
#X connect 8 0 25 0;
#X connect 9 0 26 0;
#X connect 9 0 25 0;
#X connect 10 0 8 2;
#X connect 10 0 5 1;
#X connect 17 0 27 0;
#X connect 18 0 26 0;
#X connect 19 0 24 0;
#X connect 20 0 1 0;
#X connect 21 0 9 0;
#X connect 23 0 19 1;
#X connect 23 0 20 0;
#X connect 26 0 22 0;
#X connect 27 0 19 0;
#X restore 43 122 pd bus_send_post 2;
#N canvas 0 0 626 669 bus_send_post 0;
#X obj 45 195 inlet~;
#X obj 110 221 t f f;
#X obj 135 243 > 0;
#X obj 233 418 switch~;
#X obj 227 324 sel 0 1;
#X obj 194 367 del 50;
#X msg 194 388 0;
#X msg 281 386 1;
#X obj 46 384 mull~ 0 50;
#X obj 326 235 pp set;
#X obj 127 301 r DSP_MIX_INTERPOL_TIME;
#X text 481 241 ^;
#X text 481 245 |;
#X text 481 252 |;
#X text 481 259 |;
#X text 481 266 v;
#X text 495 252 Edit this;
#X obj 179 50 r DSP_get_parameters;
#X obj 336 181 r DSP_get_settings;
#X obj 124 156 f 0;
#X obj 110 200 dbtorms;
#X obj 362 209 r \$1_IN_BUS_SND_DST_3_to_DSP;
#X obj 362 289 s \$1_IN_BUS_SND_DST_3_from_DSP;
#X obj 124 177 s \$1_IN_BUS_SND_GAIN_3_from_DSP;
#X obj 109 131 r \$1_IN_BUS_SND_GAIN_3_to_DSP;
#X obj 46 427 throw~ 3_BUS;
#X msg 335 262 3_BUS;
#X obj 179 72 t b;
#X connect 0 0 8 0;
#X connect 1 0 8 1;
#X connect 1 1 2 0;
#X connect 2 0 4 0;
#X connect 4 0 5 0;
#X connect 4 1 7 0;
#X connect 5 0 6 0;
#X connect 6 0 3 0;
#X connect 7 0 3 0;
#X connect 8 0 25 0;
#X connect 9 0 26 0;
#X connect 9 0 25 0;
#X connect 10 0 8 2;
#X connect 10 0 5 1;
#X connect 17 0 27 0;
#X connect 18 0 26 0;
#X connect 19 0 23 0;
#X connect 20 0 1 0;
#X connect 21 0 9 0;
#X connect 24 0 19 1;
#X connect 24 0 20 0;
#X connect 26 0 22 0;
#X connect 27 0 19 0;
#X restore 51 143 pd bus_send_post 3;
#N canvas 0 0 622 665 bus_send_post 0;
#X obj 45 195 inlet~;
#X obj 110 221 t f f;
#X obj 135 243 > 0;
#X obj 233 418 switch~;
#X obj 227 324 sel 0 1;
#X obj 194 367 del 50;
#X msg 194 388 0;
#X msg 281 386 1;
#X obj 46 384 mull~ 0 50;
#X obj 326 235 pp set;
#X obj 127 301 r DSP_MIX_INTERPOL_TIME;
#X text 481 241 ^;
#X text 481 245 |;
#X text 481 252 |;
#X text 481 259 |;
#X text 481 266 v;
#X text 495 252 Edit this;
#X obj 179 50 r DSP_get_parameters;
#X obj 336 181 r DSP_get_settings;
#X obj 124 156 f 0;
#X obj 110 200 dbtorms;
#X obj 362 209 r \$1_IN_BUS_SND_DST_4_to_DSP;
#X obj 362 290 s \$1_IN_BUS_SND_DST_4_from_DSP;
#X obj 125 178 s \$1_IN_BUS_SND_GAIN_4_from_DSP;
#X obj 110 131 r \$1_IN_BUS_SND_GAIN_4_to_DSP;
#X obj 46 427 throw~ 4_BUS;
#X msg 335 262 4_BUS;
#X obj 179 72 t b;
#X connect 0 0 8 0;
#X connect 1 0 8 1;
#X connect 1 1 2 0;
#X connect 2 0 4 0;
#X connect 4 0 5 0;
#X connect 4 1 7 0;
#X connect 5 0 6 0;
#X connect 6 0 3 0;
#X connect 7 0 3 0;
#X connect 8 0 25 0;
#X connect 9 0 26 0;
#X connect 9 0 25 0;
#X connect 10 0 8 2;
#X connect 10 0 5 1;
#X connect 17 0 27 0;
#X connect 18 0 26 0;
#X connect 19 0 23 0;
#X connect 20 0 1 0;
#X connect 21 0 9 0;
#X connect 24 0 19 1;
#X connect 24 0 20 0;
#X connect 26 0 22 0;
#X connect 27 0 19 0;
#X restore 60 164 pd bus_send_post 4;
#N canvas 0 0 626 669 bus_send_post 0;
#X obj 45 195 inlet~;
#X obj 110 221 t f f;
#X obj 135 243 > 0;
#X obj 233 418 switch~;
#X obj 227 324 sel 0 1;
#X obj 194 367 del 50;
#X msg 194 388 0;
#X msg 281 386 1;
#X obj 46 384 mull~ 0 50;
#X obj 326 235 pp set;
#X obj 127 301 r DSP_MIX_INTERPOL_TIME;
#X text 481 241 ^;
#X text 481 245 |;
#X text 481 252 |;
#X text 481 259 |;
#X text 481 266 v;
#X text 495 252 Edit this;
#X obj 179 50 r DSP_get_parameters;
#X obj 336 181 r DSP_get_settings;
#X obj 124 156 f 0;
#X obj 110 200 dbtorms;
#X obj 46 427 throw~ 5_BUS;
#X msg 335 262 5_BUS;
#X obj 362 290 s \$1_IN_BUS_SND_DST_5_from_DSP;
#X obj 362 209 r \$1_IN_BUS_SND_DST_5_to_DSP;
#X obj 110 131 r \$1_IN_BUS_SND_GAIN_5_to_DSP;
#X obj 124 177 s \$1_IN_BUS_SND_GAIN_5_from_DSP;
#X obj 179 72 t b;
#X connect 0 0 8 0;
#X connect 1 0 8 1;
#X connect 1 1 2 0;
#X connect 2 0 4 0;
#X connect 4 0 5 0;
#X connect 4 1 7 0;
#X connect 5 0 6 0;
#X connect 6 0 3 0;
#X connect 7 0 3 0;
#X connect 8 0 21 0;
#X connect 9 0 22 0;
#X connect 9 0 21 0;
#X connect 10 0 8 2;
#X connect 10 0 5 1;
#X connect 17 0 27 0;
#X connect 18 0 22 0;
#X connect 19 0 26 0;
#X connect 20 0 1 0;
#X connect 22 0 23 0;
#X connect 24 0 9 0;
#X connect 25 0 19 1;
#X connect 25 0 20 0;
#X connect 27 0 19 0;
#X restore 82 190 pd bus_send_post 5;
#N canvas 0 0 622 665 bus_send_post 0;
#X obj 45 195 inlet~;
#X obj 110 221 t f f;
#X obj 135 243 > 0;
#X obj 233 418 switch~;
#X obj 227 324 sel 0 1;
#X obj 194 367 del 50;
#X msg 194 388 0;
#X msg 281 386 1;
#X obj 46 384 mull~ 0 50;
#X obj 326 235 pp set;
#X obj 127 301 r DSP_MIX_INTERPOL_TIME;
#X text 481 241 ^;
#X text 481 245 |;
#X text 481 252 |;
#X text 481 259 |;
#X text 481 266 v;
#X text 495 252 Edit this;
#X obj 179 50 r DSP_get_parameters;
#X obj 336 181 r DSP_get_settings;
#X obj 124 156 f 0;
#X obj 110 200 dbtorms;
#X obj 362 209 r \$1_IN_BUS_SND_DST_6_to_DSP;
#X obj 362 290 s \$1_IN_BUS_SND_DST_6_from_DSP;
#X obj 110 131 r \$1_IN_BUS_SND_GAIN_6_to_DSP;
#X obj 124 177 s \$1_IN_BUS_SND_GAIN_6_from_DSP;
#X obj 46 427 throw~ 6_BUS;
#X msg 335 262 6_BUS;
#X obj 179 72 t b;
#X connect 0 0 8 0;
#X connect 1 0 8 1;
#X connect 1 1 2 0;
#X connect 2 0 4 0;
#X connect 4 0 5 0;
#X connect 4 1 7 0;
#X connect 5 0 6 0;
#X connect 6 0 3 0;
#X connect 7 0 3 0;
#X connect 8 0 25 0;
#X connect 9 0 26 0;
#X connect 9 0 25 0;
#X connect 10 0 8 2;
#X connect 10 0 5 1;
#X connect 17 0 27 0;
#X connect 18 0 26 0;
#X connect 19 0 24 0;
#X connect 20 0 1 0;
#X connect 21 0 9 0;
#X connect 23 0 19 1;
#X connect 23 0 20 0;
#X connect 26 0 22 0;
#X connect 27 0 19 0;
#X restore 91 211 pd bus_send_post 6;
#N canvas 0 0 622 665 bus_send_post 0;
#X obj 45 195 inlet~;
#X obj 110 221 t f f;
#X obj 135 243 > 0;
#X obj 233 418 switch~;
#X obj 227 324 sel 0 1;
#X obj 194 367 del 50;
#X msg 194 388 0;
#X msg 281 386 1;
#X obj 46 384 mull~ 0 50;
#X obj 326 235 pp set;
#X obj 127 301 r DSP_MIX_INTERPOL_TIME;
#X text 481 241 ^;
#X text 481 245 |;
#X text 481 252 |;
#X text 481 259 |;
#X text 481 266 v;
#X text 495 252 Edit this;
#X obj 179 50 r DSP_get_parameters;
#X obj 336 181 r DSP_get_settings;
#X obj 124 156 f 0;
#X obj 110 200 dbtorms;
#X obj 362 209 r \$1_IN_BUS_SND_DST_7_to_DSP;
#X obj 362 289 s \$1_IN_BUS_SND_DST_7_from_DSP;
#X obj 124 177 s \$1_IN_BUS_SND_GAIN_7_from_DSP;
#X obj 109 131 r \$1_IN_BUS_SND_GAIN_7_to_DSP;
#X obj 46 427 throw~ 7_BUS;
#X msg 335 262 7_BUS;
#X obj 179 72 t b;
#X connect 0 0 8 0;
#X connect 1 0 8 1;
#X connect 1 1 2 0;
#X connect 2 0 4 0;
#X connect 4 0 5 0;
#X connect 4 1 7 0;
#X connect 5 0 6 0;
#X connect 6 0 3 0;
#X connect 7 0 3 0;
#X connect 8 0 25 0;
#X connect 9 0 26 0;
#X connect 9 0 25 0;
#X connect 10 0 8 2;
#X connect 10 0 5 1;
#X connect 17 0 27 0;
#X connect 18 0 26 0;
#X connect 19 0 23 0;
#X connect 20 0 1 0;
#X connect 21 0 9 0;
#X connect 24 0 19 1;
#X connect 24 0 20 0;
#X connect 26 0 22 0;
#X connect 27 0 19 0;
#X restore 99 232 pd bus_send_post 7;
#N canvas 0 0 622 665 bus_send_post 0;
#X obj 45 195 inlet~;
#X obj 110 221 t f f;
#X obj 135 243 > 0;
#X obj 233 418 switch~;
#X obj 227 324 sel 0 1;
#X obj 194 367 del 50;
#X msg 194 388 0;
#X msg 281 386 1;
#X obj 46 384 mull~ 0 50;
#X obj 326 235 pp set;
#X obj 127 301 r DSP_MIX_INTERPOL_TIME;
#X text 481 241 ^;
#X text 481 245 |;
#X text 481 252 |;
#X text 481 259 |;
#X text 481 266 v;
#X text 495 252 Edit this;
#X obj 179 50 r DSP_get_parameters;
#X obj 336 181 r DSP_get_settings;
#X obj 124 156 f 0;
#X obj 110 200 dbtorms;
#X obj 362 209 r \$1_IN_BUS_SND_DST_8_to_DSP;
#X obj 362 290 s \$1_IN_BUS_SND_DST_8_from_DSP;
#X obj 125 178 s \$1_IN_BUS_SND_GAIN_8_from_DSP;
#X obj 110 131 r \$1_IN_BUS_SND_GAIN_8_to_DSP;
#X obj 46 427 throw~ 8_BUS;
#X msg 335 262 8_BUS;
#X obj 179 72 t b;
#X connect 0 0 8 0;
#X connect 1 0 8 1;
#X connect 1 1 2 0;
#X connect 2 0 4 0;
#X connect 4 0 5 0;
#X connect 4 1 7 0;
#X connect 5 0 6 0;
#X connect 6 0 3 0;
#X connect 7 0 3 0;
#X connect 8 0 25 0;
#X connect 9 0 26 0;
#X connect 9 0 25 0;
#X connect 10 0 8 2;
#X connect 10 0 5 1;
#X connect 17 0 27 0;
#X connect 18 0 26 0;
#X connect 19 0 23 0;
#X connect 20 0 1 0;
#X connect 21 0 9 0;
#X connect 24 0 19 1;
#X connect 24 0 20 0;
#X connect 26 0 22 0;
#X connect 27 0 19 0;
#X restore 108 253 pd bus_send_post 8;
#N canvas 0 0 622 665 bus_send_post 0;
#X obj 45 195 inlet~;
#X obj 110 221 t f f;
#X obj 135 243 > 0;
#X obj 233 418 switch~;
#X obj 227 324 sel 0 1;
#X obj 194 367 del 50;
#X msg 194 388 0;
#X msg 281 386 1;
#X obj 46 384 mull~ 0 50;
#X obj 326 235 pp set;
#X obj 127 301 r DSP_MIX_INTERPOL_TIME;
#X text 481 241 ^;
#X text 481 245 |;
#X text 481 252 |;
#X text 481 259 |;
#X text 481 266 v;
#X text 495 252 Edit this;
#X obj 179 50 r DSP_get_parameters;
#X obj 336 181 r DSP_get_settings;
#X obj 124 156 f 0;
#X obj 110 200 dbtorms;
#X obj 362 209 r \$1_IN_BUS_SND_DST_9_to_DSP;
#X obj 362 290 s \$1_IN_BUS_SND_DST_9_from_DSP;
#X obj 110 131 r \$1_IN_BUS_SND_GAIN_9_to_DSP;
#X obj 124 177 s \$1_IN_BUS_SND_GAIN_9_from_DSP;
#X obj 46 427 throw~ 9_BUS;
#X msg 335 262 9_BUS;
#X obj 179 72 t b;
#X connect 0 0 8 0;
#X connect 1 0 8 1;
#X connect 1 1 2 0;
#X connect 2 0 4 0;
#X connect 4 0 5 0;
#X connect 4 1 7 0;
#X connect 5 0 6 0;
#X connect 6 0 3 0;
#X connect 7 0 3 0;
#X connect 8 0 25 0;
#X connect 9 0 26 0;
#X connect 9 0 25 0;
#X connect 10 0 8 2;
#X connect 10 0 5 1;
#X connect 17 0 27 0;
#X connect 18 0 26 0;
#X connect 19 0 24 0;
#X connect 20 0 1 0;
#X connect 21 0 9 0;
#X connect 23 0 19 1;
#X connect 23 0 20 0;
#X connect 26 0 22 0;
#X connect 27 0 19 0;
#X restore 132 284 pd bus_send_post 9;
#N canvas 0 0 626 669 bus_send_post 0;
#X obj 45 195 inlet~;
#X obj 110 221 t f f;
#X obj 135 243 > 0;
#X obj 233 418 switch~;
#X obj 227 324 sel 0 1;
#X obj 194 367 del 50;
#X msg 194 388 0;
#X msg 281 386 1;
#X obj 46 384 mull~ 0 50;
#X obj 326 235 pp set;
#X obj 127 301 r DSP_MIX_INTERPOL_TIME;
#X text 481 241 ^;
#X text 481 245 |;
#X text 481 252 |;
#X text 481 259 |;
#X text 481 266 v;
#X text 495 252 Edit this;
#X obj 179 50 r DSP_get_parameters;
#X obj 336 181 r DSP_get_settings;
#X obj 124 156 f 0;
#X obj 110 200 dbtorms;
#X obj 362 209 r \$1_IN_BUS_SND_DST_10_to_DSP;
#X obj 362 290 s \$1_IN_BUS_SND_DST_10_from_DSP;
#X obj 110 131 r \$1_IN_BUS_SND_GAIN_10_to_DSP;
#X obj 124 177 s \$1_IN_BUS_SND_GAIN_10_from_DSP;
#X obj 46 427 throw~ 10_BUS;
#X msg 335 262 10_BUS;
#X obj 179 72 t b;
#X connect 0 0 8 0;
#X connect 1 0 8 1;
#X connect 1 1 2 0;
#X connect 2 0 4 0;
#X connect 4 0 5 0;
#X connect 4 1 7 0;
#X connect 5 0 6 0;
#X connect 6 0 3 0;
#X connect 7 0 3 0;
#X connect 8 0 25 0;
#X connect 9 0 26 0;
#X connect 9 0 25 0;
#X connect 10 0 8 2;
#X connect 10 0 5 1;
#X connect 17 0 27 0;
#X connect 18 0 26 0;
#X connect 19 0 24 0;
#X connect 20 0 1 0;
#X connect 21 0 9 0;
#X connect 23 0 19 1;
#X connect 23 0 20 0;
#X connect 26 0 22 0;
#X connect 27 0 19 0;
#X restore 141 305 pd bus_send_post 10;
#N canvas 0 0 626 669 bus_send_post 0;
#X obj 45 195 inlet~;
#X obj 110 221 t f f;
#X obj 135 243 > 0;
#X obj 233 418 switch~;
#X obj 227 324 sel 0 1;
#X obj 194 367 del 50;
#X msg 194 388 0;
#X msg 281 386 1;
#X obj 46 384 mull~ 0 50;
#X obj 326 235 pp set;
#X obj 127 301 r DSP_MIX_INTERPOL_TIME;
#X text 481 241 ^;
#X text 481 245 |;
#X text 481 252 |;
#X text 481 259 |;
#X text 481 266 v;
#X text 495 252 Edit this;
#X obj 179 50 r DSP_get_parameters;
#X obj 336 181 r DSP_get_settings;
#X obj 124 156 f 0;
#X obj 110 200 dbtorms;
#X obj 362 209 r \$1_IN_BUS_SND_DST_11_to_DSP;
#X obj 362 289 s \$1_IN_BUS_SND_DST_11_from_DSP;
#X obj 124 177 s \$1_IN_BUS_SND_GAIN_11_from_DSP;
#X obj 109 131 r \$1_IN_BUS_SND_GAIN_11_to_DSP;
#X obj 46 427 throw~ 11_BUS;
#X msg 335 262 11_BUS;
#X obj 179 72 t b;
#X connect 0 0 8 0;
#X connect 1 0 8 1;
#X connect 1 1 2 0;
#X connect 2 0 4 0;
#X connect 4 0 5 0;
#X connect 4 1 7 0;
#X connect 5 0 6 0;
#X connect 6 0 3 0;
#X connect 7 0 3 0;
#X connect 8 0 25 0;
#X connect 9 0 26 0;
#X connect 9 0 25 0;
#X connect 10 0 8 2;
#X connect 10 0 5 1;
#X connect 17 0 27 0;
#X connect 18 0 26 0;
#X connect 19 0 23 0;
#X connect 20 0 1 0;
#X connect 21 0 9 0;
#X connect 24 0 19 1;
#X connect 24 0 20 0;
#X connect 26 0 22 0;
#X connect 27 0 19 0;
#X restore 149 326 pd bus_send_post 11;
#N canvas 0 0 626 669 bus_send_post 0;
#X obj 45 195 inlet~;
#X obj 110 221 t f f;
#X obj 135 243 > 0;
#X obj 233 418 switch~;
#X obj 227 324 sel 0 1;
#X obj 194 367 del 50;
#X msg 194 388 0;
#X msg 281 386 1;
#X obj 46 384 mull~ 0 50;
#X obj 326 235 pp set;
#X obj 127 301 r DSP_MIX_INTERPOL_TIME;
#X text 481 241 ^;
#X text 481 245 |;
#X text 481 252 |;
#X text 481 259 |;
#X text 481 266 v;
#X text 495 252 Edit this;
#X obj 179 50 r DSP_get_parameters;
#X obj 336 181 r DSP_get_settings;
#X obj 124 156 f 0;
#X obj 110 200 dbtorms;
#X obj 362 209 r \$1_IN_BUS_SND_DST_12_to_DSP;
#X obj 362 290 s \$1_IN_BUS_SND_DST_12_from_DSP;
#X obj 125 178 s \$1_IN_BUS_SND_GAIN_12_from_DSP;
#X obj 110 131 r \$1_IN_BUS_SND_GAIN_12_to_DSP;
#X obj 46 427 throw~ 12_BUS;
#X msg 335 262 12_BUS;
#X obj 179 72 t b;
#X connect 0 0 8 0;
#X connect 1 0 8 1;
#X connect 1 1 2 0;
#X connect 2 0 4 0;
#X connect 4 0 5 0;
#X connect 4 1 7 0;
#X connect 5 0 6 0;
#X connect 6 0 3 0;
#X connect 7 0 3 0;
#X connect 8 0 25 0;
#X connect 9 0 26 0;
#X connect 9 0 25 0;
#X connect 10 0 8 2;
#X connect 10 0 5 1;
#X connect 17 0 27 0;
#X connect 18 0 26 0;
#X connect 19 0 23 0;
#X connect 20 0 1 0;
#X connect 21 0 9 0;
#X connect 24 0 19 1;
#X connect 24 0 20 0;
#X connect 26 0 22 0;
#X connect 27 0 19 0;
#X restore 158 347 pd bus_send_post 12;
#N canvas 0 0 622 665 bus_send_post 0;
#X obj 45 195 inlet~;
#X obj 110 221 t f f;
#X obj 135 243 > 0;
#X obj 233 418 switch~;
#X obj 227 324 sel 0 1;
#X obj 194 367 del 50;
#X msg 194 388 0;
#X msg 281 386 1;
#X obj 46 384 mull~ 0 50;
#X obj 326 235 pp set;
#X obj 127 301 r DSP_MIX_INTERPOL_TIME;
#X text 481 241 ^;
#X text 481 245 |;
#X text 481 252 |;
#X text 481 259 |;
#X text 481 266 v;
#X text 495 252 Edit this;
#X obj 179 50 r DSP_get_parameters;
#X obj 336 181 r DSP_get_settings;
#X obj 124 156 f 0;
#X obj 110 200 dbtorms;
#X obj 362 209 r \$1_IN_BUS_SND_DST_13_to_DSP;
#X obj 362 290 s \$1_IN_BUS_SND_DST_13_from_DSP;
#X obj 110 131 r \$1_IN_BUS_SND_GAIN_13_to_DSP;
#X obj 124 177 s \$1_IN_BUS_SND_GAIN_13_from_DSP;
#X obj 46 427 throw~ 13_BUS;
#X msg 335 262 13_BUS;
#X obj 179 72 t b;
#X connect 0 0 8 0;
#X connect 1 0 8 1;
#X connect 1 1 2 0;
#X connect 2 0 4 0;
#X connect 4 0 5 0;
#X connect 4 1 7 0;
#X connect 5 0 6 0;
#X connect 6 0 3 0;
#X connect 7 0 3 0;
#X connect 8 0 25 0;
#X connect 9 0 26 0;
#X connect 9 0 25 0;
#X connect 10 0 8 2;
#X connect 10 0 5 1;
#X connect 17 0 27 0;
#X connect 18 0 26 0;
#X connect 19 0 24 0;
#X connect 20 0 1 0;
#X connect 21 0 9 0;
#X connect 23 0 19 1;
#X connect 23 0 20 0;
#X connect 26 0 22 0;
#X connect 27 0 19 0;
#X restore 184 378 pd bus_send_post 13;
#N canvas 0 0 626 669 bus_send_post 0;
#X obj 45 195 inlet~;
#X obj 110 221 t f f;
#X obj 135 243 > 0;
#X obj 233 418 switch~;
#X obj 227 324 sel 0 1;
#X obj 194 367 del 50;
#X msg 194 388 0;
#X msg 281 386 1;
#X obj 46 384 mull~ 0 50;
#X obj 326 235 pp set;
#X obj 127 301 r DSP_MIX_INTERPOL_TIME;
#X text 481 241 ^;
#X text 481 245 |;
#X text 481 252 |;
#X text 481 259 |;
#X text 481 266 v;
#X text 495 252 Edit this;
#X obj 179 50 r DSP_get_parameters;
#X obj 336 181 r DSP_get_settings;
#X obj 124 156 f 0;
#X obj 110 200 dbtorms;
#X obj 362 209 r \$1_IN_BUS_SND_DST_14_to_DSP;
#X obj 362 290 s \$1_IN_BUS_SND_DST_14_from_DSP;
#X obj 110 131 r \$1_IN_BUS_SND_GAIN_14_to_DSP;
#X obj 124 177 s \$1_IN_BUS_SND_GAIN_14_from_DSP;
#X obj 46 427 throw~ 14_BUS;
#X msg 335 262 14_BUS;
#X obj 179 72 t b;
#X connect 0 0 8 0;
#X connect 1 0 8 1;
#X connect 1 1 2 0;
#X connect 2 0 4 0;
#X connect 4 0 5 0;
#X connect 4 1 7 0;
#X connect 5 0 6 0;
#X connect 6 0 3 0;
#X connect 7 0 3 0;
#X connect 8 0 25 0;
#X connect 9 0 26 0;
#X connect 9 0 25 0;
#X connect 10 0 8 2;
#X connect 10 0 5 1;
#X connect 17 0 27 0;
#X connect 18 0 26 0;
#X connect 19 0 24 0;
#X connect 20 0 1 0;
#X connect 21 0 9 0;
#X connect 23 0 19 1;
#X connect 23 0 20 0;
#X connect 26 0 22 0;
#X connect 27 0 19 0;
#X restore 193 399 pd bus_send_post 14;
#N canvas 0 0 618 661 bus_send_post 0;
#X obj 45 195 inlet~;
#X obj 110 221 t f f;
#X obj 135 243 > 0;
#X obj 233 418 switch~;
#X obj 227 324 sel 0 1;
#X obj 194 367 del 50;
#X msg 194 388 0;
#X msg 281 386 1;
#X obj 46 384 mull~ 0 50;
#X obj 326 235 pp set;
#X obj 127 301 r DSP_MIX_INTERPOL_TIME;
#X text 481 241 ^;
#X text 481 245 |;
#X text 481 252 |;
#X text 481 259 |;
#X text 481 266 v;
#X text 495 252 Edit this;
#X obj 179 50 r DSP_get_parameters;
#X obj 336 181 r DSP_get_settings;
#X obj 124 156 f 0;
#X obj 110 200 dbtorms;
#X obj 362 209 r \$1_IN_BUS_SND_DST_15_to_DSP;
#X obj 362 289 s \$1_IN_BUS_SND_DST_15_from_DSP;
#X obj 124 177 s \$1_IN_BUS_SND_GAIN_15_from_DSP;
#X obj 109 131 r \$1_IN_BUS_SND_GAIN_15_to_DSP;
#X obj 46 427 throw~ 15_BUS;
#X msg 335 262 15_BUS;
#X obj 179 72 t b;
#X connect 0 0 8 0;
#X connect 1 0 8 1;
#X connect 1 1 2 0;
#X connect 2 0 4 0;
#X connect 4 0 5 0;
#X connect 4 1 7 0;
#X connect 5 0 6 0;
#X connect 6 0 3 0;
#X connect 7 0 3 0;
#X connect 8 0 25 0;
#X connect 9 0 26 0;
#X connect 9 0 25 0;
#X connect 10 0 8 2;
#X connect 10 0 5 1;
#X connect 17 0 27 0;
#X connect 18 0 26 0;
#X connect 19 0 23 0;
#X connect 20 0 1 0;
#X connect 21 0 9 0;
#X connect 24 0 19 1;
#X connect 24 0 20 0;
#X connect 26 0 22 0;
#X connect 27 0 19 0;
#X restore 201 420 pd bus_send_post 15;
#N canvas 0 0 626 669 bus_send_post 0;
#X obj 45 195 inlet~;
#X obj 110 221 t f f;
#X obj 135 243 > 0;
#X obj 233 418 switch~;
#X obj 227 324 sel 0 1;
#X obj 194 367 del 50;
#X msg 194 388 0;
#X msg 281 386 1;
#X obj 46 384 mull~ 0 50;
#X obj 326 235 pp set;
#X obj 127 301 r DSP_MIX_INTERPOL_TIME;
#X text 481 241 ^;
#X text 481 245 |;
#X text 481 252 |;
#X text 481 259 |;
#X text 481 266 v;
#X text 495 252 Edit this;
#X obj 179 50 r DSP_get_parameters;
#X obj 336 181 r DSP_get_settings;
#X obj 124 156 f 0;
#X obj 110 200 dbtorms;
#X obj 362 209 r \$1_IN_BUS_SND_DST_16_to_DSP;
#X obj 362 290 s \$1_IN_BUS_SND_DST_16_from_DSP;
#X obj 125 178 s \$1_IN_BUS_SND_GAIN_16_from_DSP;
#X obj 110 131 r \$1_IN_BUS_SND_GAIN_16_to_DSP;
#X obj 46 427 throw~ 16_BUS;
#X msg 335 262 16_BUS;
#X obj 179 74 t b;
#X connect 0 0 8 0;
#X connect 1 0 8 1;
#X connect 1 1 2 0;
#X connect 2 0 4 0;
#X connect 4 0 5 0;
#X connect 4 1 7 0;
#X connect 5 0 6 0;
#X connect 6 0 3 0;
#X connect 7 0 3 0;
#X connect 8 0 25 0;
#X connect 9 0 26 0;
#X connect 9 0 25 0;
#X connect 10 0 8 2;
#X connect 10 0 5 1;
#X connect 17 0 27 0;
#X connect 18 0 26 0;
#X connect 19 0 23 0;
#X connect 20 0 1 0;
#X connect 21 0 9 0;
#X connect 24 0 19 1;
#X connect 24 0 20 0;
#X connect 26 0 22 0;
#X connect 27 0 19 0;
#X restore 210 441 pd bus_send_post 16;
#X obj 47 506 outlet~;
#X obj 356 224 switch~;
#X obj 343 81 sel 0 1;
#X obj 355 153 del 50;
#X msg 355 178 0;
#X msg 384 178 1;
#X obj 394 103 r DSP_MIX_INTERPOL_TIME;
#X obj 343 47 inlet;
#X text 337 24 matrix-spat on;
#X connect 0 0 1 0;
#X connect 0 0 2 0;
#X connect 0 0 3 0;
#X connect 0 0 4 0;
#X connect 0 0 5 0;
#X connect 0 0 6 0;
#X connect 0 0 7 0;
#X connect 0 0 8 0;
#X connect 0 0 9 0;
#X connect 0 0 10 0;
#X connect 0 0 11 0;
#X connect 0 0 12 0;
#X connect 0 0 13 0;
#X connect 0 0 14 0;
#X connect 0 0 15 0;
#X connect 0 0 16 0;
#X connect 19 0 20 0;
#X connect 19 1 22 0;
#X connect 20 0 21 0;
#X connect 21 0 18 0;
#X connect 22 0 18 0;
#X connect 23 0 20 1;
#X connect 24 0 19 0;
#X restore 167 584 pd 16_bus_sends_post;
#N canvas 0 0 621 423 spat_mode 0;
#X obj 73 57 r DSP_get_settings;
#X obj 146 84 r \$1_IN_SPAT_MODE_to_DSP;
#X obj 73 134 s \$1_IN_SPAT_MODE_from_DSP;
#X obj 73 108 symbol direct;
#X obj 67 358 outlet;
#X obj 163 359 outlet;
#X msg 62 328 0;
#X msg 92 328 1;
#X msg 159 329 0;
#X msg 189 329 1;
#X obj 259 358 outlet;
#X msg 255 328 0;
#X msg 285 328 1;
#X obj 66 250 sel direct ambi pan;
#X connect 0 0 3 0;
#X connect 1 0 3 1;
#X connect 1 0 13 0;
#X connect 3 0 2 0;
#X connect 6 0 4 0;
#X connect 7 0 4 0;
#X connect 8 0 5 0;
#X connect 9 0 5 0;
#X connect 11 0 10 0;
#X connect 12 0 10 0;
#X connect 13 0 7 0;
#X connect 13 0 8 0;
#X connect 13 0 11 0;
#X connect 13 1 9 0;
#X connect 13 1 6 0;
#X connect 13 1 11 0;
#X connect 13 2 12 0;
#X connect 13 2 6 0;
#X connect 13 2 8 0;
#X restore 457 319 pd spat_mode direct ambi pan;
#X text 356 46 4.arg: <float> n_bus;
#X text 356 37 3.arg: <float> n_aux_send;
#X text 356 28 2.arg: <float> n_in;
#N canvas 0 0 630 673 low_freq_bus 0;
#X obj 45 195 inlet~;
#X obj 110 221 t f f;
#X obj 135 243 > 0;
#X obj 233 418 switch~;
#X obj 227 324 sel 0 1;
#X obj 194 367 del 50;
#X msg 194 388 0;
#X msg 281 386 1;
#X obj 46 384 mull~ 0 50;
#X obj 127 301 r DSP_MIX_INTERPOL_TIME;
#X obj 130 69 r DSP_get_parameters;
#X obj 124 156 f 0;
#X obj 110 200 dbtorms;
#X obj 46 427 throw~ LF_BUS;
#X obj 110 131 r \$1_IN_LF_BUS_SND_GAIN_1_to_DSP;
#X obj 124 177 s \$1_IN_LF_BUS_SND_GAIN_1_from_DSP;
#X obj 58 497 outlet~;
#X obj 130 91 t b;
#X connect 0 0 8 0;
#X connect 1 0 8 1;
#X connect 1 1 2 0;
#X connect 2 0 4 0;
#X connect 4 0 5 0;
#X connect 4 1 7 0;
#X connect 5 0 6 0;
#X connect 6 0 3 0;
#X connect 7 0 3 0;
#X connect 8 0 13 0;
#X connect 9 0 8 2;
#X connect 9 0 5 1;
#X connect 10 0 17 0;
#X connect 11 0 15 0;
#X connect 12 0 1 0;
#X connect 14 0 11 1;
#X connect 14 0 12 0;
#X connect 17 0 11 0;
#X restore 342 586 pd low_freq_bus;
#X text 356 56 5.arg: <float> effect_plug_in_index;
#X obj 60 269 \$5_EFF_PLUG_IN~;
#X connect 0 0 42 0;
#X connect 8 0 16 0;
#X connect 8 1 16 1;
#X connect 8 1 37 1;
#X connect 9 0 13 2;
#X connect 10 0 16 0;
#X connect 11 0 8 0;
#X connect 11 0 29 0;
#X connect 12 0 17 0;
#X connect 13 0 0 0;
#X connect 13 0 36 0;
#X connect 13 0 40 0;
#X connect 13 0 43 0;
#X connect 13 0 48 0;
#X connect 14 0 10 0;
#X connect 14 0 17 1;
#X connect 16 0 13 1;
#X connect 17 0 15 0;
#X connect 18 0 19 0;
#X connect 18 0 20 0;
#X connect 19 0 26 0;
#X connect 20 0 23 0;
#X connect 21 0 20 0;
#X connect 22 0 18 0;
#X connect 25 0 37 0;
#X connect 26 0 34 0;
#X connect 27 0 50 0;
#X connect 29 0 33 0;
#X connect 29 1 31 0;
#X connect 30 0 28 0;
#X connect 31 0 28 0;
#X connect 32 0 33 1;
#X connect 33 0 30 0;
#X connect 34 0 27 0;
#X connect 37 0 24 0;
#X connect 39 0 42 0;
#X connect 40 0 42 0;
#X connect 43 0 42 0;
#X connect 44 0 43 1;
#X connect 44 1 0 1;
#X connect 48 0 42 0;
#X connect 50 0 13 0;
#X connect 50 0 35 0;
#X connect 50 0 39 0;
