#N canvas 153 36 669 711 10;
#X text 291 198 2.arg: <float> n_mix_ch;
#X text 291 189 1.arg: <float> n_in;
#X text 291 216 4.arg: <float> n_bus;
#X text 291 226 5.arg: <float> plug_in_index;
#X text 291 207 3.arg: <float> n_aux_send;
#X obj 49 49 inlet~;
#X obj 51 434 outlet~;
#X obj 50 80 IN-CH~ 1 52 4 12 0;
#X obj 50 100 IN-CH~ 2 52 4 12 0;
#X obj 50 140 IN-CH~ 4 52 4 12 0;
#X obj 50 180 IN-CH~ 6 52 4 12 0;
#X obj 50 220 IN-CH~ 8 52 4 12 0;
#X obj 50 260 IN-CH~ 10 52 4 12 0;
#X obj 50 280 IN-CH~ 11 52 4 12 0;
#X obj 50 300 IN-CH~ 12 52 4 12 0;
#X obj 50 320 IN-CH~ 13 52 4 12 0;
#X obj 50 340 IN-CH~ 14 52 4 12 0;
#X obj 50 360 IN-CH~ 15 52 4 12 0;
#X obj 50 380 IN-CH~ 16 52 4 12 0;
#X obj 50 120 IN-CH~ 3 52 4 12 0;
#X obj 50 160 IN-CH~ 5 52 4 12 0;
#X obj 50 200 IN-CH~ 7 52 4 12 0;
#X obj 50 240 IN-CH~ 9 52 4 12 0;
