#N canvas 0 0 925 391 10;
#X obj 202 210 sendreceive \$1_IN_ON;
#X obj 107 94 r IN_SOLO;
#X obj 107 131 sel 0 \$1;
#X obj 202 242 f;
#X text 475 127 wenn SOLO != \$1 dann \$1-channel unbedingt OFF;
#X text 474 58 wenn SOLO == 0 dann aufheben von SOLO in \$1-channel
d.h. alter zustand (IN-ON);
#X text 475 91 wenn SOLO == \$1 dann \$1-channel unbedingt ON \, (alle
anderen OFF \, wird von 3.) erledigt);
#X obj 202 283 t f;
#X obj 202 307 outlet;
#X obj 202 262 spigot38 1;
#X obj 107 216 t b b;
#X msg 204 184 0;
#X msg 137 238 1;
#X obj 130 158 t b b;
#X obj 174 160 t b b;
#X msg 130 180 1;
#X msg 175 180 0;
#X connect 0 0 3 0;
#X connect 1 0 2 0;
#X connect 2 0 10 0;
#X connect 2 1 13 0;
#X connect 2 2 14 0;
#X connect 3 0 9 0;
#X connect 7 0 8 0;
#X connect 9 0 7 0;
#X connect 10 0 3 0;
#X connect 10 1 12 0;
#X connect 11 0 9 1;
#X connect 12 0 9 1;
#X connect 13 0 15 0;
#X connect 13 1 11 0;
#X connect 14 0 16 0;
#X connect 14 1 11 0;
#X connect 15 0 7 0;
#X connect 16 0 7 0;
