#N canvas 344 190 668 475 10;
#X obj 279 144 r DSP_MIX_INTERPOL_TIME;
#X obj 53 238 mull~ 0 50;
#X obj 52 126 inlet~;
#X obj 53 267 outlet~;
#X obj 142 45 inlet on/off;
#X obj 223 272 outlet ->switch;
#X obj 223 240 t f f;
#X obj 267 240 s \$1-onoff;
#X obj 142 83 onoff_switch;
#X connect 0 0 1 2;
#X connect 1 0 3 0;
#X connect 2 0 1 0;
#X connect 4 0 8 0;
#X connect 6 0 5 0;
#X connect 6 1 7 0;
#X connect 8 0 1 1;
#X connect 8 1 6 0;
