#N canvas 0 0 709 403 10;
#X obj 142 73 sel 0 1;
#X obj 248 184 del 50;
#X msg 248 209 0;
#X msg 277 209 1;
#X msg 142 204 0;
#X msg 171 204 1;
#X obj 287 162 r DSP_MIX_INTERPOL_TIME;
#X obj 142 230 f;
#X obj 142 45 inlet on/off;
#X obj 248 233 t f;
#X obj 248 256 outlet ->switch~;
#X obj 142 256 outlet ->gain;
#X connect 0 0 1 0;
#X connect 0 0 4 0;
#X connect 0 1 3 0;
#X connect 0 1 5 0;
#X connect 1 0 2 0;
#X connect 2 0 9 0;
#X connect 3 0 9 0;
#X connect 4 0 7 0;
#X connect 5 0 7 0;
#X connect 6 0 1 1;
#X connect 7 0 11 0;
#X connect 8 0 0 0;
#X connect 9 0 10 0;
