#N canvas 1280 535 647 365 10;
#X obj 55 271 inlet~;
#X obj 57 333 outlet~;
#X obj 56 298 mull~ 1 50;
#X obj 177 209 select 1;
#X msg 177 233 0;
#X obj 177 253 f;
#X msg 206 233 1;
#X obj 105 44 loadbang;
#X msg 166 44 bang;
#X obj 284 37 DSP_label PLUGIN none;
#X obj 374 135 t f b;
#X obj 105 107 receive_setting \$2_IN_PLUGIN_$3_NAME;
#X obj 105 86 makefilename \$2_IN_PLUGIN_%d_NAME;
#X obj 105 66 i \$3;
#X obj 374 89 makefilename \$2_IN_PLUGIN_%d_ON;
#X obj 374 110 receive_setting \$2_IN_PLUGIN_$3_ON;
#X obj 374 160 s \$1_on;
#X obj 177 185 r \$1_used;
#X obj 105 148 s \$1_slot;
#X obj 105 127 t s b;
#X connect 0 0 2 0;
#X connect 2 0 1 0;
#X connect 3 0 4 0;
#X connect 4 0 5 0;
#X connect 5 0 2 1;
#X connect 6 0 5 0;
#X connect 7 0 13 0;
#X connect 8 0 13 0;
#X connect 10 0 16 0;
#X connect 10 1 6 0;
#X connect 11 0 19 0;
#X connect 12 0 11 0;
#X connect 13 0 12 0;
#X connect 13 0 14 0;
#X connect 14 0 15 0;
#X connect 15 0 10 0;
#X connect 17 0 3 0;
#X connect 19 0 18 0;
#X connect 19 1 6 0;
