#N canvas 331 54 693 684 10;
#X obj 233 545 sIN~ \$1:4_PLAY;
#X obj 187 566 sIN~ \$1:3_PLAY;
#X obj 138 587 sIN~ \$1:2_PLAY;
#X obj 91 606 sIN~ \$1:1_PLAY;
#X obj 147 73 receive_setting \$1_SFPLAY_FILE;
#X obj 115 49 receive_regname \$1_SFPLAY_CTRL;
#X obj 372 416 route bang;
#X obj 372 440 t b b;
#X msg 421 441 -1;
#X obj 437 472 f;
#X obj 421 527 i;
#X text 453 531 current position [ms];
#X obj 421 552 send_regname \$1_SFPLAY_POS;
#X obj 523 501 metro 100;
#N canvas 361 207 857 590 control 0;
#X obj 415 34 symbol;
#X obj 92 227 pack 0 s;
#X msg 92 272 0 \, open \$2 \$1 \, 1;
#X obj 92 249 t l b;
#X obj 92 308 t a;
#X obj 92 180 demux;
#X obj 92 206 i;
#N canvas 0 0 450 300 switcher 0;
#X obj 161 120 t b b;
#X obj 161 164 del 60;
#X msg 191 141 0;
#X msg 161 184 0;
#X msg 212 117 1;
#X obj 161 97 select 0;
#X obj 204 208 i;
#X obj 161 207 i;
#X obj 161 74 inlet;
#X obj 161 239 outlet switch;
#X obj 204 267 outlet gain;
#X connect 0 0 1 0;
#X connect 0 1 2 0;
#X connect 1 0 3 0;
#X connect 2 0 6 0;
#X connect 3 0 7 0;
#X connect 4 0 6 0;
#X connect 4 0 7 0;
#X connect 5 0 0 0;
#X connect 5 1 4 0;
#X connect 6 0 10 0;
#X connect 7 0 9 0;
#X connect 8 0 5 0;
#X restore 163 353 pd switcher;
#X msg 163 329 1;
#X msg 196 329 0;
#X msg 191 93 0;
#X obj 191 70 t b b;
#X obj 141 70 t b b;
#X msg 122 126 1;
#X obj 92 30 route symbol list;
#X obj 92 50 select play pause stop;
#N canvas 0 0 450 300 ms2samples 0;
#X obj 163 122 samplerate~;
#X obj 113 91 t f b;
#X obj 113 184 outlet samples;
#X obj 113 151 * 44100;
#X obj 113 120 / 1000;
#X obj 113 53 inlet ms;
#X connect 0 0 3 1;
#X connect 1 0 4 0;
#X connect 1 1 0 0;
#X connect 3 0 2 0;
#X connect 4 0 3 0;
#X connect 5 0 1 0;
#X restore 260 72 pd ms2samples;
#X obj 260 49 route play loop;
#X obj 409 372 pack;
#X obj 429 352 t b f;
#X obj 409 394 *;
#X obj 92 70 t b b;
#X msg 122 90 1;
#X obj 191 122 t f;
#X obj 122 154 t f;
#X obj 409 331 t f f;
#X obj 409 419 outlet loop;
#X obj 439 452 outlet on/off;
#X obj 92 461 outlet ctl;
#X obj 163 421 outlet switch;
#X obj 235 384 outlet gain;
#X obj 92 9 inlet control;
#X obj 415 13 inlet filename;
#X obj 642 28 inlet loopme;
#X connect 0 0 1 1;
#X connect 1 0 3 0;
#X connect 2 0 4 0;
#X connect 3 0 2 0;
#X connect 3 1 8 0;
#X connect 4 0 28 0;
#X connect 5 0 6 0;
#X connect 5 1 8 0;
#X connect 6 0 1 0;
#X connect 7 0 29 0;
#X connect 7 1 30 0;
#X connect 8 0 7 0;
#X connect 9 0 7 0;
#X connect 10 0 4 0;
#X connect 10 0 23 0;
#X connect 10 0 24 0;
#X connect 11 0 10 0;
#X connect 11 1 8 0;
#X connect 12 0 9 0;
#X connect 12 1 13 0;
#X connect 13 0 24 0;
#X connect 14 0 15 0;
#X connect 14 1 17 0;
#X connect 14 2 17 0;
#X connect 15 0 21 0;
#X connect 15 1 12 0;
#X connect 15 2 11 0;
#X connect 16 0 6 0;
#X connect 17 0 16 0;
#X connect 17 1 19 0;
#X connect 18 0 20 0;
#X connect 19 0 18 0;
#X connect 19 1 18 1;
#X connect 20 0 26 0;
#X connect 21 0 5 0;
#X connect 21 1 22 0;
#X connect 22 0 23 0;
#X connect 23 0 25 0;
#X connect 24 0 5 1;
#X connect 25 0 18 0;
#X connect 25 1 27 0;
#X connect 31 0 14 0;
#X connect 32 0 0 0;
#X connect 33 0 6 0;
#X restore 115 103 pd control;
#X obj 448 417 send_regname \$1_SFPLAY_LENGTH;
#X obj 372 462 demux;
#X floatatom 265 129 5 0 0 0 - - -;
#X msg 372 484 symbol stop;
#X obj 92 404 multiline~ 0 0 0 0 0 0 0 0 50;
#X obj 101 516 sIN~ \$1:5_PLAY;
#X obj 148 497 sIN~ \$1:6_PLAY;
#X obj 197 476 sIN~ \$1:7_PLAY;
#X obj 243 455 sIN~ \$1:8_PLAY;
#N canvas 173 43 611 684 readsf~8 0;
#X obj 110 49 inlet;
#X obj 40 214 outlet~;
#X obj 50 234 outlet~;
#X obj 70 254 outlet~;
#X obj 80 274 outlet~;
#X obj 290 75 inlet;
#X obj 290 99 switch~;
#X obj 207 418 outlet currentframe;
#X obj 292 230 bang~;
#X obj 292 270 i;
#X obj 320 271 + 1;
#X obj 110 74 t a a;
#X obj 292 250 spigot;
#X obj 329 152 route float open;
#X obj 382 171 unpack s 0;
#X obj 329 210 i;
#X obj 207 156 t b b;
#X msg 237 180 0;
#X obj 447 191 t f f;
#X text 365 274 *1000*(blocksize)/(samplerate);
#X obj 392 353 samplerate~;
#X obj 500 69 iem_blocksize~;
#X obj 342 354 * 1000;
#X obj 342 375 /;
#X obj 342 333 t f b;
#X obj 292 394 *;
#X obj 477 220 / 64;
#X obj 500 92 t f f;
#N canvas 555 40 450 300 soundfile_info 0;
#X obj 147 28 inlet;
#X obj 147 87 soundfile_info;
#X obj 147 117 unpack 0 s 0 0 0 0 s;
#X obj 147 142 pack 0 0;
#X obj 147 182 /;
#X msg 147 162 \$2 \$1;
#X obj 147 203 * 1000;
#X obj 147 226 outlet;
#X msg 147 59 read \$1;
#X connect 0 0 8 0;
#X connect 1 0 2 0;
#X connect 2 0 3 0;
#X connect 2 2 3 1;
#X connect 3 0 5 0;
#X connect 4 0 6 0;
#X connect 5 0 4 0;
#X connect 6 0 7 0;
#X connect 8 0 1 0;
#X restore 382 423 pd soundfile_info;
#X obj 382 449 outlet length;
#X obj 130 214 outlet~;
#X obj 140 234 outlet~;
#X obj 160 254 outlet~;
#X obj 170 274 outlet~;
#X obj 110 131 readsf~ 8 1e+06;
#X connect 0 0 11 0;
#X connect 5 0 6 0;
#X connect 8 0 12 0;
#X connect 9 0 10 0;
#X connect 9 0 25 0;
#X connect 10 0 9 1;
#X connect 11 0 34 0;
#X connect 11 1 13 0;
#X connect 12 0 9 0;
#X connect 13 0 15 0;
#X connect 13 1 14 0;
#X connect 14 0 28 0;
#X connect 14 1 18 0;
#X connect 15 0 12 1;
#X connect 16 0 7 0;
#X connect 16 1 17 0;
#X connect 17 0 15 0;
#X connect 18 0 15 0;
#X connect 18 1 26 0;
#X connect 20 0 23 1;
#X connect 21 0 27 0;
#X connect 22 0 23 0;
#X connect 23 0 25 1;
#X connect 24 0 22 0;
#X connect 24 1 20 0;
#X connect 25 0 7 0;
#X connect 26 0 9 1;
#X connect 27 0 26 1;
#X connect 27 1 24 0;
#X connect 28 0 29 0;
#X connect 34 0 1 0;
#X connect 34 1 2 0;
#X connect 34 2 3 0;
#X connect 34 3 4 0;
#X connect 34 4 30 0;
#X connect 34 5 31 0;
#X connect 34 6 32 0;
#X connect 34 7 33 0;
#X connect 34 8 16 0;
#X restore 84 307 pd readsf~8 ......;
#X connect 4 0 14 1;
#X connect 5 0 14 0;
#X connect 6 0 7 0;
#X connect 6 1 9 0;
#X connect 7 0 16 0;
#X connect 7 1 8 0;
#X connect 8 0 10 0;
#X connect 9 0 10 1;
#X connect 10 0 12 0;
#X connect 13 0 10 0;
#X connect 14 0 24 0;
#X connect 14 1 24 1;
#X connect 14 2 19 8;
#X connect 14 3 16 1;
#X connect 14 4 13 0;
#X connect 14 4 17 0;
#X connect 16 0 18 0;
#X connect 16 1 14 2;
#X connect 18 0 14 0;
#X connect 19 0 3 0;
#X connect 19 1 2 0;
#X connect 19 2 1 0;
#X connect 19 3 0 0;
#X connect 19 4 20 0;
#X connect 19 5 21 0;
#X connect 19 6 22 0;
#X connect 19 7 23 0;
#X connect 24 0 19 0;
#X connect 24 1 19 1;
#X connect 24 2 19 2;
#X connect 24 3 19 3;
#X connect 24 4 19 4;
#X connect 24 5 19 5;
#X connect 24 6 19 6;
#X connect 24 7 19 7;
#X connect 24 8 6 0;
#X connect 24 9 15 0;
