#N canvas 51 26 859 564 10;
#X obj 486 271 init 50;
#X text 83 95 number of ADC's;
#X obj 279 308 AMBI_Order_Weight_Morphing;
#X obj 486 293 s DSP_MIX_INTERPOL_TIME;
#X text 110 491 1.arg: <float> number of DACs;
#X obj 21 13 inlet;
#X obj 19 519 outlet;
#X obj 73 391 AMBI-Gain-Decode-OUT~;
#X text 93 436 1.arg: <float> n_bus;
#X text 93 446 2.arg: <float> n_out;
#X obj 71 79 ADC-IN-Distribute~ \$1;
#X text 96 335 2.arg: <float> n_mix_ch;
#X text 96 326 1.arg: <float> n_in;
#X text 96 353 4.arg: <float> n_bus;
#X text 488 375 2.arg: <float> n_mix_ch;
#X text 472 351 **********************************************;
#X text 472 471 **********************************************;
#X text 466 351 *;
#X text 466 361 *;
#X text 466 371 *;
#X text 466 381 *;
#X text 466 391 *;
#X text 466 401 *;
#X text 466 411 *;
#X text 466 421 *;
#X text 466 431 *;
#X text 466 441 *;
#X text 466 451 *;
#X text 749 351 *;
#X text 749 361 *;
#X text 749 371 *;
#X text 749 381 *;
#X text 749 391 *;
#X text 749 401 *;
#X text 749 411 *;
#X text 749 421 *;
#X text 749 431 *;
#X text 749 441 *;
#X text 749 451 *;
#X text 472 321 **********************************************;
#X text 466 321 *;
#X text 466 331 *;
#X text 466 341 *;
#X text 749 321 *;
#X text 749 331 *;
#X text 749 341 *;
#X text 532 335 Initial Arguments;
#X text 488 403 5.arg: <float> n_bus;
#X text 466 471 *;
#X text 749 471 *;
#X text 488 366 1.arg: <float> n_in;
#X text 488 384 3.arg: <float> n_aux_send;
#X text 488 393 4.arg: <float> n_aux_return;
#X text 246 95 number of AUXILLARY-SENDs;
#X text 96 344 3.arg: <float> n_aux_send;
#X text 254 172 1.arg: <float> n_aux_send;
#X text 254 181 2.arg: <float> n_aux_return;
#X obj 238 78 AUX-SUM-Distribute~ \$3;
#X text 466 461 *;
#X text 749 461 *;
#X text 483 453 10.arg: <float> n_sf_rec;
#X text 488 443 9.arg: <float> n_sf_play;
#X text 488 413 6.arg: <float> n_out;
#X text 488 423 7.arg: <float> effect_plug_in_index;
#X text 488 433 8.arg: <float> auxillary_plug_in_index;
#X obj 72 310 IN-MIX-CH~ \$1 \$2 \$3 \$5 \$7;
#X obj 73 417 BUS-Gain-Matrix-OUT~ \$5 \$6;
#X text 110 501 2.arg: <symbol> name of compensation file;
#X obj 74 474 DAC_Routing_Compensation~ \$6 presets/compensation.txt
;
#X text 96 363 5.arg: <float> effect_plug_in_index;
#X obj 238 154 \$8_AUX_PLUG_IN~ \$3 \$4;
#N canvas 0 0 458 308 sf_player_TOOL 0;
#X obj 152 104 readsf~ 1;
#X obj 153 139 s~ 1_PLAY;
#X obj 226 104 readsf~ 1;
#X obj 292 103 readsf~ 1;
#X obj 366 103 readsf~ 1;
#X obj 293 138 s~ 3_PLAY;
#X obj 227 139 s~ 2_PLAY;
#X obj 367 138 s~ 4_PLAY;
#X obj 81 140 s~ 0_PLAY;
#X obj 42 27 inlet~;
#X obj 45 254 outlet~;
#X connect 0 0 1 0;
#X connect 2 0 6 0;
#X connect 3 0 5 0;
#X connect 4 0 7 0;
#X restore 431 76 pd sf_player_TOOL;
#N canvas 0 0 462 312 sf_recorder_TOOL 0;
#X obj 42 27 inlet~;
#X obj 45 254 outlet~;
#X obj 44 109 r~ 0_OUT;
#X obj 131 191 writesf~ 1;
#X obj 131 111 r~ 1_OUT;
#X obj 219 190 writesf~ 1;
#X obj 301 190 writesf~ 1;
#X obj 384 190 writesf~ 1;
#X obj 384 110 r~ 4_OUT;
#X obj 301 110 r~ 3_OUT;
#X obj 219 110 r~ 2_OUT;
#X connect 4 0 3 0;
#X connect 8 0 7 0;
#X connect 9 0 6 0;
#X connect 10 0 5 0;
#X restore 287 402 pd sf_recorder_TOOL;
#X connect 0 0 3 0;
#X connect 7 0 66 0;
#X connect 10 0 65 0;
#X connect 57 0 70 0;
#X connect 65 0 7 0;
#X connect 66 0 68 0;
#X connect 70 0 65 0;
