#N canvas 63 32 1249 830 10;
#X obj 486 271 init 50;
#X obj 281 222 AMBI_Order_Weight_Morphing;
#X obj 486 293 s DSP_MIX_INTERPOL_TIME;
#X text 110 491 1.arg: <float> number of DACs;
#X text 93 436 1.arg: <float> n_bus;
#X text 93 446 2.arg: <float> n_out;
#X obj 73 79 ADC-IN-Distribute~ \$1;
#X text 164 249 2.arg: <float> n_mix_ch;
#X text 164 240 1.arg: <float> n_in;
#X text 164 267 4.arg: <float> n_bus;
#X text 488 375 2.arg: <float> n_mix_ch;
#X text 470 346 **********************************************;
#X text 468 488 **********************************************;
#X text 466 351 *;
#X text 466 361 *;
#X text 466 371 *;
#X text 466 381 *;
#X text 466 391 *;
#X text 466 401 *;
#X text 466 411 *;
#X text 466 421 *;
#X text 466 431 *;
#X text 466 441 *;
#X text 466 451 *;
#X text 783 355 *;
#X text 783 366 *;
#X text 782 377 *;
#X text 782 387 *;
#X text 782 397 *;
#X text 782 407 *;
#X text 782 417 *;
#X text 782 427 *;
#X text 782 439 *;
#X text 781 449 *;
#X text 781 459 *;
#X text 466 311 **********************************************;
#X text 466 321 *;
#X text 466 331 *;
#X text 466 341 *;
#X text 784 317 *;
#X text 784 325 *;
#X text 784 337 *;
#X text 551 329 Initial Arguments;
#X text 488 403 5.arg: <float> n_bus;
#X text 466 471 *;
#X text 781 479 *;
#X text 488 366 1.arg: <float> n_in;
#X text 488 384 3.arg: <float> n_aux_send;
#X text 488 393 4.arg: <float> n_aux_return;
#X text 164 258 3.arg: <float> n_aux_send;
#X text 254 172 1.arg: <float> n_aux_send;
#X text 254 181 2.arg: <float> n_aux_return;
#X text 466 461 *;
#X text 781 469 *;
#X text 483 453 10.arg: <float> n_sf_rec;
#X text 488 443 9.arg: <float> n_sf_play;
#X text 488 413 6.arg: <float> n_out;
#X text 488 423 7.arg: <float> effect_plug_in_index;
#X text 489 433 8.arg: <float> auxillary_plug_in_index;
#X text 110 501 2.arg: <symbol> name of compensation file;
#X obj 74 474 DAC_Routing_Compensation~ \$6 presets/compensation.mtx
;
#X text 82 97 1.arg: <float> n_in;
#X text 248 95 1.arg: <float> n_aux_send;
#X obj 488 145 # VU_METER_BRIDGE~;
#X obj 74 222 IN-MIX-CH~ \$1 \$2 \$3 \$5 \$7 \$11;
#X text 483 466 11.arg: <float> n_ambisonic_order;
#X text 164 288 6.arg: <float> n_ambisonic_order;
#X obj 42 525 outlet~;
#X obj 126 520 outlet~;
#X text 65 542 force after inchannels;
#X text 195 523 force after MATSER;
#X obj 42 25 inlet~;
#X text 92 25 force vbefore inchannels;
#X text 164 277 5.arg: <float> #bus;
#X msg 377 457 ON_OFF \$1;
#X obj 377 439 tgl 15 0 empty empty empty 0 -6 0 8 -262144 -1 -1 0
1;
#X text 490 163 not yet implemented....;
#X text 673 43 *;
#X text 673 53 *;
#X text 673 63 *;
#X text 673 73 *;
#X text 673 83 *;
#X text 673 93 *;
#X text 673 103 *;
#X text 673 113 *;
#X text 673 123 *;
#X text 673 133 *;
#X text 673 143 *;
#X text 1043 44 *;
#X text 1043 54 *;
#X text 1043 64 *;
#X text 1043 74 *;
#X text 1043 84 *;
#X text 1043 94 *;
#X text 1043 104 *;
#X text 1043 114 *;
#X text 1043 124 *;
#X text 1043 134 *;
#X text 1043 145 *;
#X text 673 13 *;
#X text 673 23 *;
#X text 673 33 *;
#X text 1043 14 *;
#X text 1043 24 *;
#X text 1043 34 *;
#X text 673 163 *;
#X text 1043 184 *;
#X text 673 153 *;
#X text 1043 154 *;
#X text 1043 164 *;
#X text 1043 174 *;
#X text 673 183 *;
#X text 673 173 *;
#X text 738 27 The_MIXER~ Initial Arguments;
#X text 679 13 ****************************************************
;
#X text 679 43 ****************************************************
;
#X text 1043 193 *;
#X text 1043 202 *;
#X text 1043 241 *;
#X text 1043 211 *;
#X text 1043 221 *;
#X text 1043 231 *;
#X text 1043 251 *;
#X text 673 193 *;
#X text 673 203 *;
#X text 673 213 *;
#X text 673 223 *;
#X text 673 233 *;
#X text 673 253 *;
#X text 673 243 *;
#X text 679 253 ****************************************************
;
#X obj 238 78 AUX-SUM-Distribute~ \$6;
#X text 695 68 1.arg: <float> # adc~s;
#X text 695 81 2.arg: <float> # dac~s;
#X text 694 97 3.arg: <float> # number of mixer-channels (fader);
#X text 694 129 5.arg: <float> # AUX sends (sends from channel);
#X text 694 144 6.arg: <float> # AUX sums (bus-width);
#X text 695 160 7.arg: <float> # output busses;
#X text 694 114 4.arg: <float> # fx-slots per channel;
#X text 689 188 09.arg: <float> ambisonic dimension (2d \, 3d);
#X text 689 216 11.arg: <float> ambisonic outputs ("dac");
#X text 689 173 08.arg: <symbol> ambisonic type;
#X text 689 202 10.arg: <float> ambisonic order;
#X obj 238 154 AUX_PLUG_IN_\$5_\$6~;
#X obj 73 325 \$8_\$9_\$10_AMBIBUS~;
#X obj 43 203 cnv 15 100 60 empty empty empty 20 12 0 14 -233017 -66577
0;
#X obj 324 456 cnv 15 100 60 empty empty empty 20 12 0 14 -233017 -66577
0;
#X obj 73 371 AMBI-Gain-Decode-OUT~ \$10 \$11;
#X obj 74 416 BUS-Gain-Matrix-OUT_bus\$7_OUT52~ \$7 \$2;
#X connect 0 0 2 0;
#X connect 6 0 64 0;
#X connect 64 0 67 0;
#X connect 64 0 144 0;
#X connect 71 0 64 0;
#X connect 74 0 60 1;
#X connect 75 0 74 0;
#X connect 131 0 143 0;
#X connect 143 0 64 0;
#X connect 144 0 147 0;
#X connect 147 0 148 0;
#X connect 148 0 68 0;
#X connect 148 0 60 0;
