#N canvas 1592 182 867 572 10;
#X obj 486 271 init 50;
#X obj 281 220 AMBI_Order_Weight_Morphing;
#X obj 486 293 s DSP_MIX_INTERPOL_TIME;
#X text 110 491 1.arg: <float> number of DACs;
#X text 93 436 1.arg: <float> n_bus;
#X text 93 446 2.arg: <float> n_out;
#X obj 71 79 ADC-IN-Distribute~ \$1;
#X text 96 335 2.arg: <float> n_mix_ch;
#X text 96 326 1.arg: <float> n_in;
#X text 96 353 4.arg: <float> n_bus;
#X text 488 375 2.arg: <float> n_mix_ch;
#X text 472 351 **********************************************;
#X text 468 488 **********************************************;
#X text 466 351 *;
#X text 466 361 *;
#X text 466 371 *;
#X text 466 381 *;
#X text 466 391 *;
#X text 466 401 *;
#X text 466 411 *;
#X text 466 421 *;
#X text 466 431 *;
#X text 466 441 *;
#X text 466 451 *;
#X text 749 351 *;
#X text 749 361 *;
#X text 749 371 *;
#X text 749 381 *;
#X text 749 391 *;
#X text 749 401 *;
#X text 749 411 *;
#X text 749 421 *;
#X text 749 431 *;
#X text 749 441 *;
#X text 749 451 *;
#X text 472 321 **********************************************;
#X text 466 321 *;
#X text 466 331 *;
#X text 466 341 *;
#X text 749 321 *;
#X text 749 331 *;
#X text 749 341 *;
#X text 532 335 Initial Arguments;
#X text 488 403 5.arg: <float> n_bus;
#X text 466 471 *;
#X text 749 471 *;
#X text 488 366 1.arg: <float> n_in;
#X text 488 384 3.arg: <float> n_aux_send;
#X text 488 393 4.arg: <float> n_aux_return;
#X text 96 344 3.arg: <float> n_aux_send;
#X text 254 172 1.arg: <float> n_aux_send;
#X text 254 181 2.arg: <float> n_aux_return;
#X obj 238 78 AUX-SUM-Distribute~ \$3;
#X text 466 461 *;
#X text 749 461 *;
#X text 483 453 10.arg: <float> n_sf_rec;
#X text 488 443 9.arg: <float> n_sf_play;
#X text 488 413 6.arg: <float> n_out;
#X text 488 423 7.arg: <float> effect_plug_in_index;
#X text 488 433 8.arg: <float> auxillary_plug_in_index;
#X obj 73 417 BUS-Gain-Matrix-OUT~ \$5 \$6;
#X text 110 501 2.arg: <symbol> name of compensation file;
#X obj 74 474 DAC_Routing_Compensation~ \$6 presets/compensation.txt
;
#X text 96 363 5.arg: <float> effect_plug_in_index;
#X obj 238 154 \$8_AUX_PLUG_IN~ \$3 \$4;
#X text 80 97 1.arg: <float> n_in;
#X text 248 95 1.arg: <float> n_aux_send;
#X text 282 426 1.arg: <float> n_sf_rec;
#X obj 283 409 # SF_RECORDER_TOOL~ \$10;
#X msg 382 450 ON_OFF 1;
#X obj 475 173 # VU_METER_BRIDGE~;
#X obj 74 222 IN-MIX-CH~ \$1 \$2 \$3 \$5 \$7 \$11;
#X text 483 466 11.arg: <float> n_ambisonic_order;
#X text 96 374 6.arg: <float> n_ambisonic_order;
#X obj 73 391 AMBI-Gain-Decode-OUT~ \$11;
#X obj 73 285 AMBI-BUS-OUT~;
#X obj 59 522 outlet~;
#X obj 126 520 outlet~;
#X text 65 542 force after inchannels;
#X text 195 523 force after MATSER;
#X obj 42 25 inlet~;
#X text 92 25 force vbefore inchannels;
#X connect 0 0 2 0;
#X connect 6 0 71 0;
#X connect 52 0 64 0;
#X connect 60 0 77 0;
#X connect 60 0 62 0;
#X connect 64 0 71 0;
#X connect 69 0 62 1;
#X connect 71 0 75 0;
#X connect 71 0 76 0;
#X connect 74 0 60 0;
#X connect 75 0 74 0;
#X connect 80 0 71 0;
