#N canvas 51 26 867 572 10;
#X obj 486 271 init 50;
#X obj 279 308 AMBI_Order_Weight_Morphing;
#X obj 486 293 s DSP_MIX_INTERPOL_TIME;
#X text 110 491 1.arg: <float> number of DACs;
#X obj 21 13 inlet;
#X obj 19 519 outlet;
#X obj 73 391 AMBI-Gain-Decode-OUT~;
#X text 93 436 1.arg: <float> n_bus;
#X text 93 446 2.arg: <float> n_out;
#X obj 71 79 ADC-IN-Distribute~ \$1;
#X text 96 335 2.arg: <float> n_mix_ch;
#X text 96 326 1.arg: <float> n_in;
#X text 96 353 4.arg: <float> n_bus;
#X text 488 375 2.arg: <float> n_mix_ch;
#X text 472 351 **********************************************;
#X text 472 471 **********************************************;
#X text 466 351 *;
#X text 466 361 *;
#X text 466 371 *;
#X text 466 381 *;
#X text 466 391 *;
#X text 466 401 *;
#X text 466 411 *;
#X text 466 421 *;
#X text 466 431 *;
#X text 466 441 *;
#X text 466 451 *;
#X text 749 351 *;
#X text 749 361 *;
#X text 749 371 *;
#X text 749 381 *;
#X text 749 391 *;
#X text 749 401 *;
#X text 749 411 *;
#X text 749 421 *;
#X text 749 431 *;
#X text 749 441 *;
#X text 749 451 *;
#X text 472 321 **********************************************;
#X text 466 321 *;
#X text 466 331 *;
#X text 466 341 *;
#X text 749 321 *;
#X text 749 331 *;
#X text 749 341 *;
#X text 532 335 Initial Arguments;
#X text 488 403 5.arg: <float> n_bus;
#X text 466 471 *;
#X text 749 471 *;
#X text 488 366 1.arg: <float> n_in;
#X text 488 384 3.arg: <float> n_aux_send;
#X text 488 393 4.arg: <float> n_aux_return;
#X text 96 344 3.arg: <float> n_aux_send;
#X text 254 172 1.arg: <float> n_aux_send;
#X text 254 181 2.arg: <float> n_aux_return;
#X obj 238 78 AUX-SUM-Distribute~ \$3;
#X text 466 461 *;
#X text 749 461 *;
#X text 483 453 10.arg: <float> n_sf_rec;
#X text 488 443 9.arg: <float> n_sf_play;
#X text 488 413 6.arg: <float> n_out;
#X text 488 423 7.arg: <float> effect_plug_in_index;
#X text 488 433 8.arg: <float> auxillary_plug_in_index;
#X obj 72 310 IN-MIX-CH~ \$1 \$2 \$3 \$5 \$7;
#X obj 73 417 BUS-Gain-Matrix-OUT~ \$5 \$6;
#X text 110 501 2.arg: <symbol> name of compensation file;
#X obj 74 474 DAC_Routing_Compensation~ \$6 presets/compensation.txt
;
#X text 96 363 5.arg: <float> effect_plug_in_index;
#X obj 238 154 \$8_AUX_PLUG_IN~ \$3 \$4;
#X obj 480 70 SF_PLAYER_TOOL~ \$9;
#X text 80 97 1.arg: <float> n_in;
#X text 486 91 1.arg: <float> n_sf_play;
#X text 248 95 1.arg: <float> n_aux_send;
#X text 282 426 1.arg: <float> n_sf_rec;
#X obj 283 409 #SF_RECORDER_TOOL~ \$10;
#X obj 475 173 #VU_METER_BRIDGE~;
#X connect 0 0 2 0;
#X connect 6 0 64 0;
#X connect 9 0 63 0;
#X connect 55 0 68 0;
#X connect 63 0 6 0;
#X connect 64 0 66 0;
#X connect 68 0 63 0;
#X connect 69 0 63 0;
