#N canvas 199 226 458 408 10;
#X obj 321 27 inlet~;
#X obj 279 27 inlet~;
#X obj 106 27 inlet~;
#X obj 64 27 inlet~;
#X obj 23 27 inlet~;
#X obj 236 27 inlet~;
#X obj 194 27 inlet~;
#X obj 153 27 inlet~;
#X obj 210 357 outlet~;
#X obj 256 357 outlet~;
#X obj 302 357 outlet~;
#X obj 349 357 outlet~;
#X obj 21 357 outlet~;
#X obj 68 357 outlet~;
#X obj 114 357 outlet~;
#X obj 161 357 outlet~;
#X obj 20 201 submatrix4~ ______________;
#X obj 208 201 submatrix4~ ______________;
#X obj 21 307 submatrix5~ ______________________;
#X obj 256 306 submatrix3~ ______;
#X obj 23 77 submatrix2~;
#X obj 151 132 submatrix5~ _______________;
#X obj 22 132 submatrix3~ __;
#X obj 108 78 submatrix2~;
#X obj 192 77 submatrix2~;
#X obj 276 78 submatrix2~;
#X connect 0 0 25 1;
#X connect 1 0 25 0;
#X connect 2 0 23 0;
#X connect 3 0 20 1;
#X connect 4 0 20 0;
#X connect 5 0 24 1;
#X connect 6 0 24 0;
#X connect 7 0 23 1;
#X connect 16 0 18 0;
#X connect 16 1 18 2;
#X connect 16 2 18 4;
#X connect 16 3 19 1;
#X connect 17 0 18 1;
#X connect 17 1 18 3;
#X connect 17 2 19 0;
#X connect 17 3 19 2;
#X connect 18 0 12 0;
#X connect 18 1 13 0;
#X connect 18 2 14 0;
#X connect 18 3 15 0;
#X connect 18 4 8 0;
#X connect 19 0 9 0;
#X connect 19 1 10 0;
#X connect 19 2 11 0;
#X connect 20 0 22 0;
#X connect 20 1 21 0;
#X connect 21 0 16 1;
#X connect 21 1 16 2;
#X connect 21 2 17 0;
#X connect 21 3 17 1;
#X connect 21 4 17 3;
#X connect 22 0 16 0;
#X connect 22 1 16 3;
#X connect 22 2 17 2;
#X connect 23 0 22 1;
#X connect 23 1 21 1;
#X connect 24 0 22 2;
#X connect 24 1 21 3;
#X connect 25 0 21 2;
#X connect 25 1 21 4;
