#N canvas 195 206 462 412 10;
#X obj 321 27 inlet~;
#X obj 279 27 inlet~;
#X obj 106 27 inlet~;
#X obj 64 27 inlet~;
#X obj 23 27 inlet~;
#X obj 236 27 inlet~;
#X obj 194 27 inlet~;
#X obj 153 27 inlet~;
#X obj 210 357 outlet~;
#X obj 256 357 outlet~;
#X obj 302 357 outlet~;
#X obj 349 357 outlet~;
#X obj 21 357 outlet~;
#X obj 68 357 outlet~;
#X obj 114 357 outlet~;
#X obj 161 357 outlet~;
#X obj 21 148 submatrix4~ ______________;
#X obj 209 148 submatrix4~ ______________;
#X obj 22 79 submatrix3~ _____;
#X obj 152 79 submatrix5~ ___________________;
#X obj 22 254 submatrix5~ ______________________;
#X obj 257 253 submatrix3~ ______;
#X connect 0 0 19 4;
#X connect 1 0 19 3;
#X connect 2 0 18 2;
#X connect 3 0 18 1;
#X connect 4 0 18 0;
#X connect 5 0 19 2;
#X connect 6 0 19 1;
#X connect 7 0 19 0;
#X connect 16 0 20 0;
#X connect 16 1 20 2;
#X connect 16 2 20 4;
#X connect 16 3 21 1;
#X connect 17 0 20 1;
#X connect 17 1 20 3;
#X connect 17 2 21 0;
#X connect 17 3 21 2;
#X connect 18 0 16 0;
#X connect 18 1 16 3;
#X connect 18 2 17 2;
#X connect 19 0 16 1;
#X connect 19 1 16 2;
#X connect 19 2 17 0;
#X connect 19 3 17 1;
#X connect 19 4 17 3;
#X connect 20 0 12 0;
#X connect 20 1 13 0;
#X connect 20 2 14 0;
#X connect 20 3 15 0;
#X connect 20 4 8 0;
#X connect 21 0 9 0;
#X connect 21 1 10 0;
#X connect 21 2 11 0;
