#N canvas 195 206 386 368 10;
#X obj 228 27 inlet~;
#X obj 187 27 inlet~;
#X obj 64 27 inlet~;
#X obj 23 27 inlet~;
#X obj 146 27 inlet~;
#X obj 105 27 inlet~;
#X obj 159 281 outlet~;
#X obj 205 281 outlet~;
#X obj 251 281 outlet~;
#X obj 21 281 outlet~;
#X obj 67 281 outlet~;
#X obj 113 281 outlet~;
#X obj 158 241 submatrix3~ __________;
#X obj 21 241 submatrix3~ __________;
#X obj 22 105 submatrix6~ _______________________________;
#X connect 0 0 14 5;
#X connect 1 0 14 4;
#X connect 2 0 14 1;
#X connect 3 0 14 0;
#X connect 4 0 14 3;
#X connect 5 0 14 2;
#X connect 12 0 6 0;
#X connect 12 1 7 0;
#X connect 12 2 8 0;
#X connect 13 0 9 0;
#X connect 13 1 10 0;
#X connect 13 2 11 0;
#X connect 14 0 13 0;
#X connect 14 1 12 0;
#X connect 14 2 13 1;
#X connect 14 3 12 1;
#X connect 14 4 13 2;
#X connect 14 5 12 2;
