#N canvas 25 20 889 659 10;
#X obj 76 426 outlet~;
#X obj 118 492 outlet~;
#X obj 103 470 outlet~;
#X obj 89 448 outlet~;
#X obj 66 404 outlet~;
#X obj 52 382 outlet~;
#X obj 37 360 outlet~;
#X obj 26 338 outlet~;
#X obj 313 517 outlet~;
#X obj 312 347 +~;
#X obj 322 370 +~;
#X obj 332 415 +~;
#X obj 342 439 +~;
#X obj 324 539 outlet~;
#X text 366 25 parameter update message;
#X obj 366 42 inlet;
#X obj 385 413 *~ 0.1;
#X obj 375 390 *~ 0.1;
#X obj 364 366 *~ 0.1;
#X obj 354 344 *~ 0.1;
#X obj 344 321 *~ 0.1;
#X obj 334 298 *~ 0.1;
#X obj 322 275 *~ 0.1;
#X obj 312 252 *~ 0.1;
#X obj 333 567 outlet~;
#X obj 344 589 outlet~;
#X text 365 519 front;
#X text 387 570 rear;
#X obj 366 75 route delay damp;
#X text 435 168 LEFT (even index);
#X text 431 197 RIGHT (odd index);
#X obj 23 32 inlet~;
#X obj 70 34 inlet~;
#X text 9 14 left source signal;
#X text 156 13 right source signal;
#X obj 24 132 delwrite~ \$0_L1 \$1;
#X obj 71 156 delwrite~ \$0_R1 \$1;
#X obj 116 34 inlet~;
#X obj 163 36 inlet~;
#X obj 116 181 delwrite~ \$0_L2 \$1;
#X obj 164 205 delwrite~ \$0_R2 \$1;
#X obj 26 235 delread~ \$0_L1 100;
#X obj 36 258 delread~ \$0_R1 110;
#X obj 51 280 delread~ \$0_L1 120;
#X obj 65 304 delread~ \$0_R1 130;
#X obj 104 372 delread~ \$0_L2 160;
#X obj 119 395 delread~ \$0_R2 170;
#X text 423 50 1.arg: <float> max. early_delay_time in ms;
#X obj 548 191 route 1 3 5 7;
#X obj 544 171 route 0 2 4 6;
#X obj 284 180 route 1 3 5 7;
#X obj 281 152 route 0 2 4 6;
#X obj 90 348 delread~ \$0_R2 150;
#X obj 77 326 delread~ \$0_L2 140;
#X text 211 70 4 / 8 = 0.5;
#X obj 23 71 *~ 0.5;
#X obj 70 71 *~ 0.5;
#X obj 115 71 *~ 0.5;
#X obj 163 71 *~ 0.5;
#X obj 558 99 unpack;
#X obj 558 140 pack;
#X text 616 120 8 / 4 = 2;
#X obj 589 121 * 2;
#X connect 9 0 8 0;
#X connect 10 0 13 0;
#X connect 11 0 24 0;
#X connect 12 0 25 0;
#X connect 15 0 28 0;
#X connect 16 0 12 1;
#X connect 17 0 11 1;
#X connect 18 0 12 0;
#X connect 19 0 11 0;
#X connect 20 0 10 1;
#X connect 21 0 9 1;
#X connect 22 0 10 0;
#X connect 23 0 9 0;
#X connect 28 0 50 0;
#X connect 28 0 51 0;
#X connect 28 1 59 0;
#X connect 31 0 55 0;
#X connect 32 0 56 0;
#X connect 37 0 57 0;
#X connect 38 0 58 0;
#X connect 41 0 7 0;
#X connect 41 0 23 0;
#X connect 42 0 6 0;
#X connect 42 0 22 0;
#X connect 43 0 5 0;
#X connect 43 0 21 0;
#X connect 44 0 4 0;
#X connect 44 0 20 0;
#X connect 45 0 2 0;
#X connect 45 0 17 0;
#X connect 46 0 1 0;
#X connect 46 0 16 0;
#X connect 48 0 22 1;
#X connect 48 1 20 1;
#X connect 48 2 18 1;
#X connect 48 3 16 1;
#X connect 49 0 23 1;
#X connect 49 1 21 1;
#X connect 49 2 19 1;
#X connect 49 3 17 1;
#X connect 50 0 42 0;
#X connect 50 1 44 0;
#X connect 50 2 52 0;
#X connect 50 3 46 0;
#X connect 51 0 41 0;
#X connect 51 1 43 0;
#X connect 51 2 53 0;
#X connect 51 3 45 0;
#X connect 52 0 3 0;
#X connect 52 0 18 0;
#X connect 53 0 0 0;
#X connect 53 0 19 0;
#X connect 55 0 35 0;
#X connect 56 0 36 0;
#X connect 57 0 39 0;
#X connect 58 0 40 0;
#X connect 59 0 60 0;
#X connect 59 1 62 0;
#X connect 60 0 49 0;
#X connect 60 0 48 0;
#X connect 62 0 60 1;
