#N canvas 94 10 799 667 10;
#X obj 26 38 inlet~;
#X obj 76 426 outlet~;
#X obj 118 492 outlet~;
#X obj 103 470 outlet~;
#X obj 89 448 outlet~;
#X obj 66 404 outlet~;
#X obj 52 382 outlet~;
#X obj 37 360 outlet~;
#X obj 26 338 outlet~;
#X obj 313 577 outlet~;
#X obj 312 416 +~;
#X obj 322 439 +~;
#X obj 332 461 +~;
#X obj 342 485 +~;
#X text 366 25 parameter update message;
#X obj 366 42 inlet;
#X obj 385 413 *~ 0.1;
#X obj 375 390 *~ 0.1;
#X obj 364 366 *~ 0.1;
#X obj 354 344 *~ 0.1;
#X obj 344 321 *~ 0.1;
#X obj 334 298 *~ 0.1;
#X obj 322 275 *~ 0.1;
#X obj 312 252 *~ 0.1;
#X text 365 579 front;
#X obj 366 75 route delay damp;
#X obj 26 211 delwrite~ \$0_L \$1;
#X text 410 170 LEFT (even index);
#X text 406 199 RIGHT (odd index);
#X obj 281 152 route 0 2 4 6;
#X obj 284 180 route 1 3 5 7;
#X obj 547 172 route 0 2 4 6;
#X obj 558 195 route 1 3 5 7;
#X obj 26 235 delread~ \$0_L 100;
#X obj 51 280 delread~ \$0_L 120;
#X obj 77 326 delread~ \$0_L 140;
#X obj 104 372 delread~ \$0_L 160;
#X text 423 50 1.arg: <float> max. early_delay_time in ms;
#X obj 313 492 +~;
#X obj 323 516 +~;
#X text 12 20 source signal;
#X obj 36 258 delread~ \$0_L 110;
#X obj 65 304 delread~ \$0_L 130;
#X obj 90 348 delread~ \$0_L 150;
#X obj 119 395 delread~ \$0_L 170;
#X obj 314 548 +~;
#X text 98 94 1 / 8 = 0.125;
#X obj 26 97 *~ 0.125;
#X obj 552 99 unpack;
#X obj 552 140 pack;
#X obj 583 121 * 8;
#X text 610 120 8 / 1 = 8;
#X connect 0 0 47 0;
#X connect 10 0 38 0;
#X connect 11 0 39 0;
#X connect 12 0 38 1;
#X connect 13 0 39 1;
#X connect 15 0 25 0;
#X connect 16 0 12 1;
#X connect 17 0 13 1;
#X connect 18 0 10 1;
#X connect 19 0 11 1;
#X connect 20 0 13 0;
#X connect 21 0 12 0;
#X connect 22 0 11 0;
#X connect 23 0 10 0;
#X connect 25 0 29 0;
#X connect 25 0 30 0;
#X connect 25 1 48 0;
#X connect 29 0 33 0;
#X connect 29 1 34 0;
#X connect 29 2 35 0;
#X connect 29 3 36 0;
#X connect 30 0 41 0;
#X connect 30 1 42 0;
#X connect 30 2 43 0;
#X connect 30 3 44 0;
#X connect 31 0 23 1;
#X connect 31 1 21 1;
#X connect 31 2 19 1;
#X connect 31 3 17 1;
#X connect 32 0 22 1;
#X connect 32 1 20 1;
#X connect 32 2 18 1;
#X connect 32 3 16 1;
#X connect 33 0 8 0;
#X connect 33 0 23 0;
#X connect 34 0 6 0;
#X connect 34 0 21 0;
#X connect 35 0 1 0;
#X connect 35 0 19 0;
#X connect 36 0 3 0;
#X connect 36 0 17 0;
#X connect 38 0 45 0;
#X connect 39 0 45 1;
#X connect 41 0 7 0;
#X connect 41 0 22 0;
#X connect 42 0 5 0;
#X connect 42 0 20 0;
#X connect 43 0 4 0;
#X connect 43 0 18 0;
#X connect 44 0 2 0;
#X connect 44 0 16 0;
#X connect 45 0 9 0;
#X connect 47 0 26 0;
#X connect 48 0 49 0;
#X connect 48 1 50 0;
#X connect 49 0 31 0;
#X connect 49 0 32 0;
#X connect 50 0 49 1;
