#N canvas 33 20 877 647 10;
#X obj 133 514 outlet~;
#X obj 151 536 outlet~;
#X obj 166 558 outlet~;
#X obj 183 580 outlet~;
#X obj 76 426 outlet~;
#X obj 118 492 outlet~;
#X obj 103 470 outlet~;
#X obj 89 448 outlet~;
#X obj 66 404 outlet~;
#X obj 52 382 outlet~;
#X obj 37 360 outlet~;
#X obj 26 338 outlet~;
#X obj 679 857 outlet~;
#X obj 678 351 +~;
#X obj 688 374 +~;
#X obj 698 419 +~;
#X obj 708 443 +~;
#X obj 679 465 +~;
#X obj 689 487 +~;
#X obj 699 525 +~;
#X obj 709 548 +~;
#X obj 690 879 outlet~;
#X text 366 25 parameter update message;
#X obj 366 42 inlet;
#X obj 795 508 *~ 0.1;
#X obj 783 485 *~ 0.1;
#X obj 774 462 *~ 0.1;
#X obj 762 439 *~ 0.1;
#X obj 751 417 *~ 0.1;
#X obj 741 394 *~ 0.1;
#X obj 730 370 *~ 0.1;
#X obj 720 348 *~ 0.1;
#X obj 710 325 *~ 0.1;
#X obj 700 302 *~ 0.1;
#X obj 688 279 *~ 0.1;
#X obj 678 256 *~ 0.1;
#X obj 699 907 outlet~;
#X obj 710 929 outlet~;
#X text 731 859 front;
#X text 753 910 rear;
#X obj 366 75 route delay damp;
#X text 588 151 LEFT (even index);
#X text 584 180 RIGHT (odd index);
#X obj 23 32 inlet~;
#X obj 70 34 inlet~;
#X text 9 14 left source signal;
#X text 156 13 right source signal;
#X obj 24 132 delwrite~ \$0_L1 \$1;
#X obj 71 156 delwrite~ \$0_R1 \$1;
#X obj 116 34 inlet~;
#X obj 163 36 inlet~;
#X obj 116 181 delwrite~ \$0_L2 \$1;
#X obj 164 205 delwrite~ \$0_R2 \$1;
#X obj 26 235 delread~ \$0_L1 100;
#X obj 36 258 delread~ \$0_R1 110;
#X obj 51 280 delread~ \$0_L1 120;
#X obj 65 304 delread~ \$0_R1 130;
#X obj 77 326 delread~ \$0_L1 140;
#X obj 90 348 delread~ \$0_R1 150;
#X obj 315 152 route 0 2 4 6 8 10 12 14 16 18 20 22;
#X obj 318 180 route 1 3 5 7 9 11 13 15 17 19 21 23;
#X obj 727 154 route 0 2 4 6 8 10 12 14 16 18 20 22;
#X obj 737 178 route 1 3 5 7 9 11 13 15 17 19 21 23;
#X obj 305 789 outlet~;
#X obj 323 811 outlet~;
#X obj 338 833 outlet~;
#X obj 355 855 outlet~;
#X obj 248 701 outlet~;
#X obj 290 767 outlet~;
#X obj 275 745 outlet~;
#X obj 261 723 outlet~;
#X obj 238 679 outlet~;
#X obj 224 657 outlet~;
#X obj 209 635 outlet~;
#X obj 198 613 outlet~;
#X obj 276 647 delread~ \$0_L2 280;
#X obj 291 670 delread~ \$0_R2 290;
#X obj 306 692 delread~ \$0_L2 300;
#X obj 322 715 delread~ \$0_R2 310;
#X obj 338 738 delread~ \$0_L2 320;
#X obj 356 763 delread~ \$0_R2 330;
#X obj 679 657 +~;
#X obj 689 680 +~;
#X obj 700 702 +~;
#X obj 710 726 +~;
#X obj 680 746 +~;
#X obj 690 768 +~;
#X obj 700 792 +~;
#X obj 710 815 +~;
#X obj 923 783 *~ 0.1;
#X obj 911 760 *~ 0.1;
#X obj 902 737 *~ 0.1;
#X obj 890 714 *~ 0.1;
#X obj 879 692 *~ 0.1;
#X obj 869 669 *~ 0.1;
#X obj 858 645 *~ 0.1;
#X obj 848 623 *~ 0.1;
#X obj 838 600 *~ 0.1;
#X obj 828 577 *~ 0.1;
#X obj 816 554 *~ 0.1;
#X obj 806 531 *~ 0.1;
#X obj 678 564 +~;
#X obj 688 587 +~;
#X obj 701 616 +~;
#X obj 711 640 +~;
#X obj 104 372 delread~ \$0_L1 160;
#X obj 119 395 delread~ \$0_R1 170;
#X obj 134 417 delread~ \$0_L1 180;
#X obj 150 440 delread~ \$0_R1 190;
#X obj 166 463 delread~ \$0_L1 200;
#X obj 184 488 delread~ \$0_R1 210;
#X obj 198 510 delread~ \$0_L2 220;
#X obj 208 533 delread~ \$0_R2 230;
#X obj 223 555 delread~ \$0_L2 240;
#X obj 237 579 delread~ \$0_R2 250;
#X obj 249 601 delread~ \$0_L2 260;
#X obj 262 623 delread~ \$0_R2 270;
#X text 423 50 1.arg: <float> max. early_delay_time in ms;
#X obj 735 91 unpack;
#X obj 735 132 pack;
#X text 239 85 4 / 24 = 0.166667;
#X text 790 113 24 / 4 = 6;
#X obj 766 113 * 6;
#X obj 23 61 *~ 0.166667;
#X obj 70 84 *~ 0.166667;
#X obj 116 62 *~ 0.166667;
#X obj 163 85 *~ 0.166667;
#X connect 13 0 17 0;
#X connect 14 0 18 0;
#X connect 15 0 19 0;
#X connect 16 0 20 0;
#X connect 17 0 101 0;
#X connect 18 0 102 0;
#X connect 19 0 103 0;
#X connect 20 0 104 0;
#X connect 23 0 40 0;
#X connect 24 0 19 1;
#X connect 25 0 20 1;
#X connect 26 0 17 1;
#X connect 27 0 18 1;
#X connect 28 0 16 1;
#X connect 29 0 15 1;
#X connect 30 0 16 0;
#X connect 31 0 15 0;
#X connect 32 0 14 1;
#X connect 33 0 13 1;
#X connect 34 0 14 0;
#X connect 35 0 13 0;
#X connect 40 0 59 0;
#X connect 40 0 60 0;
#X connect 40 1 118 0;
#X connect 43 0 123 0;
#X connect 44 0 124 0;
#X connect 49 0 125 0;
#X connect 50 0 126 0;
#X connect 53 0 11 0;
#X connect 53 0 35 0;
#X connect 54 0 10 0;
#X connect 54 0 34 0;
#X connect 55 0 9 0;
#X connect 55 0 33 0;
#X connect 56 0 8 0;
#X connect 56 0 32 0;
#X connect 57 0 4 0;
#X connect 57 0 31 0;
#X connect 58 0 7 0;
#X connect 58 0 30 0;
#X connect 59 0 53 0;
#X connect 59 1 55 0;
#X connect 59 2 57 0;
#X connect 59 3 105 0;
#X connect 59 4 107 0;
#X connect 59 5 109 0;
#X connect 59 6 111 0;
#X connect 59 7 113 0;
#X connect 59 8 115 0;
#X connect 59 9 75 0;
#X connect 59 10 77 0;
#X connect 59 11 79 0;
#X connect 60 0 54 0;
#X connect 60 1 56 0;
#X connect 60 2 58 0;
#X connect 60 3 106 0;
#X connect 60 4 108 0;
#X connect 60 5 110 0;
#X connect 60 6 112 0;
#X connect 60 7 114 0;
#X connect 60 8 116 0;
#X connect 60 9 76 0;
#X connect 60 10 78 0;
#X connect 60 11 80 0;
#X connect 61 0 35 1;
#X connect 61 1 33 1;
#X connect 61 2 31 1;
#X connect 61 3 29 1;
#X connect 61 4 27 1;
#X connect 61 5 25 1;
#X connect 61 6 100 1;
#X connect 61 7 98 1;
#X connect 61 8 96 1;
#X connect 61 9 94 1;
#X connect 61 10 92 1;
#X connect 61 11 90 1;
#X connect 62 0 34 1;
#X connect 62 1 32 1;
#X connect 62 2 30 1;
#X connect 62 3 28 1;
#X connect 62 4 26 1;
#X connect 62 5 24 1;
#X connect 62 6 99 1;
#X connect 62 7 97 1;
#X connect 62 8 95 1;
#X connect 62 9 93 1;
#X connect 62 10 91 1;
#X connect 62 11 89 1;
#X connect 75 0 69 0;
#X connect 75 0 94 0;
#X connect 76 0 68 0;
#X connect 76 0 93 0;
#X connect 77 0 63 0;
#X connect 77 0 92 0;
#X connect 78 0 64 0;
#X connect 78 0 91 0;
#X connect 79 0 65 0;
#X connect 79 0 90 0;
#X connect 80 0 66 0;
#X connect 80 0 89 0;
#X connect 81 0 85 0;
#X connect 82 0 86 0;
#X connect 83 0 87 0;
#X connect 84 0 88 0;
#X connect 85 0 12 0;
#X connect 86 0 21 0;
#X connect 87 0 36 0;
#X connect 88 0 37 0;
#X connect 89 0 87 1;
#X connect 90 0 88 1;
#X connect 91 0 85 1;
#X connect 92 0 86 1;
#X connect 93 0 84 1;
#X connect 94 0 83 1;
#X connect 95 0 82 1;
#X connect 96 0 81 1;
#X connect 97 0 104 1;
#X connect 98 0 103 1;
#X connect 99 0 102 1;
#X connect 100 0 101 1;
#X connect 101 0 81 0;
#X connect 102 0 82 0;
#X connect 103 0 83 0;
#X connect 104 0 84 0;
#X connect 105 0 6 0;
#X connect 105 0 29 0;
#X connect 106 0 5 0;
#X connect 106 0 28 0;
#X connect 107 0 0 0;
#X connect 107 0 27 0;
#X connect 108 0 1 0;
#X connect 108 0 26 0;
#X connect 109 0 2 0;
#X connect 109 0 25 0;
#X connect 110 0 3 0;
#X connect 110 0 24 0;
#X connect 111 0 74 0;
#X connect 111 0 100 0;
#X connect 112 0 73 0;
#X connect 112 0 99 0;
#X connect 113 0 72 0;
#X connect 113 0 98 0;
#X connect 114 0 71 0;
#X connect 114 0 97 0;
#X connect 115 0 67 0;
#X connect 115 0 96 0;
#X connect 116 0 70 0;
#X connect 116 0 95 0;
#X connect 118 0 119 0;
#X connect 118 1 122 0;
#X connect 119 0 61 0;
#X connect 119 0 62 0;
#X connect 122 0 119 1;
#X connect 123 0 47 0;
#X connect 124 0 48 0;
#X connect 125 0 51 0;
#X connect 126 0 52 0;
