#N canvas 117 20 887 647 10;
#X obj 26 38 inlet~;
#X obj 133 514 outlet~;
#X obj 151 536 outlet~;
#X obj 166 558 outlet~;
#X obj 183 580 outlet~;
#X obj 76 426 outlet~;
#X obj 118 492 outlet~;
#X obj 103 470 outlet~;
#X obj 89 448 outlet~;
#X obj 66 404 outlet~;
#X obj 52 382 outlet~;
#X obj 37 360 outlet~;
#X obj 26 338 outlet~;
#X obj 313 567 outlet~;
#X obj 687 173 route 1 3 5 7 9 11;
#X obj 403 178 route 1 3 5 7 9 11;
#X obj 400 150 route 0 2 4 6 8 10;
#X obj 335 485 +~;
#X obj 345 509 +~;
#X obj 313 438 +~;
#X obj 323 460 +~;
#X obj 355 530 +~;
#X obj 365 553 +~;
#X obj 324 589 outlet~;
#X obj 683 153 route 0 2 4 6 8 10;
#X text 485 23 parameter update message;
#X obj 485 40 inlet;
#X obj 429 504 *~ 0.1;
#X obj 417 481 *~ 0.1;
#X obj 408 458 *~ 0.1;
#X obj 396 435 *~ 0.1;
#X obj 385 413 *~ 0.1;
#X obj 375 390 *~ 0.1;
#X obj 364 366 *~ 0.1;
#X obj 354 344 *~ 0.1;
#X obj 344 321 *~ 0.1;
#X obj 334 298 *~ 0.1;
#X obj 322 275 *~ 0.1;
#X obj 312 252 *~ 0.1;
#X obj 355 664 outlet~;
#X obj 366 686 outlet~;
#X text 374 574 front;
#X text 409 670 rear;
#X obj 485 73 route delay damp;
#X obj 73 40 inlet~;
#X text 12 20 left source signal;
#X text 159 19 right source signal;
#X text 539 148 LEFT (even index);
#X text 535 177 RIGHT (odd index);
#X obj 335 614 outlet~;
#X obj 346 636 outlet~;
#X text 392 620 side;
#X obj 27 104 delwrite~ \$0_L1 \$1;
#X obj 74 128 delwrite~ \$0_R1 \$1;
#X obj 119 40 inlet~;
#X obj 166 42 inlet~;
#X obj 213 42 inlet~;
#X obj 260 44 inlet~;
#X obj 119 153 delwrite~ \$0_L2 \$1;
#X obj 167 177 delwrite~ \$0_R2 \$1;
#X obj 213 201 delwrite~ \$0_L3 \$1;
#X obj 261 225 delwrite~ \$0_R3 \$1;
#X obj 26 235 delread~ \$0_L1 100;
#X obj 36 258 delread~ \$0_R1 110;
#X obj 51 280 delread~ \$0_L1 120;
#X obj 65 304 delread~ \$0_R1 130;
#X obj 77 326 delread~ \$0_L2 140;
#X obj 90 348 delread~ \$0_R2 150;
#X obj 104 372 delread~ \$0_L2 160;
#X obj 119 395 delread~ \$0_R2 170;
#X obj 134 417 delread~ \$0_L3 180;
#X obj 151 440 delread~ \$0_R3 190;
#X obj 166 463 delread~ \$0_L3 200;
#X obj 184 488 delread~ \$0_R3 210;
#X text 531 52 1.arg: <float> max. early_delay_time in ms;
#X obj 691 89 unpack;
#X obj 691 130 pack;
#X text 757 108 12 / 6 = 2;
#X obj 722 110 * 2;
#X text 310 67 6 / 12 = 0.5;
#X obj 165 65 *~ 0.5;
#X obj 119 65 *~ 0.5;
#X obj 73 64 *~ 0.5;
#X obj 26 64 *~ 0.5;
#X obj 260 65 *~ 0.5;
#X obj 212 65 *~ 0.5;
#X connect 0 0 83 0;
#X connect 14 0 37 1;
#X connect 14 1 35 1;
#X connect 14 2 33 1;
#X connect 14 3 31 1;
#X connect 14 4 29 1;
#X connect 14 5 27 1;
#X connect 15 0 63 0;
#X connect 15 1 65 0;
#X connect 15 2 67 0;
#X connect 15 3 69 0;
#X connect 15 4 71 0;
#X connect 15 5 73 0;
#X connect 16 0 62 0;
#X connect 16 1 64 0;
#X connect 16 2 66 0;
#X connect 16 3 68 0;
#X connect 16 4 70 0;
#X connect 16 5 72 0;
#X connect 17 0 49 0;
#X connect 18 0 50 0;
#X connect 19 0 13 0;
#X connect 20 0 23 0;
#X connect 21 0 39 0;
#X connect 22 0 40 0;
#X connect 24 0 38 1;
#X connect 24 1 36 1;
#X connect 24 2 34 1;
#X connect 24 3 32 1;
#X connect 24 4 30 1;
#X connect 24 5 28 1;
#X connect 26 0 43 0;
#X connect 27 0 21 1;
#X connect 28 0 22 1;
#X connect 29 0 17 1;
#X connect 30 0 18 1;
#X connect 31 0 19 1;
#X connect 32 0 20 1;
#X connect 33 0 22 0;
#X connect 34 0 21 0;
#X connect 35 0 18 0;
#X connect 36 0 17 0;
#X connect 37 0 20 0;
#X connect 38 0 19 0;
#X connect 43 0 16 0;
#X connect 43 0 15 0;
#X connect 43 1 75 0;
#X connect 44 0 82 0;
#X connect 54 0 81 0;
#X connect 55 0 80 0;
#X connect 56 0 85 0;
#X connect 57 0 84 0;
#X connect 62 0 12 0;
#X connect 62 0 38 0;
#X connect 63 0 11 0;
#X connect 63 0 37 0;
#X connect 64 0 10 0;
#X connect 64 0 36 0;
#X connect 65 0 9 0;
#X connect 65 0 35 0;
#X connect 66 0 5 0;
#X connect 66 0 34 0;
#X connect 67 0 8 0;
#X connect 67 0 33 0;
#X connect 68 0 7 0;
#X connect 68 0 32 0;
#X connect 69 0 6 0;
#X connect 69 0 31 0;
#X connect 70 0 1 0;
#X connect 70 0 30 0;
#X connect 71 0 2 0;
#X connect 71 0 29 0;
#X connect 72 0 3 0;
#X connect 72 0 28 0;
#X connect 73 0 4 0;
#X connect 73 0 27 0;
#X connect 75 0 76 0;
#X connect 75 1 78 0;
#X connect 76 0 24 0;
#X connect 76 0 14 0;
#X connect 78 0 76 1;
#X connect 80 0 59 0;
#X connect 81 0 58 0;
#X connect 82 0 53 0;
#X connect 83 0 52 0;
#X connect 84 0 61 0;
#X connect 85 0 60 0;
