#N canvas 123 20 881 647 10;
#X obj 26 38 inlet~;
#X obj 131 465 outlet~;
#X obj 149 487 outlet~;
#X obj 164 509 outlet~;
#X obj 181 531 outlet~;
#X obj 74 377 outlet~;
#X obj 116 443 outlet~;
#X obj 101 421 outlet~;
#X obj 87 399 outlet~;
#X obj 64 355 outlet~;
#X obj 50 333 outlet~;
#X obj 35 311 outlet~;
#X obj 24 289 outlet~;
#X obj 561 811 outlet~;
#X obj 561 308 +~;
#X obj 571 331 +~;
#X obj 581 353 +~;
#X obj 591 377 +~;
#X obj 561 578 +~;
#X obj 571 600 +~;
#X obj 581 624 +~;
#X obj 591 647 +~;
#X obj 572 833 outlet~;
#X text 366 25 parameter update message;
#X obj 366 42 inlet;
#X obj 678 465 *~ 0.1;
#X obj 666 442 *~ 0.1;
#X obj 657 419 *~ 0.1;
#X obj 645 396 *~ 0.1;
#X obj 634 374 *~ 0.1;
#X obj 624 351 *~ 0.1;
#X obj 613 327 *~ 0.1;
#X obj 603 305 *~ 0.1;
#X obj 593 282 *~ 0.1;
#X obj 583 259 *~ 0.1;
#X obj 571 236 *~ 0.1;
#X obj 561 213 *~ 0.1;
#X obj 581 861 outlet~;
#X obj 592 883 outlet~;
#X text 613 813 front;
#X text 635 864 rear;
#X obj 366 75 route delay damp;
#X obj 24 162 delwrite~ \$0_L \$1;
#X obj 157 38 inlet~;
#X text 12 20 left source signal;
#X text 159 19 right source signal;
#X obj 156 160 delwrite~ \$0_R \$1;
#X text 520 106 LEFT (even index);
#X text 518 134 RIGHT (odd index);
#X obj 285 695 outlet~;
#X obj 303 717 outlet~;
#X obj 228 607 outlet~;
#X obj 270 673 outlet~;
#X obj 255 651 outlet~;
#X obj 241 629 outlet~;
#X obj 218 585 outlet~;
#X obj 204 563 outlet~;
#X obj 765 646 *~ 0.1;
#X obj 753 623 *~ 0.1;
#X obj 744 600 *~ 0.1;
#X obj 732 577 *~ 0.1;
#X obj 721 555 *~ 0.1;
#X obj 711 532 *~ 0.1;
#X obj 700 508 *~ 0.1;
#X obj 690 486 *~ 0.1;
#X obj 562 488 +~;
#X obj 572 510 +~;
#X obj 582 534 +~;
#X obj 592 557 +~;
#X obj 562 398 +~;
#X obj 572 420 +~;
#X obj 582 445 +~;
#X obj 592 468 +~;
#X obj 24 186 delread~ \$0_L 100;
#X obj 34 209 delread~ \$0_R 110;
#X obj 49 231 delread~ \$0_L 120;
#X obj 63 255 delread~ \$0_R 130;
#X obj 75 277 delread~ \$0_L 140;
#X obj 88 299 delread~ \$0_R 150;
#X obj 102 323 delread~ \$0_L 160;
#X obj 117 346 delread~ \$0_R 170;
#X obj 132 368 delread~ \$0_L 180;
#X obj 149 391 delread~ \$0_R 190;
#X obj 164 414 delread~ \$0_L 200;
#X obj 182 439 delread~ \$0_R 210;
#X obj 203 461 delread~ \$0_L 220;
#X obj 217 485 delread~ \$0_R 230;
#X obj 229 507 delread~ \$0_L 240;
#X obj 242 529 delread~ \$0_R 250;
#X obj 256 553 delread~ \$0_L 260;
#X obj 271 575 delread~ \$0_R 270;
#X obj 286 598 delread~ \$0_L 280;
#X obj 303 621 delread~ \$0_R 290;
#X obj 250 108 route 0 2 4 6 8 10 12 14 16 18 20 22;
#X obj 253 136 route 1 3 5 7 9 11 13 15 17 19 21 23;
#X obj 651 180 route 0 2 4 6 8 10 12 14 16 18 20 22;
#X obj 655 200 route 1 3 5 7 9 11 13 15 17 19 21 23;
#X obj 346 785 outlet~;
#X obj 364 807 outlet~;
#X obj 331 763 outlet~;
#X obj 316 741 outlet~;
#X obj 317 643 delread~ \$0_L 300;
#X obj 332 665 delread~ \$0_R 310;
#X obj 347 688 delread~ \$0_L 320;
#X obj 364 711 delread~ \$0_R 330;
#X obj 812 739 *~ 0.1;
#X obj 799 716 *~ 0.1;
#X obj 790 693 *~ 0.1;
#X obj 778 670 *~ 0.1;
#X obj 560 691 +~;
#X obj 570 713 +~;
#X obj 580 737 +~;
#X obj 590 760 +~;
#X text 423 50 1.arg: <float> max. early_delay_time in ms;
#X obj 663 107 unpack;
#X obj 663 148 pack;
#X text 235 70 2 / 24 = 0.083333;
#X obj 157 71 *~ 0.0833333;
#X text 728 136 24 / 2 = 12;
#X obj 694 136 * 12;
#X obj 26 71 *~ 0.0833333;
#X connect 0 0 120 0;
#X connect 14 0 69 0;
#X connect 15 0 70 0;
#X connect 16 0 71 0;
#X connect 17 0 72 0;
#X connect 18 0 109 0;
#X connect 19 0 110 0;
#X connect 20 0 111 0;
#X connect 21 0 112 0;
#X connect 24 0 41 0;
#X connect 25 0 71 1;
#X connect 26 0 72 1;
#X connect 27 0 69 1;
#X connect 28 0 70 1;
#X connect 29 0 17 1;
#X connect 30 0 16 1;
#X connect 31 0 17 0;
#X connect 32 0 16 0;
#X connect 33 0 15 1;
#X connect 34 0 14 1;
#X connect 35 0 15 0;
#X connect 36 0 14 0;
#X connect 41 0 93 0;
#X connect 41 0 94 0;
#X connect 41 1 114 0;
#X connect 43 0 117 0;
#X connect 57 0 21 1;
#X connect 58 0 20 1;
#X connect 59 0 19 1;
#X connect 60 0 18 1;
#X connect 61 0 68 1;
#X connect 62 0 67 1;
#X connect 63 0 66 1;
#X connect 64 0 65 1;
#X connect 65 0 18 0;
#X connect 66 0 19 0;
#X connect 67 0 20 0;
#X connect 68 0 21 0;
#X connect 69 0 65 0;
#X connect 70 0 66 0;
#X connect 71 0 67 0;
#X connect 72 0 68 0;
#X connect 73 0 12 0;
#X connect 73 0 36 0;
#X connect 74 0 11 0;
#X connect 74 0 35 0;
#X connect 75 0 10 0;
#X connect 75 0 34 0;
#X connect 76 0 9 0;
#X connect 76 0 33 0;
#X connect 77 0 5 0;
#X connect 77 0 32 0;
#X connect 78 0 8 0;
#X connect 78 0 31 0;
#X connect 79 0 7 0;
#X connect 79 0 30 0;
#X connect 80 0 6 0;
#X connect 80 0 29 0;
#X connect 81 0 1 0;
#X connect 81 0 28 0;
#X connect 82 0 2 0;
#X connect 82 0 27 0;
#X connect 83 0 3 0;
#X connect 83 0 26 0;
#X connect 84 0 4 0;
#X connect 84 0 25 0;
#X connect 85 0 56 0;
#X connect 85 0 64 0;
#X connect 86 0 55 0;
#X connect 86 0 63 0;
#X connect 87 0 51 0;
#X connect 87 0 62 0;
#X connect 88 0 54 0;
#X connect 88 0 61 0;
#X connect 89 0 53 0;
#X connect 89 0 60 0;
#X connect 90 0 52 0;
#X connect 90 0 59 0;
#X connect 91 0 49 0;
#X connect 91 0 58 0;
#X connect 92 0 50 0;
#X connect 92 0 57 0;
#X connect 93 0 73 0;
#X connect 93 1 75 0;
#X connect 93 2 77 0;
#X connect 93 3 79 0;
#X connect 93 4 81 0;
#X connect 93 5 83 0;
#X connect 93 6 85 0;
#X connect 93 7 87 0;
#X connect 93 8 89 0;
#X connect 93 9 91 0;
#X connect 93 10 101 0;
#X connect 93 11 103 0;
#X connect 94 0 74 0;
#X connect 94 1 76 0;
#X connect 94 2 78 0;
#X connect 94 3 80 0;
#X connect 94 4 82 0;
#X connect 94 5 84 0;
#X connect 94 6 86 0;
#X connect 94 7 88 0;
#X connect 94 8 90 0;
#X connect 94 9 92 0;
#X connect 94 10 102 0;
#X connect 94 11 104 0;
#X connect 95 0 36 1;
#X connect 95 1 34 1;
#X connect 95 2 32 1;
#X connect 95 3 30 1;
#X connect 95 4 28 1;
#X connect 95 5 26 1;
#X connect 95 6 64 1;
#X connect 95 7 62 1;
#X connect 95 8 60 1;
#X connect 95 9 58 1;
#X connect 95 10 108 1;
#X connect 95 11 106 1;
#X connect 96 0 35 1;
#X connect 96 1 33 1;
#X connect 96 2 31 1;
#X connect 96 3 29 1;
#X connect 96 4 27 1;
#X connect 96 5 25 1;
#X connect 96 6 63 1;
#X connect 96 7 61 1;
#X connect 96 8 59 1;
#X connect 96 9 57 1;
#X connect 96 10 107 1;
#X connect 96 11 105 1;
#X connect 101 0 100 0;
#X connect 101 0 108 0;
#X connect 102 0 99 0;
#X connect 102 0 107 0;
#X connect 103 0 97 0;
#X connect 103 0 106 0;
#X connect 104 0 98 0;
#X connect 104 0 105 0;
#X connect 105 0 111 1;
#X connect 106 0 112 1;
#X connect 107 0 109 1;
#X connect 108 0 110 1;
#X connect 109 0 13 0;
#X connect 110 0 22 0;
#X connect 111 0 37 0;
#X connect 112 0 38 0;
#X connect 114 0 115 0;
#X connect 114 1 119 0;
#X connect 115 0 95 0;
#X connect 115 0 96 0;
#X connect 117 0 46 0;
#X connect 119 0 115 1;
#X connect 120 0 42 0;
