#N canvas 115 20 893 659 10;
#X obj 26 38 inlet~;
#X obj 131 465 outlet~;
#X obj 149 487 outlet~;
#X obj 164 509 outlet~;
#X obj 181 531 outlet~;
#X obj 74 377 outlet~;
#X obj 116 443 outlet~;
#X obj 101 421 outlet~;
#X obj 87 399 outlet~;
#X obj 64 355 outlet~;
#X obj 50 333 outlet~;
#X obj 35 311 outlet~;
#X obj 24 289 outlet~;
#X obj 562 725 outlet~;
#X obj 561 308 +~;
#X obj 571 331 +~;
#X obj 581 353 +~;
#X obj 591 377 +~;
#X obj 562 577 +~;
#X obj 572 599 +~;
#X obj 582 623 +~;
#X obj 592 646 +~;
#X text 366 25 parameter update message;
#X obj 366 42 inlet;
#X obj 678 465 *~ 0.1;
#X obj 666 442 *~ 0.1;
#X obj 657 419 *~ 0.1;
#X obj 645 396 *~ 0.1;
#X obj 634 374 *~ 0.1;
#X obj 624 351 *~ 0.1;
#X obj 613 327 *~ 0.1;
#X obj 603 305 *~ 0.1;
#X obj 593 282 *~ 0.1;
#X obj 583 259 *~ 0.1;
#X obj 571 236 *~ 0.1;
#X obj 561 213 *~ 0.1;
#X text 589 701 front;
#X obj 366 75 route delay damp;
#X obj 24 162 delwrite~ \$0_L \$1;
#X text 469 103 LEFT (even index);
#X text 467 131 RIGHT (odd index);
#X obj 285 695 outlet~;
#X obj 303 717 outlet~;
#X obj 228 607 outlet~;
#X obj 270 673 outlet~;
#X obj 255 651 outlet~;
#X obj 241 629 outlet~;
#X obj 218 585 outlet~;
#X obj 204 563 outlet~;
#X obj 279 103 route 0 2 4 6 8 10 12 14 16 18;
#X obj 282 131 route 1 3 5 7 9 11 13 15 17 19;
#X obj 765 646 *~ 0.1;
#X obj 753 623 *~ 0.1;
#X obj 744 600 *~ 0.1;
#X obj 732 577 *~ 0.1;
#X obj 721 555 *~ 0.1;
#X obj 711 532 *~ 0.1;
#X obj 700 508 *~ 0.1;
#X obj 690 486 *~ 0.1;
#X obj 562 487 +~;
#X obj 572 509 +~;
#X obj 582 533 +~;
#X obj 592 556 +~;
#X obj 562 397 +~;
#X obj 572 419 +~;
#X obj 582 444 +~;
#X obj 592 467 +~;
#X obj 619 177 route 0 2 4 6 8 10 12 14 16 18;
#X obj 623 197 route 1 3 5 7 9 11 13 15 17 19;
#X obj 24 186 delread~ \$0_L 100;
#X obj 34 209 delread~ \$0_L 110;
#X obj 49 231 delread~ \$0_L 120;
#X obj 63 255 delread~ \$0_L 130;
#X obj 75 277 delread~ \$0_L 140;
#X obj 88 299 delread~ \$0_L 150;
#X obj 102 323 delread~ \$0_L 160;
#X obj 117 346 delread~ \$0_L 170;
#X obj 132 368 delread~ \$0_L 180;
#X obj 149 391 delread~ \$0_L 190;
#X obj 164 414 delread~ \$0_L 200;
#X obj 182 439 delread~ \$0_L 210;
#X obj 203 461 delread~ \$0_L 220;
#X obj 217 485 delread~ \$0_L 230;
#X obj 229 507 delread~ \$0_L 240;
#X obj 242 529 delread~ \$0_L 250;
#X obj 256 553 delread~ \$0_L 260;
#X obj 271 575 delread~ \$0_L 270;
#X obj 286 598 delread~ \$0_L 280;
#X obj 303 621 delread~ \$0_L 290;
#X text 411 51 1.arg: <float> max. early_delay_time in ms;
#X obj 562 655 +~;
#X obj 572 678 +~;
#X obj 645 110 unpack;
#X obj 645 151 pack;
#X text 70 82 2 / 20 = 0.1;
#X obj 676 132 * 10;
#X text 712 131 20 / 2 = 10;
#X obj 26 80 *~ 0.1;
#X text 18 21 source signal;
#X obj 562 701 +~;
#X connect 0 0 97 0;
#X connect 14 0 63 0;
#X connect 15 0 64 0;
#X connect 16 0 65 0;
#X connect 17 0 66 0;
#X connect 18 0 90 0;
#X connect 19 0 91 0;
#X connect 20 0 90 1;
#X connect 21 0 91 1;
#X connect 23 0 37 0;
#X connect 24 0 65 1;
#X connect 25 0 66 1;
#X connect 26 0 63 1;
#X connect 27 0 64 1;
#X connect 28 0 17 1;
#X connect 29 0 16 1;
#X connect 30 0 17 0;
#X connect 31 0 16 0;
#X connect 32 0 15 1;
#X connect 33 0 14 1;
#X connect 34 0 15 0;
#X connect 35 0 14 0;
#X connect 37 0 49 0;
#X connect 37 0 50 0;
#X connect 37 1 92 0;
#X connect 49 0 69 0;
#X connect 49 1 71 0;
#X connect 49 2 73 0;
#X connect 49 3 75 0;
#X connect 49 4 77 0;
#X connect 49 5 79 0;
#X connect 49 6 81 0;
#X connect 49 7 83 0;
#X connect 49 8 85 0;
#X connect 49 9 87 0;
#X connect 50 0 70 0;
#X connect 50 1 72 0;
#X connect 50 2 74 0;
#X connect 50 3 76 0;
#X connect 50 4 78 0;
#X connect 50 5 80 0;
#X connect 50 6 82 0;
#X connect 50 7 84 0;
#X connect 50 8 86 0;
#X connect 50 9 88 0;
#X connect 51 0 20 1;
#X connect 52 0 21 1;
#X connect 53 0 18 1;
#X connect 54 0 19 1;
#X connect 55 0 62 1;
#X connect 56 0 61 1;
#X connect 57 0 60 1;
#X connect 58 0 59 1;
#X connect 59 0 18 0;
#X connect 60 0 19 0;
#X connect 61 0 20 0;
#X connect 62 0 21 0;
#X connect 63 0 59 0;
#X connect 64 0 60 0;
#X connect 65 0 61 0;
#X connect 66 0 62 0;
#X connect 67 0 35 1;
#X connect 67 1 33 1;
#X connect 67 2 31 1;
#X connect 67 3 29 1;
#X connect 67 4 27 1;
#X connect 67 5 25 1;
#X connect 67 6 58 1;
#X connect 67 7 56 1;
#X connect 67 8 54 1;
#X connect 67 9 52 1;
#X connect 68 0 34 1;
#X connect 68 1 32 1;
#X connect 68 2 30 1;
#X connect 68 3 28 1;
#X connect 68 4 26 1;
#X connect 68 5 24 1;
#X connect 68 6 57 1;
#X connect 68 7 55 1;
#X connect 68 8 53 1;
#X connect 68 9 51 1;
#X connect 69 0 12 0;
#X connect 69 0 35 0;
#X connect 70 0 11 0;
#X connect 70 0 34 0;
#X connect 71 0 10 0;
#X connect 71 0 33 0;
#X connect 72 0 9 0;
#X connect 72 0 32 0;
#X connect 73 0 5 0;
#X connect 73 0 31 0;
#X connect 74 0 8 0;
#X connect 74 0 30 0;
#X connect 75 0 7 0;
#X connect 75 0 29 0;
#X connect 76 0 6 0;
#X connect 76 0 28 0;
#X connect 77 0 1 0;
#X connect 77 0 27 0;
#X connect 78 0 2 0;
#X connect 78 0 26 0;
#X connect 79 0 3 0;
#X connect 79 0 25 0;
#X connect 80 0 4 0;
#X connect 80 0 24 0;
#X connect 81 0 48 0;
#X connect 81 0 58 0;
#X connect 82 0 47 0;
#X connect 82 0 57 0;
#X connect 83 0 43 0;
#X connect 83 0 56 0;
#X connect 84 0 46 0;
#X connect 84 0 55 0;
#X connect 85 0 45 0;
#X connect 85 0 54 0;
#X connect 86 0 44 0;
#X connect 86 0 53 0;
#X connect 87 0 41 0;
#X connect 87 0 52 0;
#X connect 88 0 42 0;
#X connect 88 0 51 0;
#X connect 90 0 99 0;
#X connect 91 0 99 1;
#X connect 92 0 93 0;
#X connect 92 1 95 0;
#X connect 93 0 67 0;
#X connect 93 0 68 0;
#X connect 95 0 93 1;
#X connect 97 0 38 0;
#X connect 99 0 13 0;
