#N canvas 207 183 658 468 10;
#X obj 32 48 inlet~;
#X obj 77 261 outlet~;
#X obj 30 261 outlet~;
#X obj 399 78 inlet;
#X obj 173 261 outlet~;
#X obj 125 261 outlet~;
#X text 58 277 front;
#X text 158 277 rear;
#X obj 178 47 inlet~;
#X obj 32 120 hp1~ 7;
#X obj 179 117 hp1~ 7;
#X text 399 61 open_close_EDIT;
#X obj 447 109 inlet;
#X text 450 90 preset filename;
#X obj 447 265 outlet;
#X obj 348 56 inlet;
#X obj 281 262 outlet~;
#X obj 234 262 outlet~;
#X obj 377 262 outlet~;
#X obj 329 262 outlet~;
#X text 262 278 front;
#X text 362 278 rear;
#X text 70 290 early;
#X text 308 297 reverb;
#X text 348 39 recall store;
#X text 17 345 1.arg: <float> reverb-order (6 \, 8 \, 12 \, 20 \, 24)
;
#X text 17 371 3.arg: <float/sym> performance of feedback-delays;
#X text 319 371 (0 \, stat \, dyn) default: 0 = stat;
#X text 17 358 2.arg: <float/sym> performance of feedback-matrix;
#X text 319 358 (0 \, ++ \, +++ \, ++++) default: 0 = ++;
#X obj 359 138 room_EDIT \$1;
#X obj 31 195 \$1reverb_2_4_4~ \$2 \$3 ____________________________
;
#X connect 0 0 9 0;
#X connect 3 0 30 1;
#X connect 8 0 10 0;
#X connect 9 0 31 0;
#X connect 10 0 31 1;
#X connect 12 0 30 2;
#X connect 15 0 30 0;
#X connect 30 0 31 2;
#X connect 30 1 14 0;
#X connect 31 0 2 0;
#X connect 31 1 1 0;
#X connect 31 2 5 0;
#X connect 31 3 4 0;
#X connect 31 4 17 0;
#X connect 31 5 16 0;
#X connect 31 6 19 0;
#X connect 31 7 18 0;
