#N canvas 108 122 874 540 10;
#X obj 106 58 inlet~;
#X obj 74 264 outlet~;
#X obj 27 264 outlet~;
#X obj 528 83 inlet;
#X obj 265 264 outlet~;
#X obj 217 264 outlet~;
#X text 55 280 front;
#X text 250 280 rear;
#X obj 148 58 inlet~;
#X obj 106 130 hp1~ 7;
#X obj 149 130 hp1~ 7;
#X text 504 64 open_close_EDIT;
#X obj 571 128 inlet;
#X text 572 109 preset filename;
#X obj 614 266 outlet;
#X obj 169 264 outlet~;
#X obj 122 264 outlet~;
#X text 154 279 side;
#X obj 364 265 outlet~;
#X obj 317 265 outlet~;
#X obj 555 265 outlet~;
#X obj 507 265 outlet~;
#X text 345 281 front;
#X text 540 281 rear;
#X obj 459 265 outlet~;
#X obj 412 265 outlet~;
#X text 444 280 side;
#X text 135 300 early echoes;
#X text 429 307 late reverb;
#X obj 189 58 inlet~;
#X obj 231 58 inlet~;
#X obj 189 130 hp1~ 7;
#X obj 232 130 hp1~ 7;
#X obj 272 58 inlet~;
#X obj 314 58 inlet~;
#X obj 272 130 hp1~ 7;
#X obj 315 130 hp1~ 7;
#X obj 430 61 inlet;
#X text 427 42 recall store;
#X obj 486 160 room_EDIT \$1;
#X text 31 336 1.arg: <float> reverb-order (6 \, 8 \, 12 \, 20 \, 24)
;
#X text 31 362 3.arg: <float/sym> performance of feedback-delays;
#X text 333 362 (0 \, stat \, dyn) default: 0 = stat;
#X text 31 349 2.arg: <float/sym> performance of feedback-matrix;
#X text 333 349 (0 \, ++ \, +++ \, ++++) default: 0 = ++;
#X obj 106 204 \$1reverb_6_6_6~ \$2 \$3 _____________________________________
;
#X connect 0 0 9 0;
#X connect 3 0 39 1;
#X connect 8 0 10 0;
#X connect 9 0 45 0;
#X connect 10 0 45 1;
#X connect 12 0 39 2;
#X connect 29 0 31 0;
#X connect 30 0 32 0;
#X connect 31 0 45 2;
#X connect 32 0 45 3;
#X connect 33 0 35 0;
#X connect 34 0 36 0;
#X connect 35 0 45 4;
#X connect 36 0 45 5;
#X connect 37 0 39 0;
#X connect 39 0 45 6;
#X connect 39 1 14 0;
#X connect 45 0 2 0;
#X connect 45 1 1 0;
#X connect 45 2 16 0;
#X connect 45 3 15 0;
#X connect 45 4 5 0;
#X connect 45 5 4 0;
#X connect 45 6 19 0;
#X connect 45 7 18 0;
#X connect 45 8 25 0;
#X connect 45 9 24 0;
#X connect 45 10 21 0;
#X connect 45 11 20 0;
