#N canvas 162 163 608 439 10;
#X obj 32 51 inlet~;
#X obj 77 264 outlet~;
#X obj 30 264 outlet~;
#X obj 173 264 outlet~;
#X obj 125 264 outlet~;
#X text 63 287 front;
#X text 158 285 rear;
#X obj 111 56 inlet~;
#X obj 32 122 hp1~ 7;
#X obj 112 126 hp1~ 7;
#X obj 407 264 outlet;
#X obj 193 57 inlet~;
#X obj 272 57 inlet~;
#X obj 193 127 hp1~ 7;
#X obj 273 125 hp1~ 7;
#X obj 265 264 outlet~;
#X obj 218 264 outlet~;
#X obj 361 264 outlet~;
#X obj 313 264 outlet~;
#X obj 423 72 inlet;
#X text 423 55 open_close_EDIT;
#X obj 443 109 inlet;
#X text 446 90 preset filename;
#X obj 364 59 inlet;
#X text 364 42 recall store;
#X text 253 289 front;
#X text 348 287 rear;
#X text 109 305 early;
#X text 297 308 reverb;
#X obj 356 142 room_EDIT \$1;
#X text 33 335 1.arg: <float> reverb-order (6 \, 8 \, 12 \, 20 \, 24)
;
#X text 33 361 3.arg: <float/sym> performance of feedback-delays;
#X text 335 361 (0 \, stat \, dyn) default: 0 = stat;
#X text 33 348 2.arg: <float/sym> performance of feedback-matrix;
#X text 335 348 (0 \, ++ \, +++ \, ++++) default: 0 = ++;
#X obj 31 198 \$1reverb_4_4_4~ \$2 \$3 _________________________________
;
#X connect 0 0 8 0;
#X connect 7 0 9 0;
#X connect 8 0 35 0;
#X connect 9 0 35 1;
#X connect 11 0 13 0;
#X connect 12 0 14 0;
#X connect 13 0 35 2;
#X connect 14 0 35 3;
#X connect 19 0 29 1;
#X connect 21 0 29 2;
#X connect 23 0 29 0;
#X connect 29 0 35 4;
#X connect 29 1 10 0;
#X connect 35 0 2 0;
#X connect 35 1 1 0;
#X connect 35 2 4 0;
#X connect 35 3 3 0;
#X connect 35 4 16 0;
#X connect 35 5 15 0;
#X connect 35 6 18 0;
#X connect 35 7 17 0;
