#N canvas 194 230 324 447 10;
#X obj 62 20 inlet doit;
#X obj 62 43 t l l b;
#X obj 85 294 t a;
#N canvas 563 172 1069 640 generator 0;
#X obj 330 27 inlet;
#X obj 257 599 outlet;
#X obj 280 331 + 150;
#X obj 257 215 until;
#X obj 257 238 i;
#X msg 312 218 0;
#X obj 285 238 + 1;
#X obj 304 360 + 1;
#X obj 280 310 * 25;
#X obj 257 539 t a;
#N canvas 0 0 650 603 pack 0;
#X obj 111 52 inlet;
#X obj 111 524 outlet;
#X obj 111 194 dollsym 0;
#X obj 111 95 t b f;
#X obj 248 263 repack;
#X obj 248 220 until;
#X msg 248 240 0;
#X obj 248 199 t f f;
#X obj 248 286 list prepend obj 100 125 pack;
#X msg 111 417 obj 100 100 r \$1-bang \, obj 100 150 route 0 \, obj
100 175 outlet \, connect 1 0 0 0 \, connect 0 0 2 0 \, connect 2 0
3 0;
#X obj 111 484 t a a;
#X obj 248 310 list trim;
#X obj 248 176 + 1;
#X connect 0 0 3 0;
#X connect 2 0 9 0;
#X connect 3 0 2 0;
#X connect 3 1 12 0;
#X connect 4 0 8 0;
#X connect 5 0 6 0;
#X connect 6 0 4 0;
#X connect 7 0 5 0;
#X connect 7 1 4 1;
#X connect 8 0 11 0;
#X connect 9 0 10 0;
#X connect 10 0 1 0;
#X connect 11 0 10 0;
#X connect 12 0 7 0;
#X restore 475 195 pd pack;
#X obj 330 58 t l l b;
#X obj 475 171 +;
#X obj 379 459 dollsym 0;
#X obj 337 360 + 4;
#X obj 257 259 t f f f f;
#X obj 152 105 swap;
#X obj 257 393 symbol BUS;
#X obj 322 178 t b b;
#X msg 354 216 symbol BUS;
#X obj 96 154 t f b;
#X msg 128 233 symbol LFC;
#X obj 257 287 t b;
#X obj 257 460 pack s 0 0 0 0 s;
#X obj 305 416 t f f;
#X msg 257 511 obj 200 \$2 r_gainparm /OUT/\$1/\$5/GAIN \$6 \, connect
\$4 0 0 \$3;
#X obj 344 439 -;
#X obj 151 205 f;
#X obj 257 190 t f f;
#X obj 257 485 t l l;
#X floatatom 184 210 5 0 0 0 - - -;
#X connect 0 0 11 0;
#X connect 2 0 23 1;
#X connect 3 0 4 0;
#X connect 4 0 6 0;
#X connect 4 0 15 0;
#X connect 5 0 4 1;
#X connect 5 0 26 1;
#X connect 6 0 4 1;
#X connect 7 0 24 0;
#X connect 8 0 2 0;
#X connect 9 0 1 0;
#X connect 10 0 1 0;
#X connect 11 0 16 0;
#X connect 11 1 12 0;
#X connect 11 2 13 0;
#X connect 12 0 10 0;
#X connect 13 0 23 5;
#X connect 14 0 23 3;
#X connect 15 0 22 0;
#X connect 15 1 8 0;
#X connect 15 2 7 0;
#X connect 15 3 14 0;
#X connect 16 0 20 0;
#X connect 16 1 28 0;
#X connect 17 0 23 0;
#X connect 18 0 5 0;
#X connect 18 1 19 0;
#X connect 19 0 17 1;
#X connect 20 0 3 0;
#X connect 20 1 21 0;
#X connect 20 1 27 0;
#X connect 21 0 17 1;
#X connect 22 0 17 0;
#X connect 23 0 29 0;
#X connect 24 0 23 2;
#X connect 24 1 26 0;
#X connect 25 0 9 0;
#X connect 26 0 23 4;
#X connect 27 0 30 0;
#X connect 27 0 26 1;
#X connect 28 0 3 0;
#X connect 28 1 18 0;
#X connect 28 1 27 1;
#X connect 29 0 25 0;
#X restore 85 236 pd generator;
#X msg 108 136 reset;
#X obj 85 326 patchwriter \$1;
#X msg 148 17 16 2;
#X obj 85 173 t l;
#X msg 62 68 symbol OUT/BUS/\$1_\$2_gainpack;
#X connect 0 0 1 0;
#X connect 1 0 8 0;
#X connect 1 1 7 0;
#X connect 1 2 4 0;
#X connect 2 0 5 0;
#X connect 3 0 2 0;
#X connect 4 0 5 1;
#X connect 6 0 1 0;
#X connect 7 0 3 0;
#X connect 8 0 5 1;
