#N canvas 86 395 640 447 10;
#X obj 62 43 t l l b;
#N canvas 481 375 749 371 generator 0;
#X obj 68 29 inlet;
#X obj 68 339 outlet;
#X obj 68 161 t l l l;
#X obj 68 312 t a;
#X text 127 29 #type #dim #order;
#X obj 90 114 calc_ambichans;
#X obj 68 134 pack s 0 0 0 s;
#X obj 68 52 t l l b;
#X obj 240 99 dollsym 1;
#X msg 90 94 list \$1 \$3;
#N canvas 720 349 542 543 ambibus 0;
#X obj 90 23 inlet;
#X obj 90 425 outlet;
#X msg 90 49 \$4;
#X obj 90 102 until;
#X obj 90 125 i;
#X msg 133 104 0;
#X obj 118 125 + 1;
#X obj 113 237 * 25;
#X obj 90 77 t f b b;
#X obj 90 146 t f f f;
#X obj 113 216 % 24;
#X obj 73 196 / 24;
#X obj 73 218 i;
#X obj 73 259 + 100;
#X obj 171 126 dollsym 0;
#X obj 157 283 + 1;
#X obj 73 238 * 200;
#X obj 113 258 + 300;
#X obj 90 309 pack 0 0 0 s 0 0;
#X obj 157 243 t f f f;
#X msg 90 329 obj \$1 \$2 AMBI/throwbus~ \$4 \$3 \, connect 8 \$5 \$6
0;
#X obj 203 272 + 9;
#X connect 0 0 2 0;
#X connect 2 0 8 0;
#X connect 3 0 4 0;
#X connect 4 0 6 0;
#X connect 4 0 9 0;
#X connect 5 0 4 1;
#X connect 6 0 4 1;
#X connect 7 0 17 0;
#X connect 8 0 3 0;
#X connect 8 1 5 0;
#X connect 8 2 14 0;
#X connect 9 0 11 0;
#X connect 9 1 10 0;
#X connect 9 2 19 0;
#X connect 10 0 7 0;
#X connect 11 0 12 0;
#X connect 12 0 16 0;
#X connect 13 0 18 0;
#X connect 14 0 18 3;
#X connect 15 0 18 2;
#X connect 16 0 13 0;
#X connect 17 0 18 1;
#X connect 18 0 20 0;
#X connect 19 0 15 0;
#X connect 19 1 18 4;
#X connect 19 2 21 0;
#X connect 20 0 1 0;
#X connect 21 0 18 5;
#X restore 68 270 pd ambibus;
#X msg 91 231 connect 6 0 7 0 \, connect 7 0 8 0 \, connect 3 0 8 1
\, connect 5 0 8 2;
#X msg 163 181 obj 100 200 ambiencoder_control \$5 \, obj 100 225 \$1\$2D_encode
\$3 \, obj 100 250 mtx_*~ \$4 1 50 _____________________;
#X connect 0 0 7 0;
#X connect 2 0 10 0;
#X connect 2 1 11 0;
#X connect 2 2 12 0;
#X connect 3 0 1 0;
#X connect 5 0 6 3;
#X connect 6 0 2 0;
#X connect 7 0 6 0;
#X connect 7 1 9 0;
#X connect 7 2 8 0;
#X connect 8 0 6 4;
#X connect 9 0 5 0;
#X connect 10 0 3 0;
#X connect 11 0 3 0;
#X connect 12 0 3 0;
#X restore 85 236 pd generator;
#X msg 108 136 reset;
#N canvas 350 88 765 319 generic 0;
#X obj 76 44 inlet;
#X obj 76 258 outlet;
#X obj 76 76 t b b b;
#X obj 99 135 dollsym 0;
#X obj 76 223 t a;
#X msg 99 154 obj 100 130 onoff_switch \$1 \, obj 250 130 switch~ \,
obj 350 130 r DSP_MIX_INTERPOL_TIME;
#X msg 76 188 connect 0 0 3 0 \, connect 1 0 3 1 \, connect 3 1 4 0
;
#X msg 122 113 obj 100 100 inlet~ \, obj 202 100 inlet \, obj 300 100
outlet~;
#X connect 0 0 2 0;
#X connect 2 0 6 0;
#X connect 2 1 3 0;
#X connect 2 2 7 0;
#X connect 3 0 5 0;
#X connect 4 0 1 0;
#X connect 5 0 4 0;
#X connect 6 0 4 0;
#X connect 7 0 4 0;
#X restore 117 201 pd generic;
#X obj 85 173 t l b;
#X obj 62 20 inlet #type #dim #order;
#X msg 62 68 symbol AMBI/\$1\$2D\$3O_ENCODER~;
#X obj 85 294 t a;
#X msg 239 19 list circ 2 4;
#X obj 85 326 patchwriter \$1;
#X connect 0 0 6 0;
#X connect 0 1 4 0;
#X connect 0 2 2 0;
#X connect 1 0 7 0;
#X connect 2 0 9 1;
#X connect 3 0 7 0;
#X connect 4 0 1 0;
#X connect 4 1 3 0;
#X connect 5 0 0 0;
#X connect 6 0 9 1;
#X connect 7 0 9 0;
#X connect 8 0 0 0;
