#N canvas 64 366 445 447 10;
#X obj 62 43 t l l b;
#X obj 85 294 t a;
#N canvas 617 0 749 371 generator 0;
#X obj 281 319 outlet;
#X obj 258 150 t l l l;
#X obj 281 272 t a;
#N canvas 157 317 759 595 simple 0;
#X obj 58 449 outlet;
#X obj 58 423 t a;
#X msg 58 384 connect \$1 \$2 \$3 \$4;
#N canvas 0 0 450 300 multiline~ 0;
#X obj 129 252 outlet;
#X obj 129 36 inlet type #dim #order #chans #dacs;
#X msg 129 66 \$5;
#X obj 129 192 repack;
#X obj 129 90 t b f f;
#X obj 191 109 + 1;
#X msg 129 166 50;
#X obj 144 114 until;
#X msg 144 137 0;
#X obj 129 221 list prepend obj 200 450 multiline~;
#X connect 1 0 2 0;
#X connect 2 0 4 0;
#X connect 3 0 9 0;
#X connect 4 0 6 0;
#X connect 4 1 7 0;
#X connect 4 2 5 0;
#X connect 5 0 3 1;
#X connect 6 0 3 0;
#X connect 7 0 8 0;
#X connect 8 0 3 0;
#X connect 9 0 0 0;
#X restore 113 202 pd multiline~;
#X obj 44 324 pack 0 0 0;
#X obj 111 303 + 1;
#X obj 77 283 t f f;
#X msg 58 346 2 0 7 0 \, 3 0 7 1 \, 4 0 7 2 \, 5 0 7 3 \, 7 0 9 0 \,
7 1 8 \$1 \, 7 2 10 \$2 \, 7 3 10 \$3 \, 7 4 6 0;
#X obj 90 36 inlet type #dim #order #chans #dacs;
#X obj 90 117 t l l l;
#X obj 44 205 unpack;
#X msg 44 183 \$4 \$5;
#X msg 136 144 obj 200 160 ambidecoder_control \$5 \$4 \$1 \$2 \$3
\, obj 250 350 \$1\$2D\$3O_ambirotate_z~ _____________________ \, obj
200 400 mtx_*~ \$5 \$4 0 _____________________;
#X connect 1 0 0 0;
#X connect 2 0 1 0;
#X connect 3 0 1 0;
#X connect 4 0 7 0;
#X connect 5 0 4 2;
#X connect 6 0 4 1;
#X connect 6 1 5 0;
#X connect 7 0 2 0;
#X connect 8 0 9 0;
#X connect 9 0 11 0;
#X connect 9 1 3 0;
#X connect 9 2 12 0;
#X connect 10 0 4 0;
#X connect 10 1 6 0;
#X connect 11 0 10 0;
#X connect 12 0 1 0;
#X restore 303 176 pd simple;
#X obj 258 59 inlet type #dim #order #dacs;
#N canvas 0 0 450 300 ambichans 0;
#X obj 115 53 inlet type #dim #order #dacs;
#X obj 115 218 outlet;
#X obj 115 108 unpack s 0 0 0;
#X obj 115 170 pack s 0 0 0 0;
#X obj 286 141 calc_ambichans;
#X obj 115 80 t l l;
#X msg 286 116 list \$1 \$3;
#X connect 0 0 5 0;
#X connect 2 0 3 0;
#X connect 2 1 3 1;
#X connect 2 2 3 2;
#X connect 2 3 3 4;
#X connect 3 0 1 0;
#X connect 4 0 3 3;
#X connect 5 0 2 0;
#X connect 5 1 6 0;
#X connect 6 0 4 0;
#X restore 258 93 pd ambichans;
#X text 279 115 type #dim #order #chans #dacs;
#N canvas 0 0 691 436 simple-connect 0;
#X obj 90 106 inlet type #dim #order #chans #dacs;
#X obj 92 398 outlet;
#X text 157 39 connect ambirotate->mtx \, connect mtx->multiline;
#X obj 88 166 unpack;
#X text 325 277 ambirotate->mtx;
#X text 222 329 mtx->multiline;
#X msg 92 327 connect 9 \$1 10 \$1;
#X msg 197 278 connect 8 \$1 9 \$2;
#X obj 197 223 t f f;
#X obj 197 257 pack;
#X obj 233 244 + 1;
#X obj 92 374 t a;
#X msg 91 142 \$5 \$4;
#X obj 64 212 t f b;
#X obj 65 236 until;
#X obj 66 259 i;
#X obj 96 259 + 1;
#X msg 107 237 0;
#X obj 193 151 t f b;
#X obj 194 175 until;
#X obj 195 198 i;
#X obj 225 198 + 1;
#X msg 236 176 0;
#X connect 0 0 12 0;
#X connect 3 0 13 0;
#X connect 3 1 18 0;
#X connect 6 0 11 0;
#X connect 7 0 11 0;
#X connect 8 0 9 0;
#X connect 8 1 10 0;
#X connect 9 0 7 0;
#X connect 10 0 9 1;
#X connect 11 0 1 0;
#X connect 12 0 3 0;
#X connect 13 0 14 0;
#X connect 13 1 17 0;
#X connect 14 0 15 0;
#X connect 15 0 16 0;
#X connect 15 0 6 0;
#X connect 16 0 15 1;
#X connect 17 0 15 1;
#X connect 18 0 19 0;
#X connect 18 1 22 0;
#X connect 19 0 20 0;
#X connect 20 0 21 0;
#X connect 20 0 8 0;
#X connect 21 0 20 1;
#X connect 22 0 20 1;
#X restore 281 199 pd simple-connect;
#N canvas 163 118 915 546 the 0;
#X obj 124 488 outlet;
#X obj 555 317 pack;
#X obj 383 365 pack;
#X obj 383 407 t a;
#X obj 383 176 until;
#X obj 383 156 t f b;
#X obj 383 196 i;
#X obj 410 196 + 1;
#X obj 430 176 i 0;
#X obj 383 218 t f f;
#X obj 555 239 t f f;
#X obj 587 260 + 1;
#X obj 555 287 + 200;
#X obj 383 276 t f f;
#X obj 121 325 pack;
#X obj 43 383 pack;
#X obj 43 425 t a;
#X obj 43 194 until;
#X obj 43 174 t f b;
#X obj 43 214 i;
#X obj 70 214 + 1;
#X obj 90 194 i 0;
#X obj 43 236 t f f;
#X obj 121 247 t f f;
#X obj 153 268 + 1;
#X obj 43 294 t f f;
#X text 86 387 mtx_*~ -> throw~;
#X obj 121 295 + 250;
#X obj 121 268 * 20;
#X obj 555 260 * 20;
#X obj 126 36 inlet type #dim #order #chans #dacs;
#X msg 126 65 \$5 \$4;
#X obj 126 94 unpack;
#X text 369 116 #chans;
#X text 41 89 #dacs;
#X msg 383 386 connect \$1 0 8 \$2;
#X text 426 369 r~ -> ambirotate;
#X obj 124 460 t a a;
#X obj 383 325 + 11;
#X msg 43 404 connect 10 \$2 \$1 0;
#X obj 43 353 +;
#X obj 43 323 + 11;
#X msg 121 346 obj 50 \$1 throw~ \$2_OUT;
#X msg 555 338 obj 700 \$1 r~ \$2_AMBI_BUS;
#X connect 1 0 43 0;
#X connect 2 0 35 0;
#X connect 3 0 37 0;
#X connect 4 0 6 0;
#X connect 5 0 4 0;
#X connect 5 1 8 0;
#X connect 6 0 7 0;
#X connect 6 0 9 0;
#X connect 7 0 6 1;
#X connect 8 0 6 1;
#X connect 9 0 13 0;
#X connect 9 1 10 0;
#X connect 10 0 29 0;
#X connect 10 1 11 0;
#X connect 11 0 1 1;
#X connect 12 0 1 0;
#X connect 13 0 38 0;
#X connect 13 1 2 1;
#X connect 14 0 42 0;
#X connect 15 0 39 0;
#X connect 16 0 37 0;
#X connect 17 0 19 0;
#X connect 18 0 17 0;
#X connect 18 1 21 0;
#X connect 19 0 20 0;
#X connect 19 0 22 0;
#X connect 20 0 19 1;
#X connect 21 0 19 1;
#X connect 22 0 25 0;
#X connect 22 1 23 0;
#X connect 23 0 28 0;
#X connect 23 1 24 0;
#X connect 24 0 14 1;
#X connect 25 0 41 0;
#X connect 25 1 15 1;
#X connect 27 0 14 0;
#X connect 28 0 27 0;
#X connect 29 0 12 0;
#X connect 30 0 31 0;
#X connect 31 0 32 0;
#X connect 32 0 18 0;
#X connect 32 1 5 0;
#X connect 32 1 40 1;
#X connect 35 0 3 0;
#X connect 37 0 0 0;
#X connect 38 0 2 0;
#X connect 39 0 16 0;
#X connect 40 0 15 0;
#X connect 41 0 40 0;
#X connect 42 0 16 0;
#X connect 43 0 3 0;
#X restore 114 211 pd the big rest;
#X connect 1 0 8 0;
#X connect 1 1 7 0;
#X connect 1 2 3 0;
#X connect 2 0 0 0;
#X connect 3 0 2 0;
#X connect 4 0 5 0;
#X connect 5 0 1 0;
#X connect 7 0 2 0;
#X connect 8 0 2 0;
#X restore 85 236 pd generator;
#X msg 108 136 reset;
#N canvas 289 503 765 319 generic 0;
#X obj 76 44 inlet;
#X obj 76 228 outlet;
#X obj 76 76 t b b;
#X msg 76 143 obj 100 130 inlet weights \, obj 200 130 inlet gain[dB]
\, obj 300 130 inlet on/off \, obj 400 130 inlet rot/Z \, obj 400 180
switch~;
#X msg 108 113 obj 50 100 inlet~ \, obj 150 100 outlet~;
#X connect 0 0 2 0;
#X connect 2 0 3 0;
#X connect 2 1 4 0;
#X connect 3 0 1 0;
#X connect 4 0 1 0;
#X restore 117 201 pd generic;
#X obj 85 173 t l b;
#X obj 62 20 inlet #type #dim #order #dacs;
#X msg 153 43 list sphere 3 4 24;
#X msg 62 68 symbol AMBI/\$1\$2D\$3O_DECODER_OUT\$4~;
#X obj 85 326 patchwriter \$1;
#X connect 0 0 8 0;
#X connect 0 1 5 0;
#X connect 0 2 3 0;
#X connect 1 0 9 0;
#X connect 2 0 1 0;
#X connect 3 0 9 1;
#X connect 4 0 1 0;
#X connect 5 0 2 0;
#X connect 5 1 4 0;
#X connect 6 0 0 0;
#X connect 7 0 0 0;
#X connect 8 0 9 1;
