#N canvas 328 311 440 447 10;
#X obj 85 294 t a;
#N canvas 665 170 752 633 generator 0;
#X obj 42 27 inlet;
#X obj 250 490 outlet;
#X obj 250 135 until;
#X obj 250 158 i;
#X msg 293 137 0;
#X obj 278 158 + 1;
#X text 183 36 <num>;
#X obj 250 110 t f b;
#X obj 42 72 t f f;
#X obj 364 275 t f f;
#X obj 287 244 t f f;
#X obj 287 221 * 2;
#X obj 320 270 + 1;
#X obj 361 238 * 20;
#X obj 396 299 + 40;
#X obj 250 342 pack 0 0 0 100 150 0;
#X obj 250 179 t f f f f;
#X msg 249 362 obj \$1 \$4 inlet~ \, obj \$1 \$5 outlet~ \, connect
\$2 0 \$3 0;
#X obj 250 230 * 40;
#X obj 245 437 t a;
#X obj 76 257 t f f;
#X obj 76 234 * 2;
#X obj 109 283 + 1;
#X obj 39 192 t f f f f;
#X obj 39 243 * 40;
#X msg 40 402 obj \$1 \$4 inlet control \, obj \$1 \$5 outlet dummy
;
#X obj 39 355 pack 0 0 0 100 150 0;
#X obj 42 137 + 2;
#X connect 0 0 8 0;
#X connect 2 0 3 0;
#X connect 3 0 5 0;
#X connect 3 0 16 0;
#X connect 4 0 3 1;
#X connect 5 0 3 1;
#X connect 7 0 2 0;
#X connect 7 1 4 0;
#X connect 8 0 27 0;
#X connect 8 1 7 0;
#X connect 9 0 15 3;
#X connect 9 1 14 0;
#X connect 10 0 15 1;
#X connect 10 1 12 0;
#X connect 11 0 10 0;
#X connect 12 0 15 2;
#X connect 13 0 9 0;
#X connect 14 0 15 4;
#X connect 15 0 17 0;
#X connect 16 0 18 0;
#X connect 16 1 11 0;
#X connect 16 2 13 0;
#X connect 16 3 15 5;
#X connect 17 0 19 0;
#X connect 18 0 15 0;
#X connect 19 0 1 0;
#X connect 20 0 26 1;
#X connect 20 1 22 0;
#X connect 21 0 20 0;
#X connect 22 0 26 2;
#X connect 23 0 24 0;
#X connect 23 1 21 0;
#X connect 23 3 26 5;
#X connect 24 0 26 0;
#X connect 25 0 19 0;
#X connect 26 0 25 0;
#X connect 27 0 23 0;
#X restore 85 236 pd generator;
#X msg 108 136 reset;
#X obj 62 20 inlet name #type #dim #order #dacs;
#X obj 62 43 t l l b;
#X msg 62 98 symbol AMBI/\$1\$2D\$3O_ambirotate_z~;
#X obj 85 191 calc_ambichans;
#X msg 85 169 list \$1 \$3;
#X msg 142 42 list sphere 3 4 24;
#X obj 85 376 patchwriter \$1;
#X connect 0 0 9 0;
#X connect 1 0 0 0;
#X connect 2 0 9 1;
#X connect 3 0 4 0;
#X connect 4 0 5 0;
#X connect 4 1 7 0;
#X connect 4 2 2 0;
#X connect 5 0 9 1;
#X connect 6 0 1 0;
#X connect 7 0 6 0;
#X connect 8 0 4 0;
