#N canvas 517 409 440 447 10;
#N canvas 1470 571 765 319 generic 0;
#X obj 76 44 inlet;
#X obj 76 228 outlet;
#X obj 76 76 t b b;
#X msg 76 113 obj 100 100 inlet~ \, obj 200 100 outlet~;
#X connect 0 0 2 0;
#X connect 2 0 3 0;
#X connect 3 0 1 0;
#X restore 108 201 pd generic;
#X obj 85 294 t a;
#N canvas 142 77 450 451 generator 0;
#X obj 60 27 inlet;
#X obj 60 390 outlet;
#X msg 60 52 \$2;
#X obj 83 291 + 150;
#X obj 60 135 until;
#X obj 60 158 i;
#X msg 103 137 0;
#X obj 88 158 + 1;
#X obj 83 270 * 25;
#X obj 60 110 t f b b;
#X obj 60 179 t f f f;
#X obj 83 249 % 24;
#X obj 43 229 / 24;
#X obj 43 251 i;
#X obj 43 292 + 100;
#X obj 60 342 pack 0 0 0 s;
#X obj 141 159 dollsym 0;
#X text 183 36 <num> <offset>;
#X obj 127 316 + 1;
#X obj 43 271 * 200;
#X msg 60 362 obj \$1 \$2 AMBI/BUS-catch~ \$3_AMBI;
#X connect 0 0 2 0;
#X connect 2 0 9 0;
#X connect 3 0 15 1;
#X connect 4 0 5 0;
#X connect 5 0 7 0;
#X connect 5 0 10 0;
#X connect 6 0 5 1;
#X connect 7 0 5 1;
#X connect 8 0 3 0;
#X connect 9 0 4 0;
#X connect 9 1 6 0;
#X connect 9 2 16 0;
#X connect 10 0 12 0;
#X connect 10 1 11 0;
#X connect 10 2 18 0;
#X connect 11 0 8 0;
#X connect 12 0 13 0;
#X connect 13 0 19 0;
#X connect 14 0 15 0;
#X connect 15 0 20 0;
#X connect 16 0 15 3;
#X connect 18 0 15 2;
#X connect 19 0 14 0;
#X connect 20 0 1 0;
#X restore 85 236 pd generator;
#X obj 85 173 t l b b;
#X msg 108 136 reset;
#X obj 62 43 t s l b;
#X msg 62 98 symbol AMBI/\$1_AMBIBUS~;
#X msg 281 20 list sphere3D4O 25;
#X obj 85 376 patchwriter \$1;
#X obj 62 20 inlet name #fulltype #channels;
#X connect 0 0 1 0;
#X connect 1 0 8 0;
#X connect 2 0 1 0;
#X connect 3 0 2 0;
#X connect 3 1 0 0;
#X connect 4 0 8 1;
#X connect 5 0 6 0;
#X connect 5 1 3 0;
#X connect 5 2 4 0;
#X connect 6 0 8 1;
#X connect 7 0 5 0;
#X connect 9 0 5 0;
