#N canvas 1648 332 324 447 10;
#X obj 62 43 t l l b;
#X obj 85 294 t a;
#N canvas 1493 203 749 371 generator 0;
#X obj 258 59 inlet;
#X obj 281 319 outlet;
#N canvas 0 0 450 300 old 0;
#X obj 280 331 + 150;
#X obj 257 215 until;
#X obj 257 238 i;
#X msg 312 218 0;
#X obj 285 238 + 1;
#X obj 304 360 + 1;
#X obj 280 310 * 25;
#X obj 257 539 t a;
#N canvas 0 0 650 603 pack 0;
#X obj 111 52 inlet;
#X obj 111 524 outlet;
#X obj 111 194 dollsym 0;
#X obj 111 95 t b f;
#X obj 248 263 repack;
#X obj 248 220 until;
#X msg 248 240 0;
#X obj 248 199 t f f;
#X obj 248 286 list prepend obj 100 125 pack;
#X msg 111 417 obj 100 100 r \$1-bang \, obj 100 150 route 0 \, obj
100 175 outlet \, connect 1 0 0 0 \, connect 0 0 2 0 \, connect 2 0
3 0;
#X obj 111 484 t a a;
#X obj 248 310 list trim;
#X obj 248 176 + 1;
#X connect 0 0 3 0;
#X connect 2 0 9 0;
#X connect 3 0 2 0;
#X connect 3 1 12 0;
#X connect 4 0 8 0;
#X connect 5 0 6 0;
#X connect 6 0 4 0;
#X connect 7 0 5 0;
#X connect 7 1 4 1;
#X connect 8 0 11 0;
#X connect 9 0 10 0;
#X connect 10 0 1 0;
#X connect 11 0 10 0;
#X connect 12 0 7 0;
#X restore 475 195 pd pack;
#X obj 330 58 t l l b;
#X obj 475 171 +;
#X obj 379 459 dollsym 0;
#X obj 337 360 + 4;
#X obj 257 259 t f f f f;
#X obj 152 105 swap;
#X obj 257 393 symbol BUS;
#X obj 322 178 t b b;
#X msg 354 216 symbol BUS;
#X obj 96 154 t f b;
#X msg 128 233 symbol LFC;
#X obj 257 287 t b;
#X obj 257 460 pack s 0 0 0 0 s;
#X obj 305 416 t f f;
#X msg 257 511 obj 200 \$2 r_gainparm /OUT/\$1/\$5/GAIN \$6 \, connect
\$4 0 0 \$3;
#X obj 344 439 -;
#X obj 151 205 f;
#X obj 257 190 t f f;
#X obj 257 485 t l l;
#X floatatom 184 210 5 0 0 0 - - -;
#X connect 0 0 21 1;
#X connect 1 0 2 0;
#X connect 2 0 4 0;
#X connect 2 0 13 0;
#X connect 3 0 2 1;
#X connect 3 0 24 1;
#X connect 4 0 2 1;
#X connect 5 0 22 0;
#X connect 6 0 0 0;
#X connect 8 0 7 0;
#X connect 9 0 14 0;
#X connect 9 1 10 0;
#X connect 9 2 11 0;
#X connect 10 0 8 0;
#X connect 11 0 21 5;
#X connect 12 0 21 3;
#X connect 13 0 20 0;
#X connect 13 1 6 0;
#X connect 13 2 5 0;
#X connect 13 3 12 0;
#X connect 14 0 18 0;
#X connect 14 1 26 0;
#X connect 15 0 21 0;
#X connect 16 0 3 0;
#X connect 16 1 17 0;
#X connect 17 0 15 1;
#X connect 18 0 1 0;
#X connect 18 1 19 0;
#X connect 18 1 25 0;
#X connect 19 0 15 1;
#X connect 20 0 15 0;
#X connect 21 0 27 0;
#X connect 22 0 21 2;
#X connect 22 1 24 0;
#X connect 23 0 7 0;
#X connect 24 0 21 4;
#X connect 25 0 28 0;
#X connect 25 0 24 1;
#X connect 26 0 1 0;
#X connect 26 1 16 0;
#X connect 26 1 25 1;
#X connect 27 0 23 0;
#X restore 588 60 pd old;
#N canvas 1317 0 759 595 simple-objects 0;
#X obj 90 23 inlet #bus #lfc #out;
#X obj 254 419 outlet;
#X obj 254 393 t a;
#X obj 254 68 t l l l;
#X obj 277 122 unpack;
#X obj 277 143 +;
#X obj 300 189 until;
#X obj 277 167 t b f f;
#X obj 300 232 repack;
#X obj 339 211 + 1;
#X msg 300 211 0;
#X msg 266 190 50;
#X obj 300 254 list prepend obj 300 200 multiline~;
#X obj 90 47 t l l;
#X msg 90 254 \$2 700;
#X text 501 369 ID:5&6;
#X text 668 137 ID:2;
#X text 669 255 ID:3;
#X text 673 319 ID:4;
#X msg 371 137 obj 300 100 OUT/BUS/parameters \$1 \$3 \$2;
#X msg 90 369 obj \$2 180 OUT/BUS/\$1_LFC~ \, obj \$2 220 OUT/BUS/\$1_LFC2OUT~
;
#X msg 254 318 obj 300 250 mtx_*~ \$3 \$1 50 ______________________________
;
#X connect 0 0 13 0;
#X connect 2 0 1 0;
#X connect 3 0 21 0;
#X connect 3 1 4 0;
#X connect 3 2 19 0;
#X connect 4 0 5 0;
#X connect 4 1 5 1;
#X connect 5 0 7 0;
#X connect 6 0 10 0;
#X connect 7 0 11 0;
#X connect 7 1 6 0;
#X connect 7 2 9 0;
#X connect 8 0 12 0;
#X connect 9 0 8 1;
#X connect 10 0 8 0;
#X connect 11 0 8 0;
#X connect 12 0 2 0;
#X connect 13 0 14 0;
#X connect 13 1 3 0;
#X connect 14 0 20 0;
#X connect 19 0 2 0;
#X connect 20 0 2 0;
#X connect 21 0 2 0;
#X restore 375 159 pd simple-objects;
#X obj 258 130 t l l l;
#X obj 281 222 t a;
#X obj 281 250 list trim;
#N canvas 176 243 908 632 simple-connect 0;
#X obj 206 532 outlet;
#X obj 164 43 inlet #bus #lfc #out;
#X obj 164 68 t l l l;
#X obj 489 339 pack 0 0 0;
#X obj 489 292 t f f;
#X obj 524 318 + 1;
#X obj 489 177 unpack;
#X obj 489 239 +;
#X obj 489 211 t f f;
#X obj 556 281 + 1;
#X obj 305 246 until;
#X obj 305 225 t f b;
#X obj 305 327 pack;
#X obj 305 287 t f f;
#X obj 337 307 + 1;
#X obj 305 266 i;
#X obj 333 266 + 1;
#X msg 347 245 0;
#X msg 305 197 \$1;
#X msg 305 348 connect 3 \$1 4 \$2;
#X msg 489 366 connect 2 0 3 \$1 \, connect 2 1 4 0 \, connect 2 2
3 \$2 \, connect 2 2 4 \$3;
#X obj 206 505 t a;
#X obj 96 435 pack 0 0 0 0;
#X obj 96 394 t f f;
#X obj 110 415 + 1;
#X obj 146 394 t f f;
#X obj 160 415 + 1;
#X obj 96 344 t f f;
#X msg 96 460 connect 5 0 3 \$1 \, connect 5 1 3 \$2 \, connect 3 \$3
6 0 \, connect 3 \$4 6 1;
#X connect 1 0 2 0;
#X connect 2 0 27 0;
#X connect 2 1 18 0;
#X connect 2 2 6 0;
#X connect 3 0 20 0;
#X connect 4 0 3 0;
#X connect 4 1 5 0;
#X connect 5 0 3 1;
#X connect 6 0 8 0;
#X connect 6 1 7 1;
#X connect 7 0 4 0;
#X connect 8 0 7 0;
#X connect 8 1 9 0;
#X connect 9 0 3 2;
#X connect 10 0 15 0;
#X connect 11 0 10 0;
#X connect 11 1 17 0;
#X connect 12 0 19 0;
#X connect 13 0 12 0;
#X connect 13 1 14 0;
#X connect 14 0 12 1;
#X connect 15 0 16 0;
#X connect 15 0 13 0;
#X connect 16 0 15 1;
#X connect 17 0 15 1;
#X connect 18 0 11 0;
#X connect 19 0 21 0;
#X connect 20 0 21 0;
#X connect 21 0 0 0;
#X connect 22 0 28 0;
#X connect 23 0 22 0;
#X connect 23 1 24 0;
#X connect 24 0 22 1;
#X connect 25 0 22 2;
#X connect 25 1 26 0;
#X connect 26 0 22 3;
#X connect 27 0 23 0;
#X connect 27 1 25 0;
#X connect 28 0 21 0;
#X restore 281 188 pd simple-connect;
#N canvas 0 0 802 546 the 0;
#X obj 124 488 outlet;
#X obj 124 460 t a;
#X msg 383 386 connect \$1 0 3 \$2;
#X text 426 369 OUT/BUS/catch~ -> multiline~;
#X msg 555 338 obj 100 \$1 OUT/BUS/catch~ \$2_BUS;
#X obj 555 317 pack;
#X obj 383 365 pack;
#X obj 383 407 t a;
#X obj 383 176 until;
#X obj 383 156 t f b;
#X obj 383 196 i;
#X obj 410 196 + 1;
#X obj 430 176 i 0;
#X obj 126 73 inlet #bus #lfc #out;
#X obj 126 94 t l l;
#X obj 383 218 t f f;
#X obj 555 239 t f f;
#X obj 587 260 + 1;
#X obj 555 287 + 200;
#X obj 383 276 t f f;
#X obj 383 325 + 7;
#X obj 215 325 pack;
#X obj 43 383 pack;
#X obj 43 425 t a;
#X obj 43 194 until;
#X obj 43 174 t f b;
#X obj 43 214 i;
#X obj 70 214 + 1;
#X obj 90 194 i 0;
#X obj 43 236 t f f;
#X obj 215 247 t f f;
#X obj 247 268 + 1;
#X obj 43 294 t f f;
#X obj 43 323 + 7;
#X text 86 387 mtx_*~ -> throw~;
#X msg 215 346 obj 700 \$1 throw~ \$2_OUT;
#X obj 215 295 + 250;
#X obj 43 349 +;
#X msg 43 129 \$3 \$1;
#X obj 43 151 unpack;
#X msg 43 404 connect 4 \$2 \$1 0;
#X obj 215 268 * 20;
#X obj 555 260 * 20;
#X connect 1 0 0 0;
#X connect 2 0 7 0;
#X connect 4 0 7 0;
#X connect 5 0 4 0;
#X connect 6 0 2 0;
#X connect 7 0 1 0;
#X connect 8 0 10 0;
#X connect 9 0 8 0;
#X connect 9 1 12 0;
#X connect 10 0 11 0;
#X connect 10 0 15 0;
#X connect 11 0 10 1;
#X connect 12 0 10 1;
#X connect 13 0 14 0;
#X connect 14 0 38 0;
#X connect 14 1 9 0;
#X connect 15 0 19 0;
#X connect 15 1 16 0;
#X connect 16 0 42 0;
#X connect 16 1 17 0;
#X connect 17 0 5 1;
#X connect 18 0 5 0;
#X connect 19 0 20 0;
#X connect 19 1 6 1;
#X connect 20 0 6 0;
#X connect 21 0 35 0;
#X connect 22 0 40 0;
#X connect 23 0 1 0;
#X connect 24 0 26 0;
#X connect 25 0 24 0;
#X connect 25 1 28 0;
#X connect 26 0 27 0;
#X connect 26 0 29 0;
#X connect 27 0 26 1;
#X connect 28 0 26 1;
#X connect 29 0 32 0;
#X connect 29 1 30 0;
#X connect 30 0 41 0;
#X connect 30 1 31 0;
#X connect 31 0 21 1;
#X connect 32 0 33 0;
#X connect 32 1 22 1;
#X connect 33 0 37 0;
#X connect 35 0 23 0;
#X connect 36 0 21 0;
#X connect 37 0 22 0;
#X connect 38 0 39 0;
#X connect 39 0 25 0;
#X connect 39 1 37 1;
#X connect 40 0 23 0;
#X connect 41 0 36 0;
#X connect 42 0 18 0;
#X restore 114 211 pd the big rest;
#X connect 0 0 4 0;
#X connect 3 0 5 0;
#X connect 4 0 8 0;
#X connect 4 1 7 0;
#X connect 4 2 3 0;
#X connect 5 0 6 0;
#X connect 6 0 1 0;
#X connect 7 0 5 0;
#X connect 8 0 1 0;
#X restore 85 236 pd generator;
#X msg 108 136 reset;
#N canvas 350 88 765 319 generic 0;
#X obj 76 44 inlet;
#X obj 76 228 outlet;
#X obj 76 76 t b b;
#X msg 76 113 obj 100 100 inlet~ \, obj 200 100 outlet~;
#X connect 0 0 2 0;
#X connect 2 0 3 0;
#X connect 3 0 1 0;
#X restore 117 201 pd generic;
#X obj 85 173 t l b;
#X msg 62 68 symbol OUT/BUS/\$1_LFC\$2_OUT\$3~;
#X msg 228 17 16 2 52;
#X obj 62 20 inlet #bus #lfc #out;
#X obj 85 326 patchwriter \$1;
#X connect 0 0 6 0;
#X connect 0 1 5 0;
#X connect 0 2 3 0;
#X connect 1 0 9 0;
#X connect 2 0 1 0;
#X connect 3 0 9 1;
#X connect 4 0 1 0;
#X connect 5 0 2 0;
#X connect 5 1 4 0;
#X connect 6 0 9 1;
#X connect 7 0 0 0;
#X connect 8 0 0 0;
