#N canvas 420 290 324 447 10;
#X obj 62 43 t l l b;
#N canvas 350 88 765 319 generic 0;
#X obj 76 44 inlet;
#X obj 76 228 outlet;
#X obj 76 76 t b b;
#X msg 76 113 obj 100 100 inlet~;
#X connect 0 0 2 0;
#X connect 2 0 3 0;
#X connect 3 0 1 0;
#X restore 108 201 pd generic;
#X obj 85 294 t a;
#N canvas 1280 237 910 619 generator 0;
#X obj 492 27 inlet;
#X obj 492 429 outlet;
#X obj 515 231 + 150;
#X obj 492 115 until;
#X obj 492 138 i;
#X msg 535 117 0;
#X obj 520 138 + 1;
#X obj 559 260 + 1;
#X obj 492 369 list append;
#X obj 492 395 list trim;
#X obj 515 210 * 25;
#X obj 492 90 t f b b;
#X obj 492 159 t f f f;
#X obj 515 189 % 24;
#X obj 475 189 / 24;
#X obj 475 211 i;
#X obj 475 257 + 100;
#X obj 475 232 * 100;
#X obj 668 202 dollsym 1;
#X obj 559 235 t f f;
#X obj 492 282 pack 0 0 0 0 s;
#X obj 254 244 t f f;
#X obj 286 267 + 1;
#X obj 254 290 pack 0 0;
#X msg 254 313 obj 200 100 outlet~ \, connect \$1 0 \$2 0;
#X obj 460 58 t f f;
#X msg 492 341 obj \$1 \$2 CHANNEL/FX/plugin~ \$5 \$3 \, connect \$4
0 \$3 0;
#X connect 0 0 25 0;
#X connect 2 0 20 1;
#X connect 3 0 4 0;
#X connect 4 0 6 0;
#X connect 4 0 12 0;
#X connect 5 0 4 1;
#X connect 6 0 4 1;
#X connect 7 0 20 2;
#X connect 8 0 9 0;
#X connect 9 0 1 0;
#X connect 10 0 2 0;
#X connect 11 0 3 0;
#X connect 11 1 5 0;
#X connect 11 2 18 0;
#X connect 12 0 14 0;
#X connect 12 1 13 0;
#X connect 12 2 19 0;
#X connect 13 0 10 0;
#X connect 14 0 15 0;
#X connect 15 0 17 0;
#X connect 16 0 20 0;
#X connect 17 0 16 0;
#X connect 18 0 20 4;
#X connect 19 0 7 0;
#X connect 19 1 20 3;
#X connect 20 0 26 0;
#X connect 21 0 23 0;
#X connect 21 1 22 0;
#X connect 22 0 23 1;
#X connect 23 0 24 0;
#X connect 24 0 8 0;
#X connect 25 0 21 0;
#X connect 25 1 11 0;
#X connect 26 0 8 0;
#X restore 85 236 pd generator;
#X obj 85 173 t l b b;
#X msg 108 136 reset;
#X msg 198 20 4;
#X msg 62 68 symbol CHANNEL/FX/\$1_PLUGINS~;
#X obj 85 376 patchwriter \$1;
#X obj 62 20 inlet #fxslots;
#X connect 0 0 7 0;
#X connect 0 1 4 0;
#X connect 0 2 5 0;
#X connect 1 0 2 0;
#X connect 2 0 8 0;
#X connect 3 0 2 0;
#X connect 4 0 3 0;
#X connect 4 1 1 0;
#X connect 5 0 8 1;
#X connect 6 0 0 0;
#X connect 7 0 8 1;
#X connect 9 0 0 0;
