#N canvas 420 290 547 552 10;
#X obj 62 43 t l l b;
#N canvas 350 88 765 319 generic 0;
#X obj 76 44 inlet;
#X obj 76 228 outlet;
#X msg 76 113 obj 100 100 inlet~ \, obj 200 100 outlet~ \, obj 100
120 receive_parameter /IN/SOLO;
#X obj 76 76 t b b;
#X msg 108 153 text 300 100 1.arg: <float> #in \, text 300 120 2.arg:
<float> #aux_send \, text 300 140 3.arg: <float> #bus \, text 300 160
4.arg: <float> #fxplugin_depth \, text 300 180 5.arg: <float> ambisonics_order
;
#X connect 0 0 3 0;
#X connect 2 0 1 0;
#X connect 3 0 2 0;
#X connect 3 1 4 0;
#X connect 4 0 1 0;
#X restore 108 201 pd generic;
#X obj 85 294 t a;
#N canvas 0 0 530 445 generator 0;
#X obj 93 47 inlet;
#X obj 93 390 outlet;
#X obj 93 211 + 150;
#X obj 93 232 pack 0 0;
#X obj 93 115 until;
#X obj 93 138 i;
#X msg 136 117 0;
#X obj 121 138 + 1;
#X obj 93 169 t f f;
#X obj 146 190 + 1;
#X obj 93 300 list append;
#X obj 93 326 list trim;
#X obj 93 190 * 25;
#X obj 93 90 t f b b;
#X obj 317 264 pack s s s s s;
#X obj 317 161 dollsym 1;
#X obj 317 138 t b b b b b;
#X obj 340 181 dollsym 2;
#X obj 364 201 dollsym 3;
#X obj 388 221 dollsym 4;
#X obj 412 241 dollsym 5;
#X msg 93 262 obj 100 \$1 CHANNEL/channel~ \$2;
#X connect 0 0 13 0;
#X connect 2 0 3 0;
#X connect 3 0 21 0;
#X connect 4 0 5 0;
#X connect 5 0 7 0;
#X connect 5 0 8 0;
#X connect 6 0 5 1;
#X connect 7 0 5 1;
#X connect 8 0 12 0;
#X connect 8 1 9 0;
#X connect 9 0 3 1;
#X connect 10 0 11 0;
#X connect 11 0 1 0;
#X connect 12 0 2 0;
#X connect 13 0 4 0;
#X connect 13 1 6 0;
#X connect 13 2 16 0;
#X connect 14 0 10 1;
#X connect 15 0 14 0;
#X connect 16 0 15 0;
#X connect 16 1 17 0;
#X connect 16 2 18 0;
#X connect 16 3 19 0;
#X connect 16 4 20 0;
#X connect 17 0 14 1;
#X connect 18 0 14 2;
#X connect 19 0 14 3;
#X connect 20 0 14 4;
#X connect 21 0 10 0;
#X restore 85 236 pd generator;
#X obj 85 173 t l b b;
#X msg 108 136 reset;
#X msg 62 68 symbol CHANNEL/\$1~;
#X obj 62 20 inlet #channels;
#X obj 85 377 patchwriter \$1;
#X connect 0 0 6 0;
#X connect 0 1 4 0;
#X connect 0 2 5 0;
#X connect 1 0 2 0;
#X connect 2 0 8 0;
#X connect 3 0 2 0;
#X connect 4 0 3 0;
#X connect 4 1 1 0;
#X connect 5 0 8 1;
#X connect 6 0 8 1;
#X connect 7 0 0 0;
