#N canvas 1375 336 440 447 10;
#X obj 62 43 t l l b;
#N canvas 1470 571 765 319 generic 0;
#X obj 76 44 inlet;
#X obj 76 228 outlet;
#X obj 76 76 t b b;
#X msg 76 113 obj 100 100 inlet~ \, obj 200 100 outlet~;
#X msg 109 142 text 100 50 1.arg: <float> dollarzero from parent;
#X connect 0 0 2 0;
#X connect 2 0 3 0;
#X connect 2 1 4 0;
#X connect 3 0 1 0;
#X connect 4 0 1 0;
#X restore 108 201 pd generic;
#X obj 85 294 t a;
#N canvas 108 369 450 451 generator 0;
#X obj 60 27 inlet;
#X obj 93 390 outlet;
#X obj 93 352 list append;
#X obj 93 371 list trim;
#N canvas 0 0 450 564 compensated 0;
#X obj 158 231 + 150;
#X obj 135 115 until;
#X obj 135 138 i;
#X msg 178 117 0;
#X obj 163 138 + 1;
#X obj 182 259 + 1;
#X obj 158 210 * 25;
#X obj 135 90 t f b b;
#X obj 135 159 t f f f;
#X obj 158 189 % 24;
#X obj 118 189 / 24;
#X obj 118 211 i;
#X obj 118 257 + 100;
#X obj 135 65 inlet;
#X obj 135 376 outlet;
#X obj 118 232 * 200;
#X obj 216 139 dollsym 1;
#X obj 135 332 pack 0 0 0 0 s;
#X msg 135 352 obj \$1 \$2 catch_out_2_dac~ \$3 \$4 \$5;
#N canvas 0 0 1112 300 dac+routing 0;
#X obj 131 42 inlet dac;
#X obj 139 223 outlet dac;
#X obj 221 224 outlet routing;
#X obj 139 98 t f f f;
#X obj 162 123 s \$2-query-dacroute;
#X obj 162 143 r \$2-response-dacroute;
#X msg 162 166 \$2;
#X connect 0 0 3 0;
#X connect 3 0 1 0;
#X connect 3 1 4 0;
#X connect 3 2 2 0;
#X connect 5 0 6 0;
#X connect 6 0 2 0;
#X restore 182 288 pd dac+routing;
#X connect 0 0 17 1;
#X connect 1 0 2 0;
#X connect 2 0 4 0;
#X connect 2 0 8 0;
#X connect 3 0 2 1;
#X connect 4 0 2 1;
#X connect 5 0 19 0;
#X connect 6 0 0 0;
#X connect 7 0 1 0;
#X connect 7 1 3 0;
#X connect 7 2 16 0;
#X connect 8 0 10 0;
#X connect 8 1 9 0;
#X connect 8 2 5 0;
#X connect 9 0 6 0;
#X connect 10 0 11 0;
#X connect 11 0 15 0;
#X connect 12 0 17 0;
#X connect 13 0 7 0;
#X connect 15 0 12 0;
#X connect 16 0 17 4;
#X connect 17 0 18 0;
#X connect 18 0 14 0;
#X connect 19 0 17 2;
#X connect 19 1 17 3;
#X restore 300 216 pd compensated;
#N canvas 0 0 450 564 raw 0;
#X obj 158 271 + 150;
#X obj 135 115 until;
#X obj 135 138 i;
#X msg 178 117 0;
#X obj 163 138 + 1;
#X obj 158 250 * 25;
#X obj 135 90 t f b b;
#X obj 135 159 t f f f;
#X obj 158 229 % 24;
#X obj 118 209 / 24;
#X obj 118 231 i;
#X obj 118 297 + 100;
#X obj 135 35 inlet;
#X obj 135 436 outlet;
#X obj 202 276 +;
#X obj 135 64 unpack;
#X text 183 36 <num> <offset>;
#X obj 225 99 t f f;
#X obj 202 296 + 1;
#X obj 118 253 + 1;
#X obj 277 180 / 24;
#X obj 277 202 i;
#X obj 277 225 + 1;
#X obj 118 276 * 200;
#X obj 216 139 dollsym 1;
#N canvas 0 0 1112 300 dac+routing 0;
#X obj 131 42 inlet dac;
#X obj 139 223 outlet dac;
#X obj 221 224 outlet routing;
#X obj 139 98 t f f f;
#X obj 162 123 s \$2-query-dacroute;
#X obj 162 143 r \$2-response-dacroute;
#X msg 162 166 \$2;
#X connect 0 0 3 0;
#X connect 3 0 1 0;
#X connect 3 1 4 0;
#X connect 3 2 2 0;
#X connect 5 0 6 0;
#X connect 6 0 2 0;
#X restore 202 320 pd dac+routing;
#X obj 135 382 pack 0 0 0 0 s;
#X msg 135 402 obj \$1 \$2 catch_out_2_vol_dac~ \$3 \$4 \$5;
#X connect 0 0 26 1;
#X connect 1 0 2 0;
#X connect 2 0 4 0;
#X connect 2 0 7 0;
#X connect 3 0 2 1;
#X connect 4 0 2 1;
#X connect 5 0 0 0;
#X connect 6 0 1 0;
#X connect 6 1 3 0;
#X connect 6 2 24 0;
#X connect 7 0 9 0;
#X connect 7 1 8 0;
#X connect 7 2 14 0;
#X connect 8 0 5 0;
#X connect 9 0 10 0;
#X connect 10 0 19 0;
#X connect 11 0 26 0;
#X connect 12 0 15 0;
#X connect 14 0 18 0;
#X connect 15 0 6 0;
#X connect 15 1 17 0;
#X connect 17 0 20 0;
#X connect 17 1 14 1;
#X connect 18 0 25 0;
#X connect 19 0 23 0;
#X connect 20 0 21 0;
#X connect 21 0 22 0;
#X connect 22 0 19 1;
#X connect 23 0 11 0;
#X connect 24 0 26 4;
#X connect 25 0 26 2;
#X connect 25 1 26 3;
#X connect 26 0 27 0;
#X connect 27 0 13 0;
#X restore 60 263 pd raw;
#X obj 60 52 t l l;
#X msg 60 168 \$2 \$1;
#X text 108 30 #compensated #raw;
#X connect 0 0 6 0;
#X connect 2 0 3 0;
#X connect 3 0 1 0;
#X connect 4 0 2 0;
#X connect 5 0 2 0;
#X connect 6 0 7 0;
#X connect 6 1 4 0;
#X connect 7 0 5 0;
#X restore 85 236 pd generator;
#X obj 85 173 t l b b;
#X msg 108 136 reset;
#X obj 62 78 +;
#X msg 119 43 0;
#X msg 176 56 15 10;
#X msg 62 98 symbol OUT/DAC/\$1~;
#X obj 62 20 inlet #dacscompensated #dacsraw;
#X obj 85 376 patchwriter \$1;
#X connect 0 0 6 0;
#X connect 0 1 4 0;
#X connect 0 2 5 0;
#X connect 0 2 7 0;
#X connect 1 0 2 0;
#X connect 2 0 11 0;
#X connect 3 0 2 0;
#X connect 4 0 3 0;
#X connect 4 1 1 0;
#X connect 5 0 11 1;
#X connect 6 0 9 0;
#X connect 7 0 6 1;
#X connect 8 0 0 0;
#X connect 9 0 11 1;
#X connect 10 0 0 0;
