#N canvas 109 38 759 612 10;
#X obj 19 8 inlet~;
#X obj 22 381 outlet~;
#X text 136 57 25 ambisonic signals;
#X obj 24 73 r~ 1_AMBI_BUS;
#X obj 38 93 r~ 2_AMBI_BUS;
#X obj 53 113 r~ 3_AMBI_BUS;
#X obj 68 133 r~ 4_AMBI_BUS;
#X obj 84 153 r~ 5_AMBI_BUS;
#X obj 98 173 r~ 6_AMBI_BUS;
#X obj 112 193 r~ 7_AMBI_BUS;
#X obj 127 213 r~ 8_AMBI_BUS;
#X obj 152 73 r~ 9_AMBI_BUS;
#X obj 167 93 r~ 10_AMBI_BUS;
#X obj 181 113 r~ 11_AMBI_BUS;
#X obj 196 133 r~ 12_AMBI_BUS;
#X obj 212 153 r~ 13_AMBI_BUS;
#X obj 226 173 r~ 14_AMBI_BUS;
#X obj 241 193 r~ 15_AMBI_BUS;
#X obj 255 212 r~ 16_AMBI_BUS;
#X obj 50 335 throw~ 1_OUT;
#X obj 134 336 throw~ 2_OUT;
#X obj 285 73 r~ 17_AMBI_BUS;
#X obj 300 93 r~ 18_AMBI_BUS;
#X obj 314 113 r~ 19_AMBI_BUS;
#X obj 329 133 r~ 20_AMBI_BUS;
#X obj 345 153 r~ 21_AMBI_BUS;
#X obj 359 173 r~ 22_AMBI_BUS;
#X obj 374 193 r~ 23_AMBI_BUS;
#X obj 388 212 r~ 24_AMBI_BUS;
#X obj 418 72 r~ 25_AMBI_BUS;
#X obj 47 307 multiline~ 0 0 50;
#X obj 556 239 switch~;
#X obj 556 125 t b b;
#X msg 586 146 0;
#X msg 556 214 0;
#X obj 556 104 select 0;
#X obj 602 125 t f f;
#X obj 556 191 del 60;
#X obj 556 79 sendreceive EXT_BINAMBI_ON;
#X connect 3 0 30 0;
#X connect 4 0 30 1;
#X connect 30 0 19 0;
#X connect 30 1 20 0;
#X connect 32 0 37 0;
#X connect 32 1 33 0;
#X connect 33 0 30 2;
#X connect 34 0 31 0;
#X connect 35 0 32 0;
#X connect 35 1 36 0;
#X connect 36 0 30 3;
#X connect 36 1 31 0;
#X connect 37 0 34 0;
#X connect 38 0 35 0;
