#N canvas 392 217 559 368 10;
#X text 133 243 open_close_EDIT;
#X msg 134 226 1;
#X obj 100 101 cnv 15 91 58 empty empty BINAMBI 2 10 0 12 -228992 -66577
0;
#X obj 101 126 tgl 15 0 \$0_ON_fromgui \$0_ON_togui ON 0 -6 0 8 -233017
-1 -1 1 1;
#X obj 118 126 bng 15 250 50 0 \$0sEDIT \$0rEDIT EDIT 0 -6 0 8 -195568
-1 -1;
#X obj 419 23 r GUI_NET_initialized;
#X obj 419 44 del 1000;
#X obj 46 286 BIN_AMBI/EDIT \$1;
#X obj 166 34 gui_sr_offset \$0_ON EXT_BINAMBI_ON 0;
#X connect 1 0 7 1;
#X connect 4 0 1 0;
#X connect 5 0 6 0;
#X coords 0 -1 1 1 85 60 1 100 100;
