#N canvas 321 122 565 579 10;
#X obj 117 340 f;
#X obj 224 317 inlet;
#X obj 117 495 ctlout;
#X obj 117 104 ctlin;
#X obj 132 127 ==;
#X obj 152 152 == 1;
#X obj 132 173 *;
#X obj 117 206 spigot;
#X obj 174 54 loadbang;
#X text 79 35 args: <srname> <channel#> <basectrl>;
#X obj 205 126 unpack;
#X obj 117 317 sendreceive \$3;
#X obj 204 105 MIDI/inchannel/ch2ctl \$2 \$1;
#X obj 117 229 - 64;
#X obj 117 397 wrap -180 180;
#X obj 117 471 + 64;
#X msg 258 81 bang;
#X obj 174 76 t b b;
#X obj 117 248 * -360;
#X obj 117 422 / -360;
#X obj 117 268 / 125;
#X obj 117 442 * 125;
#X connect 0 0 14 0;
#X connect 1 0 11 1;
#X connect 3 0 7 0;
#X connect 3 1 4 0;
#X connect 3 2 5 0;
#X connect 4 0 6 0;
#X connect 5 0 6 1;
#X connect 6 0 7 1;
#X connect 7 0 13 0;
#X connect 8 0 17 0;
#X connect 10 0 4 1;
#X connect 10 0 2 1;
#X connect 10 1 2 2;
#X connect 10 1 5 1;
#X connect 11 0 0 0;
#X connect 12 0 10 0;
#X connect 13 0 18 0;
#X connect 14 0 19 0;
#X connect 15 0 2 0;
#X connect 17 0 0 0;
#X connect 17 1 12 0;
#X connect 18 0 20 0;
#X connect 19 0 21 0;
#X connect 20 0 11 0;
#X connect 21 0 15 0;
