#N canvas 321 122 432 641 10;
#X obj 139 376 f;
#X obj 294 277 inlet;
#X obj 139 529 ctlout;
#X obj 117 104 ctlin;
#X obj 132 127 ==;
#X obj 152 152 == 1;
#X obj 132 173 *;
#X obj 117 196 spigot;
#X obj 174 84 loadbang;
#X text 79 35 args: <srname> <channel#> <basectrl>;
#X obj 175 126 unpack;
#X obj 174 105 MIDI/inchannel/ch2ctl \$2 \$1;
#X obj 117 217 MIDI/abs/miditodb;
#X obj 139 423 MIDI/abs/dbtomidi;
#X obj 139 397 speedlim 20;
#X floatatom 211 379 5 0 0 0 - - -;
#X obj 139 454 int;
#X obj 139 483 change;
#X obj 139 337 sendreceive \$3;
#X obj 117 240 t b f b;
#X obj 139 356 spigot;
#X msg 161 259 0;
#X msg 117 259 1;
#X obj 177 318 t f;
#X connect 0 0 14 0;
#X connect 1 0 18 1;
#X connect 3 0 7 0;
#X connect 3 1 4 0;
#X connect 3 2 5 0;
#X connect 4 0 6 0;
#X connect 5 0 6 1;
#X connect 6 0 7 1;
#X connect 7 0 12 0;
#X connect 8 0 11 0;
#X connect 10 0 4 1;
#X connect 10 0 2 1;
#X connect 10 1 2 2;
#X connect 10 1 5 1;
#X connect 11 0 10 0;
#X connect 12 0 19 0;
#X connect 13 0 16 0;
#X connect 14 0 13 0;
#X connect 15 0 14 1;
#X connect 16 0 17 0;
#X connect 17 0 2 0;
#X connect 18 0 20 0;
#X connect 19 0 22 0;
#X connect 19 1 18 0;
#X connect 19 2 21 0;
#X connect 20 0 0 0;
#X connect 21 0 23 0;
#X connect 22 0 23 0;
#X connect 23 0 20 1;
