#N canvas 474 151 638 562 10;
#X obj 150 27 inlet;
#X obj 150 410 outlet;
#X msg 246 23 1 1 1 1 1 1;
#X obj 180 297 ambiweight_matrix_3d;
#X obj 150 169 listresize 5;
#X text 245 173 5=4(th order) + 1;
#X obj 422 33 inlet <dim> <order>;
#X obj 422 69 unpack 0 0;
#X obj 489 90 + 1;
#X obj 150 193 list prepend 3;
#X obj 150 215 list trim;
#X obj 150 241 route 2 3;
#X obj 150 276 ambiweight_matrix_2d;
#X obj 150 322 t a;
#X obj 150 87 listwith;
#X obj 217 86 clip -20 20;
#X obj 72 452 LATER ambiweights need notion of order & type!;
#X text 114 480 we already have a notion of order \, but none of type
(sphere \, hemim \, ...);
#X connect 0 0 14 0;
#X connect 2 0 14 0;
#X connect 3 0 13 0;
#X connect 4 0 9 0;
#X connect 6 0 7 0;
#X connect 7 0 9 1;
#X connect 7 1 8 0;
#X connect 8 0 4 1;
#X connect 9 0 10 0;
#X connect 10 0 11 0;
#X connect 11 0 12 0;
#X connect 11 1 3 0;
#X connect 12 0 13 0;
#X connect 13 0 1 0;
#X connect 14 0 4 0;
#X connect 14 1 15 0;
#X connect 15 0 14 1;
