#N canvas 518 42 534 757 10;
#X obj 66 141 inlet;
#X obj 66 503 outlet;
#X obj 66 238 symbol;
#X obj 66 185 t b;
#X obj 66 166 route bang float;
#X obj 66 207 symbol decoder.mtx;
#X obj 66 433 matrix;
#X obj 66 467 mtx_resize \$1 \$2;
#X obj 271 297 splitfilename .;
#X obj 271 368 textfile;
#X obj 271 321 t b s;
#X msg 323 345 read \$1.dim cr \, rewind;
#X obj 271 346 until;
#X msg 233 251 symbol /tmp/bla.mtx;
#X obj 271 416 route 2 3;
#X obj 271 623 t f b;
#X obj 311 623 t f b;
#X obj 354 623 b;
#X obj 271 663 list prepend 2;
#X obj 311 642 list prepend 3;
#X obj 271 686 t a;
#X obj 271 708 outlet <dimen> <order>;
#X obj 271 393 list trim;
#X obj 271 466 route float;
#X obj 375 467 t b;
#X obj 301 446 route float;
#X obj 375 486 f \$2;
#X obj 375 505 sqrt;
#X obj 375 524 - 1;
#X obj 375 562 max 0;
#X obj 295 485 t b;
#X obj 295 504 f \$2;
#X obj 295 580 max 0;
#X obj 375 543 int;
#X obj 295 542 / 2;
#X obj 295 523 - 1;
#X obj 295 561 int;
#X text 47 13 args: <outchannels> <ambichannels>;
#X text 45 36 read an ambisonic-decoder & read the corresponding dimension
file (to get proper weighting in 2d/3d);
#X text 47 81 if the dimension-file is missing \, assume defaults.
if the order is missing \, calculate it from the dimension and the
<ambischannels>;
#X obj 66 264 t s s;
#X msg 66 411 read \$1 \, bang;
#X obj 142 304 print read;
#X obj 232 273 t b s s;
#X msg 18 180 bang;
#X connect 0 0 4 0;
#X connect 2 0 40 0;
#X connect 3 0 5 0;
#X connect 4 0 3 0;
#X connect 4 2 2 0;
#X connect 5 0 2 0;
#X connect 6 0 7 0;
#X connect 7 0 1 0;
#X connect 8 0 10 0;
#X connect 9 0 22 0;
#X connect 9 1 17 0;
#X connect 10 0 12 0;
#X connect 10 1 11 0;
#X connect 11 0 9 0;
#X connect 12 0 9 0;
#X connect 13 0 43 0;
#X connect 14 0 23 0;
#X connect 14 1 25 0;
#X connect 15 0 18 0;
#X connect 15 1 17 0;
#X connect 16 0 19 0;
#X connect 16 1 17 0;
#X connect 17 0 12 1;
#X connect 18 0 20 0;
#X connect 19 0 20 0;
#X connect 20 0 21 0;
#X connect 22 0 14 0;
#X connect 23 0 15 0;
#X connect 23 1 30 0;
#X connect 24 0 26 0;
#X connect 25 0 16 0;
#X connect 25 1 24 0;
#X connect 26 0 27 0;
#X connect 27 0 28 0;
#X connect 28 0 33 0;
#X connect 29 0 19 0;
#X connect 30 0 31 0;
#X connect 31 0 35 0;
#X connect 32 0 18 0;
#X connect 33 0 29 0;
#X connect 34 0 36 0;
#X connect 35 0 34 0;
#X connect 36 0 32 0;
#X connect 40 0 41 0;
#X connect 40 1 43 0;
#X connect 41 0 6 0;
#X connect 43 1 8 0;
#X connect 44 0 5 0;
