#N canvas 0 0 638 562 10;
#X obj 150 27 inlet;
#X obj 150 75 clip -20 20;
#X obj 236 75 clip -20 20;
#X obj 259 94 clip -20 20;
#X obj 172 95 clip -20 20;
#X obj 195 115 clip -20 20;
#X obj 150 410 outlet;
#X obj 150 51 unpack 0 0 0 0 0 0;
#X obj 281 115 clip -20 20;
#X obj 150 141 pack 0 0 0 0 0 0;
#X msg 246 23 1 1 1 1 1 1;
#X obj 180 297 ambiweight_matrix_3d;
#X obj 150 169 listresize 5;
#X text 245 173 5=4(th order) + 1;
#X obj 422 33 inlet <dim> <order>;
#X obj 422 69 unpack 0 0;
#X obj 489 90 + 1;
#X obj 150 193 list prepend 3;
#X obj 150 215 list trim;
#X obj 150 241 route 2 3;
#X obj 150 276 ambiweight_matrix_2d;
#X obj 150 322 t a;
#X connect 0 0 7 0;
#X connect 1 0 9 0;
#X connect 2 0 9 3;
#X connect 3 0 9 4;
#X connect 4 0 9 1;
#X connect 5 0 9 2;
#X connect 7 0 1 0;
#X connect 7 1 4 0;
#X connect 7 2 5 0;
#X connect 7 3 2 0;
#X connect 7 4 3 0;
#X connect 7 5 8 0;
#X connect 8 0 9 5;
#X connect 9 0 12 0;
#X connect 10 0 7 0;
#X connect 11 0 21 0;
#X connect 12 0 17 0;
#X connect 14 0 15 0;
#X connect 15 0 17 1;
#X connect 15 1 16 0;
#X connect 16 0 12 1;
#X connect 17 0 18 0;
#X connect 18 0 19 0;
#X connect 19 0 20 0;
#X connect 19 1 11 0;
#X connect 20 0 21 0;
#X connect 21 0 6 0;
