#N canvas 72 363 795 481 10;
#N canvas 1294 136 564 404 ambi_weight 0;
#X obj 61 41 inlet;
#X obj 65 344 outlet;
#X obj 61 64 clip 0 1;
#X text 135 62 radius is clipped between 0 and 1 (= ambisonic radius)
;
#N canvas 379 48 627 614 (subpatch) 0;
#X obj 89 31 inlet;
#X obj 54 357 outlet;
#X obj 144 244 wrap;
#X obj 30 153 + 1;
#X obj 32 255 -;
#X text 58 256 k;
#X obj 33 282 *;
#X obj 54 330 +;
#X obj 144 222 + 1;
#X text 245 176 2 point interpolation;
#X obj 90 117 t f f f;
#X obj 162 357 outlet;
#X obj 30 176 tabread AMBI_WEIGHT_GAIN;
#X obj 90 197 tabread AMBI_WEIGHT_GAIN;
#X connect 0 0 10 0;
#X connect 2 0 6 1;
#X connect 2 0 11 0;
#X connect 3 0 12 0;
#X connect 4 0 6 0;
#X connect 6 0 7 0;
#X connect 7 0 1 0;
#X connect 8 0 2 0;
#X connect 10 0 3 0;
#X connect 10 1 13 0;
#X connect 10 2 8 0;
#X connect 12 0 4 0;
#X connect 13 0 7 1;
#X connect 13 0 4 1;
#X restore 237 195 pd;
#N canvas 379 48 611 598 _3 0;
#X obj 89 31 inlet;
#X obj 55 421 outlet;
#X obj 30 153 + 1;
#X obj 39 280 -;
#X text 65 281 k;
#X obj 40 307 *;
#X obj 54 330 +;
#X obj 30 176 tabread AMBI_WEIGHT_3;
#X obj 91 197 tabread AMBI_WEIGHT_3;
#X text 187 179 2 point interpolation;
#X obj 186 30 inlet;
#X obj 280 30 inlet;
#X text 280 13 wrap+1;
#X text 170 13 correct_gain;
#X obj 54 364 * 1;
#X obj 89 117 t f f;
#X connect 0 0 15 0;
#X connect 2 0 7 0;
#X connect 3 0 5 0;
#X connect 5 0 6 0;
#X connect 6 0 14 0;
#X connect 7 0 3 0;
#X connect 8 0 6 1;
#X connect 8 0 3 1;
#X connect 10 0 14 1;
#X connect 11 0 5 1;
#X connect 14 0 1 0;
#X connect 15 0 2 0;
#X connect 15 1 8 0;
#X restore 185 286 pd _3;
#N canvas 379 48 611 598 _0 0;
#X obj 89 31 inlet;
#X obj 55 421 outlet;
#X obj 30 153 + 1;
#X obj 39 280 -;
#X text 65 281 k;
#X obj 40 307 *;
#X obj 54 330 +;
#X text 187 179 2 point interpolation;
#X obj 186 30 inlet;
#X obj 280 30 inlet;
#X text 280 13 wrap+1;
#X text 170 13 correct_gain;
#X obj 54 364 * 1;
#X obj 89 117 t f f;
#X obj 91 197 tabread AMBI_WEIGHT_0;
#X obj 30 176 tabread AMBI_WEIGHT_0;
#X connect 0 0 13 0;
#X connect 2 0 15 0;
#X connect 3 0 5 0;
#X connect 5 0 6 0;
#X connect 6 0 12 0;
#X connect 8 0 12 1;
#X connect 9 0 5 1;
#X connect 12 0 1 0;
#X connect 13 0 2 0;
#X connect 13 1 14 0;
#X connect 14 0 6 1;
#X connect 14 0 3 1;
#X connect 15 0 3 0;
#X restore 44 284 pd _0;
#N canvas 379 48 611 598 _1 0;
#X obj 89 31 inlet;
#X obj 55 421 outlet;
#X obj 30 153 + 1;
#X obj 39 280 -;
#X text 65 281 k;
#X obj 40 307 *;
#X obj 54 330 +;
#X text 187 179 2 point interpolation;
#X obj 186 30 inlet;
#X obj 280 30 inlet;
#X text 280 13 wrap+1;
#X text 170 13 correct_gain;
#X obj 54 364 * 1;
#X obj 89 117 t f f;
#X obj 91 197 tabread AMBI_WEIGHT_1;
#X obj 30 176 tabread AMBI_WEIGHT_1;
#X connect 0 0 13 0;
#X connect 2 0 15 0;
#X connect 3 0 5 0;
#X connect 5 0 6 0;
#X connect 6 0 12 0;
#X connect 8 0 12 1;
#X connect 9 0 5 1;
#X connect 12 0 1 0;
#X connect 13 0 2 0;
#X connect 13 1 14 0;
#X connect 14 0 6 1;
#X connect 14 0 3 1;
#X connect 15 0 3 0;
#X restore 91 285 pd _1;
#N canvas 379 48 615 602 _2 0;
#X obj 89 31 inlet;
#X obj 54 389 outlet;
#X obj 30 153 + 1;
#X obj 39 280 -;
#X text 65 281 k;
#X obj 40 307 *;
#X obj 54 330 +;
#X text 201 177 2 point interpolation;
#X obj 186 30 inlet;
#X obj 280 30 inlet;
#X text 280 13 wrap+1;
#X text 170 13 correct_gain;
#X obj 54 364 * 1;
#X obj 89 117 t f f;
#X obj 91 197 tabread AMBI_WEIGHT_2;
#X obj 30 176 tabread AMBI_WEIGHT_2;
#X connect 0 0 13 0;
#X connect 2 0 15 0;
#X connect 3 0 5 0;
#X connect 5 0 6 0;
#X connect 6 0 12 0;
#X connect 8 0 12 1;
#X connect 9 0 5 1;
#X connect 12 0 1 0;
#X connect 13 0 2 0;
#X connect 13 1 14 0;
#X connect 14 0 6 1;
#X connect 14 0 3 1;
#X connect 15 0 3 0;
#X restore 135 286 pd _2;
#X msg 61 85 \$1 \$1;
#X obj 61 106 *;
#X obj 65 319 pack 0 0 0 0 0;
#N canvas 379 48 611 598 _4 0;
#X obj 89 31 inlet;
#X obj 55 421 outlet;
#X obj 30 153 + 1;
#X obj 39 280 -;
#X text 65 281 k;
#X obj 40 307 *;
#X obj 54 330 +;
#X text 187 179 2 point interpolation;
#X obj 186 30 inlet;
#X obj 280 30 inlet;
#X text 280 13 wrap+1;
#X text 170 13 correct_gain;
#X obj 54 364 * 1;
#X obj 89 117 t f f;
#X obj 91 197 tabread AMBI_WEIGHT_4;
#X obj 30 176 tabread AMBI_WEIGHT_4;
#X connect 0 0 13 0;
#X connect 2 0 15 0;
#X connect 3 0 5 0;
#X connect 5 0 6 0;
#X connect 6 0 12 0;
#X connect 8 0 12 1;
#X connect 9 0 5 1;
#X connect 12 0 1 0;
#X connect 13 0 2 0;
#X connect 13 1 14 0;
#X connect 14 0 6 1;
#X connect 14 0 3 1;
#X connect 15 0 3 0;
#X restore 232 287 pd _4;
#X obj 62 168 t f f f f f f;
#X obj 62 127 * 7;
#X connect 0 0 2 0;
#X connect 2 0 9 0;
#X connect 4 0 5 1;
#X connect 4 0 6 1;
#X connect 4 0 7 1;
#X connect 4 0 8 1;
#X connect 4 0 12 1;
#X connect 4 1 5 2;
#X connect 4 1 6 2;
#X connect 4 1 7 2;
#X connect 4 1 8 2;
#X connect 4 1 12 2;
#X connect 5 0 11 3;
#X connect 6 0 11 0;
#X connect 7 0 11 1;
#X connect 8 0 11 2;
#X connect 9 0 10 0;
#X connect 10 0 14 0;
#X connect 11 0 1 0;
#X connect 12 0 11 4;
#X connect 13 0 6 0;
#X connect 13 1 7 0;
#X connect 13 2 8 0;
#X connect 13 3 5 0;
#X connect 13 4 12 0;
#X connect 13 5 4 0;
#X connect 14 0 13 0;
#X restore 385 109 pd ambi_weight;
#X text 555 286 1.)azimut;
#X text 555 305 2.)elevation;
#X obj 472 290 t b f;
#X obj 217 258 t b f;
#X obj 105 309 f;
#X obj 105 287 del 0;
#X obj 15 15 loadbang;
#X msg 15 37 1;
#X obj 15 212 t b a;
#X obj 15 58 s /IN/\$1/SPAT/AMBI/POS/RAD;
#X obj 385 88 receive_parameter /IN/\$1/SPAT/AMBI/POS/RAD;
#X obj 217 235 receive_parameter /IN/\$1/SPAT/AMBI/POS/ELV;
#X obj 472 263 receive_parameter /IN/\$1/SPAT/AMBI/POS/AZM;
#X obj 15 394 outlet;
#X obj 15 160 list prepend ambi_weight;
#X obj 15 180 list trim;
#X obj 15 126 receive_parameter /IN/\$1/SPAT/AMBI/ORDER_WEIGHT;
#X text 294 18 control abstraction for the ambiencoder (3D);
#X obj 385 130 t a;
#X text 393 67 remove this:;
#X obj 15 368 t a;
#X text 120 360 r phi theta;
#X obj 105 332 pack 0 0 0;
#X obj 105 212 receive_parameter /IN/\$1/SPAT/AMBI/POS/RAD;
#X obj 105 261 t b f;
#X connect 0 0 19 0;
#X connect 3 0 6 0;
#X connect 3 1 23 1;
#X connect 4 0 6 0;
#X connect 4 1 23 2;
#X connect 5 0 23 0;
#X connect 6 0 5 0;
#X connect 7 0 8 0;
#X connect 8 0 10 0;
#X connect 9 0 23 0;
#X connect 9 1 21 0;
#X connect 11 0 0 0;
#X connect 12 0 4 0;
#X connect 13 0 3 0;
#X connect 15 0 16 0;
#X connect 16 0 9 0;
#X connect 17 0 15 0;
#X connect 21 0 14 0;
#X connect 23 0 21 0;
#X connect 24 0 25 0;
#X connect 25 0 6 0;
#X connect 25 1 5 1;
