#N canvas 480 244 853 587 10;
#X obj 548 119 r DSP_MIX_INTERPOL_TIME;
#X obj 495 277 dbtorms;
#X obj 495 357 f 0;
#X msg 727 165 rho_z \$1;
#X msg 222 169 interpol_time \$1;
#X obj 727 74 inlet rot/Z;
#N canvas 183 245 868 511 ambi_dec_read_matrix 1;
#X obj 292 189 ambiweight_matrix;
#X obj 359 35 inlet weights;
#X obj 292 162 list 1 1 1 1 1 1;
#X obj 376 137 t b a;
#X obj 125 40 inlet matrixfile;
#N canvas 0 0 511 314 zero_count 0;
#X obj 39 86 repack 1;
#X obj 40 109 sel 0;
#X obj 54 146 f;
#X obj 85 144 + 1;
#X msg 102 99 0;
#X obj 60 21 inlet;
#X obj 129 230 outlet;
#X obj 130 200 f;
#X obj 60 51 t a b;
#X obj 158 86 del 10;
#X msg 174 115 ***************************************;
#X obj 174 139 print ***;
#X obj 158 164 del 10;
#X connect 0 0 1 0;
#X connect 1 0 2 0;
#X connect 2 0 3 0;
#X connect 2 0 7 1;
#X connect 3 0 2 1;
#X connect 4 0 3 0;
#X connect 4 0 2 0;
#X connect 5 0 8 0;
#X connect 7 0 6 0;
#X connect 8 0 0 0;
#X connect 8 1 4 0;
#X connect 8 1 9 0;
#X connect 9 0 12 0;
#X connect 9 0 10 0;
#X connect 10 0 11 0;
#X connect 12 0 7 0;
#X restore 215 386 pd zero_count;
#X obj 215 418 print number_of_zeros_in_decoder:;
#X obj 125 420 outlet;
#X obj 125 337 mtx_*;
#X obj 359 53 t b a;
#X obj 169 86 once;
#X msg 71 78 bang;
#X obj 125 160 mtx;
#X obj 139 66 t b b;
#X msg 280 135 bang;
#X obj 125 384 t a a;
#X msg 420 72 1 1 1 1 1 1 1;
#X obj 276 214 mtx;
#X obj 276 262 mtx_resize;
#X obj 169 216 mtx_size;
#X obj 125 190 t a b a;
#X msg 341 239 \$1 \$1;
#X obj 125 109 ambidecoder_readmatrix \$1 \$2;
#X text 285 92 24 25;
#X obj 427 170 s ambidecoder_dimenorder;
#X text 477 149 dimen order;
#X connect 0 0 17 1;
#X connect 1 0 9 0;
#X connect 2 0 0 0;
#X connect 3 0 2 0;
#X connect 3 1 0 1;
#X connect 3 1 24 0;
#X connect 4 0 22 0;
#X connect 8 0 15 0;
#X connect 9 0 13 0;
#X connect 9 1 2 0;
#X connect 10 0 22 0;
#X connect 11 0 22 0;
#X connect 12 0 20 0;
#X connect 13 0 12 0;
#X connect 13 1 10 0;
#X connect 14 0 2 0;
#X connect 15 0 7 0;
#X connect 15 1 5 0;
#X connect 16 0 9 0;
#X connect 17 0 18 0;
#X connect 18 0 8 1;
#X connect 19 1 21 0;
#X connect 20 0 8 0;
#X connect 20 1 17 0;
#X connect 20 2 19 0;
#X connect 21 0 18 1;
#X connect 22 0 12 0;
#X connect 22 1 3 0;
#X restore 26 79 pd ambi_dec_read_matrix;
#X obj 26 59 receive_setting /OUT/AMBI/DECODERMATRIX/FILE;
#X obj 26 99 t a a;
#X obj 183 25 t a;
#X obj 555 277 onoff_switch;
#X obj 495 379 *;
#X obj 503 332 t b f;
#X obj 183 4 inlet ambi_weights;
#X obj 26 222 outlet ->matrix;
#X text 194 83 <-- \$1 \$2!!;
#X obj 222 229 outlet ->rotate;
#X obj 726 408 outlet switch~;
#X obj 495 401 outlet multiline~/gain;
#X obj 548 448 outlet multiline~/time;
#X obj 495 5 inlet gain[dB];
#X obj 555 65 inlet on/off;
#X connect 0 0 4 0;
#X connect 0 0 19 0;
#X connect 1 0 2 0;
#X connect 2 0 11 0;
#X connect 3 0 16 0;
#X connect 4 0 16 0;
#X connect 5 0 3 0;
#X connect 6 0 8 0;
#X connect 7 0 6 0;
#X connect 8 0 14 0;
#X connect 9 0 6 1;
#X connect 10 0 12 0;
#X connect 10 1 17 0;
#X connect 11 0 18 0;
#X connect 12 0 2 0;
#X connect 12 1 11 1;
#X connect 13 0 9 0;
#X connect 20 0 1 0;
#X connect 21 0 10 0;
