#N canvas 150 129 816 445 10;
#N canvas 0 0 510 360 null~ 0;
#X obj 38 52 catch~ 0_AMBI_BUS;
#X obj 37 79 s~ 0_AMBI_SUM;
#X connect 0 0 1 0;
#X restore 129 19 pd null~;
#X text 526 82 (basic);
#X text 724 110 (medium1);
#X text 748 226 (strong weighted);
#X msg 579 249 1 0.904509 0.654509 0.345492 0.0954921;
#X msg 461 81 1 1 1 1 1;
#X msg 465 226 1.66667 1.50751 1.09085 0.57582 0.159154;
#X msg 461 112 1.1236 1.1236 1.1236 1.1236 0.505618;
#X msg 661 133 1 1 1 1 0.45;
#X msg 462 166 1.32767 1.33032 1.1949 0.819172 0.327934;
#X msg 621 186 1 1.002 0.9 0.617 0.247;
#X text 749 167 (medium2);
#X text 230 19 1.arg: <float> n_ambisonic_order;
#X obj 55 39 inlet~;
#X obj 54 328 outlet~;
#X obj 106 119 any 1.6 1.36569 0.8 0.234315;
#X obj 195 225 loadbang;
#X msg 195 247 1;
#X obj 114 143 receive_parameter /OUT/AMBI/SPEAKER/ORDER_WEIGHT;
#X obj 173 168 receive_parameter /OUT/AMBI/SPEAKER/GAIN;
#X obj 189 187 receive_setting /OUT/AMBI/SPEAKER/ON;
#X obj 200 207 receive_parameter /OUT/AMBI/SPEAKER/ROT/Z;
#X obj 457 272 t l;
#X floatatom 259 248 5 0 0 0 - - -;
#X text 229 37 2.arg: <float> #speakers;
#X obj 462 49 loadbang;
#X obj 54 281 AMBI/\$1\$2D\$3O_DECODER_OUT\$4~;
#X connect 4 0 22 0;
#X connect 5 0 22 0;
#X connect 6 0 22 0;
#X connect 7 0 22 0;
#X connect 8 0 22 0;
#X connect 9 0 22 0;
#X connect 10 0 22 0;
#X connect 13 0 26 0;
#X connect 16 0 17 0;
#X connect 17 0 26 3;
#X connect 18 0 26 1;
#X connect 19 0 26 2;
#X connect 20 0 26 3;
#X connect 21 0 26 4;
#X connect 22 0 26 1;
#X connect 23 0 26 4;
#X connect 25 0 5 0;
#X connect 26 0 14 0;
