#N canvas 0 0 600 300 10;
#X obj 100 100 inlet~;
#X obj 202 100 inlet;
#X obj 300 100 outlet~;
#X obj 100 130 onoff_switch~ \$0;
#X obj 250 130 switch~;
#X obj 350 130 r DSP_MIX_INTERPOL_TIME;
#X connect 0 0 3 0;
#X connect 1 0 3 1;
#X connect 3 1 4 0;
#X obj 100 200 ambiencoder_control \$1;
#X obj 100 225 hemi3D_encode 4;
#X obj 100 250 mtx_*~ 15 1 50 _____________________;
#X connect 6 0 7 0;
#X connect 7 0 8 0;
#X connect 3 0 8 1;
#X connect 5 0 8 2;
#X obj 100 300 AMBI/throwbus~ \$0 1;
#X connect 8 0 9 0;
#X obj 100 325 AMBI/throwbus~ \$0 2;
#X connect 8 1 10 0;
#X obj 100 350 AMBI/throwbus~ \$0 3;
#X connect 8 2 11 0;
#X obj 100 375 AMBI/throwbus~ \$0 4;
#X connect 8 3 12 0;
#X obj 100 400 AMBI/throwbus~ \$0 5;
#X connect 8 4 13 0;
#X obj 100 425 AMBI/throwbus~ \$0 6;
#X connect 8 5 14 0;
#X obj 100 450 AMBI/throwbus~ \$0 7;
#X connect 8 6 15 0;
#X obj 100 475 AMBI/throwbus~ \$0 8;
#X connect 8 7 16 0;
#X obj 100 500 AMBI/throwbus~ \$0 9;
#X connect 8 8 17 0;
#X obj 100 525 AMBI/throwbus~ \$0 10;
#X connect 8 9 18 0;
#X obj 100 550 AMBI/throwbus~ \$0 11;
#X connect 8 10 19 0;
#X obj 100 575 AMBI/throwbus~ \$0 12;
#X connect 8 11 20 0;
#X obj 100 600 AMBI/throwbus~ \$0 13;
#X connect 8 12 21 0;
#X obj 100 625 AMBI/throwbus~ \$0 14;
#X connect 8 13 22 0;
#X obj 100 650 AMBI/throwbus~ \$0 15;
#X connect 8 14 23 0;
