#N canvas 1430 450 479 324 10;
#X obj 96 48 inlet r phi theta;
#X obj 96 261 outlet;
#X text 241 41 list: r phi theta;
#X text 244 63 ambi_weight: weights;
#X obj 96 72 route list;
#X msg 96 106 \$3 \$2;
#X text 273 144 \$1: order;
#X obj 96 217 list prepend col 1;
#X obj 96 238 list trim;
#X text 149 263 -> mtx_*~;
#X text 148 106 ignore radius \, swap phi and theta;
#X obj 96 143 ambi2_encode_hemi \$1;
#X connect 0 0 4 0;
#X connect 4 0 5 0;
#X connect 4 1 11 0;
#X connect 5 0 11 0;
#X connect 7 0 8 0;
#X connect 8 0 1 0;
#X connect 11 0 7 0;
