#N canvas 0 0 600 300 10;
#X obj 50 100 inlet~;
#X obj 150 100 outlet~;
#X obj 100 130 inlet weights;
#X obj 200 130 inlet gain[dB];
#X obj 300 130 inlet on/off;
#X obj 400 130 inlet rot/Z;
#X obj 400 180 switch~;
#X obj 200 160 ambidecoder_control 29 15 hemi 3 4;
#X obj 250 350 hemi3D4O_ambirotate_z~ _____________________;
#X obj 200 400 mtx_*~ 29 15 0 _____________________;
#X obj 200 450 multiline~ 0 0 0 0 0 0 0 0 0 0 0 0 0 0 0 0 0 0 0 0 0
0 0 0 0 0 0 0 0 50;
#X connect 2 0 7 0;
#X connect 3 0 7 1;
#X connect 4 0 7 2;
#X connect 5 0 7 3;
#X connect 7 0 9 0;
#X connect 7 1 8 15;
#X connect 7 2 10 29;
#X connect 7 3 10 30;
#X connect 7 4 6 0;
#X connect 8 0 9 1;
#X connect 8 1 9 2;
#X connect 8 2 9 3;
#X connect 8 3 9 4;
#X connect 8 4 9 5;
#X connect 8 5 9 6;
#X connect 8 6 9 7;
#X connect 8 7 9 8;
#X connect 8 8 9 9;
#X connect 8 9 9 10;
#X connect 8 10 9 11;
#X connect 8 11 9 12;
#X connect 8 12 9 13;
#X connect 8 13 9 14;
#X connect 8 14 9 15;
#X connect 9 0 10 0;
#X connect 9 1 10 1;
#X connect 9 2 10 2;
#X connect 9 3 10 3;
#X connect 9 4 10 4;
#X connect 9 5 10 5;
#X connect 9 6 10 6;
#X connect 9 7 10 7;
#X connect 9 8 10 8;
#X connect 9 9 10 9;
#X connect 9 10 10 10;
#X connect 9 11 10 11;
#X connect 9 12 10 12;
#X connect 9 13 10 13;
#X connect 9 14 10 14;
#X connect 9 15 10 15;
#X connect 9 16 10 16;
#X connect 9 17 10 17;
#X connect 9 18 10 18;
#X connect 9 19 10 19;
#X connect 9 20 10 20;
#X connect 9 21 10 21;
#X connect 9 22 10 22;
#X connect 9 23 10 23;
#X connect 9 24 10 24;
#X connect 9 25 10 25;
#X connect 9 26 10 26;
#X connect 9 27 10 27;
#X connect 9 28 10 28;
#X obj 700 200 r~ 1_AMBI_BUS;
#X connect 11 0 8 0;
#X obj 700 220 r~ 2_AMBI_BUS;
#X connect 12 0 8 1;
#X obj 700 240 r~ 3_AMBI_BUS;
#X connect 13 0 8 2;
#X obj 700 260 r~ 4_AMBI_BUS;
#X connect 14 0 8 3;
#X obj 700 280 r~ 5_AMBI_BUS;
#X connect 15 0 8 4;
#X obj 700 300 r~ 6_AMBI_BUS;
#X connect 16 0 8 5;
#X obj 700 320 r~ 7_AMBI_BUS;
#X connect 17 0 8 6;
#X obj 700 340 r~ 8_AMBI_BUS;
#X connect 18 0 8 7;
#X obj 700 360 r~ 9_AMBI_BUS;
#X connect 19 0 8 8;
#X obj 700 380 r~ 10_AMBI_BUS;
#X connect 20 0 8 9;
#X obj 700 400 r~ 11_AMBI_BUS;
#X connect 21 0 8 10;
#X obj 700 420 r~ 12_AMBI_BUS;
#X connect 22 0 8 11;
#X obj 700 440 r~ 13_AMBI_BUS;
#X connect 23 0 8 12;
#X obj 700 460 r~ 14_AMBI_BUS;
#X connect 24 0 8 13;
#X obj 700 480 r~ 15_AMBI_BUS;
#X connect 25 0 8 14;
#X obj 50 250 throw~ 1_OUT;
#X connect 10 0 26 0;
#X obj 50 270 throw~ 2_OUT;
#X connect 10 1 27 0;
#X obj 50 290 throw~ 3_OUT;
#X connect 10 2 28 0;
#X obj 50 310 throw~ 4_OUT;
#X connect 10 3 29 0;
#X obj 50 330 throw~ 5_OUT;
#X connect 10 4 30 0;
#X obj 50 350 throw~ 6_OUT;
#X connect 10 5 31 0;
#X obj 50 370 throw~ 7_OUT;
#X connect 10 6 32 0;
#X obj 50 390 throw~ 8_OUT;
#X connect 10 7 33 0;
#X obj 50 410 throw~ 9_OUT;
#X connect 10 8 34 0;
#X obj 50 430 throw~ 10_OUT;
#X connect 10 9 35 0;
#X obj 50 450 throw~ 11_OUT;
#X connect 10 10 36 0;
#X obj 50 470 throw~ 12_OUT;
#X connect 10 11 37 0;
#X obj 50 490 throw~ 13_OUT;
#X connect 10 12 38 0;
#X obj 50 510 throw~ 14_OUT;
#X connect 10 13 39 0;
#X obj 50 530 throw~ 15_OUT;
#X connect 10 14 40 0;
#X obj 50 550 throw~ 16_OUT;
#X connect 10 15 41 0;
#X obj 50 570 throw~ 17_OUT;
#X connect 10 16 42 0;
#X obj 50 590 throw~ 18_OUT;
#X connect 10 17 43 0;
#X obj 50 610 throw~ 19_OUT;
#X connect 10 18 44 0;
#X obj 50 630 throw~ 20_OUT;
#X connect 10 19 45 0;
#X obj 50 650 throw~ 21_OUT;
#X connect 10 20 46 0;
#X obj 50 670 throw~ 22_OUT;
#X connect 10 21 47 0;
#X obj 50 690 throw~ 23_OUT;
#X connect 10 22 48 0;
#X obj 50 710 throw~ 24_OUT;
#X connect 10 23 49 0;
#X obj 50 730 throw~ 25_OUT;
#X connect 10 24 50 0;
#X obj 50 750 throw~ 26_OUT;
#X connect 10 25 51 0;
#X obj 50 770 throw~ 27_OUT;
#X connect 10 26 52 0;
#X obj 50 790 throw~ 28_OUT;
#X connect 10 27 53 0;
#X obj 50 810 throw~ 29_OUT;
#X connect 10 28 54 0;
