#N canvas 0 0 600 300 10;
#X obj 0 0 inlet~;
#X obj 0 40 outlet~;
#X connect 0 0 1 0;
#X obj 40 20 inlet~;
#X obj 40 60 outlet~;
#X connect 2 0 3 0;
#X obj 80 40 inlet~;
#X obj 80 80 outlet~;
#X connect 4 0 5 0;
#X obj 120 60 inlet~;
#X obj 120 100 outlet~;
#X connect 6 0 7 0;
#X obj 160 80 inlet~;
#X obj 160 120 outlet~;
#X connect 8 0 9 0;
#X obj 200 100 inlet~;
#X obj 200 140 outlet~;
#X connect 10 0 11 0;
#X obj 240 120 inlet~;
#X obj 240 160 outlet~;
#X connect 12 0 13 0;
#X obj 280 140 inlet~;
#X obj 280 180 outlet~;
#X connect 14 0 15 0;
#X obj 320 160 inlet~;
#X obj 320 200 outlet~;
#X connect 16 0 17 0;
#X obj 360 180 inlet~;
#X obj 360 220 outlet~;
#X connect 18 0 19 0;
#X obj 400 200 inlet~;
#X obj 400 240 outlet~;
#X connect 20 0 21 0;
#X obj 440 220 inlet~;
#X obj 440 260 outlet~;
#X connect 22 0 23 0;
#X obj 480 240 inlet~;
#X obj 480 280 outlet~;
#X connect 24 0 25 0;
#X obj 520 260 inlet~;
#X obj 520 300 outlet~;
#X connect 26 0 27 0;
#X obj 560 280 inlet~;
#X obj 560 320 outlet~;
#X connect 28 0 29 0;
#X obj 600 300 inlet~;
#X obj 600 340 outlet~;
#X connect 30 0 31 0;
#X obj 640 320 inlet~;
#X obj 640 360 outlet~;
#X connect 32 0 33 0;
#X obj 680 340 inlet~;
#X obj 680 380 outlet~;
#X connect 34 0 35 0;
#X obj 720 360 inlet~;
#X obj 720 400 outlet~;
#X connect 36 0 37 0;
#X obj 760 380 inlet~;
#X obj 760 420 outlet~;
#X connect 38 0 39 0;
#X obj 800 400 inlet~;
#X obj 800 440 outlet~;
#X connect 40 0 41 0;
#X obj 840 420 inlet~;
#X obj 840 460 outlet~;
#X connect 42 0 43 0;
#X obj 880 440 inlet~;
#X obj 880 480 outlet~;
#X connect 44 0 45 0;
#X obj 920 460 inlet~;
#X obj 920 500 outlet~;
#X connect 46 0 47 0;
#X obj 960 480 inlet~;
#X obj 960 520 outlet~;
#X connect 48 0 49 0;
#X obj 1080 100 inlet control;
#X obj 1080 150 outlet dummy;
