#N canvas 218 84 843 758 10;
#X obj 12 -42 inlet~;
#X text 465 432 the 25-th LS will be added to;
#X text 467 408 LS 21 \, 22 \, 23 and 24;
#X text 468 448 with 25 %;
#X obj 96 -43 inlet;
#X text 136 10 25 ambisonic signals;
#X text 31 -62 ambi order weight list;
#X obj 535 175 inlet;
#X obj 545 370 switch~;
#X obj 538 252 sel 0 1;
#X obj 538 274 del 50;
#X msg 542 326 0;
#X msg 573 326 1;
#X obj 591 273 r DSP_MIX_INTERPOL_TIME;
#X obj 38 60 r~ 1_AMBI_BUS;
#X obj 54 80 r~ 2_AMBI_BUS;
#X obj 70 100 r~ 3_AMBI_BUS;
#X obj 86 120 r~ 4_AMBI_BUS;
#X obj 102 140 r~ 5_AMBI_BUS;
#X obj 118 160 r~ 6_AMBI_BUS;
#X obj 134 180 r~ 7_AMBI_BUS;
#X obj 150 200 r~ 8_AMBI_BUS;
#X obj 135 52 r~ 9_AMBI_BUS;
#X obj 152 72 r~ 10_AMBI_BUS;
#X obj 167 92 r~ 11_AMBI_BUS;
#X obj 183 112 r~ 12_AMBI_BUS;
#X obj 199 132 r~ 13_AMBI_BUS;
#X obj 215 152 r~ 14_AMBI_BUS;
#X obj 232 172 r~ 15_AMBI_BUS;
#X obj 247 191 r~ 16_AMBI_BUS;
#X obj 535 207 dbtorms;
#X text 531 153 gain;
#X obj 26 409 throw~ 1_OUT;
#X obj 41 429 throw~ 2_OUT;
#X obj 56 449 throw~ 3_OUT;
#X obj 71 469 throw~ 4_OUT;
#X obj 86 490 throw~ 5_OUT;
#X obj 101 509 throw~ 6_OUT;
#X obj 116 530 throw~ 7_OUT;
#X obj 131 549 throw~ 8_OUT;
#X obj 250 550 throw~ 16_OUT;
#X obj 234 529 throw~ 15_OUT;
#X obj 219 509 throw~ 14_OUT;
#X obj 204 489 throw~ 13_OUT;
#X obj 189 469 throw~ 12_OUT;
#X obj 174 449 throw~ 11_OUT;
#X obj 160 429 throw~ 10_OUT;
#X obj 144 410 throw~ 9_OUT;
#X obj 263 409 throw~ 17_OUT;
#X obj 278 429 throw~ 18_OUT;
#X obj 293 449 throw~ 19_OUT;
#X obj 308 469 throw~ 20_OUT;
#X obj 323 490 throw~ 21_OUT;
#X obj 338 509 throw~ 22_OUT;
#X obj 353 530 throw~ 23_OUT;
#X obj 368 549 throw~ 24_OUT;
#X obj 13 509 outlet~;
#X obj 25 371 multiline~ 0 0 0 0 0 0 0 0 0 0 0 0 0 0 0 0 0 0 0 0 0
0 0 0 50;
#N canvas 1364 501 782 412 ambi_dec_calc_matrix 0;
#N canvas 0 0 511 314 zero_count 0;
#X obj 39 86 repack 1;
#X obj 40 109 sel 0;
#X obj 54 146 f;
#X obj 85 144 + 1;
#X msg 102 99 0;
#X obj 60 21 inlet;
#X obj 129 230 outlet;
#X obj 130 200 f;
#X obj 60 51 t a b;
#X obj 158 86 del 10;
#X msg 174 115 ***************************************;
#X obj 174 139 print ***;
#X obj 158 164 del 10;
#X connect 0 0 1 0;
#X connect 1 0 2 0;
#X connect 2 0 3 0;
#X connect 2 0 7 1;
#X connect 3 0 2 1;
#X connect 4 0 3 0;
#X connect 4 0 2 0;
#X connect 5 0 8 0;
#X connect 7 0 6 0;
#X connect 8 0 0 0;
#X connect 8 1 4 0;
#X connect 8 1 9 0;
#X connect 9 0 12 0;
#X connect 9 0 10 0;
#X connect 10 0 11 0;
#X connect 12 0 7 0;
#X restore 240 336 pd zero_count;
#X obj 240 368 print number_of_zeros_in_decoder:;
#X obj 150 27 inlet;
#X obj 343 336 print decoder;
#X obj 150 75 clip -20 20;
#X obj 236 75 clip -20 20;
#X obj 259 94 clip -20 20;
#X obj 172 95 clip -20 20;
#X obj 195 115 clip -20 20;
#X obj 150 340 outlet;
#X obj 150 51 unpack 0 0 0 0 0 0;
#X obj 281 115 clip -20 20;
#X obj 150 141 pack 0 0 0 0 0 0;
#X msg 246 23 1 1 1 1 1 1;
#X obj 150 284 mtx_*;
#X obj 150 180 symbol ../etc/CUBEmixer/speakerlayout.txt;
#X obj 175 247 ambiweight_matrix_3d;
#X obj 150 160 t b l;
#X obj 150 304 t a a;
#X obj 175 230 listresize 5;
#X text 259 231 5=4(th order) + 1;
#X obj 150 204 ambi_DecodeToSpeakers 4 3 24 18;
#X connect 0 0 1 0;
#X connect 2 0 10 0;
#X connect 4 0 12 0;
#X connect 5 0 12 3;
#X connect 6 0 12 4;
#X connect 7 0 12 1;
#X connect 8 0 12 2;
#X connect 10 0 4 0;
#X connect 10 1 7 0;
#X connect 10 2 8 0;
#X connect 10 3 5 0;
#X connect 10 4 6 0;
#X connect 10 5 11 0;
#X connect 11 0 12 5;
#X connect 12 0 17 0;
#X connect 13 0 10 0;
#X connect 14 0 18 0;
#X connect 15 0 21 0;
#X connect 16 0 14 1;
#X connect 17 0 15 0;
#X connect 17 1 19 0;
#X connect 18 0 9 0;
#X connect 18 1 0 0;
#X connect 19 0 16 0;
#X connect 21 0 14 0;
#X restore 12 -11 pd ambi_dec_calc_matrix;
#X obj 228 50 r~ 17_AMBI_BUS;
#X obj 242 70 r~ 18_AMBI_BUS;
#X obj 257 90 r~ 19_AMBI_BUS;
#X obj 273 110 r~ 20_AMBI_BUS;
#X obj 289 130 r~ 21_AMBI_BUS;
#X obj 305 150 r~ 22_AMBI_BUS;
#X obj 322 170 r~ 23_AMBI_BUS;
#X obj 339 191 r~ 24_AMBI_BUS;
#X obj 364 213 r~ 25_AMBI_BUS;
#X obj 642 178 inlet;
#X text 646 156 on off;
#X obj 432 287 f 0;
#X msg 502 289 0;
#X msg 481 99 rho_z \$1;
#X msg 548 99 interpol_time \$1;
#X obj 727 174 inlet rot/Z;
#X obj 26 347 mtx_*~ 24 25 0 ______________________________________
;
#X obj 38 311 ambi_rotate_z_4o_3d~ ______________________________;
#N canvas 1308 333 868 511 ambi_dec_read_matrix 0;
#X obj 125 109 ambidecoder_readmatrix 24 25;
#X obj 292 189 ambiweight_matrix;
#X obj 359 35 inlet weights;
#X obj 292 162 list 1 1 1 1 1 1;
#X obj 376 137 t b a;
#X obj 125 40 inlet matrixfile;
#N canvas 0 0 511 314 zero_count 0;
#X obj 39 86 repack 1;
#X obj 40 109 sel 0;
#X obj 54 146 f;
#X obj 85 144 + 1;
#X msg 102 99 0;
#X obj 60 21 inlet;
#X obj 129 230 outlet;
#X obj 130 200 f;
#X obj 60 51 t a b;
#X obj 158 86 del 10;
#X msg 174 115 ***************************************;
#X obj 174 139 print ***;
#X obj 158 164 del 10;
#X connect 0 0 1 0;
#X connect 1 0 2 0;
#X connect 2 0 3 0;
#X connect 2 0 7 1;
#X connect 3 0 2 1;
#X connect 4 0 3 0;
#X connect 4 0 2 0;
#X connect 5 0 8 0;
#X connect 7 0 6 0;
#X connect 8 0 0 0;
#X connect 8 1 4 0;
#X connect 8 1 9 0;
#X connect 9 0 12 0;
#X connect 9 0 10 0;
#X connect 10 0 11 0;
#X connect 12 0 7 0;
#X restore 215 386 pd zero_count;
#X obj 215 418 print number_of_zeros_in_decoder:;
#X obj 125 420 outlet;
#X obj 125 337 mtx_*;
#X obj 359 53 t b a;
#X obj 169 86 once;
#X msg 71 78 bang;
#X obj 125 160 mtx;
#X obj 139 66 t b b;
#X msg 280 135 bang;
#X obj 125 384 t a a;
#X msg 420 72 1 1 1 1 1 1 1;
#X obj 276 214 mtx;
#X obj 276 262 mtx_resize;
#X obj 169 216 mtx_size;
#X obj 125 190 t a b a;
#X msg 341 239 \$1 \$1;
#X connect 0 0 13 0;
#X connect 0 1 4 0;
#X connect 1 0 18 1;
#X connect 2 0 10 0;
#X connect 3 0 1 0;
#X connect 4 0 3 0;
#X connect 4 1 1 1;
#X connect 5 0 0 0;
#X connect 6 0 7 0;
#X connect 9 0 16 0;
#X connect 10 0 14 0;
#X connect 10 1 3 0;
#X connect 11 0 0 0;
#X connect 12 0 0 0;
#X connect 13 0 21 0;
#X connect 14 0 13 0;
#X connect 14 1 11 0;
#X connect 15 0 3 0;
#X connect 16 0 8 0;
#X connect 16 1 6 0;
#X connect 17 0 10 0;
#X connect 18 0 19 0;
#X connect 19 0 9 1;
#X connect 20 1 22 0;
#X connect 21 0 9 0;
#X connect 21 1 18 0;
#X connect 21 2 20 0;
#X connect 22 0 19 1;
#X restore 272 -14 pd ambi_dec_read_matrix;
#X obj 272 -40 receive_setting /OUT/AMBI/DECODERMATRIX/FILE;
#X obj 465 -13 print /OUT/AMBI/DECODERMATRIX/DIMEN;
#X obj 468 9 print /OUT/AMBI/DECODERMATRIX/MATRIX;
#X text 744 13 ??;
#X text 724 -9 ??;
#X obj 26 19 t a a;
#X obj 208 -26 t a;
#X connect 4 0 84 0;
#X connect 7 0 30 0;
#X connect 9 0 10 0;
#X connect 9 0 71 0;
#X connect 9 1 12 0;
#X connect 9 1 70 0;
#X connect 10 0 11 0;
#X connect 11 0 8 0;
#X connect 12 0 8 0;
#X connect 13 0 10 1;
#X connect 13 0 57 25;
#X connect 13 0 73 0;
#X connect 14 0 76 0;
#X connect 15 0 76 1;
#X connect 16 0 76 2;
#X connect 17 0 76 3;
#X connect 18 0 76 4;
#X connect 19 0 76 5;
#X connect 20 0 76 6;
#X connect 21 0 76 7;
#X connect 22 0 76 8;
#X connect 23 0 76 9;
#X connect 24 0 76 10;
#X connect 25 0 76 11;
#X connect 26 0 76 12;
#X connect 27 0 76 13;
#X connect 28 0 76 14;
#X connect 29 0 76 15;
#X connect 30 0 70 0;
#X connect 57 0 32 0;
#X connect 57 1 33 0;
#X connect 57 2 34 0;
#X connect 57 3 35 0;
#X connect 57 4 36 0;
#X connect 57 5 37 0;
#X connect 57 6 38 0;
#X connect 57 7 39 0;
#X connect 57 8 47 0;
#X connect 57 9 46 0;
#X connect 57 10 45 0;
#X connect 57 11 44 0;
#X connect 57 12 43 0;
#X connect 57 13 42 0;
#X connect 57 14 41 0;
#X connect 57 15 40 0;
#X connect 57 16 48 0;
#X connect 57 17 49 0;
#X connect 57 18 50 0;
#X connect 57 19 51 0;
#X connect 57 20 52 0;
#X connect 57 21 53 0;
#X connect 57 22 54 0;
#X connect 57 23 55 0;
#X connect 58 0 83 0;
#X connect 59 0 76 16;
#X connect 60 0 76 17;
#X connect 61 0 76 18;
#X connect 62 0 76 19;
#X connect 63 0 76 20;
#X connect 64 0 76 21;
#X connect 65 0 76 22;
#X connect 66 0 76 23;
#X connect 67 0 76 24;
#X connect 68 0 9 0;
#X connect 70 0 57 24;
#X connect 71 0 57 24;
#X connect 72 0 76 25;
#X connect 73 0 76 25;
#X connect 74 0 72 0;
#X connect 75 0 57 0;
#X connect 75 1 57 1;
#X connect 75 2 57 2;
#X connect 75 3 57 3;
#X connect 75 4 57 4;
#X connect 75 5 57 5;
#X connect 75 6 57 6;
#X connect 75 7 57 7;
#X connect 75 8 57 8;
#X connect 75 9 57 9;
#X connect 75 10 57 10;
#X connect 75 11 57 11;
#X connect 75 12 57 12;
#X connect 75 13 57 13;
#X connect 75 14 57 14;
#X connect 75 15 57 15;
#X connect 75 16 57 16;
#X connect 75 17 57 17;
#X connect 75 18 57 18;
#X connect 75 19 57 19;
#X connect 75 20 57 20;
#X connect 75 21 57 21;
#X connect 75 22 57 22;
#X connect 75 23 57 23;
#X connect 76 0 75 1;
#X connect 76 1 75 2;
#X connect 76 2 75 3;
#X connect 76 3 75 4;
#X connect 76 4 75 5;
#X connect 76 5 75 6;
#X connect 76 6 75 7;
#X connect 76 7 75 8;
#X connect 76 8 75 9;
#X connect 76 9 75 10;
#X connect 76 10 75 11;
#X connect 76 11 75 12;
#X connect 76 12 75 13;
#X connect 76 13 75 14;
#X connect 76 14 75 15;
#X connect 76 15 75 16;
#X connect 76 16 75 17;
#X connect 76 17 75 18;
#X connect 76 18 75 19;
#X connect 76 19 75 20;
#X connect 76 20 75 21;
#X connect 76 21 75 22;
#X connect 76 22 75 23;
#X connect 76 23 75 24;
#X connect 76 24 75 25;
#X connect 77 0 83 0;
#X connect 78 0 77 0;
#X connect 83 0 75 0;
#X connect 84 0 77 1;
