#N canvas 46 90 1025 591 10;
#X obj 215 158 inlet~;
#X obj 325 216 switch~;
#X text 576 332 set throw-name to 0_AMBI \, if not used;
#X obj 407 287 r DSP_MIX_INTERPOL_TIME;
#X obj 325 154 inlet;
#X text 320 135 ambi_on;
#X obj 425 155 outlet~;
#X text 147 99 4.order ambisonic encoder;
#X obj 47 288 mtx_*~ 25 1 50 __________________________________;
#X obj 108 510 AMBI/throwbus~ \$0 1;
#X obj 122 488 AMBI/throwbus~ \$0 2;
#X obj 137 467 AMBI/throwbus~ \$0 3;
#X obj 152 444 AMBI/throwbus~ \$0 4;
#X obj 167 423 AMBI/throwbus~ \$0 5;
#X obj 182 400 AMBI/throwbus~ \$0 6;
#X obj 197 378 AMBI/throwbus~ \$0 7;
#X obj 213 358 AMBI/throwbus~ \$0 8;
#X obj 289 510 AMBI/throwbus~ \$0 9;
#X obj 304 488 AMBI/throwbus~ \$0 10;
#X obj 321 466 AMBI/throwbus~ \$0 11;
#X obj 334 444 AMBI/throwbus~ \$0 12;
#X obj 349 423 AMBI/throwbus~ \$0 13;
#X obj 364 400 AMBI/throwbus~ \$0 14;
#X obj 379 378 AMBI/throwbus~ \$0 15;
#X obj 394 356 AMBI/throwbus~ \$0 16;
#X obj 460 508 AMBI/throwbus~ \$0 17;
#X obj 475 486 AMBI/throwbus~ \$0 18;
#X obj 492 464 AMBI/throwbus~ \$0 19;
#X obj 505 442 AMBI/throwbus~ \$0 20;
#X obj 520 421 AMBI/throwbus~ \$0 21;
#X obj 535 398 AMBI/throwbus~ \$0 22;
#X obj 550 376 AMBI/throwbus~ \$0 23;
#X obj 565 354 AMBI/throwbus~ \$0 24;
#X obj 618 508 AMBI/throwbus~ \$0 25;
#X obj 216 192 onoff_switch~ \$0;
#X obj 47 156 sphere3D4O_ENCODER 1;
#X connect 0 0 34 0;
#X connect 3 0 8 2;
#X connect 4 0 34 1;
#X connect 8 0 9 0;
#X connect 8 1 10 0;
#X connect 8 2 11 0;
#X connect 8 3 12 0;
#X connect 8 4 13 0;
#X connect 8 5 14 0;
#X connect 8 6 15 0;
#X connect 8 7 16 0;
#X connect 8 8 17 0;
#X connect 8 9 18 0;
#X connect 8 10 19 0;
#X connect 8 11 20 0;
#X connect 8 12 21 0;
#X connect 8 13 22 0;
#X connect 8 14 23 0;
#X connect 8 15 24 0;
#X connect 8 16 25 0;
#X connect 8 17 26 0;
#X connect 8 18 27 0;
#X connect 8 19 28 0;
#X connect 8 20 29 0;
#X connect 8 21 30 0;
#X connect 8 22 31 0;
#X connect 8 23 32 0;
#X connect 8 24 33 0;
#X connect 34 0 8 1;
#X connect 34 1 1 0;
#X connect 35 0 8 0;
