#N canvas 1607 162 843 758 10;
#X obj 12 -42 inlet~;
#X text 465 432 the 25-th LS will be added to;
#X text 467 408 LS 21 \, 22 \, 23 and 24;
#X text 468 448 with 25 %;
#X text 628 321 25 ambisonic signals;
#X obj 210 1 switch~;
#X obj 38 60 r~ 1_AMBI_BUS;
#X obj 54 80 r~ 2_AMBI_BUS;
#X obj 70 100 r~ 3_AMBI_BUS;
#X obj 86 120 r~ 4_AMBI_BUS;
#X obj 102 140 r~ 5_AMBI_BUS;
#X obj 118 160 r~ 6_AMBI_BUS;
#X obj 134 180 r~ 7_AMBI_BUS;
#X obj 150 200 r~ 8_AMBI_BUS;
#X obj 135 52 r~ 9_AMBI_BUS;
#X obj 152 72 r~ 10_AMBI_BUS;
#X obj 167 92 r~ 11_AMBI_BUS;
#X obj 183 112 r~ 12_AMBI_BUS;
#X obj 199 132 r~ 13_AMBI_BUS;
#X obj 215 152 r~ 14_AMBI_BUS;
#X obj 232 172 r~ 15_AMBI_BUS;
#X obj 247 191 r~ 16_AMBI_BUS;
#X obj 26 409 throw~ 1_OUT;
#X obj 41 429 throw~ 2_OUT;
#X obj 56 449 throw~ 3_OUT;
#X obj 71 469 throw~ 4_OUT;
#X obj 86 490 throw~ 5_OUT;
#X obj 101 509 throw~ 6_OUT;
#X obj 116 530 throw~ 7_OUT;
#X obj 131 549 throw~ 8_OUT;
#X obj 250 550 throw~ 16_OUT;
#X obj 234 529 throw~ 15_OUT;
#X obj 219 509 throw~ 14_OUT;
#X obj 204 489 throw~ 13_OUT;
#X obj 189 469 throw~ 12_OUT;
#X obj 174 449 throw~ 11_OUT;
#X obj 160 429 throw~ 10_OUT;
#X obj 144 410 throw~ 9_OUT;
#X obj 263 409 throw~ 17_OUT;
#X obj 278 429 throw~ 18_OUT;
#X obj 293 449 throw~ 19_OUT;
#X obj 308 469 throw~ 20_OUT;
#X obj 323 490 throw~ 21_OUT;
#X obj 338 509 throw~ 22_OUT;
#X obj 353 530 throw~ 23_OUT;
#X obj 368 549 throw~ 24_OUT;
#X obj 13 509 outlet~;
#X obj 25 371 multiline~ 0 0 0 0 0 0 0 0 0 0 0 0 0 0 0 0 0 0 0 0 0
0 0 0 50;
#X obj 228 50 r~ 17_AMBI_BUS;
#X obj 242 70 r~ 18_AMBI_BUS;
#X obj 257 90 r~ 19_AMBI_BUS;
#X obj 273 110 r~ 20_AMBI_BUS;
#X obj 289 130 r~ 21_AMBI_BUS;
#X obj 305 150 r~ 22_AMBI_BUS;
#X obj 322 170 r~ 23_AMBI_BUS;
#X obj 339 191 r~ 24_AMBI_BUS;
#X obj 364 213 r~ 25_AMBI_BUS;
#X obj 426 -39 inlet rot/Z;
#X obj 26 347 mtx_*~ 24 25 0 ______________________________________
;
#X obj 26 1 ambidecoder_control 24 25;
#X obj 68 -41 inlet ambi_weights;
#X obj 207 -40 inlet gain[dB];
#X obj 324 -40 inlet on/off;
#X obj 38 311 sphere3D4O_ambirotate_z~ ______________________________
;
#X connect 6 0 63 0;
#X connect 7 0 63 1;
#X connect 8 0 63 2;
#X connect 9 0 63 3;
#X connect 10 0 63 4;
#X connect 11 0 63 5;
#X connect 12 0 63 6;
#X connect 13 0 63 7;
#X connect 14 0 63 8;
#X connect 15 0 63 9;
#X connect 16 0 63 10;
#X connect 17 0 63 11;
#X connect 18 0 63 12;
#X connect 19 0 63 13;
#X connect 20 0 63 14;
#X connect 21 0 63 15;
#X connect 47 0 22 0;
#X connect 47 1 23 0;
#X connect 47 2 24 0;
#X connect 47 3 25 0;
#X connect 47 4 26 0;
#X connect 47 5 27 0;
#X connect 47 6 28 0;
#X connect 47 7 29 0;
#X connect 47 8 37 0;
#X connect 47 9 36 0;
#X connect 47 10 35 0;
#X connect 47 11 34 0;
#X connect 47 12 33 0;
#X connect 47 13 32 0;
#X connect 47 14 31 0;
#X connect 47 15 30 0;
#X connect 47 16 38 0;
#X connect 47 17 39 0;
#X connect 47 18 40 0;
#X connect 47 19 41 0;
#X connect 47 20 42 0;
#X connect 47 21 43 0;
#X connect 47 22 44 0;
#X connect 47 23 45 0;
#X connect 48 0 63 16;
#X connect 49 0 63 17;
#X connect 50 0 63 18;
#X connect 51 0 63 19;
#X connect 52 0 63 20;
#X connect 53 0 63 21;
#X connect 54 0 63 22;
#X connect 55 0 63 23;
#X connect 56 0 63 24;
#X connect 57 0 59 3;
#X connect 58 0 47 0;
#X connect 58 1 47 1;
#X connect 58 2 47 2;
#X connect 58 3 47 3;
#X connect 58 4 47 4;
#X connect 58 5 47 5;
#X connect 58 6 47 6;
#X connect 58 7 47 7;
#X connect 58 8 47 8;
#X connect 58 9 47 9;
#X connect 58 10 47 10;
#X connect 58 11 47 11;
#X connect 58 12 47 12;
#X connect 58 13 47 13;
#X connect 58 14 47 14;
#X connect 58 15 47 15;
#X connect 58 16 47 16;
#X connect 58 17 47 17;
#X connect 58 18 47 18;
#X connect 58 19 47 19;
#X connect 58 20 47 20;
#X connect 58 21 47 21;
#X connect 58 22 47 22;
#X connect 58 23 47 23;
#X connect 59 0 58 0;
#X connect 59 1 63 25;
#X connect 59 2 47 24;
#X connect 59 3 47 25;
#X connect 59 4 5 0;
#X connect 60 0 59 0;
#X connect 61 0 59 1;
#X connect 62 0 59 2;
#X connect 63 0 58 1;
#X connect 63 1 58 2;
#X connect 63 2 58 3;
#X connect 63 3 58 4;
#X connect 63 4 58 5;
#X connect 63 5 58 6;
#X connect 63 6 58 7;
#X connect 63 7 58 8;
#X connect 63 8 58 9;
#X connect 63 9 58 10;
#X connect 63 10 58 11;
#X connect 63 11 58 12;
#X connect 63 12 58 13;
#X connect 63 13 58 14;
#X connect 63 14 58 15;
#X connect 63 15 58 16;
#X connect 63 16 58 17;
#X connect 63 17 58 18;
#X connect 63 18 58 19;
#X connect 63 19 58 20;
#X connect 63 20 58 21;
#X connect 63 21 58 22;
#X connect 63 22 58 23;
#X connect 63 23 58 24;
#X connect 63 24 58 25;
