#N canvas 1342 243 450 300 10;
#X obj 78 73 inlet~;
#X obj 178 65 r \$1-onoff;
#X text 94 39 [throwbus~ \$0 1];
#X obj 178 88 sel 0 1;
#X msg 178 173 set \$1_AMBI_BUS;
#X obj 178 124 i 0;
#X obj 77 205 throw~ 0_AMBI_BUS;
#X obj 205 124 i \$2;
#X connect 0 0 6 0;
#X connect 1 0 3 0;
#X connect 3 0 5 0;
#X connect 3 1 7 0;
#X connect 4 0 6 0;
#X connect 5 0 4 0;
#X connect 7 0 4 0;
