#N canvas 1186 256 734 335 10;
#N canvas 90 17 425 221 \$0-INPUT-METERS 0;
#X obj 21 44 bank8 /IN 0;
#X obj 195 44 bank8 /IN 1;
#X obj 65 18 cnv 15 300 20 empty empty INPUT-METER-BRIDGE 60 12 0 14
-233017 -66577 0;
#X restore 302 163 pd \$0-INPUT-METERS;
#X obj 101 101 cnv 15 63 198 empty empty METERS 2 10 0 12 -228992 -66577
0;
#X obj 106 153 bng 30 250 50 0 \$0sINPUT \$0rINPUT INPUT 0 -6 0 8 -62784
-1 -1;
#X obj 302 85 r \$0sINPUT;
#X obj 302 125 s pd-\$0-INPUT-METERS;
#X msg 302 105 vis 1;
#N canvas 308 112 1461 218 \$0-OUTPUT-METERS 0;
#X obj 21 44 bank8 /DAC 0;
#X obj 195 44 bank8 /DAC 1;
#X obj 369 44 bank8 /DAC 2;
#X obj 543 44 bank8 /DAC 3;
#X obj 717 44 bank8 /DAC 4;
#X obj 891 44 bank8 /DAC 5;
#X obj 1065 44 bank8 /DAC 6;
#X obj 1239 44 bank8 /DAC 7;
#X obj 575 18 cnv 15 300 20 empty empty OUTPUT-METER-BRIDGE 60 12 0
14 -233017 -66577 0;
#X restore 302 183 pd \$0-OUTPUT-METERS;
#X msg 462 105 vis 1;
#X obj 462 85 r \$0sOUTPUT;
#X obj 462 125 s pd-\$0-OUTPUT-METERS;
#X obj 106 233 bng 30 250 50 0 \$0sOUTPUT \$0rOUTPUT OUTPUT 0 -6 0
8 -62784 -1 -1;
#X connect 3 0 5 0;
#X connect 5 0 4 0;
#X connect 7 0 9 0;
#X connect 8 0 7 0;
#X coords 0 -1 1 1 65 200 2 100 100;
