#N canvas 1186 256 734 335 10;
#N canvas 90 17 690 236 \$0-INPUT-METERS 0;
#X obj 185 18 cnv 15 300 20 empty empty INPUT-METER-BRIDGE 60 12 0
14 -233017 -66577 0;
#X obj 21 44 bank8 /IN 0;
#X obj 171 44 bank8 /IN 1;
#X obj 321 44 bank8 /IN 2;
#X obj 471 44 bank8 /IN 3;
#X restore 302 163 pd \$0-INPUT-METERS;
#X obj 101 101 cnv 15 63 198 empty empty METERS 2 10 0 12 -228992 -66577
0;
#X obj 106 153 bng 30 250 50 0 \$0sINPUT \$0rINPUT INPUT 0 -6 0 8 -62784
-1 -1;
#X obj 302 85 r \$0sINPUT;
#X obj 302 125 s pd-\$0-INPUT-METERS;
#X msg 302 105 vis 1;
#N canvas 308 112 1238 223 \$0-OUTPUT-METERS 0;
#X obj 7 44 bank8 /DAC 0;
#X obj 464 18 cnv 15 300 20 empty empty OUTPUT-METER-BRIDGE 60 12 0
14 -233017 -66577 0;
#X obj 157 44 bank8 /DAC 1;
#X obj 307 44 bank8 /DAC 2;
#X obj 457 44 bank8 /DAC 3;
#X obj 607 44 bank8 /DAC 4;
#X obj 757 44 bank8 /DAC 5;
#X obj 907 44 bank8 /DAC 6;
#X obj 1057 44 bank8 /DAC 7;
#X restore 462 163 pd \$0-OUTPUT-METERS;
#X msg 462 105 vis 1;
#X obj 462 85 r \$0sOUTPUT;
#X obj 462 125 s pd-\$0-OUTPUT-METERS;
#X obj 106 233 bng 30 250 50 0 \$0sOUTPUT \$0rOUTPUT OUTPUT 0 -6 0
8 -62784 -1 -1;
#N canvas 423 369 450 300 out-distribute 0;
#X obj 118 72 r /DAC/ALL/VU/LEVEL;
#N canvas 0 0 450 300 serialize 0;
#X obj 98 183 list split 1;
#X obj 98 100 until;
#X obj 98 138 list append;
#X obj 124 67 t b l;
#X obj 228 183 bang;
#X obj 124 40 inlet;
#X obj 98 202 outlet;
#X connect 0 0 6 0;
#X connect 0 1 2 1;
#X connect 0 2 4 0;
#X connect 1 0 2 0;
#X connect 2 0 0 0;
#X connect 3 0 1 0;
#X connect 3 1 2 1;
#X connect 4 0 1 1;
#X connect 5 0 3 0;
#X restore 118 140 pd serialize;
#X obj 118 111 t l b;
#X obj 118 163 t f b;
#X obj 150 187 i;
#X obj 179 187 + 1;
#X msg 136 216 symbol /DAC/\$1/VU/LEVEL;
#X obj 118 246 s;
#X msg 168 165 1;
#X text 35 29 LATER use this for less network overhead;
#X connect 0 0 2 0;
#X connect 1 0 3 0;
#X connect 2 0 1 0;
#X connect 2 1 8 0;
#X connect 3 0 7 0;
#X connect 3 1 4 0;
#X connect 4 0 5 0;
#X connect 4 0 6 0;
#X connect 5 0 4 1;
#X connect 6 0 7 1;
#X connect 8 0 4 1;
#X restore 462 202 pd out-distribute;
#X connect 3 0 5 0;
#X connect 5 0 4 0;
#X connect 7 0 9 0;
#X connect 8 0 7 0;
#X coords 0 -1 1 1 65 200 2 100 100;
