#N canvas 354 570 450 444 10;
#X obj 117 257 iem_r;
#X obj 118 369 s \$1-vu\$3;
#X obj 97 310 change;
#X obj 117 16 loadbang;
#X obj 117 205 pack 0 s;
#X obj 117 39 t b b;
#X text 244 32 \$0 <bank> <id> <prefix>;
#X obj 170 181 symbol \$4;
#X obj 117 81 unpack;
#X obj 117 104 * 8;
#X obj 117 133 +;
#X msg 117 231 set \$2/\$1/VU/LEVEL;
#X msg 188 12 bang;
#X obj 117 61 pack \$2 \$3;
#X obj 281 300 s \$1-label\$3;
#X obj 117 164 t f f;
#X obj 281 256 makefilename %02d;
#X msg 281 279 label \$1;
#X obj 115 281 unpack 0 0 0;
#X obj 116 341 pack 0 0 0;
#X connect 0 0 18 0;
#X connect 2 0 19 0;
#X connect 3 0 5 0;
#X connect 4 0 11 0;
#X connect 5 0 13 0;
#X connect 5 1 7 0;
#X connect 7 0 4 1;
#X connect 8 0 9 0;
#X connect 8 1 10 1;
#X connect 9 0 10 0;
#X connect 10 0 15 0;
#X connect 11 0 0 0;
#X connect 12 0 5 0;
#X connect 13 0 8 0;
#X connect 15 0 4 0;
#X connect 15 1 16 0;
#X connect 16 0 17 0;
#X connect 17 0 14 0;
#X connect 18 0 2 0;
#X connect 18 1 19 1;
#X connect 18 2 19 2;
#X connect 19 0 1 0;
