#N canvas 84 1 740 509 10;
#N canvas 163 378 469 423 ambi 0;
#X obj 91 277 pack s s;
#X obj 142 255 makefilename pd-%d-pd;
#X obj 142 235 i \$1;
#X obj 91 256 symbol;
#X obj 91 121 t f b;
#X obj 123 167 t b;
#X obj 61 82 tgl 15 0 empty empty empty 0 -6 0 8 -262144 -1 -1 0 1
;
#X obj 261 382 outlet;
#X obj 315 383 outlet;
#X obj 61 62 r \$2_IN_SPATIALIZATION;
#X obj 91 144 select 0 1;
#X msg 91 299 \; \$2 clear \; \$2 obj 0 0 \$1 \; \$2 loadbang;
#X obj 262 5 inlet \$0GUI-prepend;
#X obj 61 102 t f f f;
#X obj 262 134 pack s 0;
#X msg 262 185 \; \$1_input_spat_gui \$2;
#X obj 262 62 t s s;
#X obj 264 299 t s s;
#X msg 91 216 inchan/S0;
#X msg 123 187 inchan/S1;
#X connect 0 0 11 0;
#X connect 1 0 0 1;
#X connect 2 0 1 0;
#X connect 3 0 0 0;
#X connect 4 0 10 0;
#X connect 4 1 2 0;
#X connect 5 0 19 0;
#X connect 6 0 13 0;
#X connect 9 0 6 0;
#X connect 10 0 18 0;
#X connect 10 1 5 0;
#X connect 12 0 16 0;
#X connect 13 1 4 0;
#X connect 13 2 14 1;
#X connect 14 0 15 0;
#X connect 16 0 14 0;
#X connect 16 1 17 0;
#X connect 17 0 7 0;
#X connect 17 1 8 0;
#X connect 18 0 3 0;
#X connect 19 0 3 0;
#X restore 127 410 pd ambi vs direct;
#N canvas 0 242 662 313 select 0;
#X obj 115 90 r \$1GUIinchan_select;
#X obj 115 111 t b;
#X text 109 51 FILL IN;
#X obj 363 77 r GUI_getInChannelNums;
#X obj 363 126 s GUI_InChannelNum;
#X obj 363 102 f \$2;
#X obj 115 161 s GUI_channel_select;
#X obj 115 136 f \$2;
#X connect 0 0 1 0;
#X connect 1 0 7 0;
#X connect 3 0 5 0;
#X connect 5 0 4 0;
#X connect 7 0 6 0;
#X restore 63 138 pd select;
#N canvas 0 0 481 202 aux 0;
#X obj 27 17 inlet \$0GUI-prepend;
#X obj 26 69 inchan/helper/aux \$1GUIinchan_aux1 \$2_IN_AUX_1 aux1
;
#X obj 26 41 t s s s s;
#X obj 36 89 inchan/helper/aux \$1GUIinchan_aux2 \$2_IN_AUX_2 aux2
;
#X obj 56 109 inchan/helper/aux \$1GUIinchan_aux3 \$2_IN_AUX_3 aux3
;
#X obj 76 129 inchan/helper/aux \$1GUIinchan_aux4 \$2_IN_AUX_4 aux4
;
#X connect 0 0 2 0;
#X connect 2 0 1 0;
#X connect 2 1 3 0;
#X connect 2 2 4 0;
#X connect 2 3 5 0;
#X restore 136 285 pd aux;
#N canvas 335 43 1085 692 eq 0;
#X obj 592 19 inlet \$0GUI-prepend;
#X msg 592 41 symbol \$1_input_EQ;
#X obj 124 85 gui_sr_offset \$1GUIinchan_eq_tgl \$2_IN_EQ_ON;
#X msg 445 84 \$1_togui;
#X obj 125 275 gui_sr_offset \$1GUIinchan_eq_mid1_gain \$2_IN_EQ_MID1_GAIN
100;
#X obj 125 309 gui_sr_offset \$1GUIinchan_eq_mid1_freq \$2_IN_EQ_MID1_FREQ
;
#X obj 125 372 gui_sr_offset \$1GUIinchan_eq_mid2_gain \$2_IN_EQ_MID2_GAIN
100;
#X obj 125 406 gui_sr_offset \$1GUIinchan_eq_mid2_freq \$2_IN_EQ_MID2_FREQ
;
#X msg 547 544 \$1_locut_togui;
#X obj 124 544 gui_sr_offset \$1GUIinchan_eq_lowcut_tgl \$2_IN_EQ_LOWCUT_ON
;
#X msg 548 406 \$1_mid2_f_togui;
#X msg 548 309 \$1_mid1_f_togui;
#X obj 124 150 gui_sr_offset \$1GUIinchan_eq_hicut_tgl \$2_IN_EQ_HIGHCUT_ON
;
#X msg 545 150 \$1_hicut_togui;
#X obj 125 329 gui_sr_offset \$1GUIinchan_eq_mid1_q \$2_IN_EQ_MID1_Q
;
#X msg 548 329 \$1_mid1_q_togui;
#X msg 548 426 \$1_mid2_q_togui;
#X msg 544 169 \$1_hicut_f_togui;
#X obj 124 169 gui_sr_offset \$1GUIinchan_eq_hicut_f \$2_IN_EQ_HIGHCUT_FREQ
;
#X obj 126 215 gui_sr_offset \$1GUIinchan_eq_hi_gain \$2_IN_EQ_HIGH_GAIN
100;
#X msg 547 565 \$1_locut_f_togui;
#X obj 124 565 gui_sr_offset \$1GUIinchan_eq_locut_f \$2_IN_EQ_LOWCUT_FREQ
;
#X msg 547 494 \$1_lo_f_togui;
#X obj 125 234 gui_sr_offset \$1GUIinchan_eq_hi_f \$2_IN_EQ_HIGH_TRANS_FREQ
;
#X msg 546 234 \$1_hi_f_togui;
#X obj 545 131 t s s;
#X obj 547 195 t s s;
#X obj 548 255 t s s s;
#X obj 548 352 t s s s;
#X obj 547 452 t s s;
#X obj 547 522 t s s;
#X obj 592 66 t s s s s s s s;
#X obj 124 474 gui_sr_offset \$1GUIinchan_eq_low_gain \$2_IN_EQ_LOW_GAIN
100;
#X obj 124 494 gui_sr_offset \$1GUIinchan_eq_low_f \$2_IN_EQ_LOW_TRANS_FREQ
;
#X msg 548 275 \$1_mid1_gain_gui;
#X msg 547 215 \$1_hi_gain_gui;
#X msg 548 372 \$1_mid2_gain_gui;
#X msg 547 474 \$1_lo_gain_gui;
#X obj 125 426 gui_sr_offset \$1GUIinchan_eq_mid2_q \$2_IN_EQ_MID2_Q
;
#X connect 0 0 1 0;
#X connect 1 0 31 0;
#X connect 3 0 2 1;
#X connect 8 0 9 1;
#X connect 10 0 7 1;
#X connect 11 0 5 1;
#X connect 13 0 12 1;
#X connect 15 0 14 1;
#X connect 16 0 38 1;
#X connect 17 0 18 1;
#X connect 20 0 21 1;
#X connect 22 0 33 1;
#X connect 24 0 23 1;
#X connect 25 0 13 0;
#X connect 25 1 17 0;
#X connect 26 0 35 0;
#X connect 26 1 24 0;
#X connect 27 0 34 0;
#X connect 27 1 11 0;
#X connect 27 2 15 0;
#X connect 28 0 36 0;
#X connect 28 1 10 0;
#X connect 28 2 16 0;
#X connect 29 0 37 0;
#X connect 29 1 22 0;
#X connect 30 0 8 0;
#X connect 30 1 20 0;
#X connect 31 0 3 0;
#X connect 31 1 25 0;
#X connect 31 2 26 0;
#X connect 31 3 27 0;
#X connect 31 4 28 0;
#X connect 31 5 29 0;
#X connect 31 6 30 0;
#X connect 34 0 4 1;
#X connect 35 0 19 1;
#X connect 36 0 6 1;
#X connect 37 0 32 1;
#X restore 155 265 pd eq;
#N canvas 411 301 752 289 ambisonic 0;
#X obj 392 53 inlet;
#X obj 38 236 gui_sr_clip \$1GUIambisonic_theta \$2_IN_AMBI_ELV 0 90
;
#X obj 392 137 t s s s;
#X obj 552 111 symbol \$1_input_ambi;
#X msg 304 162 symbol \$1_r_togui;
#X msg 415 184 symbol \$1_phi_togui;
#X msg 435 204 symbol \$1_theta_togui;
#X symbolatom 469 153 0 0 0 0 - - -;
#X msg 392 108 symbol \$1_input_ambi;
#X obj 392 85 symbol;
#X obj 42 214 gui_sr_wrap \$1GUIambisonic_phi \$2_IN_AMBI_AZM -180
180;
#X obj 43 184 gui_sr_offset \$1GUIambisonic_r \$2_IN_AMBI_RAD;
#X connect 0 0 9 0;
#X connect 2 0 4 0;
#X connect 2 1 5 0;
#X connect 2 2 6 0;
#X connect 2 2 7 0;
#X connect 4 0 11 1;
#X connect 5 0 10 1;
#X connect 6 0 1 1;
#X connect 8 0 2 0;
#X connect 9 0 8 0;
#X restore 127 436 pd ambisonic;
#N canvas 602 98 835 697 direct 0;
#X obj 65 43 inlet;
#X obj 65 65 symbol;
#X msg 383 135 \$1_bus1_gain_gui;
#X msg 383 155 \$1_bus2_gain_gui;
#X msg 383 175 \$1_bus3_gain_gui;
#X msg 383 195 \$1_bus4_gain_gui;
#X obj 383 115 t s s s s;
#X msg 383 245 \$1_bus5_gain_gui;
#X msg 383 265 \$1_bus6_gain_gui;
#X msg 383 285 \$1_bus7_gain_gui;
#X msg 383 305 \$1_bus8_gain_gui;
#X obj 383 225 t s s s s;
#X msg 383 355 \$1_bus9_gain_gui;
#X msg 383 375 \$1_bus10_gain_gui;
#X msg 383 395 \$1_bus11_gain_gui;
#X msg 383 415 \$1_bus12_gain_gui;
#X obj 383 335 t s s s s;
#X msg 383 465 \$1_bus13_gain_gui;
#X msg 383 485 \$1_bus14_gain_gui;
#X msg 383 505 \$1_bus15_gain_gui;
#X msg 383 525 \$1_bus16_gain_gui;
#X obj 383 445 t s s s s;
#X obj 383 82 t s s s s;
#X obj 19 135 gui_sr_offset \$1GUIdirect_bus1 \$2_IN_BUS_1_GAIN;
#X obj 19 155 gui_sr_offset \$1GUIdirect_bus2 \$2_IN_BUS_2_GAIN;
#X obj 19 175 gui_sr_offset \$1GUIdirect_bus3 \$2_IN_BUS_3_GAIN;
#X obj 19 195 gui_sr_offset \$1GUIdirect_bus4 \$2_IN_BUS_4_GAIN;
#X obj 19 245 gui_sr_offset \$1GUIdirect_bus5 \$2_IN_BUS_5_GAIN;
#X obj 19 265 gui_sr_offset \$1GUIdirect_bus6 \$2_IN_BUS_6_GAIN;
#X obj 19 285 gui_sr_offset \$1GUIdirect_bus7 \$2_IN_BUS_7_GAIN;
#X obj 19 305 gui_sr_offset \$1GUIdirect_bus8 \$2_IN_BUS_8_GAIN;
#X obj 19 355 gui_sr_offset \$1GUIdirect_bus9 \$2_IN_BUS_9_GAIN;
#X obj 19 375 gui_sr_offset \$1GUIdirect_bus10 \$2_IN_BUS_10_GAIN;
#X obj 19 395 gui_sr_offset \$1GUIdirect_bus11 \$2_IN_BUS_11_GAIN;
#X obj 19 415 gui_sr_offset \$1GUIdirect_bus12 \$2_IN_BUS_12_GAIN;
#X obj 19 465 gui_sr_offset \$1GUIdirect_bus13 \$2_IN_BUS_13_GAIN;
#X obj 19 485 gui_sr_offset \$1GUIdirect_bus14 \$2_IN_BUS_14_GAIN;
#X obj 19 505 gui_sr_offset \$1GUIdirect_bus15 \$2_IN_BUS_15_GAIN;
#X obj 19 525 gui_sr_offset \$1GUIdirect_bus16 \$2_IN_BUS_16_GAIN;
#X connect 0 0 1 0;
#X connect 1 0 22 0;
#X connect 2 0 23 1;
#X connect 3 0 24 1;
#X connect 4 0 25 1;
#X connect 5 0 26 1;
#X connect 6 0 2 0;
#X connect 6 1 3 0;
#X connect 6 2 4 0;
#X connect 6 3 5 0;
#X connect 7 0 27 1;
#X connect 8 0 28 1;
#X connect 9 0 29 1;
#X connect 10 0 30 1;
#X connect 11 0 7 0;
#X connect 11 1 8 0;
#X connect 11 2 9 0;
#X connect 11 3 10 0;
#X connect 12 0 31 1;
#X connect 13 0 32 1;
#X connect 14 0 33 1;
#X connect 15 0 34 1;
#X connect 16 0 12 0;
#X connect 16 1 13 0;
#X connect 16 2 14 0;
#X connect 16 3 15 0;
#X connect 17 0 35 1;
#X connect 18 0 36 1;
#X connect 19 0 37 1;
#X connect 20 0 38 1;
#X connect 21 0 17 0;
#X connect 21 1 18 0;
#X connect 21 2 19 0;
#X connect 21 3 20 0;
#X connect 22 0 6 0;
#X connect 22 1 11 0;
#X connect 22 2 16 0;
#X connect 22 3 21 0;
#X restore 241 434 pd direct;
#N canvas 20 260 942 307 plugin 0;
#X obj 466 41 inlet \$0GUI-prepend;
#X obj 132 133 inchan/helper/plugin \$1GUIinchan_plugin1 \$2_IN_PLUGIN1
plugin1;
#X obj 466 64 t s s s s;
#X obj 142 173 inchan/helper/plugin \$1GUIinchan_plugin2 \$2_IN_PLUGIN2
plugin2;
#X obj 152 213 inchan/helper/plugin \$1GUIinchan_plugin3 \$2_IN_PLUGIN3
plugin3;
#X obj 162 253 inchan/helper/plugin \$1GUIinchan_plugin4 \$2_IN_PLUGIN4
plugin4;
#X connect 0 0 2 0;
#X connect 2 0 1 0;
#X connect 2 1 3 0;
#X connect 2 2 4 0;
#X connect 2 3 5 0;
#X restore 175 246 pd plugin;
#X text 24 23 this is the main section of the GUI input-channel. ALL
values are stored here \, and from here they are sent to other modules
(e.g. DSP);
#X text 47 62 Other GUI-inchannel modules (like the zoom-view) are
just slaves to this object.;
#X obj 182 123 r GUI_channel_getValues;
#X obj 182 143 route \$2;
#X msg 182 162 symbol \$1GUI;
#X obj 250 208 t s s;
#X obj 117 225 t s s s s;
#X obj 182 190 t s s s;
#N canvas 282 195 450 300 inputsection 0;
#X obj 46 37 inlet \$0GUI-prepend;
#N canvas 671 0 515 415 sourceselect 0;
#X obj 203 264 s \$1GUIinchan_inputselectname;
#X msg 203 242 label \$1;
#X obj 203 195 r \$2_IN_SRC;
#X obj 203 219 beautifysymbol;
#X obj 44 37 inlet \$0GUI-prepend;
#X msg 44 332 \; \$1_input_select_togui set \$2;
#X obj 44 266 pack s s;
#X obj 95 139 loadbang;
#X msg 95 164 symbol none;
#X symbolatom 318 225 10 0 0 0 - - -;
#X connect 1 0 0 0;
#X connect 2 0 3 0;
#X connect 3 0 1 0;
#X connect 3 0 6 1;
#X connect 4 0 6 0;
#X connect 6 0 5 0;
#X connect 7 0 8 0;
#X connect 8 0 6 1;
#X connect 9 0 1 0;
#X restore 141 87 pd sourceselect;
#X obj 48 70 t s s s s;
#N canvas 0 0 515 415 pregain 0;
#X obj 44 37 inlet \$0GUI-prepend;
#X msg 44 332 \; \$1_input_ingain_togui set \$2;
#X obj 95 241 - 100;
#X obj 44 266 pack s 0;
#X obj 95 215 r \$2_IN_ADJ_GAIN;
#X connect 0 0 3 0;
#X connect 2 0 3 1;
#X connect 3 0 1 0;
#X connect 4 0 2 0;
#X restore 86 113 pd pregain;
#N canvas 0 0 515 415 predelay 0;
#X obj 44 37 inlet \$0GUI-prepend;
#X obj 116 205 r \$2_IN_DEL;
#X obj 44 266 pack s 0;
#X msg 44 332 \; \$1_input_delay_togui set \$2;
#X connect 0 0 2 0;
#X connect 1 0 2 1;
#X connect 2 0 3 0;
#X restore 76 133 pd predelay;
#N canvas 0 0 515 415 preinvert 0;
#X obj 44 37 inlet \$0GUI-prepend;
#X msg 44 332 \; \$1_input_invert_togui set \$2;
#X obj 95 165 r \$2_IN_INV;
#X obj 95 186 * -0.5;
#X obj 95 208 + 0.5;
#X obj 44 266 pack s 0;
#X connect 0 0 5 0;
#X connect 2 0 3 0;
#X connect 3 0 4 0;
#X connect 4 0 5 1;
#X connect 5 0 1 0;
#X restore 46 157 pd preinvert;
#X connect 0 0 2 0;
#X connect 2 0 5 0;
#X connect 2 1 4 0;
#X connect 2 2 3 0;
#X connect 2 3 1 0;
#X restore 280 231 pd inputsection;
#N canvas 454 242 833 478 mutesolo 0;
#X obj 492 251 s \$1GUIinchan_mute_togui;
#X obj 492 205 loadbang;
#X obj 373 67 inlet \$0GUI-prepend;
#X obj 91 154 gui_sr_offset \$1GUIinchan_mute \$2_IN_ON 1;
#X msg 492 228 set -1;
#X obj 373 111 t s s;
#X msg 373 88 symbol \$1_input;
#X msg 389 180 symbol \$1_solo_togui;
#X obj 93 201 gui_sr_offset \$1GUIinchan_solo \$2_IN_SOLO;
#X msg 373 133 symbol \$1_mute_gui;
#X obj 137 275 r \$2_IN_ON;
#X text 250 367 bg front label;
#X text 132 317 red;
#X msg 137 332 13;
#X msg 164 332 0;
#X obj 137 383 s \$1GUIinchan_mute_togui;
#X msg 137 362 color \$1 \$1 -1;
#X obj 137 298 select 0 1;
#X text 490 367 bg front label;
#X msg 404 332 0;
#X msg 377 362 color \$1 \$1 -1;
#X obj 377 275 r \$2_IN_SOLO;
#X obj 377 383 s \$1GUIinchan_solo_togui;
#X msg 377 332 16;
#X text 372 317 green;
#X obj 377 298 select 1 0;
#X obj 249 284 loadbang;
#X connect 1 0 4 0;
#X connect 2 0 6 0;
#X connect 4 0 0 0;
#X connect 5 0 9 0;
#X connect 5 1 7 0;
#X connect 6 0 5 0;
#X connect 7 0 8 1;
#X connect 9 0 3 1;
#X connect 10 0 17 0;
#X connect 13 0 16 0;
#X connect 14 0 16 0;
#X connect 16 0 15 0;
#X connect 17 0 13 0;
#X connect 17 1 14 0;
#X connect 19 0 20 0;
#X connect 20 0 22 0;
#X connect 21 0 25 0;
#X connect 23 0 20 0;
#X connect 25 0 23 0;
#X connect 25 1 19 0;
#X connect 26 0 13 0;
#X connect 26 0 19 0;
#X restore 250 252 pd mutesolo;
#X obj 436 144 loadbang;
#X obj 436 237 s \$1GUIinchan_name;
#X msg 436 212 label \$1;
#X obj 436 192 makefilename ch:%02d;
#X obj 436 170 i \$2;
#X msg 473 172 bang;
#X msg 505 213 label ch:--;
#X msg 525 269 pos 2 1;
#X obj 117 306 t s s;
#N canvas 517 36 744 544 meter 0;
#X obj 85 485 s \$1GUIinchan_level;
#X obj 58 46 inlet;
#X obj 205 284 gui_sr_offset \$1GUIinchan_vu_src \$2_IN_VU_SRC;
#X msg 515 251 symbol \$1_input_vuselect_togui;
#X text 164 463 bg lbl;
#X msg 85 462 color \$1 -1;
#X obj 85 275 r vu;
#X obj 85 304 t f;
#X obj 143 348 moses -12;
#X obj 201 368 moses 0;
#X obj 85 327 moses -80;
#X text 134 370 green;
#X text 71 349 black;
#X text 185 391 yello;
#X text 237 394 red;
#X obj 85 433 t f;
#X msg 85 370 2;
#X msg 242 409 13;
#X msg 139 386 16;
#X msg 196 406 15;
#X connect 1 0 3 0;
#X connect 3 0 2 1;
#X connect 5 0 0 0;
#X connect 6 0 7 0;
#X connect 7 0 10 0;
#X connect 8 0 18 0;
#X connect 8 1 9 0;
#X connect 9 0 19 0;
#X connect 9 1 17 0;
#X connect 10 0 16 0;
#X connect 10 1 8 0;
#X connect 15 0 5 0;
#X connect 16 0 15 0;
#X connect 17 0 15 0;
#X connect 18 0 15 0;
#X connect 19 0 15 0;
#X restore 180 335 pd meter;
#N canvas 15 219 647 591 fader 0;
#X obj 52 120 r \$1GUIinchan_fader;
#X obj 52 487 s \$1GUIinchan_fader;
#X obj 52 141 route float;
#X obj 131 403 - 100;
#X msg 52 464 label \$1;
#X msg 52 442 symbol -inf;
#X obj 52 248 max 0;
#X obj 52 269 select 0 100;
#X obj 91 382 makefilename %03d;
#X msg 91 361 0;
#X obj 131 422 makefilename %+03d;
#X obj 419 273 r \$1GUIinchan_subfader_fromgui;
#X obj 419 371 s \$1GUIinchan_subfader_togui;
#X obj 52 208 t f f;
#X obj 52 185 fadtodb;
#X obj 143 290 dbtofad;
#X obj 419 297 fadtodb;
#X obj 419 347 dbtofad;
#X obj 231 8 inlet \$0GUI-prepend;
#X obj 231 147 pack s 0;
#X msg 231 168 \; \$1_input_gain_togui set \$2;
#X obj 143 269 sendreceive \$2_IN_FADER_GAIN;
#X obj 419 322 sendreceive \$2_IN_SUB_GAIN;
#X obj 383 416 pack s 0;
#X msg 383 442 \; \$1_input_sub_togui set \$2;
#X connect 0 0 2 0;
#X connect 2 0 14 0;
#X connect 2 0 19 1;
#X connect 3 0 10 0;
#X connect 4 0 1 0;
#X connect 5 0 4 0;
#X connect 6 0 7 0;
#X connect 7 0 5 0;
#X connect 7 1 9 0;
#X connect 7 2 3 0;
#X connect 8 0 4 0;
#X connect 9 0 8 0;
#X connect 10 0 4 0;
#X connect 11 0 16 0;
#X connect 13 0 6 0;
#X connect 13 1 21 0;
#X connect 14 0 13 0;
#X connect 15 0 1 0;
#X connect 16 0 22 0;
#X connect 17 0 12 0;
#X connect 17 0 23 1;
#X connect 18 0 19 0;
#X connect 18 0 23 0;
#X connect 19 0 20 0;
#X connect 21 0 15 0;
#X connect 22 0 17 0;
#X connect 23 0 24 0;
#X restore 117 334 pd fader;
#X connect 0 0 4 0;
#X connect 0 1 5 0;
#X connect 9 0 10 0;
#X connect 10 0 11 0;
#X connect 11 0 14 0;
#X connect 12 0 16 0;
#X connect 12 1 15 0;
#X connect 13 0 25 0;
#X connect 13 1 2 0;
#X connect 13 2 3 0;
#X connect 13 3 6 0;
#X connect 14 0 13 0;
#X connect 14 1 0 0;
#X connect 14 2 12 0;
#X connect 17 0 21 0;
#X connect 19 0 18 0;
#X connect 20 0 19 0;
#X connect 21 0 20 0;
#X connect 22 0 21 0;
#X connect 23 0 18 0;
#X connect 24 0 18 0;
#X connect 25 0 27 0;
#X connect 25 1 26 0;
