#N canvas 602 80 448 488 10;
#N canvas 163 378 469 423 ambi 0;
#X obj 91 277 pack s s;
#X obj 142 255 makefilename pd-%d-pd;
#X obj 142 235 i \$1;
#X obj 91 256 symbol;
#X obj 91 121 t f b;
#X obj 123 167 t b;
#X obj 61 82 tgl 15 0 empty empty empty 0 -6 0 8 -262144 -1 -1 0 1
;
#X obj 261 382 outlet;
#X obj 315 383 outlet;
#X obj 61 62 r \$2_IN_SPATIALIZATION;
#X obj 91 144 select 0 1;
#X msg 91 299 \; \$2 clear \; \$2 obj 0 0 \$1 \; \$2 loadbang;
#X obj 262 5 inlet \$0GUI-prepend;
#X obj 61 102 t f f f;
#X obj 262 134 pack s 0;
#X msg 262 185 \; \$1_input_spat_gui \$2;
#X obj 262 62 t s s;
#X obj 264 299 t s s;
#X msg 91 216 inchan/S0;
#X msg 123 187 inchan/S1;
#X connect 0 0 11 0;
#X connect 1 0 0 1;
#X connect 2 0 1 0;
#X connect 3 0 0 0;
#X connect 4 0 10 0;
#X connect 4 1 2 0;
#X connect 5 0 19 0;
#X connect 6 0 13 0;
#X connect 9 0 6 0;
#X connect 10 0 18 0;
#X connect 10 1 5 0;
#X connect 12 0 16 0;
#X connect 13 1 4 0;
#X connect 13 2 14 1;
#X connect 14 0 15 0;
#X connect 16 0 14 0;
#X connect 16 1 17 0;
#X connect 17 0 7 0;
#X connect 17 1 8 0;
#X connect 18 0 3 0;
#X connect 19 0 3 0;
#X restore 121 410 pd ambi vs direct;
#N canvas 0 242 662 313 select 0;
#X obj 115 90 r \$1GUIinchan_select;
#X obj 115 111 t b;
#X text 109 51 FILL IN;
#X obj 363 77 r GUI_getInChannelNums;
#X obj 363 126 s GUI_InChannelNum;
#X obj 363 102 f \$2;
#X obj 115 161 s GUI_channel_select;
#X obj 115 136 f \$2;
#X connect 0 0 1 0;
#X connect 1 0 7 0;
#X connect 3 0 5 0;
#X connect 5 0 4 0;
#X connect 7 0 6 0;
#X restore 63 138 pd select;
#N canvas 0 0 481 202 aux 0;
#X obj 27 17 inlet \$0GUI-prepend;
#X obj 26 69 inchan/helper/aux \$1GUIinchan_aux1 \$2_IN_AUX_1 aux1
;
#X obj 26 41 t s s s s;
#X obj 36 89 inchan/helper/aux \$1GUIinchan_aux2 \$2_IN_AUX_2 aux2
;
#X obj 56 109 inchan/helper/aux \$1GUIinchan_aux3 \$2_IN_AUX_3 aux3
;
#X obj 76 129 inchan/helper/aux \$1GUIinchan_aux4 \$2_IN_AUX_4 aux4
;
#X connect 0 0 2 0;
#X connect 2 0 1 0;
#X connect 2 1 3 0;
#X connect 2 2 4 0;
#X connect 2 3 5 0;
#X restore 143 323 pd aux;
#N canvas 56 75 813 686 eq 0;
#X obj 50 171 r \$1GUIinchan_eq_low_gain_fromgui;
#X obj 50 247 s \$1GUIinchan_eq_low_gain_togui;
#X obj 50 268 r \$1GUIinchan_eq_mid1_gain_fromgui;
#X obj 50 344 s \$1GUIinchan_eq_mid1_gain_togui;
#X obj 50 369 r \$1GUIinchan_eq_mid2_gain_fromgui;
#X obj 50 445 s \$1GUIinchan_eq_mid2_gain_togui;
#X obj 50 489 r \$1GUIinchan_eq_hi_gain_fromgui;
#X obj 50 565 s \$1GUIinchan_eq_hi_gain_togui;
#X obj 300 269 r \$1GUIinchan_eq_mid1_freq_fromgui;
#X obj 300 340 s \$1GUIinchan_eq_mid1_freq_togui;
#X obj 300 369 r \$1GUIinchan_eq_mid2_freq_fromgui;
#X obj 300 440 s \$1GUIinchan_eq_mid2_freq_togui;
#X obj 496 580 r \$1GUIinchan_eq_hicut_tgl_fromgui;
#X obj 496 621 s \$1GUIinchan_eq_hicut_tgl_togui;
#X obj 496 513 r \$1GUIinchan_eq_lowcut_tgl_fromgui;
#X obj 496 554 s \$1GUIinchan_eq_lowcut_tgl_togui;
#X obj 56 88 r \$1GUIinchan_eq_tgl_fromgui;
#X obj 56 129 s \$1GUIinchan_eq_tgl_togui;
#X obj 50 228 - 100;
#X obj 50 190 + 100;
#X obj 50 546 - 100;
#X obj 50 508 + 100;
#X obj 50 325 - 100;
#X obj 50 287 + 100;
#X obj 50 426 - 100;
#X obj 50 388 + 100;
#X obj 89 19 inlet \$0GUI-prepend;
#X obj 50 209 sendreceive \$2_IN_EQ_LOW_GAIN;
#X obj 50 306 sendreceive \$2_IN_EQ_MID1_GAIN;
#X obj 50 407 sendreceive \$2_IN_EQ_MID2_GAIN;
#X obj 50 527 sendreceive \$2_IN_EQ_HIGH_GAIN;
#X obj 300 319 sendreceive \$2_IN_EQ_MID1_FREQ;
#X obj 300 419 sendreceive \$2_IN_EQ_MID2_FREQ;
#X obj 56 108 sendreceive \$2_IN_EQ_ON;
#X obj 496 600 sendreceive \$2_IN_EQ_HIGHCUT_ON;
#X obj 496 533 sendreceive \$2_IN_EQ_LOWCUT_ON;
#X obj 321 113 pack s 0;
#X msg 89 41 symbol \$1_input_EQ;
#X msg 321 134 \; \$1_togui set \$2;
#N canvas 57 9 952 702 setZoomWindow 0;
#X obj 64 36 inlet \$0GUI;
#X obj 161 36 inlet ON;
#X obj 221 56 inlet LC;
#X obj 281 36 inlet LO_G;
#X obj 341 56 inlet M1_G;
#X obj 401 36 inlet M1_F;
#X obj 461 56 inlet M2_G;
#X obj 521 36 inlet M2_F;
#X obj 581 56 inlet HI_G;
#X obj 110 161 pack s 0;
#X msg 110 182 \; \$1_togui set \$2;
#X obj 180 221 pack s 0;
#X obj 270 161 pack s 0;
#X obj 340 221 pack s 0;
#X obj 400 121 pack s 0;
#X obj 470 281 pack s 0;
#X obj 540 181 pack s 0;
#X obj 610 241 pack s 0;
#X obj 660 131 pack s 0;
#X msg 180 242 \; \$1_locut_togui set \$2;
#X msg 270 182 \; \$1_lo_gain_togui set \$2;
#X msg 340 242 \; \$1_mid1_gain_togui set \$2;
#X msg 400 142 \; \$1_mid1_f_togui set \$2;
#X msg 470 302 \; \$1_mid2_gain_togui set \$2;
#X msg 540 202 \; \$1_mid2_f_togui set \$2;
#X msg 610 262 \; \$1_hi_gain_togui set \$2;
#X obj 621 36 inlet HC;
#X msg 660 152 \; \$1_hicut_togui set \$2;
#X obj 367 97 t s s s s s s s s s;
#X obj 70 73 t s s;
#X obj 282 423 t s s s s s s;
#X obj 164 488 pack s 0;
#X obj 356 488 pack s 0;
#X obj 544 485 pack s 0;
#X obj 732 482 pack s 0;
#X obj 262 617 pack s 0;
#X obj 500 614 pack s 0;
#X msg 164 509 \; \$1_mid1_q_togui set \$2;
#X msg 356 509 \; \$1_mid2_q_togui set \$2;
#X msg 544 506 \; \$1_hi_f_togui set \$2;
#X msg 732 503 \; \$1_lo_f_togui set \$2;
#X msg 500 635 \; \$1_locut_f_togui set \$2;
#X msg 262 638 \; \$1_hicut_f_togui set \$2;
#X obj 215 468 r \$2_IN_EQ_MID1_Q;
#X obj 407 468 r \$2_IN_EQ_MID2_Q;
#X obj 311 596 r \$2_IN_EQ_HIGHCUT_FREQ;
#X obj 549 594 r \$2_IN_EQ_LOWCUT_FREQ;
#X obj 788 460 r \$2_IN_EQ_LOW_TRANS_FREQ;
#X obj 595 462 r \$2_IN_EQ_HIGH_TRANS_FREQ;
#X connect 0 0 29 0;
#X connect 1 0 9 1;
#X connect 2 0 11 1;
#X connect 3 0 12 1;
#X connect 4 0 13 1;
#X connect 5 0 14 1;
#X connect 6 0 15 1;
#X connect 7 0 16 1;
#X connect 8 0 17 1;
#X connect 9 0 10 0;
#X connect 11 0 19 0;
#X connect 12 0 20 0;
#X connect 13 0 21 0;
#X connect 14 0 22 0;
#X connect 15 0 23 0;
#X connect 16 0 24 0;
#X connect 17 0 25 0;
#X connect 18 0 27 0;
#X connect 26 0 18 1;
#X connect 28 0 9 0;
#X connect 28 1 11 0;
#X connect 28 2 12 0;
#X connect 28 3 13 0;
#X connect 28 4 14 0;
#X connect 28 5 15 0;
#X connect 28 6 16 0;
#X connect 28 7 17 0;
#X connect 28 8 18 0;
#X connect 29 0 30 0;
#X connect 29 1 28 0;
#X connect 30 0 31 0;
#X connect 30 1 35 0;
#X connect 30 2 32 0;
#X connect 30 3 36 0;
#X connect 30 4 33 0;
#X connect 30 5 34 0;
#X connect 31 0 37 0;
#X connect 32 0 38 0;
#X connect 33 0 39 0;
#X connect 34 0 40 0;
#X connect 35 0 42 0;
#X connect 36 0 41 0;
#X connect 43 0 31 1;
#X connect 44 0 32 1;
#X connect 45 0 35 1;
#X connect 46 0 36 1;
#X connect 47 0 34 1;
#X connect 48 0 33 1;
#X restore 174 640 pd setZoomWindow;
#X connect 0 0 19 0;
#X connect 0 0 39 3;
#X connect 2 0 23 0;
#X connect 2 0 39 4;
#X connect 4 0 25 0;
#X connect 4 0 39 6;
#X connect 6 0 21 0;
#X connect 6 0 39 8;
#X connect 8 0 31 0;
#X connect 8 0 39 5;
#X connect 10 0 32 0;
#X connect 10 0 39 7;
#X connect 12 0 34 0;
#X connect 12 0 39 9;
#X connect 14 0 35 0;
#X connect 16 0 33 0;
#X connect 18 0 1 0;
#X connect 19 0 27 0;
#X connect 20 0 7 0;
#X connect 21 0 30 0;
#X connect 22 0 3 0;
#X connect 23 0 28 0;
#X connect 24 0 5 0;
#X connect 25 0 29 0;
#X connect 26 0 37 0;
#X connect 27 0 18 0;
#X connect 28 0 22 0;
#X connect 29 0 24 0;
#X connect 30 0 20 0;
#X connect 31 0 9 0;
#X connect 32 0 11 0;
#X connect 33 0 17 0;
#X connect 33 0 39 1;
#X connect 34 0 13 0;
#X connect 35 0 15 0;
#X connect 35 0 39 2;
#X connect 36 0 38 0;
#X connect 37 0 39 0;
#X restore 152 285 pd eq;
#N canvas 255 317 752 289 ambisonic 0;
#X obj 392 53 inlet;
#X obj 38 236 gui_sr_clip \$1GUIambisonic_theta \$2_IN_AMBI_ELV 0 90
;
#X obj 392 137 t s s s;
#X obj 552 111 symbol \$1_input_ambi;
#X msg 304 162 symbol \$1_r_togui;
#X msg 415 184 symbol \$1_phi_togui;
#X msg 435 204 symbol \$1_theta_togui;
#X symbolatom 469 153 0 0 0 0 - - -;
#X msg 392 108 symbol \$1_input_ambi;
#X obj 392 85 symbol;
#X obj 42 214 gui_sr_wrap \$1GUIambisonic_phi \$2_IN_AMBI_AZM -180
180;
#X obj 43 184 gui_sr \$1GUIambisonic_r \$2_IN_AMBI_RAD;
#X connect 0 0 9 0;
#X connect 2 0 4 0;
#X connect 2 1 5 0;
#X connect 2 2 6 0;
#X connect 2 2 7 0;
#X connect 4 0 11 1;
#X connect 5 0 10 1;
#X connect 6 0 1 1;
#X connect 8 0 2 0;
#X connect 9 0 8 0;
#X restore 127 440 pd ambisonic;
#N canvas 27 498 835 697 direct 0;
#X obj 65 43 inlet;
#X obj 65 65 symbol;
#X msg 383 135 \$1_bus1_gain_gui;
#X msg 383 155 \$1_bus2_gain_gui;
#X msg 383 175 \$1_bus3_gain_gui;
#X msg 383 195 \$1_bus4_gain_gui;
#X obj 383 115 t s s s s;
#X msg 383 245 \$1_bus5_gain_gui;
#X msg 383 265 \$1_bus6_gain_gui;
#X msg 383 285 \$1_bus7_gain_gui;
#X msg 383 305 \$1_bus8_gain_gui;
#X obj 383 225 t s s s s;
#X msg 383 355 \$1_bus9_gain_gui;
#X msg 383 375 \$1_bus10_gain_gui;
#X msg 383 395 \$1_bus11_gain_gui;
#X msg 383 415 \$1_bus12_gain_gui;
#X obj 383 335 t s s s s;
#X msg 383 465 \$1_bus13_gain_gui;
#X msg 383 485 \$1_bus14_gain_gui;
#X msg 383 505 \$1_bus15_gain_gui;
#X msg 383 525 \$1_bus16_gain_gui;
#X obj 383 445 t s s s s;
#X obj 383 82 t s s s s;
#X obj 19 135 gui_sr_offset \$1GUIdirect_bus1 \$2_IN_BUS_1_GAIN;
#X obj 19 155 gui_sr_offset \$1GUIdirect_bus2 \$2_IN_BUS_2_GAIN;
#X obj 19 175 gui_sr_offset \$1GUIdirect_bus3 \$2_IN_BUS_3_GAIN;
#X obj 19 195 gui_sr_offset \$1GUIdirect_bus4 \$2_IN_BUS_4_GAIN;
#X obj 19 245 gui_sr_offset \$1GUIdirect_bus5 \$2_IN_BUS_5_GAIN;
#X obj 19 265 gui_sr_offset \$1GUIdirect_bus6 \$2_IN_BUS_6_GAIN;
#X obj 19 285 gui_sr_offset \$1GUIdirect_bus7 \$2_IN_BUS_7_GAIN;
#X obj 19 305 gui_sr_offset \$1GUIdirect_bus8 \$2_IN_BUS_8_GAIN;
#X obj 19 355 gui_sr_offset \$1GUIdirect_bus9 \$2_IN_BUS_9_GAIN;
#X obj 19 375 gui_sr_offset \$1GUIdirect_bus10 \$2_IN_BUS_10_GAIN;
#X obj 19 395 gui_sr_offset \$1GUIdirect_bus11 \$2_IN_BUS_11_GAIN;
#X obj 19 415 gui_sr_offset \$1GUIdirect_bus12 \$2_IN_BUS_12_GAIN;
#X obj 19 465 gui_sr_offset \$1GUIdirect_bus13 \$2_IN_BUS_13_GAIN;
#X obj 19 485 gui_sr_offset \$1GUIdirect_bus14 \$2_IN_BUS_14_GAIN;
#X obj 19 505 gui_sr_offset \$1GUIdirect_bus15 \$2_IN_BUS_15_GAIN;
#X obj 19 525 gui_sr_offset \$1GUIdirect_bus16 \$2_IN_BUS_16_GAIN;
#X connect 0 0 1 0;
#X connect 1 0 22 0;
#X connect 2 0 23 1;
#X connect 3 0 24 1;
#X connect 4 0 25 1;
#X connect 5 0 26 1;
#X connect 6 0 2 0;
#X connect 6 1 3 0;
#X connect 6 2 4 0;
#X connect 6 3 5 0;
#X connect 7 0 27 1;
#X connect 8 0 28 1;
#X connect 9 0 29 1;
#X connect 10 0 30 1;
#X connect 11 0 7 0;
#X connect 11 1 8 0;
#X connect 11 2 9 0;
#X connect 11 3 10 0;
#X connect 12 0 31 1;
#X connect 13 0 32 1;
#X connect 14 0 33 1;
#X connect 15 0 34 1;
#X connect 16 0 12 0;
#X connect 16 1 13 0;
#X connect 16 2 14 0;
#X connect 16 3 15 0;
#X connect 17 0 35 1;
#X connect 18 0 36 1;
#X connect 19 0 37 1;
#X connect 20 0 38 1;
#X connect 21 0 17 0;
#X connect 21 1 18 0;
#X connect 21 2 19 0;
#X connect 21 3 20 0;
#X connect 22 0 6 0;
#X connect 22 1 11 0;
#X connect 22 2 16 0;
#X connect 22 3 21 0;
#X restore 220 444 pd direct;
#N canvas 0 0 450 300 plugin 0;
#X obj 46 37 inlet \$0GUI-prepend;
#X restore 162 251 pd plugin;
#X text 24 23 this is the main section of the GUI input-channel. ALL
values are stored here \, and from here they are sent to other modules
(e.g. DSP);
#X text 47 62 Other GUI-inchannel modules (like the zoom-view) are
just slaves to this object.;
#X obj 182 123 r GUI_channel_getValues;
#X obj 182 143 route \$2;
#X msg 182 162 symbol \$1GUI;
#X obj 250 208 t s s;
#X obj 117 225 t s s s s;
#X obj 182 190 t s s s;
#N canvas 282 195 450 300 inputsection 0;
#X obj 46 37 inlet \$0GUI-prepend;
#N canvas 0 0 515 415 sourceselect 0;
#X obj 203 264 s \$1GUIinchan_inputselectname;
#X msg 203 242 label \$1;
#X obj 203 195 r \$2_IN_SRC;
#X obj 203 219 beautifysymbol;
#X obj 44 37 inlet \$0GUI-prepend;
#X msg 44 332 \; \$1_input_select_togui set \$2;
#X obj 44 266 pack s s;
#X obj 95 139 loadbang;
#X msg 95 164 symbol none;
#X connect 1 0 0 0;
#X connect 2 0 3 0;
#X connect 3 0 1 0;
#X connect 3 0 6 1;
#X connect 4 0 6 0;
#X connect 6 0 5 0;
#X connect 7 0 8 0;
#X connect 8 0 6 1;
#X restore 141 87 pd sourceselect;
#X obj 48 70 t s s s s;
#N canvas 0 0 515 415 pregain 0;
#X obj 44 37 inlet \$0GUI-prepend;
#X obj 116 205 r \$2_IN_GAIN;
#X msg 44 332 \; \$1_input_ingain_togui set \$2;
#X obj 44 266 pack s -100;
#X obj 116 231 - 100;
#X connect 0 0 3 0;
#X connect 1 0 4 0;
#X connect 3 0 2 0;
#X connect 4 0 3 1;
#X restore 86 113 pd pregain;
#N canvas 0 0 515 415 predelay 0;
#X obj 44 37 inlet \$0GUI-prepend;
#X obj 116 205 r \$2_IN_DEL;
#X obj 44 266 pack s 0;
#X msg 44 332 \; \$1_input_delay_togui set \$2;
#X connect 0 0 2 0;
#X connect 1 0 2 1;
#X connect 2 0 3 0;
#X restore 76 133 pd predelay;
#N canvas 0 0 515 415 preinvert 0;
#X obj 44 37 inlet \$0GUI-prepend;
#X msg 44 332 \; \$1_input_invert_togui set \$2;
#X obj 95 165 r \$2_IN_INV;
#X obj 95 186 * -0.5;
#X obj 95 208 + 0.5;
#X obj 44 266 pack s 0;
#X connect 0 0 5 0;
#X connect 2 0 3 0;
#X connect 3 0 4 0;
#X connect 4 0 5 1;
#X connect 5 0 1 0;
#X restore 46 157 pd preinvert;
#X connect 0 0 2 0;
#X connect 2 0 5 0;
#X connect 2 1 4 0;
#X connect 2 2 3 0;
#X connect 2 3 1 0;
#X restore 280 231 pd inputsection;
#N canvas 0 0 833 478 mutesolo 0;
#X obj 109 239 s \$1GUIinchan_solo;
#X obj 251 240 r \$1GUIinchan_solo;
#X obj 122 211 s \$1GUIinchan_mute_togui;
#X obj 122 131 r \$1GUIinchan_mute_fromgui;
#X msg 268 178 set 1;
#X obj 268 155 loadbang;
#X obj 46 37 inlet \$0GUI-prepend;
#X obj 122 170 sendreceive \$2_IN_ON;
#X obj 122 150 == 0;
#X obj 122 190 == 0;
#X obj 127 370 sendreceive \$2_IN_SOLO;
#X obj 127 349 r \$1GUIinchan_solo_fromgui;
#X obj 127 391 s \$1GUIinchan_solo_togui;
#X connect 3 0 8 0;
#X connect 4 0 2 0;
#X connect 5 0 4 0;
#X connect 7 0 9 0;
#X connect 8 0 7 0;
#X connect 9 0 2 0;
#X connect 10 0 12 0;
#X connect 11 0 10 0;
#X restore 246 262 pd mutesolo;
#N canvas 15 219 647 591 fader+level 0;
#X obj 52 120 r \$1GUIinchan_fader;
#X obj 52 487 s \$1GUIinchan_fader;
#X obj 52 141 route float;
#X obj 131 403 - 100;
#X msg 52 464 label \$1;
#X msg 52 442 symbol -inf;
#X obj 52 248 max 0;
#X obj 52 269 select 0 100;
#X obj 91 382 makefilename %03d;
#X msg 91 361 0;
#X obj 131 422 makefilename %+03d;
#X obj 480 93 s \$1GUIinchan_level;
#X obj 419 273 r \$1GUIinchan_subfader_fromgui;
#X obj 419 371 s \$1GUIinchan_subfader_togui;
#X obj 52 208 t f f;
#X obj 52 185 fadtodb;
#X obj 143 290 dbtofad;
#X obj 419 297 fadtodb;
#X obj 419 347 dbtofad;
#X obj 231 8 inlet \$0GUI-prepend;
#X obj 231 147 pack s 0;
#X msg 231 168 \; \$1_input_gain_togui set \$2;
#X obj 143 269 sendreceive \$2_IN_FADER_GAIN;
#X obj 419 322 sendreceive \$2_IN_SUB_GAIN;
#X obj 383 416 pack s 0;
#X msg 383 442 \; \$1_input_sub_togui set \$2;
#X connect 0 0 2 0;
#X connect 2 0 15 0;
#X connect 2 0 20 1;
#X connect 3 0 10 0;
#X connect 4 0 1 0;
#X connect 5 0 4 0;
#X connect 6 0 7 0;
#X connect 7 0 5 0;
#X connect 7 1 9 0;
#X connect 7 2 3 0;
#X connect 8 0 4 0;
#X connect 9 0 8 0;
#X connect 10 0 4 0;
#X connect 12 0 17 0;
#X connect 14 0 6 0;
#X connect 14 1 22 0;
#X connect 15 0 14 0;
#X connect 16 0 1 0;
#X connect 17 0 23 0;
#X connect 18 0 13 0;
#X connect 18 0 24 1;
#X connect 19 0 20 0;
#X connect 19 0 24 0;
#X connect 20 0 21 0;
#X connect 22 0 16 0;
#X connect 23 0 18 0;
#X connect 24 0 25 0;
#X restore 96 374 pd fader+level;
#X connect 0 0 4 0;
#X connect 0 1 5 0;
#X connect 9 0 10 0;
#X connect 10 0 11 0;
#X connect 11 0 14 0;
#X connect 12 0 16 0;
#X connect 12 1 15 0;
#X connect 13 0 17 0;
#X connect 13 1 2 0;
#X connect 13 2 3 0;
#X connect 13 3 6 0;
#X connect 14 0 13 0;
#X connect 14 1 0 0;
#X connect 14 2 12 0;
