#N canvas 603 218 404 269 10;
#X obj 1 1 cnv 15 66 98 empty empty ambisonic 5 8 0 8 -233017 -66577
0;
#X obj 8 31 nbx 4 14 0 999 0 0 1003GUIambisonic_r_fromgui 1003GUIambisonic_r_togui
r 50 8 0 8 -262144 -1 -1 1 256;
#X obj 8 79 nbx 4 14 -360 360 0 0 1003GUIambisonic_phi_fromgui 1003GUIambisonic_phi_togui
AZI 40 8 0 8 -262144 -1 -1 -26.0753 256;
#X obj 8 55 nbx 2 14 -1e+37 1e+37 0 0 1003GUIambisonic_theta_fromgui
1003GUIambisonic_theta_togui ELV 28 8 0 8 -262144 -1 -1 1.91807 256
;
#X obj 138 61 parent$0;
#X obj 135 37 loadbang;
#N canvas 269 490 964 309 code 0;
#X obj 194 11 inlet;
#X msg 151 67 send \$1GUIambisonic_r_fromgui \, receive \$1GUIambisonic_r_togui
;
#X msg 197 104 send \$1GUIambisonic_phi_fromgui \, receive \$1GUIambisonic_phi_togui
;
#X msg 243 140 send \$1GUIambisonic_theta_fromgui \, receive \$1GUIambisonic_theta_togui
;
#X obj 189 33 t s s s;
#X obj 614 49 loadbang;
#X obj 151 244 outlet r;
#X msg 614 82 set 1;
#X obj 231 247 outlet elevation;
#X obj 369 241 outlet azimuth;
#X connect 0 0 4 0;
#X connect 1 0 6 0;
#X connect 2 0 9 0;
#X connect 3 0 8 0;
#X connect 4 0 1 0;
#X connect 4 1 2 0;
#X connect 4 2 3 0;
#X connect 5 0 7 0;
#X connect 7 0 6 0;
#X restore 123 11 pd code . . .;
#X connect 4 0 6 0;
#X connect 5 0 4 0;
#X connect 6 0 1 0;
#X connect 6 1 3 0;
#X connect 6 2 2 0;
#X coords 0 0 1 1 66 100 1 0 0;
