#N canvas 0 0 802 392 10;
#X obj 185 181 * 2;
#X obj 185 202 + 1;
#X obj 146 226 f;
#X obj 225 181 + 1;
#X obj 225 202 t f f;
#X obj 225 224 *;
#X obj 208 246 f;
#X obj 146 272 t f;
#X obj 304 145 t b;
#X msg 304 165 0;
#X obj 146 303 outlet #dacs;
#X text 498 162 hemi: (n+1)(n+2)/2;
#X obj 146 33 inlet #type #order;
#X obj 146 58 unpack s 0;
#X obj 185 160 t f f f;
#X obj 297 215 expr ($f1+1)*($f1+2)/2;
#X obj 279 238 f;
#X text 498 144 2D: 2n+1;
#X text 495 183 3D: (n+1)^2;
#X obj 146 79 select circ sphere hemi;
#X connect 0 0 1 0;
#X connect 1 0 2 1;
#X connect 2 0 7 0;
#X connect 3 0 4 0;
#X connect 4 0 5 0;
#X connect 4 1 5 1;
#X connect 5 0 6 1;
#X connect 6 0 7 0;
#X connect 7 0 10 0;
#X connect 8 0 9 0;
#X connect 9 0 7 0;
#X connect 12 0 13 0;
#X connect 13 0 19 0;
#X connect 13 1 14 0;
#X connect 14 0 0 0;
#X connect 14 1 3 0;
#X connect 14 2 15 0;
#X connect 15 0 16 1;
#X connect 16 0 7 0;
#X connect 19 0 2 0;
#X connect 19 1 6 0;
#X connect 19 2 16 0;
#X connect 19 3 8 0;
