#N canvas 451 137 705 550 10;
#N canvas 64 29 1166 855 \$0-dacrouting 0;
#X restore 36 166 pd \$0-dacrouting;
#X text 256 90 by default x=y;
#X text 255 71 each [catch~ x_DAC] is routed to a single [dac~ y];
#X obj 304 147 hradio 15 1 0 8 empty empty empty 0 -8 0 10 -262144
-1 -1 0;
#X text 306 131 1;
#X text 257 148 1_DAC~;
#X text 320 131 2;
#X text 367 130 y;
#X text 415 129 #;
#X obj 304 162 hradio 15 1 0 8 empty empty 2_DAC~ -40 8 0 10 -262144
-1 -1 0;
#N canvas 1470 200 450 519 generator 0;
#X obj 96 126 inlet #dacs #cdacs;
#X obj 234 418 s pd-\$0-logic;
#X msg 263 383 clear;
#X obj 98 365 pack 0 0 0;
#X obj 96 223 unpack 0 0;
#X obj 96 249 t f f;
#X obj 96 278 t f b;
#X obj 96 301 until;
#X obj 98 322 i;
#X obj 127 322 + 1;
#X msg 138 302 1;
#X obj 96 156 t l b;
#X obj 267 341 loadbang;
#X obj 98 417 s pd-\$0-dacrouting;
#N canvas 1351 81 896 805 generate_single 0;
#X obj 582 367 -;
#X msg 584 329 266 142;
#X floatatom 581 409 5 0 0 0 - - -;
#X msg 376 253 bang;
#X obj 385 611 outlet logic;
#X obj 188 576 outlet gui;
#X obj 199 485 t l l l;
#X obj 36 418 t l l;
#X text 44 382 <id> <\$0> <maxnum> <y> <x0> <x1> <#compensated>;
#X obj 40 348 pack 1 \$0 8 100 100 225 4;
#X obj 29 529 pack 0 0 0;
#X obj 32 444 unpack 0 0;
#X obj 29 475 t f f;
#X obj 336 295 t b b;
#X msg 202 606 clear;
#X obj 61 502 - 1;
#X msg 29 552 \; \$2_dacrouting_\$1 \$3;
#X obj 44 77 inlet <id> <max> <compensated>;
#X obj 44 139 unpack 0 0 0;
#X obj 20 202 t f f;
#X obj 52 224 t f f;
#X msg 365 150 225 15;
#X obj 368 176 /;
#X floatatom 369 200 5 0 0 0 - - -;
#X obj 119 261 * 15;
#X obj 120 282 + 105;
#X obj 52 272 + 50;
#X msg 181 134 1 64 24;
#X obj 52 251 * 15;
#X obj 96 202 t f f;
#X msg 188 539 obj \$6 \$4 cnv 15 75 15 empty \$2_dacid_\$1 \$1 5 8
0 14 -233017 -66577 0;
#X msg 273 502 obj \$5 \$4 hradio 15 1 0 \$3 \$2_dacrouting_\$1 \$2_dacrouting_\$1
\$1_OUT -40 8 0 10 -262144 -1 -1 0;
#X msg 385 591 obj \$5 \$4 dacrouter_logic \$1 \$7 \$2;
#X connect 0 0 2 0;
#X connect 1 0 0 0;
#X connect 3 0 13 0;
#X connect 6 0 30 0;
#X connect 6 1 31 0;
#X connect 6 2 32 0;
#X connect 7 0 11 0;
#X connect 7 1 6 0;
#X connect 9 0 7 0;
#X connect 10 0 16 0;
#X connect 11 0 12 0;
#X connect 11 1 10 1;
#X connect 12 0 10 0;
#X connect 12 1 15 0;
#X connect 13 0 27 0;
#X connect 13 1 14 0;
#X connect 14 0 5 0;
#X connect 14 0 4 0;
#X connect 15 0 10 2;
#X connect 17 0 18 0;
#X connect 18 0 19 0;
#X connect 18 1 29 0;
#X connect 18 2 9 6;
#X connect 19 0 9 0;
#X connect 19 1 20 0;
#X connect 20 0 28 0;
#X connect 21 0 22 0;
#X connect 22 0 23 0;
#X connect 24 0 25 0;
#X connect 25 0 9 5;
#X connect 26 0 9 3;
#X connect 27 0 18 0;
#X connect 28 0 26 0;
#X connect 29 0 9 2;
#X connect 29 1 24 0;
#X connect 30 0 5 0;
#X connect 31 0 5 0;
#X connect 32 0 4 0;
#X restore 98 391 pd generate_single;
#N canvas 464 96 598 454 label 0;
#X obj 150 35 inlet;
#X obj 91 408 outlet;
#X msg 137 317 text 200 40 DAC~ routing:;
#X msg 182 404 clear;
#X obj 221 182 makefilename %03d;
#X obj 221 225 l2s;
#X obj 46 217 makefilename %03d;
#X obj 46 260 l2s;
#X msg 46 238 list \$1 compensated dacs;
#X msg 221 203 list \$1 uncompensated dacs;
#X msg 71 116 \$2;
#X obj 190 115 -;
#X obj 147 87 t l l b;
#X obj 86 341 t a;
#X msg 39 283 obj 300 40 cnv 15 200 15 empty empty \$1 2 8 0 14 -62784
-262144 0;
#X msg 221 248 obj 510 40 cnv 15 200 15 empty empty \$1 2 8 0 14 -166441
-262144 0;
#X connect 0 0 12 0;
#X connect 2 0 13 0;
#X connect 3 0 1 0;
#X connect 4 0 9 0;
#X connect 5 0 15 0;
#X connect 6 0 8 0;
#X connect 7 0 14 0;
#X connect 8 0 7 0;
#X connect 9 0 5 0;
#X connect 10 0 6 0;
#X connect 11 0 4 0;
#X connect 12 0 10 0;
#X connect 12 1 11 0;
#X connect 12 2 2 0;
#X connect 13 0 1 0;
#X connect 14 0 13 0;
#X connect 15 0 13 0;
#X restore 182 222 pd label;
#X obj 96 195 t l l;
#X connect 0 0 11 0;
#X connect 2 0 1 0;
#X connect 2 0 13 0;
#X connect 3 0 14 0;
#X connect 4 0 5 0;
#X connect 4 1 3 2;
#X connect 5 0 6 0;
#X connect 5 1 3 1;
#X connect 6 0 7 0;
#X connect 6 1 10 0;
#X connect 7 0 8 0;
#X connect 8 0 9 0;
#X connect 8 0 3 0;
#X connect 9 0 8 1;
#X connect 10 0 8 1;
#X connect 11 0 16 0;
#X connect 11 1 2 0;
#X connect 12 0 2 0;
#X connect 14 0 13 0;
#X connect 14 1 1 0;
#X connect 15 0 13 0;
#X connect 16 0 4 0;
#X connect 16 1 15 0;
#X restore 290 380 pd generator;
#N canvas 0 493 450 300 \$0-logic 0;
#X restore 36 147 pd \$0-logic;
#X obj 235 217 inlet;
#X obj 179 322 s pd-\$0-dacrouting;
#X msg 179 300 vis 1;
#X obj 454 225 r \$1-query-dacroute;
#X obj 453 413 s \$1-response-dacroute;
#X obj 472 290 pack 1 \$0;
#X obj 454 334 s;
#X msg 472 313 symbol \$2-query-dacroute-\$1;
#X obj 454 247 t b f;
#X obj 453 393 r \$0-response-dacroute;
#X msg 295 292 vis 0;
#X obj 235 248 t b l b;
#N canvas 320 675 768 418 \$0-dacrouting-save_load 1;
#X obj 82 140 r \$0-response-dacroute;
#X obj -35 333 s;
#X obj 6 273 pack \$0 0;
#X msg -10 305 symbol \$1-query-dacroute-\$2;
#X obj -35 164 t f b;
#X obj -35 187 until;
#X obj -33 208 i;
#X obj -4 208 + 1;
#X msg 7 188 1;
#X obj 83 197 textfile;
#X msg 24 145 clear;
#X msg 82 167 add \$1 \$2;
#X msg 150 199 print;
#X obj -68 85 bng 15 250 50 0 empty empty empty 17 7 0 10 -262144 -1
-1;
#X obj -38 141 f 2;
#X obj -46 110 t b b;
#X obj -39 26 savepanel;
#X obj -23 -15 bng 15 250 50 0 empty empty empty 17 7 0 10 -262144
-1 -1;
#X obj 356 -13 bng 15 250 50 0 empty empty empty 17 7 0 10 -262144
-1 -1;
#X obj 334 8 openpanel;
#X obj -42 55 t s b;
#X msg 70 105 write \$1;
#X obj 4 102 r \$1_dacs;
#X obj 332 84 textfile;
#X msg 286 83 print;
#X obj 321 290 s;
#X obj 333 109 t b b l;
#X msg 333 55 read \$1;
#X msg 406 85 bang;
#X msg 406 63 rewind;
#X obj 335 29 t b b s;
#X obj 407 209 pack \$0 1;
#X obj 318 190 - 1;
#X obj 373 140 unpack 1 2;
#X obj 315 167 i 1;
#X obj 391 170 t b f;
#X msg 403 233 symbol \$1_dacrouting_\$2;
#X obj -39 -36 r dac_routing_save;
#X obj 316 -36 r dac_routing_load;
#X text 73 -1 query and save to file;
#X text 75 13 load and send to gui and so on;
#X obj -33 243 t b b f;
#X connect 0 0 11 0;
#X connect 2 0 3 0;
#X connect 3 0 1 1;
#X connect 4 0 5 0;
#X connect 4 1 8 0;
#X connect 5 0 6 0;
#X connect 6 0 7 0;
#X connect 6 0 41 0;
#X connect 7 0 6 1;
#X connect 8 0 6 1;
#X connect 10 0 9 0;
#X connect 11 0 9 0;
#X connect 12 0 9 0;
#X connect 13 0 15 0;
#X connect 14 0 4 0;
#X connect 15 0 14 0;
#X connect 15 1 10 0;
#X connect 16 0 20 0;
#X connect 17 0 16 0;
#X connect 18 0 19 0;
#X connect 19 0 30 0;
#X connect 20 0 21 0;
#X connect 20 1 15 0;
#X connect 21 0 9 0;
#X connect 22 0 14 1;
#X connect 23 0 26 0;
#X connect 24 0 23 0;
#X connect 26 0 28 0;
#X connect 26 1 34 0;
#X connect 26 2 33 0;
#X connect 27 0 23 0;
#X connect 28 0 23 0;
#X connect 29 0 23 0;
#X connect 30 0 28 0;
#X connect 30 1 29 0;
#X connect 30 2 27 0;
#X connect 31 0 36 0;
#X connect 32 0 25 0;
#X connect 33 0 35 0;
#X connect 33 1 34 1;
#X connect 34 0 32 0;
#X connect 35 0 31 0;
#X connect 35 1 31 1;
#X connect 36 0 25 1;
#X connect 37 0 16 0;
#X connect 38 0 19 0;
#X connect 41 0 1 0;
#X connect 41 1 2 0;
#X connect 41 2 2 1;
#X restore 39 221 pd \$0-dacrouting-save_load;
#X connect 12 0 23 0;
#X connect 14 0 13 0;
#X connect 15 0 20 0;
#X connect 17 0 19 0;
#X connect 19 0 18 1;
#X connect 20 0 18 0;
#X connect 20 1 17 0;
#X connect 21 0 16 0;
#X connect 22 0 13 0;
#X connect 23 0 14 0;
#X connect 23 1 10 0;
#X connect 23 2 22 0;
