#N canvas 346 398 750 389 10;
#X obj 265 244 s \$3_dacid_\$1;
#X msg 265 218 label \$1;
#X text 94 61 <id> <#compensated> \$0;
#X obj 265 147 + 1;
#X obj 264 88 r \$3_dacrouting_\$1;
#X symbolatom 304 155 10 0 0 0 - - -;
#X obj 263 183 makefilename dac:%02d;
#X obj 79 271 select 0 1;
#X obj 79 240 <= \$2;
#X obj 265 123 route float;
#X obj 77 178 s \$3_dacrouting_\$1;
#X floatatom 79 112 5 0 0 0 - - -;
#X msg 82 142 color 0 \$1 12;
#X msg 79 293 22;
#X msg 159 293 18;
#X obj 88 322 t f;
#X obj 355 311 t a;
#X msg 388 288 18;
#X msg 394 259 1;
#X msg 355 332 color \$1 0;
#X obj 551 259 s \$3-response-dacroute;
#X obj 551 203 pack 0 \$1;
#X msg 551 226 \$2 \$1;
#X obj 551 119 r \$3-query-dacroute-\$1;
#X obj 551 173 i;
#X connect 1 0 0 0;
#X connect 3 0 6 0;
#X connect 3 0 8 0;
#X connect 3 0 24 1;
#X connect 4 0 9 0;
#X connect 5 0 1 0;
#X connect 6 0 1 0;
#X connect 7 0 13 0;
#X connect 7 0 18 0;
#X connect 7 1 14 0;
#X connect 7 1 17 0;
#X connect 8 0 7 0;
#X connect 9 0 3 0;
#X connect 11 0 12 0;
#X connect 12 0 10 0;
#X connect 13 0 15 0;
#X connect 14 0 15 0;
#X connect 15 0 12 0;
#X connect 16 0 19 0;
#X connect 17 0 16 0;
#X connect 18 0 16 0;
#X connect 19 0 0 0;
#X connect 21 0 22 0;
#X connect 22 0 20 0;
#X connect 23 0 24 0;
#X connect 24 0 21 0;
