#N canvas 1349 109 624 682 10;
#X obj 273 35 inlet control;
#X obj 160 37 inlet content;
#X obj 273 206 route reset symbol;
#X obj 160 251 list trim;
#X obj 160 229 list prepend add #X;
#X obj 273 527 textfile;
#X msg 273 251 clear \, add #N canvas 0 0 600 300 10;
#X obj 334 276 t b s;
#X obj 334 297 symbol \$1;
#X obj 334 317 pack s s;
#X msg 334 342 symbol \$1/\$2.pd;
#X msg 334 457 write ../\$1;
#N canvas 1496 426 450 414 forceoverwrite? 0;
#N canvas 732 234 450 300 checkexistence 0;
#X obj 63 37 inlet;
#X obj 63 242 outlet;
#X obj 63 83 symbol;
#X obj 63 107 t b s b;
#X obj 86 129 folder_list .;
#X obj 63 189 f;
#X msg 86 154 1;
#X msg 117 154 0;
#X connect 0 0 2 0;
#X connect 2 0 3 0;
#X connect 3 0 5 0;
#X connect 3 1 4 0;
#X connect 3 2 7 0;
#X connect 4 0 6 0;
#X connect 5 0 1 0;
#X connect 6 0 5 1;
#X connect 7 0 5 1;
#X restore 175 249 pd checkexistence;
#X obj 66 72 inlet;
#X obj 66 347 outlet;
#X obj 66 101 t s b;
#X obj 66 168 t s s;
#X obj 66 198 spigot 0;
#X obj 136 198 spigot 1;
#X obj 157 157 t f f;
#X obj 157 135 value gPlugin_forceoverwrite;
#X obj 175 272 == 0;
#X obj 136 293 spigot;
#X obj 136 226 t s s s;
#X obj 189 177 == 0;
#X connect 0 0 9 0;
#X connect 1 0 3 0;
#X connect 3 0 4 0;
#X connect 3 1 8 0;
#X connect 4 0 5 0;
#X connect 4 1 6 0;
#X connect 5 0 2 0;
#X connect 6 0 11 0;
#X connect 7 0 5 1;
#X connect 7 1 12 0;
#X connect 8 0 7 0;
#X connect 9 0 10 1;
#X connect 10 0 2 0;
#X connect 11 0 10 0;
#X connect 11 1 0 0;
#X connect 12 0 6 1;
#X restore 334 370 pd forceoverwrite?;
#X obj 273 498 t a a;
#X connect 0 0 2 0;
#X connect 1 0 4 0;
#X connect 2 0 6 0;
#X connect 2 1 7 0;
#X connect 3 0 13 0;
#X connect 4 0 3 0;
#X connect 6 0 13 0;
#X connect 7 0 8 0;
#X connect 7 1 9 1;
#X connect 8 0 9 0;
#X connect 9 0 10 0;
#X connect 10 0 12 0;
#X connect 11 0 13 0;
#X connect 12 0 11 0;
#X connect 13 0 5 0;
