#N canvas 411 260 624 423 10;
#X obj 273 35 inlet control;
#X obj 160 37 inlet content;
#X obj 273 206 route reset symbol;
#X obj 160 251 list trim;
#X obj 160 229 list prepend add #X;
#X obj 273 338 t a;
#X obj 273 367 textfile;
#X msg 273 251 clear \, add #N canvas 0 0 600 300 10;
#X msg 334 301 write \$1.pd;
#X connect 0 0 2 0;
#X connect 1 0 4 0;
#X connect 2 0 7 0;
#X connect 2 1 8 0;
#X connect 3 0 5 0;
#X connect 4 0 3 0;
#X connect 5 0 6 0;
#X connect 7 0 5 0;
#X connect 8 0 5 0;
