#N canvas 189 129 897 682 10;
#X obj 273 35 inlet control;
#X obj 160 37 inlet content;
#X obj 160 251 list trim;
#X obj 160 229 list prepend add #X;
#X obj 273 527 textfile;
#X obj 334 276 t b s;
#X obj 334 297 symbol \$1;
#X obj 334 317 pack s s;
#X msg 334 342 symbol \$1/\$2.pd;
#X msg 334 457 write ../\$1;
#N canvas 306 285 841 414 forceoverwrite? 0;
#N canvas 732 234 450 300 checkexistence 0;
#X obj 63 37 inlet;
#X obj 63 242 outlet;
#X obj 63 83 symbol;
#X obj 63 107 t b s b;
#X obj 86 129 folder_list .;
#X obj 63 189 f;
#X msg 86 154 1;
#X msg 117 154 0;
#X connect 0 0 2 0;
#X connect 2 0 3 0;
#X connect 3 0 5 0;
#X connect 3 1 4 0;
#X connect 3 2 7 0;
#X connect 4 0 6 0;
#X connect 5 0 1 0;
#X connect 6 0 5 1;
#X connect 7 0 5 1;
#X restore 175 249 pd checkexistence;
#X obj 66 72 inlet;
#X obj 66 347 outlet;
#X obj 66 101 t s b;
#X obj 66 168 t s s;
#X obj 66 198 spigot 0;
#X obj 136 198 spigot 1;
#X obj 157 157 t f f;
#X obj 175 272 == 0;
#X obj 136 293 spigot;
#X obj 136 226 t s s s;
#X obj 189 177 == 0;
#X obj 285 143 value gPlugin_forceoverwrite;
#X obj 334 46 inlet override;
#X obj 253 96 t b b;
#X obj 267 165 f;
#X obj 285 119 spigot 1;
#X obj 334 68 t f b;
#X msg 366 89 0;
#X connect 0 0 8 0;
#X connect 1 0 3 0;
#X connect 3 0 4 0;
#X connect 3 1 14 0;
#X connect 4 0 5 0;
#X connect 4 1 6 0;
#X connect 5 0 2 0;
#X connect 6 0 10 0;
#X connect 7 0 5 1;
#X connect 7 1 11 0;
#X connect 8 0 9 1;
#X connect 9 0 2 0;
#X connect 10 0 9 0;
#X connect 10 1 0 0;
#X connect 11 0 6 1;
#X connect 12 0 15 1;
#X connect 13 0 17 0;
#X connect 14 0 15 0;
#X connect 14 1 16 0;
#X connect 15 0 7 0;
#X connect 16 0 12 0;
#X connect 17 0 15 1;
#X connect 17 1 18 0;
#X connect 18 0 16 1;
#X restore 334 370 pd forceoverwrite?;
#X obj 273 498 t a a;
#X obj 564 46 inlet offset size;
#X obj 273 140 t b;
#X obj 273 163 f;
#X obj 273 185 pack 0 0 600 300;
#X msg 273 251 clear \, add #N canvas \$1 \$2 \$3 \$4 10;
#X obj 564 112 unpack 0 0 0 0;
#X obj 273 116 route reset symbol overwrite;
#X connect 0 0 18 0;
#X connect 1 0 3 0;
#X connect 2 0 11 0;
#X connect 3 0 2 0;
#X connect 5 0 6 0;
#X connect 5 1 7 1;
#X connect 6 0 7 0;
#X connect 7 0 8 0;
#X connect 8 0 10 0;
#X connect 9 0 11 0;
#X connect 10 0 9 0;
#X connect 11 0 4 0;
#X connect 12 0 17 0;
#X connect 13 0 14 0;
#X connect 14 0 15 0;
#X connect 15 0 16 0;
#X connect 16 0 11 0;
#X connect 17 0 14 1;
#X connect 17 1 15 1;
#X connect 17 2 15 2;
#X connect 17 3 15 3;
#X connect 18 0 13 0;
#X connect 18 1 5 0;
#X connect 18 2 10 1;
