#N canvas 411 260 624 423 10;
#X obj 273 35 inlet control;
#X obj 160 37 inlet content;
#X obj 273 206 route reset symbol;
#X msg 334 301 write \$1;
#X obj 160 251 list trim;
#X obj 160 229 list prepend add #X;
#X obj 273 338 t a;
#X obj 273 367 textfile;
#X msg 273 251 clear \, add #N canvas 0 0 600 300 10;
#N canvas 0 0 450 300 \$0-test 1;
#X restore 395 129 pd \$0-test;
#X obj 160 124 s pd-\$0-test;
#X obj 273 62 route reset symbol;
#X msg 273 88 vis 1 \, clear;
#X connect 0 0 11 0;
#X connect 1 0 10 0;
#X connect 2 0 8 0;
#X connect 2 1 3 0;
#X connect 3 0 6 0;
#X connect 4 0 6 0;
#X connect 5 0 4 0;
#X connect 6 0 7 0;
#X connect 8 0 6 0;
#X connect 11 0 12 0;
#X connect 12 0 10 0;
