#N canvas 1349 109 624 682 10;
#X obj 273 35 inlet control;
#X obj 160 37 inlet content;
#X obj 160 181 list trim;
#X obj 273 527 textfile;
#X obj 337 276 t b s;
#X obj 337 297 symbol \$1;
#X obj 337 317 pack s s;
#N canvas 1496 426 450 485 forceoverwrite? 0;
#N canvas 732 234 450 300 checkexistence 0;
#X obj 63 37 inlet;
#X obj 63 242 outlet;
#X obj 63 83 symbol;
#X obj 63 107 t b s b;
#X obj 86 129 folder_list .;
#X obj 63 189 f;
#X msg 86 154 1;
#X msg 117 154 0;
#X connect 0 0 2 0;
#X connect 2 0 3 0;
#X connect 3 0 5 0;
#X connect 3 1 4 0;
#X connect 3 2 7 0;
#X connect 4 0 6 0;
#X connect 5 0 1 0;
#X connect 6 0 5 1;
#X connect 7 0 5 1;
#X restore 175 289 pd checkexistence;
#X obj 66 72 inlet;
#X obj 66 387 outlet;
#X obj 66 101 t s b;
#X obj 66 208 t s s;
#X obj 66 238 spigot 0;
#X obj 136 238 spigot 1;
#X obj 157 197 t f f;
#X obj 175 143 value gPlugin_forceoverwrite;
#X obj 175 312 == 0;
#X obj 136 333 spigot;
#X obj 136 266 t s s s;
#X obj 189 217 == 0;
#X obj 224 46 inlet override;
#X obj 143 96 t b b;
#X obj 157 165 f;
#X obj 175 119 spigot 1;
#X obj 224 68 t f b;
#X msg 256 89 0;
#X connect 0 0 9 0;
#X connect 1 0 3 0;
#X connect 3 0 4 0;
#X connect 3 1 14 0;
#X connect 4 0 5 0;
#X connect 4 1 6 0;
#X connect 5 0 2 0;
#X connect 6 0 11 0;
#X connect 7 0 5 1;
#X connect 7 1 12 0;
#X connect 8 0 15 1;
#X connect 9 0 10 1;
#X connect 10 0 2 0;
#X connect 11 0 10 0;
#X connect 11 1 0 0;
#X connect 12 0 6 1;
#X connect 13 0 17 0;
#X connect 14 0 15 0;
#X connect 14 1 16 0;
#X connect 15 0 7 0;
#X connect 16 0 8 0;
#X connect 17 0 15 1;
#X connect 17 1 18 0;
#X connect 18 0 16 1;
#X restore 337 370 pd forceoverwrite?;
#X obj 273 498 t a a;
#X msg 337 342 symbol \$1/\$2;
#X msg 273 251 clear;
#X obj 160 162 list prepend add;
#X msg 337 457 write ../\$1 cr;
#X obj 273 206 route reset symbol overwrite;
#X connect 0 0 13 0;
#X connect 1 0 11 0;
#X connect 2 0 8 0;
#X connect 4 0 5 0;
#X connect 4 1 6 1;
#X connect 5 0 6 0;
#X connect 6 0 9 0;
#X connect 7 0 12 0;
#X connect 8 0 3 0;
#X connect 9 0 7 0;
#X connect 10 0 8 0;
#X connect 11 0 2 0;
#X connect 12 0 8 0;
#X connect 13 0 10 0;
#X connect 13 1 4 0;
#X connect 13 2 7 1;
