#N canvas 0 0 549 589 10;
#X msg 69 216 error:: \$1 not yet implemented!!;
#X obj 69 190 symbol;
#X msg 49 137 SAVE-settings;
#X msg 163 144 LOAD-settings;
#X obj 69 244 print CONFIGURATOR;
#X text 62 56 so many things todo...;
#N canvas 613 0 1168 903 save 0;
#X obj 92 48 r \$1_adcs;
#X obj 162 48 r \$1_dacs;
#X obj 232 48 r \$1_daccs;
#X obj 342 48 r \$1_channels;
#X obj 442 48 r \$1_fx;
#X obj 842 48 r \$1_auxsend;
#X obj 932 48 r \$1_auxsums;
#X obj 552 48 r \$1_bus;
#X obj 430 187 r \$1_ambidim;
#X obj 530 187 r \$1_ambiorder;
#X obj 640 187 r \$1_ambitype;
#X obj 750 187 r \$1_ambidacs;
#X obj 63 262 inlet;
#X obj 622 48 r \$1_lfc;
#X obj 128 319 pack 0 0 0 0 0 0 0 0 0 0 0 0 s 0 0 0;
#X obj 128 377 l2i;
#X obj 128 415 list split 1;
#N canvas 0 0 830 696 prepend_names 0;
#X obj 168 58 unpack 0 0 0 0 0 0 0 0 0 0 0 s 0 0 0;
#X obj 98 87 list prepend #adc;
#X obj 115 137 list prepend #dac;
#X obj 133 197 list prepend #dac_compensated;
#X obj 151 247 list prepend #channels;
#X obj 178 297 list prepend #fx;
#X obj 195 347 list prepend #bus;
#X obj 204 388 list prepend #lfc;
#X obj 231 457 list prepend #auxsend;
#X obj 328 87 list prepend #auxsum;
#X obj 345 137 list prepend ambisonic_dimension;
#X obj 363 197 list prepend ambisonic_order;
#X obj 381 247 list prepend ambisonic_type;
#X obj 408 297 list prepend #dac_ambisonic;
#X obj 98 475 t a;
#X obj 168 29 inlet;
#X obj 98 513 outlet;
#X connect 0 0 1 0;
#X connect 0 1 3 0;
#X connect 0 2 2 0;
#X connect 0 3 4 0;
#X connect 0 4 5 0;
#X connect 0 5 6 0;
#X connect 0 6 7 0;
#X connect 0 7 8 0;
#X connect 0 8 9 0;
#X connect 0 9 10 0;
#X connect 0 10 11 0;
#X connect 0 11 12 0;
#X connect 0 12 13 0;
#X connect 1 0 14 0;
#X connect 2 0 14 0;
#X connect 3 0 14 0;
#X connect 4 0 14 0;
#X connect 5 0 14 0;
#X connect 6 0 14 0;
#X connect 7 0 14 0;
#X connect 8 0 14 0;
#X connect 9 0 14 0;
#X connect 10 0 14 0;
#X connect 11 0 14 0;
#X connect 12 0 14 0;
#X connect 13 0 14 0;
#X connect 14 0 16 0;
#X connect 15 0 0 0;
#X restore 127 440 pd prepend_names;
#X obj 63 285 t s b b;
#X obj 127 581 textfile;
#X msg 188 551 clear;
#X obj 127 466 list prepend add;
#X obj 127 491 list trim;
#X msg 63 533 write \$1 cr;
#X obj 567 220 symbol;
#X connect 0 0 14 1;
#X connect 1 0 14 3;
#X connect 2 0 14 2;
#X connect 3 0 14 4;
#X connect 4 0 14 5;
#X connect 5 0 14 8;
#X connect 6 0 14 9;
#X connect 7 0 14 6;
#X connect 8 0 14 10;
#X connect 9 0 14 11;
#X connect 10 0 24 0;
#X connect 11 0 14 13;
#X connect 12 0 18 0;
#X connect 13 0 14 7;
#X connect 14 0 15 0;
#X connect 15 0 16 0;
#X connect 16 1 17 0;
#X connect 17 0 21 0;
#X connect 18 0 23 0;
#X connect 18 1 14 0;
#X connect 18 2 20 0;
#X connect 20 0 19 0;
#X connect 21 0 22 0;
#X connect 22 0 19 0;
#X connect 23 0 19 0;
#X connect 24 0 14 12;
#X restore 70 350 pd save;
#X obj 70 326 savepanel;
#X obj 70 303 bng 15 250 50 0 empty empty empty 17 7 0 10 -262144 -1
-1;
#X obj 160 303 bng 15 250 50 0 empty empty empty 17 7 0 10 -262144
-1 -1;
#N canvas 0 0 439 772 load 0;
#X obj 63 52 inlet;
#X obj 63 201 textfile;
#X obj 63 237 routesend #adc \$1_adcs;
#X obj 63 257 routesend #dac \$1_dacs;
#X obj 63 277 routesend #dac_compensated \$1_daccs;
#X obj 63 297 routesend #channels \$1_channels;
#X obj 63 317 routesend #fx \$1_fx;
#X obj 63 337 routesend #bus \$1_bus;
#X obj 63 357 routesend #lfc \$1_lfc;
#X obj 63 377 routesend #auxsend \$1_auxsend;
#X obj 63 397 routesend #auxsum \$1_auxsum;
#X obj 63 417 routesend ambisonic_dimension \$1_ambidim;
#X obj 63 437 routesend ambisonic_order \$1_ambiorder;
#X obj 63 457 routesend #dac_ambisonic \$1_ambidacs;
#X obj 63 175 until;
#X obj 63 83 t b s;
#X obj 63 585 print CONFIGURATOR;
#X obj 63 542 list prepend error:: unknown key-value pair;
#X obj 63 562 list trim;
#X obj 63 477 routesend ambisonic_type \$1_ambitype;
#X obj 257 199 t a a;
#X obj 298 227 print loading;
#X obj 63 127 t b b;
#X msg 77 149 rewind;
#X msg 107 175 read \$1 cr;
#X obj 63 106 t b b;
#X connect 0 0 15 0;
#X connect 1 0 20 0;
#X connect 1 1 14 1;
#X connect 2 0 3 0;
#X connect 3 0 4 0;
#X connect 4 0 5 0;
#X connect 5 0 6 0;
#X connect 6 0 7 0;
#X connect 7 0 8 0;
#X connect 8 0 9 0;
#X connect 9 0 10 0;
#X connect 10 0 11 0;
#X connect 11 0 12 0;
#X connect 12 0 13 0;
#X connect 13 0 19 0;
#X connect 14 0 1 0;
#X connect 15 0 25 0;
#X connect 15 1 24 0;
#X connect 17 0 18 0;
#X connect 18 0 16 0;
#X connect 19 0 17 0;
#X connect 20 0 2 0;
#X connect 20 1 21 0;
#X connect 22 0 14 0;
#X connect 22 1 23 0;
#X connect 23 0 1 0;
#X connect 24 0 1 0;
#X connect 25 0 22 0;
#X connect 25 1 22 0;
#X restore 160 350 pd load;
#X obj 160 326 openpanel;
#X obj 54 281 r \$1_save;
#X obj 142 282 r \$1_load;
#X connect 0 0 4 0;
#X connect 1 0 0 0;
#X connect 2 0 1 0;
#X connect 3 0 1 0;
#X connect 7 0 6 0;
#X connect 8 0 7 0;
#X connect 9 0 11 0;
#X connect 11 0 10 0;
#X connect 12 0 7 0;
#X connect 13 0 11 0;
