#N canvas 86 93 1076 409 10;
#X obj 90 35 inlet~;
#X obj 75 265 outlet~;
#X obj 28 265 outlet~;
#X obj 266 265 outlet~;
#X obj 218 265 outlet~;
#X text 56 281 front;
#X text 251 281 rear;
#X obj 132 35 inlet~;
#X obj 90 107 hp1~ 7;
#X obj 133 107 hp1~ 7;
#X obj 170 265 outlet~;
#X obj 123 265 outlet~;
#X text 155 280 side;
#X obj 684 270 outlet~;
#X obj 637 270 outlet~;
#X obj 875 270 outlet~;
#X obj 827 270 outlet~;
#X text 665 286 front;
#X text 860 286 rear;
#X obj 779 270 outlet~;
#X obj 732 270 outlet~;
#X text 764 285 side;
#X text 133 305 early echoes;
#X text 740 312 late reverb;
#X obj 173 35 inlet~;
#X obj 215 35 inlet~;
#X obj 173 107 hp1~ 7;
#X obj 216 107 hp1~ 7;
#X obj 256 35 inlet~;
#X obj 298 35 inlet~;
#X obj 256 107 hp1~ 7;
#X obj 299 107 hp1~ 7;
#X obj 355 264 outlet~;
#X obj 308 264 outlet~;
#X obj 546 264 outlet~;
#X obj 498 264 outlet~;
#X text 336 280 front;
#X text 531 280 rear;
#X obj 450 264 outlet~;
#X obj 403 264 outlet~;
#X text 435 279 side;
#X obj 89 172 12reverb_6_12_6~ \$2 \$3 _____________________________________
;
#X text 31 362 3.arg: <float/sym> performance of feedback-delays;
#X text 333 362 (0 \, stat \, dyn) default: 0 = stat;
#X text 31 349 2.arg: <float/sym> performance of feedback-matrix;
#X text 333 349 (0 \, ++ \, +++ \, ++++) default: 0 = ++;
#X text 31 336 1.arg: <float> reverb-order (12);
#X obj 432 44 inlet;
#X connect 0 0 8 0;
#X connect 7 0 9 0;
#X connect 8 0 41 0;
#X connect 9 0 41 1;
#X connect 24 0 26 0;
#X connect 25 0 27 0;
#X connect 26 0 41 2;
#X connect 27 0 41 3;
#X connect 28 0 30 0;
#X connect 29 0 31 0;
#X connect 30 0 41 4;
#X connect 31 0 41 5;
#X connect 41 0 2 0;
#X connect 41 1 1 0;
#X connect 41 2 11 0;
#X connect 41 3 10 0;
#X connect 41 4 4 0;
#X connect 41 5 3 0;
#X connect 41 6 33 0;
#X connect 41 7 32 0;
#X connect 41 8 39 0;
#X connect 41 9 38 0;
#X connect 41 10 35 0;
#X connect 41 11 34 0;
#X connect 41 12 14 0;
#X connect 41 13 13 0;
#X connect 41 14 20 0;
#X connect 41 15 19 0;
#X connect 41 16 16 0;
#X connect 41 17 15 0;
#X connect 47 0 41 6;
