#N canvas 58 0 1133 373 10;
#N canvas 59 155 1036 746 EDIT_early_reverb 0;
#X obj 26 45 vsl 15 121 0 120 0 0 empty empty empty 0 -8 0 8 -6177
-1 -1 4700 1;
#X obj 26 440 fadtodb;
#X obj 26 468 - 100;
#X floatatom 26 172 4 0 0 0 - - -;
#X obj 76 45 vsl 15 121 0.16 16 1 0 empty empty empty 0 -8 0 8 -14404
-1 -1 8938 1;
#X floatatom 76 172 4 0 0 0 - - -;
#X obj 27 16 cnv 8 1 1 empty empty early 0 4 0 10 -262144 -1 0;
#X obj 27 24 cnv 8 1 1 empty empty echoes 0 4 0 10 -262144 -1 0;
#X obj 27 32 cnv 8 1 1 empty empty gain 0 4 0 10 -262144 -1 0;
#X obj 58 176 cnv 8 1 1 empty empty dB 0 4 0 10 -262144 -1 0;
#X obj 108 176 cnv 8 1 1 empty empty kHz 0 4 0 10 -262144 -1 0;
#X obj 77 16 cnv 8 1 1 empty empty early 0 4 0 10 -262144 -1 0;
#X obj 77 24 cnv 8 1 1 empty empty cutoff 0 4 0 10 -262144 -1 0;
#X obj 77 32 cnv 8 1 1 empty empty freq 0 4 0 10 -262144 -1 0;
#X obj 124 45 vsl 15 121 0 120 0 0 empty empty empty 0 -8 0 8 -11118
-1 -1 3600 1;
#X obj 126 441 fadtodb;
#X obj 126 473 - 100;
#X floatatom 126 172 4 0 0 0 - - -;
#X obj 127 24 cnv 8 1 1 empty empty reverb 0 4 0 10 -262144 -1 0;
#X obj 127 32 cnv 8 1 1 empty empty gain 0 4 0 10 -262144 -1 0;
#X obj 158 176 cnv 8 1 1 empty empty dB 0 4 0 10 -262144 -1 0;
#X obj 176 45 vsl 15 121 0.16 16 1 0 empty empty empty 0 -8 0 8 -15044
-1 -1 8138 1;
#X floatatom 176 172 4 0 0 0 - - -;
#X obj 208 176 cnv 8 1 1 empty empty kHz 0 4 0 10 -262144 -1 0;
#X obj 177 16 cnv 8 1 1 empty empty reverb 0 4 0 10 -262144 -1 0;
#X obj 177 24 cnv 8 1 1 empty empty cutoff 0 4 0 10 -262144 -1 0;
#X obj 177 32 cnv 8 1 1 empty empty freq 0 4 0 10 -262144 -1 0;
#X obj 226 45 vsl 15 121 0.1 60 1 0 empty empty empty 0 -8 0 8 -200880
-1 -1 7800 1;
#X floatatom 226 172 4 0 0 0 - - -;
#X obj 258 176 cnv 8 1 1 empty empty sec 0 4 0 10 -262144 -1 0;
#X obj 227 8 cnv 8 1 1 empty empty reverb 0 4 0 10 -262144 -1 0;
#X obj 227 16 cnv 8 1 1 empty empty low 0 4 0 10 -262144 -1 0;
#X obj 227 24 cnv 8 1 1 empty empty decay 0 4 0 10 -262144 -1 0;
#X obj 227 32 cnv 8 1 1 empty empty time 0 4 0 10 -262144 -1 0;
#X obj 326 45 vsl 15 121 0.1 60 1 0 empty empty empty 0 -8 0 8 -250685
-1 -1 6793 1;
#X floatatom 326 172 4 0 0 0 - - -;
#X obj 358 176 cnv 8 1 1 empty empty sec 0 4 0 10 -262144 -1 0;
#X obj 327 8 cnv 8 1 1 empty empty reverb 0 4 0 10 -262144 -1 0;
#X obj 327 16 cnv 8 1 1 empty empty mid 0 4 0 10 -262144 -1 0;
#X obj 327 24 cnv 8 1 1 empty empty decay 0 4 0 10 -262144 -1 0;
#X obj 327 32 cnv 8 1 1 empty empty time 0 4 0 10 -262144 -1 0;
#X obj 426 45 vsl 15 121 0.1 60 1 0 empty empty empty 0 -8 0 8 -255806
-1 -1 6201 1;
#X floatatom 426 172 4 0 0 0 - - -;
#X obj 458 176 cnv 8 1 1 empty empty sec 0 4 0 10 -262144 -1 0;
#X obj 427 8 cnv 8 1 1 empty empty reverb 0 4 0 10 -262144 -1 0;
#X obj 427 16 cnv 8 1 1 empty empty high 0 4 0 10 -262144 -1 0;
#X obj 427 24 cnv 8 1 1 empty empty decay 0 4 0 10 -262144 -1 0;
#X obj 427 32 cnv 8 1 1 empty empty time 0 4 0 10 -262144 -1 0;
#X obj 276 45 vsl 15 121 0.05 1 1 0 empty empty empty 0 -8 0 8 -24198
-1 -1 6444 1;
#X floatatom 276 172 4 0 0 0 - - -;
#X obj 308 176 cnv 8 1 1 empty empty kHz 0 4 0 10 -262144 -1 0;
#X obj 277 8 cnv 8 1 1 empty empty reverb 0 4 0 10 -262144 -1 0;
#X obj 277 16 cnv 8 1 1 empty empty low_mid 0 4 0 10 -262144 -1 0;
#X obj 277 24 cnv 8 1 1 empty empty decay 0 4 0 10 -262144 -1 0;
#X obj 277 32 cnv 8 1 1 empty empty freq 0 4 0 10 -262144 -1 0;
#X obj 376 45 vsl 15 121 1 16 1 0 empty empty empty 0 -8 0 8 -110363
-1 -1 5700 1;
#X floatatom 376 172 4 0 0 0 - - -;
#X obj 408 176 cnv 8 1 1 empty empty kHz 0 4 0 10 -262144 -1 0;
#X obj 377 8 cnv 8 1 1 empty empty reverb 0 4 0 10 -262144 -1 0;
#X obj 377 16 cnv 8 1 1 empty empty mid_high 0 4 0 10 -262144 -1 0
;
#X obj 377 24 cnv 8 1 1 empty empty decay 0 4 0 10 -262144 -1 0;
#X obj 377 32 cnv 8 1 1 empty empty freq 0 4 0 10 -262144 -1 0;
#X obj 140 750 outlet;
#X obj 194 709 pp reverb;
#X obj 176 634 pp cutoff;
#X obj 126 536 pp gain;
#X obj 76 632 pp cutoff;
#X obj 26 535 pp gain;
#X obj 76 704 pp early;
#X obj 276 590 pp dec_lm_freq;
#X obj 376 589 pp dec_mh_freq;
#X obj 226 612 pp dec_l_time;
#X obj 326 613 pp dec_m_time;
#X obj 38 610 dbtofad;
#X obj 126 613 dbtofad;
#X obj 426 611 pp dec_h_time;
#X obj 582 13 cnv 8 1 1 empty empty recall 0 4 0 10 -262144 -1 0;
#X obj 499 137 cnv 8 1 1 empty empty delay 0 4 0 10 -262144 -1 0;
#X obj 52 202 cnv 8 1 1 empty empty early_echo 0 4 0 10 -262144 -1
0;
#X obj 26 507 pp 0;
#X obj 76 499 pp 1;
#X msg 582 200 recall;
#X obj 26 565 f;
#X obj 76 602 f;
#X obj 126 566 f;
#X obj 176 581 f;
#X obj 226 567 f;
#X obj 276 558 f;
#X obj 326 555 f;
#X obj 376 554 f;
#X obj 426 553 f;
#X obj 49 325 f;
#X obj 49 348 f;
#X obj 89 326 f;
#X obj 89 348 f;
#X obj 582 32 vradio 10 1 0 10 empty empty empty 0 -6 0 8 -257989 -1
-1 0;
#X obj 582 164 t b f;
#X obj 583 21 cnv 8 1 1 empty empty preset 0 4 0 10 -262144 -1 0;
#X obj 763 134 symbol;
#X obj 94 537 pp 2;
#X floatatom 94 112 4 0.1 2 0 - - -;
#X obj 95 101 cnv 8 1 1 empty empty Q 0 4 0 10 -262144 -1 0;
#X floatatom 194 112 4 0.1 2 0 - - -;
#X obj 195 101 cnv 8 1 1 empty empty Q 0 4 0 10 -262144 -1 0;
#X obj 126 508 pp 3;
#X obj 176 496 pp 4;
#X obj 194 536 pp 5;
#X obj 226 536 pp 6;
#X obj 276 527 pp 7;
#X obj 326 533 pp 8;
#X obj 376 533 pp 9;
#X obj 426 537 pp 10;
#X obj 49 279 pp 11;
#X obj 49 300 pp 12;
#X obj 94 281 pp 13;
#X obj 91 303 pp 14;
#X obj 94 570 f;
#X obj 194 559 f;
#X obj 94 664 pp Q;
#X obj 194 665 pp Q;
#X obj 43 43 vfad_scale -1;
#X obj 143 43 vfad_scale -1;
#X obj 123 202 cnv 8 1 1 empty empty delay_time 0 4 0 10 -262144 -1
0;
#X obj 262 219 cnv 8 1 1 empty empty ms 0 4 0 10 -262144 -1 0;
#X floatatom 223 215 5 0.1 1000 0 - - -;
#X obj 516 219 cnv 8 1 1 empty empty ms 0 4 0 10 -262144 -1 0;
#X floatatom 477 215 5 0.1 1000 0 - - -;
#X obj 52 234 cnv 8 1 1 empty empty early_echo 0 4 0 10 -262144 -1
0;
#X obj 119 234 cnv 8 1 1 empty empty damping 0 4 0 10 -262144 -1 0
;
#X obj 262 249 cnv 8 1 1 empty empty dB 0 4 0 10 -262144 -1 0;
#X floatatom 223 245 5 -100 0 0 - - -;
#X obj 516 249 cnv 8 1 1 empty empty dB 0 4 0 10 -262144 -1 0;
#X floatatom 477 245 5 -100 0 0 - - -;
#X obj 499 60 cnv 8 1 1 empty empty reverb 0 4 0 10 -262144 -1 0;
#X obj 500 76 cnv 8 1 1 empty empty modulation 0 4 0 10 -262144 -1
0;
#X obj 540 99 cnv 8 1 1 empty empty Hz 0 4 0 10 -262144 -1 0;
#X floatatom 501 95 5 0.01 10 0 - - -;
#X obj 481 99 cnv 8 1 1 empty empty max: 0 4 0 10 -262144 -1 0;
#X obj 540 115 cnv 8 1 1 empty empty Hz 0 4 0 10 -262144 -1 0;
#X floatatom 501 111 5 0.01 10 0 - - -;
#X obj 481 115 cnv 8 1 1 empty empty min: 0 4 0 10 -262144 -1 0;
#X obj 499 85 cnv 8 1 1 empty empty freq 0 4 0 10 -262144 -1 0;
#X obj 499 129 cnv 8 1 1 empty empty reverb 0 4 0 10 -262144 -1 0;
#X obj 500 145 cnv 8 1 1 empty empty modulation 0 4 0 10 -262144 -1
0;
#X obj 540 169 cnv 8 1 1 empty empty cents 0 4 0 10 -262144 -1 0;
#X floatatom 501 165 5 0 20 0 - - -;
#X obj 481 169 cnv 8 1 1 empty empty max: 0 4 0 10 -262144 -1 0;
#X obj 540 185 cnv 8 1 1 empty empty cents 0 4 0 10 -262144 -1 0;
#X floatatom 501 181 5 0 20 0 - - -;
#X obj 481 185 cnv 8 1 1 empty empty min: 0 4 0 10 -262144 -1 0;
#X obj 499 154 cnv 8 1 1 empty empty amplitude 0 4 0 10 -262144 -1
0;
#X obj 499 68 cnv 8 1 1 empty empty delay 0 4 0 10 -262144 -1 0;
#X obj 628 13 cnv 8 1 1 empty empty store 0 4 0 10 -262144 -1 0;
#X obj 628 32 vradio 10 1 0 10 empty empty empty 0 -6 0 8 -258699 -1
-1 3;
#X obj 629 21 cnv 8 1 1 empty empty preset 0 4 0 10 -262144 -1 0;
#X obj 628 163 t b f;
#X msg 625 215 store;
#X obj 547 459 f;
#X obj 547 482 f;
#X obj 547 503 f;
#X obj 547 526 f;
#X obj 499 7 cnv 8 1 1 empty empty reverb 0 4 0 10 -262144 -1 0;
#X obj 499 16 cnv 8 1 1 empty empty delay_time 0 4 0 10 -262144 -1
0;
#X obj 540 31 cnv 8 1 1 empty empty ms 0 4 0 10 -262144 -1 0;
#X floatatom 501 27 5 0.1 1000 0 - - -;
#X obj 481 31 cnv 8 1 1 empty empty max: 0 4 0 10 -262144 -1 0;
#X obj 540 47 cnv 8 1 1 empty empty ms 0 4 0 10 -262144 -1 0;
#X floatatom 501 43 5 0.1 1000 0 - - -;
#X obj 481 47 cnv 8 1 1 empty empty min: 0 4 0 10 -262144 -1 0;
#X obj 751 580 s \$0_read;
#X obj 899 563 s \$0_write;
#X obj 917 449 del 100;
#X msg 917 469 color 13 22;
#X msg 888 473 183;
#X obj 888 494 * -65536;
#X obj 888 515 - 1;
#X msg 888 536 color \$1 22;
#X obj 803 428 del 100;
#X obj 751 535 - 1;
#X msg 751 556 color \$1 22;
#X obj 803 511 - 1;
#X msg 803 532 color \$1 22;
#X obj 803 490 * -256;
#X obj 751 514 * -256;
#X obj 803 470 * 257;
#X msg 803 448 255;
#X obj 751 494 * 259;
#X msg 751 471 230;
#X obj 883 141 symbol;
#X obj 763 25 inlet;
#X obj 548 413 f;
#X obj 548 436 f;
#X obj 38 588 + 100;
#X obj 126 590 + 100;
#X obj 344 651 schedule_max_min;
#X obj 617 590 schedule_max_min;
#X obj 653 659 schedule_max_min;
#X obj 344 673 exp_uzi \$1;
#X obj 262 435 pp delay;
#X obj 344 696 pp del_time;
#X obj 653 704 pp del_mod_amp;
#X obj 653 681 exp_uzi \$1;
#X obj 617 636 pp del_mod_freq;
#X obj 617 613 exp_uzi \$1;
#X obj 134 281 pp 15;
#X obj 133 302 pp 16;
#X obj 175 280 pp 17;
#X obj 172 302 pp 18;
#X obj 215 280 pp 19;
#X obj 214 301 pp 20;
#X obj 257 281 pp 21;
#X obj 253 304 pp 22;
#X obj 305 285 pp 23;
#X obj 304 306 pp 24;
#X obj 347 286 pp 25;
#X obj 344 308 pp 26;
#X obj 387 287 pp 27;
#X obj 386 308 pp 28;
#X obj 429 287 pp 29;
#X obj 426 309 pp 30;
#X obj 469 287 pp 31;
#X obj 468 308 pp 32;
#X obj 512 287 pp 33;
#X obj 509 309 pp 34;
#X obj 584 412 pp 35;
#X obj 584 433 pp 36;
#X obj 585 456 pp 37;
#X obj 585 476 pp 38;
#X obj 585 496 pp 39;
#X obj 585 517 pp 40;
#X obj 621 332 iem_pbank_csv 41 10;
#X obj 571 364 unpack 0 0 0 0 0 0 0 0 0 0 0 0 0 0 0 0 0 0 0 0 0 0 0
0 0 0 0 0 0 0 0 0 0 0 0 0 0 0 0 0 0;
#X floatatom 183 215 5 0.1 1000 0 - - -;
#X floatatom 437 215 5 0.1 1000 0 - - -;
#X floatatom 183 245 5 -100 0 0 - - -;
#X floatatom 437 245 5 -100 0 0 - - -;
#X floatatom 143 215 5 0.1 1000 0 - - -;
#X floatatom 397 215 5 0.1 1000 0 - - -;
#X floatatom 143 245 5 -100 0 0 - - -;
#X floatatom 397 245 5 -100 0 0 - - -;
#X floatatom 103 215 5 0.1 1000 0 - - -;
#X floatatom 357 215 5 0.1 1000 0 - - -;
#X floatatom 103 245 5 -100 0 0 - - -;
#X floatatom 357 245 5 -100 0 0 - - -;
#X floatatom 63 215 5 0.1 1000 0 - - -;
#X floatatom 317 215 5 0.1 1000 0 - - -;
#X floatatom 63 245 5 -100 0 0 - - -;
#X floatatom 317 245 5 -100 0 0 - - -;
#X floatatom 23 215 5 0.1 1000 0 - - -;
#X floatatom 277 215 5 0.1 1000 0 - - -;
#X floatatom 23 245 5 -100 0 0 - - -;
#X floatatom 277 245 5 -100 0 0 - - -;
#X obj 133 325 f;
#X obj 133 348 f;
#X obj 172 327 f;
#X obj 172 349 f;
#X obj 212 327 f;
#X obj 212 350 f;
#X obj 256 329 f;
#X obj 256 351 f;
#X obj 304 332 f;
#X obj 304 355 f;
#X obj 344 332 f;
#X obj 344 354 f;
#X obj 385 332 f;
#X obj 385 355 f;
#X obj 425 332 f;
#X obj 425 354 f;
#X obj 468 332 f;
#X obj 468 355 f;
#X obj 508 332 f;
#X obj 508 354 f;
#X obj 34 380 pp 0;
#X obj 75 380 pp 1;
#X obj 118 380 pp 2;
#X obj 157 381 pp 3;
#X obj 198 382 pp 4;
#X obj 237 382 pp 5;
#X obj 288 381 pp 6;
#X obj 329 382 pp 7;
#X obj 372 382 pp 8;
#X obj 415 382 pp 9;
#X obj 452 382 pp 10;
#X obj 494 383 pp 11;
#X obj 35 405 pp 0;
#X obj 76 405 pp 1;
#X obj 119 405 pp 2;
#X obj 158 406 pp 3;
#X obj 199 407 pp 4;
#X obj 238 407 pp 5;
#X obj 289 406 pp 6;
#X obj 330 407 pp 7;
#X obj 373 407 pp 8;
#X obj 416 407 pp 9;
#X obj 453 407 pp 10;
#X obj 495 408 pp 11;
#X obj 194 202 cnv 8 1 1 empty empty 5 0 4 0 10 -262144 -1 0;
#X obj 237 202 cnv 8 1 1 empty empty 6 0 4 0 10 -262144 -1 0;
#X obj 37 202 cnv 8 1 1 empty empty 1 0 4 0 10 -262144 -1 0;
#X obj 292 202 cnv 8 1 1 empty empty 7 0 4 0 10 -262144 -1 0;
#X obj 332 202 cnv 8 1 1 empty empty 8 0 4 0 10 -262144 -1 0;
#X obj 492 202 cnv 8 1 1 empty empty 12 0 4 0 10 -262144 -1 0;
#X obj 452 202 cnv 8 1 1 empty empty 11 0 4 0 10 -262144 -1 0;
#X obj 412 202 cnv 8 1 1 empty empty 10 0 4 0 10 -262144 -1 0;
#X obj 372 202 cnv 8 1 1 empty empty 9 0 4 0 10 -262144 -1 0;
#X obj 342 479 pp damp;
#X obj 419 456 dbtorms;
#X obj 419 435 + 100;
#X obj 342 457 pack 0 0;
#X obj 342 435 unpack 0 0;
#X msg 764 190 read \$1 brl;
#X msg 882 190 write \$1 brl;
#X text 763 8 paramenter;
#X obj 765 166 makefilename %s;
#X obj 886 169 makefilename %s;
#X obj 763 58 route read write recall store;
#X obj 763 81 route bang;
#X obj 874 320 print action;
#X obj 940 19 bng 15 250 50 0 empty empty empty 0 -6 0 8 -262144 -1
-1;
#X obj 883 83 route bang;
#X obj 948 110 symbol;
#X obj 828 108 symbol;
#X obj 848 270 outlet preset_nr;
#X connect 0 0 1 0;
#X connect 1 0 2 0;
#X connect 1 0 67 0;
#X connect 2 0 3 0;
#X connect 2 0 79 0;
#X connect 4 0 5 0;
#X connect 4 0 66 0;
#X connect 4 0 80 0;
#X connect 14 0 15 0;
#X connect 15 0 16 0;
#X connect 15 0 65 0;
#X connect 16 0 17 0;
#X connect 16 0 104 0;
#X connect 21 0 22 0;
#X connect 21 0 64 0;
#X connect 21 0 105 0;
#X connect 27 0 28 0;
#X connect 27 0 71 0;
#X connect 28 0 107 0;
#X connect 34 0 35 0;
#X connect 34 0 72 0;
#X connect 34 0 109 0;
#X connect 41 0 42 0;
#X connect 41 0 75 0;
#X connect 41 0 111 0;
#X connect 48 0 49 0;
#X connect 48 0 69 0;
#X connect 48 0 108 0;
#X connect 55 0 56 0;
#X connect 55 0 70 0;
#X connect 55 0 110 0;
#X connect 63 0 62 0;
#X connect 64 0 63 0;
#X connect 65 0 63 0;
#X connect 66 0 68 0;
#X connect 67 0 68 0;
#X connect 68 0 62 0;
#X connect 69 0 63 0;
#X connect 70 0 63 0;
#X connect 71 0 63 0;
#X connect 72 0 63 0;
#X connect 73 0 0 0;
#X connect 74 0 14 0;
#X connect 75 0 63 0;
#X connect 79 0 230 0;
#X connect 80 0 230 0;
#X connect 81 0 230 0;
#X connect 82 0 192 0;
#X connect 83 0 4 0;
#X connect 84 0 193 0;
#X connect 85 0 21 0;
#X connect 86 0 27 0;
#X connect 87 0 48 0;
#X connect 88 0 34 0;
#X connect 89 0 55 0;
#X connect 90 0 41 0;
#X connect 91 0 248 0;
#X connect 92 0 250 0;
#X connect 93 0 244 0;
#X connect 94 0 246 0;
#X connect 95 0 96 0;
#X connect 96 0 81 0;
#X connect 96 1 230 1;
#X connect 96 1 322 0;
#X connect 98 0 313 0;
#X connect 99 0 230 0;
#X connect 100 0 99 0;
#X connect 100 0 118 0;
#X connect 102 0 106 0;
#X connect 102 0 119 0;
#X connect 104 0 230 0;
#X connect 105 0 230 0;
#X connect 106 0 230 0;
#X connect 107 0 230 0;
#X connect 109 0 230 0;
#X connect 110 0 230 0;
#X connect 111 0 230 0;
#X connect 112 0 230 0;
#X connect 113 0 230 0;
#X connect 114 0 230 0;
#X connect 115 0 230 0;
#X connect 116 0 100 0;
#X connect 117 0 102 0;
#X connect 118 0 68 0;
#X connect 119 0 63 0;
#X connect 124 0 210 0;
#X connect 124 0 277 0;
#X connect 126 0 222 0;
#X connect 126 0 283 0;
#X connect 130 0 211 0;
#X connect 130 0 289 0;
#X connect 132 0 223 0;
#X connect 132 0 295 0;
#X connect 136 0 195 1;
#X connect 136 0 226 0;
#X connect 139 0 195 0;
#X connect 139 0 227 0;
#X connect 145 0 196 1;
#X connect 145 0 228 0;
#X connect 148 0 196 0;
#X connect 148 0 229 0;
#X connect 153 0 155 0;
#X connect 155 0 156 0;
#X connect 155 1 230 1;
#X connect 156 0 230 0;
#X connect 157 0 136 0;
#X connect 158 0 139 0;
#X connect 159 0 145 0;
#X connect 160 0 148 0;
#X connect 164 0 194 1;
#X connect 164 0 224 0;
#X connect 167 0 194 0;
#X connect 167 0 225 0;
#X connect 171 0 172 0;
#X connect 172 0 170 0;
#X connect 173 0 174 0;
#X connect 174 0 175 0;
#X connect 175 0 176 0;
#X connect 176 0 170 0;
#X connect 177 0 185 0;
#X connect 178 0 179 0;
#X connect 179 0 169 0;
#X connect 180 0 181 0;
#X connect 181 0 169 0;
#X connect 182 0 180 0;
#X connect 183 0 178 0;
#X connect 184 0 182 0;
#X connect 185 0 184 0;
#X connect 186 0 183 0;
#X connect 187 0 186 0;
#X connect 188 0 314 0;
#X connect 189 0 315 0;
#X connect 190 0 164 0;
#X connect 191 0 167 0;
#X connect 192 0 73 0;
#X connect 193 0 74 0;
#X connect 194 0 197 0;
#X connect 195 0 203 0;
#X connect 196 0 201 0;
#X connect 197 0 199 0;
#X connect 198 0 68 0;
#X connect 199 0 63 0;
#X connect 200 0 63 0;
#X connect 201 0 200 0;
#X connect 202 0 63 0;
#X connect 203 0 202 0;
#X connect 204 0 230 0;
#X connect 205 0 230 0;
#X connect 206 0 230 0;
#X connect 207 0 230 0;
#X connect 208 0 230 0;
#X connect 209 0 230 0;
#X connect 210 0 230 0;
#X connect 211 0 230 0;
#X connect 212 0 230 0;
#X connect 213 0 230 0;
#X connect 214 0 230 0;
#X connect 215 0 230 0;
#X connect 216 0 230 0;
#X connect 217 0 230 0;
#X connect 218 0 230 0;
#X connect 219 0 230 0;
#X connect 220 0 230 0;
#X connect 221 0 230 0;
#X connect 222 0 230 0;
#X connect 223 0 230 0;
#X connect 224 0 230 0;
#X connect 225 0 230 0;
#X connect 226 0 230 0;
#X connect 227 0 230 0;
#X connect 228 0 230 0;
#X connect 229 0 230 0;
#X connect 230 0 231 0;
#X connect 231 0 82 0;
#X connect 231 1 83 0;
#X connect 231 2 116 0;
#X connect 231 3 84 0;
#X connect 231 4 85 0;
#X connect 231 5 117 0;
#X connect 231 6 86 0;
#X connect 231 7 87 0;
#X connect 231 8 88 0;
#X connect 231 9 89 0;
#X connect 231 10 90 0;
#X connect 231 11 91 0;
#X connect 231 12 92 0;
#X connect 231 13 93 0;
#X connect 231 14 94 0;
#X connect 231 15 252 0;
#X connect 231 16 253 0;
#X connect 231 17 254 0;
#X connect 231 18 255 0;
#X connect 231 19 256 0;
#X connect 231 20 257 0;
#X connect 231 21 258 0;
#X connect 231 22 259 0;
#X connect 231 23 260 0;
#X connect 231 24 261 0;
#X connect 231 25 262 0;
#X connect 231 26 263 0;
#X connect 231 27 264 0;
#X connect 231 28 265 0;
#X connect 231 29 266 0;
#X connect 231 30 267 0;
#X connect 231 31 268 0;
#X connect 231 32 269 0;
#X connect 231 33 270 0;
#X connect 231 34 271 0;
#X connect 231 35 190 0;
#X connect 231 36 191 0;
#X connect 231 37 157 0;
#X connect 231 38 158 0;
#X connect 231 39 159 0;
#X connect 231 40 160 0;
#X connect 232 0 208 0;
#X connect 232 0 276 0;
#X connect 233 0 220 0;
#X connect 233 0 282 0;
#X connect 234 0 209 0;
#X connect 234 0 288 0;
#X connect 235 0 221 0;
#X connect 235 0 294 0;
#X connect 236 0 206 0;
#X connect 236 0 275 0;
#X connect 237 0 218 0;
#X connect 237 0 281 0;
#X connect 238 0 207 0;
#X connect 238 0 287 0;
#X connect 239 0 219 0;
#X connect 239 0 293 0;
#X connect 240 0 204 0;
#X connect 240 0 274 0;
#X connect 241 0 216 0;
#X connect 241 0 280 0;
#X connect 242 0 205 0;
#X connect 242 0 286 0;
#X connect 243 0 217 0;
#X connect 243 0 292 0;
#X connect 244 0 114 0;
#X connect 244 0 273 0;
#X connect 245 0 214 0;
#X connect 245 0 279 0;
#X connect 246 0 115 0;
#X connect 246 0 285 0;
#X connect 247 0 215 0;
#X connect 247 0 291 0;
#X connect 248 0 112 0;
#X connect 248 0 272 0;
#X connect 249 0 212 0;
#X connect 249 0 278 0;
#X connect 250 0 113 0;
#X connect 250 0 284 0;
#X connect 251 0 213 0;
#X connect 251 0 290 0;
#X connect 252 0 240 0;
#X connect 253 0 242 0;
#X connect 254 0 236 0;
#X connect 255 0 238 0;
#X connect 256 0 232 0;
#X connect 257 0 234 0;
#X connect 258 0 124 0;
#X connect 259 0 130 0;
#X connect 260 0 249 0;
#X connect 261 0 251 0;
#X connect 262 0 245 0;
#X connect 263 0 247 0;
#X connect 264 0 241 0;
#X connect 265 0 243 0;
#X connect 266 0 237 0;
#X connect 267 0 239 0;
#X connect 268 0 233 0;
#X connect 269 0 235 0;
#X connect 270 0 126 0;
#X connect 271 0 132 0;
#X connect 272 0 198 0;
#X connect 273 0 198 0;
#X connect 274 0 198 0;
#X connect 275 0 198 0;
#X connect 276 0 198 0;
#X connect 277 0 198 0;
#X connect 278 0 198 0;
#X connect 279 0 198 0;
#X connect 280 0 198 0;
#X connect 281 0 198 0;
#X connect 282 0 198 0;
#X connect 283 0 198 0;
#X connect 284 0 309 0;
#X connect 285 0 309 0;
#X connect 286 0 309 0;
#X connect 287 0 309 0;
#X connect 288 0 309 0;
#X connect 289 0 309 0;
#X connect 290 0 309 0;
#X connect 291 0 309 0;
#X connect 292 0 309 0;
#X connect 293 0 309 0;
#X connect 294 0 309 0;
#X connect 295 0 309 0;
#X connect 305 0 68 0;
#X connect 306 0 308 1;
#X connect 307 0 306 0;
#X connect 308 0 305 0;
#X connect 309 0 68 0;
#X connect 309 0 308 0;
#X connect 309 1 307 0;
#X connect 310 0 230 0;
#X connect 311 0 230 0;
#X connect 313 0 310 0;
#X connect 314 0 311 0;
#X connect 315 0 316 0;
#X connect 315 1 319 0;
#X connect 315 2 95 0;
#X connect 315 3 153 0;
#X connect 316 0 98 0;
#X connect 316 1 98 0;
#X connect 316 1 321 0;
#X connect 318 0 319 0;
#X connect 319 0 188 0;
#X connect 319 1 188 0;
#X connect 319 1 320 0;
#X connect 320 0 98 1;
#X connect 321 0 188 1;
#X coords 0 0 1 1 670 270 1 0 0;
#X restore -12 99 pd EDIT_early_reverb;
#X obj -11 450 outlet;
#X obj 120 431 namecanvas \$0-EDIT;
#X obj 259 430 inlet;
#X obj 289 472 symbol \$0-EDIT;
#X obj 259 451 t f b;
#X obj 242 497 pack f s;
#X msg 242 519 \; \$2 vis \$1;
#N canvas 64 301 806 303 inputs 0;
#X obj 466 0 gui_sr_beautify-uglify \$0_SRC_1 1_EXT_RRR_SRC;
#X obj 40 129 popup 45 20 #ffffff SRC ADC 01 ADC 02 ADC 03 ADC 04 ADC 05
ADC 06 ADC 07 ADC 08 ADC 09 ADC 10 ADC 11 ADC 12 ADC 13 ADC 14 ADC 15
ADC 16 ADC 17 ADC 18 ADC 19 ADC 20 ADC 21 ADC 22 ADC 23 ADC 24 ADC 25
ADC 26 ADC 27 ADC 28 ADC 29 ADC 30 ADC 31 ADC 32 ADC 33 ADC 34 ADC 35
ADC 36 ADC 37 ADC 38 ADC 39 ADC 40 ADC 41 ADC 42 ADC 43 ADC 44 ADC 45
ADC 46 ADC 47 ADC 48 ADC 49 ADC 50 ADC 51 ADC 52 ADC 53 ADC 54 ADC 55
ADC 56 ADC 57 ADC 58 ADC 59 ADC 60 ADC 61 ADC 62 ADC 63 ADC 64 AUX 01
AUX 02 AUX 03 AUX 04 AUX 05 AUX 06 AUX 07 AUX 08 PLAY 8:1 PLAY 8:2
PLAY 8:3 PLAY 8:4 PLAY 8:5 PLAY 8:6 PLAY 8:7 PLAY 8:8 TESTTONE none
;
#X obj 202 -16 loadbang;
#X obj 174 29 t a;
#X obj 49 -7 DSPnamesGUI IN;
#X obj 40 168 nbx 5 14 -1e+37 1e+37 0 0 empty \$0_VU_1_togui 1 10 -6
0 10 -24198 -1 -1 -57.275 256;
#X text 10 134 SRC;
#X text 13 167 VU;
#X obj 467 20 gui_sr_beautify-uglify \$0_SRC_2 2_EXT_RRR_SRC;
#X obj 467 81 gui_sr_beautify-uglify \$0_SRC_5 5_EXT_RRR_SRC;
#X obj 467 101 gui_sr_beautify-uglify \$0_SRC_6 6_EXT_RRR_SRC;
#X obj 466 41 gui_sr_beautify-uglify \$0_SRC_3 3_EXT_RRR_SRC;
#X obj 466 60 gui_sr_beautify-uglify \$0_SRC_4 4_EXT_RRR_SRC;
#X obj 103 129 popup 45 20 #ffffff SRC ADC 01 ADC 02 ADC 03 ADC 04
ADC 05 ADC 06 ADC 07 ADC 08 ADC 09 ADC 10 ADC 11 ADC 12 ADC 13 ADC 14
ADC 15 ADC 16 ADC 17 ADC 18 ADC 19 ADC 20 ADC 21 ADC 22 ADC 23 ADC 24
ADC 25 ADC 26 ADC 27 ADC 28 ADC 29 ADC 30 ADC 31 ADC 32 ADC 33 ADC 34
ADC 35 ADC 36 ADC 37 ADC 38 ADC 39 ADC 40 ADC 41 ADC 42 ADC 43 ADC 44
ADC 45 ADC 46 ADC 47 ADC 48 ADC 49 ADC 50 ADC 51 ADC 52 ADC 53 ADC 54
ADC 55 ADC 56 ADC 57 ADC 58 ADC 59 ADC 60 ADC 61 ADC 62 ADC 63 ADC 64
AUX 01 AUX 02 AUX 03 AUX 04 AUX 05 AUX 06 AUX 07 AUX 08 PLAY 8:1 PLAY 8:2
PLAY 8:3 PLAY 8:4 PLAY 8:5 PLAY 8:6 PLAY 8:7 PLAY 8:8 TESTTONE none
;
#X obj 101 168 nbx 5 14 -1e+37 1e+37 0 0 empty \$0_VU_2_togui 2 10
-6 0 10 -24198 -1 -1 -55.9265 256;
#X obj 162 129 popup 45 20 #ffffff SRC ADC 01 ADC 02 ADC 03 ADC 04
ADC 05 ADC 06 ADC 07 ADC 08 ADC 09 ADC 10 ADC 11 ADC 12 ADC 13 ADC 14
ADC 15 ADC 16 ADC 17 ADC 18 ADC 19 ADC 20 ADC 21 ADC 22 ADC 23 ADC 24
ADC 25 ADC 26 ADC 27 ADC 28 ADC 29 ADC 30 ADC 31 ADC 32 ADC 33 ADC 34
ADC 35 ADC 36 ADC 37 ADC 38 ADC 39 ADC 40 ADC 41 ADC 42 ADC 43 ADC 44
ADC 45 ADC 46 ADC 47 ADC 48 ADC 49 ADC 50 ADC 51 ADC 52 ADC 53 ADC 54
ADC 55 ADC 56 ADC 57 ADC 58 ADC 59 ADC 60 ADC 61 ADC 62 ADC 63 ADC 64
AUX 01 AUX 02 AUX 03 AUX 04 AUX 05 AUX 06 AUX 07 AUX 08 PLAY 8:1 PLAY 8:2
PLAY 8:3 PLAY 8:4 PLAY 8:5 PLAY 8:6 PLAY 8:7 PLAY 8:8 TESTTONE none
;
#X obj 162 168 nbx 5 14 -1e+37 1e+37 0 0 empty \$0_VU_3_togui 3 10
-6 0 10 -24198 -1 -1 -65.742 256;
#X obj 218 130 popup 45 20 #ffffff SRC ADC 01 ADC 02 ADC 03 ADC 04
ADC 05 ADC 06 ADC 07 ADC 08 ADC 09 ADC 10 ADC 11 ADC 12 ADC 13 ADC 14
ADC 15 ADC 16 ADC 17 ADC 18 ADC 19 ADC 20 ADC 21 ADC 22 ADC 23 ADC 24
ADC 25 ADC 26 ADC 27 ADC 28 ADC 29 ADC 30 ADC 31 ADC 32 ADC 33 ADC 34
ADC 35 ADC 36 ADC 37 ADC 38 ADC 39 ADC 40 ADC 41 ADC 42 ADC 43 ADC 44
ADC 45 ADC 46 ADC 47 ADC 48 ADC 49 ADC 50 ADC 51 ADC 52 ADC 53 ADC 54
ADC 55 ADC 56 ADC 57 ADC 58 ADC 59 ADC 60 ADC 61 ADC 62 ADC 63 ADC 64
AUX 01 AUX 02 AUX 03 AUX 04 AUX 05 AUX 06 AUX 07 AUX 08 PLAY 8:1 PLAY 8:2
PLAY 8:3 PLAY 8:4 PLAY 8:5 PLAY 8:6 PLAY 8:7 PLAY 8:8 TESTTONE none
;
#X obj 224 167 nbx 5 14 -1e+37 1e+37 0 0 empty \$0_VU_4_togui 4 10
-6 0 10 -24198 -1 -1 -68.5352 256;
#X obj 281 130 popup 45 20 #ffffff SRC ADC 01 ADC 02 ADC 03 ADC 04
ADC 05 ADC 06 ADC 07 ADC 08 ADC 09 ADC 10 ADC 11 ADC 12 ADC 13 ADC 14
ADC 15 ADC 16 ADC 17 ADC 18 ADC 19 ADC 20 ADC 21 ADC 22 ADC 23 ADC 24
ADC 25 ADC 26 ADC 27 ADC 28 ADC 29 ADC 30 ADC 31 ADC 32 ADC 33 ADC 34
ADC 35 ADC 36 ADC 37 ADC 38 ADC 39 ADC 40 ADC 41 ADC 42 ADC 43 ADC 44
ADC 45 ADC 46 ADC 47 ADC 48 ADC 49 ADC 50 ADC 51 ADC 52 ADC 53 ADC 54
ADC 55 ADC 56 ADC 57 ADC 58 ADC 59 ADC 60 ADC 61 ADC 62 ADC 63 ADC 64
AUX 01 AUX 02 AUX 03 AUX 04 AUX 05 AUX 06 AUX 07 AUX 08 PLAY 8:1 PLAY 8:2
PLAY 8:3 PLAY 8:4 PLAY 8:5 PLAY 8:6 PLAY 8:7 PLAY 8:8 TESTTONE none
;
#X obj 281 169 nbx 5 14 -1e+37 1e+37 0 0 empty \$0_VU_5_togui 5 10
-6 0 10 -24198 -1 -1 -61.332 256;
#X obj 340 130 popup 45 20 #ffffff SRC ADC 01 ADC 02 ADC 03 ADC 04
ADC 05 ADC 06 ADC 07 ADC 08 ADC 09 ADC 10 ADC 11 ADC 12 ADC 13 ADC 14
ADC 15 ADC 16 ADC 17 ADC 18 ADC 19 ADC 20 ADC 21 ADC 22 ADC 23 ADC 24
ADC 25 ADC 26 ADC 27 ADC 28 ADC 29 ADC 30 ADC 31 ADC 32 ADC 33 ADC 34
ADC 35 ADC 36 ADC 37 ADC 38 ADC 39 ADC 40 ADC 41 ADC 42 ADC 43 ADC 44
ADC 45 ADC 46 ADC 47 ADC 48 ADC 49 ADC 50 ADC 51 ADC 52 ADC 53 ADC 54
ADC 55 ADC 56 ADC 57 ADC 58 ADC 59 ADC 60 ADC 61 ADC 62 ADC 63 ADC 64
AUX 01 AUX 02 AUX 03 AUX 04 AUX 05 AUX 06 AUX 07 AUX 08 PLAY 8:1 PLAY 8:2
PLAY 8:3 PLAY 8:4 PLAY 8:5 PLAY 8:6 PLAY 8:7 PLAY 8:8 TESTTONE none
;
#X obj 340 169 nbx 5 14 -1e+37 1e+37 0 0 empty \$0_VU_6_togui 6 10
-6 0 10 -24198 -1 -1 -55.9285 256;
#X msg 159 10 options none \, name SRC;
#X obj 39 197 s \$0_SRC_1_fromgui;
#X obj 103 221 s \$0_SRC_2_fromgui;
#X obj 217 198 s \$0_SRC_4_fromgui;
#X obj 282 222 s \$0_SRC_5_fromgui;
#X obj 340 252 s \$0_SRC_6_fromgui;
#X obj 157 251 s \$0_SRC_3_fromgui;
#X obj 42 41 r \$0_SRC_1_togui;
#X obj 163 78 r \$0_SRC_3_togui;
#X obj 220 42 r \$0_SRC_4_togui;
#X obj 282 61 r \$0_SRC_5_togui;
#X obj 341 79 r \$0_SRC_6_togui;
#X obj 104 60 r \$0_SRC_2_togui;
#X obj 479 139 gui_sr \$0_VU_1 1_EXT_RRR_SRC_VU_LEVEL;
#X msg 363 -3 options;
#X obj 481 162 gui_sr \$0_VU_2 2_EXT_RRR_SRC_VU_LEVEL;
#X obj 480 183 gui_sr \$0_VU_3 3_EXT_RRR_SRC_VU_LEVEL;
#X obj 480 205 gui_sr \$0_VU_4 4_EXT_RRR_SRC_VU_LEVEL;
#X obj 482 226 gui_sr \$0_VU_5 5_EXT_RRR_SRC_VU_LEVEL;
#X obj 481 247 gui_sr \$0_VU_6 6_EXT_RRR_SRC_VU_LEVEL;
#X connect 1 0 24 0;
#X connect 2 0 23 0;
#X connect 3 0 1 0;
#X connect 3 0 13 0;
#X connect 3 0 15 0;
#X connect 3 0 17 0;
#X connect 3 0 19 0;
#X connect 3 0 21 0;
#X connect 4 0 3 0;
#X connect 13 0 25 0;
#X connect 15 0 29 0;
#X connect 17 0 26 0;
#X connect 19 0 27 0;
#X connect 21 0 28 0;
#X connect 23 0 3 0;
#X connect 30 0 1 0;
#X connect 31 0 15 0;
#X connect 32 0 17 0;
#X connect 33 0 19 0;
#X connect 34 0 21 0;
#X connect 35 0 13 0;
#X connect 37 0 3 0;
#X coords 0 -1 1 1 400 90 1 10 100;
#X restore -12 9 pd inputs;
#X obj 770 10 sphere;
#N canvas 1629 63 421 437 filename 1;
#X symbolatom 14 82 52 0 0 2 filename_bank #0_filename_togui #0_filename_fromgui
;
#X obj 269 241 s \$0_filename_togui;
#X obj 11 112 r \$0_filename_fromgui;
#X obj 45 247 sendreceive EXT_RRR_PBANKFILE;
#X obj 36 411 outlet;
#N canvas 245 133 360 216 files 0;
#X obj 30 105 openpanel;
#X obj 222 35 savepanel;
#X obj 222 11 r \$0_save;
#X obj 30 81 r \$0_load;
#X obj 0 -1 cnv 15 120 60 empty empty File 20 12 0 14 -233017 -66577
0;
#X obj 3 16 bng 25 250 50 0 \$0_load \$0_load LOAD 0 30 0 10 -24198
-1 -1;
#X obj 84 15 bng 25 250 50 0 \$0_save \$0_save SAVE 2 30 0 10 -258699
-1 -1;
#X obj 38 15 bng 25 250 50 0 \$0_reload \$0_reload RELOAD -1 30 0 10
-241291 -1 -1;
#X msg 139 112 read;
#X obj 35 180 outlet;
#X msg 222 116 write \$1;
#X msg 30 137 read \$1;
#X obj 138 82 r \$0_reload;
#X connect 0 0 11 0;
#X connect 1 0 10 0;
#X connect 2 0 1 0;
#X connect 3 0 0 0;
#X connect 8 0 9 0;
#X connect 10 0 9 0;
#X connect 11 0 9 0;
#X connect 12 0 8 0;
#X coords 0 -1 1 1 120 60 1 0 0;
#X restore 254 18 pd files;
#X text 13 44 in Settings \, only the filename;
#X msg 110 370 read \$1;
#X obj 49 145 route read write;
#X obj 272 216 pp set;
#X text 14 30 The presets are not stored;
#X obj 120 224 r \$0_preset;
#X obj 178 106 r GUI_NET_initialized;
#X obj 177 125 del 1000;
#X obj 42 224 pack s 0;
#X obj 46 268 unpack s 0;
#X msg 181 148 ../default.rrr 0;
#X msg 36 375 recall \$1;
#X obj 48 334 f 0;
#X obj 48 296 t b a;
#X obj 45 197 bng 15 250 50 0 empty empty empty 0 -6 0 8 -262144 -1
-1;
#X obj 48 176 route bang;
#X obj 140 201 pp write;
#X connect 2 0 14 0;
#X connect 3 0 15 0;
#X connect 5 0 8 0;
#X connect 7 0 4 0;
#X connect 8 0 21 0;
#X connect 8 1 9 0;
#X connect 8 1 22 0;
#X connect 9 0 1 0;
#X connect 11 0 14 1;
#X connect 12 0 13 0;
#X connect 13 0 16 0;
#X connect 14 0 3 0;
#X connect 15 0 19 0;
#X connect 15 1 18 1;
#X connect 16 0 14 0;
#X connect 16 0 9 0;
#X connect 17 0 4 0;
#X connect 18 0 17 0;
#X connect 19 0 18 0;
#X connect 19 1 7 0;
#X connect 20 0 14 0;
#X connect 21 0 20 0;
#X connect 21 1 14 0;
#X connect 22 0 4 0;
#X coords 0 -1 1 1 380 90 1 10 10;
#X restore 389 10 pd filename;
#X text 833 335 ROOM;
#X text 864 338 in;
#X text 833 345 ROOM;
#X text 833 355 REVERBERATION;
#X text 936 345 Thomas Musil;
#X text 935 333 IEM;
#X text 935 357 adapted by WR;
#X obj 558 397 s \$0_preset;
#X obj 626 441 outlet;
#X obj 680 396 inlet;
#N canvas 796 48 484 331 radiuses 0;
#X obj 11 11 cnv 15 108 228 empty empty empty 20 12 0 14 -233017 -66577
0;
#X obj 13 41 nbx 5 14 0 100 0 0 \$0_1_rad_togui \$0_1_rad_fromgui 1_front
60 8 0 10 -261689 -1 -258699 1 256;
#X obj 13 59 nbx 5 14 0 100 0 0 \$0_2_rad_togui \$0_2_rad_fromgui 2_side
60 8 0 10 -261689 -1 -258699 1 256;
#X obj 13 78 nbx 5 14 0 100 0 0 \$0_3_rad_togui \$0_3_rad_fromgui 3_rear
60 8 0 10 -261689 -1 -258699 1 256;
#X obj 13 112 nbx 5 14 0 100 0 0 \$0_4_rad_togui \$0_4_rad_fromgui
4_front 60 8 0 10 -261681 -1 -260818 1 256;
#X obj 13 130 nbx 5 14 0 100 0 0 \$0_5_rad_togui \$0_5_rad_fromgui
5_side 60 8 0 10 -261681 -1 -260818 1 256;
#X obj 13 149 nbx 5 14 0 100 0 0 \$0_6_rad_togui \$0_6_rad_fromgui
6_rear 60 8 0 10 -261681 -1 -260818 1 256;
#X text 9 24 1st reflections;
#X text 10 94 2nd refelections;
#X obj 13 182 nbx 5 14 0 100 0 0 \$0_7_rad_togui \$0_7_rad_fromgui
7_front 60 8 0 10 -225271 -1 -24198 0.26 256;
#X obj 13 200 nbx 5 14 0 100 0 0 \$0_8_rad_togui \$0_8_rad_fromgui
8_side 60 8 0 10 -225271 -1 -24198 0.71 256;
#X obj 13 219 nbx 5 14 0 100 0 0 \$0_9_rad_togui \$0_9_rad_fromgui
9_rear 60 8 0 10 -225271 -1 -24198 0.91 256;
#X text 11 165 late reverb;
#X text 36 11 Radius 0..1;
#X obj 150 14 gui_sr_clip \$0_1_rad 1_RRR_IN_AMBI_RAD 0 100;
#X obj 151 38 gui_sr_clip \$0_2_rad 2_RRR_IN_AMBI_RAD 0 100;
#X obj 151 61 gui_sr_clip \$0_3_rad 3_RRR_IN_AMBI_RAD 0 100;
#X obj 153 117 gui_sr_clip \$0_5_rad 5_RRR_IN_AMBI_RAD 0 100;
#X obj 152 94 gui_sr_clip \$0_4_rad 4_RRR_IN_AMBI_RAD 0 100;
#X obj 153 141 gui_sr_clip \$0_6_rad 6_RRR_IN_AMBI_RAD 0 100;
#X obj 153 175 gui_sr_clip \$0_7_rad 7_RRR_IN_AMBI_RAD 0 100;
#X obj 154 199 gui_sr_clip \$0_8_rad 8_RRR_IN_AMBI_RAD 0 100;
#X obj 154 222 gui_sr_clip \$0_9_rad 9_RRR_IN_AMBI_RAD 0 100;
#X obj 15 254 nbx 5 14 0 100 0 0 \$0_jitter_togui \$0_jitter_fromgui
jitter 60 6 0 10 -241291 -1 -1 18.18 256;
#X obj 156 260 gui_sr_clip \$0_jitter RRR_IN_AMBI_JITTER 0 100;
#X coords 0 -1 1 1 110 270 1 10 10;
#X restore 659 99 pd radiuses;
#X obj -12 7 cnv 15 180 25 empty empty !_FEEDBACK_! 0 12 0 24 -258699
-66577 0;
#X text 1024 337 V 1 \, 2006;
#X connect 0 0 1 0;
#X connect 0 1 18 0;
#X connect 0 1 19 0;
#X connect 3 0 5 0;
#X connect 4 0 6 1;
#X connect 5 0 6 0;
#X connect 5 1 4 0;
#X connect 6 0 7 0;
#X connect 10 0 0 0;
#X connect 20 0 18 0;
#X coords 0 0 1 1 720 280 0;
