#N canvas 115 559 450 300 10;
#X obj 63 100 symbol;
#X msg 63 122 set \$1;
#X text 57 10 1.arg: Source Number;
#X text 56 28 2.arg: Default value;
#X obj 62 148 r~ \$2;
#X obj 44 207 outlet~;
#X obj 109 203 send_regname \$1_EXT_RRR_SRC_VU_LEVEL;
#X obj 64 79 sr_setting \$1_EXT_RRR_SRC;
#X obj 109 180 pvu~;
#X connect 0 0 1 0;
#X connect 1 0 4 0;
#X connect 4 0 5 0;
#X connect 4 0 8 0;
#X connect 7 0 0 0;
#X connect 8 0 6 0;
