#N canvas 593 48 386 472 10;
#N canvas 911 219 542 590 config 0;
#X floatatom 54 146 5 8 50 0 - - -;
#X floatatom 182 47 3 0 100 0 - - -;
#X floatatom 218 46 3 0 100 0 - - -;
#X floatatom 255 47 3 0 100 0 - - -;
#X text 183 30 R;
#X text 219 30 G;
#X text 258 29 B;
#N canvas 116 100 541 398 rgb->float 0;
#X obj 62 53 inlet;
#X obj 145 54 inlet;
#X obj 234 53 inlet;
#X obj 62 355 outlet;
#X text 63 31 Red;
#X text 145 34 Green;
#X text 238 33 Blue;
#X text 313 34 in percent (0 .. 100);
#X obj 62 145 * 0.01;
#X obj 62 168 * 63;
#X obj 170 142 * 0.01;
#X obj 170 166 * 63;
#X obj 271 144 * 0.01;
#X obj 271 168 * 63;
#X obj 62 123 f;
#X obj 145 75 t b f;
#X obj 269 234 * 1;
#X obj 170 233 * 64;
#X obj 62 220 * 64;
#X obj 62 241 * 64;
#X obj 170 268 +;
#X obj 62 283 +;
#X obj 62 304 + 1;
#X obj 62 329 * -1;
#X obj 170 119 f;
#X obj 234 75 t b b f;
#X obj 271 193 i;
#X obj 171 195 i;
#X obj 61 196 i;
#X connect 0 0 14 0;
#X connect 1 0 15 0;
#X connect 2 0 25 0;
#X connect 8 0 9 0;
#X connect 9 0 28 0;
#X connect 10 0 11 0;
#X connect 11 0 27 0;
#X connect 12 0 13 0;
#X connect 13 0 26 0;
#X connect 14 0 8 0;
#X connect 15 0 14 0;
#X connect 15 1 24 0;
#X connect 16 0 20 1;
#X connect 17 0 20 0;
#X connect 18 0 19 0;
#X connect 19 0 21 0;
#X connect 20 0 21 1;
#X connect 21 0 22 0;
#X connect 22 0 23 0;
#X connect 23 0 3 0;
#X connect 24 0 10 0;
#X connect 25 0 14 0;
#X connect 25 1 24 0;
#X connect 25 2 12 0;
#X connect 26 0 16 0;
#X connect 27 0 17 0;
#X connect 28 0 18 0;
#X restore 182 68 pd rgb->float;
#X floatatom 286 48 5 1 18 0 - - -;
#X obj 182 180 pp src_col;
#X msg 182 149 \$2 \$1;
#X obj 182 99 pack 0 1;
#X text 289 32 src;
#X floatatom 43 38 3 0 100 0 - - -;
#X floatatom 79 37 3 0 100 0 - - -;
#X floatatom 116 38 3 0 100 0 - - -;
#X text 44 21 R;
#X text 80 21 G;
#X text 119 20 B;
#N canvas 116 100 541 398 rgb->float 0;
#X obj 62 53 inlet;
#X obj 145 54 inlet;
#X obj 234 53 inlet;
#X obj 62 355 outlet;
#X text 63 31 Red;
#X text 145 34 Green;
#X text 238 33 Blue;
#X text 313 34 in percent (0 .. 100);
#X obj 62 145 * 0.01;
#X obj 62 168 * 63;
#X obj 170 142 * 0.01;
#X obj 170 166 * 63;
#X obj 271 144 * 0.01;
#X obj 271 168 * 63;
#X obj 62 123 f;
#X obj 145 75 t b f;
#X obj 269 234 * 1;
#X obj 170 233 * 64;
#X obj 62 220 * 64;
#X obj 62 241 * 64;
#X obj 170 268 +;
#X obj 62 283 +;
#X obj 62 304 + 1;
#X obj 62 329 * -1;
#X obj 170 119 f;
#X obj 234 75 t b b f;
#X obj 271 193 i;
#X obj 171 195 i;
#X obj 61 196 i;
#X connect 0 0 14 0;
#X connect 1 0 15 0;
#X connect 2 0 25 0;
#X connect 8 0 9 0;
#X connect 9 0 28 0;
#X connect 10 0 11 0;
#X connect 11 0 27 0;
#X connect 12 0 13 0;
#X connect 13 0 26 0;
#X connect 14 0 8 0;
#X connect 15 0 14 0;
#X connect 15 1 24 0;
#X connect 16 0 20 1;
#X connect 17 0 20 0;
#X connect 18 0 19 0;
#X connect 19 0 21 0;
#X connect 20 0 21 1;
#X connect 21 0 22 0;
#X connect 22 0 23 0;
#X connect 23 0 3 0;
#X connect 24 0 10 0;
#X connect 25 0 14 0;
#X connect 25 1 24 0;
#X connect 25 2 12 0;
#X connect 26 0 16 0;
#X connect 27 0 17 0;
#X connect 28 0 18 0;
#X restore 43 59 pd rgb->float;
#X obj 43 81 pp sphere_col;
#X obj 54 165 pp src_font;
#X floatatom 280 158 5 100 1000 0 - - -;
#X obj 281 177 pp size;
#X floatatom 30 274 5 0 0 0 - - -;
#X msg 203 347 src_dp \$1 \$2 \$3;
#X obj 201 324 pack 0 1 1;
#X floatatom 195 256 5 0 0 0 - - -;
#X floatatom 239 259 5 0 0 0 - - -;
#X floatatom 288 259 5 0 0 0 - - -;
#X text 220 216 Position;
#X text 194 237 idx;
#X text 238 236 Azi;
#X text 289 242 Elv;
#X obj 236 286 t b f;
#X obj 283 285 t b f;
#X msg 33 295 nr_src \$1;
#X text 53 415 CLICK <XPOS> <YPOS> <SHIFT> <CTRL> <ALT>;
#X msg 32 439 click 0 0 1 1 1;
#X floatatom 357 448 5 0 0 0 - - -;
#X floatatom 401 451 5 0 0 0 - - -;
#X obj 398 478 t b f;
#X obj 363 516 pack 0 1;
#X msg 354 538 motion \$1 \$2;
#X text 280 136 Size of object;
#X text 219 10 color of source;
#X text 31 254 Nr of sources;
#X text 41 6 color of sphere;
#X text 61 127 font size;
#X obj 50 202 s \$0_sphere_togui;
#X obj 36 356 s \$0_sphere_togui;
#X obj 38 526 s \$0_sphere_togui;
#X text 64 395 ---------------- controller from pd ----------------
;
#X text 356 429 x;
#X text 410 430 y;
#X connect 0 0 21 0;
#X connect 1 0 7 0;
#X connect 2 0 7 1;
#X connect 3 0 7 2;
#X connect 7 0 11 0;
#X connect 8 0 11 1;
#X connect 9 0 49 0;
#X connect 10 0 9 0;
#X connect 11 0 10 0;
#X connect 13 0 19 0;
#X connect 14 0 19 1;
#X connect 15 0 19 2;
#X connect 19 0 20 0;
#X connect 20 0 49 0;
#X connect 21 0 49 0;
#X connect 22 0 23 0;
#X connect 23 0 49 0;
#X connect 24 0 36 0;
#X connect 25 0 50 0;
#X connect 26 0 25 0;
#X connect 27 0 26 0;
#X connect 28 0 34 0;
#X connect 29 0 35 0;
#X connect 34 0 26 0;
#X connect 34 1 26 1;
#X connect 35 0 26 0;
#X connect 35 1 26 2;
#X connect 36 0 50 0;
#X connect 38 0 51 0;
#X connect 39 0 42 0;
#X connect 40 0 41 0;
#X connect 41 0 42 0;
#X connect 41 1 42 1;
#X connect 42 0 43 0;
#X connect 43 0 51 0;
#X restore 240 1 pd config;
#X obj 13 429 s \$0_sphere_fromgui;
#X obj 31 31 cnv 15 318 358 empty empty empty 20 12 0 14 -233017 -66577
0;
#X obj 40 81 cube_sphere 18 150 33 52 233016 4032 288 96 4032 275 173
4032 19 113 4032 25 232 4032 191 18 4032 253 109 4032 130 47 4032 37
75 4032 198 291 4032 275 208 4032 65 273 4032 141 257 262080 85 150
262080 214 150 262080 62 236 262080 237 237 262080 78 65 262080 220
65;
#X obj 8 2 r \$0_sphere_togui;
#N canvas 741 39 1179 897 send_receive_azm_elv_18x 0;
#X obj 28 79 unpack 0 0;
#X obj 28 117 t b f;
#X obj 69 117 t b f;
#X obj 301 10 r \$0_sphere_fromgui;
#X obj 28 98 sendreceive /EXT/RRR/OUT/1/POS/ELV;
#X obj 103 79 sendreceive /EXT/RRR/OUT/1/POS/AZM;
#X obj 28 138 pack 1 0 0;
#X obj 28 266 pp src_dp;
#X obj 28 861 s \$0_sphere_togui;
#X obj 108 119 unpack 0 0;
#X obj 108 157 t b f;
#X obj 149 157 t b f;
#X obj 190 159 unpack 0 0;
#X obj 190 197 t b f;
#X obj 231 197 t b f;
#X obj 272 199 unpack 0 0;
#X obj 272 237 t b f;
#X obj 313 237 t b f;
#X obj 352 239 unpack 0 0;
#X obj 352 277 t b f;
#X obj 393 277 t b f;
#X obj 434 279 unpack 0 0;
#X obj 434 317 t b f;
#X obj 475 317 t b f;
#X obj 516 319 unpack 0 0;
#X obj 516 357 t b f;
#X obj 557 357 t b f;
#X obj 596 359 unpack 0 0;
#X obj 596 397 t b f;
#X obj 637 397 t b f;
#X obj 678 399 unpack 0 0;
#X obj 678 437 t b f;
#X obj 719 437 t b f;
#X obj 321 453 route 10 11 12 13 14 15 16 17 18;
#X obj 302 35 route 1 2 3 4 5 6 7 8 9;
#X obj 88 494 unpack 0 0;
#X obj 88 532 t b f;
#X obj 129 532 t b f;
#X obj 168 534 unpack 0 0;
#X obj 168 572 t b f;
#X obj 209 572 t b f;
#X obj 250 574 unpack 0 0;
#X obj 250 612 t b f;
#X obj 291 612 t b f;
#X obj 332 614 unpack 0 0;
#X obj 332 652 t b f;
#X obj 373 652 t b f;
#X obj 412 654 unpack 0 0;
#X obj 412 692 t b f;
#X obj 453 692 t b f;
#X obj 494 694 unpack 0 0;
#X obj 494 732 t b f;
#X obj 535 732 t b f;
#X obj 576 734 unpack 0 0;
#X obj 576 772 t b f;
#X obj 617 772 t b f;
#X obj 656 774 unpack 0 0;
#X obj 656 812 t b f;
#X obj 697 812 t b f;
#X obj 738 814 unpack 0 0;
#X obj 738 852 t b f;
#X obj 779 852 t b f;
#X obj 738 873 pack 18 0 0;
#X obj 656 833 pack 17 0 0;
#X obj 576 793 pack 16 0 0;
#X obj 494 753 pack 15 0 0;
#X obj 412 713 pack 14 0 0;
#X obj 332 673 pack 13 0 0;
#X obj 250 633 pack 12 0 0;
#X obj 168 593 pack 11 0 0;
#X obj 88 553 pack 10 0 0;
#X obj 163 494 sendreceive /EXT/RRR/OUT/10/POS/AZM;
#X obj 88 513 sendreceive /EXT/RRR/OUT/10/POS/ELV;
#X obj 243 534 sendreceive /EXT/RRR/OUT/11/POS/AZM;
#X obj 168 553 sendreceive /EXT/RRR/OUT/11/POS/ELV;
#X obj 325 574 sendreceive /EXT/RRR/OUT/12/POS/AZM;
#X obj 251 593 sendreceive /EXT/RRR/OUT/12/POS/ELV;
#X obj 407 614 sendreceive /EXT/RRR/OUT/13/POS/AZM;
#X obj 332 633 sendreceive /EXT/RRR/OUT/13/POS/ELV;
#X obj 487 654 sendreceive /EXT/RRR/OUT/14/POS/AZM;
#X obj 412 673 sendreceive /EXT/RRR/OUT/14/POS/ELV;
#X obj 569 694 sendreceive /EXT/RRR/OUT/15/POS/AZM;
#X obj 494 713 sendreceive /EXT/RRR/OUT/15/POS/ELV;
#X obj 651 734 sendreceive /EXT/RRR/OUT/16/POS/AZM;
#X obj 576 753 sendreceive /EXT/RRR/OUT/16/POS/ELV;
#X obj 731 774 sendreceive /EXT/RRR/OUT/17/POS/AZM;
#X obj 656 793 sendreceive /EXT/RRR/OUT/17/POS/ELV;
#X obj 813 814 sendreceive /EXT/RRR/OUT/18/POS/AZM;
#X obj 738 833 sendreceive /EXT/RRR/OUT/18/POS/ELV;
#X obj 89 673 pp src_dp;
#X obj 108 178 pack 2 0 0;
#X obj 190 218 pack 3 0 0;
#X obj 272 258 pack 4 0 0;
#X obj 352 298 pack 5 0 0;
#X obj 434 338 pack 6 0 0;
#X obj 516 378 pack 7 0 0;
#X obj 596 418 pack 8 0 0;
#X obj 678 458 pack 9 0 0;
#X obj 678 418 sendreceive /EXT/RRR/OUT/9/POS/ELV;
#X obj 753 399 sendreceive /EXT/RRR/OUT/9/POS/AZM;
#X obj 671 359 sendreceive /EXT/RRR/OUT/8/POS/AZM;
#X obj 596 378 sendreceive /EXT/RRR/OUT/8/POS/ELV;
#X obj 516 338 sendreceive /EXT/RRR/OUT/7/POS/ELV;
#X obj 591 319 sendreceive /EXT/RRR/OUT/7/POS/AZM;
#X obj 509 279 sendreceive /EXT/RRR/OUT/6/POS/AZM;
#X obj 434 298 sendreceive /EXT/RRR/OUT/6/POS/ELV;
#X obj 352 258 sendreceive /EXT/RRR/OUT/5/POS/ELV;
#X obj 427 239 sendreceive /EXT/RRR/OUT/5/POS/AZM;
#X obj 347 199 sendreceive /EXT/RRR/OUT/4/POS/AZM;
#X obj 272 218 sendreceive /EXT/RRR/OUT/4/POS/ELV;
#X obj 190 178 sendreceive /EXT/RRR/OUT/3/POS/ELV;
#X obj 265 159 sendreceive /EXT/RRR/OUT/3/POS/AZM;
#X obj 183 119 sendreceive /EXT/RRR/OUT/2/POS/AZM;
#X obj 108 138 sendreceive /EXT/RRR/OUT/2/POS/ELV;
#X connect 0 0 4 0;
#X connect 0 1 5 0;
#X connect 1 0 6 0;
#X connect 1 1 6 1;
#X connect 2 0 6 0;
#X connect 2 1 6 2;
#X connect 3 0 34 0;
#X connect 4 0 1 0;
#X connect 5 0 2 0;
#X connect 6 0 7 0;
#X connect 7 0 8 0;
#X connect 9 0 113 0;
#X connect 9 1 112 0;
#X connect 10 0 90 0;
#X connect 10 1 90 1;
#X connect 11 0 90 0;
#X connect 11 1 90 2;
#X connect 12 0 110 0;
#X connect 12 1 111 0;
#X connect 13 0 91 0;
#X connect 13 1 91 1;
#X connect 14 0 91 0;
#X connect 14 1 91 2;
#X connect 15 0 109 0;
#X connect 15 1 108 0;
#X connect 16 0 92 0;
#X connect 16 1 92 1;
#X connect 17 0 92 0;
#X connect 17 1 92 2;
#X connect 18 0 106 0;
#X connect 18 1 107 0;
#X connect 19 0 93 0;
#X connect 19 1 93 1;
#X connect 20 0 93 0;
#X connect 20 1 93 2;
#X connect 21 0 105 0;
#X connect 21 1 104 0;
#X connect 22 0 94 0;
#X connect 22 1 94 1;
#X connect 23 0 94 0;
#X connect 23 1 94 2;
#X connect 24 0 102 0;
#X connect 24 1 103 0;
#X connect 25 0 95 0;
#X connect 25 1 95 1;
#X connect 26 0 95 0;
#X connect 26 1 95 2;
#X connect 27 0 101 0;
#X connect 27 1 100 0;
#X connect 28 0 96 0;
#X connect 28 1 96 1;
#X connect 29 0 96 0;
#X connect 29 1 96 2;
#X connect 30 0 98 0;
#X connect 30 1 99 0;
#X connect 31 0 97 0;
#X connect 31 1 97 1;
#X connect 32 0 97 0;
#X connect 32 1 97 2;
#X connect 33 0 35 0;
#X connect 33 1 38 0;
#X connect 33 2 41 0;
#X connect 33 3 44 0;
#X connect 33 4 47 0;
#X connect 33 5 50 0;
#X connect 33 6 53 0;
#X connect 33 7 56 0;
#X connect 33 8 59 0;
#X connect 34 0 0 0;
#X connect 34 1 9 0;
#X connect 34 2 12 0;
#X connect 34 3 15 0;
#X connect 34 4 18 0;
#X connect 34 5 21 0;
#X connect 34 6 24 0;
#X connect 34 7 27 0;
#X connect 34 8 30 0;
#X connect 34 9 33 0;
#X connect 35 0 72 0;
#X connect 35 1 71 0;
#X connect 36 0 70 0;
#X connect 36 1 70 1;
#X connect 37 0 70 0;
#X connect 37 1 70 2;
#X connect 38 0 74 0;
#X connect 38 1 73 0;
#X connect 39 0 69 0;
#X connect 39 1 69 1;
#X connect 40 0 69 0;
#X connect 40 1 69 2;
#X connect 41 0 76 0;
#X connect 41 1 75 0;
#X connect 42 0 68 0;
#X connect 42 1 68 1;
#X connect 43 0 68 0;
#X connect 43 1 68 2;
#X connect 44 0 78 0;
#X connect 44 1 77 0;
#X connect 45 0 67 0;
#X connect 45 1 67 1;
#X connect 46 0 67 0;
#X connect 46 1 67 2;
#X connect 47 0 80 0;
#X connect 47 1 79 0;
#X connect 48 0 66 0;
#X connect 48 1 66 1;
#X connect 49 0 66 0;
#X connect 49 1 66 2;
#X connect 50 0 82 0;
#X connect 50 1 81 0;
#X connect 51 0 65 0;
#X connect 51 1 65 1;
#X connect 52 0 65 0;
#X connect 52 1 65 2;
#X connect 53 0 84 0;
#X connect 53 1 83 0;
#X connect 54 0 64 0;
#X connect 54 1 64 1;
#X connect 55 0 64 0;
#X connect 55 1 64 2;
#X connect 56 0 86 0;
#X connect 56 1 85 0;
#X connect 57 0 63 0;
#X connect 57 1 63 1;
#X connect 58 0 63 0;
#X connect 58 1 63 2;
#X connect 59 0 88 0;
#X connect 59 1 87 0;
#X connect 60 0 62 0;
#X connect 60 1 62 1;
#X connect 61 0 62 0;
#X connect 61 1 62 2;
#X connect 62 0 89 0;
#X connect 63 0 89 0;
#X connect 64 0 89 0;
#X connect 65 0 89 0;
#X connect 66 0 89 0;
#X connect 67 0 89 0;
#X connect 68 0 89 0;
#X connect 69 0 89 0;
#X connect 70 0 89 0;
#X connect 71 0 37 0;
#X connect 72 0 36 0;
#X connect 73 0 40 0;
#X connect 74 0 39 0;
#X connect 75 0 43 0;
#X connect 76 0 42 0;
#X connect 77 0 46 0;
#X connect 78 0 45 0;
#X connect 79 0 49 0;
#X connect 80 0 48 0;
#X connect 81 0 52 0;
#X connect 82 0 51 0;
#X connect 83 0 55 0;
#X connect 84 0 54 0;
#X connect 85 0 58 0;
#X connect 86 0 57 0;
#X connect 87 0 61 0;
#X connect 88 0 60 0;
#X connect 89 0 8 0;
#X connect 90 0 7 0;
#X connect 91 0 7 0;
#X connect 92 0 7 0;
#X connect 93 0 7 0;
#X connect 94 0 7 0;
#X connect 95 0 7 0;
#X connect 96 0 7 0;
#X connect 97 0 7 0;
#X connect 98 0 31 0;
#X connect 99 0 32 0;
#X connect 100 0 29 0;
#X connect 101 0 28 0;
#X connect 102 0 25 0;
#X connect 103 0 26 0;
#X connect 104 0 23 0;
#X connect 105 0 22 0;
#X connect 106 0 19 0;
#X connect 107 0 20 0;
#X connect 108 0 17 0;
#X connect 109 0 16 0;
#X connect 110 0 13 0;
#X connect 111 0 14 0;
#X connect 112 0 11 0;
#X connect 113 0 10 0;
#X restore 154 403 pd send_receive_azm_elv_18x;
#X obj 128 4 r \$1_sphere_togui;
#X connect 3 0 1 0;
#X connect 4 0 3 0;
#X connect 6 0 3 0;
#X coords 0 -1 1 1 320 360 1 30 30;
