#N canvas 884 123 1127 652 10;
#N canvas 911 219 542 590 config 0;
#X floatatom 54 146 5 8 50 0 - - -;
#X floatatom 182 47 3 0 100 0 - - -;
#X floatatom 218 46 3 0 100 0 - - -;
#X floatatom 255 47 3 0 100 0 - - -;
#X text 183 30 R;
#X text 219 30 G;
#X text 258 29 B;
#N canvas 116 100 541 398 rgb->float 0;
#X obj 62 53 inlet;
#X obj 145 54 inlet;
#X obj 234 53 inlet;
#X obj 62 355 outlet;
#X text 63 31 Red;
#X text 145 34 Green;
#X text 238 33 Blue;
#X text 313 34 in percent (0 .. 100);
#X obj 62 145 * 0.01;
#X obj 62 168 * 63;
#X obj 170 142 * 0.01;
#X obj 170 166 * 63;
#X obj 271 144 * 0.01;
#X obj 271 168 * 63;
#X obj 62 123 f;
#X obj 145 75 t b f;
#X obj 269 234 * 1;
#X obj 170 233 * 64;
#X obj 62 220 * 64;
#X obj 62 241 * 64;
#X obj 170 268 +;
#X obj 62 283 +;
#X obj 62 304 + 1;
#X obj 62 329 * -1;
#X obj 170 119 f;
#X obj 234 75 t b b f;
#X obj 271 193 i;
#X obj 171 195 i;
#X obj 61 196 i;
#X connect 0 0 14 0;
#X connect 1 0 15 0;
#X connect 2 0 25 0;
#X connect 8 0 9 0;
#X connect 9 0 28 0;
#X connect 10 0 11 0;
#X connect 11 0 27 0;
#X connect 12 0 13 0;
#X connect 13 0 26 0;
#X connect 14 0 8 0;
#X connect 15 0 14 0;
#X connect 15 1 24 0;
#X connect 16 0 20 1;
#X connect 17 0 20 0;
#X connect 18 0 19 0;
#X connect 19 0 21 0;
#X connect 20 0 21 1;
#X connect 21 0 22 0;
#X connect 22 0 23 0;
#X connect 23 0 3 0;
#X connect 24 0 10 0;
#X connect 25 0 14 0;
#X connect 25 1 24 0;
#X connect 25 2 12 0;
#X connect 26 0 16 0;
#X connect 27 0 17 0;
#X connect 28 0 18 0;
#X restore 182 68 pd rgb->float;
#X floatatom 286 48 5 1 18 0 - - -;
#X obj 182 180 pp src_col;
#X msg 182 149 \$2 \$1;
#X obj 182 99 pack 0 1;
#X text 289 32 src;
#X floatatom 43 38 3 0 100 0 - - -;
#X floatatom 79 37 3 0 100 0 - - -;
#X floatatom 116 38 3 0 100 0 - - -;
#X text 44 21 R;
#X text 80 21 G;
#X text 119 20 B;
#N canvas 116 100 541 398 rgb->float 0;
#X obj 62 53 inlet;
#X obj 145 54 inlet;
#X obj 234 53 inlet;
#X obj 62 355 outlet;
#X text 63 31 Red;
#X text 145 34 Green;
#X text 238 33 Blue;
#X text 313 34 in percent (0 .. 100);
#X obj 62 145 * 0.01;
#X obj 62 168 * 63;
#X obj 170 142 * 0.01;
#X obj 170 166 * 63;
#X obj 271 144 * 0.01;
#X obj 271 168 * 63;
#X obj 62 123 f;
#X obj 145 75 t b f;
#X obj 269 234 * 1;
#X obj 170 233 * 64;
#X obj 62 220 * 64;
#X obj 62 241 * 64;
#X obj 170 268 +;
#X obj 62 283 +;
#X obj 62 304 + 1;
#X obj 62 329 * -1;
#X obj 170 119 f;
#X obj 234 75 t b b f;
#X obj 271 193 i;
#X obj 171 195 i;
#X obj 61 196 i;
#X connect 0 0 14 0;
#X connect 1 0 15 0;
#X connect 2 0 25 0;
#X connect 8 0 9 0;
#X connect 9 0 28 0;
#X connect 10 0 11 0;
#X connect 11 0 27 0;
#X connect 12 0 13 0;
#X connect 13 0 26 0;
#X connect 14 0 8 0;
#X connect 15 0 14 0;
#X connect 15 1 24 0;
#X connect 16 0 20 1;
#X connect 17 0 20 0;
#X connect 18 0 19 0;
#X connect 19 0 21 0;
#X connect 20 0 21 1;
#X connect 21 0 22 0;
#X connect 22 0 23 0;
#X connect 23 0 3 0;
#X connect 24 0 10 0;
#X connect 25 0 14 0;
#X connect 25 1 24 0;
#X connect 25 2 12 0;
#X connect 26 0 16 0;
#X connect 27 0 17 0;
#X connect 28 0 18 0;
#X restore 43 59 pd rgb->float;
#X obj 43 81 pp sphere_col;
#X obj 54 165 pp src_font;
#X floatatom 280 158 5 100 1000 0 - - -;
#X obj 281 177 pp size;
#X floatatom 30 274 5 0 0 0 - - -;
#X msg 203 347 src_dp \$1 \$2 \$3;
#X obj 201 324 pack 0 1 1;
#X floatatom 195 256 5 0 0 0 - - -;
#X floatatom 239 259 5 0 0 0 - - -;
#X floatatom 288 259 5 0 0 0 - - -;
#X text 220 216 Position;
#X text 194 237 idx;
#X text 238 236 Azi;
#X text 289 242 Elv;
#X obj 236 286 t b f;
#X obj 283 285 t b f;
#X msg 33 295 nr_src \$1;
#X text 53 415 CLICK <XPOS> <YPOS> <SHIFT> <CTRL> <ALT>;
#X msg 32 439 click 0 0 1 1 1;
#X floatatom 357 448 5 0 0 0 - - -;
#X floatatom 401 451 5 0 0 0 - - -;
#X obj 398 478 t b f;
#X obj 363 516 pack 0 1;
#X msg 354 538 motion \$1 \$2;
#X text 280 136 Size of object;
#X text 219 10 color of source;
#X text 31 254 Nr of sources;
#X text 41 6 color of sphere;
#X text 61 127 font size;
#X obj 50 202 s \$0_sphere_togui;
#X obj 36 356 s \$0_sphere_togui;
#X obj 38 526 s \$0_sphere_togui;
#X text 64 395 ---------------- controller from pd ----------------
;
#X text 356 429 x;
#X text 410 430 y;
#X connect 0 0 21 0;
#X connect 1 0 7 0;
#X connect 2 0 7 1;
#X connect 3 0 7 2;
#X connect 7 0 11 0;
#X connect 8 0 11 1;
#X connect 9 0 49 0;
#X connect 10 0 9 0;
#X connect 11 0 10 0;
#X connect 13 0 19 0;
#X connect 14 0 19 1;
#X connect 15 0 19 2;
#X connect 19 0 20 0;
#X connect 20 0 49 0;
#X connect 21 0 49 0;
#X connect 22 0 23 0;
#X connect 23 0 49 0;
#X connect 24 0 36 0;
#X connect 25 0 50 0;
#X connect 26 0 25 0;
#X connect 27 0 26 0;
#X connect 28 0 34 0;
#X connect 29 0 35 0;
#X connect 34 0 26 0;
#X connect 34 1 26 1;
#X connect 35 0 26 0;
#X connect 35 1 26 2;
#X connect 36 0 50 0;
#X connect 38 0 51 0;
#X connect 39 0 42 0;
#X connect 40 0 41 0;
#X connect 41 0 42 0;
#X connect 41 1 42 1;
#X connect 42 0 43 0;
#X connect 43 0 51 0;
#X restore 265 -12 pd config;
#X obj 45 587 s \$0_sphere_fromgui;
#X obj 31 31 cnv 15 318 358 empty empty empty 20 12 0 14 -233017 -66577
0;
#X obj 40 81 cube_sphere 18 150 33 52 195567 4032 256 224 4032 207
284 4032 37 224 4032 149 274 4032 229 156 4032 91 255 4032 152 117
4032 81 159 4032 139 299 4032 227 270 4032 117 281 4032 139 251 262080
187 214 262080 152 290 262080 101 284 262080 229 253 262080 115 211
262080 187 279;
#X obj 40 -18 r \$0_sphere_togui;
#X obj 421 18 send_receive_azm_elv \$0 1;
#X obj 655 443 s \$0_sphere_togui;
#X msg 669 227 1 1.22977 -68.7948 \, 2 13.5462 -100.911 \, 3 9.12002
74.0986 \, 4 0 123.611 \, 5 7.90402 -17.6365 \, 6 23.4041 -68.4876
\, 7 27.8258 10.9013 \, 8 9.09854 56.3988 \, 9 0 -160.75 \, 10 7.24524
-114.884 \, 11 0 145.432 \, 12 25.5532 175.17 \, 13 51.1075 90 \, 14
51.5597 -90 \, 15 16.7694 134.75 \, 16 16.4503 -135 \, 17 23.8741 40.0063
\, 18 24.1639 -39.7048;
#X msg 707 317 1 12.572 -125.113 \, 2 2.96077 -156.894 \, 3 9.70373
123.653 \, 4 15.6002 179.662 \, 5 42.0862 -94.71 \, 6 18.2663 150.936
\, 7 70.0194 -5.19443 \, 8 48.5812 98.608 \, 9 0 175.75 \, 10 4.70411
-147.1 \, 11 9.15923 165.961 \, 12 29.1827 173.586 \, 13 44.946 -149.605
\, 14 6.04298 -178.815 \, 15 4.54601 160.229 \, 16 12.2925 -142.504
\, 17 47.7453 150.472 \, 18 9.4545 -163.783;
#X obj 655 422 pp src_dp;
#X obj 788 443 s \$0_sphere_fromgui;
#X obj 156 36 cnv 8 1 1 empty empty kirche_mitte 0 6 0 12 -233017 -1
0;
#X obj 276 36 cnv 8 1 1 empty empty kirche_süd 0 6 0 12 -233017 -1
0;
#X obj 36 36 cnv 8 1 1 empty empty schlachthaus 0 6 0 12 -233017 -1
0;
#X obj 286 581 outlet;
#X obj 73 52 bng 15 250 50 0 empty empty empty 0 -6 0 8 -260818 -1
-1;
#X obj 185 52 bng 15 250 50 0 empty empty empty 0 -6 0 8 -260818 -1
-1;
#X obj 297 52 bng 15 250 50 0 empty empty empty 0 -6 0 8 -260818 -1
-1;
#X obj 422 42 send_receive_azm_elv \$0 2;
#X obj 423 63 send_receive_azm_elv \$0 3;
#X obj 422 85 send_receive_azm_elv \$0 4;
#X obj 421 107 send_receive_azm_elv \$0 5;
#X obj 421 128 send_receive_azm_elv \$0 6;
#X obj 421 149 send_receive_azm_elv \$0 7;
#X obj 419 173 send_receive_azm_elv \$0 8;
#X obj 421 196 send_receive_azm_elv \$0 9;
#X obj 421 219 send_receive_azm_elv \$0 10;
#X obj 419 243 send_receive_azm_elv \$0 11;
#X obj 421 266 send_receive_azm_elv \$0 12;
#X obj 422 289 send_receive_azm_elv \$0 13;
#X obj 420 313 send_receive_azm_elv \$0 14;
#X obj 422 336 send_receive_azm_elv \$0 15;
#X obj 422 359 send_receive_azm_elv \$0 16;
#X obj 420 383 send_receive_azm_elv \$0 17;
#X obj 422 406 send_receive_azm_elv \$0 18;
#X msg 84 523 recall 2;
#X msg 152 523 recall 0;
#X msg 221 524 recall 1;
#X connect 3 0 1 0;
#X connect 4 0 3 0;
#X connect 7 0 9 0;
#X connect 7 0 10 0;
#X connect 8 0 9 0;
#X connect 8 0 10 0;
#X connect 9 0 6 0;
#X connect 15 0 35 0;
#X connect 15 0 7 0;
#X connect 16 0 36 0;
#X connect 16 0 7 0;
#X connect 17 0 37 0;
#X connect 17 0 8 0;
#X connect 35 0 14 0;
#X connect 36 0 14 0;
#X connect 37 0 14 0;
#X coords 0 -1 1 1 320 360 1 30 30;
