#N canvas 0 0 1040 405 10;
#N canvas 549 138 542 590 config 0;
#X floatatom 54 146 5 8 50 0 - - -;
#X floatatom 182 47 3 0 100 0 - - -;
#X floatatom 218 46 3 0 100 0 - - -;
#X floatatom 255 47 3 0 100 0 - - -;
#X text 183 30 R;
#X text 219 30 G;
#X text 258 29 B;
#N canvas 116 100 541 398 rgb->float 0;
#X obj 62 53 inlet;
#X obj 145 54 inlet;
#X obj 234 53 inlet;
#X obj 62 355 outlet;
#X text 63 31 Red;
#X text 145 34 Green;
#X text 238 33 Blue;
#X text 313 34 in percent (0 .. 100);
#X obj 62 145 * 0.01;
#X obj 62 168 * 63;
#X obj 170 142 * 0.01;
#X obj 170 166 * 63;
#X obj 271 144 * 0.01;
#X obj 271 168 * 63;
#X obj 62 123 f;
#X obj 145 75 t b f;
#X obj 269 234 * 1;
#X obj 170 233 * 64;
#X obj 62 220 * 64;
#X obj 62 241 * 64;
#X obj 170 268 +;
#X obj 62 283 +;
#X obj 62 304 + 1;
#X obj 62 329 * -1;
#X obj 170 119 f;
#X obj 234 75 t b b f;
#X obj 271 193 i;
#X obj 171 195 i;
#X obj 61 196 i;
#X connect 0 0 14 0;
#X connect 1 0 15 0;
#X connect 2 0 25 0;
#X connect 8 0 9 0;
#X connect 9 0 28 0;
#X connect 10 0 11 0;
#X connect 11 0 27 0;
#X connect 12 0 13 0;
#X connect 13 0 26 0;
#X connect 14 0 8 0;
#X connect 15 0 14 0;
#X connect 15 1 24 0;
#X connect 16 0 20 1;
#X connect 17 0 20 0;
#X connect 18 0 19 0;
#X connect 19 0 21 0;
#X connect 20 0 21 1;
#X connect 21 0 22 0;
#X connect 22 0 23 0;
#X connect 23 0 3 0;
#X connect 24 0 10 0;
#X connect 25 0 14 0;
#X connect 25 1 24 0;
#X connect 25 2 12 0;
#X connect 26 0 16 0;
#X connect 27 0 17 0;
#X connect 28 0 18 0;
#X restore 182 68 pd rgb->float;
#X floatatom 286 48 5 1 13 0 - - -;
#X obj 182 180 pp src_col;
#X msg 182 149 \$2 \$1;
#X obj 182 99 pack 0 1;
#X text 289 32 src;
#X floatatom 43 38 3 0 100 0 - - -;
#X floatatom 79 37 3 0 100 0 - - -;
#X floatatom 116 38 3 0 100 0 - - -;
#X text 44 21 R;
#X text 80 21 G;
#X text 119 20 B;
#N canvas 116 100 541 398 rgb->float 0;
#X obj 62 53 inlet;
#X obj 145 54 inlet;
#X obj 234 53 inlet;
#X obj 62 355 outlet;
#X text 63 31 Red;
#X text 145 34 Green;
#X text 238 33 Blue;
#X text 313 34 in percent (0 .. 100);
#X obj 62 145 * 0.01;
#X obj 62 168 * 63;
#X obj 170 142 * 0.01;
#X obj 170 166 * 63;
#X obj 271 144 * 0.01;
#X obj 271 168 * 63;
#X obj 62 123 f;
#X obj 145 75 t b f;
#X obj 269 234 * 1;
#X obj 170 233 * 64;
#X obj 62 220 * 64;
#X obj 62 241 * 64;
#X obj 170 268 +;
#X obj 62 283 +;
#X obj 62 304 + 1;
#X obj 62 329 * -1;
#X obj 170 119 f;
#X obj 234 75 t b b f;
#X obj 271 193 i;
#X obj 171 195 i;
#X obj 61 196 i;
#X connect 0 0 14 0;
#X connect 1 0 15 0;
#X connect 2 0 25 0;
#X connect 8 0 9 0;
#X connect 9 0 28 0;
#X connect 10 0 11 0;
#X connect 11 0 27 0;
#X connect 12 0 13 0;
#X connect 13 0 26 0;
#X connect 14 0 8 0;
#X connect 15 0 14 0;
#X connect 15 1 24 0;
#X connect 16 0 20 1;
#X connect 17 0 20 0;
#X connect 18 0 19 0;
#X connect 19 0 21 0;
#X connect 20 0 21 1;
#X connect 21 0 22 0;
#X connect 22 0 23 0;
#X connect 23 0 3 0;
#X connect 24 0 10 0;
#X connect 25 0 14 0;
#X connect 25 1 24 0;
#X connect 25 2 12 0;
#X connect 26 0 16 0;
#X connect 27 0 17 0;
#X connect 28 0 18 0;
#X restore 43 59 pd rgb->float;
#X obj 43 81 pp sphere_col;
#X obj 54 165 pp src_font;
#X floatatom 280 158 5 100 1000 0 - - -;
#X obj 281 177 pp size;
#X floatatom 30 274 5 0 0 0 - - -;
#X msg 203 347 src_dp \$1 \$2 \$3;
#X obj 201 324 pack 0 1 1;
#X floatatom 195 256 5 0 0 0 - - -;
#X floatatom 239 259 5 0 0 0 - - -;
#X floatatom 288 259 5 0 0 0 - - -;
#X text 220 216 Position;
#X text 194 237 idx;
#X text 238 236 Azi;
#X text 289 242 Elv;
#X obj 236 286 t b f;
#X obj 283 285 t b f;
#X msg 33 295 nr_src \$1;
#X text 53 415 CLICK <XPOS> <YPOS> <SHIFT> <CTRL> <ALT>;
#X msg 32 439 click 0 0 1 1 1;
#X floatatom 357 448 5 0 0 0 - - -;
#X floatatom 401 451 5 0 0 0 - - -;
#X obj 398 478 t b f;
#X obj 363 516 pack 0 1;
#X msg 354 538 motion \$1 \$2;
#X text 280 136 Size of object;
#X text 219 10 color of source;
#X text 31 254 Nr of sources;
#X text 41 6 color of sphere;
#X text 61 127 font size;
#X obj 50 202 s \$0_sphere_togui;
#X obj 36 356 s \$0_sphere_togui;
#X obj 38 526 s \$0_sphere_togui;
#X text 64 395 ---------------- controller from pd ----------------
;
#X text 356 429 x;
#X text 410 430 y;
#X connect 0 0 21 0;
#X connect 1 0 7 0;
#X connect 2 0 7 1;
#X connect 3 0 7 2;
#X connect 7 0 11 0;
#X connect 8 0 11 1;
#X connect 9 0 49 0;
#X connect 10 0 9 0;
#X connect 11 0 10 0;
#X connect 13 0 19 0;
#X connect 14 0 19 1;
#X connect 15 0 19 2;
#X connect 19 0 20 0;
#X connect 20 0 49 0;
#X connect 21 0 49 0;
#X connect 22 0 23 0;
#X connect 23 0 49 0;
#X connect 24 0 36 0;
#X connect 25 0 50 0;
#X connect 26 0 25 0;
#X connect 27 0 26 0;
#X connect 28 0 34 0;
#X connect 29 0 35 0;
#X connect 34 0 26 0;
#X connect 34 1 26 1;
#X connect 35 0 26 0;
#X connect 35 1 26 2;
#X connect 36 0 50 0;
#X connect 38 0 51 0;
#X connect 39 0 42 0;
#X connect 40 0 41 0;
#X connect 41 0 42 0;
#X connect 41 1 42 1;
#X connect 42 0 43 0;
#X connect 43 0 51 0;
#X restore 242 3 pd config;
#X obj 38 356 s \$0_sphere_fromgui;
#X obj 444 27 r \$0_sphere_fromgui;
#X obj 439 314 sendreceive 1_RRR_IN_AMBI_ELV;
#X obj 479 342 sendreceive 1_RRR_IN_AMBI_AZM;
#X obj 445 52 route 1 2 3 4 5 6 7 8 9;
#X obj 439 291 unpack 0 0;
#X obj 474 241 unpack 0 0;
#X obj 509 191 unpack 0 0;
#X obj 559 139 unpack 0 0;
#X obj 599 87 unpack 0 0;
#X obj 647 32 unpack 0 0;
#X obj 730 294 unpack 0 0;
#X obj 768 244 unpack 0 0;
#X obj 813 186 unpack 0 0;
#X obj 474 264 sendreceive 2_RRR_IN_AMBI_ELV;
#X obj 514 292 sendreceive 2_RRR_IN_AMBI_AZM;
#X obj 509 214 sendreceive 3_RRR_IN_AMBI_ELV;
#X obj 549 242 sendreceive 3_RRR_IN_AMBI_AZM;
#X obj 559 163 sendreceive 4_RRR_IN_AMBI_ELV;
#X obj 599 190 sendreceive 4_RRR_IN_AMBI_AZM;
#X obj 599 110 sendreceive 5_RRR_IN_AMBI_ELV;
#X obj 639 138 sendreceive 5_RRR_IN_AMBI_AZM;
#X obj 647 55 sendreceive 6_RRR_IN_AMBI_ELV;
#X obj 687 83 sendreceive 6_RRR_IN_AMBI_AZM;
#X obj 730 317 sendreceive 7_RRR_IN_AMBI_ELV;
#X obj 770 345 sendreceive 7_RRR_IN_AMBI_AZM;
#X obj 768 267 sendreceive 8_RRR_IN_AMBI_ELV;
#X obj 809 296 sendreceive 8_RRR_IN_AMBI_AZM;
#X obj 813 209 sendreceive 9_RRR_IN_AMBI_ELV;
#X obj 853 237 sendreceive 9_RRR_IN_AMBI_AZM;
#X obj 31 31 cnv 15 318 318 empty empty empty 20 12 0 14 -233017 -66577
0;
#X obj 38 40 cube_sphere 9 150 33 52 195567 258048 282 79 258048 149
49 258048 98 101 262080 201 99 262080 9 162 262080 203 204 4032 102
261 4032 165 256 4032 50 52;
#X obj 33 4 r \$0_sphere_togui;
#X connect 2 0 5 0;
#X connect 5 0 6 0;
#X connect 5 1 7 0;
#X connect 5 2 8 0;
#X connect 5 3 9 0;
#X connect 5 4 10 0;
#X connect 5 5 11 0;
#X connect 5 6 12 0;
#X connect 5 7 13 0;
#X connect 5 8 14 0;
#X connect 6 0 3 0;
#X connect 6 1 4 0;
#X connect 7 0 15 0;
#X connect 7 1 16 0;
#X connect 8 0 17 0;
#X connect 8 1 18 0;
#X connect 9 0 19 0;
#X connect 9 1 20 0;
#X connect 10 0 21 0;
#X connect 10 1 22 0;
#X connect 11 0 23 0;
#X connect 11 1 24 0;
#X connect 12 0 25 0;
#X connect 12 1 26 0;
#X connect 13 0 27 0;
#X connect 13 1 28 0;
#X connect 14 0 29 0;
#X connect 14 1 30 0;
#X connect 33 0 32 0;
#X coords 0 -1 1 1 320 320 1 30 30;
