#N canvas 104 96 1503 936 10;
#N canvas 0 0 138 79 DSP 0;
#X msg 29 60 \; pd dsp \$1;
#X obj 18 171 cputime;
#X obj 18 150 t b b;
#X obj 60 98 loadbang;
#X obj 18 98 sel 1;
#X obj 18 126 metro 500;
#X obj 18 192 * 0.2;
#X obj 18 33 tgl 15 0 empty empty empty 0 -6 0 8 -24198 -1 -1 1 1;
#X floatatom 79 34 5 0 0 0 - - -;
#X connect 1 0 6 0;
#X connect 2 0 1 0;
#X connect 2 1 1 1;
#X connect 3 0 5 0;
#X connect 4 0 5 0;
#X connect 5 0 2 0;
#X connect 6 0 8 0;
#X connect 7 0 0 0;
#X connect 7 0 4 0;
#X coords 0 0 1 1 70 36 1;
#X restore 24 136 pd DSP;
#X obj 42 285 bng 35 250 50 0 empty empty empty 0 -6 0 8 -262144 -1
-1;
#X obj 42 381 bng 15 250 50 0 empty empty empty 0 -6 0 8 -262144 -1
-1;
#N canvas 0 0 993 664 calc_farina 0;
#X obj 32 345 tab_fft sweep_in dummy sweep_re sweep_im 524288;
#X obj 32 327 bng 15 250 50 0 empty empty empty 0 -6 0 8 -262144 -1
-1;
#X obj 32 290 bng 15 250 50 0 empty empty empty 0 -6 0 8 -262144 -1
-1;
#X msg 32 365 -1;
#X obj 32 513 bng 15 250 50 0 empty empty empty 0 -6 0 8 -262144 -1
-1;
#X obj 32 385 tab_mul_scalar sweep_im neg_sweep_im;
#X obj 32 421 tab_mul sweep_re sweep_re aaa;
#X obj 32 404 bng 15 250 50 0 empty empty empty 0 -6 0 8 -262144 -1
-1;
#X obj 32 440 bng 15 250 50 0 empty empty empty 0 -6 0 8 -262144 -1
-1;
#X obj 32 457 tab_mul sweep_im sweep_im bbb;
#X obj 32 476 bng 15 250 50 0 empty empty empty 0 -6 0 8 -262144 -1
-1;
#X obj 32 493 tab_add aaa bbb ccc;
#X obj 32 531 tab_complex_mul IR_re IR_im sweep_re neg_sweep_im aaa
bbb;
#X obj 32 567 tab_div aaa ccc DEC_re;
#X obj 32 550 bng 15 250 50 0 empty empty empty 0 -6 0 8 -262144 -1
-1;
#X obj 32 586 bng 15 250 50 0 empty empty empty 0 -6 0 8 -262144 -1
-1;
#X obj 32 603 tab_div bbb ccc DEC_im;
#X obj 32 622 bng 15 250 50 0 empty empty empty 0 -6 0 8 -262144 -1
-1;
#X obj 32 271 tab_const dummy;
#X msg 32 251 0;
#X obj 32 639 tab_ifft DEC_re DEC_im DEC dummy 524288;
#X obj 32 54 tab_const sweep_in;
#X obj 32 94 tab_copy sweep sweep_in;
#X obj 32 75 bng 15 250 50 0 empty empty empty 0 -6 0 8 -262144 -1
-1;
#X msg 32 34 0;
#X obj 32 13 inlet;
#X text 150 54 reset "sweep_in" to zero (all 524288);
#X text 131 269 reset "dummy" to zero (all 524288);
#X obj 32 214 bng 15 250 50 0 empty empty empty 0 -6 0 8 -262144 -1
-1;
#X msg 32 114 0;
#X obj 32 134 tab_const IR_in;
#X text 182 92 copy recorded "sweep" to the first 262144 of "sweep_in"
;
#X text 132 133 reset "IR_in" to zero (all 524288);
#X text 154 231 copy recorded "IR" to the first 262144 of "IR_in";
#X obj 32 307 tab_fft IR_in dummy IR_re IR_im 524288;
#X text 262 383 negate "sweep_im" to "neg_sweep_im" (for conjugate
complex);
#X text 234 420 "aaa" = square of "sweep_re";
#X text 233 456 "bbb" = square of "sweep_im";
#X text 167 492 "ccc" = sum of "aaa" + "bbb";
#X text 393 526 "aaa" = ("IR_re" * "sweep_re") - ("IR_im" * "sweep_im")
;
#X text 393 536 "bbb" = ("IR_re" * "sweep_im") + ("IR_im" * "sweep_re")
;
#X text 177 567 "DEC_re" = "aaa" / "ccc";
#X text 177 603 "DEC_im" = "bbb" / "ccc";
#X text 270 307 complex Fourier-transform of "IR_in" to "IR_re" and
"IR_im";
#X text 321 342 complex Fourier-transform of "sweep_in" to "sweep_re"
and "sweep_im";
#X text 319 637 complex inverse Fourier-transform of "DEC_re" and "DEC_im"
to "DEC";
#X text 260 397 "neg_sweep_in" = "sweep_in" * -1;
#X obj 32 231 tab_copy IR IR_in;
#X obj 32 194 tab_mul_scalar IR IR;
#X obj 32 174 f 0.2;
#X obj 32 155 bng 15 250 50 0 empty empty empty 0 -6 0 8 -262144 -1
-1;
#X obj 604 52 inlet;
#X text 599 34 messungen;
#X text 596 25 anzahl der;
#X msg 71 154 1 \$1;
#X obj 71 174 /;
#X text 161 195 norm "IR" (N measures) (all 262144);
#X obj 32 715 outlet;
#X obj 32 661 bng 15 250 50 0 empty empty empty 0 -6 0 8 -262144 -1
-1;
#X msg 662 126 fftsize \$1;
#X msg 738 126 ifftsize \$1;
#X obj 728 46 inlet;
#X text 721 28 fft size;
#X obj 33 692 tab_mul_scalar DEC DEC;
#X obj 222 687 db2v;
#X msg 222 660 25;
#X text 255 665 korrektur von den -25 dB output atten.;
#X connect 0 0 3 0;
#X connect 1 0 0 0;
#X connect 2 0 34 0;
#X connect 3 0 5 0;
#X connect 4 0 12 0;
#X connect 5 0 7 0;
#X connect 6 0 8 0;
#X connect 7 0 6 0;
#X connect 8 0 9 0;
#X connect 9 0 10 0;
#X connect 10 0 11 0;
#X connect 11 0 4 0;
#X connect 12 0 14 0;
#X connect 13 0 15 0;
#X connect 14 0 13 0;
#X connect 15 0 16 0;
#X connect 16 0 17 0;
#X connect 17 0 20 0;
#X connect 18 0 2 0;
#X connect 19 0 18 0;
#X connect 20 0 58 0;
#X connect 21 0 23 0;
#X connect 22 0 29 0;
#X connect 23 0 22 0;
#X connect 24 0 21 0;
#X connect 25 0 24 0;
#X connect 28 0 47 0;
#X connect 29 0 30 0;
#X connect 30 0 50 0;
#X connect 34 0 1 0;
#X connect 47 0 19 0;
#X connect 48 0 28 0;
#X connect 49 0 48 0;
#X connect 50 0 49 0;
#X connect 51 0 54 0;
#X connect 54 0 55 0;
#X connect 55 0 49 1;
#X connect 58 0 65 0;
#X connect 59 0 34 0;
#X connect 59 0 0 0;
#X connect 60 0 20 0;
#X connect 61 0 60 0;
#X connect 61 0 59 0;
#X connect 63 0 57 0;
#X connect 64 0 63 0;
#X connect 65 0 64 0;
#X restore 42 401 pd calc_farina;
#X text 23 266 messung;
#X text 27 255 start;
#X obj 929 206 iem_vu 16 120 empty empty -1 -8 0 8 -66577 -1 1 0;
#X obj 892 206 iem_vu 16 120 empty empty -1 -8 0 8 -66577 -1 1 0;
#X floatatom 820 338 5 0 0 0 - - -;
#X floatatom 855 338 5 0 0 0 - - -;
#X text 897 340 dB;
#X text 858 472 IEM KUG;
#X text 842 460 musil;
#X text 872 460 @;
#X text 878 460 iem.at;
#X text 793 449 (c) Thomas Musil 2000 - 2005;
#X text 841 482 Graz \, Austria;
#N canvas 176 44 1012 552 save_IR 0;
#X obj 346 25 inlet;
#X obj 18 68 bng 15 250 50 0 empty empty empty 0 -6 0 8 -262144 -1
-1;
#X obj 18 89 savepanel;
#X obj 18 136 soundfiler;
#X obj 321 213 soundfiler;
#X obj 328 275 outlet;
#X msg 321 188 write -nframes 44100 -bytes 3 \$1 DEC;
#X msg 18 114 write -nframes 44100 -bytes 3 \$1 DEC;
#X text 448 219 1 sec 24 bit;
#X obj 345 90 + 1;
#X obj 609 117 makefilename LS_IR/blabla_%d.wav;
#X obj 345 121 makefilename LS_IR/IR_LS_%d.wav;
#X connect 0 0 9 0;
#X connect 1 0 2 0;
#X connect 2 0 7 0;
#X connect 4 0 5 0;
#X connect 6 0 4 0;
#X connect 7 0 3 0;
#X connect 9 0 11 0;
#X connect 11 0 6 0;
#X restore 42 444 pd save_IR;
#X obj 836 376 iem_image 0 0 0 empty empty;
#N canvas 0 0 450 300 (subpatch) 0;
#X array DEC800 800 float 4;
#X coords 0 0.1 799 -0.1 800 100 1;
#X restore 72 576 graph;
#X floatatom 1087 246 8 0 0 0 - - -;
#X obj 1087 195 bng 15 250 50 0 empty empty empty 0 -6 0 8 -262144
-1 -1;
#X obj 1087 302 tab_copy DEC DEC800;
#X msg 1087 277 \$1 0 800;
#N canvas 0 0 450 300 (subpatch) 0;
#X array DEC8000 8000 float 2;
#X coords 0 0.1 8000 -0.1 800 100 1;
#X restore 73 709 graph;
#X msg 1230 276 \$1 0 8000;
#X obj 1230 301 tab_copy DEC DEC8000;
#X text 1176 196 samples offset of Deconvolution;
#X obj 114 133 cnv 8 8 8 empty empty 1__2__3__4__5__6__7__8__9_ 20
2 0 13 -262144 -218 0;
#X obj 365 131 cnv 8 8 8 empty empty _10_11_12_13_14_15_16_17_18_19
0 4 0 13 -262144 -218 0;
#X obj 127 140 hradio 27 1 0 33 empty empty empty 0 -6 0 8 -260818
-1109 -1 0;
#X text 1029 137 Loudspeaker;
#X text 1035 152 select;
#X obj 1138 171 loadbang;
#X obj 45 -24 bng 15 250 50 0 empty empty empty 0 -6 0 8 -225271 -1
-1;
#X obj 44 81 t b f;
#X obj 42 422 f;
#X msg 76 1 stop;
#X msg 1138 196 1550;
#N canvas 0 0 1016 486 output~ 0;
#X obj 253 242 dac~ 9 10 11 12 13 14 15 16;
#X obj 454 243 dac~ 17 18 19 20 21 22 23 24;
#X obj 100 241 dac~ 1 2 3 4 5 6 7 8;
#N canvas 71 20 1363 668 test_single_speakers_____________________________________
0;
#X obj 240 67 hdl 8 1 0 33 empty empty empty 0 -6 0 8 -24198 -1 -1
8;
#X obj 11 544 outlet~;
#X obj 45 544 outlet~;
#X obj 46 520 *~ 0;
#X obj 77 544 outlet~;
#X obj 78 520 *~ 0;
#X obj 112 545 outlet~;
#X obj 113 521 *~ 0;
#X obj 146 546 outlet~;
#X obj 147 522 *~ 0;
#X obj 179 547 outlet~;
#X obj 180 523 *~ 0;
#X obj 213 547 outlet~;
#X obj 214 523 *~ 0;
#X obj 245 547 outlet~;
#X obj 246 523 *~ 0;
#X obj 280 548 outlet~;
#X obj 281 524 *~ 0;
#X obj 314 549 outlet~;
#X obj 315 525 *~ 0;
#X obj 349 549 outlet~;
#X obj 350 525 *~ 0;
#X obj 383 549 outlet~;
#X obj 384 525 *~ 0;
#X obj 415 549 outlet~;
#X obj 416 525 *~ 0;
#X obj 450 550 outlet~;
#X obj 451 526 *~ 0;
#X obj 484 551 outlet~;
#X obj 485 527 *~ 0;
#X obj 519 551 outlet~;
#X obj 520 527 *~ 0;
#X obj 553 551 outlet~;
#X obj 554 527 *~ 0;
#X obj 585 551 outlet~;
#X obj 586 527 *~ 0;
#X obj 620 552 outlet~;
#X obj 621 528 *~ 0;
#X obj 654 553 outlet~;
#X obj 655 529 *~ 0;
#X obj 687 553 outlet~;
#X obj 688 529 *~ 0;
#X obj 721 553 outlet~;
#X obj 722 529 *~ 0;
#X obj 753 553 outlet~;
#X obj 754 529 *~ 0;
#X obj 788 554 outlet~;
#X obj 789 530 *~ 0;
#X obj 240 31 inlet;
#X obj 12 520 *~ 0;
#X obj 48 44 inlet~;
#X obj 47 293 *~ 1;
#X obj 825 554 outlet~;
#X obj 826 530 *~ 0;
#X obj 858 554 outlet~;
#X obj 859 530 *~ 0;
#X obj 892 554 outlet~;
#X obj 893 530 *~ 0;
#X obj 924 554 outlet~;
#X obj 925 530 *~ 0;
#X obj 959 555 outlet~;
#X obj 960 531 *~ 0;
#X obj 240 109 route 0 1 2 3 4 5 6 7 8 9 10 11 12 13 14 15 16 17 18
19 20 21 22 23 24 25 26 27 28 29 30 31 32;
#X obj 1080 556 outlet~;
#X obj 1081 532 *~ 0;
#X obj 1113 556 outlet~;
#X obj 1114 532 *~ 0;
#X obj 1147 556 outlet~;
#X obj 1148 532 *~ 0;
#X obj 1179 556 outlet~;
#X obj 1180 532 *~ 0;
#X connect 0 0 62 0;
#X connect 3 0 2 0;
#X connect 5 0 4 0;
#X connect 7 0 6 0;
#X connect 9 0 8 0;
#X connect 11 0 10 0;
#X connect 13 0 12 0;
#X connect 15 0 14 0;
#X connect 17 0 16 0;
#X connect 19 0 18 0;
#X connect 21 0 20 0;
#X connect 23 0 22 0;
#X connect 25 0 24 0;
#X connect 27 0 26 0;
#X connect 29 0 28 0;
#X connect 31 0 30 0;
#X connect 33 0 32 0;
#X connect 35 0 34 0;
#X connect 37 0 36 0;
#X connect 39 0 38 0;
#X connect 41 0 40 0;
#X connect 43 0 42 0;
#X connect 45 0 44 0;
#X connect 47 0 46 0;
#X connect 48 0 0 0;
#X connect 49 0 1 0;
#X connect 50 0 51 0;
#X connect 51 0 3 0;
#X connect 51 0 5 0;
#X connect 51 0 7 0;
#X connect 51 0 9 0;
#X connect 51 0 11 0;
#X connect 51 0 13 0;
#X connect 51 0 15 0;
#X connect 51 0 17 0;
#X connect 51 0 19 0;
#X connect 51 0 21 0;
#X connect 51 0 23 0;
#X connect 51 0 25 0;
#X connect 51 0 27 0;
#X connect 51 0 29 0;
#X connect 51 0 31 0;
#X connect 51 0 33 0;
#X connect 51 0 35 0;
#X connect 51 0 37 0;
#X connect 51 0 39 0;
#X connect 51 0 41 0;
#X connect 51 0 43 0;
#X connect 51 0 45 0;
#X connect 51 0 47 0;
#X connect 51 0 49 0;
#X connect 51 0 53 0;
#X connect 51 0 55 0;
#X connect 51 0 57 0;
#X connect 51 0 59 0;
#X connect 51 0 61 0;
#X connect 51 0 64 0;
#X connect 51 0 66 0;
#X connect 51 0 68 0;
#X connect 51 0 70 0;
#X connect 53 0 52 0;
#X connect 55 0 54 0;
#X connect 57 0 56 0;
#X connect 59 0 58 0;
#X connect 61 0 60 0;
#X connect 62 0 49 1;
#X connect 62 1 3 1;
#X connect 62 2 5 1;
#X connect 62 3 7 1;
#X connect 62 4 9 1;
#X connect 62 5 11 1;
#X connect 62 6 13 1;
#X connect 62 7 15 1;
#X connect 62 8 17 1;
#X connect 62 9 19 1;
#X connect 62 10 21 1;
#X connect 62 11 23 1;
#X connect 62 12 25 1;
#X connect 62 13 27 1;
#X connect 62 14 29 1;
#X connect 62 15 31 1;
#X connect 62 16 33 1;
#X connect 62 17 35 1;
#X connect 62 18 37 1;
#X connect 62 19 39 1;
#X connect 62 20 41 1;
#X connect 62 21 43 1;
#X connect 62 22 45 1;
#X connect 62 23 47 1;
#X connect 62 24 53 1;
#X connect 62 25 55 1;
#X connect 62 26 57 1;
#X connect 62 27 59 1;
#X connect 62 28 61 1;
#X connect 62 29 64 1;
#X connect 62 30 66 1;
#X connect 62 31 68 1;
#X connect 62 32 70 1;
#X connect 64 0 63 0;
#X connect 66 0 65 0;
#X connect 68 0 67 0;
#X connect 70 0 69 0;
#X restore 270 90 pd test_single_speakers_____________________________________
;
#X obj 122 48 inlet~;
#X obj 682 50 inlet;
#X text 685 32 LS-select;
#X obj 661 244 dac~ 25 26 27 28 29;
#X obj 114 82 dac~ 30;
#X obj 808 244 dac~ 33 34 35 36;
#X connect 3 0 2 0;
#X connect 3 1 2 1;
#X connect 3 2 2 2;
#X connect 3 3 2 3;
#X connect 3 4 2 4;
#X connect 3 5 2 5;
#X connect 3 6 2 6;
#X connect 3 7 2 7;
#X connect 3 8 0 0;
#X connect 3 9 0 1;
#X connect 3 10 0 2;
#X connect 3 11 0 3;
#X connect 3 12 0 4;
#X connect 3 13 0 5;
#X connect 3 14 0 6;
#X connect 3 15 0 7;
#X connect 3 16 1 0;
#X connect 3 17 1 1;
#X connect 3 18 1 2;
#X connect 3 19 1 3;
#X connect 3 20 1 4;
#X connect 3 21 1 5;
#X connect 3 22 1 6;
#X connect 3 23 1 7;
#X connect 3 24 7 0;
#X connect 3 25 7 1;
#X connect 3 26 7 2;
#X connect 3 27 7 3;
#X connect 3 28 7 4;
#X connect 3 29 9 0;
#X connect 3 30 9 1;
#X connect 3 31 9 2;
#X connect 3 32 9 3;
#X connect 4 0 3 0;
#X connect 4 0 8 0;
#X connect 5 0 3 1;
#X restore 457 386 pd output~;
#X obj 316 41 - 1;
#X obj 300 64 f;
#X obj 292 21 bng 15 250 50 0 empty empty empty 0 -6 0 8 -24198 -1
-1;
#X text 288 3 START Single;
#X text 67 -25 START 24: 154 Sekunden Dauer;
#X obj 119 445 cnv 15 220 15 empty empty empty 20 12 0 14 -225271 -66577
0;
#X text 119 445 <--- Change Output Filename !!!;
#N canvas 0 0 1249 821 Farina_Messung___________________________________________
0;
#X obj 45 240 bng 15 250 50 0 empty empty empty 0 -6 0 8 -260818 -1
-1;
#X obj 44 728 tabwrite~ sweep;
#X obj 46 48 inlet;
#X obj 184 65 inlet;
#X obj 460 144 inlet;
#X obj 582 162 inlet;
#N canvas 0 0 454 304 out_gain 0;
#X obj 99 48 inlet~;
#X obj 260 46 inlet;
#X obj 100 213 outlet~;
#X obj 261 209 outlet;
#X obj 99 135 mull~ 0.05 100;
#X obj 139 108 fadtorms;
#X obj 155 167 prvu~;
#X connect 0 0 4 0;
#X connect 1 0 5 0;
#X connect 4 0 2 0;
#X connect 4 0 6 0;
#X connect 5 0 4 1;
#X connect 6 0 3 0;
#X restore 238 449 pd out_gain;
#X obj 389 612 vsl 15 128 0 127 0 0 empty empty empty 0 -8 0 8 -44926
-1 -1 3600 1;
#X obj 405 617 vfad_scale -1;
#X obj 389 768 fadtodb;
#X obj 389 787 - 100;
#X floatatom 389 750 5 0 0 0 - - -;
#X text 424 748 dB;
#X obj 336 610 iem_vu 16 120 empty empty -1 -8 0 8 -66577 -1 1 0;
#X obj 887 362 vsl 15 128 0 127 0 0 empty empty empty 0 -8 0 8 -44926
-1 -1 8400 1;
#X obj 903 367 vfad_scale -1;
#X obj 887 518 fadtodb;
#X obj 887 537 - 100;
#X floatatom 887 500 5 0 0 0 - - -;
#X text 922 498 dB;
#X obj 834 360 iem_vu 16 120 empty empty -1 -8 0 8 -66577 -1 1 0;
#N canvas 0 0 454 304 in_gain 0;
#X obj 99 48 inlet~;
#X obj 260 46 inlet;
#X obj 100 213 outlet~;
#X obj 261 209 outlet;
#X obj 99 135 mull~ 0.05 100;
#X obj 139 108 fadtorms;
#X obj 155 167 prvu~;
#X connect 0 0 4 0;
#X connect 1 0 5 0;
#X connect 4 0 2 0;
#X connect 4 0 6 0;
#X connect 5 0 4 1;
#X connect 6 0 3 0;
#X restore 778 493 pd in_gain;
#X text 178 47 untere start freq.;
#X text 452 126 obere stop freq.;
#X text 565 127 in Hz;
#X text 310 48 in Hz;
#X text 579 146 sweep dauer;
#X text 661 146 in sec;
#X text 33 32 start messung;
#X text 81 48 bang;
#X obj 808 222 inlet;
#X text 804 204 anzahl der messungen;
#X obj 45 206 for++ 1 5 6000;
#X obj 582 221 * 1000;
#X obj 562 345 + 500;
#X obj 83 622 outlet;
#X obj 45 104 t b b;
#X text 74 640 start calculation;
#X obj 690 188 inlet;
#X text 846 171 in sec;
#X obj 690 240 * 1000;
#X text 687 171 latenz + nachhall-zeit;
#X msg 70 125 \; IR const 0;
#X obj 45 166 del 100;
#X obj 627 270 t b f;
#X obj 563 304 f 5800;
#X floatatom 582 393 8 0 0 0 - - -;
#N canvas 195 105 285 372 ms_to_samples 0;
#X obj 62 132 log;
#X obj 62 154 * 1.4427;
#X floatatom 90 133 8 0 0 0 - - -;
#X obj 62 175 int;
#X obj 62 199 + 1;
#X obj 62 240 pow;
#X msg 62 220 2 \$1;
#X obj 62 84 * 0.001;
#X obj 62 105 * 44100;
#X floatatom 85 61 8 0 0 0 - - -;
#X floatatom 102 273 8 0 0 0 - - -;
#X floatatom 90 200 8 0 0 0 - - -;
#X floatatom 91 175 8 0 0 0 - - -;
#X obj 62 292 outlet;
#X obj 58 35 inlet;
#X text 67 15 ms;
#X text 59 312 samples;
#X connect 0 0 1 0;
#X connect 1 0 3 0;
#X connect 1 0 12 0;
#X connect 3 0 4 0;
#X connect 3 0 11 0;
#X connect 4 0 6 0;
#X connect 5 0 10 0;
#X connect 5 0 13 0;
#X connect 6 0 5 0;
#X connect 7 0 8 0;
#X connect 8 0 2 0;
#X connect 8 0 0 0;
#X connect 9 0 7 0;
#X connect 14 0 7 0;
#X restore 562 371 pd ms_to_samples;
#N canvas 0 0 610 551 resize 0;
#X obj 64 19 inlet;
#X obj 63 98 pp resize;
#X obj 212 116 pp resize;
#X obj 101 161 s sweep;
#X obj 101 184 s IR;
#X obj 101 208 s IR_singular;
#X obj 290 454 s ccc;
#X obj 290 476 s ddd;
#X obj 290 432 s bbb;
#X obj 290 411 s aaa;
#X obj 290 391 s dummy;
#X obj 289 364 s DEC_re;
#X obj 289 343 s DEC_im;
#X obj 289 323 s DEC_in;
#X obj 289 294 s IR_re;
#X obj 289 273 s IR_im;
#X obj 289 253 s IR_in;
#X obj 290 219 s neg_sweep_im;
#X obj 290 198 s sweep_re;
#X obj 290 177 s sweep_im;
#X obj 290 157 s sweep_in;
#X obj 64 50 f 262144;
#X obj 211 93 * 2;
#X connect 0 0 21 0;
#X connect 1 0 3 0;
#X connect 1 0 4 0;
#X connect 1 0 5 0;
#X connect 2 0 20 0;
#X connect 2 0 19 0;
#X connect 2 0 18 0;
#X connect 2 0 17 0;
#X connect 2 0 16 0;
#X connect 2 0 15 0;
#X connect 2 0 14 0;
#X connect 2 0 13 0;
#X connect 2 0 12 0;
#X connect 2 0 11 0;
#X connect 2 0 10 0;
#X connect 2 0 9 0;
#X connect 2 0 8 0;
#X connect 2 0 6 0;
#X connect 2 0 7 0;
#X connect 21 0 1 0;
#X connect 21 0 22 0;
#X connect 22 0 2 0;
#X restore 562 421 pd resize;
#X msg 92 563 stop;
#X obj 82 594 del 100;
#X obj 660 490 tabplay~ IR;
#X obj 661 529 +~;
#X obj 662 564 tabwrite~ IR;
#X obj 690 213 clip 0.001 10;
#X obj 582 196 clip 0.001 50;
#X obj 459 199 clip 1000 50000;
#X obj 184 96 clip 1 1000;
#X obj 808 245 clip 1 100;
#X obj 242 619 outlet;
#X text 194 640 anzahl der messungen;
#X obj 597 620 outlet;
#X text 598 638 VU in;
#X obj 647 621 outlet;
#X text 648 640 VU out;
#X obj 742 623 outlet;
#X text 743 641 gain in;
#X obj 801 624 outlet;
#X text 802 642 gain out;
#X obj 898 247 inlet;
#X obj 952 267 inlet;
#X text 948 249 fad-gain out;
#X text 894 229 fad-gain in;
#X obj 466 619 outlet;
#X obj 530 621 outlet;
#X text 540 639 dummy;
#X text 461 641 fft-size;
#X obj 1002 278 inlet~;
#X obj 1009 623 outlet~;
#X obj 291 101 inlet;
#X text 421 83 in Hz;
#X obj 291 132 clip 1 1000;
#X text 285 83 untere fadein freq.;
#X obj 383 126 inlet;
#X text 510 108 in Hz;
#X obj 384 174 clip 1000 50000;
#X text 375 108 obere fadeout freq.;
#N canvas 68 85 897 610 exp_sweep 0;
#X obj 51 50 inlet;
#X obj 101 477 outlet~;
#X obj 50 247 mtof~;
#X obj 50 224 line~;
#X msg 398 272 1;
#X msg 425 271 0;
#X obj 430 471 outlet;
#X obj 450 241 del 5800;
#X obj 101 452 *~ 0;
#X obj 417 299 f;
#X obj 100 426 osc~;
#X msg 119 400 -0.25;
#X obj 218 70 ftom;
#X obj 218 49 inlet;
#X obj 371 73 ftom;
#X obj 371 52 inlet;
#X text 217 31 untere start freq.;
#X text 368 31 obere stop freq.;
#X text 410 51 in Hz;
#X text 257 47 in Hz;
#X obj 533 53 inlet;
#X text 530 32 sweep dauer;
#X obj 50 181 pack 11.76 136.76 5800;
#X msg 50 202 \$1 \, \$2 \$3;
#X obj 50 153 f 11.76;
#X text 160 400 sinus!!!;
#X obj 51 76 t b b b b b b b;
#X msg 467 202 stop;
#X text 70 498 log sweep sig out;
#X obj 430 422 del 10;
#X text 432 490 ready;
#X text 47 31 start sweep bang;
#X text 572 52 in ms;
#X obj 326 483 outlet~;
#X connect 0 0 26 0;
#X connect 2 0 10 0;
#X connect 3 0 2 0;
#X connect 3 0 33 0;
#X connect 4 0 9 0;
#X connect 5 0 9 0;
#X connect 7 0 5 0;
#X connect 7 0 29 0;
#X connect 8 0 1 0;
#X connect 9 0 8 1;
#X connect 10 0 8 0;
#X connect 11 0 10 1;
#X connect 12 0 24 1;
#X connect 13 0 12 0;
#X connect 14 0 22 1;
#X connect 15 0 14 0;
#X connect 20 0 7 1;
#X connect 20 0 22 2;
#X connect 22 0 23 0;
#X connect 23 0 3 0;
#X connect 24 0 22 0;
#X connect 26 0 24 0;
#X connect 26 1 11 0;
#X connect 26 2 4 0;
#X connect 26 3 7 0;
#X connect 26 4 27 0;
#X connect 27 0 7 0;
#X connect 27 0 29 0;
#X connect 29 0 6 0;
#X restore 163 322 pd exp_sweep;
#N canvas 821 48 1099 708 shape_sweep 0;
#X obj 378 95 inlet;
#X obj 439 107 inlet;
#X obj 546 120 inlet;
#X obj 650 134 inlet;
#X text 355 78 low start;
#X text 646 116 high stop;
#X text 435 89 low fade in;
#X text 535 102 high fade out;
#X obj 378 122 ftom;
#X obj 650 156 ftom;
#X obj 413 217 -;
#X obj 378 184 t b f;
#X obj 439 131 ftom;
#X obj 546 144 ftom;
#X obj 576 246 -;
#X obj 545 192 t b f;
#X obj 71 76 inlet~;
#X obj 73 578 outlet~;
#X obj 160 346 cos~;
#X obj 159 76 inlet~;
#X text 160 57 sweep control midi ramp;
#X obj 160 240 /~ 1;
#X obj 160 264 clip~ 0 1;
#X obj 160 291 *~ 0.25;
#X obj 160 373 *~;
#X obj 248 472 cos~;
#X obj 248 449 *~ 0.25;
#X obj 248 499 *~;
#X obj 72 523 *~;
#X obj 160 316 -~ 0.25;
#X obj 72 399 *~;
#X obj 247 271 /~ 1;
#X obj 247 295 clip~ 0 1;
#X text 68 36 sweep in;
#X text 70 600 sweep out;
#X obj 241 151 unsig~;
#X floatatom 241 173 5 0 0 0 - - -;
#X obj 212 363 unsig~;
#X obj 305 517 unsig~;
#X floatatom 305 539 9 0 0 0 - - -;
#X floatatom 212 388 9 0 0 0 - - -;
#X obj 212 604 unsig~;
#X floatatom 212 626 9 0 0 0 - - -;
#X obj 247 249 -~ 0;
#X connect 0 0 8 0;
#X connect 1 0 12 0;
#X connect 2 0 13 0;
#X connect 3 0 9 0;
#X connect 8 0 11 0;
#X connect 9 0 14 0;
#X connect 10 0 21 1;
#X connect 11 0 10 0;
#X connect 11 1 10 1;
#X connect 12 0 10 0;
#X connect 13 0 15 0;
#X connect 13 0 43 1;
#X connect 14 0 31 1;
#X connect 15 0 14 0;
#X connect 15 1 14 1;
#X connect 16 0 30 0;
#X connect 18 0 24 0;
#X connect 18 0 24 1;
#X connect 19 0 21 0;
#X connect 19 0 35 0;
#X connect 19 0 43 0;
#X connect 21 0 22 0;
#X connect 22 0 23 0;
#X connect 23 0 29 0;
#X connect 24 0 30 1;
#X connect 24 0 37 0;
#X connect 25 0 27 0;
#X connect 25 0 27 1;
#X connect 26 0 25 0;
#X connect 27 0 28 1;
#X connect 27 0 38 0;
#X connect 28 0 17 0;
#X connect 28 0 41 0;
#X connect 29 0 18 0;
#X connect 30 0 28 0;
#X connect 31 0 32 0;
#X connect 32 0 26 0;
#X connect 35 0 36 0;
#X connect 37 0 40 0;
#X connect 38 0 39 0;
#X connect 41 0 42 0;
#X connect 43 0 31 0;
#X restore 238 424 pd shape_sweep;
#X connect 0 0 1 0;
#X connect 0 0 87 0;
#X connect 0 0 51 0;
#X connect 0 0 53 0;
#X connect 2 0 36 0;
#X connect 3 0 57 0;
#X connect 4 0 56 0;
#X connect 5 0 55 0;
#X connect 6 0 78 0;
#X connect 6 1 13 0;
#X connect 6 1 63 0;
#X connect 7 0 9 0;
#X connect 7 0 6 1;
#X connect 9 0 10 0;
#X connect 10 0 11 0;
#X connect 10 0 67 0;
#X connect 14 0 16 0;
#X connect 14 0 21 1;
#X connect 16 0 17 0;
#X connect 17 0 18 0;
#X connect 17 0 65 0;
#X connect 21 0 52 1;
#X connect 21 1 20 0;
#X connect 21 1 61 0;
#X connect 30 0 58 0;
#X connect 32 0 0 0;
#X connect 32 1 50 0;
#X connect 33 0 45 0;
#X connect 34 0 32 2;
#X connect 34 0 47 0;
#X connect 36 0 43 0;
#X connect 36 1 42 0;
#X connect 36 1 49 0;
#X connect 38 0 54 0;
#X connect 40 0 44 0;
#X connect 43 0 32 0;
#X connect 44 0 45 0;
#X connect 44 1 34 1;
#X connect 45 0 87 3;
#X connect 45 0 34 0;
#X connect 47 0 46 0;
#X connect 47 0 48 0;
#X connect 47 0 73 0;
#X connect 49 0 50 0;
#X connect 50 0 35 0;
#X connect 51 0 52 0;
#X connect 52 0 53 0;
#X connect 54 0 40 0;
#X connect 55 0 33 0;
#X connect 56 0 87 2;
#X connect 56 0 88 5;
#X connect 57 0 87 1;
#X connect 57 0 88 2;
#X connect 58 0 32 1;
#X connect 58 0 59 0;
#X connect 69 0 14 0;
#X connect 70 0 7 0;
#X connect 77 0 21 0;
#X connect 79 0 81 0;
#X connect 81 0 88 3;
#X connect 83 0 85 0;
#X connect 85 0 88 4;
#X connect 87 0 1 0;
#X connect 87 0 88 0;
#X connect 87 1 88 1;
#X connect 88 0 6 0;
#X restore 42 361 pd Farina_Messung___________________________________________
;
#X obj 84 285 cnv 15 620 15 empty empty empty 20 12 0 14 -225271 -66577
0;
#X text 517 305 -;
#X text 80 245 untere;
#X text 80 256 start;
#X text 81 267 freq.;
#X floatatom 83 306 5 0 0 0 - - -;
#X text 118 306 Hz;
#X text 254 266 freq.;
#X floatatom 255 307 7 0 0 0 - - -;
#X text 307 306 Hz;
#X text 253 244 obere;
#X text 253 255 stop;
#X floatatom 324 307 5 0 0 0 - - -;
#X text 358 307 sec;
#X text 319 254 sweep;
#X text 319 266 dauer;
#X floatatom 394 307 5 0 0 0 - - -;
#X text 429 307 sec;
#X text 392 267 -zeit;
#X text 388 256 nachhall;
#X text 388 245 latenz +;
#X text 479 265 messungen;
#X text 476 256 anzahl der;
#X floatatom 479 306 5 0 0 0 - - -;
#X obj 820 202 vsl 15 128 0 127 0 0 empty empty empty 0 -8 0 8 -44926
-1 -1 8400 1;
#X obj 836 207 vfad_scale -1;
#X obj 852 202 vsl 15 128 0 127 0 0 empty empty empty 0 -8 0 8 -44926
-1 -1 3600 1;
#X obj 868 207 vfad_scale -1;
#X text 820 184 in;
#X text 850 184 out;
#X text 896 188 in;
#X text 933 188 out;
#X obj 620 329 dbtofad;
#X obj 620 308 + 100;
#X obj 571 329 dbtofad;
#X obj 571 308 + 100;
#X msg 571 284 0;
#X msg 255 284 22050;
#X text 137 245 untere;
#X text 138 267 freq.;
#X floatatom 140 307 5 0 0 0 - - -;
#X msg 140 284 16;
#X text 175 307 Hz;
#X text 192 265 freq.;
#X floatatom 193 306 7 0 0 0 - - -;
#X text 241 306 Hz;
#X text 191 243 obere;
#X text 137 256 fadein;
#X text 191 254 fadeout;
#X msg 83 284 8;
#X msg 193 284 20000;
#X obj 699 245 loadbang;
#X obj 699 269 bng 15 250 50 0 empty empty empty 17 7 0 10 -24198 -1
-1;
#X text 580 244 in;
#X text 622 244 out;
#X text 574 258 gain;
#X text 620 258 gain;
#N canvas 161 154 436 477 home 0;
#X obj 21 50 table sweep 262144;
#X obj 192 42 table sweep_in 524288;
#X obj 192 62 table sweep_im 524288;
#X obj 192 83 table sweep_re 524288;
#X obj 20 73 table IR 262144;
#X obj 191 138 table IR_in 524288;
#X obj 191 158 table IR_im 524288;
#X obj 191 179 table IR_re 524288;
#X obj 191 207 table DEC_im 524288;
#X obj 191 228 table DEC_re 524288;
#X obj 192 276 table dummy 524288;
#X obj 192 296 table aaa 524288;
#X obj 192 317 table bbb 524288;
#X obj 192 336 table ccc 524288;
#X obj 192 357 table ddd 524288;
#X obj 192 104 table neg_sweep_im 524288;
#X obj 191 249 table DEC 524288;
#X restore 382 443 pd home of the tabels;
#X text 717 269 init;
#X text 715 282 after;
#X text 714 295 change;
#X text 648 284 dB;
#X obj 317 22 cnv 15 60 15 empty empty empty 20 12 0 14 -225271 -66577
0;
#X floatatom 316 22 5 1 33 0 - - -;
#X obj 458 90 cnv 15 60 15 empty empty empty 20 12 0 14 -225271 -66577
0;
#N canvas 936 22 816 548 input~ 0;
#X obj 177 292 outlet~;
#X obj 201 98 env~;
#X floatatom 201 123 5 0 1 0 - - -;
#X obj 166 49 adc~ 1;
#X obj 402 101 env~;
#X floatatom 402 126 5 0 1 0 - - -;
#X obj 368 50 adc~ 2;
#X connect 1 0 2 0;
#X connect 3 0 1 0;
#X connect 3 0 0 0;
#X connect 4 0 5 0;
#X connect 6 0 4 0;
#X restore 457 89 pd input~;
#X obj 534 89 cnv 15 220 15 empty empty empty 20 12 0 14 -225271 -66577
0;
#X text 534 89 <--- edit input !!!;
#X text 358 22 LS Number;
#X obj 856 55 iem_tab;
#X msg 324 284 3.4;
#X msg 394 284 2.5;
#X obj 636 131 cnv 8 8 8 empty empty _20_21_22_23_24_25_26_27_28_29
0 4 0 13 -262144 -218 0;
#X obj 912 131 cnv 8 8 8 empty empty 33_34_35_36 0 4 0 13 -262144 -86853
0;
#X text 525 -13 Es wird ein Impulsantwortset gemessen und unter LS_IR/IR_LS_1..33
abgespeichert und koennen so entsprechend in den TRM importiert werden.
;
#X obj 1123 498 for++ 0 1000 100;
#X obj 1121 528 * 0.1;
#X floatatom 1125 556 5 0 0 0 - - -;
#X msg 1127 470 bang;
#X msg 1174 470 stop;
#X obj 57 483 t b;
#X obj 45 34 del 20000;
#X obj 26 9 bng 15 250 50 0 empty empty empty 17 7 0 10 -262144 -1
-1;
#X msg 479 284 1;
#X msg 620 284 -20;
#X obj 46 57 for++ 0 32 7000;
#X connect 1 0 47 0;
#X connect 2 0 3 0;
#X connect 3 0 36 0;
#X connect 17 0 128 0;
#X connect 20 0 23 0;
#X connect 20 0 25 0;
#X connect 21 0 20 0;
#X connect 23 0 22 0;
#X connect 25 0 26 0;
#X connect 30 0 39 1;
#X connect 33 0 38 0;
#X connect 34 0 129 0;
#X connect 35 0 1 0;
#X connect 35 1 30 0;
#X connect 35 1 36 1;
#X connect 36 0 17 0;
#X connect 37 0 129 0;
#X connect 37 0 133 0;
#X connect 38 0 20 0;
#X connect 40 0 41 1;
#X connect 41 0 35 0;
#X connect 42 0 41 0;
#X connect 42 0 126 0;
#X connect 47 0 2 0;
#X connect 47 1 3 1;
#X connect 47 2 3 2;
#X connect 47 4 7 0;
#X connect 47 5 6 0;
#X connect 47 6 8 0;
#X connect 47 7 9 0;
#X connect 47 8 39 0;
#X connect 53 0 47 1;
#X connect 56 0 47 4;
#X connect 60 0 47 5;
#X connect 64 0 47 6;
#X connect 71 0 47 7;
#X connect 72 0 47 8;
#X connect 74 0 47 9;
#X connect 80 0 74 0;
#X connect 81 0 80 0;
#X connect 82 0 72 0;
#X connect 83 0 82 0;
#X connect 84 0 83 0;
#X connect 85 0 56 0;
#X connect 88 0 47 2;
#X connect 89 0 88 0;
#X connect 92 0 47 3;
#X connect 97 0 53 0;
#X connect 98 0 92 0;
#X connect 99 0 100 0;
#X connect 100 0 131 0;
#X connect 100 0 119 0;
#X connect 100 0 118 0;
#X connect 100 0 85 0;
#X connect 100 0 97 0;
#X connect 100 0 84 0;
#X connect 100 0 132 0;
#X connect 100 0 89 0;
#X connect 100 0 98 0;
#X connect 111 0 40 0;
#X connect 113 0 47 10;
#X connect 118 0 60 0;
#X connect 119 0 64 0;
#X connect 123 0 124 0;
#X connect 124 0 125 0;
#X connect 126 0 123 0;
#X connect 127 0 123 0;
#X connect 128 0 127 0;
#X connect 129 0 133 0;
#X connect 130 0 133 0;
#X connect 131 0 71 0;
#X connect 132 0 81 0;
#X connect 133 0 35 0;
