#N canvas 935 498 450 300 10;
#X obj 52 43 inlet~;
#X obj 51 199 outlet~;
#X obj 55 164 *~;
#X obj 75 135 line~;
#X obj 112 57 dbtorms;
#X obj 90 106 pack 0 10;
#X obj 108 37 inlet;
#X text 207 31 gain again \, ...;
#X connect 0 0 2 0;
#X connect 2 0 1 0;
#X connect 3 0 2 1;
#X connect 4 0 5 0;
#X connect 5 0 3 0;
#X connect 6 0 4 0;
