#N canvas 1364 39 1140 829 10;
#X obj 15 136 r~ 1_AUX_SUM;
#X obj 33 381 throw~ 1_AMBI_BUS;
#X obj 46 361 throw~ 2_AMBI_BUS;
#X obj 61 340 throw~ 3_AMBI_BUS;
#X obj 80 320 throw~ 4_AMBI_BUS;
#X obj 617 228 switch~;
#X obj 617 114 t b b;
#X msg 647 135 0;
#X msg 617 203 0;
#X obj 617 93 select 0;
#X obj 670 114 t f f;
#X obj 31 56 symbol;
#X msg 31 78 set \$1_SUM;
#X obj 617 180 del 60;
#X text 277 6 Reverb mono to quad Thomas Musil;
#X obj 383 130 f 0;
#X obj 391 60 sel 1;
#X obj 399 109 dbtorms;
#X text 276 21 adapted by winfried ritsch;
#X obj 890 495 pp reverb;
#X obj 755 501 pp early;
#X obj 811 466 pp damp;
#X obj 948 439 pp del_time;
#X obj 1195 445 pp del_mod_amp;
#X obj 1058 440 pp del_mod_freq;
#X obj 864 418 dbtorms;
#X obj 864 397 + 100;
#X obj 815 367 unpack 0 0;
#X obj 811 444 pack 0 0;
#X obj 817 270 pp reverb;
#X obj 741 268 pp early;
#X obj 886 38 pp cutoff;
#X obj 888 14 pp gain;
#X obj 893 113 pp cutoff;
#X obj 895 89 pp gain;
#X obj 887 165 pp dec_l_time;
#X obj 886 61 pp Q;
#X obj 893 136 pp Q;
#X obj 883 208 pp dec_m_time;
#X obj 884 250 pp dec_h_time;
#X obj 881 230 pp dec_mh_freq;
#X obj 883 186 pp dec_lm_freq;
#X obj 653 389 nop;
#X obj 253 461 print X;
#X obj 875 320 pp delay;
#X obj 66 599 pack 1 0 0;
#X obj 228 795 pp encode;
#X obj 66 571 t b f;
#X obj 101 553 t b f;
#X obj 154 618 t b f;
#X obj 189 600 t b f;
#X obj 154 646 pack 2 0 0;
#X obj 236 661 t b f;
#X obj 271 643 t b f;
#X obj 324 708 t b f;
#X obj 359 690 t b f;
#X obj 236 689 pack 3 0 0;
#X obj 324 736 pack 4 0 0;
#X obj 33 250 multiline~ 0 0 0 0 0 0 0 0 0 50;
#X obj 114 296 throw~ 5_AMBI_BUS;
#X obj 168 381 throw~ 6_AMBI_BUS;
#X obj 181 361 throw~ 7_AMBI_BUS;
#X obj 196 340 throw~ 8_AMBI_BUS;
#X obj 215 320 throw~ 9_AMBI_BUS;
#X obj 31 210 REVERB~ ________________;
#X obj 43 157 r~ 2_AUX_SUM;
#X obj 71 178 r~ 3_AUX_SUM;
#X obj 111 135 r~ 4_AUX_SUM;
#X obj 875 296 REV/exp_uzi 24;
#X obj 815 346 REV/neg_exp_uzi 24;
#X obj 949 416 REV/exp_uzi 24;
#X obj 1057 417 REV/exp_uzi 24;
#X obj 1196 423 REV/exp_uzi 24;
#X obj 862 839 pp encode;
#X obj 700 615 t b f;
#X obj 735 597 t b f;
#X obj 788 662 t b f;
#X obj 823 644 t b f;
#X obj 870 705 t b f;
#X obj 905 687 t b f;
#X obj 958 752 t b f;
#X obj 993 734 t b f;
#X obj 553 1073 pp encode;
#X obj 391 849 t b f;
#X obj 426 831 t b f;
#X obj 479 896 t b f;
#X obj 514 878 t b f;
#X obj 561 939 t b f;
#X obj 596 921 t b f;
#X obj 649 986 t b f;
#X obj 684 968 t b f;
#X obj 649 1014 pack 12 0 0;
#X obj 561 967 pack 11 0 0;
#X obj 479 924 pack 10 0 0;
#X obj 391 877 pack 9 0 0;
#X obj 958 780 pack 8 0 0;
#X obj 870 733 pack 7 0 0;
#X obj 788 690 pack 6 0 0;
#X obj 700 643 pack 5 0 0;
#X obj 66 511 receive_parameter EXT_REV2_ENCODER_1_ELEVATION;
#X obj 101 532 receive_parameter EXT_REV2_ENCODER_1_AZIMUTH;
#X obj 154 558 receive_parameter EXT_REV2_ENCODER_2_ELEVATION;
#X obj 189 579 receive_parameter EXT_REV2_ENCODER_2_AZIMUTH;
#X obj 236 601 receive_parameter EXT_REV2_ENCODER_3_ELEVATION;
#X obj 271 622 receive_parameter EXT_REV2_ENCODER_3_AZIMUTH;
#X obj 324 648 receive_parameter EXT_REV2_ENCODER_4_ELEVATION;
#X obj 359 669 receive_parameter EXT_REV2_ENCODER_4_AZIMUTH;
#X obj 700 555 receive_parameter EXT_REV2_ENCODER_5_ELEVATION;
#X obj 735 576 receive_parameter EXT_REV2_ENCODER_5_AZIMUTH;
#X obj 788 602 receive_parameter EXT_REV2_ENCODER_6_ELEVATION;
#X obj 823 623 receive_parameter EXT_REV2_ENCODER_6_AZIMUTH;
#X obj 870 645 receive_parameter EXT_REV2_ENCODER_7_ELEVATION;
#X obj 905 666 receive_parameter EXT_REV2_ENCODER_7_AZIMUTH;
#X obj 958 692 receive_parameter EXT_REV2_ENCODER_8_ELEVATION;
#X obj 993 713 receive_parameter EXT_REV2_ENCODER_8_AZIMUTH;
#X obj 391 789 receive_parameter EXT_REV2_ENCODER_9_ELEVATION;
#X obj 426 811 receive_parameter EXT_REV2_ENCODER_9_AZIMUTH;
#X obj 479 836 receive_parameter EXT_REV2_ENCODER_10_ELEVATION;
#X obj 514 857 receive_parameter EXT_REV2_ENCODER_10_AZIMUTH;
#X obj 561 879 receive_parameter EXT_REV2_ENCODER_11_ELEVATION;
#X obj 596 900 receive_parameter EXT_REV2_ENCODER_11_AZIMUTH;
#X obj 649 926 receive_parameter EXT_REV2_ENCODER_12_ELEVATION;
#X obj 684 947 receive_parameter EXT_REV2_ENCODER_12_AZIMUTH;
#X obj 988 14 receive_parameter EXT_REV2_EARLY_GAIN;
#X obj 989 36 receive_parameter EXT_REV2_EARLY_CUTOFF;
#X obj 988 58 receive_parameter EXT_REV2_EARLY_Q;
#X obj 987 91 receive_parameter EXT_REV2_REVERB_GAIN;
#X obj 987 111 receive_parameter EXT_REV2_REVERB_CUTOFF;
#X obj 988 132 receive_parameter EXT_REV2_REVERB_Q;
#X obj 992 165 receive_parameter EXT_REV2_REVERB_DEC_L_TIME;
#X obj 991 187 receive_parameter EXT_REV2_REVERB_DEC_LM_FREQ;
#X obj 991 208 receive_parameter EXT_REV2_REVERB_DEC_M_TIME;
#X obj 990 230 receive_parameter EXT_REV2_REVERB_DEC_MH_FREQ;
#X obj 990 254 receive_parameter EXT_REV2_REVERB_DEC_H_TIME;
#X obj 982 295 receive_parameter EXT_REV2_EARLY_DEL_TIME;
#X obj 981 317 receive_parameter EXT_REV2_EARLY_DAMP;
#X obj 981 339 receive_parameter EXT_REV2_REVERB_DEL_TIME;
#X obj 982 365 receive_parameter EXT_REV2_REVERB_MOD_FREQ;
#X obj 983 391 receive_parameter EXT_REV2_REVERB_MOD_AMP;
#X obj 617 67 receive_setting EXT_REV2_ON;
#X obj 399 83 receive_parameter EXT_REV2_VOL;
#X obj 30 13 receive_setting EXT_REV2_SRC;
#X obj 138 157 r~ 5_AUX_SUM;
#X obj 166 178 r~ 6_AUX_SUM;
#X connect 0 0 64 0;
#X connect 6 0 13 0;
#X connect 6 1 7 0;
#X connect 7 0 58 9;
#X connect 8 0 5 0;
#X connect 9 0 6 0;
#X connect 9 1 10 0;
#X connect 10 1 5 0;
#X connect 11 0 12 0;
#X connect 13 0 8 0;
#X connect 15 0 58 9;
#X connect 16 0 15 0;
#X connect 17 0 15 0;
#X connect 19 0 42 0;
#X connect 20 0 42 0;
#X connect 21 0 20 0;
#X connect 22 0 19 0;
#X connect 23 0 19 0;
#X connect 24 0 19 0;
#X connect 25 0 28 1;
#X connect 26 0 25 0;
#X connect 27 0 28 0;
#X connect 27 1 26 0;
#X connect 28 0 21 0;
#X connect 29 0 42 0;
#X connect 30 0 42 0;
#X connect 31 0 30 0;
#X connect 32 0 30 0;
#X connect 33 0 29 0;
#X connect 34 0 29 0;
#X connect 35 0 29 0;
#X connect 36 0 30 0;
#X connect 37 0 29 0;
#X connect 38 0 29 0;
#X connect 39 0 29 0;
#X connect 40 0 29 0;
#X connect 41 0 29 0;
#X connect 42 0 64 6;
#X connect 44 0 20 0;
#X connect 45 0 46 0;
#X connect 46 0 42 0;
#X connect 47 0 45 0;
#X connect 47 1 45 1;
#X connect 48 0 45 0;
#X connect 48 1 45 2;
#X connect 49 0 51 0;
#X connect 49 1 51 1;
#X connect 50 0 51 0;
#X connect 50 1 51 2;
#X connect 51 0 46 0;
#X connect 52 0 56 0;
#X connect 52 1 56 1;
#X connect 53 0 56 0;
#X connect 53 1 56 2;
#X connect 54 0 57 0;
#X connect 54 1 57 1;
#X connect 55 0 57 0;
#X connect 55 1 57 2;
#X connect 56 0 46 0;
#X connect 57 0 46 0;
#X connect 58 0 1 0;
#X connect 58 1 2 0;
#X connect 58 2 3 0;
#X connect 58 3 4 0;
#X connect 58 4 59 0;
#X connect 58 5 60 0;
#X connect 58 6 61 0;
#X connect 58 7 62 0;
#X connect 58 8 63 0;
#X connect 64 0 58 0;
#X connect 64 1 58 1;
#X connect 64 2 58 2;
#X connect 64 3 58 3;
#X connect 64 4 58 4;
#X connect 64 5 58 5;
#X connect 64 6 58 6;
#X connect 64 7 58 7;
#X connect 64 8 58 8;
#X connect 65 0 64 1;
#X connect 66 0 64 2;
#X connect 67 0 64 3;
#X connect 68 0 44 0;
#X connect 69 0 27 0;
#X connect 70 0 22 0;
#X connect 71 0 24 0;
#X connect 72 0 23 0;
#X connect 73 0 42 0;
#X connect 74 0 98 0;
#X connect 74 1 98 1;
#X connect 75 0 98 0;
#X connect 75 1 98 2;
#X connect 76 0 97 0;
#X connect 76 1 97 1;
#X connect 77 0 97 0;
#X connect 77 1 97 2;
#X connect 78 0 96 0;
#X connect 78 1 96 1;
#X connect 79 0 96 0;
#X connect 79 1 96 2;
#X connect 80 0 95 0;
#X connect 80 1 95 1;
#X connect 81 0 95 0;
#X connect 81 1 95 2;
#X connect 82 0 42 0;
#X connect 83 0 94 0;
#X connect 83 1 94 1;
#X connect 84 0 94 0;
#X connect 84 1 94 2;
#X connect 85 0 93 0;
#X connect 85 1 93 1;
#X connect 86 0 93 0;
#X connect 86 1 93 2;
#X connect 87 0 92 0;
#X connect 87 1 92 1;
#X connect 88 0 92 0;
#X connect 88 1 92 2;
#X connect 89 0 91 0;
#X connect 89 1 91 1;
#X connect 90 0 91 0;
#X connect 90 1 91 2;
#X connect 91 0 82 0;
#X connect 92 0 82 0;
#X connect 93 0 82 0;
#X connect 94 0 82 0;
#X connect 95 0 73 0;
#X connect 96 0 73 0;
#X connect 97 0 73 0;
#X connect 98 0 73 0;
#X connect 99 0 47 0;
#X connect 100 0 48 0;
#X connect 101 0 49 0;
#X connect 102 0 50 0;
#X connect 103 0 52 0;
#X connect 104 0 53 0;
#X connect 105 0 54 0;
#X connect 106 0 55 0;
#X connect 107 0 74 0;
#X connect 108 0 75 0;
#X connect 109 0 76 0;
#X connect 110 0 77 0;
#X connect 111 0 78 0;
#X connect 112 0 79 0;
#X connect 113 0 80 0;
#X connect 114 0 81 0;
#X connect 115 0 83 0;
#X connect 116 0 84 0;
#X connect 117 0 85 0;
#X connect 118 0 86 0;
#X connect 119 0 87 0;
#X connect 120 0 88 0;
#X connect 121 0 89 0;
#X connect 122 0 90 0;
#X connect 123 0 32 0;
#X connect 124 0 31 0;
#X connect 125 0 36 0;
#X connect 126 0 34 0;
#X connect 127 0 33 0;
#X connect 128 0 37 0;
#X connect 129 0 35 0;
#X connect 130 0 41 0;
#X connect 131 0 38 0;
#X connect 132 0 40 0;
#X connect 133 0 39 0;
#X connect 134 0 68 0;
#X connect 135 0 69 0;
#X connect 136 0 70 0;
#X connect 137 0 71 0;
#X connect 138 0 72 0;
#X connect 139 0 9 0;
#X connect 139 0 16 0;
#X connect 140 0 17 0;
#X connect 141 0 11 0;
#X connect 142 0 64 4;
#X connect 143 0 64 5;
