#N canvas 1415 461 796 402 10;
#X text 130 144 open_close_EDIT;
#X msg 121 119 1;
#X obj 11 11 cnv 15 63 198 empty empty REV2 2 10 0 12 -228992 -66577
0;
#X obj 17 40 tgl 15 0 \$0_ON_fromgui \$0_ON_togui ON 0 -6 0 8 -233017
-1 -1 0 1;
#X obj 48 40 bng 15 250 50 0 \$0sEDIT \$0rEDIT EDIT 0 -6 0 8 -62784
-1 -1;
#X obj 317 29 r \$0_AUXSRC_fromgui;
#X obj 317 48 route list;
#X obj 317 72 unpack 0 s;
#X obj 318 98 uglifysymbol;
#X obj 318 144 beautifysymbol;
#X obj 318 188 s \$0_AUXSRC_togui;
#X msg 318 166 set \$1;
#X text 266 1 Reverb from Thomas Musil \, IEM mono to quad;
#X obj 55 68 vfad_scale -1;
#X obj 13 107 cnv 2 40 2 empty empty empty 20 12 0 14 -1 -66577 0;
#X obj 19 64 vsl 30 131 0 130 0 0 \$0_rev_vol_gui \$0_rev_vol_gui +135402576
1 140 0 8 -233017 -1 -1 1800 1;
#X text 127 293 should load send PBANK File;
#X obj 499 67 route float;
#X msg 499 238 label \$1;
#X obj 499 134 t f f;
#X obj 499 111 fadtodb;
#X obj 531 216 dbtofad;
#X obj 499 46 r \$0_rev_vol_gui;
#X obj 499 261 s \$0_rev_vol_gui;
#X obj 318 121 sendreceive /EXT/REV2/SRC;
#X obj 121 186 REV2/REV/room_EDIT 12;
#X obj 203 213 gui_sr_offset \$0_ON /EXT/REV2/ON 0;
#X obj 531 195 sendreceive /EXT/REV2/GAIN;
#X obj 499 170 dbtosym;
#X connect 1 0 25 0;
#X connect 4 0 1 0;
#X connect 5 0 6 0;
#X connect 6 0 7 0;
#X connect 7 1 8 0;
#X connect 8 0 24 0;
#X connect 9 0 11 0;
#X connect 11 0 10 0;
#X connect 17 0 20 0;
#X connect 18 0 23 0;
#X connect 19 0 28 0;
#X connect 19 1 27 0;
#X connect 20 0 19 0;
#X connect 21 0 23 0;
#X connect 22 0 17 0;
#X connect 24 0 9 0;
#X connect 27 0 21 0;
#X connect 28 0 18 0;
#X coords 0 -1 1 1 65 200 1 10 10;
