#N canvas 1412 152 579 444 10;
#X obj 174 155 popup 45 20 #ffffff AUX none;
#X obj 174 185 popup 45 20 #ffffff AUX none;
#X obj 174 215 popup 45 20 #ffffff AUX none;
#X obj 174 245 popup 45 20 #ffffff AUX none;
#X obj 100 100 cnv 15 120 180 empty empty AUX 20 12 0 14 -233017 -66577
0;
#X obj 102 160 nbx 3 14 -100 50 0 0 \$1GUI_aux1_gain_fromgui \$1GUI_aux1_gain_togui
AUX1 0 -6 0 8 -228992 -1 -1 0 256;
#X obj 139 159 tgl 15 0 \$1GUI_aux1_pre_fromgui \$1GUI_aux1_pre_togui
pre 18 7 0 8 -262144 -1 -1 0 1;
#X obj 102 190 nbx 3 14 -100 50 0 0 \$1GUI_aux2_gain_fromgui \$1GUI_aux2_gain_togui
AUX2 0 -6 0 8 -228992 -1 -1 0 256;
#X obj 139 189 tgl 15 0 \$1GUI_aux2_pre_fromgui \$1GUI_aux2_pre_togui
pre 18 7 0 8 -262144 -1 -1 0 1;
#X obj 102 220 nbx 3 14 -100 50 0 0 \$1GUI_aux3_gain_fromgui \$1GUI_aux3_gain_togui
AUX3 0 -6 0 8 -228992 -1 -1 0 256;
#X obj 139 219 tgl 15 0 \$1GUI_aux3_pre_fromgui \$1GUI_aux3_pre_togui
pre 18 7 0 8 -262144 -1 -1 0 1;
#X obj 102 250 nbx 3 14 -100 50 0 0 \$1GUI_aux4_gain_fromgui \$1GUI_aux4_gain_togui
AUX4 0 -6 0 8 -228992 -1 -1 0 256;
#X obj 139 249 tgl 15 0 \$1GUI_aux4_pre_fromgui \$1GUI_aux4_pre_togui
pre 18 7 0 8 -262144 -1 -1 0 1;
#X msg 256 308 options none \, name AUX;
#X obj 231 165 inchannel/helper/aux_popup_sr \$1GUI_aux1;
#X obj 233 191 inchannel/helper/aux_popup_sr \$1GUI_aux2;
#X obj 239 224 inchannel/helper/aux_popup_sr \$1GUI_aux3;
#X obj 238 253 inchannel/helper/aux_popup_sr \$1GUI_aux4;
#X obj 256 333 s \$1GUI_aux1_togui;
#X obj 256 354 s \$1GUI_aux2_togui;
#X obj 256 374 s \$1GUI_aux3_togui;
#X obj 256 395 s \$1GUI_aux4_togui;
#X obj 256 288 loadbang;
#X connect 0 0 14 0;
#X connect 1 0 15 0;
#X connect 2 0 16 0;
#X connect 3 0 17 0;
#X connect 13 0 18 0;
#X connect 13 0 19 0;
#X connect 13 0 20 0;
#X connect 13 0 21 0;
#X connect 14 0 0 0;
#X connect 15 0 1 0;
#X connect 16 0 2 0;
#X connect 17 0 3 0;
#X connect 22 0 13 0;
#X coords 0 -1 1 1 120 180 2 100 100;
