#N canvas 212 53 450 300 10;
#N canvas 394 249 679 490 selector 0;
#X obj 354 264 s \$1GUI_channel_togui;
#X obj 13 36 r \$1GUI_channel_fromgui;
#N canvas 393 210 460 436 getnames 0;
#X obj 95 65 inlet;
#X obj 231 327 outlet;
#X msg 42 179 compact \, sort \, bang \, dump;
#X obj 231 209 symbol;
#X msg 231 229 add \$1;
#X obj 231 272 route list;
#X obj 231 294 symbol;
#X obj 231 251 index;
#X msg 327 213 reset;
#X obj 95 88 t b b b;
#X msg 147 61 bang;
#X obj 117 110 s GUI_getInChannelNums;
#X obj 231 132 r GUI_InChannelNum;
#X obj 231 171 makefilename channel:%02d;
#X connect 0 0 9 0;
#X connect 2 0 7 0;
#X connect 3 0 4 0;
#X connect 4 0 7 0;
#X connect 5 0 6 0;
#X connect 6 0 1 0;
#X connect 7 0 5 0;
#X connect 8 0 7 0;
#X connect 9 0 2 0;
#X connect 9 1 11 0;
#X connect 9 2 8 0;
#X connect 10 0 9 0;
#X connect 12 0 13 0;
#X connect 13 0 3 0;
#X restore 354 169 pd getnames;
#X msg 354 191 append \$1;
#X obj 354 149 t b b;
#X obj 354 68 loadbang;
#X msg 412 141 bang;
#X msg 436 167 name --- \, options;
#X obj 354 89 t b b;
#X msg 78 99 \$2;
#X obj 13 58 unpack 0 s;
#X obj 78 78 s2l :;
#X obj 78 197 s GUI_channel_getValues;
#X obj 78 119 t f f;
#X obj 108 252 outlet;
#X obj 420 215 r GUI_channel_select;
#X obj 420 237 makefilename channel:%02d;
#X obj 78 153 pack 0 \$1;
#X obj 76 312 r GUI_channel_getValues;
#X obj 76 333 f;
#X msg 76 395 label \$1;
#X obj 76 416 s \$1GUI_inchannel_numcnv;
#X obj 76 373 makefilename %02d;
#X symbolatom 218 369 10 0 0 0 - - -;
#X connect 1 0 10 0;
#X connect 2 0 3 0;
#X connect 3 0 0 0;
#X connect 4 0 2 0;
#X connect 4 1 7 0;
#X connect 5 0 8 0;
#X connect 6 0 4 0;
#X connect 7 0 0 0;
#X connect 8 0 4 0;
#X connect 9 0 13 0;
#X connect 10 1 11 0;
#X connect 11 0 9 0;
#X connect 13 0 17 0;
#X connect 13 1 14 0;
#X connect 15 0 16 0;
#X connect 16 0 0 0;
#X connect 17 0 12 0;
#X connect 18 0 19 0;
#X connect 19 0 22 0;
#X connect 20 0 21 0;
#X connect 22 0 20 0;
#X connect 23 0 20 0;
#X restore 35 33 pd selector;
#N canvas 0 0 450 300 locker 0;
#X obj 125 58 r \$1GUI_input_lock_fromgui;
#X obj 127 249 s \$1GUI_input_lock_togui;
#N canvas 196 210 688 496 locked 0;
#X obj 265 113 s \$1GUI_input_select_togui;
#X obj 76 49 inlet;
#X msg 72 73 disable \$1;
#X obj 93 168 s \$1GUI_aux1_togui;
#X obj 123 192 s \$1GUI_aux2_togui;
#X obj 230 168 s \$1GUI_aux3_togui;
#X obj 182 146 t a a a a;
#X obj 180 307 s \$1GUI_plugin1_togui;
#X obj 340 307 s \$1GUI_plugin2_togui;
#X obj 196 329 s \$1GUI_plugin3_togui;
#X obj 356 329 s \$1GUI_plugin4_togui;
#X obj 246 281 t a a a a;
#X obj 139 421 s \$1GUI_input_spat_togui;
#X obj 71 101 t a a a a;
#X obj 260 192 s \$1GUI_aux4_togui;
#X connect 1 0 2 0;
#X connect 2 0 13 0;
#X connect 6 0 3 0;
#X connect 6 1 4 0;
#X connect 6 2 5 0;
#X connect 6 3 14 0;
#X connect 11 0 7 0;
#X connect 11 1 9 0;
#X connect 11 2 8 0;
#X connect 11 3 10 0;
#X connect 13 0 12 0;
#X connect 13 1 11 0;
#X connect 13 2 6 0;
#X connect 13 3 0 0;
#X restore 131 142 pd locked popups;
#X obj 149 114 tgl 15 0 empty empty empty 0 -6 0 8 -262144 -1 -1 0
1;
#X obj 129 183 loadbang;
#X msg 129 212 1;
#X connect 0 0 2 0;
#X connect 3 0 2 0;
#X connect 4 0 5 0;
#X connect 5 0 1 0;
#X restore 181 35 pd locker;
#N canvas 650 189 439 461 EQ 0;
#X obj 92 87 inlet ID#;
#N canvas 0 0 913 540 mid1 0;
#X obj 75 47 inlet;
#X obj 75 102 gui_sr \$1GUI_input_EQ_mid1_f %d_IN_EQ_MID1_FREQ;
#X obj 97 122 gui_sr_offset \$1GUI_input_EQ_mid1_gain %d_IN_EQ_MID1_GAIN
100;
#X obj 75 76 t f f f;
#X obj 119 156 gui_sr \$1GUI_input_EQ_mid1_q %d_IN_EQ_MID1_Q;
#X obj 56 217 Rgui_Stogui_offset \$1GUI_input_EQ_mid1_gain 100;
#X connect 0 0 3 0;
#X connect 3 0 1 0;
#X connect 3 1 2 0;
#X connect 3 2 4 0;
#X restore 123 309 pd mid1;
#N canvas 0 0 913 540 mid2 0;
#X obj 115 47 inlet;
#X obj 81 77 t f f f;
#X obj 75 102 gui_sr \$1GUI_input_EQ_mid2_f %d_IN_EQ_MID2_FREQ;
#X obj 97 122 gui_sr_offset \$1GUI_input_EQ_mid2_gain %d_IN_EQ_MID2_GAIN
100;
#X obj 119 156 gui_sr \$1GUI_input_EQ_mid2_q %d_IN_EQ_MID2_Q;
#X obj 56 217 Rgui_Stogui_offset \$1GUI_input_EQ_mid2_gain 100;
#X connect 0 0 1 0;
#X connect 1 0 2 0;
#X connect 1 1 3 0;
#X connect 1 2 4 0;
#X restore 124 332 pd mid2;
#N canvas 106 347 746 299 hi 0;
#X obj 39 35 inlet;
#X obj 39 57 t f f;
#X obj 39 83 gui_sr \$1GUI_input_EQ_hi_f %d_IN_EQ_HIGH_TRANS_FREQ;
#X obj 39 103 gui_sr_offset \$1GUI_input_EQ_hi_gain %d_IN_EQ_HIGH_GAIN
100;
#X obj 38 133 Rgui_Stogui_offset \$1GUI_input_EQ_hi_gain 100;
#X connect 0 0 1 0;
#X connect 1 0 2 0;
#X connect 1 1 3 0;
#X restore 123 279 pd hi;
#N canvas 289 191 666 302 lo 0;
#X obj 115 47 inlet;
#X obj 39 57 t f f;
#X obj 39 83 gui_sr \$1GUI_input_EQ_lo_f %d_IN_EQ_LOW_TRANS_FREQ;
#X obj 39 103 gui_sr_offset \$1GUI_input_EQ_lo_gain %d_IN_EQ_LOW_GAIN
100;
#X obj 56 217 Rgui_Stogui_offset \$1GUI_input_EQ_lo_gain 100;
#X connect 0 0 1 0;
#X connect 1 0 2 0;
#X connect 1 1 3 0;
#X restore 125 365 pd lo;
#N canvas 163 149 666 302 hicut 0;
#X obj 115 27 inlet;
#X obj 115 56 t f f;
#X obj 115 82 gui_sr_offset \$1GUI_input_EQ_hicut_f %d_IN_EQ_HIGHCUT_FREQ
;
#X obj 115 102 gui_sr_offset \$1GUI_input_EQ_hicut %d_IN_EQ_HIGHCUT_ON
;
#X connect 0 0 1 0;
#X connect 1 0 2 0;
#X connect 1 1 3 0;
#X restore 124 255 pd hicut;
#N canvas 289 191 666 302 locut 0;
#X obj 115 47 inlet;
#X obj 115 86 t f f;
#X obj 115 112 gui_sr \$1GUI_input_EQ_locut_f %d_IN_EQ_LOWCUT_FREQ
;
#X obj 115 132 gui_sr \$1GUI_input_EQ_locut %d_IN_EQ_LOWCUT_ON;
#X connect 0 0 1 0;
#X connect 1 0 2 0;
#X connect 1 1 3 0;
#X restore 126 397 pd locut;
#X obj 92 196 t f f f f f f;
#X obj 92 130 t f f;
#X obj 211 14 r \$1GUI_input_EQ_togui;
#X obj 211 36 route set;
#X obj 211 59 f;
#N canvas 153 57 873 457 disable 0;
#X obj 182 26 inlet;
#X obj 101 209 s \$1GUI_input_EQ_hicut_f_togui;
#X obj 506 155 s \$1GUI_input_EQ_hicut_togui;
#X obj 101 229 s \$1GUI_input_EQ_hi_f_togui;
#X obj 311 229 s \$1GUI_input_EQ_hi_gain_togui;
#X obj 101 249 s \$1GUI_input_EQ_mid1_f_togui;
#X obj 311 249 s \$1GUI_input_EQ_mid1_gain_togui;
#X obj 541 249 s \$1GUI_input_EQ_mid1_q_togui;
#X obj 101 269 s \$1GUI_input_EQ_mid2_f_togui;
#X obj 311 269 s \$1GUI_input_EQ_mid2_gain_togui;
#X obj 541 269 s \$1GUI_input_EQ_mid2_q_togui;
#X obj 311 289 s \$1GUI_input_EQ_lo_gain_togui;
#X obj 101 289 s \$1GUI_input_EQ_lo_f_togui;
#X obj 101 309 s \$1GUI_input_EQ_locut_f_togui;
#X obj 506 135 s \$1GUI_input_EQ_locut_togui;
#X obj 182 54 select 0 1;
#X msg 182 74 31;
#X msg 214 74 -1;
#X obj 107 187 t a a a a a a;
#X obj 327 197 t a a a a;
#X obj 589 225 t a a;
#X obj 506 106 t a a;
#X text 315 360 bg label;
#X obj 337 319 t f f f;
#X obj 599 418 s \$1GUIinchannel_EQ_q_cnv;
#X obj 179 431 s \$1GUIinchannel_EQ_freq_cnv;
#X obj 390 393 s \$1GUIinchannel_EQ_gain_cnv;
#X obj 390 352 pack 0 0;
#X msg 390 372 color \$2 \$1;
#X obj 459 24 loadbang;
#X obj 179 390 pack 0 0;
#X msg 179 410 color \$2 \$1;
#X msg 521 24 bang;
#X msg 87 167 color \$2 \$1 \$1;
#X obj 87 147 pack 0 0;
#X msg 333 177 color \$2 \$1 \$1;
#X obj 333 157 pack 0 0;
#X msg 592 205 color \$2 \$1 \$1;
#X obj 592 185 pack 0 0;
#X msg 506 81 color \$2 \$1 \$1;
#X obj 181 96 t f f f f f;
#X obj 506 61 pack 0 0;
#X obj 332 52 unpack;
#X obj 389 50 unpack;
#X obj 599 376 pack 0 0;
#X msg 599 396 color \$2 \$1;
#X obj 438 50 unpack;
#X obj 333 24 colorschemes/eq;
#X connect 0 0 15 0;
#X connect 15 0 16 0;
#X connect 15 1 17 0;
#X connect 16 0 40 0;
#X connect 17 0 40 0;
#X connect 18 0 1 0;
#X connect 18 1 3 0;
#X connect 18 2 5 0;
#X connect 18 3 8 0;
#X connect 18 4 12 0;
#X connect 18 5 13 0;
#X connect 19 0 4 0;
#X connect 19 1 6 0;
#X connect 19 2 9 0;
#X connect 19 3 11 0;
#X connect 20 0 7 0;
#X connect 20 1 10 0;
#X connect 21 0 14 0;
#X connect 21 1 2 0;
#X connect 23 0 30 0;
#X connect 23 1 27 0;
#X connect 23 2 44 0;
#X connect 27 0 28 0;
#X connect 28 0 26 0;
#X connect 29 0 47 0;
#X connect 30 0 31 0;
#X connect 31 0 25 0;
#X connect 32 0 47 0;
#X connect 33 0 18 0;
#X connect 34 0 33 0;
#X connect 35 0 19 0;
#X connect 36 0 35 0;
#X connect 37 0 20 0;
#X connect 38 0 37 0;
#X connect 39 0 21 0;
#X connect 40 0 34 0;
#X connect 40 1 36 0;
#X connect 40 2 38 0;
#X connect 40 3 41 0;
#X connect 40 4 23 0;
#X connect 41 0 39 0;
#X connect 42 0 34 1;
#X connect 42 1 30 1;
#X connect 43 0 36 1;
#X connect 43 1 27 1;
#X connect 44 0 45 0;
#X connect 45 0 24 0;
#X connect 46 0 38 1;
#X connect 46 1 44 1;
#X connect 47 0 42 0;
#X connect 47 1 43 0;
#X connect 47 2 46 0;
#X restore 211 79 pd disable;
#X obj 122 156 gui_sr \$1GUI_input_EQ %d_IN_EQ_ON;
#X connect 0 0 8 0;
#X connect 7 0 5 0;
#X connect 7 1 3 0;
#X connect 7 2 1 0;
#X connect 7 3 2 0;
#X connect 7 4 4 0;
#X connect 7 5 6 0;
#X connect 8 0 7 0;
#X connect 8 1 13 0;
#X connect 9 0 10 0;
#X connect 10 0 11 0;
#X connect 10 1 11 0;
#X connect 11 0 12 0;
#X restore 205 131 pd EQ;
#N canvas 108 103 804 325 plugins 0;
#X obj 110 30 inlet ID#;
#X obj 110 66 t f f f f;
#N canvas 0 0 450 300 plugin-gui 0;
#X obj 102 41 inlet;
#X obj 102 211 fx/TEST/gui;
#X connect 0 0 1 0;
#X restore 141 268 pd plugin-gui;
#X obj 262 221 print pluggy;
#X obj 109 97 inchannel/helper/plugin \$1GUI_plugin1 1;
#X obj 436 48 r fakepopup;
#X obj 141 218 t a a;
#X obj 436 104 t a;
#X msg 474 120 options none \, name plugin;
#X msg 436 75 options none TEST TUST TAST \, name plugin;
#X obj 129 119 inchannel/helper/plugin \$1GUI_plugin2 2;
#X obj 149 141 inchannel/helper/plugin \$1GUI_plugin3 3;
#X obj 175 164 inchannel/helper/plugin \$1GUI_plugin4 4;
#X connect 0 0 1 0;
#X connect 1 0 4 0;
#X connect 1 1 10 0;
#X connect 1 2 11 0;
#X connect 1 3 12 0;
#X connect 4 0 6 0;
#X connect 5 0 9 0;
#X connect 6 0 2 0;
#X connect 7 0 4 1;
#X connect 7 0 10 1;
#X connect 7 0 11 1;
#X connect 7 0 12 1;
#X connect 8 0 7 0;
#X connect 9 0 7 0;
#X connect 10 0 6 0;
#X connect 11 0 6 0;
#X connect 12 0 6 0;
#X restore 312 139 pd plugins;
#N canvas 5 62 845 473 aux 0;
#X obj 38 9 inlet ID#;
#X obj 38 39 t f f f f;
#X obj 38 64 inchannel/helper/auxiliary \$1GUI_aux1 %d_IN_AUX_1;
#X obj 57 84 inchannel/helper/auxiliary \$1GUI_aux2 %d_IN_AUX_2;
#X obj 76 104 inchannel/helper/auxiliary \$1GUI_aux3 %d_IN_AUX_3;
#X obj 96 124 inchannel/helper/auxiliary \$1GUI_aux4 %d_IN_AUX_4;
#X obj 155 410 s \$1GUI_aux1_togui;
#X obj 185 434 s \$1GUI_aux2_togui;
#X obj 292 410 s \$1GUI_aux3_togui;
#X obj 244 388 t a a a a;
#X obj 322 434 s \$1GUI_aux4_togui;
#X obj 244 359 DSPnamesGUI AUX;
#X obj 244 330 r GUI_dspNames;
#X connect 0 0 1 0;
#X connect 1 0 2 0;
#X connect 1 1 3 0;
#X connect 1 2 4 0;
#X connect 1 3 5 0;
#X connect 9 0 6 0;
#X connect 9 1 7 0;
#X connect 9 2 8 0;
#X connect 9 3 10 0;
#X connect 11 0 9 0;
#X connect 12 0 11 0;
#X restore 175 222 pd aux;
#N canvas 0 0 882 278 vu 0;
#X obj 431 225 s \$1GUI_input_vu_togui;
#X obj 52 6 inlet ID#;
#X obj 76 100 pack 0 1;
#X msg 76 121 \; \$2_IN_VU_SRC \$1;
#X obj 69 193 gui_sr_offset \$1GUI_input_vuselect %d_IN_VU_SRC;
#X obj 76 51 #r \$1GUI_input_vuselect_fromgui;
#X msg 431 175 set \$1_IN_VU_LEVEL;
#X obj 431 198 iem_r 0_IN_VU_LEVEL;
#X connect 1 0 2 1;
#X connect 1 0 4 0;
#X connect 1 0 6 0;
#X connect 2 0 3 0;
#X connect 5 0 2 0;
#X connect 6 0 7 0;
#X connect 7 0 0 0;
#X restore 36 148 pd vu;
#N canvas 433 158 763 400 spat 0;
#X obj 146 76 r \$1GUI_input_spat_fromgui;
#N canvas 252 0 933 610 ambi 0;
#N canvas 276 41 715 312 enable-disable 0;
#X obj 292 245 s \$1GUI_input_ambi_cnv_togui;
#X obj 218 30 inlet;
#X obj 30 217 s \$1GUI_input_ambi_r_togui;
#X obj 30 237 s \$1GUI_input_ambi_phi_togui;
#X obj 30 258 s \$1GUI_input_ambi_theta_togui;
#X msg 30 196 color \$1 \$2 \$3;
#X msg 292 225 color \$1 \$2;
#X msg 30 173 0 -1 -1;
#X text 382 227 bg lbl = (-233017 -66577)?? = 10 -1;
#X msg 292 152 10 -1;
#X obj 218 53 select 1 0;
#N canvas 0 0 588 407 RGB 0;
#X obj 122 18 inlet;
#X obj 199 20 inlet;
#X obj 265 21 inlet;
#X obj 199 195 +;
#X obj 183 221 +;
#X obj 122 164 * -65536;
#X obj 199 165 * -256;
#X obj 265 165 * -1;
#X obj 183 252 - 1;
#X obj 183 278 outlet;
#X obj 122 100 pack 0 0 0;
#X obj 122 126 unpack 0 0 0;
#X obj 199 44 t b f;
#X obj 265 44 t b f;
#X connect 0 0 10 0;
#X connect 1 0 12 0;
#X connect 2 0 13 0;
#X connect 3 0 4 1;
#X connect 4 0 8 0;
#X connect 5 0 4 0;
#X connect 6 0 3 0;
#X connect 7 0 3 1;
#X connect 8 0 9 0;
#X connect 10 0 11 0;
#X connect 11 0 5 0;
#X connect 11 1 6 0;
#X connect 11 2 7 0;
#X connect 12 0 10 0;
#X connect 12 1 10 1;
#X connect 13 0 10 0;
#X connect 13 1 10 2;
#X restore 379 125 pd RGB;
#X msg 379 184 10 \$1;
#X msg 379 105 \$1 \$1 \$1;
#X msg 379 85 190;
#X text 140 190 bg front lbl;
#X text 139 201 = (-262144 -1 -1)?;
#X obj 267 31 tgl 15 0 empty empty empty 0 -6 0 8 -262144 -1 -1 0 1
;
#X msg 87 173 10 10 \$1;
#X msg 178 129 set 1;
#X msg 178 148 set 0;
#X obj 178 110 t b b;
#X connect 1 0 10 0;
#X connect 5 0 2 0;
#X connect 5 0 3 0;
#X connect 5 0 4 0;
#X connect 6 0 0 0;
#X connect 7 0 5 0;
#X connect 9 0 6 0;
#X connect 10 0 7 0;
#X connect 10 0 9 0;
#X connect 10 1 14 0;
#X connect 10 1 21 0;
#X connect 11 0 12 0;
#X connect 11 0 18 0;
#X connect 12 0 6 0;
#X connect 13 0 11 0;
#X connect 14 0 13 0;
#X connect 17 0 10 0;
#X connect 18 0 5 0;
#X connect 19 0 2 0;
#X connect 20 0 3 0;
#X connect 20 0 4 0;
#X connect 21 0 19 0;
#X connect 21 1 20 0;
#X restore 502 81 pd enable-disable;
#X obj 429 59 t f f;
#X obj 428 34 inlet OnOff;
#X msg 263 130 symbol \$1_IN_AMBI;
#X msg 85 217 \$1_RAD;
#X obj 59 239 sendreceive 1_IN_AMBI_RAD;
#X obj 59 198 r \$1GUI_input_ambi_r_fromgui;
#X obj 59 263 s \$1GUI_input_ambi_r_togui;
#X obj 263 150 t s s s;
#X obj 259 198 r \$1GUI_input_ambi_phi_fromgui;
#X obj 259 293 s \$1GUI_input_ambi_phi_togui;
#X msg 365 217 \$1_AZM;
#X obj 259 239 sendreceive 1_IN_AMBI_AZM;
#X obj 479 198 r \$1GUI_input_ambi_theta_fromgui;
#X obj 479 239 sendreceive 1_IN_AMBI_ELV;
#X obj 479 293 s \$1GUI_input_ambi_theta_togui;
#X msg 505 217 \$1_ELV;
#X obj 263 64 inlet #id;
#X obj 259 269 wrap -180 180;
#X connect 1 1 0 0;
#X connect 2 0 1 0;
#X connect 3 0 8 0;
#X connect 4 0 5 1;
#X connect 5 0 7 0;
#X connect 6 0 5 0;
#X connect 8 0 4 0;
#X connect 8 1 11 0;
#X connect 8 2 16 0;
#X connect 9 0 12 0;
#X connect 11 0 12 1;
#X connect 12 0 18 0;
#X connect 13 0 14 0;
#X connect 14 0 15 0;
#X connect 16 0 14 1;
#X connect 17 0 3 0;
#X connect 18 0 10 0;
#X restore 140 286 pd ambi;
#N canvas 91 65 874 666 direct 0;
#N canvas 383 44 729 581 enable-disable 0;
#X obj 218 30 inlet;
#X msg 30 226 color \$1 \$2 \$3;
#X msg 292 225 color \$1 \$2;
#X text 382 227 bg lbl = (-233017 -66577)?? = 10 -1;
#X msg 292 152 10 -1;
#X obj 218 53 select 1 0;
#N canvas 0 0 588 407 RGB 0;
#X obj 122 18 inlet;
#X obj 199 20 inlet;
#X obj 265 21 inlet;
#X obj 199 195 +;
#X obj 183 221 +;
#X obj 122 164 * -65536;
#X obj 199 165 * -256;
#X obj 265 165 * -1;
#X obj 183 252 - 1;
#X obj 183 278 outlet;
#X obj 122 100 pack 0 0 0;
#X obj 122 126 unpack 0 0 0;
#X obj 199 44 t b f;
#X obj 265 44 t b f;
#X connect 0 0 10 0;
#X connect 1 0 12 0;
#X connect 2 0 13 0;
#X connect 3 0 4 1;
#X connect 4 0 8 0;
#X connect 5 0 4 0;
#X connect 6 0 3 0;
#X connect 7 0 3 1;
#X connect 8 0 9 0;
#X connect 10 0 11 0;
#X connect 11 0 5 0;
#X connect 11 1 6 0;
#X connect 11 2 7 0;
#X connect 12 0 10 0;
#X connect 12 1 10 1;
#X connect 13 0 10 0;
#X connect 13 1 10 2;
#X restore 379 125 pd RGB;
#X msg 379 184 10 \$1;
#X msg 379 105 \$1 \$1 \$1;
#X msg 379 85 190;
#X text 140 190 bg front lbl;
#X text 139 201 = (-262144 -1 -1)?;
#X obj 292 245 s \$1GUI_input_direct_cnv_togui;
#X obj 30 325 s \$1GUI_bus1_gain_togui;
#X obj 210 325 s \$1GUI_bus2_gain_togui;
#X obj 30 345 s \$1GUI_bus3_gain_togui;
#X obj 210 345 s \$1GUI_bus4_gain_togui;
#X obj 30 365 s \$1GUI_bus5_gain_togui;
#X obj 210 365 s \$1GUI_bus6_gain_togui;
#X obj 30 385 s \$1GUI_bus7_gain_togui;
#X obj 210 385 s \$1GUI_bus8_gain_togui;
#X obj 30 405 s \$1GUI_bus9_gain_togui;
#X obj 210 405 s \$1GUI_bus10_gain_togui;
#X obj 30 425 s \$1GUI_bus11_gain_togui;
#X obj 210 425 s \$1GUI_bus12_gain_togui;
#X obj 30 445 s \$1GUI_bus13_gain_togui;
#X obj 210 445 s \$1GUI_bus14_gain_togui;
#X obj 30 465 s \$1GUI_bus15_gain_togui;
#X obj 210 465 s \$1GUI_bus16_gain_togui;
#X obj 30 301 t a a a a a a a a;
#X obj 210 301 t a a a a a a a a;
#X obj 30 269 t a a;
#X msg 39 118 1 2 3;
#X msg 87 173 10 10 \$1;
#X msg 124 241 set -100;
#X obj 337 16 loadbang;
#X msg 337 37 0;
#X obj 89 125 f;
#X msg 89 144 \$1 -1 -1;
#X obj 104 87 colorschemes/gain;
#X msg 98 58 bang;
#X obj 134 58 loadbang;
#X connect 0 0 5 0;
#X connect 1 0 31 0;
#X connect 2 0 12 0;
#X connect 4 0 2 0;
#X connect 5 0 4 0;
#X connect 5 0 37 0;
#X connect 5 1 9 0;
#X connect 5 1 34 0;
#X connect 6 0 7 0;
#X connect 6 0 33 0;
#X connect 7 0 2 0;
#X connect 8 0 6 0;
#X connect 9 0 8 0;
#X connect 29 0 13 0;
#X connect 29 1 15 0;
#X connect 29 2 17 0;
#X connect 29 3 19 0;
#X connect 29 4 21 0;
#X connect 29 5 23 0;
#X connect 29 6 25 0;
#X connect 29 7 27 0;
#X connect 30 0 14 0;
#X connect 30 1 16 0;
#X connect 30 2 18 0;
#X connect 30 3 20 0;
#X connect 30 4 22 0;
#X connect 30 5 24 0;
#X connect 30 6 26 0;
#X connect 30 7 28 0;
#X connect 31 0 29 0;
#X connect 31 1 30 0;
#X connect 32 0 1 0;
#X connect 33 0 1 0;
#X connect 34 0 31 0;
#X connect 35 0 36 0;
#X connect 36 0 5 0;
#X connect 37 0 38 0;
#X connect 38 0 1 0;
#X connect 39 0 37 1;
#X connect 40 0 39 0;
#X connect 41 0 39 0;
#X restore 502 81 pd enable-disable;
#X obj 502 27 inlet OnOff;
#X obj 312 44 inlet #id;
#X obj 174 147 t f f f f f f f f;
#X obj 480 157 t f f f f f f f f;
#X obj 312 119 t f f;
#X obj 100 180 gui_sr_offset \$1GUI_bus1_gain %d_IN_BUS_1_GAIN 100
;
#X obj 480 180 gui_sr_offset \$1GUI_bus2_gain %d_IN_BUS_2_GAIN 100
;
#X obj 100 200 gui_sr_offset \$1GUI_bus3_gain %d_IN_BUS_3_GAIN 100
;
#X obj 480 200 gui_sr_offset \$1GUI_bus4_gain %d_IN_BUS_4_GAIN 100
;
#X obj 100 220 gui_sr_offset \$1GUI_bus5_gain %d_IN_BUS_5_GAIN 100
;
#X obj 480 220 gui_sr_offset \$1GUI_bus6_gain %d_IN_BUS_6_GAIN 100
;
#X obj 100 240 gui_sr_offset \$1GUI_bus7_gain %d_IN_BUS_7_GAIN 100
;
#X obj 480 240 gui_sr_offset \$1GUI_bus8_gain %d_IN_BUS_8_GAIN 100
;
#X obj 100 260 gui_sr_offset \$1GUI_bus9_gain %d_IN_BUS_9_GAIN 100
;
#X obj 480 260 gui_sr_offset \$1GUI_bus10_gain %d_IN_BUS_10_GAIN 100
;
#X obj 100 280 gui_sr_offset \$1GUI_bus11_gain %d_IN_BUS_11_GAIN 100
;
#X obj 480 280 gui_sr_offset \$1GUI_bus12_gain %d_IN_BUS_12_GAIN 100
;
#X obj 100 300 gui_sr_offset \$1GUI_bus13_gain %d_IN_BUS_13_GAIN 100
;
#X obj 480 300 gui_sr_offset \$1GUI_bus14_gain %d_IN_BUS_14_GAIN 100
;
#X obj 100 320 gui_sr_offset \$1GUI_bus15_gain %d_IN_BUS_15_GAIN 100
;
#X obj 480 320 gui_sr_offset \$1GUI_bus16_gain %d_IN_BUS_16_GAIN 100
;
#X obj 237 378 r \$1GUI_bus2_gain_gui;
#X obj 304 400 - 100;
#X obj 237 400 route set;
#X obj 237 420 s \$1GUI_bus2_gain_togui;
#X msg 344 400 set \$1;
#X obj 407 378 r \$1GUI_bus3_gain_gui;
#X obj 474 400 - 100;
#X obj 407 400 route set;
#X obj 407 420 s \$1GUI_bus3_gain_togui;
#X msg 514 400 set \$1;
#X obj 577 378 r \$1GUI_bus4_gain_gui;
#X obj 644 400 - 100;
#X obj 577 400 route set;
#X obj 577 420 s \$1GUI_bus4_gain_togui;
#X msg 684 400 set \$1;
#X obj 67 448 r \$1GUI_bus5_gain_gui;
#X obj 134 470 - 100;
#X obj 67 470 route set;
#X obj 67 490 s \$1GUI_bus5_gain_togui;
#X msg 174 470 set \$1;
#X obj 237 448 r \$1GUI_bus6_gain_gui;
#X obj 304 470 - 100;
#X obj 237 470 route set;
#X obj 237 490 s \$1GUI_bus6_gain_togui;
#X msg 344 470 set \$1;
#X obj 407 448 r \$1GUI_bus7_gain_gui;
#X obj 474 470 - 100;
#X obj 407 470 route set;
#X obj 407 490 s \$1GUI_bus7_gain_togui;
#X msg 514 470 set \$1;
#X obj 577 448 r \$1GUI_bus8_gain_gui;
#X obj 644 470 - 100;
#X obj 577 470 route set;
#X obj 577 490 s \$1GUI_bus8_gain_togui;
#X obj 67 518 r \$1GUI_bus9_gain_gui;
#X obj 134 540 - 100;
#X obj 67 540 route set;
#X obj 67 560 s \$1GUI_bus9_gain_togui;
#X msg 174 540 set \$1;
#X obj 237 518 r \$1GUI_bus10_gain_gui;
#X obj 304 540 - 100;
#X obj 237 540 route set;
#X obj 237 560 s \$1GUI_bus10_gain_togui;
#X msg 344 540 set \$1;
#X obj 407 518 r \$1GUI_bus11_gain_gui;
#X obj 474 540 - 100;
#X obj 407 540 route set;
#X obj 407 560 s \$1GUI_bus11_gain_togui;
#X msg 514 540 set \$1;
#X obj 577 518 r \$1GUI_bus12_gain_gui;
#X obj 644 540 - 100;
#X obj 577 540 route set;
#X obj 577 560 s \$1GUI_bus12_gain_togui;
#X msg 684 540 set \$1;
#X obj 67 588 r \$1GUI_bus13_gain_gui;
#X obj 134 610 - 100;
#X obj 67 610 route set;
#X obj 67 630 s \$1GUI_bus13_gain_togui;
#X msg 174 610 set \$1;
#X obj 237 588 r \$1GUI_bus14_gain_gui;
#X obj 304 610 - 100;
#X obj 237 610 route set;
#X obj 237 630 s \$1GUI_bus14_gain_togui;
#X msg 344 610 set \$1;
#X obj 407 588 r \$1GUI_bus15_gain_gui;
#X obj 474 610 - 100;
#X obj 407 610 route set;
#X obj 407 630 s \$1GUI_bus15_gain_togui;
#X msg 514 610 set \$1;
#X obj 577 588 r \$1GUI_bus16_gain_gui;
#X obj 644 610 - 100;
#X obj 577 610 route set;
#X obj 577 630 s \$1GUI_bus16_gain_togui;
#X obj 68 352 Rgui_Stogui_offset \$1GUI_bus1_gain 100;
#X connect 1 0 0 0;
#X connect 2 0 5 0;
#X connect 3 0 6 0;
#X connect 3 1 8 0;
#X connect 3 2 10 0;
#X connect 3 3 12 0;
#X connect 3 4 14 0;
#X connect 3 5 16 0;
#X connect 3 6 18 0;
#X connect 3 7 20 0;
#X connect 4 0 7 0;
#X connect 4 1 9 0;
#X connect 4 2 11 0;
#X connect 4 3 13 0;
#X connect 4 4 15 0;
#X connect 4 5 17 0;
#X connect 4 6 19 0;
#X connect 4 7 21 0;
#X connect 5 0 3 0;
#X connect 5 1 4 0;
#X connect 22 0 24 0;
#X connect 23 0 26 0;
#X connect 24 0 23 0;
#X connect 26 0 25 0;
#X connect 27 0 29 0;
#X connect 28 0 31 0;
#X connect 29 0 28 0;
#X connect 31 0 30 0;
#X connect 32 0 34 0;
#X connect 33 0 36 0;
#X connect 34 0 33 0;
#X connect 36 0 35 0;
#X connect 37 0 39 0;
#X connect 38 0 41 0;
#X connect 39 0 38 0;
#X connect 41 0 40 0;
#X connect 42 0 44 0;
#X connect 43 0 46 0;
#X connect 44 0 43 0;
#X connect 46 0 45 0;
#X connect 47 0 49 0;
#X connect 48 0 51 0;
#X connect 49 0 48 0;
#X connect 51 0 50 0;
#X connect 52 0 54 0;
#X connect 54 0 53 0;
#X connect 56 0 58 0;
#X connect 57 0 60 0;
#X connect 58 0 57 0;
#X connect 60 0 59 0;
#X connect 61 0 63 0;
#X connect 62 0 65 0;
#X connect 63 0 62 0;
#X connect 65 0 64 0;
#X connect 66 0 68 0;
#X connect 67 0 70 0;
#X connect 68 0 67 0;
#X connect 70 0 69 0;
#X connect 71 0 73 0;
#X connect 72 0 75 0;
#X connect 73 0 72 0;
#X connect 75 0 74 0;
#X connect 76 0 78 0;
#X connect 77 0 80 0;
#X connect 78 0 77 0;
#X connect 80 0 79 0;
#X connect 81 0 83 0;
#X connect 82 0 85 0;
#X connect 83 0 82 0;
#X connect 85 0 84 0;
#X connect 86 0 88 0;
#X connect 87 0 90 0;
#X connect 88 0 87 0;
#X connect 90 0 89 0;
#X connect 91 0 93 0;
#X connect 93 0 92 0;
#X restore 230 286 pd direct;
#X obj 162 19 inlet ID#;
#X obj 146 163 pack;
#X obj 146 134 f 1;
#X msg 146 186 \; \$1_IN_SPATIALIZATION \$2;
#X obj 146 102 t b f f;
#X obj 190 264 == 0;
#X obj 280 264 == 1;
#X obj 190 237 t f f;
#X obj 442 120 s \$1GUI_input_spat_togui;
#X msg 442 95 set \$1;
#X obj 442 74 t f f;
#X obj 442 23 r \$1GUI_input_spat_gui;
#X obj 162 51 t f f f;
#X obj 442 51 route set;
#X connect 0 0 7 0;
#X connect 3 0 15 0;
#X connect 4 0 6 0;
#X connect 5 0 4 0;
#X connect 7 0 5 0;
#X connect 7 1 4 1;
#X connect 7 2 10 0;
#X connect 8 0 1 1;
#X connect 9 0 2 1;
#X connect 10 0 8 0;
#X connect 10 1 9 0;
#X connect 12 0 11 0;
#X connect 13 0 12 0;
#X connect 13 1 10 0;
#X connect 14 0 16 0;
#X connect 15 0 5 1;
#X connect 15 1 1 0;
#X connect 15 2 2 0;
#X connect 16 0 13 0;
#X connect 16 1 13 0;
#X restore 282 166 pd spat;
#X obj 175 111 t f f;
#X obj 282 111 t f f;
#X obj 36 58 t f f f f;
#N canvas 105 348 682 301 INPUTSECTION 0;
#X obj 97 19 inlet ID#;
#N canvas 0 0 450 300 input-gain 0;
#X obj 30 99 r \$1GUI_input_ingain_fromgui;
#X obj 30 120 + 100;
#X obj 30 142 pack -100 1;
#X obj 102 49 inlet ID#;
#X msg 30 163 \; \$2_IN_ADJ_GAIN \$1;
#X connect 0 0 1 0;
#X connect 1 0 2 0;
#X connect 2 0 4 0;
#X connect 3 0 2 1;
#X restore 40 101 pd input-gain;
#N canvas 0 0 450 300 input-select 0;
#X obj 241 59 inlet ID#;
#X obj 125 120 r \$1GUI_input_select_fromgui;
#X obj 125 141 unpack 0 s;
#X obj 190 180 pack s 1;
#X msg 190 201 \; \$2_IN_SRC symbol \$1;
#X obj 190 160 uglifysymbol;
#X connect 0 0 3 1;
#X connect 1 0 2 0;
#X connect 2 1 5 0;
#X connect 3 0 4 0;
#X connect 5 0 3 0;
#X restore 135 101 pd input-select;
#N canvas 0 0 450 300 input-delay 0;
#X obj 102 49 inlet ID#;
#X obj 30 99 r \$1GUI_input_delay_fromgui;
#X obj 30 120 clip 0 1000;
#X msg 30 163 \; \$2_IN_DEL \$1;
#X obj 30 142 pack 0 1;
#X connect 0 0 4 1;
#X connect 1 0 2 0;
#X connect 2 0 4 0;
#X connect 4 0 3 0;
#X restore 151 145 pd input-delay;
#N canvas 0 0 450 300 input-invert 0;
#X obj 102 49 inlet ID#;
#X obj 30 79 r \$1GUI_input_invert_fromgui;
#X msg 30 163 \; \$2_IN_INV \$1;
#X obj 30 100 - 0.5;
#X obj 30 120 * -2;
#X obj 30 142 pack 1 1;
#X connect 0 0 5 1;
#X connect 1 0 3 0;
#X connect 3 0 4 0;
#X connect 4 0 5 0;
#X connect 5 0 2 0;
#X restore 36 144 pd input-invert;
#X obj 97 64 t f f f f;
#X obj 315 164 s \$1GUI_input_select_togui;
#X obj 315 123 DSPnamesGUI IN;
#X obj 315 96 r GUI_dspNames;
#X connect 0 0 5 0;
#X connect 5 0 1 0;
#X connect 5 1 4 0;
#X connect 5 2 2 0;
#X connect 5 3 3 0;
#X connect 7 0 6 0;
#X connect 8 0 7 0;
#X restore 334 105 pd INPUTSECTION;
#N canvas 304 431 744 314 FADER 0;
#X obj 210 19 inlet ID#;
#X obj 441 159 s \$1GUI_input_gain_togui;
#X obj 441 82 r \$1GUI_input_gain_fromgui;
#X obj 441 121 sendreceive 1_IN_FADER_GAIN;
#X obj 441 101 fadtodb;
#X obj 441 140 dbtofad;
#X msg 505 101 \$1_IN_FADER_GAIN;
#X obj 454 218 fadtodb;
#X obj 454 257 dbtofad;
#X obj 454 199 r \$1GUI_input_sub_fromgui;
#X obj 454 276 s \$1GUI_input_sub_togui;
#X obj 454 238 sendreceive 1_IN_SUB_GAIN;
#X msg 518 218 \$1_IN_SUB_GAIN;
#X obj 210 45 t f f f f;
#N canvas 304 44 616 485 mutesolo 0;
#X obj 198 87 r \$1GUI_input_mute_fromgui;
#X obj 198 165 s \$1GUI_input_mute_togui;
#X msg 262 106 \$1_IN_ON;
#X obj 198 126 sendreceive 1_IN_ON;
#X obj 198 106 == 0;
#X obj 198 146 == 0;
#X obj 11 86 r \$1GUI_input_solo_fromgui;
#X obj 11 154 s \$1GUI_input_solo_togui;
#X msg 75 105 \$1_IN_SOLO;
#X obj 11 125 sendreceive 1_IN_SOLO;
#X obj 388 87 r \$1GUI_input_mute_gui;
#X obj 388 127 == 0;
#X obj 388 108 route set;
#X msg 388 148 set \$1;
#X obj 153 36 t f f;
#X obj 153 14 inlet;
#X obj 11 174 r \$1GUI_input_solo_togui;
#X obj 11 195 route float set;
#X obj 11 314 s \$1GUI_input_solo_togui;
#X msg 38 262 0;
#X msg 11 292 color \$1 \$1 -1;
#X obj 201 215 route float set;
#X text 247 267 red;
#X msg 252 282 13;
#X msg 201 282 0;
#X msg 201 312 color \$1 \$1 -1;
#X text 6 247 green;
#X msg 11 262 16;
#X obj 201 194 r \$1GUI_input_mute_togui;
#X obj 201 248 select 0;
#X obj 11 228 select 1 0;
#X obj 201 334 s \$1GUI_input_mute_togui;
#X connect 0 0 4 0;
#X connect 2 0 3 1;
#X connect 3 0 5 0;
#X connect 4 0 3 0;
#X connect 5 0 1 0;
#X connect 6 0 9 0;
#X connect 8 0 9 1;
#X connect 9 0 7 0;
#X connect 10 0 12 0;
#X connect 11 0 13 0;
#X connect 12 0 11 0;
#X connect 12 1 11 0;
#X connect 13 0 1 0;
#X connect 14 0 8 0;
#X connect 14 1 2 0;
#X connect 15 0 14 0;
#X connect 16 0 17 0;
#X connect 17 0 30 0;
#X connect 17 1 30 0;
#X connect 19 0 20 0;
#X connect 20 0 18 0;
#X connect 21 0 29 0;
#X connect 21 1 29 0;
#X connect 23 0 25 0;
#X connect 24 0 25 0;
#X connect 25 0 31 0;
#X connect 27 0 20 0;
#X connect 28 0 21 0;
#X connect 29 0 24 0;
#X connect 29 1 23 0;
#X connect 30 0 27 0;
#X connect 30 1 19 0;
#X restore 210 89 pd mutesolo;
#X connect 0 0 13 0;
#X connect 2 0 4 0;
#X connect 3 0 5 0;
#X connect 4 0 3 0;
#X connect 5 0 1 0;
#X connect 6 0 3 1;
#X connect 7 0 11 0;
#X connect 8 0 10 0;
#X connect 9 0 7 0;
#X connect 11 0 8 0;
#X connect 12 0 11 1;
#X connect 13 0 14 0;
#X connect 13 2 12 0;
#X connect 13 3 6 0;
#X restore 66 177 pd FADER;
#X obj 36 112 t f f;
#X connect 0 0 9 0;
#X connect 7 0 4 0;
#X connect 7 1 2 0;
#X connect 8 0 6 0;
#X connect 8 1 3 0;
#X connect 9 0 12 0;
#X connect 9 1 7 0;
#X connect 9 2 8 0;
#X connect 9 3 10 0;
#X connect 12 0 5 0;
#X connect 12 1 11 0;
