#N canvas 480 353 450 300 10;
#N canvas 345 249 679 490 selector 1;
#X obj 103 252 outlet;
#X obj 103 233 r \$1GUI_inchannel_selected;
#X connect 1 0 0 0;
#X restore 36 33 pd selector;
#N canvas 230 263 518 315 locker 0;
#X obj 131 58 r \$1GUI_input_lock_fromgui;
#X obj 129 249 s \$1GUI_input_lock_togui;
#N canvas 196 210 688 496 locked 0;
#X obj 265 113 s \$1GUI_input_select_togui;
#X obj 76 49 inlet;
#X msg 72 73 disable \$1;
#X obj 93 168 s \$1GUI_aux1_togui;
#X obj 123 192 s \$1GUI_aux2_togui;
#X obj 230 168 s \$1GUI_aux3_togui;
#X obj 182 146 t a a a a;
#X obj 180 307 s \$1GUI_plugin1_togui;
#X obj 340 307 s \$1GUI_plugin2_togui;
#X obj 196 329 s \$1GUI_plugin3_togui;
#X obj 356 329 s \$1GUI_plugin4_togui;
#X obj 246 281 t a a a a;
#X obj 139 421 s \$1GUI_input_spat_togui;
#X obj 71 101 t a a a a;
#X obj 260 192 s \$1GUI_aux4_togui;
#X connect 1 0 2 0;
#X connect 2 0 13 0;
#X connect 6 0 3 0;
#X connect 6 1 4 0;
#X connect 6 2 5 0;
#X connect 6 3 14 0;
#X connect 11 0 7 0;
#X connect 11 1 9 0;
#X connect 11 2 8 0;
#X connect 11 3 10 0;
#X connect 13 0 12 0;
#X connect 13 1 11 0;
#X connect 13 2 6 0;
#X connect 13 3 0 0;
#X restore 131 142 pd locked popups;
#X obj 149 114 tgl 15 0 empty empty empty 0 -6 0 8 -262144 -1 -1 0
1;
#X obj 129 183 loadbang;
#X msg 129 212 1;
#X obj 217 82 select 0;
#X msg 336 189 open \$1;
#X obj 336 169 symbol;
#X obj 335 209 s \$1lockimg;
#X msg 321 121 PICS/unlocked.gif;
#X msg 374 142 PICS/locked.gif;
#X connect 0 0 2 0;
#X connect 0 0 6 0;
#X connect 3 0 2 0;
#X connect 4 0 5 0;
#X connect 5 0 1 0;
#X connect 6 0 10 0;
#X connect 6 1 11 0;
#X connect 7 0 9 0;
#X connect 8 0 7 0;
#X connect 10 0 8 0;
#X connect 11 0 8 0;
#X restore 181 35 pd locker;
#X obj 36 58 t f f f f;
#N canvas 304 431 744 314 FADER 0;
#X obj 210 99 inlet ID#;
#X obj 210 125 t f f f f;
#N canvas 358 174 602 636 solo 0;
#X obj 11 66 r \$1GUI_input_solo_fromgui;
#X obj 11 470 s \$1GUI_input_solo_togui;
#X msg 38 398 0;
#X text 6 383 green;
#X msg 11 398 16;
#X obj 225 83 inlet;
#X obj 11 424 i;
#X msg 11 448 color \$1 \$1 -1 \, set \$1;
#X obj 11 126 select 0;
#X msg 11 155 0;
#X obj 62 173 i;
#X obj 255 130 t f f;
#X obj 11 299 select -1;
#X obj 69 319 t b;
#X obj 225 106 t b f;
#X obj 11 271 i -1;
#X obj 11 210 i;
#X obj 62 151 t b b;
#X obj 11 243 sendreceive_nofb /IN/SOLO;
#X connect 0 0 8 0;
#X connect 2 0 6 0;
#X connect 4 0 6 0;
#X connect 5 0 14 0;
#X connect 6 0 7 0;
#X connect 7 0 1 0;
#X connect 8 0 9 0;
#X connect 8 1 17 0;
#X connect 9 0 16 0;
#X connect 9 0 2 0;
#X connect 10 0 16 0;
#X connect 11 0 10 1;
#X connect 11 1 12 1;
#X connect 12 0 4 0;
#X connect 12 1 13 0;
#X connect 13 0 2 0;
#X connect 14 0 15 0;
#X connect 14 1 11 0;
#X connect 15 0 12 0;
#X connect 16 0 18 0;
#X connect 17 0 10 0;
#X connect 17 1 4 0;
#X connect 18 0 15 0;
#X restore 210 209 pd solo;
#N canvas 348 362 558 438 ON 0;
#X obj 262 55 inlet;
#X obj 198 87 r \$1GUI_input_mute_fromgui;
#X obj 198 165 s \$1GUI_input_mute_togui;
#X obj 388 87 r \$1GUI_input_mute_gui;
#X obj 388 108 route set;
#X msg 388 148 set \$1;
#X obj 201 215 route float set;
#X text 247 267 red;
#X msg 252 282 13;
#X msg 201 282 0;
#X msg 201 312 color \$1 \$1 -1;
#X obj 201 194 r \$1GUI_input_mute_togui;
#X obj 201 334 s \$1GUI_input_mute_togui;
#X obj 198 106 != 0;
#X obj 198 146 != 0;
#X obj 388 127 != 0;
#X obj 201 249 select 0;
#X obj 198 126 sendreceive /IN/0/ON;
#X msg 262 106 /IN/\$1/ON;
#X connect 0 0 18 0;
#X connect 1 0 13 0;
#X connect 3 0 4 0;
#X connect 4 0 15 0;
#X connect 4 1 15 0;
#X connect 5 0 2 0;
#X connect 6 0 16 0;
#X connect 6 1 16 0;
#X connect 8 0 10 0;
#X connect 9 0 10 0;
#X connect 10 0 12 0;
#X connect 11 0 6 0;
#X connect 13 0 17 0;
#X connect 14 0 2 0;
#X connect 15 0 5 0;
#X connect 16 0 9 0;
#X connect 16 1 8 0;
#X connect 17 0 14 0;
#X connect 18 0 17 1;
#X restore 266 209 pd ON;
#X connect 0 0 1 0;
#X connect 1 0 2 0;
#X connect 1 1 3 0;
#X restore 66 177 pd FADER;
#X obj 36 112 t f f;
#X connect 0 0 2 0;
#X connect 2 0 4 0;
