#N canvas 0 0 943 701 10;
#X obj 108 104 popup 124 25 #ffffff --- channel:01 channel:02 channel:03
channel:04 channel:05 channel:06 channel:07 channel:08 channel:09 channel:10
channel:11 channel:12 channel:13 channel:14 channel:15 channel:16;
#X obj 100 100 cnv 15 140 90 empty empty channel 5 10 0 24 -233017
-233017 0;
#X obj 108 75 r \$1GUI_channel_togui;
#X obj 108 199 s \$1GUI_channel_fromgui;
#X obj 108 129 cnv 15 15 15 empty \$1GUI_inchannel_numcnv empty 10
25 0 72 -233017 -66577 0;
#X obj 360 127 s \$1GUI_inchannel_numcnv;
#X msg 360 110 label;
#X obj 324 344 s \$1GUI_channel_togui;
#X obj 153 236 r \$1GUI_channel_fromgui;
#N canvas 393 210 460 436 getnames 0;
#X obj 95 65 inlet;
#X obj 231 327 outlet;
#X msg 42 179 compact \, sort \, bang \, dump;
#X obj 231 209 symbol;
#X msg 231 229 add \$1;
#X obj 231 272 route list;
#X obj 231 294 symbol;
#X obj 231 251 index;
#X msg 327 213 reset;
#X obj 95 88 t b b b;
#X msg 147 61 bang;
#X obj 117 110 s GUI_getInChannelNums;
#X obj 231 132 r GUI_InChannelNum;
#X obj 231 171 makefilename channel:%02d;
#X connect 0 0 9 0;
#X connect 2 0 7 0;
#X connect 3 0 4 0;
#X connect 4 0 7 0;
#X connect 5 0 6 0;
#X connect 6 0 1 0;
#X connect 7 0 5 0;
#X connect 8 0 7 0;
#X connect 9 0 2 0;
#X connect 9 1 11 0;
#X connect 9 2 8 0;
#X connect 10 0 9 0;
#X connect 12 0 13 0;
#X connect 13 0 3 0;
#X restore 324 189 pd getnames;
#X msg 324 211 append \$1;
#X obj 324 169 t b b;
#X obj 324 88 loadbang;
#X msg 382 161 bang;
#X msg 406 187 name --- \, options;
#X obj 324 109 t b b;
#X msg 218 299 \$2;
#X obj 153 258 unpack 0 s;
#X obj 218 278 s2l :;
#X obj 218 397 s GUI_channel_getValues;
#X obj 218 319 t f f;
#X obj 400 212 r GUI_channel_select;
#X obj 425 283 makefilename channel:%02d;
#X obj 218 353 pack 0 \$1;
#X obj 216 512 r GUI_channel_getValues;
#X obj 216 533 f;
#X msg 216 595 label \$1;
#X obj 216 616 s \$1GUI_inchannel_numcnv;
#X obj 216 573 makefilename %02d;
#X text 484 305 just in case \, an "unselectable" input is selcted
from outside!;
#X msg 425 308 name \$1;
#X obj 400 257 t f f;
#X msg 288 594 label;
#X msg 339 593 label;
#X obj 400 236 sendreceive /IN/SELECT;
#X obj 243 452 s \$1GUI_inchannel_selected;
#X connect 0 0 3 0;
#X connect 2 0 0 0;
#X connect 6 0 5 0;
#X connect 8 0 17 0;
#X connect 9 0 10 0;
#X connect 10 0 7 0;
#X connect 11 0 9 0;
#X connect 11 1 14 0;
#X connect 12 0 15 0;
#X connect 13 0 11 0;
#X connect 14 0 7 0;
#X connect 15 0 11 0;
#X connect 15 1 6 0;
#X connect 16 0 20 0;
#X connect 17 1 18 0;
#X connect 18 0 16 0;
#X connect 20 0 23 0;
#X connect 20 1 35 0;
#X connect 21 0 34 0;
#X connect 22 0 30 0;
#X connect 23 0 19 0;
#X connect 24 0 25 0;
#X connect 25 0 28 0;
#X connect 26 0 27 0;
#X connect 28 0 26 0;
#X connect 30 0 7 0;
#X connect 31 0 20 0;
#X connect 31 1 22 0;
#X connect 32 0 27 0;
#X connect 33 0 27 0;
#X connect 34 0 31 0;
#X coords 0 -1 1 1 140 90 2 100 100;
