#N canvas 612 108 620 363 10;
#N canvas 1346 113 450 300 select 0;
#X obj 117 124 popup 115 20 #ffffff ambisonic ambisonic direct;
#X obj 100 100 cnv 15 150 50 empty empty Spatialization 5 12 0 14 -233017
-66577 0;
#N canvas 0 0 450 300 spat-popup 0;
#X obj 120 191 r \$1GUI_input_spat_togui;
#X obj 120 265 outlet;
#X obj 119 36 inlet;
#X obj 119 72 s \$1GUI_input_spat_fromgui;
#X obj 120 214 route float list symbol;
#X msg 120 241 set \$1;
#X connect 0 0 4 0;
#X connect 2 0 3 0;
#X connect 4 0 5 0;
#X connect 4 1 5 0;
#X connect 4 2 5 0;
#X connect 4 3 1 0;
#X connect 5 0 1 0;
#X restore 252 130 pd spat-popup;
#X connect 0 0 2 0;
#X connect 2 0 0 0;
#X coords 0 -1 1 1 150 50 1 100 100;
#X restore 100 100 pd select;
#N canvas 346 480 450 300 \$0-display 0;
#X obj 254 100 cnv 15 150 130 empty empty empty 20 12 0 14 -233017
-195568 0;
#X obj 261 118 nbx 3 14 -100 50 0 0 \$1GUI_bus1_gain_fromgui \$1GUI_bus1_gain_togui
BUS1 0 -6 0 8 -233017 -233017 -195568 0 256;
#X obj 295 118 nbx 3 14 -100 50 0 0 \$1GUI_bus2_gain_fromgui \$1GUI_bus2_gain_togui
BUS2 0 -6 0 8 -233017 -233017 -195568 0 256;
#X obj 329 118 nbx 3 14 -100 50 0 0 \$1GUI_bus3_gain_fromgui \$1GUI_bus3_gain_togui
BUS3 0 -6 0 8 -233017 -233017 -195568 0 256;
#X obj 363 118 nbx 3 14 -100 50 0 0 \$1GUI_bus4_gain_fromgui \$1GUI_bus4_gain_togui
BUS4 0 -6 0 8 -233017 -233017 -195568 0 256;
#X obj 261 147 nbx 3 14 -100 50 0 0 \$1GUI_bus5_gain_fromgui \$1GUI_bus5_gain_togui
BUS5 0 -6 0 8 -233017 -233017 -195568 0 256;
#X obj 295 147 nbx 3 14 -100 50 0 0 \$1GUI_bus6_gain_fromgui \$1GUI_bus6_gain_togui
BUS6 0 -6 0 8 -233017 -233017 -195568 0 256;
#X obj 329 147 nbx 3 14 -100 50 0 0 \$1GUI_bus7_gain_fromgui \$1GUI_bus7_gain_togui
BUS7 0 -6 0 8 -233017 -233017 -195568 0 256;
#X obj 363 147 nbx 3 14 -100 50 0 0 \$1GUI_bus8_gain_fromgui \$1GUI_bus8_gain_togui
BUS8 0 -6 0 8 -233017 -233017 -195568 0 256;
#X obj 261 178 nbx 3 14 -100 50 0 0 \$1GUI_bus9_gain_fromgui \$1GUI_bus9_gain_togui
BUS9 0 -6 0 8 -233017 -233017 -195568 0 256;
#X obj 295 178 nbx 3 14 -100 50 0 0 \$1GUI_bus10_gain_fromgui \$1GUI_bus10_gain_togui
BUS10 0 -6 0 8 -233017 -233017 -195568 0 256;
#X obj 329 178 nbx 3 14 -100 50 0 0 \$1GUI_bus11_gain_fromgui \$1GUI_bus11_gain_togui
BUS11 0 -6 0 8 -233017 -233017 -195568 0 256;
#X obj 363 178 nbx 3 14 -100 50 0 0 \$1GUI_bus12_gain_fromgui \$1GUI_bus12_gain_togui
BUS12 0 -6 0 8 -233017 -233017 -195568 0 256;
#X obj 261 207 nbx 3 14 -100 50 0 0 \$1GUI_bus13_gain_fromgui \$1GUI_bus13_gain_togui
BUS13 0 -6 0 8 -233017 -233017 -195568 0 256;
#X obj 295 207 nbx 3 14 -100 50 0 0 \$1GUI_bus14_gain_fromgui \$1GUI_bus14_gain_togui
BUS14 0 -6 0 8 -233017 -233017 -195568 0 256;
#X obj 329 207 nbx 3 14 -100 50 0 0 \$1GUI_bus15_gain_fromgui \$1GUI_bus15_gain_togui
BUS15 0 -6 0 8 -233017 -233017 -195568 0 256;
#X obj 363 207 nbx 3 14 -100 50 0 0 \$1GUI_bus16_gain_fromgui \$1GUI_bus16_gain_togui
BUS16 0 -6 0 8 -233017 -233017 -195568 0 256;
#X obj 100 100 cnv 15 150 130 empty empty empty 20 12 0 14 -233017
-1 0;
#X obj 139 103 nbx 5 14 0 100 0 0 \$1GUI_input_ambi_r_fromgui \$1GUI_input_ambi_r_togui
[m] 50 7 0 8 -262144 -1 -1 0 256;
#X msg 346 76 label m;
#X obj 121 120 cube_sphere 0 54 18 62783 233016 262143 54 0;
#X obj 121 258 s \$1inchannel_ambisphere_fromgui;
#X obj 121 79 r \$1inchannel_ambisphere_togui;
#X connect 19 0 18 0;
#X connect 20 0 21 0;
#X connect 22 0 20 0;
#X coords 0 -1 1 1 150 130 2 100 100;
#X restore 100 150 pd \$0-display;
#X coords 0 -1 1 1 150 181 2 100 100;
