#N canvas 119 144 709 411 10;
#X obj 493 27 inlet~;
#X obj 451 27 inlet~;
#X obj 410 27 inlet~;
#X obj 399 357 outlet~;
#X obj 446 357 outlet~;
#X obj 493 357 outlet~;
#X obj 540 357 outlet~;
#X obj 365 27 inlet~;
#X obj 323 27 inlet~;
#X obj 282 27 inlet~;
#X obj 106 27 inlet~;
#X obj 64 27 inlet~;
#X obj 23 27 inlet~;
#X obj 236 27 inlet~;
#X obj 194 27 inlet~;
#X obj 153 27 inlet~;
#X obj 210 357 outlet~;
#X obj 257 357 outlet~;
#X obj 303 357 outlet~;
#X obj 350 357 outlet~;
#X obj 21 357 outlet~;
#X obj 68 357 outlet~;
#X obj 115 357 outlet~;
#X obj 162 357 outlet~;
#X obj 22 143 submatrix4~ ______________;
#X obj 210 143 submatrix4~ ______________;
#X obj 400 143 submatrix4~ ______________;
#X obj 24 86 submatrix3~ _____;
#X obj 154 86 submatrix3~ _____;
#X obj 283 86 submatrix3~ _____;
#X obj 411 86 submatrix3~ _____;
#X obj 304 197 submatrix6~ __________________________;
#X obj 22 199 submatrix6~ _________________________;
#X obj 20 320 submatrix3~ _____;
#X obj 162 319 submatrix5~ ____________________;
#X obj 399 316 submatrix4~ ____________;
#X connect 0 0 30 2;
#X connect 1 0 30 1;
#X connect 2 0 30 0;
#X connect 7 0 29 2;
#X connect 8 0 29 1;
#X connect 9 0 29 0;
#X connect 10 0 27 2;
#X connect 11 0 27 1;
#X connect 12 0 27 0;
#X connect 13 0 28 2;
#X connect 14 0 28 1;
#X connect 15 0 28 0;
#X connect 24 0 32 0;
#X connect 24 1 31 0;
#X connect 24 2 32 3;
#X connect 24 3 31 3;
#X connect 25 0 32 1;
#X connect 25 1 31 1;
#X connect 25 2 32 4;
#X connect 25 3 31 4;
#X connect 26 0 32 2;
#X connect 26 1 31 2;
#X connect 26 2 32 5;
#X connect 26 3 31 5;
#X connect 27 0 24 0;
#X connect 27 1 25 0;
#X connect 27 2 26 0;
#X connect 28 0 24 1;
#X connect 28 1 25 1;
#X connect 28 2 26 1;
#X connect 29 0 24 2;
#X connect 29 1 25 2;
#X connect 29 2 26 2;
#X connect 30 0 24 3;
#X connect 30 1 25 3;
#X connect 30 2 26 3;
#X connect 31 0 33 1;
#X connect 31 1 34 1;
#X connect 31 2 35 1;
#X connect 31 3 34 3;
#X connect 31 4 34 4;
#X connect 31 5 35 3;
#X connect 32 0 33 0;
#X connect 32 1 34 0;
#X connect 32 2 35 0;
#X connect 32 3 33 2;
#X connect 32 4 34 2;
#X connect 32 5 35 2;
#X connect 33 0 20 0;
#X connect 33 1 21 0;
#X connect 33 2 22 0;
#X connect 34 0 23 0;
#X connect 34 1 16 0;
#X connect 34 2 17 0;
#X connect 34 3 18 0;
#X connect 34 4 19 0;
#X connect 35 0 3 0;
#X connect 35 1 4 0;
#X connect 35 2 5 0;
#X connect 35 3 6 0;
