#N canvas 32 214 964 410 10;
#X obj 613 27 inlet~;
#X obj 571 27 inlet~;
#X obj 530 27 inlet~;
#X obj 479 363 outlet~;
#X obj 525 363 outlet~;
#X obj 570 363 outlet~;
#X obj 615 363 outlet~;
#X obj 445 27 inlet~;
#X obj 403 27 inlet~;
#X obj 362 27 inlet~;
#X obj 106 27 inlet~;
#X obj 64 27 inlet~;
#X obj 23 27 inlet~;
#X obj 276 27 inlet~;
#X obj 234 27 inlet~;
#X obj 193 27 inlet~;
#X obj 248 363 outlet~;
#X obj 293 363 outlet~;
#X obj 338 363 outlet~;
#X obj 383 363 outlet~;
#X obj 16 363 outlet~;
#X obj 62 363 outlet~;
#X obj 107 363 outlet~;
#X obj 152 363 outlet~;
#X obj 712 363 outlet~;
#X obj 758 363 outlet~;
#X obj 803 363 outlet~;
#X obj 848 363 outlet~;
#X obj 894 363 outlet~;
#X obj 661 363 outlet~;
#X obj 429 363 outlet~;
#X obj 198 363 outlet~;
#X obj 148 27 inlet~;
#X obj 318 27 inlet~;
#X obj 487 27 inlet~;
#X obj 657 27 inlet~;
#X obj 782 26 inlet~;
#X obj 740 26 inlet~;
#X obj 699 26 inlet~;
#X obj 826 26 inlet~;
#X obj 482 324 submatrix10~ _______________________________________________
;
#X obj 17 319 submatrix10~ ______________________________________________
;
#X obj 21 237 submatrix6~ ________________________;
#X obj 619 237 submatrix6~ ________________________;
#X obj 287 237 submatrix8~ _________________________________;
#X obj 22 68 submatrix4~ ________;
#X obj 192 68 submatrix4~ ________;
#X obj 361 68 submatrix4~ ________;
#X obj 529 68 submatrix4~ ________;
#X obj 698 67 submatrix4~ ________;
#X obj 718 146 submatrix5~ _________________;
#X obj 485 146 submatrix5~ _________________;
#X obj 253 146 submatrix5~ _________________;
#X obj 22 146 submatrix5~ _________________;
#X connect 0 0 48 2;
#X connect 1 0 48 1;
#X connect 2 0 48 0;
#X connect 7 0 47 2;
#X connect 8 0 47 1;
#X connect 9 0 47 0;
#X connect 10 0 45 2;
#X connect 11 0 45 1;
#X connect 12 0 45 0;
#X connect 13 0 46 2;
#X connect 14 0 46 1;
#X connect 15 0 46 0;
#X connect 32 0 45 3;
#X connect 33 0 46 3;
#X connect 34 0 47 3;
#X connect 35 0 48 3;
#X connect 36 0 49 2;
#X connect 37 0 49 1;
#X connect 38 0 49 0;
#X connect 39 0 49 3;
#X connect 40 0 3 0;
#X connect 40 1 4 0;
#X connect 40 2 5 0;
#X connect 40 3 6 0;
#X connect 40 4 29 0;
#X connect 40 5 24 0;
#X connect 40 6 25 0;
#X connect 40 7 26 0;
#X connect 40 8 27 0;
#X connect 40 9 28 0;
#X connect 41 0 20 0;
#X connect 41 1 21 0;
#X connect 41 2 22 0;
#X connect 41 3 23 0;
#X connect 41 4 31 0;
#X connect 41 5 16 0;
#X connect 41 6 17 0;
#X connect 41 7 18 0;
#X connect 41 8 19 0;
#X connect 41 9 30 0;
#X connect 42 0 41 0;
#X connect 42 1 41 3;
#X connect 42 2 41 6;
#X connect 42 3 40 1;
#X connect 42 4 40 4;
#X connect 42 5 40 7;
#X connect 43 0 41 2;
#X connect 43 1 41 5;
#X connect 43 2 41 8;
#X connect 43 3 40 3;
#X connect 43 4 40 6;
#X connect 43 5 40 9;
#X connect 44 0 41 1;
#X connect 44 1 41 4;
#X connect 44 2 41 7;
#X connect 44 3 41 9;
#X connect 44 4 40 0;
#X connect 44 5 40 2;
#X connect 44 6 40 5;
#X connect 44 7 40 8;
#X connect 45 0 53 0;
#X connect 45 1 52 0;
#X connect 45 2 51 0;
#X connect 45 3 50 0;
#X connect 46 0 53 1;
#X connect 46 1 52 1;
#X connect 46 2 51 1;
#X connect 46 3 50 1;
#X connect 47 0 53 2;
#X connect 47 1 52 2;
#X connect 47 2 51 2;
#X connect 47 3 50 2;
#X connect 48 0 53 3;
#X connect 48 1 52 3;
#X connect 48 2 51 3;
#X connect 48 3 50 3;
#X connect 49 0 53 4;
#X connect 49 1 52 4;
#X connect 49 2 51 4;
#X connect 49 3 50 4;
#X connect 50 0 42 3;
#X connect 50 1 44 3;
#X connect 50 2 44 5;
#X connect 50 3 43 1;
#X connect 50 4 43 5;
#X connect 51 0 42 2;
#X connect 51 1 44 2;
#X connect 51 2 44 4;
#X connect 51 3 43 0;
#X connect 51 4 43 4;
#X connect 52 0 42 1;
#X connect 52 1 44 1;
#X connect 52 2 42 5;
#X connect 52 3 44 7;
#X connect 52 4 43 3;
#X connect 53 0 42 0;
#X connect 53 1 44 0;
#X connect 53 2 42 4;
#X connect 53 3 44 6;
#X connect 53 4 43 2;
