#N canvas 507 48 382 364 10;
#X obj 228 27 inlet~;
#X obj 187 27 inlet~;
#X obj 64 27 inlet~;
#X obj 23 27 inlet~;
#X obj 146 27 inlet~;
#X obj 105 27 inlet~;
#X obj 160 325 outlet~;
#X obj 206 325 outlet~;
#X obj 252 325 outlet~;
#X obj 22 325 outlet~;
#X obj 68 325 outlet~;
#X obj 114 325 outlet~;
#X obj 158 124 submatrix3~ __________;
#X obj 21 124 submatrix3~ __________;
#X obj 21 199 submatrix4~ _________________;
#X obj 223 198 submatrix2~;
#X obj 116 267 submatrix4~ _________________;
#X obj 22 268 submatrix2~;
#X obj 24 63 submatrix6~ _______________________________;
#X connect 0 0 18 5;
#X connect 1 0 18 4;
#X connect 2 0 18 1;
#X connect 3 0 18 0;
#X connect 4 0 18 3;
#X connect 5 0 18 2;
#X connect 12 0 14 1;
#X connect 12 1 14 3;
#X connect 12 2 15 1;
#X connect 13 0 14 0;
#X connect 13 1 15 0;
#X connect 13 2 14 2;
#X connect 14 0 17 0;
#X connect 14 1 16 0;
#X connect 14 2 17 1;
#X connect 14 3 16 2;
#X connect 15 0 16 1;
#X connect 15 1 16 3;
#X connect 16 0 11 0;
#X connect 16 1 6 0;
#X connect 16 2 7 0;
#X connect 16 3 8 0;
#X connect 17 0 9 0;
#X connect 17 1 10 0;
#X connect 18 0 13 0;
#X connect 18 1 12 0;
#X connect 18 2 13 1;
#X connect 18 3 12 1;
#X connect 18 4 13 2;
#X connect 18 5 12 2;
