#N canvas 4 223 990 410 10;
#X obj 613 27 inlet~;
#X obj 571 27 inlet~;
#X obj 530 27 inlet~;
#X obj 484 281 outlet~;
#X obj 530 281 outlet~;
#X obj 575 281 outlet~;
#X obj 620 281 outlet~;
#X obj 445 27 inlet~;
#X obj 403 27 inlet~;
#X obj 362 27 inlet~;
#X obj 106 27 inlet~;
#X obj 64 27 inlet~;
#X obj 23 27 inlet~;
#X obj 276 27 inlet~;
#X obj 234 27 inlet~;
#X obj 193 27 inlet~;
#X obj 253 281 outlet~;
#X obj 298 281 outlet~;
#X obj 343 281 outlet~;
#X obj 388 281 outlet~;
#X obj 21 281 outlet~;
#X obj 67 281 outlet~;
#X obj 112 281 outlet~;
#X obj 157 281 outlet~;
#X obj 717 281 outlet~;
#X obj 763 281 outlet~;
#X obj 808 281 outlet~;
#X obj 853 281 outlet~;
#X obj 899 281 outlet~;
#X obj 666 281 outlet~;
#X obj 434 281 outlet~;
#X obj 203 281 outlet~;
#X obj 148 27 inlet~;
#X obj 318 27 inlet~;
#X obj 487 27 inlet~;
#X obj 657 27 inlet~;
#X obj 782 26 inlet~;
#X obj 740 26 inlet~;
#X obj 698 26 inlet~;
#X obj 826 26 inlet~;
#X obj 20 149 submatrix4~ ____________;
#X obj 190 149 submatrix4~ ____________;
#X obj 359 149 submatrix4~ ____________;
#X obj 527 149 submatrix4~ ____________;
#X obj 696 148 submatrix4~ ____________;
#X obj 953 26 inlet~;
#X obj 911 26 inlet~;
#X obj 869 26 inlet~;
#X obj 997 26 inlet~;
#X obj 942 281 outlet~;
#X obj 987 281 outlet~;
#X obj 1032 281 outlet~;
#X obj 1078 281 outlet~;
#X obj 865 147 submatrix4~ ____________;
#X obj 21 241 submatrix6~ _____________________;
#X obj 300 243 submatrix6~ _____________________;
#X obj 574 243 submatrix6~ _____________________;
#X obj 856 245 submatrix6~ _____________________;
#X obj 27 60 submatrix3~ __;
#X obj 149 63 submatrix3~ __;
#X obj 277 64 submatrix3~ __;
#X obj 405 64 submatrix3~ __;
#X obj 533 64 submatrix3~ __;
#X obj 655 67 submatrix3~ __;
#X obj 784 66 submatrix3~ __;
#X obj 911 68 submatrix3~ __;
#X connect 0 0 62 2;
#X connect 1 0 62 1;
#X connect 2 0 62 0;
#X connect 7 0 61 1;
#X connect 8 0 61 0;
#X connect 9 0 60 2;
#X connect 10 0 58 2;
#X connect 11 0 58 1;
#X connect 12 0 58 0;
#X connect 13 0 60 0;
#X connect 14 0 59 2;
#X connect 15 0 59 1;
#X connect 32 0 59 0;
#X connect 33 0 60 1;
#X connect 34 0 61 2;
#X connect 35 0 63 0;
#X connect 36 0 64 0;
#X connect 37 0 63 2;
#X connect 38 0 63 1;
#X connect 39 0 64 1;
#X connect 40 0 54 0;
#X connect 40 1 55 0;
#X connect 40 2 56 0;
#X connect 40 3 57 0;
#X connect 41 0 54 1;
#X connect 41 1 55 1;
#X connect 41 2 56 1;
#X connect 41 3 57 1;
#X connect 42 0 54 2;
#X connect 42 1 55 2;
#X connect 42 2 56 2;
#X connect 42 3 57 2;
#X connect 43 0 54 3;
#X connect 43 1 55 3;
#X connect 43 2 56 3;
#X connect 43 3 57 3;
#X connect 44 0 54 4;
#X connect 44 1 55 4;
#X connect 44 2 56 4;
#X connect 44 3 57 4;
#X connect 45 0 65 1;
#X connect 46 0 65 0;
#X connect 47 0 64 2;
#X connect 48 0 65 2;
#X connect 53 0 54 5;
#X connect 53 1 55 5;
#X connect 53 2 56 5;
#X connect 53 3 57 5;
#X connect 54 0 20 0;
#X connect 54 1 21 0;
#X connect 54 2 22 0;
#X connect 54 3 23 0;
#X connect 54 4 31 0;
#X connect 54 5 16 0;
#X connect 55 0 17 0;
#X connect 55 1 18 0;
#X connect 55 2 19 0;
#X connect 55 3 30 0;
#X connect 55 4 3 0;
#X connect 55 5 4 0;
#X connect 56 0 5 0;
#X connect 56 1 6 0;
#X connect 56 2 29 0;
#X connect 56 3 24 0;
#X connect 56 4 25 0;
#X connect 56 5 26 0;
#X connect 57 0 27 0;
#X connect 57 1 28 0;
#X connect 57 2 49 0;
#X connect 57 3 50 0;
#X connect 57 4 51 0;
#X connect 57 5 52 0;
#X connect 58 0 40 0;
#X connect 58 1 42 0;
#X connect 58 2 44 0;
#X connect 59 0 41 0;
#X connect 59 1 43 0;
#X connect 59 2 53 0;
#X connect 60 0 40 1;
#X connect 60 1 42 1;
#X connect 60 2 44 1;
#X connect 61 0 41 1;
#X connect 61 1 43 1;
#X connect 61 2 53 1;
#X connect 62 0 40 2;
#X connect 62 1 42 2;
#X connect 62 2 44 2;
#X connect 63 0 41 2;
#X connect 63 1 43 2;
#X connect 63 2 53 2;
#X connect 64 0 40 3;
#X connect 64 1 42 3;
#X connect 64 2 44 3;
#X connect 65 0 41 3;
#X connect 65 1 43 3;
#X connect 65 2 53 3;
