#N canvas 195 206 685 402 10;
#X obj 493 27 inlet~;
#X obj 451 27 inlet~;
#X obj 410 27 inlet~;
#X obj 399 357 outlet~;
#X obj 446 357 outlet~;
#X obj 493 357 outlet~;
#X obj 540 357 outlet~;
#X obj 365 27 inlet~;
#X obj 323 27 inlet~;
#X obj 282 27 inlet~;
#X obj 106 27 inlet~;
#X obj 64 27 inlet~;
#X obj 23 27 inlet~;
#X obj 236 27 inlet~;
#X obj 194 27 inlet~;
#X obj 153 27 inlet~;
#X obj 210 357 outlet~;
#X obj 257 357 outlet~;
#X obj 303 357 outlet~;
#X obj 350 357 outlet~;
#X obj 21 357 outlet~;
#X obj 68 357 outlet~;
#X obj 115 357 outlet~;
#X obj 162 357 outlet~;
#X obj 21 196 submatrix4~ ______________;
#X obj 209 196 submatrix4~ ______________;
#X obj 399 196 submatrix4~ ______________;
#X obj 21 298 submatrix6~ ______________________________;
#X obj 304 295 submatrix6~ ______________________________;
#X obj 22 79 submatrix3~ _____;
#X obj 152 79 submatrix3~ _____;
#X obj 281 79 submatrix3~ _____;
#X obj 409 79 submatrix3~ _____;
#X connect 0 0 32 2;
#X connect 1 0 32 1;
#X connect 2 0 32 0;
#X connect 7 0 31 2;
#X connect 8 0 31 1;
#X connect 9 0 31 0;
#X connect 10 0 29 2;
#X connect 11 0 29 1;
#X connect 12 0 29 0;
#X connect 13 0 30 2;
#X connect 14 0 30 1;
#X connect 15 0 30 0;
#X connect 24 0 27 0;
#X connect 24 1 28 0;
#X connect 24 2 27 3;
#X connect 24 3 28 3;
#X connect 25 0 27 1;
#X connect 25 1 28 1;
#X connect 25 2 27 4;
#X connect 25 3 28 4;
#X connect 26 0 27 2;
#X connect 26 1 28 2;
#X connect 26 2 27 5;
#X connect 26 3 28 5;
#X connect 27 0 20 0;
#X connect 27 1 21 0;
#X connect 27 2 22 0;
#X connect 27 3 23 0;
#X connect 27 4 16 0;
#X connect 27 5 17 0;
#X connect 28 0 18 0;
#X connect 28 1 19 0;
#X connect 28 2 3 0;
#X connect 28 3 4 0;
#X connect 28 4 5 0;
#X connect 28 5 6 0;
#X connect 29 0 24 0;
#X connect 29 1 25 0;
#X connect 29 2 26 0;
#X connect 30 0 24 1;
#X connect 30 1 25 1;
#X connect 30 2 26 1;
#X connect 31 0 24 2;
#X connect 31 1 25 2;
#X connect 31 2 26 2;
#X connect 32 0 24 3;
#X connect 32 1 25 3;
#X connect 32 2 26 3;
