#N canvas 43 194 968 414 10;
#X obj 613 27 inlet~;
#X obj 571 27 inlet~;
#X obj 530 27 inlet~;
#X obj 484 281 outlet~;
#X obj 530 281 outlet~;
#X obj 575 281 outlet~;
#X obj 620 281 outlet~;
#X obj 445 27 inlet~;
#X obj 403 27 inlet~;
#X obj 362 27 inlet~;
#X obj 106 27 inlet~;
#X obj 64 27 inlet~;
#X obj 23 27 inlet~;
#X obj 276 27 inlet~;
#X obj 234 27 inlet~;
#X obj 193 27 inlet~;
#X obj 253 281 outlet~;
#X obj 298 281 outlet~;
#X obj 343 281 outlet~;
#X obj 388 281 outlet~;
#X obj 21 281 outlet~;
#X obj 67 281 outlet~;
#X obj 112 281 outlet~;
#X obj 157 281 outlet~;
#X obj 717 281 outlet~;
#X obj 763 281 outlet~;
#X obj 808 281 outlet~;
#X obj 853 281 outlet~;
#X obj 899 281 outlet~;
#X obj 666 281 outlet~;
#X obj 434 281 outlet~;
#X obj 203 281 outlet~;
#X obj 148 27 inlet~;
#X obj 318 27 inlet~;
#X obj 487 27 inlet~;
#X obj 657 27 inlet~;
#X obj 782 26 inlet~;
#X obj 740 26 inlet~;
#X obj 699 26 inlet~;
#X obj 826 26 inlet~;
#X obj 485 146 submatrix5~ _____________________;
#X obj 718 146 submatrix5~ _____________________;
#X obj 22 68 submatrix4~ ____________;
#X obj 192 68 submatrix4~ ____________;
#X obj 361 68 submatrix4~ ____________;
#X obj 529 68 submatrix4~ ____________;
#X obj 698 67 submatrix4~ ____________;
#X obj 253 146 submatrix5~ _____________________;
#X obj 22 146 submatrix5~ _____________________;
#X obj 62 248 submatrix10~ _______________________________________________
;
#X obj 507 247 submatrix10~ _______________________________________________
;
#X connect 0 0 45 2;
#X connect 1 0 45 1;
#X connect 2 0 45 0;
#X connect 7 0 44 2;
#X connect 8 0 44 1;
#X connect 9 0 44 0;
#X connect 10 0 42 2;
#X connect 11 0 42 1;
#X connect 12 0 42 0;
#X connect 13 0 43 2;
#X connect 14 0 43 1;
#X connect 15 0 43 0;
#X connect 32 0 42 3;
#X connect 33 0 43 3;
#X connect 34 0 44 3;
#X connect 35 0 45 3;
#X connect 36 0 46 2;
#X connect 37 0 46 1;
#X connect 38 0 46 0;
#X connect 39 0 46 3;
#X connect 40 0 49 2;
#X connect 40 1 49 6;
#X connect 40 2 50 0;
#X connect 40 3 50 4;
#X connect 40 4 50 8;
#X connect 41 0 49 3;
#X connect 41 1 49 7;
#X connect 41 2 50 1;
#X connect 41 3 50 5;
#X connect 41 4 50 9;
#X connect 42 0 48 0;
#X connect 42 1 47 0;
#X connect 42 2 40 0;
#X connect 42 3 41 0;
#X connect 43 0 48 1;
#X connect 43 1 47 1;
#X connect 43 2 40 1;
#X connect 43 3 41 1;
#X connect 44 0 48 2;
#X connect 44 1 47 2;
#X connect 44 2 40 2;
#X connect 44 3 41 2;
#X connect 45 0 48 3;
#X connect 45 1 47 3;
#X connect 45 2 40 3;
#X connect 45 3 41 3;
#X connect 46 0 48 4;
#X connect 46 1 47 4;
#X connect 46 2 40 4;
#X connect 46 3 41 4;
#X connect 47 0 49 1;
#X connect 47 1 49 5;
#X connect 47 2 49 9;
#X connect 47 3 50 3;
#X connect 47 4 50 7;
#X connect 48 0 49 0;
#X connect 48 1 49 4;
#X connect 48 2 49 8;
#X connect 48 3 50 2;
#X connect 48 4 50 6;
#X connect 49 0 20 0;
#X connect 49 1 21 0;
#X connect 49 2 22 0;
#X connect 49 3 23 0;
#X connect 49 4 31 0;
#X connect 49 5 16 0;
#X connect 49 6 17 0;
#X connect 49 7 18 0;
#X connect 49 8 19 0;
#X connect 49 9 30 0;
#X connect 50 0 3 0;
#X connect 50 1 4 0;
#X connect 50 2 5 0;
#X connect 50 3 6 0;
#X connect 50 4 29 0;
#X connect 50 5 24 0;
#X connect 50 6 25 0;
#X connect 50 7 26 0;
#X connect 50 8 27 0;
#X connect 50 9 28 0;
