#N canvas 13 106 995 564 10;
#X obj 265 37 route early reverb;
#X obj 34 6 inlet~;
#X obj 265 2 inlet;
#X text 511 478 late reverb front;
#X obj 564 458 outlet~;
#X obj 512 457 outlet~;
#X obj 653 461 outlet~;
#X obj 701 461 outlet~;
#X obj 91 455 outlet~;
#X obj 43 455 outlet~;
#X obj 44 430 mull~ 0 50;
#X obj 92 385 mull~ 0 50;
#X obj 513 433 mull~ 0 50;
#X obj 701 396 mull~ 0 50;
#X obj 653 437 mull~ 0 50;
#X obj 563 385 mull~ 0 50;
#X obj 228 455 outlet~;
#X obj 180 455 outlet~;
#X obj 181 430 mull~ 0 50;
#X obj 229 385 mull~ 0 50;
#X text 42 476 early echoes front;
#X text 586 152 index + delay: index (0 .. 11)+ time (ms);
#X text 652 103 "reverb";
#X text 658 25 "early";
#X text 598 73 index + delay: index (0 .. 11)+ time (ms);
#X text 639 131 gain: output-gain (dB);
#X text 652 53 gain: output-gain (dB);
#X text 627 123 cutoff: lp2-freq (Hz);
#X text 640 43 cutoff: lp2-freq (Hz);
#X text 605 81 index + damp: index (0 .. 11) + linear-rms gain of early
;
#X text 634 241 clear: bang mutes feedback 500 ms;
#X text 604 182 d_mod_gain: modulations-intensity (0 .. 1) of delay
;
#X text 604 212 dec_l_time: decay time (sec) at 0 Hz;
#X text 604 231 dec_h_time: decay time (sec) at Nyquist frequency;
#X text 604 222 dec_m_time: decay time (sec) at medium freq;
#X text 556 162 index + d_mod_freq: index (0 .. 11)+ modulation-freq.
(Hz);
#X text 562 172 index + d_mod_amp: index (0 .. 11)+ modulation-ampl.
(samps);
#X text 598 192 dec_lm_freq: decay low-shelv-freq (kHz);
#X text 598 202 dec_mh_freq: decay high-shelv-freq (kHz);
#X obj 160 299 * 1000;
#X obj 711 300 * 1000;
#X obj 92 365 lp2~ 3000 0.2 200;
#X obj 229 365 lp2~ 3000 0.2 200;
#X obj 562 364 lp2~ 3000 0.2 200;
#X obj 701 376 lp2~ 3000 0.2 200;
#X obj 652 417 lp2~ 3000 0.2 200;
#X obj 514 412 lp2~ 3000 0.2 200;
#X obj 180 409 lp2~ 3000 0.2 200;
#X obj 43 409 lp2~ 3000 0.2 200;
#X text 42 24 left;
#X obj 165 335 dbtorms;
#X obj 724 330 dbtorms;
#X obj 265 79 route cutoff gain Q;
#X obj 389 79 route cutoff gain Q;
#X text 658 142 Q: quality of filter < 0.5 (-);
#X text 671 63 Q: quality of filter < 0.5 (-);
#X text 575 521 (0 \, stat \, dyn) default: 0 = stat;
#X text 575 508 (0 \, ++ \, +++ \, ++++) default: 0 = ++;
#X text 273 508 1.arg: <float/sym> performance of feedback-matrix;
#X text 273 521 2.arg: <float/sym> performance of feedback-delays;
#X obj 796 459 outlet~;
#X obj 844 459 outlet~;
#X obj 844 394 mull~ 0 50;
#X obj 796 435 mull~ 0 50;
#X text 793 478 late reverb rear;
#X obj 844 374 lp2~ 3000 0.2 200;
#X obj 795 415 lp2~ 3000 0.2 200;
#X text 650 480 late reverb mid;
#X obj 357 454 outlet~;
#X obj 309 454 outlet~;
#X obj 310 429 mull~ 0 50;
#X obj 358 384 mull~ 0 50;
#X text 308 475 early echoes rear;
#X obj 358 364 lp2~ 3000 0.2 200;
#X obj 309 408 lp2~ 3000 0.2 200;
#X text 179 476 early echoes mid;
#X obj 260 299 late_diffuse24_6~ \$1 \$2 1000 __________;
#X obj 34 108 early_echos24_1_6~ 1000 _____________________;
#X connect 0 0 52 0;
#X connect 0 1 53 0;
#X connect 1 0 77 0;
#X connect 2 0 0 0;
#X connect 10 0 9 0;
#X connect 11 0 8 0;
#X connect 12 0 5 0;
#X connect 13 0 7 0;
#X connect 14 0 6 0;
#X connect 15 0 4 0;
#X connect 18 0 17 0;
#X connect 19 0 16 0;
#X connect 39 0 41 1;
#X connect 39 0 42 1;
#X connect 39 0 47 1;
#X connect 39 0 48 1;
#X connect 39 0 73 1;
#X connect 39 0 74 1;
#X connect 40 0 43 1;
#X connect 40 0 44 1;
#X connect 40 0 45 1;
#X connect 40 0 46 1;
#X connect 40 0 65 1;
#X connect 40 0 66 1;
#X connect 41 0 11 0;
#X connect 42 0 19 0;
#X connect 43 0 15 0;
#X connect 44 0 13 0;
#X connect 45 0 14 0;
#X connect 46 0 12 0;
#X connect 47 0 18 0;
#X connect 48 0 10 0;
#X connect 50 0 10 1;
#X connect 50 0 11 1;
#X connect 50 0 18 1;
#X connect 50 0 19 1;
#X connect 50 0 70 1;
#X connect 50 0 71 1;
#X connect 51 0 12 1;
#X connect 51 0 13 1;
#X connect 51 0 14 1;
#X connect 51 0 15 1;
#X connect 51 0 63 1;
#X connect 51 0 62 1;
#X connect 52 0 39 0;
#X connect 52 1 50 0;
#X connect 52 2 48 2;
#X connect 52 2 47 2;
#X connect 52 2 41 2;
#X connect 52 2 42 2;
#X connect 52 3 77 1;
#X connect 53 0 40 0;
#X connect 53 1 51 0;
#X connect 53 2 43 2;
#X connect 53 2 46 2;
#X connect 53 2 44 2;
#X connect 53 2 45 2;
#X connect 53 3 76 24;
#X connect 62 0 61 0;
#X connect 63 0 60 0;
#X connect 65 0 62 0;
#X connect 66 0 63 0;
#X connect 70 0 69 0;
#X connect 71 0 68 0;
#X connect 73 0 71 0;
#X connect 74 0 70 0;
#X connect 76 0 46 0;
#X connect 76 1 43 0;
#X connect 76 2 45 0;
#X connect 76 3 44 0;
#X connect 76 4 66 0;
#X connect 76 5 65 0;
#X connect 77 0 76 0;
#X connect 77 1 76 1;
#X connect 77 2 76 2;
#X connect 77 3 76 3;
#X connect 77 4 76 4;
#X connect 77 5 76 5;
#X connect 77 6 76 6;
#X connect 77 7 76 7;
#X connect 77 8 76 8;
#X connect 77 9 76 9;
#X connect 77 10 76 10;
#X connect 77 11 76 11;
#X connect 77 12 76 12;
#X connect 77 13 76 13;
#X connect 77 14 76 14;
#X connect 77 15 76 15;
#X connect 77 16 76 16;
#X connect 77 17 76 17;
#X connect 77 18 76 18;
#X connect 77 19 76 19;
#X connect 77 20 76 20;
#X connect 77 21 76 21;
#X connect 77 22 76 22;
#X connect 77 23 76 23;
#X connect 77 24 48 0;
#X connect 77 25 41 0;
#X connect 77 26 47 0;
#X connect 77 27 42 0;
#X connect 77 28 74 0;
#X connect 77 29 73 0;
