#N canvas 25 20 877 647 10;
#X obj 133 514 outlet~;
#X obj 151 536 outlet~;
#X obj 166 558 outlet~;
#X obj 183 580 outlet~;
#X obj 76 426 outlet~;
#X obj 118 492 outlet~;
#X obj 103 470 outlet~;
#X obj 89 448 outlet~;
#X obj 66 404 outlet~;
#X obj 52 382 outlet~;
#X obj 37 360 outlet~;
#X obj 26 338 outlet~;
#X obj 313 567 outlet~;
#X obj 568 175 route 1 3 5 7 9 11;
#X obj 284 180 route 1 3 5 7 9 11;
#X obj 281 152 route 0 2 4 6 8 10;
#X obj 312 347 +~;
#X obj 322 370 +~;
#X obj 332 415 +~;
#X obj 342 439 +~;
#X obj 313 461 +~;
#X obj 323 483 +~;
#X obj 333 521 +~;
#X obj 343 544 +~;
#X obj 324 589 outlet~;
#X obj 564 155 route 0 2 4 6 8 10;
#X text 366 25 parameter update message;
#X obj 366 42 inlet;
#X obj 429 504 *~ 0.1;
#X obj 417 481 *~ 0.1;
#X obj 408 458 *~ 0.1;
#X obj 396 435 *~ 0.1;
#X obj 385 413 *~ 0.1;
#X obj 375 390 *~ 0.1;
#X obj 364 366 *~ 0.1;
#X obj 354 344 *~ 0.1;
#X obj 344 321 *~ 0.1;
#X obj 334 298 *~ 0.1;
#X obj 322 275 *~ 0.1;
#X obj 312 252 *~ 0.1;
#X obj 333 617 outlet~;
#X obj 344 639 outlet~;
#X text 365 569 front;
#X text 387 620 rear;
#X obj 366 75 route delay damp;
#X text 420 150 LEFT (even index);
#X text 416 179 RIGHT (odd index);
#X obj 23 32 inlet~;
#X obj 70 34 inlet~;
#X text 9 14 left source signal;
#X text 156 13 right source signal;
#X obj 24 132 delwrite~ \$0_L1 \$1;
#X obj 71 156 delwrite~ \$0_R1 \$1;
#X obj 116 34 inlet~;
#X obj 163 36 inlet~;
#X obj 116 181 delwrite~ \$0_L2 \$1;
#X obj 164 205 delwrite~ \$0_R2 \$1;
#X obj 26 235 delread~ \$0_L1 100;
#X obj 36 258 delread~ \$0_R1 110;
#X obj 51 280 delread~ \$0_L1 120;
#X obj 65 304 delread~ \$0_R1 130;
#X obj 77 326 delread~ \$0_L1 140;
#X obj 90 348 delread~ \$0_R1 150;
#X obj 104 372 delread~ \$0_L2 160;
#X obj 119 395 delread~ \$0_R2 170;
#X obj 134 417 delread~ \$0_L2 180;
#X obj 151 440 delread~ \$0_R2 190;
#X obj 166 463 delread~ \$0_L2 200;
#X obj 184 488 delread~ \$0_R2 210;
#X text 423 50 1.arg: <float> max. early_delay_time in ms;
#X obj 580 92 unpack;
#X obj 580 133 pack;
#X text 215 70 4 / 12 = 0.333333;
#X obj 23 64 *~ 0.333333;
#X obj 69 88 *~ 0.333333;
#X obj 117 65 *~ 0.333333;
#X obj 163 89 *~ 0.333333;
#X text 644 113 12 / 4 = 3;
#X obj 611 113 * 3;
#X connect 13 0 38 1;
#X connect 13 1 36 1;
#X connect 13 2 34 1;
#X connect 13 3 32 1;
#X connect 13 4 30 1;
#X connect 13 5 28 1;
#X connect 14 0 58 0;
#X connect 14 1 60 0;
#X connect 14 2 62 0;
#X connect 14 3 64 0;
#X connect 14 4 66 0;
#X connect 14 5 68 0;
#X connect 15 0 57 0;
#X connect 15 1 59 0;
#X connect 15 2 61 0;
#X connect 15 3 63 0;
#X connect 15 4 65 0;
#X connect 15 5 67 0;
#X connect 16 0 20 0;
#X connect 17 0 21 0;
#X connect 18 0 22 0;
#X connect 19 0 23 0;
#X connect 20 0 12 0;
#X connect 21 0 24 0;
#X connect 22 0 40 0;
#X connect 23 0 41 0;
#X connect 25 0 39 1;
#X connect 25 1 37 1;
#X connect 25 2 35 1;
#X connect 25 3 33 1;
#X connect 25 4 31 1;
#X connect 25 5 29 1;
#X connect 27 0 44 0;
#X connect 28 0 22 1;
#X connect 29 0 23 1;
#X connect 30 0 20 1;
#X connect 31 0 21 1;
#X connect 32 0 19 1;
#X connect 33 0 18 1;
#X connect 34 0 19 0;
#X connect 35 0 18 0;
#X connect 36 0 17 1;
#X connect 37 0 16 1;
#X connect 38 0 17 0;
#X connect 39 0 16 0;
#X connect 44 0 15 0;
#X connect 44 0 14 0;
#X connect 44 1 70 0;
#X connect 47 0 73 0;
#X connect 48 0 74 0;
#X connect 53 0 75 0;
#X connect 54 0 76 0;
#X connect 57 0 11 0;
#X connect 57 0 39 0;
#X connect 58 0 10 0;
#X connect 58 0 38 0;
#X connect 59 0 9 0;
#X connect 59 0 37 0;
#X connect 60 0 8 0;
#X connect 60 0 36 0;
#X connect 61 0 4 0;
#X connect 61 0 35 0;
#X connect 62 0 7 0;
#X connect 62 0 34 0;
#X connect 63 0 6 0;
#X connect 63 0 33 0;
#X connect 64 0 5 0;
#X connect 64 0 32 0;
#X connect 65 0 0 0;
#X connect 65 0 31 0;
#X connect 66 0 1 0;
#X connect 66 0 30 0;
#X connect 67 0 2 0;
#X connect 67 0 29 0;
#X connect 68 0 3 0;
#X connect 68 0 28 0;
#X connect 70 0 71 0;
#X connect 70 1 78 0;
#X connect 71 0 25 0;
#X connect 71 0 13 0;
#X connect 73 0 51 0;
#X connect 74 0 52 0;
#X connect 75 0 55 0;
#X connect 76 0 56 0;
#X connect 78 0 71 1;
