#N canvas 119 20 885 655 10;
#X obj 26 38 inlet~;
#X obj 133 514 outlet~;
#X obj 151 536 outlet~;
#X obj 166 558 outlet~;
#X obj 183 580 outlet~;
#X obj 76 426 outlet~;
#X obj 118 492 outlet~;
#X obj 103 470 outlet~;
#X obj 89 448 outlet~;
#X obj 66 404 outlet~;
#X obj 52 382 outlet~;
#X obj 37 360 outlet~;
#X obj 26 338 outlet~;
#X obj 313 600 outlet~;
#X obj 568 175 route 1 3 5 7 9 11;
#X obj 284 180 route 1 3 5 7 9 11;
#X obj 281 152 route 0 2 4 6 8 10;
#X obj 312 347 +~;
#X obj 322 370 +~;
#X obj 332 415 +~;
#X obj 342 439 +~;
#X obj 313 461 +~;
#X obj 323 483 +~;
#X obj 333 521 +~;
#X obj 343 544 +~;
#X obj 324 622 outlet~;
#X obj 564 155 route 0 2 4 6 8 10;
#X text 366 25 parameter update message;
#X obj 366 42 inlet;
#X obj 429 504 *~ 0.1;
#X obj 417 481 *~ 0.1;
#X obj 408 458 *~ 0.1;
#X obj 396 435 *~ 0.1;
#X obj 385 413 *~ 0.1;
#X obj 375 390 *~ 0.1;
#X obj 364 366 *~ 0.1;
#X obj 354 344 *~ 0.1;
#X obj 344 321 *~ 0.1;
#X obj 334 298 *~ 0.1;
#X obj 322 275 *~ 0.1;
#X obj 312 252 *~ 0.1;
#X text 365 602 front;
#X obj 366 75 route delay damp;
#X obj 26 211 delwrite~ \$0_L \$1;
#X obj 157 38 inlet~;
#X text 12 20 left source signal;
#X text 159 19 right source signal;
#X obj 158 209 delwrite~ \$0_R \$1;
#X text 420 150 LEFT (even index);
#X text 416 179 RIGHT (odd index);
#X obj 26 235 delread~ \$0_L 110;
#X obj 36 258 delread~ \$0_R 120;
#X obj 51 280 delread~ \$0_L 130;
#X obj 65 304 delread~ \$0_R 140;
#X obj 77 326 delread~ \$0_L 150;
#X obj 90 348 delread~ \$0_R 160;
#X obj 104 372 delread~ \$0_L 170;
#X obj 119 395 delread~ \$0_R 180;
#X obj 134 417 delread~ \$0_L 190;
#X obj 151 440 delread~ \$0_R 200;
#X obj 166 463 delread~ \$0_L 210;
#X obj 184 487 delread~ \$0_R 220;
#X text 423 50 1.arg: <float> max. early_delay_time in ms;
#X obj 314 554 +~;
#X obj 324 577 +~;
#X obj 580 92 unpack;
#X obj 580 133 pack;
#X obj 26 86 *~ 0.166667;
#X obj 157 86 *~ 0.166667;
#X text 234 85 2 / 12 = 0.166667;
#X text 639 113 12 / 2 = 6;
#X obj 611 114 * 6;
#X connect 0 0 67 0;
#X connect 14 0 39 1;
#X connect 14 1 37 1;
#X connect 14 2 35 1;
#X connect 14 3 33 1;
#X connect 14 4 31 1;
#X connect 14 5 29 1;
#X connect 15 0 51 0;
#X connect 15 1 53 0;
#X connect 15 2 55 0;
#X connect 15 3 57 0;
#X connect 15 4 59 0;
#X connect 15 5 61 0;
#X connect 16 0 50 0;
#X connect 16 1 52 0;
#X connect 16 2 54 0;
#X connect 16 3 56 0;
#X connect 16 4 58 0;
#X connect 16 5 60 0;
#X connect 17 0 21 0;
#X connect 18 0 22 0;
#X connect 19 0 23 0;
#X connect 20 0 24 0;
#X connect 21 0 63 0;
#X connect 22 0 64 0;
#X connect 23 0 63 1;
#X connect 24 0 64 1;
#X connect 26 0 40 1;
#X connect 26 1 38 1;
#X connect 26 2 36 1;
#X connect 26 3 34 1;
#X connect 26 4 32 1;
#X connect 26 5 30 1;
#X connect 28 0 42 0;
#X connect 29 0 23 1;
#X connect 30 0 24 1;
#X connect 31 0 21 1;
#X connect 32 0 22 1;
#X connect 33 0 20 1;
#X connect 34 0 19 1;
#X connect 35 0 20 0;
#X connect 36 0 19 0;
#X connect 37 0 18 1;
#X connect 38 0 17 1;
#X connect 39 0 18 0;
#X connect 40 0 17 0;
#X connect 42 0 16 0;
#X connect 42 0 15 0;
#X connect 42 1 65 0;
#X connect 44 0 68 0;
#X connect 50 0 12 0;
#X connect 50 0 40 0;
#X connect 51 0 11 0;
#X connect 51 0 39 0;
#X connect 52 0 10 0;
#X connect 52 0 38 0;
#X connect 53 0 9 0;
#X connect 53 0 37 0;
#X connect 54 0 5 0;
#X connect 54 0 36 0;
#X connect 55 0 8 0;
#X connect 55 0 35 0;
#X connect 56 0 7 0;
#X connect 56 0 34 0;
#X connect 57 0 6 0;
#X connect 57 0 33 0;
#X connect 58 0 1 0;
#X connect 58 0 32 0;
#X connect 59 0 2 0;
#X connect 59 0 31 0;
#X connect 60 0 3 0;
#X connect 60 0 30 0;
#X connect 61 0 4 0;
#X connect 61 0 29 0;
#X connect 63 0 13 0;
#X connect 64 0 25 0;
#X connect 65 0 66 0;
#X connect 65 1 71 0;
#X connect 66 0 26 0;
#X connect 66 0 14 0;
#X connect 67 0 43 0;
#X connect 68 0 47 0;
#X connect 71 0 66 1;
