#N canvas 115 20 877 643 10;
#X obj 131 465 outlet~;
#X obj 149 487 outlet~;
#X obj 164 509 outlet~;
#X obj 181 531 outlet~;
#X obj 74 377 outlet~;
#X obj 116 443 outlet~;
#X obj 101 421 outlet~;
#X obj 87 399 outlet~;
#X obj 64 355 outlet~;
#X obj 50 333 outlet~;
#X obj 35 311 outlet~;
#X obj 24 289 outlet~;
#X obj 562 668 outlet~;
#X obj 561 308 +~;
#X obj 571 331 +~;
#X obj 581 353 +~;
#X obj 591 377 +~;
#X obj 562 577 +~;
#X obj 572 599 +~;
#X obj 582 623 +~;
#X obj 592 646 +~;
#X obj 573 690 outlet~;
#X text 366 25 parameter update message;
#X obj 366 42 inlet;
#X obj 678 465 *~ 0.1;
#X obj 666 442 *~ 0.1;
#X obj 657 419 *~ 0.1;
#X obj 645 396 *~ 0.1;
#X obj 634 374 *~ 0.1;
#X obj 624 351 *~ 0.1;
#X obj 613 327 *~ 0.1;
#X obj 603 305 *~ 0.1;
#X obj 593 282 *~ 0.1;
#X obj 583 259 *~ 0.1;
#X obj 571 236 *~ 0.1;
#X obj 561 213 *~ 0.1;
#X obj 582 718 outlet~;
#X obj 593 740 outlet~;
#X text 614 670 front;
#X text 636 721 rear;
#X obj 366 75 route delay damp;
#X text 469 103 LEFT (even index);
#X text 467 131 RIGHT (odd index);
#X obj 285 695 outlet~;
#X obj 303 717 outlet~;
#X obj 228 607 outlet~;
#X obj 270 673 outlet~;
#X obj 255 651 outlet~;
#X obj 241 629 outlet~;
#X obj 218 585 outlet~;
#X obj 204 563 outlet~;
#X obj 279 103 route 0 2 4 6 8 10 12 14 16 18;
#X obj 282 131 route 1 3 5 7 9 11 13 15 17 19;
#X obj 765 646 *~ 0.1;
#X obj 753 623 *~ 0.1;
#X obj 744 600 *~ 0.1;
#X obj 732 577 *~ 0.1;
#X obj 721 555 *~ 0.1;
#X obj 711 532 *~ 0.1;
#X obj 700 508 *~ 0.1;
#X obj 690 486 *~ 0.1;
#X obj 562 487 +~;
#X obj 572 509 +~;
#X obj 582 533 +~;
#X obj 592 556 +~;
#X obj 562 397 +~;
#X obj 572 419 +~;
#X obj 582 444 +~;
#X obj 592 467 +~;
#X obj 599 147 route 0 2 4 6 8 10 12 14 16 18;
#X obj 603 167 route 1 3 5 7 9 11 13 15 17 19;
#X obj 23 32 inlet~;
#X obj 70 34 inlet~;
#X text 9 14 left source signal;
#X text 156 13 right source signal;
#X obj 24 92 delwrite~ \$0_L1 \$1;
#X obj 71 116 delwrite~ \$0_R1 \$1;
#X obj 116 34 inlet~;
#X obj 163 36 inlet~;
#X obj 116 141 delwrite~ \$0_L2 \$1;
#X obj 164 165 delwrite~ \$0_R2 \$1;
#X obj 24 186 delread~ \$0_L1 100;
#X obj 34 209 delread~ \$0_R1 110;
#X obj 49 231 delread~ \$0_L1 120;
#X obj 63 255 delread~ \$0_R1 130;
#X obj 75 277 delread~ \$0_L1 140;
#X obj 88 299 delread~ \$0_R1 150;
#X obj 102 323 delread~ \$0_L1 160;
#X obj 117 346 delread~ \$0_R1 170;
#X obj 132 368 delread~ \$0_L1 180;
#X obj 149 391 delread~ \$0_R1 190;
#X obj 164 414 delread~ \$0_L2 200;
#X obj 182 439 delread~ \$0_R2 210;
#X obj 203 461 delread~ \$0_L2 220;
#X obj 217 485 delread~ \$0_R2 230;
#X obj 229 507 delread~ \$0_L2 240;
#X obj 242 529 delread~ \$0_R2 250;
#X obj 256 553 delread~ \$0_L2 260;
#X obj 271 575 delread~ \$0_R2 270;
#X obj 286 598 delread~ \$0_L2 280;
#X obj 303 621 delread~ \$0_R2 290;
#X text 423 50 1.arg: <float> max. early_delay_time in ms;
#X obj 621 81 unpack;
#X obj 621 122 pack;
#X text 205 60 4 / 20 = 0.2;
#X obj 162 60 *~ 0.2;
#X obj 117 61 *~ 0.2;
#X obj 70 60 *~ 0.2;
#X obj 23 59 *~ 0.2;
#X text 678 102 20 / 4 = 5;
#X obj 652 102 * 5;
#X connect 13 0 65 0;
#X connect 14 0 66 0;
#X connect 15 0 67 0;
#X connect 16 0 68 0;
#X connect 17 0 12 0;
#X connect 18 0 21 0;
#X connect 19 0 36 0;
#X connect 20 0 37 0;
#X connect 23 0 40 0;
#X connect 24 0 67 1;
#X connect 25 0 68 1;
#X connect 26 0 65 1;
#X connect 27 0 66 1;
#X connect 28 0 16 1;
#X connect 29 0 15 1;
#X connect 30 0 16 0;
#X connect 31 0 15 0;
#X connect 32 0 14 1;
#X connect 33 0 13 1;
#X connect 34 0 14 0;
#X connect 35 0 13 0;
#X connect 40 0 51 0;
#X connect 40 0 52 0;
#X connect 40 1 102 0;
#X connect 51 0 81 0;
#X connect 51 1 83 0;
#X connect 51 2 85 0;
#X connect 51 3 87 0;
#X connect 51 4 89 0;
#X connect 51 5 91 0;
#X connect 51 6 93 0;
#X connect 51 7 95 0;
#X connect 51 8 97 0;
#X connect 51 9 99 0;
#X connect 52 0 82 0;
#X connect 52 1 84 0;
#X connect 52 2 86 0;
#X connect 52 3 88 0;
#X connect 52 4 90 0;
#X connect 52 5 92 0;
#X connect 52 6 94 0;
#X connect 52 7 96 0;
#X connect 52 8 98 0;
#X connect 52 9 100 0;
#X connect 53 0 19 1;
#X connect 54 0 20 1;
#X connect 55 0 17 1;
#X connect 56 0 18 1;
#X connect 57 0 64 1;
#X connect 58 0 63 1;
#X connect 59 0 62 1;
#X connect 60 0 61 1;
#X connect 61 0 17 0;
#X connect 62 0 18 0;
#X connect 63 0 19 0;
#X connect 64 0 20 0;
#X connect 65 0 61 0;
#X connect 66 0 62 0;
#X connect 67 0 63 0;
#X connect 68 0 64 0;
#X connect 69 0 35 1;
#X connect 69 1 33 1;
#X connect 69 2 31 1;
#X connect 69 3 29 1;
#X connect 69 4 27 1;
#X connect 69 5 25 1;
#X connect 69 6 60 1;
#X connect 69 7 58 1;
#X connect 69 8 56 1;
#X connect 69 9 54 1;
#X connect 70 0 34 1;
#X connect 70 1 32 1;
#X connect 70 2 30 1;
#X connect 70 3 28 1;
#X connect 70 4 26 1;
#X connect 70 5 24 1;
#X connect 70 6 59 1;
#X connect 70 7 57 1;
#X connect 70 8 55 1;
#X connect 70 9 53 1;
#X connect 71 0 108 0;
#X connect 72 0 107 0;
#X connect 77 0 106 0;
#X connect 78 0 105 0;
#X connect 81 0 11 0;
#X connect 81 0 35 0;
#X connect 82 0 10 0;
#X connect 82 0 34 0;
#X connect 83 0 9 0;
#X connect 83 0 33 0;
#X connect 84 0 8 0;
#X connect 84 0 32 0;
#X connect 85 0 4 0;
#X connect 85 0 31 0;
#X connect 86 0 7 0;
#X connect 86 0 30 0;
#X connect 87 0 6 0;
#X connect 87 0 29 0;
#X connect 88 0 5 0;
#X connect 88 0 28 0;
#X connect 89 0 0 0;
#X connect 89 0 27 0;
#X connect 90 0 1 0;
#X connect 90 0 26 0;
#X connect 91 0 2 0;
#X connect 91 0 25 0;
#X connect 92 0 3 0;
#X connect 92 0 24 0;
#X connect 93 0 50 0;
#X connect 93 0 60 0;
#X connect 94 0 49 0;
#X connect 94 0 59 0;
#X connect 95 0 45 0;
#X connect 95 0 58 0;
#X connect 96 0 48 0;
#X connect 96 0 57 0;
#X connect 97 0 47 0;
#X connect 97 0 56 0;
#X connect 98 0 46 0;
#X connect 98 0 55 0;
#X connect 99 0 43 0;
#X connect 99 0 54 0;
#X connect 100 0 44 0;
#X connect 100 0 53 0;
#X connect 102 0 103 0;
#X connect 102 1 110 0;
#X connect 103 0 69 0;
#X connect 103 0 70 0;
#X connect 105 0 80 0;
#X connect 106 0 79 0;
#X connect 107 0 76 0;
#X connect 108 0 75 0;
#X connect 110 0 103 1;
