#N canvas 115 20 807 675 10;
#X obj 26 38 inlet~;
#X obj 76 426 outlet~;
#X obj 89 448 outlet~;
#X obj 66 404 outlet~;
#X obj 52 382 outlet~;
#X obj 37 360 outlet~;
#X obj 26 338 outlet~;
#X obj 313 557 outlet~;
#X obj 312 416 +~;
#X obj 322 439 +~;
#X obj 324 579 outlet~;
#X text 366 25 parameter update message;
#X obj 366 42 inlet;
#X obj 364 366 *~ 0.1;
#X obj 354 344 *~ 0.1;
#X obj 344 321 *~ 0.1;
#X obj 334 298 *~ 0.1;
#X obj 322 275 *~ 0.1;
#X obj 312 252 *~ 0.1;
#X text 365 559 front;
#X obj 366 75 route delay damp;
#X obj 26 211 delwrite~ \$0_L \$1;
#X obj 157 38 inlet~;
#X text 12 20 left source signal;
#X text 159 19 right source signal;
#X obj 158 209 delwrite~ \$0_R \$1;
#X text 418 164 LEFT (even index);
#X text 431 199 RIGHT (odd index);
#X obj 26 235 delread~ \$0_L 100;
#X obj 36 258 delread~ \$0_R 110;
#X obj 51 280 delread~ \$0_L 120;
#X obj 65 304 delread~ \$0_R 130;
#X obj 77 326 delread~ \$0_L 140;
#X obj 90 348 delread~ \$0_R 150;
#X text 423 50 1.arg: <float> max. early_delay_time in ms;
#X obj 313 512 +~;
#X obj 323 536 +~;
#X obj 281 152 route 0 2 4;
#X obj 284 180 route 1 3 5;
#X obj 542 198 route 1 3 5;
#X obj 526 163 route 0 2 4;
#X text 233 78 2 / 6 = 0.333333;
#X obj 26 80 *~ 0.333333;
#X obj 157 80 *~ 0.333333;
#X obj 541 99 unpack;
#X obj 541 140 pack;
#X text 599 120 6 / 2 = 3;
#X obj 572 121 * 3;
#X connect 0 0 42 0;
#X connect 8 0 35 0;
#X connect 9 0 36 0;
#X connect 12 0 20 0;
#X connect 13 0 8 1;
#X connect 14 0 9 1;
#X connect 15 0 36 1;
#X connect 16 0 35 1;
#X connect 17 0 9 0;
#X connect 18 0 8 0;
#X connect 20 0 37 0;
#X connect 20 0 38 0;
#X connect 20 1 44 0;
#X connect 22 0 43 0;
#X connect 28 0 6 0;
#X connect 28 0 18 0;
#X connect 29 0 5 0;
#X connect 29 0 17 0;
#X connect 30 0 4 0;
#X connect 30 0 16 0;
#X connect 31 0 3 0;
#X connect 31 0 15 0;
#X connect 32 0 1 0;
#X connect 32 0 14 0;
#X connect 33 0 2 0;
#X connect 33 0 13 0;
#X connect 35 0 7 0;
#X connect 36 0 10 0;
#X connect 37 0 28 0;
#X connect 37 1 30 0;
#X connect 37 2 32 0;
#X connect 38 0 29 0;
#X connect 38 1 31 0;
#X connect 38 2 33 0;
#X connect 39 0 17 1;
#X connect 39 1 15 1;
#X connect 39 2 13 1;
#X connect 40 0 18 1;
#X connect 40 1 16 1;
#X connect 40 2 14 1;
#X connect 42 0 21 0;
#X connect 43 0 25 0;
#X connect 44 0 45 0;
#X connect 44 1 47 0;
#X connect 45 0 40 0;
#X connect 45 0 39 0;
#X connect 47 0 45 1;
