#N canvas 115 20 795 663 10;
#X obj 26 38 inlet~;
#X obj 76 426 outlet~;
#X obj 118 492 outlet~;
#X obj 103 470 outlet~;
#X obj 89 448 outlet~;
#X obj 66 404 outlet~;
#X obj 52 382 outlet~;
#X obj 37 360 outlet~;
#X obj 26 338 outlet~;
#X obj 313 557 outlet~;
#X obj 312 416 +~;
#X obj 322 439 +~;
#X obj 332 461 +~;
#X obj 342 485 +~;
#X obj 324 579 outlet~;
#X text 366 25 parameter update message;
#X obj 366 42 inlet;
#X obj 385 413 *~ 0.1;
#X obj 375 390 *~ 0.1;
#X obj 364 366 *~ 0.1;
#X obj 354 344 *~ 0.1;
#X obj 344 321 *~ 0.1;
#X obj 334 298 *~ 0.1;
#X obj 322 275 *~ 0.1;
#X obj 312 252 *~ 0.1;
#X text 365 559 front;
#X obj 366 75 route delay damp;
#X obj 26 211 delwrite~ \$0_L \$1;
#X obj 158 38 inlet~;
#X text 12 20 left source signal;
#X text 160 19 right source signal;
#X obj 158 209 delwrite~ \$0_R \$1;
#X text 410 170 LEFT (even index);
#X text 406 199 RIGHT (odd index);
#X obj 281 152 route 0 2 4 6;
#X obj 284 180 route 1 3 5 7;
#X obj 550 171 route 0 2 4 6;
#X obj 558 195 route 1 3 5 7;
#X obj 26 235 delread~ \$0_L 100;
#X obj 36 258 delread~ \$0_R 110;
#X obj 51 280 delread~ \$0_L 120;
#X obj 65 304 delread~ \$0_R 130;
#X obj 77 326 delread~ \$0_L 140;
#X obj 90 348 delread~ \$0_R 150;
#X obj 104 372 delread~ \$0_L 160;
#X obj 119 395 delread~ \$0_R 170;
#X text 423 50 1.arg: <float> max. early_delay_time in ms;
#X obj 313 512 +~;
#X obj 323 536 +~;
#X text 214 90 2 / 8 = 0.25;
#X obj 26 91 *~ 0.25;
#X obj 158 91 *~ 0.25;
#X obj 558 99 unpack;
#X obj 558 140 pack;
#X text 616 120 8 / 2 = 4;
#X obj 589 121 * 4;
#X connect 0 0 50 0;
#X connect 10 0 47 0;
#X connect 11 0 48 0;
#X connect 12 0 47 1;
#X connect 13 0 48 1;
#X connect 16 0 26 0;
#X connect 17 0 12 1;
#X connect 18 0 13 1;
#X connect 19 0 10 1;
#X connect 20 0 11 1;
#X connect 21 0 13 0;
#X connect 22 0 12 0;
#X connect 23 0 11 0;
#X connect 24 0 10 0;
#X connect 26 0 34 0;
#X connect 26 0 35 0;
#X connect 26 1 52 0;
#X connect 28 0 51 0;
#X connect 34 0 38 0;
#X connect 34 1 40 0;
#X connect 34 2 42 0;
#X connect 34 3 44 0;
#X connect 35 0 39 0;
#X connect 35 1 41 0;
#X connect 35 2 43 0;
#X connect 35 3 45 0;
#X connect 36 0 24 1;
#X connect 36 1 22 1;
#X connect 36 2 20 1;
#X connect 36 3 18 1;
#X connect 37 0 23 1;
#X connect 37 1 21 1;
#X connect 37 2 19 1;
#X connect 37 3 17 1;
#X connect 38 0 8 0;
#X connect 38 0 24 0;
#X connect 39 0 7 0;
#X connect 39 0 23 0;
#X connect 40 0 6 0;
#X connect 40 0 22 0;
#X connect 41 0 5 0;
#X connect 41 0 21 0;
#X connect 42 0 1 0;
#X connect 42 0 20 0;
#X connect 43 0 4 0;
#X connect 43 0 19 0;
#X connect 44 0 3 0;
#X connect 44 0 18 0;
#X connect 45 0 2 0;
#X connect 45 0 17 0;
#X connect 47 0 9 0;
#X connect 48 0 14 0;
#X connect 50 0 27 0;
#X connect 51 0 31 0;
#X connect 52 0 53 0;
#X connect 52 1 55 0;
#X connect 53 0 36 0;
#X connect 53 0 37 0;
#X connect 55 0 53 1;
