#N canvas 14 20 986 643 10;
#X text 605 18 parameter update message;
#X obj 602 35 inlet;
#X text 134 0 you can sum front + back to get a stereo output;
#X text 557 705 L front R;
#X obj 592 687 outlet~;
#X obj 543 687 outlet~;
#X obj 625 581 +~;
#X obj 577 581 +~;
#X obj 529 581 +~;
#X obj 613 560 +~;
#X obj 472 560 +~;
#X obj 480 581 +~;
#X obj 565 559 +~;
#X obj 519 560 +~;
#X obj 33 71 +~;
#X obj 48 90 +~;
#X obj 64 109 +~;
#X obj 81 128 +~;
#X obj 97 146 +~;
#X obj 113 166 +~;
#X obj 128 185 +~;
#X obj 143 203 +~;
#X obj 159 222 +~;
#X obj 176 242 +~;
#X obj 192 262 +~;
#X obj 18 52 +~;
#X obj 18 9 inlet~;
#X obj 33 28 inlet~;
#X obj 48 47 inlet~;
#X obj 64 66 inlet~;
#X obj 97 104 inlet~;
#X obj 113 123 inlet~;
#X obj 128 142 inlet~;
#X obj 81 85 inlet~;
#X obj 159 180 inlet~;
#X obj 176 199 inlet~;
#X obj 192 218 inlet~;
#X obj 143 161 inlet~;
#X obj 1183 223 t b f;
#X obj 1133 222 t b f;
#X obj 1083 224 t b f;
#X obj 1033 224 t b f;
#X obj 983 223 t b f;
#X obj 983 293 f;
#X obj 983 272 del 0.5;
#X msg 602 92 \$1 del_time \$2;
#X msg 678 113 \$1 del_mod_freq \$2;
#X msg 755 91 \$1 del_mod_amp \$2;
#X obj 602 69 route del_time del_mod_freq del_mod_amp;
#X obj 983 185 route dec_lm_freq dec_mh_freq dec_l_time dec_m_time
dec_h_time;
#X obj 983 316 pack 0 0 0 0 0;
#X text 999 39 1.arg: <float> route-index of parameters;
#X text 999 48 2.arg: <sym> name of delay line;
#X text 999 57 3.arg: <float> delay time (ms);
#X text 999 67 4.arg: <float> delay modulation freq. (Hz);
#X text 999 76 5.arg: <float> delay modulation ampl (+-cents);
#X text 999 86 6.arg: <float> filter lm-cutoff-freq kHz;
#X text 999 96 7.arg: <float> filter mh-cutoff-freq kHz;
#X text 999 106 8.arg: <float> low-decay-time in sec;
#X text 999 116 9.arg: <float> mid-decay-time in sec;
#X text 994 126 10.arg: <float> high-decay-time in sec;
#X text 994 138 11.arg: <float> interpolation-time in ms;
#X obj 208 281 +~;
#X obj 224 299 +~;
#X obj 240 319 +~;
#X obj 255 338 +~;
#X obj 270 356 +~;
#X obj 286 375 +~;
#X obj 303 395 +~;
#X obj 319 415 +~;
#X obj 224 257 inlet~;
#X obj 240 276 inlet~;
#X obj 255 295 inlet~;
#X obj 208 238 inlet~;
#X obj 286 333 inlet~;
#X obj 303 352 inlet~;
#X obj 319 371 inlet~;
#X obj 270 314 inlet~;
#X obj 641 623 +~;
#X obj 593 623 +~;
#X obj 545 623 +~;
#X obj 632 602 +~;
#X obj 491 602 +~;
#X obj 496 623 +~;
#X obj 584 601 +~;
#X obj 538 602 +~;
#X obj 18 436 \$1fdbk_matrix20~ ___________________________;
#X text 406 751 (0 \, stat \, dyn) default: 0 = stat;
#X text 406 737 (0 \, ++ \, +++ \, ++++) default: 0 = ++;
#X text 104 737 1.arg: <float/sym> performance of feedback-matrix;
#X text 104 750 2.arg: <float/sym> performance of feedback-delays;
#X text 104 764 3.arg: <float> max. reverberation-delay-time in ms
;
#X obj 319 660 delwrite~ \$0rev19 \$3;
#X obj 302 638 delwrite~ \$0rev18 \$3;
#X obj 286 616 delwrite~ \$0rev17 \$3;
#X obj 272 593 delwrite~ \$0rev16 \$3;
#X obj 255 571 delwrite~ \$0rev15 \$3;
#X obj 239 548 delwrite~ \$0rev14 \$3;
#X obj 223 526 delwrite~ \$0rev13 \$3;
#X obj 207 505 delwrite~ \$0rev12 \$3;
#X obj 192 483 delwrite~ \$0rev11 \$3;
#X obj 176 462 delwrite~ \$0rev10 \$3;
#X obj 161 659 delwrite~ \$0rev9 \$3;
#X obj 144 637 delwrite~ \$0rev8 \$3;
#X obj 128 615 delwrite~ \$0rev7 \$3;
#X obj 114 592 delwrite~ \$0rev6 \$3;
#X obj 97 570 delwrite~ \$0rev5 \$3;
#X obj 81 547 delwrite~ \$0rev4 \$3;
#X obj 65 525 delwrite~ \$0rev3 \$3;
#X obj 49 504 delwrite~ \$0rev2 \$3;
#X obj 34 482 delwrite~ \$0rev1 \$3;
#X obj 18 461 delwrite~ \$0rev0 \$3;
#X obj 708 559 \$2rev_tap~ 19 \$0rev19 92.15 0.832 0.43 0.45 3.5 6
3 1.5 100;
#X obj 700 538 \$2rev_tap~ 18 \$0rev18 84.65 0.732 0.3 0.45 3.5 6 3
1.5 100;
#X obj 692 517 \$2rev_tap~ 17 \$0rev17 81.07 0.674 0.4 0.45 3.5 6 3
1.5 100;
#X obj 685 497 \$2rev_tap~ 16 \$0rev16 75.91 0.618 0.35 0.45 3.5 6
3 1.5 100;
#X obj 676 475 \$2rev_tap~ 15 \$0rev15 72.67 0.569 0.38 0.45 3.5 6
3 1.5 100;
#X obj 666 453 \$2rev_tap~ 14 \$0rev14 66.54 0.531 0.4 0.45 3.5 6 3
1.5 100;
#X obj 657 432 \$2rev_tap~ 13 \$0rev13 60.17 0.528 0.43 0.45 3.5 6
3 1.5 100;
#X obj 650 411 \$2rev_tap~ 12 \$0rev12 57.41 0.497 0.4 0.45 3.5 6 3
1.5 100;
#X obj 636 390 \$2rev_tap~ 11 \$0rev11 105.11 0.984 0.5 0.45 3.5 6
3 1.5 100;
#X obj 628 368 \$2rev_tap~ 10 \$0rev10 97.89 0.954 0.46 0.45 3.5 6
3 1.5 100;
#X obj 620 347 \$2rev_tap~ 9 \$0rev9 92.15 0.832 0.43 0.45 3.5 6 3
1.5 100;
#X obj 612 326 \$2rev_tap~ 8 \$0rev8 84.65 0.732 0.3 0.45 3.5 6 3 1.5
100;
#X obj 604 305 \$2rev_tap~ 7 \$0rev7 81.07 0.674 0.4 0.45 3.5 6 3 1.5
100;
#X obj 597 285 \$2rev_tap~ 6 \$0rev6 75.91 0.618 0.35 0.45 3.5 6 3
1.5 100;
#X obj 588 263 \$2rev_tap~ 5 \$0rev5 72.67 0.569 0.38 0.45 3.5 6 3
1.5 100;
#X obj 578 241 \$2rev_tap~ 4 \$0rev4 66.54 0.531 0.4 0.45 3.5 6 3 1.5
100;
#X obj 569 220 \$2rev_tap~ 3 \$0rev3 60.17 0.528 0.43 0.45 3.5 6 3
1.5 100;
#X obj 562 199 \$2rev_tap~ 2 \$0rev2 57.41 0.497 0.4 0.45 3.5 6 3 1.5
100;
#X obj 552 178 \$2rev_tap~ 1 \$0rev1 53.71 0.459 0.33 0.45 3.5 6 3
1.5 100;
#X obj 544 157 \$2rev_tap~ 0 \$0rev0 51.13 0.432 0.38 0.45 3.5 6 3
1.5 100;
#X obj 591 656 +~;
#X obj 543 656 +~;
#X connect 1 0 48 0;
#X connect 6 0 81 0;
#X connect 7 0 84 0;
#X connect 8 0 85 0;
#X connect 9 0 6 0;
#X connect 10 0 11 0;
#X connect 11 0 82 0;
#X connect 12 0 7 0;
#X connect 13 0 8 0;
#X connect 14 0 86 1;
#X connect 15 0 86 2;
#X connect 16 0 86 3;
#X connect 17 0 86 4;
#X connect 18 0 86 5;
#X connect 19 0 86 6;
#X connect 20 0 86 7;
#X connect 21 0 86 8;
#X connect 22 0 86 9;
#X connect 23 0 86 10;
#X connect 24 0 86 11;
#X connect 25 0 86 0;
#X connect 26 0 25 0;
#X connect 27 0 14 0;
#X connect 28 0 15 0;
#X connect 29 0 16 0;
#X connect 30 0 18 0;
#X connect 31 0 19 0;
#X connect 32 0 20 0;
#X connect 33 0 17 0;
#X connect 34 0 22 0;
#X connect 35 0 23 0;
#X connect 36 0 24 0;
#X connect 37 0 21 0;
#X connect 38 0 44 0;
#X connect 38 1 50 4;
#X connect 39 0 44 0;
#X connect 39 1 50 3;
#X connect 40 0 44 0;
#X connect 40 1 50 2;
#X connect 41 0 44 0;
#X connect 41 1 50 1;
#X connect 42 0 44 0;
#X connect 42 1 43 1;
#X connect 43 0 50 0;
#X connect 44 0 43 0;
#X connect 45 0 131 1;
#X connect 46 0 131 1;
#X connect 47 0 131 1;
#X connect 48 0 45 0;
#X connect 48 1 46 0;
#X connect 48 2 47 0;
#X connect 48 3 49 0;
#X connect 49 0 42 0;
#X connect 49 1 41 0;
#X connect 49 2 40 0;
#X connect 49 3 39 0;
#X connect 49 4 38 0;
#X connect 50 0 131 2;
#X connect 62 0 86 12;
#X connect 63 0 86 13;
#X connect 64 0 86 14;
#X connect 65 0 86 15;
#X connect 66 0 86 16;
#X connect 67 0 86 17;
#X connect 68 0 86 18;
#X connect 69 0 86 19;
#X connect 70 0 63 0;
#X connect 71 0 64 0;
#X connect 72 0 65 0;
#X connect 73 0 62 0;
#X connect 74 0 67 0;
#X connect 75 0 68 0;
#X connect 76 0 69 0;
#X connect 77 0 66 0;
#X connect 78 0 132 1;
#X connect 79 0 133 1;
#X connect 80 0 132 0;
#X connect 81 0 78 0;
#X connect 82 0 83 0;
#X connect 83 0 133 0;
#X connect 84 0 79 0;
#X connect 85 0 80 0;
#X connect 86 0 111 0;
#X connect 86 1 110 0;
#X connect 86 2 109 0;
#X connect 86 3 108 0;
#X connect 86 4 107 0;
#X connect 86 5 106 0;
#X connect 86 6 105 0;
#X connect 86 7 104 0;
#X connect 86 8 103 0;
#X connect 86 9 102 0;
#X connect 86 10 101 0;
#X connect 86 11 100 0;
#X connect 86 12 99 0;
#X connect 86 13 98 0;
#X connect 86 14 97 0;
#X connect 86 15 96 0;
#X connect 86 16 95 0;
#X connect 86 17 94 0;
#X connect 86 18 93 0;
#X connect 86 19 92 0;
#X connect 112 0 69 1;
#X connect 112 0 78 1;
#X connect 113 0 68 1;
#X connect 113 0 79 1;
#X connect 113 1 112 1;
#X connect 113 2 112 2;
#X connect 114 0 67 1;
#X connect 114 0 80 1;
#X connect 114 1 113 1;
#X connect 114 2 113 2;
#X connect 115 0 66 1;
#X connect 115 0 83 1;
#X connect 115 1 114 1;
#X connect 115 2 114 2;
#X connect 116 0 65 1;
#X connect 116 0 81 1;
#X connect 116 1 115 1;
#X connect 116 2 115 2;
#X connect 117 0 64 1;
#X connect 117 0 84 1;
#X connect 117 1 116 1;
#X connect 117 2 116 2;
#X connect 118 0 63 1;
#X connect 118 0 85 1;
#X connect 118 1 117 1;
#X connect 118 2 117 2;
#X connect 119 0 62 1;
#X connect 119 0 82 1;
#X connect 119 1 118 1;
#X connect 119 2 118 2;
#X connect 120 0 6 1;
#X connect 120 0 24 1;
#X connect 120 1 119 1;
#X connect 120 2 119 2;
#X connect 121 0 7 1;
#X connect 121 0 23 1;
#X connect 121 1 120 1;
#X connect 121 2 120 2;
#X connect 122 0 8 1;
#X connect 122 0 22 1;
#X connect 122 1 121 1;
#X connect 122 2 121 2;
#X connect 123 0 11 1;
#X connect 123 0 21 1;
#X connect 123 1 122 1;
#X connect 123 2 122 2;
#X connect 124 0 9 1;
#X connect 124 0 20 1;
#X connect 124 1 123 1;
#X connect 124 2 123 2;
#X connect 125 0 12 1;
#X connect 125 0 19 1;
#X connect 125 1 124 1;
#X connect 125 2 124 2;
#X connect 126 0 13 1;
#X connect 126 0 18 1;
#X connect 126 1 125 1;
#X connect 126 2 125 2;
#X connect 127 0 10 1;
#X connect 127 0 17 1;
#X connect 127 1 126 1;
#X connect 127 2 126 2;
#X connect 128 0 9 0;
#X connect 128 0 16 1;
#X connect 128 1 127 1;
#X connect 128 2 127 2;
#X connect 129 0 12 0;
#X connect 129 0 15 1;
#X connect 129 1 128 1;
#X connect 129 2 128 2;
#X connect 130 0 14 1;
#X connect 130 0 13 0;
#X connect 130 1 129 1;
#X connect 130 2 129 2;
#X connect 131 0 25 1;
#X connect 131 0 10 0;
#X connect 131 1 130 1;
#X connect 131 2 130 2;
#X connect 132 0 4 0;
#X connect 133 0 5 0;
