#N canvas 86 122 882 548 10;
#X obj 90 35 inlet~;
#X obj 75 265 outlet~;
#X obj 28 265 outlet~;
#X obj 514 66 inlet;
#X obj 266 265 outlet~;
#X obj 218 265 outlet~;
#X text 56 281 front;
#X text 251 281 rear;
#X obj 132 35 inlet~;
#X obj 592 117 tgl 15 0 empty empty empty 0 -6 0 8 -262144 -1 -1 0
1;
#X obj 90 107 hp1~ 7;
#X obj 133 107 hp1~ 7;
#X text 490 47 open_close_EDIT;
#X obj 610 65 inlet;
#X text 611 46 preset filename;
#X obj 934 271 outlet;
#X obj 170 265 outlet~;
#X obj 123 265 outlet~;
#X text 155 280 side;
#X obj 684 270 outlet~;
#X obj 637 270 outlet~;
#X obj 875 270 outlet~;
#X obj 827 270 outlet~;
#X text 665 286 front;
#X text 860 286 rear;
#X obj 779 270 outlet~;
#X obj 732 270 outlet~;
#X text 764 285 side;
#X text 133 305 early echoes;
#X text 740 312 late reverb;
#X obj 173 35 inlet~;
#X obj 215 35 inlet~;
#X obj 173 107 hp1~ 7;
#X obj 216 107 hp1~ 7;
#X obj 256 35 inlet~;
#X obj 298 35 inlet~;
#X obj 256 107 hp1~ 7;
#X obj 299 107 hp1~ 7;
#X obj 514 145 room_EDIT+12_earlies 12;
#X obj 355 264 outlet~;
#X obj 308 264 outlet~;
#X obj 546 264 outlet~;
#X obj 498 264 outlet~;
#X text 336 280 front;
#X text 531 280 rear;
#X obj 450 264 outlet~;
#X obj 403 264 outlet~;
#X text 435 279 side;
#X obj 401 64 inlet;
#X text 398 42 recall;
#X obj 89 172 12reverb_6_12_6~ \$2 \$3 _____________________________________
;
#X text 31 362 3.arg: <float/sym> performance of feedback-delays;
#X text 333 362 (0 \, stat \, dyn) default: 0 = stat;
#X text 31 349 2.arg: <float/sym> performance of feedback-matrix;
#X text 333 349 (0 \, ++ \, +++ \, ++++) default: 0 = ++;
#X text 31 336 1.arg: <float> reverb-order (12);
#X connect 0 0 10 0;
#X connect 3 0 9 0;
#X connect 8 0 11 0;
#X connect 9 0 38 1;
#X connect 10 0 50 0;
#X connect 11 0 50 1;
#X connect 13 0 38 2;
#X connect 30 0 32 0;
#X connect 31 0 33 0;
#X connect 32 0 50 2;
#X connect 33 0 50 3;
#X connect 34 0 36 0;
#X connect 35 0 37 0;
#X connect 36 0 50 4;
#X connect 37 0 50 5;
#X connect 38 0 50 6;
#X connect 38 1 15 0;
#X connect 48 0 38 0;
#X connect 50 0 2 0;
#X connect 50 1 1 0;
#X connect 50 2 17 0;
#X connect 50 3 16 0;
#X connect 50 4 5 0;
#X connect 50 5 4 0;
#X connect 50 6 40 0;
#X connect 50 7 39 0;
#X connect 50 8 46 0;
#X connect 50 9 45 0;
#X connect 50 10 42 0;
#X connect 50 11 41 0;
#X connect 50 12 20 0;
#X connect 50 13 19 0;
#X connect 50 14 26 0;
#X connect 50 15 25 0;
#X connect 50 16 22 0;
#X connect 50 17 21 0;
