#N canvas 207 183 658 468 10;
#X obj 32 48 inlet~;
#X obj 77 261 outlet~;
#X obj 30 261 outlet~;
#X obj 173 261 outlet~;
#X obj 125 261 outlet~;
#X text 58 277 front;
#X text 158 277 rear;
#X obj 178 47 inlet~;
#X obj 32 120 hp1~ 7;
#X obj 179 117 hp1~ 7;
#X obj 376 56 inlet;
#X obj 281 262 outlet~;
#X obj 234 262 outlet~;
#X obj 377 262 outlet~;
#X obj 329 262 outlet~;
#X text 262 278 front;
#X text 362 278 rear;
#X text 70 290 early;
#X text 308 297 reverb;
#X text 17 345 1.arg: <float> reverb-order (6 \, 8 \, 12 \, 20 \, 24)
;
#X text 17 371 3.arg: <float/sym> performance of feedback-delays;
#X text 319 371 (0 \, stat \, dyn) default: 0 = stat;
#X text 17 358 2.arg: <float/sym> performance of feedback-matrix;
#X text 319 358 (0 \, ++ \, +++ \, ++++) default: 0 = ++;
#X obj 31 195 \$1reverb_2_4_4~ \$2 \$3 ____________________________
;
#X text 376 39 control;
#X connect 0 0 8 0;
#X connect 7 0 9 0;
#X connect 8 0 24 0;
#X connect 9 0 24 1;
#X connect 10 0 24 2;
#X connect 24 0 2 0;
#X connect 24 1 1 0;
#X connect 24 2 4 0;
#X connect 24 3 3 0;
#X connect 24 4 12 0;
#X connect 24 5 11 0;
#X connect 24 6 14 0;
#X connect 24 7 13 0;
