#N canvas 314 210 628 388 10;
#X obj 168 263 outlet~;
#X obj 122 263 outlet~;
#X obj 76 263 outlet~;
#X obj 30 263 outlet~;
#X obj 153 214 +~;
#X obj 112 214 +~;
#X obj 30 217 +~;
#X obj 71 215 +~;
#X obj 168 124 +~;
#X obj 30 26 inlet~;
#X obj 112 26 inlet~;
#X obj 153 26 inlet~;
#X obj 82 88 +~;
#X obj 44 58 +~;
#X obj 71 26 inlet~;
#X obj 214 263 outlet~;
#X obj 195 214 +~;
#X obj 194 26 inlet~;
#X obj 125 58 +~;
#X text 447 27 N inlets;
#X text 456 79 a DC of -1 should be on each output;
#X text 449 63 if a DC of +1 is on every input;
#X text 422 175 k = -2 / N;
#X obj 399 263 outlet~;
#X obj 353 263 outlet~;
#X obj 307 263 outlet~;
#X obj 261 263 outlet~;
#X obj 359 214 +~;
#X obj 318 214 +~;
#X obj 236 217 +~;
#X obj 277 215 +~;
#X obj 250 88 +~;
#X obj 236 26 inlet~;
#X obj 318 26 inlet~;
#X obj 359 26 inlet~;
#X obj 293 57 +~;
#X obj 208 61 +~;
#X obj 277 26 inlet~;
#X obj 445 263 outlet~;
#X obj 401 214 +~;
#X obj 400 26 inlet~;
#X obj 374 61 +~;
#X obj 211 174 *~ -0.2;
#X obj 212 150 +~;
#X connect 4 0 15 0;
#X connect 5 0 0 0;
#X connect 6 0 2 0;
#X connect 7 0 1 0;
#X connect 8 0 43 0;
#X connect 9 0 13 0;
#X connect 9 0 6 0;
#X connect 10 0 5 0;
#X connect 10 0 18 0;
#X connect 11 0 4 0;
#X connect 11 0 18 1;
#X connect 12 0 8 0;
#X connect 13 0 12 0;
#X connect 14 0 13 1;
#X connect 14 0 7 0;
#X connect 16 0 26 0;
#X connect 17 0 16 0;
#X connect 17 0 36 0;
#X connect 18 0 12 1;
#X connect 27 0 38 0;
#X connect 28 0 23 0;
#X connect 29 0 25 0;
#X connect 30 0 24 0;
#X connect 31 0 8 1;
#X connect 32 0 29 0;
#X connect 32 0 36 1;
#X connect 33 0 28 0;
#X connect 33 0 35 1;
#X connect 34 0 27 0;
#X connect 34 0 41 0;
#X connect 35 0 31 1;
#X connect 36 0 31 0;
#X connect 37 0 30 0;
#X connect 37 0 35 0;
#X connect 39 0 3 0;
#X connect 40 0 41 1;
#X connect 40 0 39 0;
#X connect 41 0 43 1;
#X connect 42 0 6 1;
#X connect 42 0 7 1;
#X connect 42 0 5 1;
#X connect 42 0 4 1;
#X connect 42 0 16 1;
#X connect 42 0 29 1;
#X connect 42 0 30 1;
#X connect 42 0 28 1;
#X connect 42 0 27 1;
#X connect 42 0 39 1;
#X connect 43 0 42 0;
