#N canvas 50 22 846 673 10;
#X floatatom 126 118 6 -180 180 0 - - -;
#X obj 103 118 bng 15 250 50 0 empty empty empty 0 -6 0 8 -262144 -1
-1;
#X floatatom 739 247 6 -180 180 0 - - -;
#X text 740 230 rho_y;
#X text 128 101 rho_z;
#X floatatom 806 247 6 -180 180 0 - - -;
#X text 808 230 rho_x;
#X obj 738 314 pack 0 0 0;
#X obj 806 291 t b f;
#X obj 739 291 t b f;
#X obj 126 135 deg2rad;
#X obj 739 265 deg2rad;
#X obj 806 266 deg2rad;
#X text 14 11 ambi_rot;
#X text 128 8 AMBISONIC ROTATION;
#X text 615 153 o-;
#X text 623 148 _____;
#X text 653 153 > +y;
#X text 615 146 |;
#X text 615 140 |;
#X text 615 134 |;
#X text 615 128 |;
#X text 615 124 ^;
#X text 611 114 +z;
#X text 603 158 +x;
#X text 614 139 +;
#X text 619 139 -;
#X text 611 139 -;
#X text 623 140 -;
#X text 564 139 +rho_x <;
#X text 626 139 .;
#X text 627 139 .;
#X text 628 139 .;
#X text 629 140 .;
#X text 630 140 .;
#X text 631 141 .;
#X text 632 142 .;
#X text 633 143 .;
#X text 437 148 _____;
#X text 469 140 |;
#X text 469 146 |;
#X text 469 134 |;
#X text 469 128 |;
#X text 469 124 ^;
#X text 465 114 +z;
#X text 468 136 +;
#X text 473 136 -;
#X text 459 136 .;
#X text 463 153 -o;
#X text 412 153 +x <;
#X text 480 136 > +rho_y;
#X text 474 158 +y;
#X text 465 136 -;
#X text 461 137 -;
#X text 458 136 .;
#X text 457 136 .;
#X text 456 137 .;
#X text 455 137 .;
#X text 454 138 .;
#X text 453 139 .;
#X text 452 140 .;
#X text 308 148 _____;
#X text 340 140 |;
#X text 340 146 |;
#X text 340 134 |;
#X text 340 128 |;
#X text 340 124 ^;
#X text 334 153 -o;
#X text 336 114 +x;
#X text 283 153 +y <;
#X text 345 158 +z;
#X text 339 136 +;
#X text 344 136 -;
#X text 336 136 -;
#X text 348 137 -;
#X text 351 136 .;
#X text 352 136 .;
#X text 353 136 .;
#X text 354 137 .;
#X text 355 137 .;
#X text 356 138 .;
#X text 357 139 .;
#X text 358 140 .;
#X text 289 136 +rho_z <;
#X text 300 60 rho_z ... rotation angle resp. z-axe;
#X text 300 71 rho_y ... rotation angle resp. y-axe;
#X text 300 82 rho_x ... rotation angle resp. x-axe;
#X obj 27 251 cnv 15 60 15 empty empty empty 20 12 0 14 -260818 -66577
0;
#X obj 155 254 cnv 15 60 15 empty empty empty 20 12 0 14 -260818 -66577
0;
#X obj 34 305 mtx_mul;
#X obj 740 394 pack 0 0 0;
#X obj 740 354 unpack 0 0 0;
#X obj 740 374 * -1;
#X obj 56 330 mtx_mul;
#X obj 79 354 mtx_mul;
#X obj 100 385 mtx_mul;
#X obj 773 374 * -1;
#X obj 807 374 * -1;
#X obj 355 476 round_zero 0.0001;
#X obj 355 418 round_zero 0.0001;
#X obj 349 359 round_zero 0.0001;
#X obj 353 299 round_zero 0.0001;
#X symbolatom 473 309 0 0 0 0 - - -;
#X symbolatom 473 344 0 0 0 0 - - -;
#X symbolatom 474 423 0 0 0 0 - - -;
#X symbolatom 474 536 0 0 0 0 - - -;
#X obj 355 496 mergefilename blank;
#X obj 353 321 mergefilename blank;
#X obj 349 380 mergefilename blank;
#X obj 355 438 mergefilename blank;
#X text 380 282 1st order;
#X text 383 341 2nd order;
#X text 378 400 3rd order;
#X text 376 456 4th order;
#X text 325 6 calculates a matrix message;
#X text 329 17 for each ambisonic order;
#X text 296 248 1.arg.: <float> ambisonic order;
#X text 283 190 inlet: <float> rotation angle in degree for 2-D;
#X text 322 204 or a list of 3 floats in degree for 3-D:;
#X text 334 216 1.) <float> rotation angle of z-axe;
#X text 334 236 3.) <float> rotation angle of x-axe;
#X text 334 226 2.) <float> rotation angle of y-axe;
#X text 11 437 with "matrix" \, followed by number;
#X text 11 449 of rows and columns and the >float> elements.;
#X text 23 462 1.outlet is the ambisonic rotation matrix;
#X text 12 474 for the components of 1.order ambisonc domain.;
#X text 23 487 2.outlet is the ambisonic rotation matrix;
#X text 12 499 for the components of 2.order ambisonc domain.;
#X text 105 513 aso.;
#X text 10 425 outlets: matrix message beginning;
#X text 79 603 IEM KUG;
#X text 63 591 musil;
#X text 93 591 @;
#X text 99 591 iem.at;
#X text 62 613 Graz \, Austria;
#X obj 26 251 ambi2_rotate 4;
#X obj 154 253 ambi2_rotate 4;
#X obj 26 273 route 1 2 3 4;
#X obj 154 276 route 1 2 3 4;
#X text 14 580 (c) Thomas Musil 2000 - 2008;
#X obj 125 169 t f f;
#X obj 154 232 * -1;
#X text 119 28 it works only for 2D;
#X connect 0 0 10 0;
#X connect 1 0 0 0;
#X connect 2 0 11 0;
#X connect 5 0 12 0;
#X connect 8 0 7 0;
#X connect 8 1 7 2;
#X connect 9 0 7 0;
#X connect 9 1 7 1;
#X connect 10 0 140 0;
#X connect 11 0 9 0;
#X connect 12 0 8 0;
#X connect 89 0 101 0;
#X connect 91 0 92 0;
#X connect 91 1 96 0;
#X connect 91 2 97 0;
#X connect 92 0 90 0;
#X connect 93 0 100 0;
#X connect 94 0 99 0;
#X connect 95 0 98 0;
#X connect 96 0 90 1;
#X connect 97 0 90 2;
#X connect 98 0 106 0;
#X connect 99 0 109 0;
#X connect 100 0 108 0;
#X connect 101 0 107 0;
#X connect 106 0 105 0;
#X connect 107 0 102 0;
#X connect 108 0 103 0;
#X connect 109 0 104 0;
#X connect 135 0 137 0;
#X connect 136 0 138 0;
#X connect 137 0 89 0;
#X connect 137 1 93 0;
#X connect 137 2 94 0;
#X connect 137 3 95 0;
#X connect 138 0 89 1;
#X connect 138 1 93 1;
#X connect 138 2 94 1;
#X connect 138 3 95 1;
#X connect 140 0 135 0;
#X connect 140 1 141 0;
#X connect 141 0 136 0;
