#N canvas 209 22 1235 782 10;
#X obj 20 44 dsp;
#X obj 20 24 tgl 15 0 empty empty empty 0 -6 0 8 -260818 -1 -1 0 1
;
#X floatatom 20 83 5 0 0 0 - - -;
#X floatatom 33 65 5 0 0 0 - - -;
#X obj 489 11 noise~;
#X obj 489 32 rbpq2~ 1000 2 100;
#X obj 227 628 mtx_print;
#X obj 699 158 prvu~;
#X obj 700 182 vu 15 120 empty empty -1 -8 0 8 -66577 -1 0 0;
#X obj 719 158 prvu~;
#X obj 720 182 vu 15 120 empty empty -1 -8 0 8 -66577 -1 0 0;
#X obj 739 158 prvu~;
#X obj 740 182 vu 15 120 empty empty -1 -8 0 8 -66577 -1 0 0;
#X obj 759 158 prvu~;
#X obj 760 182 vu 15 120 empty empty -1 -8 0 8 -66577 -1 0 0;
#X obj 879 158 prvu~;
#X obj 880 182 vu 15 120 empty empty -1 -8 0 8 -66577 -1 1 0;
#X obj 45 202 loadbang;
#X obj 45 225 bng 15 250 50 0 empty empty empty 0 -6 0 8 -262144 -1
-1;
#X obj 489 75 mull~ 1 100;
#X obj 618 38 fadtodb;
#X obj 525 55 dbtorms;
#X obj 618 58 - 100;
#X obj 618 82 vsl 15 121 0 120 0 1 empty empty empty 0 -8 0 8 -260818
-1 -1 11000 1;
#X floatatom 637 80 5 0 0 0 - - -;
#X obj 579 579 vsl 15 51 0 0.2 0 0 empty empty empty 0 -8 0 8 -1 -24198
-1 0 1;
#X obj 647 487 vsl 15 51 0 0.2 0 0 empty empty empty 0 -8 0 8 -1 -24198
-1 15 1;
#X obj 644 663 vsl 15 51 0 0.2 0 0 empty empty empty 0 -8 0 8 -1 -24198
-1 2 1;
#X obj 744 472 vsl 15 51 0 0.2 0 0 empty empty empty 0 -8 0 8 -1 -24198
-1 26 1;
#X obj 744 680 vsl 15 51 0 0.2 0 0 empty empty empty 0 -8 0 8 -1 -24198
-1 1 1;
#X obj 849 487 vsl 15 51 0 0.2 0 0 empty empty empty 0 -8 0 8 -1 -24198
-1 15 1;
#X obj 850 674 vsl 15 51 0 0.2 0 0 empty empty empty 0 -8 0 8 -1 -24198
-1 2 1;
#X obj 914 579 vsl 15 51 0 0.2 0 0 empty empty empty 0 -8 0 8 -1 -24198
-1 0 1;
#X text 508 598 +90 degree;
#X text 942 595 -90 degree;
#X text 714 744 +-180 degree;
#X obj 231 32 cnv 12 30 12 empty empty empty 20 12 0 14 -260818 -66577
0;
#X floatatom 230 31 5 -180 180 0 - - -;
#X text 351 134 ENCODING;
#X text 196 480 DECODING;
#X text 587 90 gain;
#X text 17 108 we need iemlib1 \, iemlib2 \,;
#X text 82 633 IEM KUG;
#X text 57 621 musil;
#X text 94 621 @;
#X text 102 621 iem.at;
#X text 65 643 Graz \, Austria;
#X text 15 610 (c) Thomas Musil 2000 - 2008;
#X text 24 119 iemmatrix \, iem_zsym_ambi;
#X obj 128 533 round_zero 1e-06;
#X msg 112 308 1 90 0 \, 2 45 45 \, 3 45 135 \, 4 45 225 \, 5 45 315
\, 6 0 0 \, 7 0 45 \, 8 0 90 \, 9 0 135 \, 10 0 180 \, 11 0 225 \,
12 0 270 \, 13 0 315;
#X obj 112 342 pp real_ls;
#X msg 79 406 begin_pseudo_inverse;
#X msg 46 468 end_pseudo_inverse;
#X obj 779 158 prvu~;
#X obj 780 182 vu 15 120 empty empty -1 -8 0 8 -66577 -1 0 0;
#X obj 799 158 prvu~;
#X obj 800 182 vu 15 120 empty empty -1 -8 0 8 -66577 -1 0 0;
#X obj 819 158 prvu~;
#X obj 820 182 vu 15 120 empty empty -1 -8 0 8 -66577 -1 0 0;
#X obj 859 158 prvu~;
#X obj 860 182 vu 15 120 empty empty -1 -8 0 8 -66577 -1 0 0;
#X obj 291 32 cnv 12 30 12 empty empty empty 20 12 0 14 -260818 -66577
0;
#X floatatom 291 32 5 -180 180 0 - - -;
#X text 292 14 phi;
#X text 232 14 theta;
#X obj 231 81 pack 0 0;
#X obj 252 61 t b f;
#X obj 744 572 vsl 15 51 0 0.2 0 0 empty empty empty 0 -8 0 8 -1 -24198
-1 1 1;
#X obj 701 536 vsl 15 51 0 0.2 0 0 empty empty empty 0 -8 0 8 -1 -24198
-1 8 1;
#X obj 701 616 vsl 15 51 0 0.2 0 0 empty empty empty 0 -8 0 8 -1 -24198
-1 2 1;
#X obj 791 536 vsl 15 51 0 0.2 0 0 empty empty empty 0 -8 0 8 -1 -24198
-1 8 1;
#X obj 791 616 vsl 15 51 0 0.2 0 0 empty empty empty 0 -8 0 8 -1 -24198
-1 2 1;
#X obj 839 158 prvu~;
#X obj 840 182 vu 15 120 empty empty -1 -8 0 8 -66577 -1 0 0;
#N canvas 0 22 788 366 ________________________________ 0;
#X obj 25 66 rvu~;
#X obj 25 86 + 100;
#X obj 25 106 dbtorms;
#X obj 25 127 outlet;
#X obj 75 66 rvu~;
#X obj 75 86 + 100;
#X obj 75 106 dbtorms;
#X obj 75 127 outlet;
#X obj 125 66 rvu~;
#X obj 125 86 + 100;
#X obj 125 106 dbtorms;
#X obj 125 127 outlet;
#X obj 175 66 rvu~;
#X obj 175 86 + 100;
#X obj 175 106 dbtorms;
#X obj 175 127 outlet;
#X obj 225 66 rvu~;
#X obj 225 86 + 100;
#X obj 225 106 dbtorms;
#X obj 225 127 outlet;
#X obj 275 66 rvu~;
#X obj 275 86 + 100;
#X obj 275 106 dbtorms;
#X obj 275 127 outlet;
#X obj 325 66 rvu~;
#X obj 325 86 + 100;
#X obj 325 106 dbtorms;
#X obj 325 127 outlet;
#X obj 375 66 rvu~;
#X obj 375 86 + 100;
#X obj 375 106 dbtorms;
#X obj 375 127 outlet;
#X obj 25 45 inlet~;
#X obj 75 45 inlet~;
#X obj 125 45 inlet~;
#X obj 175 45 inlet~;
#X obj 225 45 inlet~;
#X obj 275 45 inlet~;
#X obj 325 45 inlet~;
#X obj 375 46 inlet~;
#X obj 425 66 rvu~;
#X obj 425 86 + 100;
#X obj 425 106 dbtorms;
#X obj 425 127 outlet;
#X obj 475 66 rvu~;
#X obj 475 86 + 100;
#X obj 475 106 dbtorms;
#X obj 475 127 outlet;
#X obj 525 66 rvu~;
#X obj 525 86 + 100;
#X obj 525 106 dbtorms;
#X obj 525 127 outlet;
#X obj 575 66 rvu~;
#X obj 575 86 + 100;
#X obj 575 106 dbtorms;
#X obj 575 127 outlet;
#X obj 625 66 rvu~;
#X obj 625 86 + 100;
#X obj 625 106 dbtorms;
#X obj 625 127 outlet;
#X obj 425 45 inlet~;
#X obj 475 45 inlet~;
#X obj 525 45 inlet~;
#X obj 575 45 inlet~;
#X obj 625 46 inlet~;
#X connect 0 0 1 0;
#X connect 1 0 2 0;
#X connect 2 0 3 0;
#X connect 4 0 5 0;
#X connect 5 0 6 0;
#X connect 6 0 7 0;
#X connect 8 0 9 0;
#X connect 9 0 10 0;
#X connect 10 0 11 0;
#X connect 12 0 13 0;
#X connect 13 0 14 0;
#X connect 14 0 15 0;
#X connect 16 0 17 0;
#X connect 17 0 18 0;
#X connect 18 0 19 0;
#X connect 20 0 21 0;
#X connect 21 0 22 0;
#X connect 22 0 23 0;
#X connect 24 0 25 0;
#X connect 25 0 26 0;
#X connect 26 0 27 0;
#X connect 28 0 29 0;
#X connect 29 0 30 0;
#X connect 30 0 31 0;
#X connect 32 0 0 0;
#X connect 33 0 4 0;
#X connect 34 0 8 0;
#X connect 35 0 12 0;
#X connect 36 0 16 0;
#X connect 37 0 20 0;
#X connect 38 0 24 0;
#X connect 39 0 28 0;
#X connect 40 0 41 0;
#X connect 41 0 42 0;
#X connect 42 0 43 0;
#X connect 44 0 45 0;
#X connect 45 0 46 0;
#X connect 46 0 47 0;
#X connect 48 0 49 0;
#X connect 49 0 50 0;
#X connect 50 0 51 0;
#X connect 52 0 53 0;
#X connect 53 0 54 0;
#X connect 54 0 55 0;
#X connect 56 0 57 0;
#X connect 57 0 58 0;
#X connect 58 0 59 0;
#X connect 60 0 40 0;
#X connect 61 0 44 0;
#X connect 62 0 48 0;
#X connect 63 0 52 0;
#X connect 64 0 56 0;
#X restore 585 446 pd ________________________________;
#X obj 605 366 mtx_*~ 2 2 100;
#X obj 665 343 mtx_*~ 2 2 100;
#X obj 720 319 mtx_*~ 2 2 100;
#X obj 456 224 cnv 12 30 12 empty empty empty 20 12 0 14 -260818 -66577
0;
#X floatatom 456 224 5 -180 180 0 - - -;
#X text 457 206 rho_z;
#X obj 527 188 loadbang;
#X msg 527 208 0;
#X obj 230 129 ambi2_encode 2;
#X msg 231 101 matrix \$1 \$2;
#X msg 335 102 ambi_weight 1 1 1;
#X obj 699 102 mtx_*~ 9 1 100 ____________;
#X obj 457 241 ambi2_rotate 2;
#X obj 456 263 route 1 2;
#X obj 585 418 mtx_*~ 13 9 0 _____________________;
#X msg 145 266 mirror_weight 0.7;
#X obj 94 385 pp pht_ls;
#X msg 94 364 1 -45 0 \, 2 -45 90 \, 3 -45 180 \, 4 -45 270 \, 6 -90
0;
#N canvas 337 146 579 529 mirror_phantom_ls_____ 0;
#X msg 182 186 1 6 \$1;
#X obj 71 48 inlet;
#X obj 101 441 outlet;
#X obj 162 59 inlet;
#X obj 71 135 f;
#X obj 226 143 f;
#X obj 87 110 * 0.25;
#X obj 243 112 * 0.5;
#X msg 203 211 2 8 \$1;
#X msg 40 187 1 13 \$1 \, 1 7 \$1;
#X msg 68 214 2 7 \$1 \, 2 9 \$1;
#X msg 219 241 3 10 \$1;
#X msg 90 244 3 9 \$1 \, 3 11 \$1;
#X msg 239 271 4 12 \$1;
#X msg 113 272 4 11 \$1 \, 4 13 \$1;
#X obj 162 81 route mirror_weight;
#X obj 380 60 inlet;
#X connect 0 0 2 0;
#X connect 1 0 4 0;
#X connect 1 0 5 0;
#X connect 3 0 15 0;
#X connect 4 0 9 0;
#X connect 4 0 10 0;
#X connect 4 0 12 0;
#X connect 4 0 14 0;
#X connect 5 0 0 0;
#X connect 5 0 8 0;
#X connect 5 0 11 0;
#X connect 5 0 13 0;
#X connect 6 0 4 1;
#X connect 7 0 5 1;
#X connect 8 0 2 0;
#X connect 9 0 2 0;
#X connect 10 0 2 0;
#X connect 11 0 2 0;
#X connect 12 0 2 0;
#X connect 13 0 2 0;
#X connect 14 0 2 0;
#X connect 15 0 7 0;
#X connect 15 0 6 0;
#X restore 62 426 pd mirror_phantom_ls_____;
#X msg 128 287 ambi_weight 1 0.85 0.4;
#X obj 45 244 t b b b b b b b;
#X obj 127 512 ambi2_decode 2 3 13 5;
#X text 576 243 ROTATING;
#X msg 62 447 ipht_ireal_muladd \$1 \$2 \$3;
#X connect 0 0 2 0;
#X connect 0 1 3 0;
#X connect 1 0 0 0;
#X connect 4 0 5 0;
#X connect 5 0 19 0;
#X connect 7 0 8 0;
#X connect 9 0 10 0;
#X connect 11 0 12 0;
#X connect 13 0 14 0;
#X connect 15 0 16 0;
#X connect 17 0 18 0;
#X connect 18 0 96 0;
#X connect 19 0 87 1;
#X connect 20 0 21 0;
#X connect 20 0 22 0;
#X connect 21 0 19 1;
#X connect 22 0 24 0;
#X connect 23 0 20 0;
#X connect 37 0 66 0;
#X connect 49 0 90 0;
#X connect 50 0 51 0;
#X connect 51 0 97 0;
#X connect 52 0 97 0;
#X connect 53 0 97 0;
#X connect 54 0 55 0;
#X connect 56 0 57 0;
#X connect 58 0 59 0;
#X connect 60 0 61 0;
#X connect 63 0 67 0;
#X connect 66 0 85 0;
#X connect 67 0 66 0;
#X connect 67 1 66 1;
#X connect 73 0 74 0;
#X connect 75 0 68 0;
#X connect 75 1 69 0;
#X connect 75 2 70 0;
#X connect 75 3 72 0;
#X connect 75 4 71 0;
#X connect 75 5 28 0;
#X connect 75 6 26 0;
#X connect 75 7 25 0;
#X connect 75 8 27 0;
#X connect 75 9 29 0;
#X connect 75 10 31 0;
#X connect 75 11 32 0;
#X connect 75 12 30 0;
#X connect 76 0 90 2;
#X connect 76 1 90 3;
#X connect 77 0 90 5;
#X connect 77 1 90 6;
#X connect 78 0 90 7;
#X connect 78 1 90 8;
#X connect 80 0 88 0;
#X connect 82 0 83 0;
#X connect 83 0 80 0;
#X connect 84 0 87 0;
#X connect 85 0 84 0;
#X connect 86 0 84 0;
#X connect 87 0 7 0;
#X connect 87 0 90 1;
#X connect 87 1 9 0;
#X connect 87 1 76 1;
#X connect 87 2 11 0;
#X connect 87 2 76 2;
#X connect 87 3 13 0;
#X connect 87 3 90 4;
#X connect 87 4 54 0;
#X connect 87 4 77 1;
#X connect 87 5 56 0;
#X connect 87 5 77 2;
#X connect 87 6 58 0;
#X connect 87 6 78 1;
#X connect 87 7 73 0;
#X connect 87 7 78 2;
#X connect 87 8 60 0;
#X connect 87 8 90 9;
#X connect 88 0 89 0;
#X connect 89 0 76 0;
#X connect 89 0 78 0;
#X connect 89 1 77 0;
#X connect 90 0 75 0;
#X connect 90 1 75 1;
#X connect 90 2 75 2;
#X connect 90 3 75 3;
#X connect 90 4 75 4;
#X connect 90 5 75 5;
#X connect 90 6 75 6;
#X connect 90 7 75 7;
#X connect 90 8 75 8;
#X connect 90 9 75 9;
#X connect 90 10 75 10;
#X connect 90 11 75 11;
#X connect 90 12 75 12;
#X connect 91 0 94 1;
#X connect 92 0 97 0;
#X connect 93 0 92 0;
#X connect 94 0 99 0;
#X connect 95 0 97 0;
#X connect 96 0 53 0;
#X connect 96 1 94 0;
#X connect 96 2 52 0;
#X connect 96 3 93 0;
#X connect 96 4 50 0;
#X connect 96 5 95 0;
#X connect 96 6 91 0;
#X connect 97 0 49 0;
#X connect 99 0 97 0;
