#N canvas 0 0 450 300 10;
#X obj 101 101 cnv 15 163 68 empty empty compensation 0 7 0 14 -233017
-66577 0;
#X obj 103 115 bng 30 250 50 0 \$0-load \$0-load load 35 15 0 10 -24198
-1 -1;
#X obj 213 125 tgl 30 0 \$0-on \$0-on ON 7 -7 0 10 -262144 -1 -1 0
1;
#N canvas 1011 458 909 371 compensation 1;
#X obj 306 16 loadbang;
#X obj 143 170 sendreceive /OUT/MASTER/COMPENSATION/ON;
#X obj 138 237 sendreceive /OUT/MASTER/COMPENSATION/FILE;
#X obj 138 216 openpanel;
#X obj 143 150 route float;
#X obj 143 128 r \$0-on;
#X obj 306 58 s \$0-on;
#X msg 306 36 set 1;
#X obj 138 195 r \$0-load;
#X connect 0 0 7 0;
#X connect 3 0 2 0;
#X connect 4 0 1 0;
#X connect 5 0 4 0;
#X connect 7 0 6 0;
#X connect 8 0 3 0;
#X restore 106 187 pd compensation;
#X coords 0 -1 1 1 165 70 1 100 100;
