#N canvas 0 0 1151 940 10;
#X obj 6 -35 inchan 1;
#X obj 77 -35 inchan 2;
#X obj 148 -35 inchan 3;
#X obj 219 -35 inchan 4;
#X obj 290 -35 inchan 5;
#X obj 361 -35 inchan 6;
#X obj 432 -35 inchan 7;
#X obj 503 -35 inchan 8;
#X obj 574 -35 inchan 9;
#X obj 645 -35 inchan 10;
#X obj 716 -35 inchan 11;
#X obj 787 -35 inchan 12;
#X obj 858 -35 inchan 13;
#X obj 929 -35 inchan 14;
#X obj 1000 -35 inchan 15;
#X obj 1071 -35 inchan 16;
#X obj 8 427 inchannel;
#X obj 574 611 OUT/ambi;
#X obj 704 611 OUT/main;
#X obj 1012 671 bng 15 250 50 0 empty empty popup_init 20 7 0 10 -241291
-1 -1;
#N canvas 0 0 909 371 net 0;
#X obj 108 169 NET/GUInet;
#X obj 118 20 inlet;
#X obj 118 137 s GUInet_init;
#X obj 204 252 s GUI_dspNames;
#X text 55 224 as soon as we have a working 2-side connection \, we
query the DSP-names;
#X obj 234 126 inlet;
#X obj 173 308 s GUI_NET_initialized;
#X obj 173 196 t b b;
#X obj 484 213 sendreceive DSP_setLabel;
#X obj 484 189 sendreceive DSP_getLabels;
#X msg 484 163 IN;
#X msg 511 163 AUX;
#X obj 484 79 r GUI_dspNames;
#X obj 306 16 loadbang;
#X obj 306 63 del 10000;
#X obj 306 84 spigot;
#X obj 306 37 t b b;
#X msg 378 61 1;
#X obj 118 91 t b b;
#X msg 148 111 0;
#X msg 541 163 PLUGIN;
#X obj 531 111 del 100;
#X obj 484 111 t b b;
#X obj 531 134 t b b;
#X obj 573 134 del 100;
#X connect 0 1 7 0;
#X connect 1 0 18 0;
#X connect 5 0 3 0;
#X connect 7 0 6 0;
#X connect 7 1 3 0;
#X connect 10 0 9 0;
#X connect 11 0 9 0;
#X connect 12 0 22 0;
#X connect 13 0 16 0;
#X connect 14 0 15 0;
#X connect 15 0 18 0;
#X connect 16 0 14 0;
#X connect 16 1 17 0;
#X connect 17 0 15 1;
#X connect 18 0 2 0;
#X connect 18 1 19 0;
#X connect 19 0 15 1;
#X connect 20 0 9 0;
#X connect 21 0 23 0;
#X connect 22 0 10 0;
#X connect 22 1 21 0;
#X connect 23 0 11 0;
#X connect 23 1 24 0;
#X connect 24 0 20 0;
#X restore 963 670 pd net;
#X obj 963 638 bng 30 250 50 0 empty empty NET_init 35 7 0 10 -24198
-1 -1;
#X obj 574 428 OUT/BUS/12;
#X obj 926 761 cue PARAMETERS;
#X obj 926 702 cue SETTINGS;
#X obj 639 611 OUT/LFC;
#X obj 574 813 SIMPLEREV/GUI;
#X obj 672 813 TMREV/GUI;
#X obj 761 813 sfplayer 8;
#X connect 19 0 20 1;
#X connect 21 0 20 0;
