#N canvas 987 81 70 462 10;
#X obj 2 15 cnv 15 64 463 empty empty empty 20 12 0 14 -261681 -66577
0;
#X obj 4 18 cnv 15 62 282 \$0GOIinchan_select empty empty 20 12 0 14
-260818 -66577 0;
#X obj 51 379 tgl 15 0 \$0GUIinchan_mute_fromgui \$0GUIinchan_mute_togui
M 5 8 0 8 -262144 -1 -1 1 1;
#X obj 51 409 tgl 15 0 \$0GUIinchan_solo_fromgui \$0GUIinchan_solo_togui
S 5 8 0 8 -262144 -1 -1 0 1;
#X obj 4 51 nbx 3 14 -100 50 0 0 \$0GUIinchan_aux1_gain_fromgui \$0GUIinchan_aux1_gain_togui
aux1 0 -4 0 8 -262144 -1 -1 -100 256;
#X obj 0 367 cnv 2 35 2 empty empty empty 20 12 0 14 -1 -66577 0;
#X obj 4 323 vsl 30 131 0 130 0 0 \$0GUIinchan_fader \$0GUIinchan_fader
0 1 140 0 8 -262144 -1 -1 0 1;
#N canvas 0 0 450 300 1004-pd 0;
#X obj 0 0 inchan/S0;
#X coords 0 0 1 1 66 100 1;
#X restore 1 219 pd \$0-pd;
#X obj 38 321 cnv 29 1 1 empty empty empty 20 12 0 14 -1 -66577 0;
#X obj 39 322 cnv 27 27 27 empty \$0GUIinchan_level empty 20 12 0 14
-261681 -66577 0;
#X obj 2 181 cnv 15 63 36 empty empty empty 25 12 0 8 -228992 -66577
0;
#X obj 3 185 tgl 15 0 \$0GUIinchan_plugin1_tgl_fromgui \$0GUIinchan_plugin1_tgl_togui
plugin1 20 7 0 8 -262144 -1 -1 0 1;
#X obj 3 202 tgl 15 0 \$0GUIinchan_plugin2_select_fromgui \$0GUIinchan_plugin2_select_togui
plugin2 20 7 0 8 -262144 -1 -1 0 1;
#X obj 39 352 vsl 8 101 0 100 0 0 \$0GUIinchan_subfader_fromgui \$0GUIinchan_subfader_togui
empty 0 -8 0 8 -262144 -1 -1 0 1;
#X obj 13 22 hradio 15 1 0 3 \$0GUIinchan_select \$0GUIinchan_select
empty 0 -6 0 8 -262144 -1 -1 0;
#X obj 10 22 cnv 15 50 15 empty \$0GUIinchan_inputselectname input
3 6 0 12 -225271 -66577 0;
#X obj 36 51 nbx 3 14 -100 50 0 0 \$0GUIinchan_aux2_gain_fromgui \$0GUIinchan_aux2_gain_togui
aux2 0 -4 0 8 -262144 -1 -1 -100 256;
#X obj 36 74 nbx 3 14 -100 50 0 0 \$0GUIinchan_aux4_gain_fromgui \$0GUIinchan_aux4_gain_togui
aux4 0 -4 0 8 -262144 -1 -1 -100 256;
#X obj 4 74 nbx 3 14 -100 50 0 0 \$0GUIinchan_aux3_gain_fromgui \$0GUIinchan_aux3_gain_togui
aux3 0 -4 0 8 -262144 -1 -1 -100 256;
#X obj 1 2 inchan/code \$0 \$1;
#X obj 3 90 cnv 20 64 88 empty empty EQ 40 8 0 12 -233017 -66577 0
;
#N canvas 500 0 450 300 code 0;
#X obj 108 203 outlet;
#X obj 107 52 inlet;
#X obj 106 93 select 0 1;
#X msg 104 123 31;
#X msg 136 122 -1;
#X text 119 18 change the FRONT-color of the nbx's;
#X msg 109 169 color 0 \$1 \$1;
#X obj 110 73 f;
#X connect 1 0 7 0;
#X connect 2 0 3 0;
#X connect 2 1 4 0;
#X connect 3 0 6 0;
#X connect 4 0 6 0;
#X connect 6 0 0 0;
#X connect 7 0 2 0;
#X restore 10 91 pd code;
#X obj 47 158 tgl 15 0 \$0GUIinchan_eq_lowcut_tgl_fromgui \$0GUIinchan_eq_lowcut_tgl_togui
L 6 8 0 8 -262144 -166441 -166441 0 1;
#X obj 47 113 tgl 15 0 \$0GUIinchan_eq_hicut_tgl_fromgui \$0GUIinchan_eq_hicut_tgl_togui
H 6 8 0 8 -262144 -166441 -166441 0 1;
#X obj 3 158 nbx 3 12 -100 20 0 0 \$0GUIinchan_eq_low_gain_fromgui
\$0GUIinchan_eq_low_gain_togui empty 0 -6 0 8 -262144 -166441 -166441
0 256;
#X obj 3 144 nbx 3 12 -100 20 0 0 \$0GUIinchan_eq_mid2_gain_fromgui
\$0GUIinchan_eq_mid2_gain_togui empty 0 -6 0 8 -262144 -166441 -166441
0 256;
#X obj 34 144 nbx 4 12 100 9999 1 0 \$0GUIinchan_eq_mid2_freq_fromgui
\$0GUIinchan_eq_mid2_freq_togui empty 0 -6 0 8 -262144 -166441 -166441
100 256;
#X obj 3 130 nbx 3 12 -100 20 0 0 \$0GUIinchan_eq_mid1_gain_fromgui
\$0GUIinchan_eq_mid1_gain_togui empty 0 -6 0 8 -262144 -166441 -166441
0 256;
#X obj 3 116 nbx 3 12 -100 20 0 0 \$0GUIinchan_eq_hi_gain_fromgui \$0GUIinchan_eq_hi_gain_togui
empty 0 -6 0 8 -262144 -166441 -166441 0 256;
#X obj 34 130 nbx 4 12 100 9999 1 0 \$0GUIinchan_eq_mid1_freq_fromgui
\$0GUIinchan_eq_mid1_freq_togui empty 0 -6 0 8 -262144 -166441 -166441
100 256;
#X obj 8 92 tgl 20 0 \$0GUIinchan_eq_tgl_fromgui \$0GUIinchan_eq_tgl_togui
empty 0 -6 0 8 -262144 -1 -1 0 1;
#X connect 21 0 24 0;
#X connect 21 0 25 0;
#X connect 21 0 27 0;
#X connect 21 0 28 0;
#X connect 21 0 26 0;
#X connect 21 0 29 0;
#X connect 21 0 22 0;
#X connect 21 0 23 0;
#X connect 30 0 21 0;
#X coords 0 0 1 1 66 480 1;
