#N canvas 308 198 70 462 10;
#X obj 2 1 cnv 10 67 478 empty empty empty 5 12 0 14 -195568 -66577
0;
#X obj 4 46 nbx 3 14 -100 50 0 0 \$0GUIinchan_aux1_gain_fromgui \$0GUIinchan_aux1_gain_togui
aux1 0 -4 0 8 -228992 -1 -1 -100 256;
#X obj 0 367 cnv 2 35 2 empty empty empty 20 12 0 14 -1 -66577 0;
#X obj 4 323 vsl 30 131 0 130 0 0 \$0GUIinchan_fader \$0GUIinchan_fader
0 1 140 0 8 -228992 -1 -1 0 1;
#N canvas 0 0 450 300 5474-pd 0;
#X obj 0 0 inchan/S0;
#X coords 0 0 1 1 66 100 1;
#X restore 1 219 pd \$0-pd;
#X obj 39 344 vsl 8 109 0 108 0 0 \$0GUIinchan_subfader_fromgui \$0GUIinchan_subfader_togui
empty 0 -8 0 8 -245568 -1 -1 0 1;
#X obj 13 1 hradio 15 1 0 3 \$0GUIinchan_select \$0GUIinchan_select
empty 0 -6 0 8 -262144 -1 -1 0;
#X obj 36 46 nbx 3 14 -100 50 0 0 \$0GUIinchan_aux2_gain_fromgui \$0GUIinchan_aux2_gain_togui
aux2 0 -4 0 8 -228992 -1 -1 -100 256;
#X obj 36 69 nbx 3 14 -100 50 0 0 \$0GUIinchan_aux4_gain_fromgui \$0GUIinchan_aux4_gain_togui
aux4 0 -4 0 8 -228992 -1 -1 -100 256;
#X obj 4 69 nbx 3 14 -100 50 0 0 \$0GUIinchan_aux3_gain_fromgui \$0GUIinchan_aux3_gain_togui
aux3 0 -4 0 8 -228992 -1 -1 -100 256;
#X obj 3 90 cnv 20 64 88 empty empty EQ 40 8 0 12 -233017 -66577 0
;
#N canvas 500 0 450 300 code 0;
#X obj 108 253 outlet;
#X obj 107 52 inlet;
#X obj 106 93 select 0 1;
#X msg 104 123 31;
#X msg 136 122 -1;
#X text 179 18 change the FRONT-color of the nbx's;
#X obj 110 73 f;
#X obj 224 255 outlet;
#X msg 109 219 color \$2 \$1 \$1;
#X obj 107 192 pack 0 0;
#X obj 189 140 colorschemes/gain;
#X obj 277 185 colorschemes/freq;
#X obj 207 112 t b b;
#X msg 223 235 color \$2 \$1 \$1;
#X obj 225 212 pack 0 0;
#X msg 207 78 bang;
#X obj 245 78 loadbang;
#X obj 458 262 outlet;
#X msg 457 241 color \$2 \$1 \$1;
#X obj 459 218 pack 0 0;
#X obj 108 167 t f f f;
#X connect 1 0 6 0;
#X connect 2 0 3 0;
#X connect 2 1 4 0;
#X connect 3 0 20 0;
#X connect 4 0 20 0;
#X connect 6 0 2 0;
#X connect 8 0 0 0;
#X connect 9 0 8 0;
#X connect 10 0 9 1;
#X connect 11 0 14 1;
#X connect 12 0 10 0;
#X connect 12 1 11 0;
#X connect 13 0 7 0;
#X connect 14 0 13 0;
#X connect 15 0 12 0;
#X connect 16 0 12 0;
#X connect 18 0 17 0;
#X connect 19 0 18 0;
#X connect 20 0 9 0;
#X connect 20 1 14 0;
#X connect 20 2 19 0;
#X restore 10 91 pd code;
#X obj 47 158 tgl 15 0 \$0GUIinchan_eq_lowcut_tgl_fromgui \$0GUIinchan_eq_lowcut_tgl_togui
L 6 8 0 8 -262144 -166441 -166441 0 1;
#X obj 47 113 tgl 15 0 \$0GUIinchan_eq_hicut_tgl_fromgui \$0GUIinchan_eq_hicut_tgl_togui
H 6 8 0 8 -262144 -166441 -166441 0 1;
#X obj 3 158 nbx 3 12 -100 20 0 0 \$0GUIinchan_eq_low_gain_fromgui
\$0GUIinchan_eq_low_gain_togui empty 0 -6 0 8 -228992 -166441 -166441
0 256;
#X obj 3 144 nbx 3 12 -100 20 0 0 \$0GUIinchan_eq_mid2_gain_fromgui
\$0GUIinchan_eq_mid2_gain_togui empty 0 -6 0 8 -228992 -166441 -166441
0 256;
#X obj 34 144 nbx 4 12 100 9999 1 0 \$0GUIinchan_eq_mid2_freq_fromgui
\$0GUIinchan_eq_mid2_freq_togui empty 0 -6 0 8 -187584 -166441 -166441
100 256;
#X obj 3 130 nbx 3 12 -100 20 0 0 \$0GUIinchan_eq_mid1_gain_fromgui
\$0GUIinchan_eq_mid1_gain_togui empty 0 -6 0 8 -228992 -166441 -166441
0 256;
#X obj 3 116 nbx 3 12 -100 20 0 0 \$0GUIinchan_eq_hi_gain_fromgui \$0GUIinchan_eq_hi_gain_togui
empty 0 -6 0 8 -228992 -166441 -166441 0 256;
#X obj 34 130 nbx 4 12 100 9999 1 0 \$0GUIinchan_eq_mid1_freq_fromgui
\$0GUIinchan_eq_mid1_freq_togui empty 0 -6 0 8 -187584 -166441 -166441
100 256;
#X obj 8 92 tgl 20 0 \$0GUIinchan_eq_tgl_fromgui \$0GUIinchan_eq_tgl_togui
empty 0 -6 0 8 -262144 -1 -1 0 1;
#X obj 2 1 cnv 15 67 15 empty \$0GUIinchan_name ch:-- 3 9 0 14 -83187
-195568 0;
#X obj 2 19 cnv 15 67 15 empty \$0GUIinchan_inputselectname empty 15
8 0 8 -233017 -66577 0;
#X obj 1 28 inchan/code \$0 \$1;
#X obj 2 179 cnv 15 67 35 empty empty empty 20 12 0 14 -212212 -66577
0;
#X obj 3 180 tgl 15 0 \$0GUIinchan_plugin1_tgl_fromgui \$0GUIinchan_plugin1_tgl_togui
plugin1 20 7 0 8 -262144 -1 -1 0 1;
#X obj 3 197 tgl 15 0 \$0GUIinchan_plugin2_tgl_fromgui \$0GUIinchan_plugin2_tgl_togui
plugin2 20 7 0 8 -262144 -1 -1 0 1;
#X obj 42 321 cnv 19 19 19 empty empty empty 20 12 0 14 -66577 -66577
0;
#X obj 44 323 cnv 15 15 15 empty \$0GUIinchan_level empty 20 12 0 14
-66577 -1 0;
#X obj 50 378 cnv 15 15 15 empty empty empty 20 12 0 14 -258699 -1
0;
#X obj 52 380 tgl 11 0 \$0GUIinchan_mute_fromgui \$0GUIinchan_mute_togui
M 2 5 0 10 -258699 -258699 -1 -1 -1;
#X obj 50 408 cnv 15 15 15 empty empty empty 20 12 0 14 -24198 -1 0
;
#X obj 52 410 tgl 11 0 \$0GUIinchan_solo_fromgui \$0GUIinchan_solo_togui
S 2 5 0 10 -262144 -262144 -1 0 1;
#X connect 11 0 14 0;
#X connect 11 0 15 0;
#X connect 11 0 17 0;
#X connect 11 0 18 0;
#X connect 11 1 19 0;
#X connect 11 1 16 0;
#X connect 11 2 13 0;
#X connect 11 2 12 0;
#X connect 20 0 11 0;
#X coords 0 0 1 1 66 480 1;
