#N canvas 0 0 450 300 10;
#X obj 101 101 cnv 15 88 68 empty empty NET 0 7 0 14 -233017 -66577
0;
#X obj 103 152 bng 15 250 50 0 empty empty popup_init 20 7 0 10 -241291
-1 -1;
#N canvas 0 0 909 371 net 0;
#X obj 108 169 NET/GUInet;
#X obj 118 20 inlet;
#X obj 118 137 s GUInet_init;
#X obj 204 252 s GUI_dspNames;
#X text 55 224 as soon as we have a working 2-side connection \, we
query the DSP-names;
#X obj 234 126 inlet;
#X obj 173 308 s GUI_NET_initialized;
#X obj 173 196 t b b;
#X obj 484 233 sendreceive DSP_setLabel;
#X obj 484 209 sendreceive DSP_getLabels;
#X msg 484 183 IN;
#X msg 511 183 AUX;
#X obj 484 79 r GUI_dspNames;
#X obj 306 16 loadbang;
#X obj 306 63 del 10000;
#X obj 306 84 spigot;
#X obj 306 37 t b b;
#X msg 378 61 1;
#X obj 118 91 t b b;
#X msg 148 111 0;
#X msg 541 183 PLUGIN;
#X obj 531 111 del 100;
#X obj 484 111 t b b;
#X obj 531 134 t b b;
#X obj 573 134 del 100;
#X obj 573 155 t b b;
#X obj 615 155 del 100;
#X msg 593 183 OUT;
#X connect 0 1 7 0;
#X connect 1 0 18 0;
#X connect 5 0 3 0;
#X connect 7 0 6 0;
#X connect 7 1 3 0;
#X connect 10 0 9 0;
#X connect 11 0 9 0;
#X connect 12 0 22 0;
#X connect 13 0 16 0;
#X connect 14 0 15 0;
#X connect 15 0 18 0;
#X connect 16 0 14 0;
#X connect 16 1 17 0;
#X connect 17 0 15 1;
#X connect 18 0 2 0;
#X connect 18 1 19 0;
#X connect 19 0 15 1;
#X connect 20 0 9 0;
#X connect 21 0 23 0;
#X connect 22 0 10 0;
#X connect 22 1 21 0;
#X connect 23 0 11 0;
#X connect 23 1 24 0;
#X connect 24 0 25 0;
#X connect 25 0 20 0;
#X connect 25 1 26 0;
#X connect 26 0 27 0;
#X connect 27 0 9 0;
#X restore 106 187 pd net;
#X obj 103 115 bng 30 250 50 0 empty empty INIT 35 15 0 10 -24198 -1
-1;
#X connect 1 0 2 1;
#X connect 3 0 2 0;
#X coords 0 -1 1 1 90 70 1 100 100;
