#N canvas 1537 314 601 439 10;
#X obj 101 101 cnv 15 83 88 empty empty SYSTEM 10 12 0 14 -233017 -66577
0;
#X obj 154 121 bng 15 250 50 0 \$0_open \$0_open open -40 7 0 12 -62784
-1 -1;
#X text 99 64 system-settings go in here;
#X obj 230 135 r \$0_open;
#X obj 230 159 f \$0;
#X msg 230 213 \; \$1 vis 1;
#N canvas 2059 256 406 239 6550-system-settings 1;
#X obj 222 109 extensions/TESTTONE/GUI;
#X obj 162 23 cue PARAMETERS;
#X obj 33 23 cue SETTINGS;
#X obj 300 21 GUI/net;
#X obj 32 85 SFPLAYER8/GUI 8;
#X restore 242 99 pd \$0-system-settings;
#X obj 230 185 makefilename pd-%d-system-settings;
#X obj 105 147 tgl 15 0 empty empty really 20 7 0 12 -258699 -1 -1
0 1;
#X obj 166 163 bng 15 250 50 0 empty empty quit -30 7 0 12 -258699
-1 -1;
#X obj 142 254 sendreceive DSP_REALLY_QUIT;
#X obj 112 337 sendreceive DSP_DO_QUIT;
#X obj 88 255 spigot;
#X obj 89 287 t b b b;
#X obj 55 336 del 700;
#X msg 55 362 \; pd quit;
#X msg 202 285 GUI exiting...;
#X obj 204 307 print PD;
#X obj 169 380 s GUI_DO_REALLY_QUIT;
#X text 172 361 other components have 700ms to save their work;
#X obj 24 134 t b;
#X msg 25 184 0;
#X obj 23 156 del 2000;
#X connect 3 0 4 0;
#X connect 4 0 7 0;
#X connect 7 0 5 0;
#X connect 8 0 12 1;
#X connect 8 0 10 0;
#X connect 8 0 20 0;
#X connect 9 0 12 0;
#X connect 12 0 13 0;
#X connect 13 0 11 0;
#X connect 13 0 14 0;
#X connect 13 1 18 0;
#X connect 13 2 16 0;
#X connect 14 0 15 0;
#X connect 16 0 17 0;
#X connect 20 0 22 0;
#X connect 21 0 8 0;
#X connect 22 0 21 0;
#X coords 0 -1 1 1 85 90 1 100 100;
