#N canvas 423 314 601 439 10;
#X obj 101 101 cnv 15 70 88 empty empty SYSTEM 3 12 0 14 -195568 -66577
0;
#X obj 153 122 bng 15 250 50 0 \$0_open \$0_open open -40 7 0 12 -62784
-1 -1;
#X text 99 64 system-settings go in here;
#X obj 230 135 r \$0_open;
#X obj 230 159 f \$0;
#X msg 230 213 \; \$1 vis 1;
#N canvas 224 180 315 379 6207-system-settings 0;
#X obj 23 142 extensions/TESTTONE/GUI;
#X obj 23 212 GUI/net;
#X obj 23 17 CUEstorage;
#X restore 242 99 pd \$0-system-settings;
#X obj 230 185 makefilename pd-%d-system-settings;
#X obj 102 147 tgl 15 0 \$0-really \$0-really really 16 7 0 12 -258699
-1 -1 0 1;
#X obj 153 163 bng 15 250 50 0 \$0-quit \$0-quit quit -37 7 0 12 -258699
-1 -1;
#X obj 142 254 sendreceive DSP_REALLY_QUIT;
#X obj 112 337 sendreceive DSP_DO_QUIT;
#X obj 88 255 spigot;
#X obj 89 287 t b b b;
#X obj 55 336 del 700;
#X msg 55 362 \; pd quit;
#X msg 202 285 GUI exiting...;
#X obj 204 307 print PD;
#X obj 169 380 s GUI_DO_REALLY_QUIT;
#X text 172 361 other components have 700ms to save their work;
#X obj 24 134 t b;
#X msg 25 184 0;
#X obj 23 156 del 2000;
#X connect 3 0 4 0;
#X connect 4 0 7 0;
#X connect 7 0 5 0;
#X connect 8 0 12 1;
#X connect 8 0 10 0;
#X connect 8 0 20 0;
#X connect 9 0 12 0;
#X connect 12 0 13 0;
#X connect 13 0 11 0;
#X connect 13 0 14 0;
#X connect 13 1 18 0;
#X connect 13 2 16 0;
#X connect 14 0 15 0;
#X connect 16 0 17 0;
#X connect 20 0 22 0;
#X connect 21 0 8 0;
#X connect 22 0 21 0;
#X coords 0 -1 1 1 72 90 1 100 100;
