#N canvas 75 -14 1148 894 10;
#X obj 4 5 inchan 1;
#X obj 75 5 inchan 2;
#X obj 146 5 inchan 3;
#X obj 217 5 inchan 4;
#X obj 288 5 inchan 5;
#X obj 359 5 inchan 6;
#X obj 430 5 inchan 7;
#X obj 501 5 inchan 8;
#X obj 572 5 inchan 9;
#X obj 643 5 inchan 10;
#X obj 714 5 inchan 11;
#X obj 785 5 inchan 12;
#X obj 856 5 inchan 13;
#X obj 927 5 inchan 14;
#X obj 998 5 inchan 15;
#X obj 1069 5 inchan 16;
#X obj 4 487 inchannel;
#X obj 573 684 OUT/ambi;
#X obj 645 684 OUT/LFC;
#X obj 717 684 OUT/main;
#X obj 970 864 s GUI_dspNames;
#X obj 970 846 bng 15 250 50 0 empty empty empty 0 -6 0 8 -262144 -1
-1;
#X obj 976 756 s BUS_ROUTE;
#X msg 976 691 bang;
#X obj 976 713 mtx_rand 52 16;
#X obj 976 734 mtx_* 127;
#N canvas 0 0 450 300 net 0;
#X obj 108 99 NET/GUInet;
#X restore 1046 802 pd net;
#X obj 972 807 bng 15 250 50 0 empty empty empty 0 -6 0 8 -262144 -1
-1;
#X obj 972 825 s GUInet_init;
#X obj 571 496 OUT/BUS/12;
#X connect 21 0 20 0;
#X connect 23 0 24 0;
#X connect 24 0 25 0;
#X connect 25 0 22 0;
#X connect 27 0 28 0;
