#N canvas 0 3 1106 715 10;
#N canvas 0 0 450 300 layout 0;
#X text 52 16 (66+2)x480;
#X text 40 101 8inchannels;
#X text 125 101 8inchannels;
#X text 39 86 8inchannels;
#X text 126 85 INselected;
#X text 46 147 inchannel: 66*480;
#X text 46 171 INselected: 544*480;
#X restore 29 10 pd layout;
#X obj 926 409 dsp;
#X floatatom 920 439 5 0 0 0 - - -;
#X floatatom 960 427 5 0 0 0 - - -;
#X floatatom 27 67 5 0 0 0 - - -;
#X obj 925 377 s fakepopup;
#X msg 925 357 bang;
#X obj 217 195 inchannel;
#X obj 916 278 r 1004GUI_input_mute_togui;
#X obj 4 195 inchan 1;
#X obj 75 195 inchan 2;
#X obj 146 195 inchan 3;
#X obj 764 195 inchan 4;
#X obj 835 195 inchan 5;
#X obj 353 3 OUT/BUS/16;
#X obj 952 560 s dummy;
#X floatatom 954 505 5 0 0 0 - - -;
#X msg 955 534 pos 10 \$1 86;
#X obj 907 3 OUT/ambi;
#X floatatom 157 92 5 0 0 0 - - -;
#X obj 979 3 OUT/LFC;
#X obj 158 71 r OUT_AMBI_GAIN;
#X obj 28 46 r 1_OUT_LFC_GAIN;
#X floatatom 32 107 5 0 0 0 - - -;
#X obj 33 86 r 1_OUT_BUS_GAIN;
#X connect 1 0 2 0;
#X connect 1 1 3 0;
#X connect 6 0 5 0;
#X connect 16 0 17 0;
#X connect 17 0 15 0;
#X connect 21 0 19 0;
#X connect 22 0 4 0;
#X connect 24 0 23 0;
