#N canvas 38 129 1211 765 10;
#N canvas 0 0 450 300 layout 0;
#X text 52 16 (66+2)x480;
#X text 40 101 8inchannels;
#X text 125 101 8inchannels;
#X text 39 86 8inchannels;
#X text 126 85 INselected;
#X text 46 147 inchannel: 66*480;
#X text 46 171 INselected: 544*480;
#X restore 948 163 pd layout;
#X obj 926 409 dsp;
#X floatatom 920 439 5 0 0 0 - - -;
#X floatatom 960 427 5 0 0 0 - - -;
#X obj 216 17 inchannel;
#X obj 916 278 r 1004GUI_input_mute_togui;
#X obj 3 17 inchan 1;
#X obj 74 17 inchan 2;
#X obj 145 17 inchan 3;
#X obj 763 17 inchan 4;
#X obj 834 17 inchan 5;
#X obj 941 255 s dummy;
#X floatatom 943 200 5 0 0 0 - - -;
#X msg 944 229 pos 10 \$1 86;
#N canvas 320 294 910 497 fakepopup 0;
#X obj 254 92 s GUI_dspNames;
#X obj 254 56 inlet;
#X obj 252 247 sendreceive DSP_setLabel;
#X obj 252 223 sendreceive DSP_getLabels;
#X msg 252 197 IN;
#X msg 287 198 AUX;
#X obj 252 113 r GUI_dspNames;
#X obj 252 145 t b b;
#X obj 623 204 s DSP_setLabel;
#X msg 623 173 IN \$1;
#X obj 623 148 symbol;
#X obj 245 282 print;
#X msg 694 174 IN bang;
#X msg 621 120 reset \, 1_ADC \, 2_ADC \, 3_ADC \, 4_ADC;
#X obj 635 86 t b b;
#X connect 1 0 14 0;
#X connect 2 0 11 0;
#X connect 4 0 3 0;
#X connect 5 0 3 0;
#X connect 6 0 7 0;
#X connect 7 0 4 0;
#X connect 7 1 5 0;
#X connect 9 0 8 0;
#X connect 10 0 9 0;
#X connect 12 0 8 0;
#X connect 13 0 10 0;
#X connect 14 0 12 0;
#X connect 14 1 13 0;
#X restore 1025 386 pd fakepopup;
#X msg 1028 355 bang;
#X obj 1029 414 r 1_IN_SRC;
#X symbolatom 1036 445 10 0 0 0 - - -;
#X obj 1027 524 s 1_IN_SRC;
#X symbolatom 1027 496 10 0 0 0 - - -;
#X obj 1028 471 print;
#X connect 1 0 2 0;
#X connect 1 1 3 0;
#X connect 12 0 13 0;
#X connect 13 0 11 0;
#X connect 15 0 14 0;
#X connect 16 0 17 0;
#X connect 16 0 20 0;
#X connect 19 0 18 0;
