#N canvas 75 0 1148 898 10;
#X obj 4 -4 inchan 1;
#X obj 75 -4 inchan 2;
#X obj 146 -4 inchan 3;
#X obj 217 -4 inchan 4;
#X obj 288 -4 inchan 5;
#X obj 359 -4 inchan 6;
#X obj 430 -4 inchan 7;
#X obj 501 -4 inchan 8;
#X obj 572 -4 inchan 9;
#X obj 643 -4 inchan 10;
#X obj 714 -4 inchan 11;
#X obj 785 -4 inchan 12;
#X obj 856 -4 inchan 13;
#X obj 927 -4 inchan 14;
#X obj 998 -4 inchan 15;
#X obj 1069 -4 inchan 16;
#X obj 4 458 inchannel;
#X obj 573 655 OUT/ambi;
#X obj 645 655 OUT/LFC;
#X obj 717 655 OUT/main;
#X obj 1010 702 bng 15 250 50 0 empty empty popup_init 20 7 0 10 -241291
-1 -1;
#N canvas 0 0 450 300 net 0;
#X obj 108 99 NET/GUInet;
#X obj 118 20 inlet;
#X obj 118 57 s GUInet_init;
#X obj 173 182 s GUI_dspNames;
#X text 24 154 as soon as we have a working 2-side connection \, we
query the DSP-names;
#X obj 254 56 inlet;
#X connect 0 1 3 0;
#X connect 1 0 2 0;
#X connect 5 0 3 0;
#X restore 961 701 pd net;
#X obj 961 682 bng 15 250 50 0 empty empty NET_init 20 7 0 10 -24198
-1 -1;
#X obj 571 467 OUT/BUS/12;
#X connect 20 0 21 1;
#X connect 22 0 21 0;
