#N canvas 57 0 632 430 10;
#N canvas 0 0 904 391 aux 0;
#X obj 122 28 inlet settings;
#X obj 375 28 inlet params;
#X obj 122 248 outlet settings;
#X obj 375 248 outlet params;
#X obj 175 99 CUE/aux \$1_IN_AUX_1;
#X obj 175 119 CUE/aux \$1_IN_AUX_2;
#X obj 175 139 CUE/aux \$1_IN_AUX_3;
#X obj 175 159 CUE/aux \$1_IN_AUX_4;
#X connect 0 0 4 0;
#X connect 0 0 5 0;
#X connect 0 0 6 0;
#X connect 0 0 7 0;
#X connect 1 0 4 1;
#X connect 1 0 5 1;
#X connect 1 0 6 1;
#X connect 1 0 7 1;
#X connect 4 0 2 0;
#X connect 4 1 3 0;
#X connect 5 0 2 0;
#X connect 5 1 3 0;
#X connect 6 0 2 0;
#X connect 6 1 3 0;
#X connect 7 0 2 0;
#X connect 7 1 3 0;
#X restore 291 174 pd aux;
#X obj 122 21 inlet settings;
#X obj 405 28 inlet params;
#X obj 122 333 outlet settings;
#X obj 405 333 outlet params;
#N canvas 0 0 550 508 bus 0;
#X obj 253 78 sr_prepend \$1_IN_BUS_1_GAIN;
#X obj 122 28 inlet params;
#X obj 122 448 outlet params;
#X obj 3 448 outlet settings;
#X obj 14 24 inlet settings;
#X obj 253 98 sr_prepend \$1_IN_BUS_2_GAIN;
#X obj 253 118 sr_prepend \$1_IN_BUS_3_GAIN;
#X obj 253 138 sr_prepend \$1_IN_BUS_4_GAIN;
#X obj 253 158 sr_prepend \$1_IN_BUS_5_GAIN;
#X obj 253 178 sr_prepend \$1_IN_BUS_6_GAIN;
#X obj 253 198 sr_prepend \$1_IN_BUS_7_GAIN;
#X obj 253 218 sr_prepend \$1_IN_BUS_8_GAIN;
#X obj 253 248 sr_prepend \$1_IN_BUS_9_GAIN;
#X obj 253 268 sr_prepend \$1_IN_BUS_10_GAIN;
#X obj 253 288 sr_prepend \$1_IN_BUS_11_GAIN;
#X obj 253 308 sr_prepend \$1_IN_BUS_12_GAIN;
#X obj 253 328 sr_prepend \$1_IN_BUS_13_GAIN;
#X obj 253 348 sr_prepend \$1_IN_BUS_14_GAIN;
#X obj 253 368 sr_prepend \$1_IN_BUS_15_GAIN;
#X obj 253 388 sr_prepend \$1_IN_BUS_16_GAIN;
#X connect 0 0 2 0;
#X connect 1 0 0 0;
#X connect 1 0 5 0;
#X connect 1 0 6 0;
#X connect 1 0 7 0;
#X connect 1 0 8 0;
#X connect 1 0 9 0;
#X connect 1 0 10 0;
#X connect 1 0 11 0;
#X connect 1 0 12 0;
#X connect 1 0 13 0;
#X connect 1 0 14 0;
#X connect 1 0 15 0;
#X connect 1 0 16 0;
#X connect 1 0 17 0;
#X connect 1 0 18 0;
#X connect 1 0 19 0;
#X connect 5 0 2 0;
#X connect 6 0 2 0;
#X connect 7 0 2 0;
#X connect 8 0 2 0;
#X connect 9 0 2 0;
#X connect 10 0 2 0;
#X connect 11 0 2 0;
#X connect 12 0 2 0;
#X connect 13 0 2 0;
#X connect 14 0 2 0;
#X connect 15 0 2 0;
#X connect 16 0 2 0;
#X connect 17 0 2 0;
#X connect 18 0 2 0;
#X connect 19 0 2 0;
#X restore 295 254 pd bus;
#N canvas 0 0 450 300 ambisonic 0;
#X obj 122 28 inlet settings;
#X obj 255 28 inlet params;
#X obj 122 248 outlet settings;
#X obj 255 248 outlet params;
#X obj 150 124 sr_prepend \$1_IN_AMBI_RAD;
#X obj 150 144 sr_prepend \$1_IN_AMBI_ELV;
#X obj 150 164 sr_prepend \$1_IN_AMBI_AZM;
#X connect 1 0 4 0;
#X connect 1 0 5 0;
#X connect 1 0 6 0;
#X connect 4 0 3 0;
#X connect 5 0 3 0;
#X connect 6 0 3 0;
#X restore 276 210 pd ambisonic;
#N canvas 0 0 629 492 EQ 0;
#X obj 22 31 inlet settings;
#X obj 255 28 inlet params;
#X obj 62 447 outlet settings;
#X obj 276 449 outlet params;
#X obj 147 89 sr_prepend \$1_IN_EQ_HIGHCUT_ON;
#X obj 147 109 sr_prepend \$1_IN_EQ_HIGHCUT_FREQ;
#X obj 147 129 sr_prepend \$1_IN_EQ_LOWCUT_ON;
#X obj 147 149 sr_prepend \$1_IN_EQ_LOWCUT_FREQ;
#X obj 147 169 sr_prepend \$1_IN_EQ_ON;
#X obj 147 189 sr_prepend \$1_IN_EQ_LOW_GAIN;
#X obj 147 209 sr_prepend \$1_IN_EQ_LOW_TRANS_FREQ;
#X obj 147 229 sr_prepend \$1_IN_EQ_HIGH_GAIN;
#X obj 147 249 sr_prepend \$1_IN_EQ_HIGH_TRANS_FREQ;
#X obj 147 269 sr_prepend \$1_IN_EQ_MID1_GAIN;
#X obj 147 289 sr_prepend \$1_IN_EQ_MID1_FREQ;
#X obj 147 309 sr_prepend \$1_IN_EQ_MID1_Q;
#X obj 147 329 sr_prepend \$1_IN_EQ_MID1_GAIN;
#X obj 147 349 sr_prepend \$1_IN_EQ_MID1_FREQ;
#X obj 147 369 sr_prepend \$1_IN_EQ_MID1_Q;
#X connect 0 0 4 0;
#X connect 0 0 5 0;
#X connect 0 0 6 0;
#X connect 0 0 7 0;
#X connect 0 0 8 0;
#X connect 0 0 9 0;
#X connect 0 0 10 0;
#X connect 0 0 11 0;
#X connect 0 0 12 0;
#X connect 0 0 13 0;
#X connect 0 0 14 0;
#X connect 0 0 15 0;
#X connect 0 0 16 0;
#X connect 0 0 17 0;
#X connect 0 0 18 0;
#X connect 4 0 2 0;
#X connect 5 0 2 0;
#X connect 6 0 2 0;
#X connect 7 0 2 0;
#X connect 8 0 2 0;
#X connect 9 0 2 0;
#X connect 10 0 2 0;
#X connect 11 0 2 0;
#X connect 12 0 2 0;
#X connect 13 0 2 0;
#X connect 14 0 2 0;
#X connect 15 0 2 0;
#X connect 16 0 2 0;
#X connect 17 0 2 0;
#X connect 18 0 2 0;
#X restore 290 141 pd EQ;
#X obj 122 49 t b b b b b b;
#X obj 405 56 t b b b b b b;
#N canvas 0 0 750 352 misc 0;
#X obj 62 28 inlet settings;
#X obj 255 28 inlet params;
#X obj 50 245 outlet settings;
#X obj 255 248 outlet params;
#X obj 127 91 sr_prepend \$1_IN_SRC;
#X obj 127 113 sr_prepend \$1_IN_ON;
#X obj 120 133 sr_prepend \$1_IN_FADER_GAIN;
#X obj 126 153 sr_prepend \$1_IN_VU_SRC;
#X obj 327 133 sr_prepend \$1_IN_LFC_GAIN;
#X obj 138 203 sr_prepend \$1_IN_SPATIALIZATION;
#X connect 0 0 4 0;
#X connect 0 0 7 0;
#X connect 0 0 9 0;
#X connect 1 0 8 0;
#X connect 1 0 6 0;
#X connect 4 0 2 0;
#X connect 6 0 2 0;
#X connect 7 0 2 0;
#X connect 8 0 3 0;
#X connect 9 0 2 0;
#X restore 283 81 pd misc;
#N canvas 0 0 450 300 IN 0;
#X obj 122 28 inlet settings;
#X obj 255 28 inlet params;
#X obj 122 248 outlet settings;
#X obj 255 248 outlet params;
#X obj 156 99 sr_prepend \$1_IN_ADJ_GAIN;
#X obj 156 119 sr_prepend \$1_IN_INV;
#X obj 156 139 sr_prepend \$1_IN_DEL;
#X connect 0 0 4 0;
#X connect 0 0 5 0;
#X connect 0 0 6 0;
#X connect 4 0 2 0;
#X connect 5 0 2 0;
#X connect 6 0 2 0;
#X restore 294 106 pd IN;
#X connect 0 0 3 0;
#X connect 0 1 4 0;
#X connect 1 0 8 0;
#X connect 2 0 9 0;
#X connect 5 0 3 0;
#X connect 5 1 4 0;
#X connect 6 0 3 0;
#X connect 6 1 4 0;
#X connect 7 0 3 0;
#X connect 7 1 4 0;
#X connect 8 0 10 0;
#X connect 8 1 11 0;
#X connect 8 2 7 0;
#X connect 8 3 0 0;
#X connect 8 4 6 0;
#X connect 8 5 5 0;
#X connect 9 0 10 1;
#X connect 9 1 11 1;
#X connect 9 2 7 1;
#X connect 9 3 0 1;
#X connect 9 4 6 1;
#X connect 9 5 5 1;
#X connect 10 0 3 0;
#X connect 10 1 4 0;
#X connect 11 0 3 0;
#X connect 11 1 4 0;
