#N canvas 213 221 693 485 10;
#X obj 275 219 CUE/lfc 1;
#N canvas 453 111 843 557 inchannels 0;
#X obj 122 21 inlet settings;
#X obj 122 443 outlet settings;
#X obj 512 21 inlet params;
#X obj 512 443 outlet params;
#X obj 192 95 CUE/inchannel 1;
#X obj 192 115 CUE/inchannel 2;
#X obj 192 135 CUE/inchannel 3;
#X obj 192 155 CUE/inchannel 4;
#X obj 192 175 CUE/inchannel 5;
#X obj 192 195 CUE/inchannel 6;
#X obj 192 215 CUE/inchannel 7;
#X obj 192 235 CUE/inchannel 8;
#X obj 322 95 CUE/inchannel 9;
#X obj 322 115 CUE/inchannel 10;
#X obj 322 135 CUE/inchannel 11;
#X obj 322 155 CUE/inchannel 12;
#X obj 322 175 CUE/inchannel 13;
#X obj 322 195 CUE/inchannel 14;
#X obj 322 215 CUE/inchannel 15;
#X obj 322 235 CUE/inchannel 16;
#X connect 0 0 4 0;
#X connect 0 0 5 0;
#X connect 0 0 6 0;
#X connect 0 0 7 0;
#X connect 0 0 8 0;
#X connect 0 0 9 0;
#X connect 0 0 10 0;
#X connect 0 0 11 0;
#X connect 0 0 12 0;
#X connect 0 0 13 0;
#X connect 0 0 14 0;
#X connect 0 0 15 0;
#X connect 0 0 16 0;
#X connect 0 0 17 0;
#X connect 0 0 18 0;
#X connect 0 0 19 0;
#X connect 2 0 4 1;
#X connect 2 0 5 1;
#X connect 2 0 6 1;
#X connect 2 0 7 1;
#X connect 2 0 8 1;
#X connect 2 0 9 1;
#X connect 2 0 10 1;
#X connect 2 0 11 1;
#X connect 2 0 12 1;
#X connect 2 0 13 1;
#X connect 2 0 14 1;
#X connect 2 0 15 1;
#X connect 2 0 16 1;
#X connect 2 0 17 1;
#X connect 2 0 18 1;
#X connect 2 0 19 1;
#X connect 4 0 1 0;
#X connect 4 1 3 0;
#X connect 5 0 1 0;
#X connect 5 1 3 0;
#X connect 6 0 1 0;
#X connect 6 1 3 0;
#X connect 7 0 1 0;
#X connect 7 1 3 0;
#X connect 8 0 1 0;
#X connect 8 1 3 0;
#X connect 9 0 1 0;
#X connect 9 1 3 0;
#X connect 10 0 1 0;
#X connect 10 1 3 0;
#X connect 11 0 1 0;
#X connect 11 1 3 0;
#X connect 12 0 1 0;
#X connect 12 1 3 0;
#X connect 13 0 1 0;
#X connect 13 1 3 0;
#X connect 14 0 1 0;
#X connect 14 1 3 0;
#X connect 15 0 1 0;
#X connect 15 1 3 0;
#X connect 16 0 1 0;
#X connect 16 1 3 0;
#X connect 17 0 1 0;
#X connect 17 1 3 0;
#X connect 18 0 1 0;
#X connect 18 1 3 0;
#X connect 19 0 1 0;
#X connect 19 1 3 0;
#X restore 355 219 pd inchannels;
#X obj 203 218 CUE/lfc 2;
#N canvas 0 0 450 300 misc 0;
#X obj 119 115 receive_prepend DSP_MIX_INTERPOL_TIME;
#X obj 119 135 receive_prepend IN_SOLO;
#X obj 119 165 receive_prepend AMBI_ORDER_WEIGHT;
#X obj 119 185 receive_prepend OUT_AMBI_GAIN;
#X obj 228 34 inlet params;
#X obj 228 219 outlet params;
#X obj 69 217 outlet settings;
#X obj 69 34 inlet settings;
#X connect 0 0 6 0;
#X connect 1 0 6 0;
#X connect 2 0 6 0;
#X connect 3 0 5 0;
#X connect 4 0 3 0;
#X connect 7 0 0 0;
#X connect 7 0 2 0;
#X restore 456 218 pd misc;
#N canvas 111 332 603 416 bus 0;
#X obj 288 28 inlet params;
#X obj 288 334 outlet params;
#X obj 52 241 outlet settings;
#X obj 52 34 inlet settings;
#X obj 334 63 receive_prepend 1_OUT_BUS_GAIN;
#X obj 52 129 CUE/bus BUS_ROUTE 12 26;
#X obj 334 83 receive_prepend 2_OUT_BUS_GAIN;
#X obj 335 103 receive_prepend 3_OUT_BUS_GAIN;
#X obj 334 123 receive_prepend 4_OUT_BUS_GAIN;
#X obj 334 143 receive_prepend 5_OUT_BUS_GAIN;
#X obj 334 163 receive_prepend 6_OUT_BUS_GAIN;
#X obj 334 183 receive_prepend 7_OUT_BUS_GAIN;
#X obj 334 203 receive_prepend 8_OUT_BUS_GAIN;
#X obj 334 223 receive_prepend 9_OUT_BUS_GAIN;
#X obj 334 243 receive_prepend 10_OUT_BUS_GAIN;
#X obj 334 263 receive_prepend 11_OUT_BUS_GAIN;
#X obj 334 283 receive_prepend 12_OUT_BUS_GAIN;
#X connect 0 0 4 0;
#X connect 0 0 6 0;
#X connect 0 0 7 0;
#X connect 0 0 8 0;
#X connect 0 0 9 0;
#X connect 0 0 10 0;
#X connect 0 0 11 0;
#X connect 0 0 12 0;
#X connect 0 0 13 0;
#X connect 0 0 14 0;
#X connect 0 0 15 0;
#X connect 0 0 16 0;
#X connect 0 0 5 1;
#X connect 3 0 5 0;
#X connect 4 0 1 0;
#X connect 5 0 2 0;
#X connect 5 1 1 0;
#X connect 6 0 1 0;
#X connect 7 0 1 0;
#X connect 8 0 1 0;
#X connect 9 0 1 0;
#X connect 10 0 1 0;
#X connect 11 0 1 0;
#X connect 12 0 1 0;
#X connect 13 0 1 0;
#X connect 14 0 1 0;
#X connect 15 0 1 0;
#X connect 16 0 1 0;
#X restore 154 217 pd bus;
#X obj 343 66 inlet parameters;
#X obj 140 64 inlet settings;
#X obj 140 424 outlet settings;
#X obj 343 426 outlet parameters;
#X connect 0 0 7 0;
#X connect 0 1 8 0;
#X connect 1 0 7 0;
#X connect 1 1 8 0;
#X connect 2 0 7 0;
#X connect 2 1 8 0;
#X connect 3 0 7 0;
#X connect 3 1 8 0;
#X connect 4 0 7 0;
#X connect 4 1 8 0;
#X connect 5 0 4 1;
#X connect 5 0 2 1;
#X connect 5 0 0 1;
#X connect 5 0 1 1;
#X connect 5 0 3 1;
#X connect 6 0 4 0;
#X connect 6 0 3 0;
#X connect 6 0 0 0;
#X connect 6 0 2 0;
#X connect 6 0 1 0;
