#N canvas 342 193 460 536 10;
#X obj 81 248 textfile;
#X msg 139 110 clear;
#X msg 81 187 write \$1;
#X obj 100 222 pp add;
#X obj 81 89 t s b b b;
#X obj 81 67 receive_regname \$1_SAVE;
#X obj 100 133 s \$1_GET;
#X obj 100 153 r \$1_SET;
#X msg 110 349 read \$1 \, rewind;
#X obj 80 328 t b s;
#X obj 110 411 textfile;
#X obj 110 437 t a b;
#X obj 140 458 del 1;
#X msg 80 390 bang;
#X obj 80 370 del 10;
#X obj 110 486 sprinkler;
#X text 184 462 distribute load over time!;
#X obj 80 276 receive_regname \$1_LOAD;
#X obj 80 305 symbol;
#X connect 1 0 0 0;
#X connect 2 0 0 0;
#X connect 3 0 0 0;
#X connect 4 0 2 0;
#X connect 4 2 6 0;
#X connect 4 3 1 0;
#X connect 5 0 4 0;
#X connect 7 0 3 0;
#X connect 8 0 10 0;
#X connect 9 0 14 0;
#X connect 9 1 8 0;
#X connect 10 0 11 0;
#X connect 11 0 15 0;
#X connect 11 1 12 0;
#X connect 12 0 10 0;
#X connect 13 0 10 0;
#X connect 14 0 13 0;
#X connect 17 0 18 0;
#X connect 18 0 9 0;
