#N canvas 384 180 838 634 10;
#X obj 141 248 textfile;
#X msg 199 110 clear;
#X msg 141 187 write \$1;
#X obj 160 222 pp add;
#X obj 327 246 textfile;
#X msg 385 108 clear;
#X msg 327 145 write \$1;
#X obj 346 220 pp add;
#X obj 327 65 r CUE_saveParameters;
#X obj 138 365 r CUE_loadSettings;
#X obj 184 391 r CUE_loadParameters;
#X msg 214 434 read \$1 \, rewind;
#X obj 184 413 t b s;
#X obj 214 496 textfile;
#X obj 214 522 t a b;
#X obj 244 543 del 1;
#X msg 184 475 bang;
#X obj 184 455 del 10;
#X obj 214 571 sprinkler;
#X text 53 20 bad:: [RAM] has all receivers hardcoded!!!;
#X obj 141 89 t s b b b;
#X obj 327 87 t s b b b;
#X text 288 547 distribute load over time!;
#X text 60 36 ideally \, we will just throw out the [RAM];
#X obj 152 291 print set;
#X obj 363 286 print parm;
#X obj 474 388 savepanel;
#X msg 475 361 bang;
#X obj 422 457 s CUE_saveParameters;
#X msg 472 416 set symbol \$1;
#X obj 469 513 s CUE_saveSettings;
#X obj 141 67 r CUE_saveSettings;
#X obj 160 133 s CUE_SETTINGS_GET;
#X obj 160 153 r CUE_SETTINGS_SET;
#X obj 365 173 s CUE_PARAMETERS_GET;
#X obj 365 193 r CUE_PARAMETERS_SET;
#X msg 423 146 bang;
#X msg 424 435 symbol /tmp/delmeP.txt;
#X msg 471 491 symbol /tmp/delmeS.txt;
#X msg 617 512 symbol /tmp/delmeP.txt;
#X msg 664 568 symbol /tmp/delmeS.txt;
#X obj 615 534 s CUE_loadParameters;
#X obj 662 590 s CUE_loadSettings;
#X obj 332 600 print sprinkle;
#X connect 1 0 0 0;
#X connect 2 0 0 0;
#X connect 3 0 0 0;
#X connect 3 0 24 0;
#X connect 5 0 4 0;
#X connect 6 0 4 0;
#X connect 7 0 4 0;
#X connect 7 0 25 0;
#X connect 8 0 21 0;
#X connect 9 0 12 0;
#X connect 10 0 12 0;
#X connect 11 0 13 0;
#X connect 12 0 17 0;
#X connect 12 1 11 0;
#X connect 13 0 14 0;
#X connect 14 0 18 0;
#X connect 14 0 43 0;
#X connect 14 1 15 0;
#X connect 15 0 13 0;
#X connect 16 0 13 0;
#X connect 17 0 16 0;
#X connect 20 0 2 0;
#X connect 20 2 32 0;
#X connect 20 3 1 0;
#X connect 21 0 6 0;
#X connect 21 2 34 0;
#X connect 21 3 5 0;
#X connect 26 0 29 0;
#X connect 27 0 26 0;
#X connect 29 0 37 0;
#X connect 29 0 38 0;
#X connect 29 0 39 0;
#X connect 29 0 40 0;
#X connect 31 0 20 0;
#X connect 33 0 3 0;
#X connect 35 0 7 0;
#X connect 36 0 34 0;
#X connect 37 0 28 0;
#X connect 38 0 30 0;
#X connect 39 0 41 0;
#X connect 40 0 42 0;
