#N canvas 0 0 621 596 10;
#X obj 233 172 RAM;
#X obj 141 248 textfile;
#X obj 141 89 t s b b;
#X msg 185 110 clear;
#X msg 141 147 write \$1;
#X obj 160 222 pp add;
#X obj 327 246 textfile;
#X obj 327 87 t s b b;
#X msg 371 108 clear;
#X msg 327 145 write \$1;
#X obj 346 220 pp add;
#X obj 327 65 r CUE_saveParameters;
#X obj 141 67 r CUE_saveSettings;
#X obj 203 326 r CUE_loadSettings;
#X obj 249 352 r CUE_loadParameters;
#X msg 279 395 read \$1 \, rewind;
#X obj 249 374 t b s;
#X obj 279 457 textfile;
#X obj 279 483 t a b;
#X obj 309 504 del 1;
#X msg 249 436 bang;
#X obj 249 416 del 10;
#X obj 279 532 sprinkler;
#X text 60 22 bad:: [RAM] has all receivers hardcoded!!!;
#X connect 0 0 5 0;
#X connect 0 1 10 0;
#X connect 2 0 4 0;
#X connect 2 1 0 0;
#X connect 2 2 3 0;
#X connect 3 0 1 0;
#X connect 4 0 1 0;
#X connect 5 0 1 0;
#X connect 7 0 9 0;
#X connect 7 1 0 1;
#X connect 7 2 8 0;
#X connect 8 0 6 0;
#X connect 9 0 6 0;
#X connect 10 0 6 0;
#X connect 11 0 7 0;
#X connect 12 0 2 0;
#X connect 13 0 16 0;
#X connect 14 0 16 0;
#X connect 15 0 17 0;
#X connect 16 0 21 0;
#X connect 16 1 15 0;
#X connect 17 0 18 0;
#X connect 18 0 22 0;
#X connect 18 1 19 0;
#X connect 19 0 17 0;
#X connect 20 0 17 0;
#X connect 21 0 20 0;
