#N canvas 282 59 521 468 10;
#N canvas 415 150 699 433 control 1;
#X obj 92 166 t l b;
#X obj 92 225 t a;
#N canvas 0 0 450 300 switcher 0;
#X obj 161 120 t b b;
#X obj 161 164 del 60;
#X msg 191 141 0;
#X msg 161 184 0;
#X msg 212 117 1;
#X obj 161 97 select 0;
#X obj 204 208 i;
#X obj 161 207 i;
#X obj 161 74 inlet;
#X obj 161 239 outlet switch;
#X obj 204 267 outlet gain;
#X connect 0 0 1 0;
#X connect 0 1 2 0;
#X connect 1 0 3 0;
#X connect 2 0 6 0;
#X connect 3 0 7 0;
#X connect 4 0 6 0;
#X connect 4 0 7 0;
#X connect 5 0 0 0;
#X connect 5 1 4 0;
#X connect 6 0 10 0;
#X connect 7 0 9 0;
#X connect 8 0 5 0;
#X restore 163 270 pd switcher;
#X msg 163 246 1;
#X msg 196 246 0;
#X obj 212 118 t b b;
#X obj 92 30 route symbol list;
#X obj 92 70 t b b;
#X obj 92 378 outlet ctl;
#X obj 163 338 outlet switch;
#X obj 235 301 outlet gain;
#X obj 92 9 inlet control;
#X msg 259 255 0;
#X obj 212 146 del 60;
#X obj 303 15 inlet url_name_port;
#X obj 300 49 route list;
#X obj 92 124 list;
#X msg 209 193 disconnect;
#X msg 336 256 recover 0;
#X msg 307 214 recover 1;
#X msg 308 193 recover -1;
#X text 380 194 resume (default): mute audio and refill buffer;
#X text 373 213 reconnect (disconnect and connect again);
#X text 408 254 disconnect on buffer underrun;
#X obj 91 50 select play stop recover reconnect;
#X msg 92 189 connect \$1 \$2 \$3;
#X obj 10 303 print urls;
#X obj 405 133 print surls;
#X connect 0 0 25 0;
#X connect 0 1 3 0;
#X connect 1 0 8 0;
#X connect 2 0 9 0;
#X connect 2 1 10 0;
#X connect 3 0 2 0;
#X connect 4 0 2 0;
#X connect 5 0 13 0;
#X connect 5 1 12 0;
#X connect 5 1 4 0;
#X connect 6 0 24 0;
#X connect 7 0 16 0;
#X connect 11 0 6 0;
#X connect 12 0 10 0;
#X connect 13 0 17 0;
#X connect 14 0 15 0;
#X connect 15 0 16 1;
#X connect 15 0 27 0;
#X connect 15 1 16 1;
#X connect 15 1 27 0;
#X connect 16 0 0 0;
#X connect 17 0 1 0;
#X connect 19 0 1 0;
#X connect 20 0 1 0;
#X connect 24 0 7 0;
#X connect 24 1 5 0;
#X connect 24 2 20 0;
#X connect 24 3 19 0;
#X connect 25 0 1 0;
#X connect 25 0 26 0;
#X restore 41 77 pd control;
#X obj 46 252 multiline~ 0 0 0 0 0 0 0 0 0 0 0 0 0 0 0 0 50;
#X obj 40 20 receive_regname /EXT/OGGAMP/CTRL;
#X obj 261 28 receive_setting /EXT/OGGAMP/STREAM;
#X obj 188 297 sIN~ \$1:08_OGG;
#X obj 169 319 sIN~ \$1:07_OGG;
#X obj 148 340 sIN~ \$1:06_OGG;
#X obj 128 360 sIN~ \$1:05_OGG;
#X obj 108 383 sIN~ \$1:04_OGG;
#X obj 86 403 sIN~ \$1:03_OGG;
#X obj 66 424 sIN~ \$1:02_OGG;
#X obj 45 444 sIN~ \$1:01_OGG;
#X obj 352 302 sIN~ \$1:16_OGG;
#X obj 332 324 sIN~ \$1:15_OGG;
#X obj 311 345 sIN~ \$1:14_OGG;
#X obj 291 365 sIN~ \$1:13_OGG;
#X obj 272 388 sIN~ \$1:12_OGG;
#X obj 249 408 sIN~ \$1:11_OGG;
#X obj 229 429 sIN~ \$1:10_OGG;
#X obj 209 449 sIN~ \$1:09_OGG;
#X obj 222 153 send_regname /EXT/OGGAMP/STATE;
#X obj 250 4 receive_setting /EXT/OGGAMP/HOST;
#X obj 316 69 receive_setting /EXT/OGGAMP/PORT;
#X obj 243 115 pack s s i;
#X obj 314 90 t b i;
#X obj 258 61 t b s;
#X obj 45 145 oggamp~ 0 16 4096;
#X obj 65 105 switch~;
#X connect 0 0 26 0;
#X connect 0 1 27 0;
#X connect 0 2 1 16;
#X connect 1 0 11 0;
#X connect 1 1 10 0;
#X connect 1 2 9 0;
#X connect 1 3 8 0;
#X connect 1 4 7 0;
#X connect 1 5 6 0;
#X connect 1 6 5 0;
#X connect 1 7 4 0;
#X connect 1 8 19 0;
#X connect 1 9 18 0;
#X connect 1 10 17 0;
#X connect 1 11 16 0;
#X connect 1 12 15 0;
#X connect 1 13 14 0;
#X connect 1 14 13 0;
#X connect 1 15 12 0;
#X connect 2 0 0 0;
#X connect 3 0 25 0;
#X connect 21 0 23 0;
#X connect 22 0 24 0;
#X connect 23 0 0 1;
#X connect 24 0 23 0;
#X connect 24 1 23 2;
#X connect 25 0 23 0;
#X connect 25 1 23 1;
#X connect 26 0 1 0;
#X connect 26 1 1 1;
#X connect 26 2 1 2;
#X connect 26 3 1 3;
#X connect 26 4 1 4;
#X connect 26 5 1 5;
#X connect 26 6 1 6;
#X connect 26 7 1 7;
#X connect 26 8 1 8;
#X connect 26 9 1 9;
#X connect 26 10 1 10;
#X connect 26 11 1 11;
#X connect 26 12 1 12;
#X connect 26 13 1 13;
#X connect 26 14 1 14;
#X connect 26 15 1 15;
#X connect 26 16 20 0;
