#N canvas 538 490 638 612 10;
#X obj 31 38 inlet~;
#X obj 32 513 outlet~;
#X obj 32 469 lop~;
#X obj 104 83 receive_regname /IN/\$1/SPAT/AMBI/POS/RAD;
#X obj 111 194 t f f;
#X obj 104 141 clip 1 100;
#X text 119 476 1m: f_lo=sr/2;
#X text 118 493 100m: f_lo=0;
#X obj 134 384 -;
#X obj 134 341 t f b;
#X obj 98 59 # receive_pluginparam \$1 \$2 \$3/PEAK_RATIO;
#X obj 134 297 * 1.36;
#X msg 134 360 136 \$1;
#X obj 134 416 mtof;
#X obj 260 139 receive_pluginparam \$1 \$2 \$3/HEARINGRANGE;
#X text 315 117 indiviual overwrite;
#X obj 388 58 inlet switch;
#X obj 104 114 spigot;
#N canvas 0 0 450 300 delline 0;
#X obj 147 64 inlet~;
#X obj 120 276 outlet~;
#N canvas 0 0 470 320 delwrite 0;
#X obj 19 27 inlet~;
#X obj 19 195 outlet~;
#X obj 273 26 inlet~;
#X obj 19 58 delwrite~ \$0_helpdel 300;
#X connect 0 0 3 0;
#X connect 2 0 1 0;
#X restore 123 215 pd delwrite;
#N canvas 0 0 470 320 delread 0;
#X obj 19 27 inlet~;
#X obj 19 195 outlet~;
#X obj 20 126 vd~ \$0_helpdel 1;
#X connect 0 0 2 0;
#X connect 2 0 1 0;
#X restore 123 237 pd delread;
#X obj 196 191 line~;
#X obj 196 169 pack 0 100;
#X obj 261 145 r DSP_MIX_INTERPOL_TIME;
#X obj 196 126 / 0.34;
#X text 247 126 c/1000;
#X obj 316 68 inlet;
#X obj 318 98 switch~;
#X obj 227 67 inlet dist;
#X connect 0 0 2 0;
#X connect 2 0 3 0;
#X connect 3 0 1 0;
#X connect 4 0 2 1;
#X connect 5 0 4 0;
#X connect 6 0 5 1;
#X connect 7 0 5 0;
#X connect 9 0 10 0;
#X connect 11 0 7 0;
#X restore 48 371 pd delline;
#X obj 239 307 receive_pluginparam \$1 \$2 \$3/DOPPLER;
#X obj 55 219 loadbang;
#X obj 30 298 demux~;
#X msg 50 262 0;
#X obj 260 353 receive_regname /IN/SPAT/AMBI/DOPPLER;
#X text 278 335 global enable all dopplers (depricated);
#X msg 250 186 1 \$1;
#X obj 253 161 max 1;
#X obj 110 169 * 1;
#X obj 249 208 / 100;
#X obj 251 239 * 100;
#X obj 311 167 receive_regname /IN/SPAT/AMBI/HEARINGRANGE;
#X text 319 184 global (depricated);
#X connect 0 0 21 0;
#X connect 2 0 1 0;
#X connect 3 0 17 0;
#X connect 4 0 18 1;
#X connect 4 1 11 0;
#X connect 5 0 27 0;
#X connect 8 0 13 0;
#X connect 9 0 12 0;
#X connect 11 0 9 0;
#X connect 12 0 8 0;
#X connect 13 0 2 1;
#X connect 14 0 26 0;
#X connect 16 0 17 1;
#X connect 17 0 5 0;
#X connect 18 0 2 0;
#X connect 19 0 21 0;
#X connect 19 0 18 2;
#X connect 20 0 22 0;
#X connect 21 0 2 0;
#X connect 21 1 18 0;
#X connect 22 0 21 0;
#X connect 23 0 18 2;
#X connect 23 0 21 0;
#X connect 25 0 28 0;
#X connect 26 0 25 0;
#X connect 26 0 5 2;
#X connect 27 0 4 0;
#X connect 28 0 29 0;
#X connect 29 0 27 1;
#X connect 30 0 26 0;
