#N canvas 463 349 684 446 10;
#X obj 67 376 oggcast~ 2 1024;
#X obj 68 339 multiline~ 0 0 100;
#X obj 67 400 sendreceive /EXT/OGGCAST/STATE;
#X obj 148 318 receive_parameter /EXT/OGGCAST/GAIN;
#X obj 268 81 receive_setting /EXT/OGGCAST/PARAM;
#X text 271 61 <server> <port> <stream> <password>;
#X obj 268 102 list;
#X msg 186 376 -1;
#X obj 268 125 t l b b b;
#X msg 268 149 server 1 \, passwd \$4 \, connect \$1 \$3 \$2;
#X msg 306 198 disconnect;
#X obj 268 227 t a;
#X msg 287 175 ARTIST IEM \, LOCATION IEM-Cube;
#X obj 67 171 OGGSRC 1 1_AUX_SUM;
#X obj 107 196 OGGSRC 2 2_AUX_SUM;
#X connect 0 0 2 0;
#X connect 1 0 0 0;
#X connect 1 1 0 1;
#X connect 3 0 1 2;
#X connect 4 0 6 0;
#X connect 6 0 8 0;
#X connect 7 0 2 0;
#X connect 8 0 9 0;
#X connect 8 1 12 0;
#X connect 8 2 10 0;
#X connect 8 3 7 0;
#X connect 9 0 11 0;
#X connect 10 0 11 0;
#X connect 11 0 0 0;
#X connect 12 0 11 0;
#X connect 13 0 1 0;
#X connect 14 0 1 1;
