#N canvas 392 297 687 538 10;
#X obj 124 100 r~ 1_AUX_SUM;
#X obj 124 490 throw~ 1_AMBI_BUS;
#X obj 151 468 throw~ 2_AMBI_BUS;
#X obj 178 447 throw~ 3_AMBI_BUS;
#X obj 204 426 throw~ 4_AMBI_BUS;
#X obj 416 248 switch~;
#X obj 416 134 t b b;
#X msg 446 154 0;
#X msg 416 223 0;
#X obj 416 113 select 0;
#X obj 467 133 t f f;
#X obj 272 59 route list;
#X text 349 60 darn! we get a list \, but want anything!;
#X obj 124 53 symbol;
#X msg 124 75 set \$1_SUM;
#X obj 416 200 del 60;
#X obj 125 128 TMREV/REV_2_4_4~;
#X obj 124 19 sendreceive EXT_TMREV_SRC;
#X obj 272 38 sendreceive EXT_TMREV_PARAM;
#X obj 416 87 sendreceive EXT_TMREV_ON;
#X obj 124 217 multiline~ 0 0 0 0 0 0 0 0 0 50;
#X obj 335 316 throw~ 9_AMBI_BUS;
#X obj 309 336 throw~ 8_AMBI_BUS;
#X obj 283 357 throw~ 7_AMBI_BUS;
#X obj 256 378 throw~ 6_AMBI_BUS;
#X obj 229 400 throw~ 5_AMBI_BUS;
#X obj 446 174 f;
#X obj 68 101 dither~;
#X connect 0 0 16 0;
#X connect 6 0 15 0;
#X connect 6 1 7 0;
#X connect 7 0 26 0;
#X connect 8 0 5 0;
#X connect 9 0 6 0;
#X connect 9 1 10 0;
#X connect 10 0 26 0;
#X connect 10 1 5 0;
#X connect 11 0 16 1;
#X connect 11 1 16 1;
#X connect 13 0 14 0;
#X connect 14 0 0 0;
#X connect 15 0 8 0;
#X connect 16 0 20 0;
#X connect 16 1 20 1;
#X connect 16 2 20 2;
#X connect 16 3 20 3;
#X connect 16 4 20 4;
#X connect 16 5 20 5;
#X connect 16 6 20 6;
#X connect 16 7 20 7;
#X connect 16 8 20 8;
#X connect 17 0 13 0;
#X connect 18 0 11 0;
#X connect 19 0 9 0;
#X connect 20 0 1 0;
#X connect 20 1 2 0;
#X connect 20 2 3 0;
#X connect 20 3 4 0;
#X connect 20 4 25 0;
#X connect 20 5 24 0;
#X connect 20 6 23 0;
#X connect 20 7 22 0;
#X connect 20 8 21 0;
#X connect 26 0 20 9;
#X connect 27 0 16 0;
