#N canvas 266 367 829 650 10;
#X obj 619 359 switch~;
#X obj 619 245 t b b;
#X msg 649 265 0;
#X msg 619 334 0;
#X obj 619 224 select 0;
#X obj 670 244 t f f;
#X obj 411 217 route list;
#X obj 619 311 del 60;
#X obj 411 196 sendreceive EXT_TMREV_PARAM;
#X obj 619 198 sendreceive EXT_TMREV_ON;
#X obj 649 285 f;
#X obj 68 101 dither~;
#X obj 125 123 r~ 33_ADC;
#X obj 124 53 float;
#X obj 124 19 sendreceive EXT_TMREV_SRCSTART;
#X obj 181 53 + 1;
#X msg 124 86 set \$1_ADC;
#X obj 212 53 float;
#X obj 269 53 + 1;
#X msg 212 86 set \$1_ADC;
#X obj 299 59 float;
#X obj 356 59 + 1;
#X msg 299 92 set \$1_ADC;
#X obj 389 59 float;
#X obj 446 59 + 1;
#X msg 389 92 set \$1_ADC;
#X obj 482 58 float;
#X obj 539 58 + 1;
#X msg 482 91 set \$1_ADC;
#X obj 574 58 float;
#X obj 631 58 + 1;
#X msg 574 91 set \$1_ADC;
#X obj 130 253 TMREV/REV/REV_6_12_6~ ____________________;
#X obj 126 311 multiline~ 0 0 0 0 0 0 0 0 0 50;
#X obj 214 123 r~ 34_ADC;
#X obj 301 129 r~ 35_ADC;
#X obj 391 129 r~ 36_ADC;
#X obj 484 128 r~ 37_ADC;
#X obj 576 128 r~ 38_ADC;
#X obj 125 347 3_ambi_enc~ RRR_1;
#X obj 153 371 3_ambi_enc~ RRR_1;
#X obj 180 395 3_ambi_enc~ RRR_1;
#X obj 198 420 3_ambi_enc~ RRR_1;
#X obj 219 444 3_ambi_enc~ RRR_1;
#X obj 242 468 3_ambi_enc~ RRR_1;
#X obj 263 488 3_ambi_enc~ RRR_1;
#X obj 284 512 3_ambi_enc~ RRR_1;
#X obj 307 536 3_ambi_enc~ RRR_1;
#X connect 1 0 7 0;
#X connect 1 1 2 0;
#X connect 2 0 10 0;
#X connect 3 0 0 0;
#X connect 4 0 1 0;
#X connect 4 1 5 0;
#X connect 5 0 10 0;
#X connect 5 1 0 0;
#X connect 7 0 3 0;
#X connect 8 0 6 0;
#X connect 9 0 4 0;
#X connect 10 0 33 9;
#X connect 11 0 32 0;
#X connect 12 0 32 0;
#X connect 13 0 16 0;
#X connect 13 0 15 0;
#X connect 14 0 13 0;
#X connect 16 0 12 0;
#X connect 17 0 19 0;
#X connect 17 0 18 0;
#X connect 19 0 34 0;
#X connect 20 0 22 0;
#X connect 20 0 21 0;
#X connect 22 0 35 0;
#X connect 23 0 25 0;
#X connect 23 0 24 0;
#X connect 25 0 36 0;
#X connect 26 0 28 0;
#X connect 26 0 27 0;
#X connect 28 0 37 0;
#X connect 29 0 31 0;
#X connect 29 0 30 0;
#X connect 31 0 38 0;
#X connect 32 0 33 0;
#X connect 32 1 33 0;
#X connect 32 2 33 1;
#X connect 32 3 33 1;
#X connect 32 4 33 2;
#X connect 32 5 33 2;
#X connect 32 6 33 3;
#X connect 32 7 33 3;
#X connect 32 8 33 4;
#X connect 32 9 33 4;
#X connect 32 10 33 5;
#X connect 32 11 33 5;
#X connect 32 12 33 6;
#X connect 32 13 33 6;
#X connect 32 14 33 7;
#X connect 32 15 33 7;
#X connect 32 16 33 8;
#X connect 32 17 33 8;
#X connect 33 0 39 0;
#X connect 33 1 40 0;
#X connect 33 2 41 0;
#X connect 33 3 42 0;
#X connect 33 4 43 0;
#X connect 33 5 44 0;
#X connect 33 6 45 0;
#X connect 33 7 46 0;
#X connect 33 8 47 0;
#X connect 34 0 32 1;
#X connect 35 0 32 2;
#X connect 36 0 32 3;
#X connect 37 0 32 4;
#X connect 38 0 32 5;
