#N canvas 33 24 714 532 10;
#X obj 97 135 readsf~ 1;
#X obj 60 328 prvu~;
#X obj 61 350 vu 15 120 empty empty -1 -8 0 8 -66577 -1 0 0;
#X obj 96 328 prvu~;
#X obj 97 352 vu 15 120 empty empty -1 -8 0 8 -66577 -1 1 0;
#X obj 18 28 dsp;
#X obj 16 9 tgl 15 0 empty empty empty 0 -6 0 8 -262144 -1 -1 0 1;
#X floatatom 18 75 5 0 0 0 - - -;
#X floatatom 33 57 5 0 0 0 - - -;
#X obj 18 114 prvu~;
#X obj 19 154 vu 15 120 empty empty -1 -8 0 8 -66577 -1 1 0;
#X obj 99 218 mull~ 0 50;
#X text 61 1 perf: 6 x REV12 kosten 60 %;
#N canvas 0 0 456 306 open 0;
#X obj 81 85 openpanel;
#X msg 79 116 open \$1;
#X msg 145 118 set open \$1;
#X obj 82 18 inlet;
#X obj 231 17 inlet;
#X obj 81 249 outlet;
#X obj 218 248 outlet;
#X obj 334 18 inlet;
#X obj 321 249 outlet;
#X obj 320 57 del 10;
#X msg 124 213 1;
#X obj 97 161 del 150;
#X obj 91 138 t b;
#X msg 157 212 0;
#X obj 323 87 del 10;
#X obj 81 40 route open stop;
#X obj 82 62 bang;
#X obj 121 62 bang;
#X connect 0 0 2 0;
#X connect 0 0 1 0;
#X connect 1 0 5 0;
#X connect 1 0 12 0;
#X connect 2 0 6 0;
#X connect 3 0 15 0;
#X connect 4 0 5 0;
#X connect 4 0 12 0;
#X connect 7 0 9 0;
#X connect 9 0 13 0;
#X connect 9 0 14 0;
#X connect 10 0 5 0;
#X connect 11 0 10 0;
#X connect 12 0 11 0;
#X connect 13 0 5 0;
#X connect 14 0 6 0;
#X connect 15 0 16 0;
#X connect 15 1 17 0;
#X connect 16 0 0 0;
#X connect 17 0 13 0;
#X restore 102 91 pd open;
#X msg 94 18 open;
#X msg 73 39 stop;
#X obj 99 240 +~;
#X msg 410 330 presets/reverb.pbank;
#X obj 360 317 tgl 15 0 empty empty empty 0 -6 0 8 -262144 -1 -1 0
1;
#X msg 317 301 read;
#X msg 298 275 recall 6;
#X obj 220 69 vsl 15 128 0 127 0 0 empty empty empty 0 -8 0 8 -262144
-1 -1 0 1;
#X obj 219 209 fadtodb;
#X floatatom 241 183 5 0 0 0 - - -;
#X obj 219 230 dbtorms;
#X obj 225 250 - 100;
#X obj 97 188 mull~ 0 50;
#X obj 127 167 tgl 15 0 empty empty empty 0 -6 0 8 -262144 -1 -1 0
1;
#X obj 242 404 mull~ 0 50;
#X obj 618 173 vsl 15 128 0 127 0 0 empty empty empty 0 -8 0 8 -262144
-1 -1 0 1;
#X obj 617 313 fadtodb;
#X floatatom 639 287 5 0 0 0 - - -;
#X obj 617 334 dbtorms;
#X obj 623 354 - 100;
#X obj 255 425 mull~ 0 50;
#X obj 274 445 mull~ 0 50;
#X obj 298 466 mull~ 0 50;
#X obj 222 492 dac~ 12 1 2 3;
#X obj 240 358 REV/REV_2_4_4~ 12 ++ stat;
#X msg 153 28 open /home/pd/projects/Praesentation/sounds/samsonetdelilah.wav
;
#X connect 0 0 9 0;
#X connect 0 0 26 0;
#X connect 0 1 13 2;
#X connect 1 0 2 0;
#X connect 3 0 4 0;
#X connect 5 0 7 0;
#X connect 5 1 8 0;
#X connect 6 0 5 0;
#X connect 9 0 10 0;
#X connect 11 0 16 0;
#X connect 13 0 0 0;
#X connect 13 1 39 0;
#X connect 14 0 13 0;
#X connect 15 0 13 0;
#X connect 16 0 38 0;
#X connect 16 0 38 1;
#X connect 17 0 38 4;
#X connect 18 0 38 3;
#X connect 19 0 38 2;
#X connect 20 0 38 2;
#X connect 21 0 22 0;
#X connect 22 0 24 0;
#X connect 22 0 25 0;
#X connect 24 0 11 1;
#X connect 25 0 23 0;
#X connect 26 0 11 0;
#X connect 27 0 26 1;
#X connect 28 0 37 0;
#X connect 29 0 30 0;
#X connect 30 0 32 0;
#X connect 30 0 33 0;
#X connect 32 0 28 1;
#X connect 32 0 34 1;
#X connect 32 0 35 1;
#X connect 32 0 36 1;
#X connect 33 0 31 0;
#X connect 34 0 37 1;
#X connect 35 0 37 2;
#X connect 36 0 37 3;
#X connect 38 0 1 0;
#X connect 38 0 28 0;
#X connect 38 1 3 0;
#X connect 38 1 34 0;
#X connect 38 2 35 0;
#X connect 38 3 36 0;
#X connect 38 4 28 0;
#X connect 38 5 34 0;
#X connect 38 6 35 0;
#X connect 38 7 36 0;
#X connect 38 8 17 0;
#X connect 39 0 13 1;
