#N canvas 136 88 714 532 10;
#X text 61 1 perf: 6 x REV12 kosten 60 %;
#X obj 166 123 inlet~;
#X obj 240 358 REV/REV_1_2_2~ 12 ++ stat;
#X obj 198 478 outlet~;
#X obj 255 476 outlet~;
#X obj 319 478 outlet~;
#X obj 379 480 outlet~;
#X msg 465 360 reverb.pbank;
#X obj 325 429 *~ 1;
#X obj 379 459 *~ -1;
#X obj 389 198 inlet;
#X connect 1 0 2 0;
#X connect 2 0 4 0;
#X connect 2 1 5 0;
#X connect 2 2 8 0;
#X connect 2 3 8 0;
#X connect 8 0 3 0;
#X connect 8 0 9 0;
#X connect 9 0 6 0;
#X connect 10 0 2 1;
