#N canvas 0 0 600 300 10;
#X obj 200 100 onoff_switch~;
#X obj 100 100 inlet~;
#X obj 500 100 outlet~;
#X obj 400 100 switch~;
#X obj 300 80 inlet;
#X connect 1 0 0 0;
#X connect 0 1 3 0;
#X connect 4 0 0 1;
#X obj 250 150 bus_send_post~ \$1 1;
#X connect 0 0 5 0;
#X obj 250 175 bus_send_post~ \$1 2;
#X connect 0 0 6 0;
#X obj 250 200 bus_send_post~ \$1 3;
#X connect 0 0 7 0;
#X obj 250 225 bus_send_post~ \$1 4;
#X connect 0 0 8 0;
#X obj 250 250 bus_send_post~ \$1 5;
#X connect 0 0 9 0;
#X obj 250 275 bus_send_post~ \$1 6;
#X connect 0 0 10 0;
#X obj 250 300 bus_send_post~ \$1 7;
#X connect 0 0 11 0;
#X obj 250 325 bus_send_post~ \$1 8;
#X connect 0 0 12 0;
#X obj 250 350 bus_send_post~ \$1 9;
#X connect 0 0 13 0;
#X obj 250 375 bus_send_post~ \$1 10;
#X connect 0 0 14 0;
#X obj 250 400 bus_send_post~ \$1 11;
#X connect 0 0 15 0;
#X obj 250 425 bus_send_post~ \$1 12;
#X connect 0 0 16 0;
#X obj 250 450 bus_send_post~ \$1 13;
#X connect 0 0 17 0;
#X obj 250 475 bus_send_post~ \$1 14;
#X connect 0 0 18 0;
#X obj 250 500 bus_send_post~ \$1 15;
#X connect 0 0 19 0;
#X obj 250 525 bus_send_post~ \$1 16;
#X connect 0 0 20 0;
