#N canvas 0 0 600 300 10;
#X obj 100 100 inlet~;
#X obj 150 150 aux_send_post~ \$1 1;
#X connect 0 0 1 0;
#X obj 150 175 aux_send_post~ \$1 2;
#X connect 0 0 2 0;
#X obj 150 200 aux_send_post~ \$1 3;
#X connect 0 0 3 0;
#X obj 150 225 aux_send_post~ \$1 4;
#X connect 0 0 4 0;
#X obj 200 100 outlet~;
