#N canvas 0 0 450 300 10;
#X obj 43 33 inlet~;
#X obj 46 322 outlet~;
#X obj 161 85 aux_send_pre~ \$1 1;
#X obj 155 168 aux_send_pre~ \$1 4;
#X obj 156 141 aux_send_pre~ \$1 3;
#X obj 158 112 aux_send_pre~ \$1 2;
#X connect 0 0 2 0;
#X connect 0 0 3 0;
#X connect 0 0 4 0;
#X connect 0 0 5 0;
