#N canvas 1305 66 626 450 10;
#X obj 36 28 inlet~;
#X obj 327 162 t b f;
#X obj 69 159 t f f;
#X obj 99 181 > 0;
#X obj 37 327 mull~ 0 50;
#X obj 102 291 r DSP_MIX_INTERPOL_TIME;
#X obj 69 138 dbtorms;
#X obj 222 258 && 1;
#X obj 327 140 == 0;
#X obj 69 117 receive_parameter /IN/\$1/AUX/\$2/GAIN;
#X obj 327 117 receive_setting /IN/\$1/AUX/\$2/PRE;
#X obj 349 236 receive_setting /IN/\$1/AUX/\$2/DST;
#X obj 38 356 throw~ \$2_AUX;
#X msg 349 258 set \$1;
#X obj 318 331 switch~;
#X obj 222 331 onoff_switch;
#X obj 87 268 t b f;
#X obj 69 302 *;
#X connect 0 0 4 0;
#X connect 1 0 7 0;
#X connect 1 1 7 1;
#X connect 2 0 17 0;
#X connect 2 1 3 0;
#X connect 3 0 7 0;
#X connect 4 0 12 0;
#X connect 5 0 4 2;
#X connect 6 0 2 0;
#X connect 7 0 15 0;
#X connect 8 0 1 0;
#X connect 9 0 6 0;
#X connect 10 0 8 0;
#X connect 11 0 13 0;
#X connect 13 0 12 0;
#X connect 15 0 16 0;
#X connect 15 1 14 0;
#X connect 16 0 17 0;
#X connect 16 1 17 1;
#X connect 17 0 4 1;
