#N canvas 0 135 756 566 10;
#X obj 245 27 inlet;
#X obj 245 101 makefilename %s_$1;
#X obj 325 56 makefilename %%s_%s;
#X msg 325 79 set \$1;
#X obj 326 10 loadbang;
#X msg 389 8 bang;
#X obj 245 124 t s s s;
#X symbolatom 385 103 10 0 0 0 - - -;
#X msg 245 188 \$1_gain_gui;
#X msg 267 239 \$1_pre_togui;
#X msg 289 300 \$1_gui;
#X obj 325 32 symbol \$3;
#X obj 19 216 gui_sr_offset \$1_gain \$2_GAIN 100;
#X obj 83 260 gui_sr_offset \$1_pre \$2_PRE;
#X obj 453 268 loadbang;
#X obj 453 311 s \$1_gain_togui;
#X msg 453 291 set -100;
#N canvas 0 0 450 300 color_pre 0;
#X obj 56 48 r \$2_PRE;
#X obj 193 88 colorschemes/gain;
#X obj 193 68 loadbang;
#X msg 256 69 bang;
#X msg 56 165 color \$3 \$2 \$1;
#X text 190 186 colr <bg> <ft> <lbl>;
#X obj 56 187 s \$1_gain_togui;
#X obj 56 69 select 0 1;
#X msg 56 91 -1;
#X obj 56 144 pack -1 -1 0;
#X obj 56 115 t f f;
#X text 115 89 18 \, 28?;
#X msg 88 91 18;
#X connect 0 0 7 0;
#X connect 1 0 9 2;
#X connect 2 0 1 0;
#X connect 3 0 1 0;
#X connect 4 0 6 0;
#X connect 7 0 8 0;
#X connect 7 1 12 0;
#X connect 8 0 10 0;
#X connect 9 0 4 0;
#X connect 10 0 9 0;
#X connect 10 1 9 1;
#X connect 12 0 10 0;
#X restore 510 192 pd color_pre;
#X obj 84 319 gui_sr_symbol \$1_dst \$2_DST \$3;
#X connect 0 0 1 0;
#X connect 1 0 6 0;
#X connect 2 0 3 0;
#X connect 3 0 1 0;
#X connect 3 0 7 0;
#X connect 4 0 11 0;
#X connect 5 0 11 0;
#X connect 6 0 8 0;
#X connect 6 1 9 0;
#X connect 6 2 10 0;
#X connect 8 0 12 1;
#X connect 9 0 13 1;
#X connect 10 0 18 1;
#X connect 11 0 2 0;
#X connect 14 0 16 0;
#X connect 16 0 15 0;
