#N canvas 0 0 807 469 10;
#X obj 469 25 inlet \$0GUI-prepend;
#X msg 469 164 \$1_togui;
#X msg 469 204 \$1_on_togui;
#X obj 54 164 gui_sr \$1_name \$2_NAME;
#X obj 532 71 makefilename %%s_%s;
#X obj 469 116 makefilename;
#X msg 532 93 set \$1;
#X obj 617 28 loadbang;
#X msg 617 51 bang;
#X obj 532 51 symbol \$3;
#X obj 54 204 gui_sr_offset \$1_tgl \$2_ON;
#X obj 469 138 t s s;
#X connect 0 0 5 0;
#X connect 1 0 3 1;
#X connect 2 0 10 1;
#X connect 4 0 6 0;
#X connect 5 0 11 0;
#X connect 6 0 5 0;
#X connect 7 0 9 0;
#X connect 8 0 9 0;
#X connect 9 0 4 0;
#X connect 11 0 1 0;
#X connect 11 1 2 0;
