#N canvas 0 0 807 469 10;
#X obj 469 25 inlet \$0GUI-prepend;
#X obj 469 138 t s s s;
#X msg 469 164 \$1_togui;
#X msg 469 184 \$1_parms;
#X msg 469 204 \$1_on_togui;
#X obj 54 184 gui_sr \$1_parms \$2_PARAMETERS;
#X obj 54 164 gui_sr \$1_name \$2_NAME;
#X obj 532 71 makefilename %%s_%s;
#X obj 469 116 makefilename;
#X msg 532 93 set \$1;
#X obj 617 28 loadbang;
#X msg 617 51 bang;
#X obj 532 51 symbol \$3;
#X obj 54 204 gui_sr_offset \$1_tgl \$2_ON;
#X connect 0 0 8 0;
#X connect 1 0 2 0;
#X connect 1 1 3 0;
#X connect 1 2 4 0;
#X connect 2 0 6 1;
#X connect 3 0 5 1;
#X connect 4 0 13 1;
#X connect 7 0 9 0;
#X connect 8 0 1 0;
#X connect 9 0 8 0;
#X connect 10 0 12 0;
#X connect 11 0 12 0;
#X connect 12 0 7 0;
