#N canvas 288 102 719 696 10;
#X obj 221 201 aconnect;
#X obj 287 88 inlet;
#X msg 199 47 reset;
#X msg 177 171 bang;
#X obj 104 233 route list;
#X msg 104 256 add2 \$1 \$2 \$3 \$4;
#X msg 242 166 set;
#X obj 277 343 repack 4;
#X obj 199 143 t b b b;
#X msg 277 364 connect \$1 \$2 \$3 \$4;
#X obj 277 321 route list;
#X msg 109 360 bang;
#X obj 106 575 route bang;
#X obj 99 318 r CUE_SETTINGS_GET;
#X obj 105 620 s CUE_SETTINGS_SET;
#X obj 109 384 aconnect;
#X obj 109 403 route list;
#X msg 109 422 add2 \$1 \$2 \$3 \$4;
#X obj 99 339 t b b b;
#X msg 143 360 set;
#X obj 105 600 pp MIDI_ACONNECTOR;
#X obj 277 300 sendreceive MIDI_ACONNECTOR;
#X msg 202 341 bang;
#X obj 287 185 t a;
#X obj 109 442 t a;
#X text 57 16 click me to query and store the current MIDI-connection
\, so it will be loaded automatically the next time.;
#X msg 284 390 list;
#X msg 315 128 64 0 128 0 80 0 128 0 88 0 128 0 96 0 128 0 128 1 80
0 128 1 88 0 128 1 96 0;
#X msg 328 174 72 0 128 0 80 0 128 0 88 0 128 0 96 0 128 0 104 0 128
0 128 1 72 0 128 1 80 0 128 1 88 0 128 1 96 0 128 1 104 0 64 0 128
0 64 32 128 0 128 1 64 0 128 1 64 32;
#X msg 218 469 72 0 128 0 80 0 128 0 88 0 128 0 128 1 80 0 128 1 88
0 128 1 72 0;
#X msg 299 245 80 0 128 0 88 0 128 0 96 0 128 0 128 1 80 0 128 1 88
0 128 1 96 0;
#X connect 0 0 4 0;
#X connect 1 0 23 0;
#X connect 2 0 8 0;
#X connect 3 0 0 0;
#X connect 4 0 5 0;
#X connect 5 0 23 0;
#X connect 6 0 23 0;
#X connect 7 0 9 0;
#X connect 8 1 0 0;
#X connect 8 2 6 0;
#X connect 9 0 0 0;
#X connect 10 0 7 0;
#X connect 11 0 15 0;
#X connect 12 1 20 0;
#X connect 13 0 18 0;
#X connect 15 0 16 0;
#X connect 16 0 17 0;
#X connect 17 0 24 0;
#X connect 18 0 29 0;
#X connect 18 1 11 0;
#X connect 18 2 19 0;
#X connect 19 0 24 0;
#X connect 20 0 14 0;
#X connect 21 0 10 0;
#X connect 22 0 18 0;
#X connect 23 0 30 0;
#X connect 24 0 29 0;
#X connect 26 0 15 0;
#X connect 29 0 12 0;
#X connect 30 0 21 0;
