#N canvas 308 47 941 547 10;
#X obj 90 101 MIDI/inchannel 1;
#X obj 86 58 MIDI/inchannel/sr_xtoggle 33 16 IN_SELECT;
#X obj 86 38 MIDI/inchannel/sr_solo 65 16 IN_SOLO;
#X obj 80 264 MIDI/bus/busgain 1 113;
#X obj 80 285 MIDI/bus/busgain 2 113;
#X obj 80 304 MIDI/bus/busgain 3 113;
#X obj 80 324 MIDI/bus/busgain 4 113;
#X obj 250 264 MIDI/bus/busgain 5 113;
#X obj 250 284 MIDI/bus/busgain 6 113;
#X obj 250 304 MIDI/bus/busgain 7 113;
#X obj 250 323 MIDI/bus/busgain 8 113;
#X obj 99 424 MIDI/out/sr_gain 124 1 OUT_MASTER_GAIN;
#X obj 99 384 MIDI/out/sr_gain 122 1 1_OUT_LFC_GAIN;
#X obj 99 403 MIDI/out/sr_gain 122 2 2_OUT_LFC_GAIN;
#X obj 100 364 MIDI/out/sr_gain 121 1 OUT_AMBI_GAIN;
#N canvas 231 242 764 449 aconnect 0;
#X obj 221 201 aconnect;
#X obj 280 88 inlet;
#X msg 199 117 reset;
#X obj 403 65 r MIDIconnections;
#X msg 177 171 bang;
#X obj 104 233 route list;
#X msg 482 165 \; MIDIconnections connect 64 0 128 0 \; MIDIconnections
connect 72 0 128 0 \; MIDIconnections connect 96 0 128 0 \; MIDIconnections
connect 104 0 128 0 \; MIDIconnections connect 128 1 64 0 \; MIDIconnections
connect 128 1 72 0 \; MIDIconnections connect 128 1 96 0 \; MIDIconnections
connect 128 1 104 0 \;;
#X msg 104 256 add2 \$1 \$2 \$3 \$4;
#X msg 242 166 set;
#X obj 403 110 repack 4;
#X obj 199 143 t b b b;
#X msg 403 131 connect \$1 \$2 \$3 \$4;
#X obj 403 88 route list;
#X obj 242 348 s MIDIconnections;
#X msg 242 315 64 0 128 0 72 0 128 0 96 0 128 0 104 0 128 0 128 1 64
0 128 1 72 0 128 1 96 0 128 1 104 0;
#X msg 235 406 64 0 128 0 72 0 128 0 96 0 128 0 104 0 128 0 128 1 64
0 128 1 72 0 128 1 96 0 128 1 104 0;
#X connect 0 0 5 0;
#X connect 1 0 14 0;
#X connect 2 0 10 0;
#X connect 3 0 12 0;
#X connect 4 0 0 0;
#X connect 5 0 7 0;
#X connect 7 0 14 0;
#X connect 8 0 14 0;
#X connect 9 0 11 0;
#X connect 10 1 0 0;
#X connect 10 2 8 0;
#X connect 11 0 0 0;
#X connect 12 0 9 0;
#X connect 14 0 13 0;
#X restore 517 164 pd aconnect;
#X msg 517 137 bang;
#X obj 517 106 inlet;
#X text 553 140 reset MIDI connections;
#X obj 90 121 MIDI/inchannel 2;
#X obj 90 141 MIDI/inchannel 3;
#X obj 90 161 MIDI/inchannel 4;
#X obj 90 181 MIDI/inchannel 5;
#X obj 90 201 MIDI/inchannel 6;
#X obj 90 221 MIDI/inchannel 7;
#X obj 90 241 MIDI/inchannel 8;
#X obj 220 101 MIDI/inchannel 9;
#X obj 220 121 MIDI/inchannel 10;
#X obj 220 141 MIDI/inchannel 11;
#X obj 220 161 MIDI/inchannel 12;
#X obj 220 181 MIDI/inchannel 13;
#X obj 220 201 MIDI/inchannel 14;
#X obj 220 221 MIDI/inchannel 15;
#X obj 220 241 MIDI/inchannel 16;
#X connect 16 0 15 0;
#X connect 17 0 16 0;
