#N canvas 0 0 450 300 10;
#X obj 298 84 ctlin;
#X obj 299 116 pack 0 0 0;
#X obj 329 215 print MIDI;
#X floatatom 208 171 5 0 0 0 - - -;
#X obj 208 193 ctlout 81;
#X obj 208 144 ctlin 81 17;
#X obj 85 81 ctlin 81 1;
#X obj 94 195 ctlout 81 17;
#X floatatom 124 162 5 0 0 0 - - -;
#X connect 0 0 1 0;
#X connect 0 1 1 1;
#X connect 0 2 1 2;
#X connect 1 0 2 0;
#X connect 3 0 4 0;
#X connect 5 0 3 0;
#X connect 6 0 7 0;
#X connect 8 0 7 0;
