#N canvas 420 290 547 552 10;
#X obj 62 43 t l l b;
#N canvas 73 185 765 319 generic 0;
#X obj 76 44 inlet;
#X obj 76 228 outlet;
#X obj 76 76 t b b;
#X msg 76 113 obj 100 100 inlet \, obj 100 130 fixedMAIN \, connect
0 0 1 0;
#X connect 0 0 2 0;
#X connect 2 0 3 0;
#X connect 3 0 1 0;
#X restore 108 201 pd generic;
#X obj 85 294 t a;
#N canvas 0 0 797 550 generator 0;
#X obj 93 390 outlet;
#X obj 93 272 pack 0 0;
#X obj 93 155 until;
#X obj 93 178 i;
#X msg 136 157 0;
#X obj 121 178 + 1;
#X obj 93 209 t f f;
#X obj 146 230 + 1;
#X obj 93 230 * 25;
#X obj 93 47 inlet #in #bus;
#X obj 93 90 unpack;
#X msg 93 302 obj 100 \$1 MIDI/inchannel \$2;
#X obj 93 130 t f b;
#X obj 93 361 t a;
#X obj 303 155 until;
#X obj 303 178 i;
#X msg 346 157 0;
#X obj 331 178 + 1;
#X obj 303 209 t f f;
#X obj 343 230 + 1;
#X obj 303 230 * 25;
#X obj 303 130 t f b;
#X obj 303 272 pack 0 0 113;
#X msg 303 302 obj 300 \$1 MIDI/bus/busgain \$2 \$3;
#X obj 93 251 + 200;
#X obj 303 251 + 200;
#X connect 1 0 11 0;
#X connect 2 0 3 0;
#X connect 3 0 5 0;
#X connect 3 0 6 0;
#X connect 4 0 3 1;
#X connect 5 0 3 1;
#X connect 6 0 8 0;
#X connect 6 1 7 0;
#X connect 7 0 1 1;
#X connect 8 0 24 0;
#X connect 9 0 10 0;
#X connect 10 0 12 0;
#X connect 10 1 21 0;
#X connect 11 0 13 0;
#X connect 12 0 2 0;
#X connect 12 1 4 0;
#X connect 13 0 0 0;
#X connect 14 0 15 0;
#X connect 15 0 17 0;
#X connect 15 0 18 0;
#X connect 16 0 15 1;
#X connect 17 0 15 1;
#X connect 18 0 20 0;
#X connect 18 1 19 0;
#X connect 19 0 22 1;
#X connect 20 0 25 0;
#X connect 21 0 14 0;
#X connect 21 1 16 0;
#X connect 22 0 23 0;
#X connect 23 0 13 0;
#X connect 24 0 1 0;
#X connect 25 0 22 0;
#X restore 85 236 pd generator;
#X obj 85 173 t l b b;
#X msg 108 136 reset;
#X msg 62 68 symbol MAIN_IN\$1_BUS\$2;
#X obj 62 20 inlet #in #bus;
#X obj 85 377 patchwriter \$1;
#X connect 0 0 6 0;
#X connect 0 1 4 0;
#X connect 0 2 5 0;
#X connect 1 0 2 0;
#X connect 2 0 8 0;
#X connect 3 0 2 0;
#X connect 4 0 3 0;
#X connect 4 1 1 0;
#X connect 5 0 8 1;
#X connect 6 0 8 1;
#X connect 7 0 0 0;
