#N canvas 1499 608 450 300 10;
#X obj 65 53 inlet;
#X obj 65 274 outlet;
#X obj 65 176 spigot 1;
#X obj 65 99 t a a;
#X obj 145 176 spigot 0;
#X obj 279 48 inlet doclamp;
#X obj 152 105 t f f;
#X obj 152 84 > 0;
#X obj 160 63 i;
#X obj 103 143 == 0;
#X obj 145 222 t l l;
#X msg 145 199 \$1 0 \$3;
#X msg 177 250 src_dp \$1 \$2 \$3;
#X obj 177 274 outlet;
#X obj 65 251 t a;
#X connect 0 0 3 0;
#X connect 2 0 14 0;
#X connect 3 0 2 0;
#X connect 3 1 4 0;
#X connect 4 0 11 0;
#X connect 5 0 8 0;
#X connect 6 0 9 0;
#X connect 6 1 4 1;
#X connect 7 0 6 0;
#X connect 8 0 7 0;
#X connect 9 0 2 1;
#X connect 10 0 14 0;
#X connect 10 1 12 0;
#X connect 11 0 10 0;
#X connect 12 0 13 0;
#X connect 14 0 1 0;
