#N canvas 1123 699 450 300 10;
#X obj 279 48 inlet minelv;
#X obj 276 111 - 90;
#X obj 72 167 * 1;
#X obj 279 68 max -90;
#X obj 275 135 * -1;
#X obj 272 160 / 90;
#X obj 68 58 inlet ELV;
#X obj 74 214 outlet GUI;
#X obj 137 56 inlet GUI;
#X obj 150 215 outlet ELV;
#X obj 277 87 min 89;
#X msg 273 182 1 \$1;
#X obj 275 204 / 90;
#X obj 145 97 * 1;
#X obj 71 136 - 0;
#X obj 141 136 + 0;
#X obj 67 95 max 0;
#X floatatom 236 29 5 0 0 0 - - -;
#X connect 0 0 3 0;
#X connect 1 0 4 0;
#X connect 2 0 7 0;
#X connect 3 0 10 0;
#X connect 4 0 5 0;
#X connect 5 0 11 0;
#X connect 5 0 13 1;
#X connect 6 0 16 0;
#X connect 8 0 13 0;
#X connect 10 0 1 0;
#X connect 10 0 14 1;
#X connect 10 0 15 1;
#X connect 10 0 16 1;
#X connect 11 0 12 0;
#X connect 12 0 2 1;
#X connect 13 0 15 0;
#X connect 14 0 2 0;
#X connect 15 0 9 0;
#X connect 16 0 14 0;
#X connect 17 0 3 0;
