#N canvas 1396 45 709 420 10;
#X obj 191 155 - 100;
#X msg 110 324 symbol -inf;
#X obj 110 70 max 0;
#X obj 150 264 makefilename %03d;
#X msg 150 183 0;
#X obj 191 212 moses 0;
#X obj 237 284 makefilename +%02d;
#X obj 203 327 t s;
#X obj 110 388 outlet;
#X obj 110 360 t s;
#X obj 110 47 inlet;
#X obj 191 304 makefilename -%02d;
#X obj 191 188 moses -1;
#X obj 110 91 select 0 100 -1;
#X connect 0 0 12 0;
#X connect 1 0 9 0;
#X connect 2 0 13 0;
#X connect 3 0 9 0;
#X connect 4 0 3 0;
#X connect 5 0 11 0;
#X connect 5 1 6 0;
#X connect 6 0 7 0;
#X connect 7 0 9 0;
#X connect 9 0 8 0;
#X connect 10 0 2 0;
#X connect 11 0 7 0;
#X connect 12 0 3 0;
#X connect 12 1 5 0;
#X connect 13 0 1 0;
#X connect 13 1 4 0;
#X connect 13 2 3 0;
#X connect 13 3 0 0;
