#N canvas 471 305 450 300 10;
#X msg 84 205 append \$1;
#X msg 171 157 options;
#N canvas 393 210 460 436 getnames 0;
#X obj 57 19 inlet;
#X obj 231 357 outlet;
#X msg 231 193 compact \, sort \, bang \, dump;
#X msg 338 219 add \$1;
#X obj 231 302 route list;
#X obj 231 324 symbol;
#X obj 79 173 s DSP_getLabel;
#X obj 57 193 s DSP_setLabel;
#X obj 231 36 r DSP_setLabel;
#X obj 338 170 beautifysymbol;
#X msg 284 216 reset;
#X msg 79 151 \$1;
#X obj 231 166 t b;
#X obj 284 165 t b;
#X obj 231 106 route \$1;
#X obj 231 136 route bang reset;
#X obj 57 62 symbol \$1;
#X obj 57 102 t s s s;
#X msg 125 152 \$1 reset;
#X msg 57 128 \$1;
#X msg 116 30 bang;
#X obj 231 269 index;
#X obj 333 263 print AA;
#X obj 322 97 print A;
#X obj 231 241 nop;
#X connect 0 0 16 0;
#X connect 2 0 24 0;
#X connect 3 0 24 0;
#X connect 4 0 5 0;
#X connect 5 0 1 0;
#X connect 8 0 14 0;
#X connect 9 0 3 0;
#X connect 10 0 24 0;
#X connect 11 0 6 0;
#X connect 12 0 2 0;
#X connect 13 0 10 0;
#X connect 14 0 15 0;
#X connect 15 0 12 0;
#X connect 15 1 13 0;
#X connect 15 2 9 0;
#X connect 16 0 17 0;
#X connect 17 0 19 0;
#X connect 17 1 11 0;
#X connect 17 2 18 0;
#X connect 18 0 7 0;
#X connect 19 0 7 0;
#X connect 20 0 16 0;
#X connect 21 0 4 0;
#X connect 24 0 21 0;
#X restore 84 158 pd getnames;
#X obj 84 129 t b b;
#X text 83 39 what if DSP & GUI are on different machines ???;
#X text 80 11 i DO know that this is ugly!;
#X obj 84 247 outlet;
#X obj 84 79 inlet;
#X connect 0 0 6 0;
#X connect 1 0 6 0;
#X connect 2 0 0 0;
#X connect 3 0 2 0;
#X connect 3 1 1 0;
#X connect 7 0 3 0;
