#N canvas 1410 399 422 408 10;
#X obj 26 361 outlet;
#X msg 26 166 compact \, sort \, bang \, dump;
#X msg 245 191 add \$1;
#X obj 26 275 route list;
#X obj 26 297 symbol;
#X obj 138 11 r DSP_setLabel;
#X obj 245 168 beautifysymbol;
#X msg 79 189 reset;
#X obj 26 139 t b;
#X obj 138 101 route bang reset;
#X obj 26 242 index;
#X obj 26 214 nop;
#X obj 80 141 t b b;
#X msg 26 323 append \$1;
#X msg 109 325 options;
#X obj 138 39 route list;
#X obj 114 282 t b b;
#X msg 176 325 column_break_height 24;
#X obj 138 71 route \$1 \$2 \$3 \$4 \$5 \$6 \$7 \$8;
#X obj 18 6 r GUI_initLabels;
#X obj 18 34 route bang start;
#X connect 1 0 11 0;
#X connect 2 0 11 0;
#X connect 3 0 4 0;
#X connect 4 0 13 0;
#X connect 5 0 15 0;
#X connect 6 0 2 0;
#X connect 7 0 11 0;
#X connect 8 0 1 0;
#X connect 9 2 6 0;
#X connect 10 0 3 0;
#X connect 11 0 10 0;
#X connect 12 0 7 0;
#X connect 12 1 16 0;
#X connect 13 0 0 0;
#X connect 14 0 0 0;
#X connect 15 0 18 0;
#X connect 15 1 18 0;
#X connect 16 0 14 0;
#X connect 16 1 17 0;
#X connect 17 0 0 0;
#X connect 18 0 9 0;
#X connect 18 1 9 0;
#X connect 18 2 9 0;
#X connect 18 3 9 0;
#X connect 18 4 9 0;
#X connect 18 5 9 0;
#X connect 18 6 9 0;
#X connect 18 7 9 0;
#X connect 19 0 20 0;
#X connect 20 0 8 0;
#X connect 20 1 12 0;
