#N canvas 30 166 471 344 10;
#X obj 26 311 outlet;
#X obj 158 49 r DSP_setLabel;
#X obj 281 168 beautifysymbol;
#X obj 26 139 t b;
#X obj 158 139 route bang reset;
#X obj 87 141 t b b;
#X msg 122 262 options;
#X obj 158 77 route list;
#X obj 122 242 t b b;
#X msg 157 285 column_break_height 24;
#X obj 158 109 route \$1 \$2 \$3 \$4 \$5 \$6 \$7 \$8;
#X obj 26 6 r GUI_initLabels;
#X obj 26 34 route bang start;
#X obj 26 199 uniqsym;
#X msg 26 171 bang;
#X msg 87 171 reset;
#X obj 26 219 list prepend append;
#X obj 26 239 list trim;
#X connect 1 0 7 0;
#X connect 2 0 13 0;
#X connect 3 0 14 0;
#X connect 4 2 2 0;
#X connect 5 0 15 0;
#X connect 5 1 8 0;
#X connect 6 0 0 0;
#X connect 7 0 10 0;
#X connect 7 1 10 0;
#X connect 8 0 6 0;
#X connect 8 1 9 0;
#X connect 9 0 0 0;
#X connect 10 0 4 0;
#X connect 10 1 4 0;
#X connect 10 2 4 0;
#X connect 10 3 4 0;
#X connect 10 4 4 0;
#X connect 10 5 4 0;
#X connect 10 6 4 0;
#X connect 10 7 4 0;
#X connect 11 0 12 0;
#X connect 12 0 3 0;
#X connect 12 1 5 0;
#X connect 13 0 16 0;
#X connect 14 0 13 0;
#X connect 15 0 13 0;
#X connect 16 0 17 0;
#X connect 17 0 0 0;
