#N canvas 503 563 450 300 10;
#N canvas 283 71 707 458 getnames 0;
#X obj 231 388 outlet;
#X msg 231 193 compact \, sort \, bang \, dump;
#X msg 338 219 add \$1;
#X obj 231 302 route list;
#X obj 231 324 symbol;
#X obj 231 46 r DSP_setLabel;
#X obj 338 170 beautifysymbol;
#X msg 284 216 reset;
#X obj 231 166 t b;
#X obj 231 106 route \$1;
#X obj 231 136 route bang reset;
#X obj 231 269 index;
#X obj 333 263 print AA;
#X obj 231 241 nop;
#X obj 284 165 t b b;
#X msg 231 350 append \$1;
#X msg 314 352 options;
#X msg 401 16 IN 1_ADC;
#X msg 404 38 IN reset;
#X msg 404 62 IN bang;
#X obj 231 74 route list;
#X connect 1 0 13 0;
#X connect 2 0 13 0;
#X connect 3 0 4 0;
#X connect 4 0 15 0;
#X connect 5 0 20 0;
#X connect 6 0 2 0;
#X connect 7 0 13 0;
#X connect 8 0 1 0;
#X connect 9 0 10 0;
#X connect 10 0 8 0;
#X connect 10 1 14 0;
#X connect 10 2 6 0;
#X connect 11 0 3 0;
#X connect 13 0 11 0;
#X connect 14 0 7 0;
#X connect 14 1 16 0;
#X connect 15 0 0 0;
#X connect 16 0 0 0;
#X connect 20 0 9 0;
#X connect 20 1 9 0;
#X restore 114 98 pd getnames;
#X text 83 39 what if DSP & GUI are on different machines ???;
#X text 80 11 i DO know that this is ugly!;
#X obj 114 147 outlet;
#X connect 0 0 3 0;
