#N canvas 241 58 524 534 10;
#X obj 43 170 r \$1_fromgui;
#X obj 43 212 s \$1_togui;
#X text 45 20 a settable [sendreceive] for interaction with GUI;
#X text 41 289 example::;
#X obj 186 118 loadbang;
#X msg 186 139 1;
#X text 62 407 the index of the channel (e.g. 1) can be set via the
inlet.;
#X text 60 369 values received on "1_BUS1_GAIN" are forwarded to "bus1_gain_togui"
;
#X obj 139 170 makefilename \$2;
#X text 60 340 will receive values on "bus1_gain_fromgui" and forward
it to "1_BUS1_GAIN";
#X text 93 308 [gui_sr bus1_gain %d_BUS1_GAIN];
#X obj 139 39 inlet master_sr;
#X obj 377 295 iem_s;
#X obj 312 179 t b s;
#X obj 312 152 symbol;
#X msg 407 214 set \$1;
#X msg 377 274 set \$1;
#X obj 312 108 inlet sendonce2set;
#X text 66 446 if you send a symbol to the 2nd inlet \, the current
value will be sent with a prepended "set"-message to the receiver given
;
#X obj 312 213 any;
#X obj 312 246 route bang;
#X msg 312 269 set;
#X obj 43 192 sendreceive \$2;
#X connect 0 0 22 0;
#X connect 4 0 5 0;
#X connect 5 0 8 0;
#X connect 8 0 22 1;
#X connect 11 0 8 0;
#X connect 13 0 19 0;
#X connect 13 1 15 0;
#X connect 14 0 13 0;
#X connect 15 0 12 1;
#X connect 16 0 12 0;
#X connect 17 0 14 0;
#X connect 19 0 20 0;
#X connect 20 0 21 0;
#X connect 20 1 16 0;
#X connect 21 0 12 0;
#X connect 22 0 1 0;
#X connect 22 0 19 1;
