#N canvas 1295 159 987 729 10;
#X obj 101 101 cnv 1 14 354 empty \$0-background empty 20 12 0 14 -99865
-66577 0;
#X obj 202 220 inlet;
#X obj 202 332 clip 0 1;
#X obj 103 278 cnv 1 10 175 empty \$0-below empty 20 12 0 14 -257985
-66577 0;
#X obj 103 103 cnv 1 10 175 empty \$0-above empty 20 12 0 14 -261249
-66577 0;
#X obj 101 101 cnv 1 14 175 empty \$0-level empty 20 12 0 14 -99865
-66577 0;
#X obj 202 308 f;
#X obj 202 370 change;
#X obj 202 418 * -352;
#X obj 202 580 line 0 20;
#X obj 202 501 pack 0 100;
#X obj 269 480 r slopetime;
#X obj 202 673 s \$0-level;
#X obj 202 480 t f f b;
#X obj 248 523 f;
#X obj 202 276 t a b;
#X obj 352 91 loadbang;
#X obj 202 617 pack 0 14;
#X msg 202 643 vis_size \$2 \$1;
#X obj 585 79 namecanvas \$0-simplevu-canvas;
#N canvas 0 0 1188 596 arguments 0;
#X obj 303 121 inlet;
#X obj 94 450 outlet width;
#X obj 204 451 outlet height;
#X obj 315 452 outlet min;
#X obj 397 453 outlet max;
#X obj 71 310 select s;
#X obj 71 260 t b b;
#X obj 179 287 makefilename $%d-test;
#X obj 124 332 t b;
#X obj 341 310 select s;
#X obj 341 260 t b b;
#X obj 449 287 makefilename $%d-test;
#X obj 394 332 t b;
#X obj 631 310 select s;
#X obj 631 260 t b b;
#X obj 739 287 makefilename $%d-test;
#X obj 684 332 t b;
#X obj 901 310 select s;
#X obj 901 260 t b b;
#X obj 1009 287 makefilename $%d-test;
#X obj 954 332 t b;
#X obj 303 174 t b b b b;
#X obj 124 378 t f;
#X obj 394 378 t f;
#X obj 684 378 t f;
#X obj 954 378 t f;
#X msg 179 267 1;
#X msg 449 267 2;
#X msg 739 267 3;
#X msg 1009 267 4;
#X obj 71 287 symbol \$1-test;
#X obj 341 287 symbol \$2-test;
#X obj 631 287 symbol \$3-test;
#X obj 901 287 symbol \$4-test;
#X obj 124 354 list append \$1;
#X obj 394 354 list append \$2;
#X obj 684 354 list append \$3;
#X obj 954 354 list append \$4;
#X connect 0 0 21 0;
#X connect 5 1 8 0;
#X connect 6 0 30 0;
#X connect 6 1 26 0;
#X connect 7 0 5 1;
#X connect 8 0 34 0;
#X connect 9 1 12 0;
#X connect 10 0 31 0;
#X connect 10 1 27 0;
#X connect 11 0 9 1;
#X connect 12 0 35 0;
#X connect 13 1 16 0;
#X connect 14 0 32 0;
#X connect 14 1 28 0;
#X connect 15 0 13 1;
#X connect 16 0 36 0;
#X connect 17 1 20 0;
#X connect 18 0 33 0;
#X connect 18 1 29 0;
#X connect 19 0 17 1;
#X connect 20 0 37 0;
#X connect 21 0 6 0;
#X connect 21 1 10 0;
#X connect 21 2 14 0;
#X connect 21 3 18 0;
#X connect 22 0 1 0;
#X connect 23 0 2 0;
#X connect 24 0 3 0;
#X connect 25 0 4 0;
#X connect 26 0 7 0;
#X connect 27 0 11 0;
#X connect 28 0 15 0;
#X connect 29 0 19 0;
#X connect 30 0 5 0;
#X connect 31 0 9 0;
#X connect 32 0 13 0;
#X connect 33 0 17 0;
#X connect 34 0 22 0;
#X connect 35 0 23 0;
#X connect 36 0 24 0;
#X connect 37 0 25 0;
#X restore 465 177 pd arguments;
#X obj 436 152 t b b;
#X obj 436 233 route 0;
#X msg 376 116 bang;
#N canvas 456 155 913 496 resize 0;
#X obj 119 343 s \$0-background;
#X obj 396 211 s \$0-simplevu-canvas;
#X msg 396 187 donecanvasdialog 0 0 3 0 -1 1 1 \$1 \$2 100 100;
#X obj 133 320 s \$0-level;
#X obj 396 162 pack 16 356;
#X obj 119 97 unpack;
#X obj 119 117 - 2;
#X obj 158 117 - 2;
#X obj 119 140 pack;
#X obj 119 286 t a a;
#X obj 119 38 inlet;
#X obj 119 68 t l l l;
#X msg 119 162 pos 101 101 \, vis_size \$1 \$2;
#X connect 2 0 1 0;
#X connect 4 0 2 0;
#X connect 5 0 6 0;
#X connect 5 1 7 0;
#X connect 6 0 8 0;
#X connect 7 0 8 1;
#X connect 8 0 12 0;
#X connect 9 0 0 0;
#X connect 9 1 3 0;
#X connect 10 0 11 0;
#X connect 11 0 5 0;
#X connect 11 2 4 0;
#X connect 12 0 9 0;
#X restore 436 521 pd resize;
#X obj 544 491 s \$0-above;
#X obj 468 491 s \$0-below;
#X obj 468 463 route below above;
#N canvas 0 0 450 300 constraints 0;
#X obj 89 28 inlet;
#X obj 89 253 outlet;
#X obj 89 60 unpack 0 0 0 0;
#X obj 89 230 pack 0 0 0 0;
#X obj 89 125 max 10;
#X obj 116 154 max 10;
#N canvas 0 0 450 433 sort 0;
#X obj 104 43 inlet min?;
#X obj 226 43 inlet max?;
#X obj 104 71 pack;
#X obj 104 98 t l l;
#X obj 157 120 >;
#X obj 104 193 t l l;
#X obj 104 232 spigot 1;
#X obj 213 232 spigot 0;
#X msg 213 255 \$2 \$1;
#X obj 91 313 outlet min;
#X obj 212 313 outlet max;
#X obj 104 283 unpack;
#X obj 157 163 t f f;
#X obj 157 192 == 0;
#X obj 266 196 != 0;
#X connect 0 0 2 0;
#X connect 1 0 2 1;
#X connect 2 0 3 0;
#X connect 3 0 5 0;
#X connect 3 1 4 0;
#X connect 4 0 12 0;
#X connect 5 0 6 0;
#X connect 5 1 7 0;
#X connect 6 0 11 0;
#X connect 7 0 8 0;
#X connect 8 0 11 0;
#X connect 11 0 9 0;
#X connect 11 1 10 0;
#X connect 12 0 13 0;
#X connect 12 1 14 0;
#X connect 13 0 6 1;
#X connect 14 0 7 1;
#X restore 167 151 pd sort;
#X connect 0 0 2 0;
#X connect 2 0 4 0;
#X connect 2 1 5 0;
#X connect 2 2 6 0;
#X connect 2 3 6 1;
#X connect 3 0 1 0;
#X connect 4 0 3 0;
#X connect 5 0 3 1;
#X connect 6 0 3 2;
#X connect 6 1 3 3;
#X restore 436 284 pd constraints;
#N canvas 673 212 833 605 scalebackground 0;
#X obj 111 529 outlet;
#X text 78 37 check size for the 2(?) scales: positive & negative;
#X obj 111 144 inlet w h min max;
#X text 85 74 if the value-range includes 0 \, we have to colors: one
for negative \, one for positive \;;
#X text 86 106 if 0 is not included everything looks "negative";
#X obj 111 170 t l l;
#X msg 143 211 \$3 \$4;
#X obj 143 232 unpack;
#X obj 143 253 < 0;
#X obj 143 274 *;
#X obj 182 253 > 0;
#X obj 111 335 spigot 1;
#X obj 176 335 spigot 0;
#X obj 164 293 t f f;
#X obj 164 313 != 0;
#X obj 229 313 == 0;
#N canvas 226 270 574 476 dualscale 0;
#X obj 89 36 inlet;
#X obj 179 426 outlet above;
#X obj 89 426 outlet below;
#X text 150 38 w h min max;
#X text 59 13 complex case: we need 2 scales \, split at "0";
#X obj 89 109 unpack 0 0 0 0;
#X obj 89 72 t l l;
#X msg 229 100 \$4 \$3;
#X obj 229 121 -;
#X obj 152 174 /;
#X obj 184 175 /;
#X obj 134 150 t f f;
#X obj 166 202 *;
#X obj 134 202 *;
#X text 171 221 h+;
#X text 136 221 h-;
#X obj 89 290 t l l;
#X obj 205 235 t f f;
#X obj 89 265 pack 0 0 0 0;
#X obj 237 256 + 103;
#X obj 116 238 * -1;
#X msg 89 334 vis_size \$1 \$2 \, pos 103 \$4;
#X msg 179 362 vis_size \$1 \$3 \, pos 103 103;
#X connect 0 0 6 0;
#X connect 5 0 18 0;
#X connect 5 1 11 0;
#X connect 5 2 9 0;
#X connect 5 3 10 0;
#X connect 6 0 5 0;
#X connect 6 1 7 0;
#X connect 7 0 8 0;
#X connect 8 0 9 1;
#X connect 8 0 10 1;
#X connect 9 0 13 1;
#X connect 10 0 12 1;
#X connect 11 0 13 0;
#X connect 11 1 12 0;
#X connect 12 0 17 0;
#X connect 13 0 20 0;
#X connect 16 0 21 0;
#X connect 16 1 22 0;
#X connect 17 0 18 2;
#X connect 17 1 19 0;
#X connect 18 0 16 0;
#X connect 19 0 18 3;
#X connect 20 0 18 1;
#X connect 21 0 2 0;
#X connect 22 0 1 0;
#X restore 111 396 pd dualscale;
#N canvas 745 97 450 300 singlescale 0;
#X obj 89 36 inlet;
#X text 69 9 simple-case: only one scale is needed;
#X obj 89 64 t l b;
#X obj 179 236 outlet above;
#X obj 89 236 outlet below;
#X msg 89 147 vis_size \$1 \$2 \, pos 103 103;
#X msg 179 111 vis_size 0 0 \, pos 0 0;
#X connect 0 0 2 0;
#X connect 2 0 5 0;
#X connect 2 1 6 0;
#X connect 5 0 4 0;
#X connect 6 0 3 0;
#X restore 176 416 pd singlescale;
#N canvas 0 0 450 300 shrink 0;
#X obj 89 112 - 6;
#X obj 120 113 - 6;
#X obj 89 42 inlet;
#X obj 89 162 outlet;
#X obj 89 66 unpack 0 0 0 0;
#X obj 89 137 pack 0 0 0 0;
#X connect 0 0 5 0;
#X connect 1 0 5 1;
#X connect 2 0 4 0;
#X connect 4 0 0 0;
#X connect 4 1 1 0;
#X connect 4 2 5 2;
#X connect 4 3 5 3;
#X connect 5 0 3 0;
#X restore 111 191 pd shrink;
#X obj 111 496 list trim;
#X obj 111 452 list prepend below;
#X obj 271 449 list prepend above;
#X obj 111 312 t l l l;
#X msg 389 485 \$2;
#X obj 389 511 pack 0 0 0;
#X obj 389 536 outlet h min max;
#X connect 2 0 5 0;
#X connect 5 0 18 0;
#X connect 5 1 6 0;
#X connect 6 0 7 0;
#X connect 7 0 8 0;
#X connect 7 0 24 1;
#X connect 7 1 10 0;
#X connect 7 1 24 2;
#X connect 8 0 9 0;
#X connect 9 0 13 0;
#X connect 10 0 9 1;
#X connect 11 0 16 0;
#X connect 12 0 17 0;
#X connect 13 0 14 0;
#X connect 13 1 15 0;
#X connect 14 0 11 1;
#X connect 15 0 12 1;
#X connect 16 0 20 0;
#X connect 16 1 21 0;
#X connect 17 0 20 0;
#X connect 17 1 21 0;
#X connect 18 0 22 0;
#X connect 19 0 0 0;
#X connect 20 0 19 0;
#X connect 21 0 19 0;
#X connect 22 0 11 0;
#X connect 22 1 12 0;
#X connect 22 2 23 0;
#X connect 23 0 24 0;
#X connect 24 0 25 0;
#X restore 468 421 pd scalebackground;
#X obj 376 141 t b b;
#N canvas 726 154 450 551 selectabelsize 0;
#X obj 119 343 s \$0-background;
#X obj 133 320 s \$0-level;
#X obj 119 286 t a a;
#X obj 253 320 s \$0-above;
#X obj 239 343 s \$0-below;
#X obj 234 288 t a a;
#X obj 160 245 t a a;
#X msg 162 213 size \$1;
#X floatatom 165 178 5 0 0 0 - - -;
#X msg 157 148 1;
#X msg 201 152 10;
#X connect 2 0 0 0;
#X connect 2 1 1 0;
#X connect 5 0 4 0;
#X connect 5 1 3 0;
#X connect 6 0 2 0;
#X connect 6 1 5 0;
#X connect 7 0 6 0;
#X connect 8 0 7 0;
#X connect 9 0 8 0;
#X connect 10 0 8 0;
#X restore 421 606 pd selectabelsize;
#X obj 436 322 t l l;
#X obj 436 345 t l l;
#X obj 202 442 + 1;
#N canvas 61 354 686 452 linear 0;
#X obj 155 122 -;
#X obj 137 191 /;
#X obj 137 88 unpack 0 0 0;
#X obj 137 212 t f f;
#X obj 137 240 *;
#X obj 137 27 inlet;
#X text 348 60 0 = max*k+d;
#X text 348 82 -H = min*k+d;
#X obj 169 273 outlet k;
#X obj 137 297 outlet d;
#X text 195 27 H min max;
#X text 343 124 k=H/(max-min);
#X text 341 145 d=-a*k;
#X obj 137 273 * -1;
#X connect 0 0 1 1;
#X connect 1 0 3 0;
#X connect 2 0 1 0;
#X connect 2 1 0 0;
#X connect 2 2 0 1;
#X connect 2 2 4 1;
#X connect 3 0 4 0;
#X connect 3 1 8 0;
#X connect 4 0 13 0;
#X connect 5 0 2 0;
#X connect 13 0 9 0;
#X restore 322 313 pd linear;
#X obj 290 256 t l l;
#X obj 287 284 unpack 0 0 0;
#X obj 202 397 t f;
#X obj 436 199 pack 0 16 356 -1 1;
#X obj 278 213 r \$5;
#X text 144 30 syntax: <width> <height> <min> <max> <receivelabel>
;
#X obj 342 202 f;
#X msg 494 335 \$3;
#X connect 1 0 15 0;
#X connect 2 0 7 0;
#X connect 6 0 2 0;
#X connect 7 0 38 0;
#X connect 8 0 34 0;
#X connect 9 0 17 0;
#X connect 10 0 9 0;
#X connect 11 0 10 1;
#X connect 13 0 10 0;
#X connect 13 1 14 1;
#X connect 13 2 14 0;
#X connect 14 0 9 0;
#X connect 15 0 6 0;
#X connect 16 0 30 0;
#X connect 17 0 18 0;
#X connect 18 0 12 0;
#X connect 20 0 39 1;
#X connect 20 1 39 2;
#X connect 20 2 39 3;
#X connect 20 3 39 4;
#X connect 21 0 39 0;
#X connect 21 1 20 0;
#X connect 22 0 28 0;
#X connect 23 0 30 0;
#X connect 27 0 26 0;
#X connect 27 1 25 0;
#X connect 28 0 32 0;
#X connect 29 0 27 0;
#X connect 29 1 36 0;
#X connect 30 0 42 0;
#X connect 30 1 21 0;
#X connect 32 0 33 0;
#X connect 32 1 43 0;
#X connect 33 0 24 0;
#X connect 33 1 29 0;
#X connect 34 0 13 0;
#X connect 35 0 34 1;
#X connect 35 1 8 1;
#X connect 36 0 37 0;
#X connect 36 1 35 0;
#X connect 37 1 2 1;
#X connect 37 2 2 2;
#X connect 38 0 8 0;
#X connect 39 0 22 0;
#X connect 40 0 15 0;
#X connect 42 0 7 0;
#X connect 43 0 42 1;
#X coords 0 -1 1 1 16 356 2 100 100;
