#N canvas 131 0 854 670 10;
#X obj 548 141 niagara 1;
#X obj 548 161 symbol;
#X obj 598 161 a2l;
#X obj 548 286 l;
#X obj 548 307 iem_s;
#X obj 116 431 netsend 1;
#X msg 578 286 set \$1;
#X obj 578 267 l2s;
#X obj 578 246 pack s s;
#X obj 548 191 t b b s;
#X obj 116 344 r \$0NET_tonetsend;
#X obj 578 226 symbol \$0NET;
#X msg 68 107 bang;
#X msg 669 250 symbol _;
#N canvas 0 0 1249 898 4833-netsendreceive 0;
#X restore 318 416 pd \$0-netsendreceive;
#X msg 94 318 disconnect \, connect \$1 \$2;
#N canvas 0 0 450 300 repeat 0;
#X obj 114 48 inlet;
#X obj 113 262 outlet;
#X obj 114 68 == 0;
#X obj 280 36 inlet;
#X obj 113 228 spigot 1;
#X obj 113 89 change;
#X obj 113 115 t b f;
#X obj 113 149 del 10000;
#X obj 113 181 f;
#X obj 113 207 metro 10000;
#X connect 0 0 2 0;
#X connect 2 0 5 0;
#X connect 3 0 4 1;
#X connect 4 0 1 0;
#X connect 5 0 6 0;
#X connect 6 0 7 0;
#X connect 6 1 8 1;
#X connect 7 0 8 0;
#X connect 8 0 9 0;
#X connect 9 0 4 0;
#X restore 116 498 pd repeat;
#X obj 161 478 tgl 15 0 empty empty empty 0 -6 0 8 -262144 -1 -1 0
1;
#N canvas 452 103 637 585 createur 0;
#X obj 107 55 inlet;
#X obj 159 132 makefilename pd-%d-netsendreceive;
#X obj 129 461 iem_s;
#X msg 159 154 set \$1;
#X obj 129 197 s sendreceive_getName;
#X obj 129 217 r sendreceive_setName;
#X obj 129 413 spigot;
#X msg 181 439 clear;
#X obj 166 351 t b b;
#X msg 166 372 1;
#X msg 137 372 0;
#N canvas 0 0 450 300 make 0;
#X obj 84 18 inlet;
#X obj 84 271 outlet;
#X obj 232 21 inlet;
#X obj 232 43 t b;
#X obj 84 50 t s b;
#X obj 84 192 pack s 0 \$0;
#X obj 114 102 i;
#X obj 143 102 + 20;
#X msg 130 79 0;
#X msg 84 222 obj 50 \$2 NET/helper/sendreceive2net \$1 \$3;
#X connect 0 0 4 0;
#X connect 2 0 3 0;
#X connect 3 0 8 0;
#X connect 4 0 5 0;
#X connect 4 1 6 0;
#X connect 5 0 9 0;
#X connect 6 0 7 0;
#X connect 6 0 5 1;
#X connect 7 0 6 1;
#X connect 8 0 6 1;
#X connect 9 0 1 0;
#X restore 137 316 pd make objects;
#X obj 159 112 i \$0;
#X obj 107 81 t b b;
#X obj 107 351 t b b;
#X msg 107 439 loadbang;
#X obj 107 251 t b b;
#N canvas 0 0 450 300 names 0;
#X obj 109 67 inlet;
#X obj 168 64 inlet;
#X obj 238 59 inlet;
#X obj 168 218 outlet;
#X text 246 41 reset;
#X text 114 52 doit;
#X text 168 49 names;
#X obj 238 92 t b;
#X msg 168 102 add \$1;
#X msg 109 116 dump;
#X obj 168 170 relay list;
#X msg 168 190 symbol \$1;
#X obj 109 92 t b;
#X msg 238 117 reset;
#X obj 168 139 index 100 1;
#X connect 0 0 12 0;
#X connect 1 0 8 0;
#X connect 2 0 7 0;
#X connect 7 0 13 0;
#X connect 8 0 14 0;
#X connect 9 0 14 0;
#X connect 10 0 11 0;
#X connect 11 0 3 0;
#X connect 12 0 9 0;
#X connect 13 0 14 0;
#X connect 14 0 10 0;
#X restore 137 272 pd names;
#X msg 173 58 bang;
#X obj 107 173 t b b b b b;
#X connect 0 0 13 0;
#X connect 1 0 3 0;
#X connect 3 0 2 1;
#X connect 5 0 17 1;
#X connect 6 0 2 0;
#X connect 7 0 2 0;
#X connect 8 0 9 0;
#X connect 8 1 7 0;
#X connect 9 0 6 1;
#X connect 10 0 6 1;
#X connect 11 0 6 0;
#X connect 12 0 1 0;
#X connect 13 0 19 0;
#X connect 13 1 12 0;
#X connect 14 0 15 0;
#X connect 14 1 10 0;
#X connect 15 0 2 0;
#X connect 16 0 14 0;
#X connect 16 1 17 0;
#X connect 17 0 11 0;
#X connect 18 0 13 0;
#X connect 19 0 16 0;
#X connect 19 1 4 0;
#X connect 19 2 8 0;
#X connect 19 3 17 2;
#X connect 19 4 11 1;
#X restore 318 292 pd createur;
#X obj 280 81 t b b b b;
#X msg 350 266 bang;
#X obj 215 13 inlet;
#X obj 116 363 spigot;
#X obj 116 454 tgl 15 0 empty empty empty 0 -6 0 8 -262144 -1 -1 0
1;
#X obj 116 472 t f f;
#X obj 116 382 t a a;
#X obj 620 396 outlet send;
#X obj 722 396 outlet receive;
#X obj 468 96 t a a;
#X obj 468 73 netreceive \$1 1;
#X obj 469 120 route pd NET;
#X obj 392 159 route connect;
#X text 492 10 [netsendreceive <receivport> <sendhost:sendport>];
#X obj 215 42 relay symbol;
#X obj 215 63 t b s;
#X obj 94 285 s2l :;
#X obj 392 178 symbol;
#X obj 94 258 symbol \$2;
#X text 258 12 <sendhost:sendport>;
#X obj 700 52 inlet send;
#X obj 700 74 pp send;
#X obj 700 94 s \$0NET_tonetsend;
#X msg 209 431 disconnect;
#X connect 0 0 1 0;
#X connect 0 1 2 0;
#X connect 1 0 9 0;
#X connect 2 0 3 1;
#X connect 3 0 4 0;
#X connect 5 0 23 0;
#X connect 6 0 4 1;
#X connect 7 0 6 0;
#X connect 8 0 7 0;
#X connect 9 0 3 0;
#X connect 9 1 11 0;
#X connect 9 2 8 1;
#X connect 10 0 22 0;
#X connect 11 0 8 0;
#X connect 12 0 37 0;
#X connect 13 0 7 1;
#X connect 15 0 5 0;
#X connect 16 0 37 0;
#X connect 17 0 16 1;
#X connect 19 0 37 0;
#X connect 19 2 18 0;
#X connect 19 3 13 0;
#X connect 20 0 18 0;
#X connect 21 0 33 0;
#X connect 22 0 25 0;
#X connect 23 0 24 0;
#X connect 24 0 16 0;
#X connect 24 1 22 1;
#X connect 25 0 5 0;
#X connect 25 1 26 0;
#X connect 28 0 30 0;
#X connect 28 1 27 0;
#X connect 29 0 28 0;
#X connect 30 1 31 0;
#X connect 30 2 0 0;
#X connect 31 0 36 0;
#X connect 33 0 34 0;
#X connect 33 1 19 0;
#X connect 34 0 19 0;
#X connect 34 1 37 1;
#X connect 35 0 15 0;
#X connect 36 0 34 0;
#X connect 37 0 35 0;
#X connect 39 0 40 0;
#X connect 40 0 41 0;
#X connect 42 0 5 0;
