#N canvas 131 0 835 451 10;
#X obj 468 118 route pd;
#X obj 519 141 niagara 1;
#X obj 519 161 symbol;
#X obj 569 161 a2l;
#X obj 519 286 l;
#X obj 519 307 iem_s;
#X obj 74 221 netsend 1;
#X msg 549 286 set \$1;
#X obj 549 267 l2s;
#X obj 549 246 pack s s;
#X obj 519 191 t b b s;
#X obj 74 199 r \$0NET_tonetsend;
#X obj 549 226 symbol \$0NET;
#X msg 94 136 bang;
#X msg 640 250 symbol _;
#N canvas 388 99 450 300 1001-netsendreceive 0;
#X restore 318 326 pd \$0-netsendreceive;
#X text 373 24 [netsendreceive <sendhost> <sendport> <receiveport>]
;
#X obj 94 158 l \$1 \$2;
#X msg 94 178 disconnect \, connect \$1 \$2;
#X obj 468 91 netreceive \$3 1;
#N canvas 0 0 450 300 repeat 0;
#X obj 114 48 inlet;
#X obj 114 152 outlet;
#X obj 114 68 == 0;
#X obj 114 97 metro 5000;
#X obj 280 36 inlet;
#X obj 114 118 spigot 1;
#X connect 0 0 2 0;
#X connect 2 0 3 0;
#X connect 3 0 5 0;
#X connect 4 0 5 1;
#X connect 5 0 1 0;
#X restore 74 256 pd repeat;
#X obj 152 258 tgl 15 0 empty empty empty 0 -6 0 8 -262144 -1 -1 0
1;
#N canvas 0 0 637 585 createur 0;
#X obj 107 55 inlet;
#X obj 159 132 makefilename pd-%d-netsendreceive;
#X obj 129 461 iem_s;
#X msg 159 154 set \$1;
#X obj 129 197 s sendreceive_getName;
#X obj 129 217 r sendreceive_setName;
#X obj 129 413 spigot;
#X msg 181 439 clear;
#X obj 166 351 t b b;
#X msg 166 372 1;
#X msg 137 372 0;
#N canvas 0 0 450 300 make 0;
#X obj 84 18 inlet;
#X obj 84 271 outlet;
#X obj 232 21 inlet;
#X obj 232 43 t b;
#X obj 84 50 t s b;
#X obj 84 192 pack s 0 \$0;
#X obj 114 102 i;
#X obj 143 102 + 20;
#X msg 130 79 0;
#X msg 84 222 obj 50 \$2 NET/helper/sendreceive2net \$1 \$3;
#X connect 0 0 4 0;
#X connect 2 0 3 0;
#X connect 3 0 8 0;
#X connect 4 0 5 0;
#X connect 4 1 6 0;
#X connect 5 0 9 0;
#X connect 6 0 7 0;
#X connect 6 0 5 1;
#X connect 7 0 6 1;
#X connect 8 0 6 1;
#X connect 9 0 1 0;
#X restore 137 316 pd make objects;
#X obj 159 112 i \$0;
#X obj 107 81 t b b;
#X obj 107 351 t b b;
#X msg 107 439 loadbang;
#X obj 107 251 t b b;
#N canvas 0 0 450 300 names 0;
#X obj 109 67 inlet;
#X obj 168 64 inlet;
#X obj 238 59 inlet;
#X obj 168 218 outlet;
#X text 246 41 reset;
#X text 114 52 doit;
#X text 168 49 names;
#X obj 168 139 index;
#X msg 238 122 reset;
#X obj 238 97 t b;
#X msg 168 102 add \$1;
#X msg 109 116 dump;
#X obj 168 170 relay list;
#X msg 168 190 symbol \$1;
#X obj 109 92 t b;
#X connect 0 0 14 0;
#X connect 1 0 10 0;
#X connect 2 0 9 0;
#X connect 7 0 12 0;
#X connect 8 0 7 0;
#X connect 9 0 8 0;
#X connect 10 0 7 0;
#X connect 11 0 7 0;
#X connect 12 0 13 0;
#X connect 13 0 3 0;
#X connect 14 0 11 0;
#X restore 137 272 pd names;
#X obj 107 173 t b b b b;
#X connect 0 0 13 0;
#X connect 1 0 3 0;
#X connect 3 0 2 1;
#X connect 5 0 17 1;
#X connect 6 0 2 0;
#X connect 7 0 2 0;
#X connect 8 0 9 0;
#X connect 8 1 7 0;
#X connect 9 0 6 1;
#X connect 10 0 6 1;
#X connect 11 0 6 0;
#X connect 12 0 1 0;
#X connect 13 0 18 0;
#X connect 13 1 12 0;
#X connect 14 0 15 0;
#X connect 14 1 10 0;
#X connect 15 0 2 0;
#X connect 16 0 14 0;
#X connect 16 1 17 0;
#X connect 17 0 11 0;
#X connect 18 0 16 0;
#X connect 18 1 4 0;
#X connect 18 2 8 0;
#X connect 18 3 17 2;
#X restore 318 292 pd createur;
#X obj 280 33 loadbang;
#X obj 280 61 t b b b b;
#X msg 350 266 bang;
#X connect 0 1 1 0;
#X connect 1 0 2 0;
#X connect 1 1 3 0;
#X connect 2 0 10 0;
#X connect 3 0 4 1;
#X connect 4 0 5 0;
#X connect 6 0 20 0;
#X connect 7 0 5 1;
#X connect 8 0 7 0;
#X connect 9 0 8 0;
#X connect 10 0 4 0;
#X connect 10 1 12 0;
#X connect 10 2 9 1;
#X connect 11 0 6 0;
#X connect 12 0 9 0;
#X connect 13 0 17 0;
#X connect 14 0 8 1;
#X connect 17 0 18 0;
#X connect 18 0 6 0;
#X connect 19 0 0 0;
#X connect 20 0 17 0;
#X connect 21 0 20 1;
#X connect 23 0 24 0;
#X connect 24 0 13 0;
#X connect 24 2 22 0;
#X connect 24 3 14 0;
#X connect 25 0 22 0;
