#N canvas 369 580 720 340 10;
#X msg 126 203 \; pd dsp \$1;
#X obj 126 180 f;
#X obj 262 182 dsp;
#X obj 262 207 pack;
#X floatatom 172 185 5 0 0 0 - - -;
#X obj 458 165 s DSP_getLabel;
#X obj 436 82 symbol;
#X msg 488 142 \$1 reset;
#X obj 436 107 t s s s;
#X obj 428 198 send DSP_setLabel;
#X msg 428 141 \$1 bang;
#X obj 165 32 inlet;
#X obj 161 112 print send;
#X obj 161 93 spigot;
#X obj 211 91 tgl 15 0 empty empty empty 0 -6 0 8 -262144 -1 -1 0 1
;
#X obj 271 93 spigot;
#X obj 321 91 tgl 15 0 empty empty empty 0 -6 0 8 -262144 -1 -1 0 1
;
#X obj 271 112 print receive;
#X msg 214 33 bang;
#X obj 349 31 r DSP_NET;
#X obj 165 60 autonet 6666 localhost:6667;
#X obj 436 60 sendreceive DSP_getLabels;
#X obj 432 234 r DSP_setLabel;
#X obj 432 279 s GLOBAL_NETSEND;
#X obj 432 256 list prepend send DSP_setLabel;
#X obj 262 260 s DSP_NET;
#X msg 262 235 DSP_CPU \$1 \$2;
#X obj 126 155 r DSP;
#X connect 1 0 0 0;
#X connect 1 0 4 0;
#X connect 2 0 3 0;
#X connect 2 1 3 1;
#X connect 3 0 26 0;
#X connect 6 0 8 0;
#X connect 7 0 9 0;
#X connect 8 0 10 0;
#X connect 8 1 5 0;
#X connect 8 2 7 0;
#X connect 10 0 9 0;
#X connect 11 0 20 0;
#X connect 13 0 12 0;
#X connect 14 0 13 1;
#X connect 15 0 17 0;
#X connect 16 0 15 1;
#X connect 18 0 20 0;
#X connect 19 0 20 1;
#X connect 20 0 13 0;
#X connect 20 1 15 0;
#X connect 21 0 6 0;
#X connect 22 0 24 0;
#X connect 24 0 23 0;
#X connect 26 0 25 0;
#X connect 27 0 1 0;
