#N canvas 1748 102 770 629 10;
#X msg 126 203 \; pd dsp \$1;
#X obj 126 180 f;
#X obj 232 182 dsp;
#X obj 232 207 pack;
#X floatatom 172 185 5 0 0 0 - - -;
#X obj 162 32 inlet;
#X obj 162 112 print send;
#X obj 162 93 spigot;
#X obj 212 91 tgl 15 0 empty empty empty 0 -6 0 8 -262144 -1 -1 0 1
;
#X obj 271 93 spigot;
#X obj 321 91 tgl 15 0 empty empty empty 0 -6 0 8 -262144 -1 -1 0 1
;
#X obj 271 112 print receive;
#X msg 211 33 bang;
#X obj 342 31 r DSP_NET;
#X obj 162 60 cubemixer_server 6666 localhost:6667;
#X obj 232 260 s DSP_NET;
#X obj 126 155 r /DSP;
#X msg 232 235 /CPU/DSP \$1 \$2;
#X obj 409 30 r GLOBAL_NETSEND;
#N canvas 1480 144 892 652 dsp-labels 0;
#X obj 128 135 s DSP_getLabel;
#X obj 106 52 symbol;
#X msg 209 112 \$1 reset;
#X obj 106 77 t s s s;
#X msg 45 111 \$1 bang;
#X obj 92 224 r DSP_setLabel;
#X obj 132 469 s GLOBAL_NETSEND;
#X symbolatom 168 52 10 0 0 0 - - -;
#X obj 106 30 sendreceive /DSP/LABELS/GET;
#X obj 132 446 list prepend /DSP/LABELS/SET;
#X text 120 246 <ID> <value>|bang|reset;
#X symbolatom 244 75 10 0 0 0 - - -;
#X obj 92 295 list split 1;
#X msg 294 52 bang;
#X obj 92 249 t a;
#X obj 92 271 t a a;
#X obj 132 340 uniqsym;
#X obj 45 313 t a b;
#X obj 132 400 list prepend;
#X msg 232 313 reset;
#X obj 209 292 t a b a;
#X obj 255 336 symbol;
#N canvas 0 0 450 300 serialize 0;
#X obj 59 197 list split 1;
#X obj 59 114 until;
#X obj 59 152 list append;
#X obj 85 81 t b l;
#X obj 189 197 bang;
#X obj 85 48 inlet;
#X obj 59 228 outlet;
#X connect 0 0 6 0;
#X connect 0 1 2 1;
#X connect 0 2 4 0;
#X connect 1 0 2 0;
#X connect 2 0 0 0;
#X connect 3 0 1 0;
#X connect 3 1 2 1;
#X connect 4 0 1 1;
#X connect 5 0 3 0;
#X restore 132 373 pd serialize;
#X text 460 280 this is because we now don't use DSP_setLabel to propagte
the "<id> bang|reset" messages anymore.;
#X text 451 248 NOTE: this used to work with DSP and GUI in the same
instance but does not do so any more;
#X connect 1 0 3 0;
#X connect 1 0 7 0;
#X connect 2 0 20 0;
#X connect 3 0 4 0;
#X connect 3 1 0 0;
#X connect 3 2 2 0;
#X connect 4 0 17 0;
#X connect 5 0 14 0;
#X connect 8 0 1 0;
#X connect 9 0 6 0;
#X connect 11 0 3 0;
#X connect 12 1 16 0;
#X connect 13 0 11 0;
#X connect 14 0 15 0;
#X connect 15 0 12 0;
#X connect 16 0 22 0;
#X connect 17 0 9 0;
#X connect 17 1 16 0;
#X connect 18 0 9 0;
#X connect 19 0 16 0;
#X connect 20 0 9 0;
#X connect 20 1 19 0;
#X connect 20 2 21 0;
#X connect 21 0 18 1;
#X connect 22 0 18 0;
#X restore 237 299 pd dsp-labels;
#X connect 1 0 0 0;
#X connect 1 0 4 0;
#X connect 2 0 3 0;
#X connect 2 1 3 1;
#X connect 3 0 17 0;
#X connect 5 0 14 0;
#X connect 7 0 6 0;
#X connect 8 0 7 1;
#X connect 9 0 11 0;
#X connect 10 0 9 1;
#X connect 12 0 14 0;
#X connect 13 0 14 1;
#X connect 14 0 7 0;
#X connect 14 1 9 0;
#X connect 16 0 1 0;
#X connect 17 0 15 0;
#X connect 18 0 14 1;
