#N canvas 369 580 720 290 10;
#X obj 126 155 sendreceive DSP;
#X msg 126 203 \; pd dsp \$1;
#X obj 126 180 f;
#X obj 262 182 dsp;
#X obj 262 207 pack;
#X obj 262 236 sendreceive DSP_CPU;
#X floatatom 172 185 5 0 0 0 - - -;
#X obj 436 60 sendreceive DSP_getLabels;
#X obj 458 165 s DSP_getLabel;
#X obj 436 82 symbol;
#X msg 488 142 \$1 reset;
#X obj 436 107 t s s s;
#X obj 431 234 sendreceive DSP_setLabel;
#X obj 428 198 send DSP_setLabel;
#X msg 428 141 \$1 bang;
#X obj 165 32 inlet;
#X obj 161 112 print send;
#X obj 161 93 spigot;
#X obj 211 91 tgl 15 0 empty empty empty 0 -6 0 8 -262144 -1 -1 0 1
;
#X obj 271 93 spigot;
#X obj 321 91 tgl 15 0 empty empty empty 0 -6 0 8 -262144 -1 -1 0 1
;
#X obj 271 112 print receive;
#X msg 214 33 bang;
#X obj 349 31 r DSP_NET;
#X obj 165 60 autonet 6666 localhost:6667;
#X connect 0 0 2 0;
#X connect 2 0 1 0;
#X connect 2 0 6 0;
#X connect 3 0 4 0;
#X connect 3 1 4 1;
#X connect 4 0 5 0;
#X connect 7 0 9 0;
#X connect 9 0 11 0;
#X connect 10 0 13 0;
#X connect 11 0 14 0;
#X connect 11 1 8 0;
#X connect 11 2 10 0;
#X connect 14 0 13 0;
#X connect 15 0 24 0;
#X connect 17 0 16 0;
#X connect 18 0 17 1;
#X connect 19 0 21 0;
#X connect 20 0 19 1;
#X connect 22 0 24 0;
#X connect 23 0 24 1;
#X connect 24 0 17 0;
#X connect 24 1 19 0;
