#N canvas 369 580 720 290 10;
#X obj 126 155 sendreceive DSP;
#X msg 126 203 \; pd dsp \$1;
#X obj 126 180 f;
#X obj 262 182 dsp;
#X obj 262 207 pack;
#X obj 262 236 sendreceive DSP_CPU;
#X obj 162 71 autonet localhost 6667 6666;
#X floatatom 172 185 5 0 0 0 - - -;
#X obj 436 60 sendreceive DSP_getLabels;
#X obj 458 165 s DSP_getLabel;
#X obj 436 82 symbol;
#X msg 488 142 \$1 reset;
#X obj 436 107 t s s s;
#X obj 431 234 sendreceive DSP_setLabel;
#X obj 428 198 send DSP_setLabel;
#X msg 428 141 \$1 bang;
#X connect 0 0 2 0;
#X connect 2 0 1 0;
#X connect 2 0 7 0;
#X connect 3 0 4 0;
#X connect 3 1 4 1;
#X connect 4 0 5 0;
#X connect 8 0 10 0;
#X connect 10 0 12 0;
#X connect 11 0 14 0;
#X connect 12 0 15 0;
#X connect 12 1 9 0;
#X connect 12 2 11 0;
#X connect 15 0 14 0;
