#N canvas 41 651 611 289 10;
#X obj 162 71 autonet localhost 6666 6667;
#X obj 381 179 sendreceive DSP_setLabel;
#X obj 381 155 sendreceive DSP_getLabels;
#X msg 381 129 IN;
#X msg 416 130 AUX;
#X obj 381 45 r GUI_dspNames;
#X obj 381 77 t b b;
#X obj 162 30 r GUInet_init;
#X obj 162 136 print send;
#X obj 162 116 spigot;
#X obj 208 115 tgl 15 0 empty empty empty 0 -6 0 8 -262144 -1 -1 0
1;
#X obj 252 116 spigot;
#X obj 298 115 tgl 15 0 empty empty empty 0 -6 0 8 -262144 -1 -1 1
1;
#X obj 253 136 print receive;
#X connect 0 0 9 0;
#X connect 0 1 11 0;
#X connect 3 0 2 0;
#X connect 4 0 2 0;
#X connect 5 0 6 0;
#X connect 6 0 3 0;
#X connect 6 1 4 0;
#X connect 7 0 0 0;
#X connect 9 0 8 0;
#X connect 10 0 9 1;
#X connect 11 0 13 0;
#X connect 12 0 11 1;
