#N canvas 919 468 842 399 10;
#X obj 164 116 spigot;
#X obj 210 115 tgl 15 0 empty empty empty 0 -6 0 8 -262144 -1 -1 0
1;
#X obj 265 115 spigot;
#X obj 310 115 tgl 15 0 empty empty empty 0 -6 0 8 -262144 -1 -1 0
1;
#X obj 132 49 t b b;
#X obj 364 309 once;
#X obj 265 93 t a b;
#X obj 364 336 outlet reconnection established;
#X obj 154 310 once;
#X obj 154 337 outlet connection established;
#X obj 164 94 t a b;
#X obj 413 29 r GLOBAL_NETSEND;
#X obj 132 28 inlet;
#X obj 164 71 cubemixer_client 6668 localhost:6666;
#X obj 132 219 spigot;
#X obj 178 218 tgl 15 0 empty empty empty 0 -6 0 8 -262144 -1 -1 0
1;
#X obj 233 218 spigot;
#X obj 278 218 tgl 15 0 empty empty empty 0 -6 0 8 -262144 -1 -1 0
1;
#X obj 233 196 t a b;
#X obj 132 197 t a b;
#X obj 132 174 cubemixer_client 6668 localhost:6667;
#X obj 413 50 t a a;
#X obj 164 136 print sendDSP;
#X obj 265 136 print receiveDSP;
#X obj 132 239 print sendGUI;
#X obj 233 239 print receiveGUI;
#X text 458 80 DSP;
#X text 456 171 GUI;
#X connect 0 0 22 0;
#X connect 1 0 0 1;
#X connect 2 0 23 0;
#X connect 3 0 2 1;
#X connect 4 0 20 0;
#X connect 4 1 13 0;
#X connect 5 0 7 0;
#X connect 6 0 2 0;
#X connect 6 1 5 0;
#X connect 8 0 9 0;
#X connect 10 0 0 0;
#X connect 10 1 8 0;
#X connect 11 0 21 0;
#X connect 12 0 4 0;
#X connect 13 0 10 0;
#X connect 13 1 6 0;
#X connect 14 0 24 0;
#X connect 15 0 14 1;
#X connect 16 0 25 0;
#X connect 17 0 16 1;
#X connect 18 0 16 0;
#X connect 19 0 14 0;
#X connect 20 0 19 0;
#X connect 20 1 18 0;
#X connect 21 0 13 1;
#X connect 21 1 20 1;
