#N canvas 566 71 450 463 10;
#X obj 150 297 symbol speakerlayout.txt;
#X obj 150 319 ambi_DecodeToSpeakers 3 3 22 9;
#X obj 119 357 matrix;
#X msg 52 293 write \$1;
#X obj 52 274 symbol output.mtx;
#X obj 52 75 r inoutfile;
#X obj 77 140 unpack s s;
#X obj 52 120 t b l;
#X obj 52 97 list;
#X msg 127 74 speakerlayout.txt output.mtx;
#X connect 0 0 1 0;
#X connect 1 0 2 1;
#X connect 3 0 2 0;
#X connect 4 0 3 0;
#X connect 5 0 8 0;
#X connect 6 0 0 0;
#X connect 6 1 4 1;
#X connect 7 0 4 0;
#X connect 7 1 6 0;
#X connect 8 0 7 0;
#X connect 9 0 8 0;
