#N canvas 66 17 783 678 10;
#X obj 18 44 dsp;
#X obj 18 14 tgl 15 0 empty empty empty 0 -6 0 8 -262144 -1 -1 0 1
;
#X floatatom 18 100 5 0 0 0 - - -;
#X floatatom 33 74 5 0 0 0 - - -;
#X obj 46 347 sig~ 1;
#X obj 89 369 sig~ 2;
#X obj 132 391 sig~ 4;
#X obj 174 413 sig~ 8;
#X obj 216 436 sig~ 16;
#X obj 47 488 unsig~;
#X floatatom 47 512 5 0 0 0 - - -;
#X obj 216 487 unsig~;
#X floatatom 216 511 5 0 0 0 - - -;
#X obj 329 442 any;
#X msg 329 154 bundle 0 0 0 0 0;
#X msg 329 180 bundle 1 1 1 1 1;
#X msg 329 201 bundle 2 2 2 2 2;
#X msg 329 227 bundle 1 0 0 0 0;
#X msg 329 247 bundle 0 1 0 0 0;
#X msg 329 267 bundle 0 0 1 0 0;
#X msg 329 287 bundle 0 0 0 1 0;
#X msg 329 307 bundle 0 0 0 0 1;
#X msg 329 333 bundle 2 0 0 0 0;
#X msg 329 353 bundle 0 2 0 0 0;
#X msg 329 373 bundle 0 0 2 0 0;
#X msg 329 393 bundle 0 0 0 2 0;
#X msg 329 413 bundle 0 0 0 0 2;
#X obj 482 442 pp element;
#X obj 482 419 pack 0 0;
#X obj 482 397 f;
#X floatatom 525 368 4 1 5 0 - - -;
#X floatatom 495 368 4 0 2 0 - - -;
#X obj 472 375 bng 15 250 50 0 empty empty empty 0 -6 0 8 -262144 -1
-1;
#X text 671 16 SIG_OUT = A * SIG_IN;
#X text 234 14 multiplies a n-dimensional signal-in-vector with a dynamic
static (like sig~) signal-matrix to a n-dimensional signal-out-vector
;
#X text 690 34 A is quadratic;
#X text 627 51 dim(SIG_OUT) = dim(SIG_IN) = n;
#X text 233 51 each matrix-column has only one one \, the other elements
are zero;
#X msg 10 179 time 100;
#X msg 12 276 stop;
#X text 27 223 message "time";
#X text 34 236 1.) item <float> interpolation-time in ms;
#X text 51 275 message "stop";
#X text 51 287 interrupts the interpolation;
#X msg 10 205 time 9000;
#X text 264 476 2.arg <float> Nr. of outlets = rows;
#X text 264 465 1.arg <float> Nr. of inlets = columns;
#X text 284 499 from previous state to next state of matrix;
#X text 264 487 3.arg <float> interpolation-time in ms;
#X text 550 347 message "element";
#X text 564 376 2.) item <float> column_index (1 .. nr_columns);
#X text 564 364 1.) item <float> row_index (0 .. nr_rows);
#X text 461 128 message "bundle";
#X text 589 392 where the single one of the column will be placed;
#X text 590 404 if (row-index == 0) -> the column has only zeros;
#X text 464 143 (nr_inlets = nr_columns) <float> row-indices (0 ..
nr_row);
#X text 469 179 if (row-index == 0) -> the column has only zeros;
#X text 468 167 where the single one of each column will be placed
;
#X text 87 15 matrix_bundle_line8~;
#X obj 47 459 matrix_bundle_line8~ 5 2 9000;
#X text 233 77 interpolation of matrix-elements will be done only every
8 samples;
#X connect 0 0 2 0;
#X connect 0 1 3 0;
#X connect 1 0 0 0;
#X connect 4 0 59 0;
#X connect 5 0 59 1;
#X connect 6 0 59 2;
#X connect 7 0 59 3;
#X connect 8 0 59 4;
#X connect 9 0 10 0;
#X connect 11 0 12 0;
#X connect 13 0 59 0;
#X connect 14 0 13 0;
#X connect 15 0 13 0;
#X connect 16 0 13 0;
#X connect 17 0 13 0;
#X connect 18 0 13 0;
#X connect 19 0 13 0;
#X connect 20 0 13 0;
#X connect 21 0 13 0;
#X connect 22 0 13 0;
#X connect 23 0 13 0;
#X connect 24 0 13 0;
#X connect 25 0 13 0;
#X connect 26 0 13 0;
#X connect 27 0 59 0;
#X connect 28 0 27 0;
#X connect 29 0 28 0;
#X connect 30 0 28 1;
#X connect 31 0 29 1;
#X connect 32 0 29 0;
#X connect 38 0 59 0;
#X connect 39 0 59 0;
#X connect 44 0 59 0;
#X connect 59 0 9 0;
#X connect 59 1 11 0;
