#N canvas 255 247 481 451 10;
#X obj 72 181 iem_vu 16 120 empty empty -1 -8 0 8 -66577 -1 1 0;
#X msg 211 165 iem_vu;
#X text 13 17 iem_vu;
#X text 86 17 a new vu-GUI \, with same inputs and outputs as "vu"
;
#X floatatom 54 85 5 -100 12 0 - - -;
#X floatatom 102 85 5 -100 12 0 - - -;
#X text 43 68 rms_db;
#X text 103 68 peak_db;
#X floatatom 181 82 5 -100 12 0 - - -;
#X floatatom 229 82 5 -100 12 0 - - -;
#X text 170 65 rms_db;
#X text 230 65 peak_db;
#X obj 229 100 t b f;
#X obj 227 124 pack;
#X floatatom 61 352 5 -100 12 0 - - -;
#X floatatom 109 352 5 -100 12 0 - - -;
#X text 50 335 rms_db;
#X text 110 335 peak_db;
#X text 93 37 (you cannot change height via properties);
#X connect 0 0 14 0;
#X connect 0 1 15 0;
#X connect 4 0 0 0;
#X connect 5 0 0 1;
#X connect 8 0 13 0;
#X connect 9 0 12 0;
#X connect 12 0 13 0;
#X connect 12 1 13 1;
#X connect 13 0 0 0;
