#N canvas 4 3 1012 718 10;
#X obj 42 118 r to_GUI;
#X floatatom 493 53 5 2 30 0 - - -;
#X floatatom 493 152 5 5 150 0 - - -;
#X msg 493 170 \; to_GUI src_font \$1;
#X text 536 150 pix;
#X obj 42 594 print;
#X obj 42 617 s from_GUI;
#X obj 735 14 r from_GUI;
#X floatatom 655 107 5 0 0 0 - - -;
#X floatatom 695 107 5 0 0 0 - - -;
#X obj 655 85 unpack;
#X obj 493 280 pack;
#X obj 527 280 t b f;
#X floatatom 486 263 5 0 90 0 - - -;
#X floatatom 529 263 5 -720 720 0 - - -;
#X text 696 84 source 1;
#X text 13 71 shift-mouse-drag changes the rotation-angle;
#X text 730 109 degree;
#N canvas 239 3 604 711 colors 0;
#X msg 45 434 \; to_GUI src_col 1 \$1;
#X msg 45 584 \; to_GUI src_col 2 \$1;
#N canvas 16 80 189 98 source_color_2 0;
#X obj 12 27 bng 15 250 50 0 empty empty empty 0 -6 0 8 -262144 -1
-1;
#X msg 12 139 0;
#X obj 12 226 outlet;
#X obj 12 43 bng 15 250 50 0 empty empty empty 0 -6 0 8 -166441 -1
-1;
#X msg 12 160 1;
#X obj 12 59 bng 15 250 50 0 empty empty empty 0 -6 0 8 -66577 -1 -1
;
#X obj 60 27 bng 15 250 50 0 empty empty empty 0 -6 0 8 -261689 -1
-1;
#X msg 12 181 2;
#X msg 60 139 3;
#X obj 76 27 bng 15 250 50 0 empty empty empty 0 -6 0 8 -261681 -1
-1;
#X obj 92 27 bng 15 250 50 0 empty empty empty 0 -6 0 8 -262131 -1
-1;
#X obj 108 27 bng 15 250 50 0 empty empty empty 0 -6 0 8 -225271 -1
-1;
#X obj 124 27 bng 15 250 50 0 empty empty empty 0 -6 0 8 -225280 -1
-1;
#X msg 76 139 4;
#X msg 92 139 5;
#X msg 108 139 6;
#X msg 124 139 7;
#X obj 140 27 bng 15 250 50 0 empty empty empty 0 -6 0 8 -228992 -1
-1;
#X obj 156 27 bng 15 250 50 0 empty empty empty 0 -6 0 8 -257472 -1
-1;
#X msg 140 139 8;
#X msg 156 139 9;
#X obj 28 27 bng 15 250 50 0 empty empty empty 0 -6 0 8 -233017 -1
-1;
#X obj 28 43 bng 15 250 50 0 empty empty empty 0 -6 0 8 -128992 -1
-1;
#X obj 28 59 bng 15 250 50 0 empty empty empty 0 -6 0 8 -33289 -1 -1
;
#X obj 60 43 bng 15 250 50 0 empty empty empty 0 -6 0 8 -258699 -1
-1;
#X obj 76 43 bng 15 250 50 0 empty empty empty 0 -6 0 8 -260818 -1
-1;
#X obj 92 43 bng 15 250 50 0 empty empty empty 0 -6 0 8 -241291 -1
-1;
#X obj 108 43 bng 15 250 50 0 empty empty empty 0 -6 0 8 -24198 -1
-1;
#X obj 124 43 bng 15 250 50 0 empty empty empty 0 -6 0 8 -44926 -1
-1;
#X obj 140 43 bng 15 250 50 0 empty empty empty 0 -6 0 8 -62784 -1
-1;
#X obj 156 43 bng 15 250 50 0 empty empty empty 0 -6 0 8 -250685 -1
-1;
#X msg 60 160 13;
#X msg 76 160 14;
#X msg 92 160 15;
#X msg 108 160 16;
#X msg 124 160 17;
#X msg 140 160 18;
#X msg 156 160 19;
#X msg 28 139 10;
#X msg 28 160 11;
#X msg 28 181 12;
#X obj 44 27 bng 15 250 50 0 empty empty empty 0 -6 0 8 -195568 -1
-1;
#X obj 44 43 bng 15 250 50 0 empty empty empty 0 -6 0 8 -99865 -1 -1
;
#X obj 44 59 bng 15 250 50 0 empty empty empty 0 -6 0 8 -1 -1 -1;
#X obj 60 59 bng 15 250 50 0 empty empty empty 0 -6 0 8 -143491 -1
-1;
#X obj 76 59 bng 15 250 50 0 empty empty empty 0 -6 0 8 -90881 -1 -1
;
#X obj 92 59 bng 15 250 50 0 empty empty empty 0 -6 0 8 -123526 -1
-1;
#X obj 108 59 bng 15 250 50 0 empty empty empty 0 -6 0 8 -42246 -1
-1;
#X obj 124 59 bng 15 250 50 0 empty empty empty 0 -6 0 8 -1109 -1 -1
;
#X obj 140 59 bng 15 250 50 0 empty empty empty 0 -6 0 8 -355 -1 -1
;
#X obj 156 59 bng 15 250 50 0 empty empty empty 0 -6 0 8 -90133 -1
-1;
#X msg 60 181 23;
#X msg 76 181 24;
#X msg 92 181 25;
#X msg 108 181 26;
#X msg 124 181 27;
#X msg 140 181 28;
#X msg 156 181 29;
#X msg 44 139 20;
#X msg 44 160 21;
#X msg 44 181 22;
#X connect 0 0 1 0;
#X connect 1 0 2 0;
#X connect 3 0 4 0;
#X connect 4 0 2 0;
#X connect 5 0 7 0;
#X connect 6 0 8 0;
#X connect 7 0 2 0;
#X connect 8 0 2 0;
#X connect 9 0 13 0;
#X connect 10 0 14 0;
#X connect 11 0 15 0;
#X connect 12 0 16 0;
#X connect 13 0 2 0;
#X connect 14 0 2 0;
#X connect 15 0 2 0;
#X connect 16 0 2 0;
#X connect 17 0 19 0;
#X connect 18 0 20 0;
#X connect 19 0 2 0;
#X connect 20 0 2 0;
#X connect 21 0 38 0;
#X connect 22 0 39 0;
#X connect 23 0 40 0;
#X connect 24 0 31 0;
#X connect 25 0 32 0;
#X connect 26 0 33 0;
#X connect 27 0 34 0;
#X connect 28 0 35 0;
#X connect 29 0 36 0;
#X connect 30 0 37 0;
#X connect 31 0 2 0;
#X connect 32 0 2 0;
#X connect 33 0 2 0;
#X connect 34 0 2 0;
#X connect 35 0 2 0;
#X connect 36 0 2 0;
#X connect 37 0 2 0;
#X connect 38 0 2 0;
#X connect 39 0 2 0;
#X connect 40 0 2 0;
#X connect 41 0 58 0;
#X connect 42 0 59 0;
#X connect 43 0 60 0;
#X connect 44 0 51 0;
#X connect 45 0 52 0;
#X connect 46 0 53 0;
#X connect 47 0 54 0;
#X connect 48 0 55 0;
#X connect 49 0 56 0;
#X connect 50 0 57 0;
#X connect 51 0 2 0;
#X connect 52 0 2 0;
#X connect 53 0 2 0;
#X connect 54 0 2 0;
#X connect 55 0 2 0;
#X connect 56 0 2 0;
#X connect 57 0 2 0;
#X connect 58 0 2 0;
#X connect 59 0 2 0;
#X connect 60 0 2 0;
#X coords 0 0 1 1 200 100 1;
#X restore 45 482 pd source_color_2;
#N canvas 16 80 189 98 source_color_1 0;
#X obj 12 27 bng 15 250 50 0 empty empty empty 0 -6 0 8 -262144 -1
-1;
#X msg 12 139 0;
#X obj 12 226 outlet;
#X obj 12 43 bng 15 250 50 0 empty empty empty 0 -6 0 8 -166441 -1
-1;
#X msg 12 160 1;
#X obj 12 59 bng 15 250 50 0 empty empty empty 0 -6 0 8 -66577 -1 -1
;
#X obj 60 27 bng 15 250 50 0 empty empty empty 0 -6 0 8 -261689 -1
-1;
#X msg 12 181 2;
#X msg 60 139 3;
#X obj 76 27 bng 15 250 50 0 empty empty empty 0 -6 0 8 -261681 -1
-1;
#X obj 92 27 bng 15 250 50 0 empty empty empty 0 -6 0 8 -262131 -1
-1;
#X obj 108 27 bng 15 250 50 0 empty empty empty 0 -6 0 8 -225271 -1
-1;
#X obj 124 27 bng 15 250 50 0 empty empty empty 0 -6 0 8 -225280 -1
-1;
#X msg 76 139 4;
#X msg 92 139 5;
#X msg 108 139 6;
#X msg 124 139 7;
#X obj 140 27 bng 15 250 50 0 empty empty empty 0 -6 0 8 -228992 -1
-1;
#X obj 156 27 bng 15 250 50 0 empty empty empty 0 -6 0 8 -257472 -1
-1;
#X msg 140 139 8;
#X msg 156 139 9;
#X obj 28 27 bng 15 250 50 0 empty empty empty 0 -6 0 8 -233017 -1
-1;
#X obj 28 43 bng 15 250 50 0 empty empty empty 0 -6 0 8 -128992 -1
-1;
#X obj 28 59 bng 15 250 50 0 empty empty empty 0 -6 0 8 -33289 -1 -1
;
#X obj 60 43 bng 15 250 50 0 empty empty empty 0 -6 0 8 -258699 -1
-1;
#X obj 76 43 bng 15 250 50 0 empty empty empty 0 -6 0 8 -260818 -1
-1;
#X obj 92 43 bng 15 250 50 0 empty empty empty 0 -6 0 8 -241291 -1
-1;
#X obj 108 43 bng 15 250 50 0 empty empty empty 0 -6 0 8 -24198 -1
-1;
#X obj 124 43 bng 15 250 50 0 empty empty empty 0 -6 0 8 -44926 -1
-1;
#X obj 140 43 bng 15 250 50 0 empty empty empty 0 -6 0 8 -62784 -1
-1;
#X obj 156 43 bng 15 250 50 0 empty empty empty 0 -6 0 8 -250685 -1
-1;
#X msg 60 160 13;
#X msg 76 160 14;
#X msg 92 160 15;
#X msg 108 160 16;
#X msg 124 160 17;
#X msg 140 160 18;
#X msg 156 160 19;
#X msg 28 139 10;
#X msg 28 160 11;
#X msg 28 181 12;
#X obj 44 27 bng 15 250 50 0 empty empty empty 0 -6 0 8 -195568 -1
-1;
#X obj 44 43 bng 15 250 50 0 empty empty empty 0 -6 0 8 -99865 -1 -1
;
#X obj 44 59 bng 15 250 50 0 empty empty empty 0 -6 0 8 -1 -1 -1;
#X obj 60 59 bng 15 250 50 0 empty empty empty 0 -6 0 8 -143491 -1
-1;
#X obj 76 59 bng 15 250 50 0 empty empty empty 0 -6 0 8 -90881 -1 -1
;
#X obj 92 59 bng 15 250 50 0 empty empty empty 0 -6 0 8 -123526 -1
-1;
#X obj 108 59 bng 15 250 50 0 empty empty empty 0 -6 0 8 -42246 -1
-1;
#X obj 124 59 bng 15 250 50 0 empty empty empty 0 -6 0 8 -1109 -1 -1
;
#X obj 140 59 bng 15 250 50 0 empty empty empty 0 -6 0 8 -355 -1 -1
;
#X obj 156 59 bng 15 250 50 0 empty empty empty 0 -6 0 8 -90133 -1
-1;
#X msg 60 181 23;
#X msg 76 181 24;
#X msg 92 181 25;
#X msg 108 181 26;
#X msg 124 181 27;
#X msg 140 181 28;
#X msg 156 181 29;
#X msg 44 139 20;
#X msg 44 160 21;
#X msg 44 181 22;
#X connect 0 0 1 0;
#X connect 1 0 2 0;
#X connect 3 0 4 0;
#X connect 4 0 2 0;
#X connect 5 0 7 0;
#X connect 6 0 8 0;
#X connect 7 0 2 0;
#X connect 8 0 2 0;
#X connect 9 0 13 0;
#X connect 10 0 14 0;
#X connect 11 0 15 0;
#X connect 12 0 16 0;
#X connect 13 0 2 0;
#X connect 14 0 2 0;
#X connect 15 0 2 0;
#X connect 16 0 2 0;
#X connect 17 0 19 0;
#X connect 18 0 20 0;
#X connect 19 0 2 0;
#X connect 20 0 2 0;
#X connect 21 0 38 0;
#X connect 22 0 39 0;
#X connect 23 0 40 0;
#X connect 24 0 31 0;
#X connect 25 0 32 0;
#X connect 26 0 33 0;
#X connect 27 0 34 0;
#X connect 28 0 35 0;
#X connect 29 0 36 0;
#X connect 30 0 37 0;
#X connect 31 0 2 0;
#X connect 32 0 2 0;
#X connect 33 0 2 0;
#X connect 34 0 2 0;
#X connect 35 0 2 0;
#X connect 36 0 2 0;
#X connect 37 0 2 0;
#X connect 38 0 2 0;
#X connect 39 0 2 0;
#X connect 40 0 2 0;
#X connect 41 0 58 0;
#X connect 42 0 59 0;
#X connect 43 0 60 0;
#X connect 44 0 51 0;
#X connect 45 0 52 0;
#X connect 46 0 53 0;
#X connect 47 0 54 0;
#X connect 48 0 55 0;
#X connect 49 0 56 0;
#X connect 50 0 57 0;
#X connect 51 0 2 0;
#X connect 52 0 2 0;
#X connect 53 0 2 0;
#X connect 54 0 2 0;
#X connect 55 0 2 0;
#X connect 56 0 2 0;
#X connect 57 0 2 0;
#X connect 58 0 2 0;
#X connect 59 0 2 0;
#X connect 60 0 2 0;
#X coords 0 0 1 1 200 100 1;
#X restore 45 332 pd source_color_1;
#N canvas 16 80 189 98 sphere_color 0;
#X obj 12 27 bng 15 250 50 0 empty empty empty 0 -6 0 8 -262144 -1
-1;
#X msg 12 139 0;
#X obj 12 226 outlet;
#X obj 12 43 bng 15 250 50 0 empty empty empty 0 -6 0 8 -166441 -1
-1;
#X msg 12 160 1;
#X obj 12 59 bng 15 250 50 0 empty empty empty 0 -6 0 8 -66577 -1 -1
;
#X obj 60 27 bng 15 250 50 0 empty empty empty 0 -6 0 8 -261689 -1
-1;
#X msg 12 181 2;
#X msg 60 139 3;
#X obj 76 27 bng 15 250 50 0 empty empty empty 0 -6 0 8 -261681 -1
-1;
#X obj 92 27 bng 15 250 50 0 empty empty empty 0 -6 0 8 -262131 -1
-1;
#X obj 108 27 bng 15 250 50 0 empty empty empty 0 -6 0 8 -225271 -1
-1;
#X obj 124 27 bng 15 250 50 0 empty empty empty 0 -6 0 8 -225280 -1
-1;
#X msg 76 139 4;
#X msg 92 139 5;
#X msg 108 139 6;
#X msg 124 139 7;
#X obj 140 27 bng 15 250 50 0 empty empty empty 0 -6 0 8 -228992 -1
-1;
#X obj 156 27 bng 15 250 50 0 empty empty empty 0 -6 0 8 -257472 -1
-1;
#X msg 140 139 8;
#X msg 156 139 9;
#X obj 28 27 bng 15 250 50 0 empty empty empty 0 -6 0 8 -233017 -1
-1;
#X obj 28 43 bng 15 250 50 0 empty empty empty 0 -6 0 8 -128992 -1
-1;
#X obj 28 59 bng 15 250 50 0 empty empty empty 0 -6 0 8 -33289 -1 -1
;
#X obj 60 43 bng 15 250 50 0 empty empty empty 0 -6 0 8 -258699 -1
-1;
#X obj 76 43 bng 15 250 50 0 empty empty empty 0 -6 0 8 -260818 -1
-1;
#X obj 92 43 bng 15 250 50 0 empty empty empty 0 -6 0 8 -241291 -1
-1;
#X obj 108 43 bng 15 250 50 0 empty empty empty 0 -6 0 8 -24198 -1
-1;
#X obj 124 43 bng 15 250 50 0 empty empty empty 0 -6 0 8 -44926 -1
-1;
#X obj 140 43 bng 15 250 50 0 empty empty empty 0 -6 0 8 -62784 -1
-1;
#X obj 156 43 bng 15 250 50 0 empty empty empty 0 -6 0 8 -250685 -1
-1;
#X msg 60 160 13;
#X msg 76 160 14;
#X msg 92 160 15;
#X msg 108 160 16;
#X msg 124 160 17;
#X msg 140 160 18;
#X msg 156 160 19;
#X msg 28 139 10;
#X msg 28 160 11;
#X msg 28 181 12;
#X obj 44 27 bng 15 250 50 0 empty empty empty 0 -6 0 8 -195568 -1
-1;
#X obj 44 43 bng 15 250 50 0 empty empty empty 0 -6 0 8 -99865 -1 -1
;
#X obj 44 59 bng 15 250 50 0 empty empty empty 0 -6 0 8 -1 -1 -1;
#X obj 60 59 bng 15 250 50 0 empty empty empty 0 -6 0 8 -143491 -1
-1;
#X obj 76 59 bng 15 250 50 0 empty empty empty 0 -6 0 8 -90881 -1 -1
;
#X obj 92 59 bng 15 250 50 0 empty empty empty 0 -6 0 8 -123526 -1
-1;
#X obj 108 59 bng 15 250 50 0 empty empty empty 0 -6 0 8 -42246 -1
-1;
#X obj 124 59 bng 15 250 50 0 empty empty empty 0 -6 0 8 -1109 -1 -1
;
#X obj 140 59 bng 15 250 50 0 empty empty empty 0 -6 0 8 -355 -1 -1
;
#X obj 156 59 bng 15 250 50 0 empty empty empty 0 -6 0 8 -90133 -1
-1;
#X msg 60 181 23;
#X msg 76 181 24;
#X msg 92 181 25;
#X msg 108 181 26;
#X msg 124 181 27;
#X msg 140 181 28;
#X msg 156 181 29;
#X msg 44 139 20;
#X msg 44 160 21;
#X msg 44 181 22;
#X connect 0 0 1 0;
#X connect 1 0 2 0;
#X connect 3 0 4 0;
#X connect 4 0 2 0;
#X connect 5 0 7 0;
#X connect 6 0 8 0;
#X connect 7 0 2 0;
#X connect 8 0 2 0;
#X connect 9 0 13 0;
#X connect 10 0 14 0;
#X connect 11 0 15 0;
#X connect 12 0 16 0;
#X connect 13 0 2 0;
#X connect 14 0 2 0;
#X connect 15 0 2 0;
#X connect 16 0 2 0;
#X connect 17 0 19 0;
#X connect 18 0 20 0;
#X connect 19 0 2 0;
#X connect 20 0 2 0;
#X connect 21 0 38 0;
#X connect 22 0 39 0;
#X connect 23 0 40 0;
#X connect 24 0 31 0;
#X connect 25 0 32 0;
#X connect 26 0 33 0;
#X connect 27 0 34 0;
#X connect 28 0 35 0;
#X connect 29 0 36 0;
#X connect 30 0 37 0;
#X connect 31 0 2 0;
#X connect 32 0 2 0;
#X connect 33 0 2 0;
#X connect 34 0 2 0;
#X connect 35 0 2 0;
#X connect 36 0 2 0;
#X connect 37 0 2 0;
#X connect 38 0 2 0;
#X connect 39 0 2 0;
#X connect 40 0 2 0;
#X connect 41 0 58 0;
#X connect 42 0 59 0;
#X connect 43 0 60 0;
#X connect 44 0 51 0;
#X connect 45 0 52 0;
#X connect 46 0 53 0;
#X connect 47 0 54 0;
#X connect 48 0 55 0;
#X connect 49 0 56 0;
#X connect 50 0 57 0;
#X connect 51 0 2 0;
#X connect 52 0 2 0;
#X connect 53 0 2 0;
#X connect 54 0 2 0;
#X connect 55 0 2 0;
#X connect 56 0 2 0;
#X connect 57 0 2 0;
#X connect 58 0 2 0;
#X connect 59 0 2 0;
#X connect 60 0 2 0;
#X coords 0 0 1 1 200 100 1;
#X restore 47 45 pd sphere_color;
#X msg 47 153 \; to_GUI sphere_col \$1;
#N canvas 16 80 189 98 frame_color 0;
#X obj 12 27 bng 15 250 50 0 empty empty empty 0 -6 0 8 -262144 -1
-1;
#X msg 12 139 0;
#X obj 12 226 outlet;
#X obj 12 43 bng 15 250 50 0 empty empty empty 0 -6 0 8 -166441 -1
-1;
#X msg 12 160 1;
#X obj 12 59 bng 15 250 50 0 empty empty empty 0 -6 0 8 -66577 -1 -1
;
#X obj 60 27 bng 15 250 50 0 empty empty empty 0 -6 0 8 -261689 -1
-1;
#X msg 12 181 2;
#X msg 60 139 3;
#X obj 76 27 bng 15 250 50 0 empty empty empty 0 -6 0 8 -261681 -1
-1;
#X obj 92 27 bng 15 250 50 0 empty empty empty 0 -6 0 8 -262131 -1
-1;
#X obj 108 27 bng 15 250 50 0 empty empty empty 0 -6 0 8 -225271 -1
-1;
#X obj 124 27 bng 15 250 50 0 empty empty empty 0 -6 0 8 -225280 -1
-1;
#X msg 76 139 4;
#X msg 92 139 5;
#X msg 108 139 6;
#X msg 124 139 7;
#X obj 140 27 bng 15 250 50 0 empty empty empty 0 -6 0 8 -228992 -1
-1;
#X obj 156 27 bng 15 250 50 0 empty empty empty 0 -6 0 8 -257472 -1
-1;
#X msg 140 139 8;
#X msg 156 139 9;
#X obj 28 27 bng 15 250 50 0 empty empty empty 0 -6 0 8 -233017 -1
-1;
#X obj 28 43 bng 15 250 50 0 empty empty empty 0 -6 0 8 -128992 -1
-1;
#X obj 28 59 bng 15 250 50 0 empty empty empty 0 -6 0 8 -33289 -1 -1
;
#X obj 60 43 bng 15 250 50 0 empty empty empty 0 -6 0 8 -258699 -1
-1;
#X obj 76 43 bng 15 250 50 0 empty empty empty 0 -6 0 8 -260818 -1
-1;
#X obj 92 43 bng 15 250 50 0 empty empty empty 0 -6 0 8 -241291 -1
-1;
#X obj 108 43 bng 15 250 50 0 empty empty empty 0 -6 0 8 -24198 -1
-1;
#X obj 124 43 bng 15 250 50 0 empty empty empty 0 -6 0 8 -44926 -1
-1;
#X obj 140 43 bng 15 250 50 0 empty empty empty 0 -6 0 8 -62784 -1
-1;
#X obj 156 43 bng 15 250 50 0 empty empty empty 0 -6 0 8 -250685 -1
-1;
#X msg 60 160 13;
#X msg 76 160 14;
#X msg 92 160 15;
#X msg 108 160 16;
#X msg 124 160 17;
#X msg 140 160 18;
#X msg 156 160 19;
#X msg 28 139 10;
#X msg 28 160 11;
#X msg 28 181 12;
#X obj 44 27 bng 15 250 50 0 empty empty empty 0 -6 0 8 -195568 -1
-1;
#X obj 44 43 bng 15 250 50 0 empty empty empty 0 -6 0 8 -99865 -1 -1
;
#X obj 44 59 bng 15 250 50 0 empty empty empty 0 -6 0 8 -1 -1 -1;
#X obj 60 59 bng 15 250 50 0 empty empty empty 0 -6 0 8 -143491 -1
-1;
#X obj 76 59 bng 15 250 50 0 empty empty empty 0 -6 0 8 -90881 -1 -1
;
#X obj 92 59 bng 15 250 50 0 empty empty empty 0 -6 0 8 -123526 -1
-1;
#X obj 108 59 bng 15 250 50 0 empty empty empty 0 -6 0 8 -42246 -1
-1;
#X obj 124 59 bng 15 250 50 0 empty empty empty 0 -6 0 8 -1109 -1 -1
;
#X obj 140 59 bng 15 250 50 0 empty empty empty 0 -6 0 8 -355 -1 -1
;
#X obj 156 59 bng 15 250 50 0 empty empty empty 0 -6 0 8 -90133 -1
-1;
#X msg 60 181 23;
#X msg 76 181 24;
#X msg 92 181 25;
#X msg 108 181 26;
#X msg 124 181 27;
#X msg 140 181 28;
#X msg 156 181 29;
#X msg 44 139 20;
#X msg 44 160 21;
#X msg 44 181 22;
#X connect 0 0 1 0;
#X connect 1 0 2 0;
#X connect 3 0 4 0;
#X connect 4 0 2 0;
#X connect 5 0 7 0;
#X connect 6 0 8 0;
#X connect 7 0 2 0;
#X connect 8 0 2 0;
#X connect 9 0 13 0;
#X connect 10 0 14 0;
#X connect 11 0 15 0;
#X connect 12 0 16 0;
#X connect 13 0 2 0;
#X connect 14 0 2 0;
#X connect 15 0 2 0;
#X connect 16 0 2 0;
#X connect 17 0 19 0;
#X connect 18 0 20 0;
#X connect 19 0 2 0;
#X connect 20 0 2 0;
#X connect 21 0 38 0;
#X connect 22 0 39 0;
#X connect 23 0 40 0;
#X connect 24 0 31 0;
#X connect 25 0 32 0;
#X connect 26 0 33 0;
#X connect 27 0 34 0;
#X connect 28 0 35 0;
#X connect 29 0 36 0;
#X connect 30 0 37 0;
#X connect 31 0 2 0;
#X connect 32 0 2 0;
#X connect 33 0 2 0;
#X connect 34 0 2 0;
#X connect 35 0 2 0;
#X connect 36 0 2 0;
#X connect 37 0 2 0;
#X connect 38 0 2 0;
#X connect 39 0 2 0;
#X connect 40 0 2 0;
#X connect 41 0 58 0;
#X connect 42 0 59 0;
#X connect 43 0 60 0;
#X connect 44 0 51 0;
#X connect 45 0 52 0;
#X connect 46 0 53 0;
#X connect 47 0 54 0;
#X connect 48 0 55 0;
#X connect 49 0 56 0;
#X connect 50 0 57 0;
#X connect 51 0 2 0;
#X connect 52 0 2 0;
#X connect 53 0 2 0;
#X connect 54 0 2 0;
#X connect 55 0 2 0;
#X connect 56 0 2 0;
#X connect 57 0 2 0;
#X connect 58 0 2 0;
#X connect 59 0 2 0;
#X connect 60 0 2 0;
#X coords 0 0 1 1 200 100 1;
#X restore 46 189 pd frame_color;
#X msg 46 291 \; to_GUI frame_col \$1;
#N canvas 16 80 189 98 source_color_3 0;
#X obj 12 27 bng 15 250 50 0 empty empty empty 0 -6 0 8 -262144 -1
-1;
#X msg 12 139 0;
#X obj 12 226 outlet;
#X obj 12 43 bng 15 250 50 0 empty empty empty 0 -6 0 8 -166441 -1
-1;
#X msg 12 160 1;
#X obj 12 59 bng 15 250 50 0 empty empty empty 0 -6 0 8 -66577 -1 -1
;
#X obj 60 27 bng 15 250 50 0 empty empty empty 0 -6 0 8 -261689 -1
-1;
#X msg 12 181 2;
#X msg 60 139 3;
#X obj 76 27 bng 15 250 50 0 empty empty empty 0 -6 0 8 -261681 -1
-1;
#X obj 92 27 bng 15 250 50 0 empty empty empty 0 -6 0 8 -262131 -1
-1;
#X obj 108 27 bng 15 250 50 0 empty empty empty 0 -6 0 8 -225271 -1
-1;
#X obj 124 27 bng 15 250 50 0 empty empty empty 0 -6 0 8 -225280 -1
-1;
#X msg 76 139 4;
#X msg 92 139 5;
#X msg 108 139 6;
#X msg 124 139 7;
#X obj 140 27 bng 15 250 50 0 empty empty empty 0 -6 0 8 -228992 -1
-1;
#X obj 156 27 bng 15 250 50 0 empty empty empty 0 -6 0 8 -257472 -1
-1;
#X msg 140 139 8;
#X msg 156 139 9;
#X obj 28 27 bng 15 250 50 0 empty empty empty 0 -6 0 8 -233017 -1
-1;
#X obj 28 43 bng 15 250 50 0 empty empty empty 0 -6 0 8 -128992 -1
-1;
#X obj 28 59 bng 15 250 50 0 empty empty empty 0 -6 0 8 -33289 -1 -1
;
#X obj 60 43 bng 15 250 50 0 empty empty empty 0 -6 0 8 -258699 -1
-1;
#X obj 76 43 bng 15 250 50 0 empty empty empty 0 -6 0 8 -260818 -1
-1;
#X obj 92 43 bng 15 250 50 0 empty empty empty 0 -6 0 8 -241291 -1
-1;
#X obj 108 43 bng 15 250 50 0 empty empty empty 0 -6 0 8 -24198 -1
-1;
#X obj 124 43 bng 15 250 50 0 empty empty empty 0 -6 0 8 -44926 -1
-1;
#X obj 140 43 bng 15 250 50 0 empty empty empty 0 -6 0 8 -62784 -1
-1;
#X obj 156 43 bng 15 250 50 0 empty empty empty 0 -6 0 8 -250685 -1
-1;
#X msg 60 160 13;
#X msg 76 160 14;
#X msg 92 160 15;
#X msg 108 160 16;
#X msg 124 160 17;
#X msg 140 160 18;
#X msg 156 160 19;
#X msg 28 139 10;
#X msg 28 160 11;
#X msg 28 181 12;
#X obj 44 27 bng 15 250 50 0 empty empty empty 0 -6 0 8 -195568 -1
-1;
#X obj 44 43 bng 15 250 50 0 empty empty empty 0 -6 0 8 -99865 -1 -1
;
#X obj 44 59 bng 15 250 50 0 empty empty empty 0 -6 0 8 -1 -1 -1;
#X obj 60 59 bng 15 250 50 0 empty empty empty 0 -6 0 8 -143491 -1
-1;
#X obj 76 59 bng 15 250 50 0 empty empty empty 0 -6 0 8 -90881 -1 -1
;
#X obj 92 59 bng 15 250 50 0 empty empty empty 0 -6 0 8 -123526 -1
-1;
#X obj 108 59 bng 15 250 50 0 empty empty empty 0 -6 0 8 -42246 -1
-1;
#X obj 124 59 bng 15 250 50 0 empty empty empty 0 -6 0 8 -1109 -1 -1
;
#X obj 140 59 bng 15 250 50 0 empty empty empty 0 -6 0 8 -355 -1 -1
;
#X obj 156 59 bng 15 250 50 0 empty empty empty 0 -6 0 8 -90133 -1
-1;
#X msg 60 181 23;
#X msg 76 181 24;
#X msg 92 181 25;
#X msg 108 181 26;
#X msg 124 181 27;
#X msg 140 181 28;
#X msg 156 181 29;
#X msg 44 139 20;
#X msg 44 160 21;
#X msg 44 181 22;
#X connect 0 0 1 0;
#X connect 1 0 2 0;
#X connect 3 0 4 0;
#X connect 4 0 2 0;
#X connect 5 0 7 0;
#X connect 6 0 8 0;
#X connect 7 0 2 0;
#X connect 8 0 2 0;
#X connect 9 0 13 0;
#X connect 10 0 14 0;
#X connect 11 0 15 0;
#X connect 12 0 16 0;
#X connect 13 0 2 0;
#X connect 14 0 2 0;
#X connect 15 0 2 0;
#X connect 16 0 2 0;
#X connect 17 0 19 0;
#X connect 18 0 20 0;
#X connect 19 0 2 0;
#X connect 20 0 2 0;
#X connect 21 0 38 0;
#X connect 22 0 39 0;
#X connect 23 0 40 0;
#X connect 24 0 31 0;
#X connect 25 0 32 0;
#X connect 26 0 33 0;
#X connect 27 0 34 0;
#X connect 28 0 35 0;
#X connect 29 0 36 0;
#X connect 30 0 37 0;
#X connect 31 0 2 0;
#X connect 32 0 2 0;
#X connect 33 0 2 0;
#X connect 34 0 2 0;
#X connect 35 0 2 0;
#X connect 36 0 2 0;
#X connect 37 0 2 0;
#X connect 38 0 2 0;
#X connect 39 0 2 0;
#X connect 40 0 2 0;
#X connect 41 0 58 0;
#X connect 42 0 59 0;
#X connect 43 0 60 0;
#X connect 44 0 51 0;
#X connect 45 0 52 0;
#X connect 46 0 53 0;
#X connect 47 0 54 0;
#X connect 48 0 55 0;
#X connect 49 0 56 0;
#X connect 50 0 57 0;
#X connect 51 0 2 0;
#X connect 52 0 2 0;
#X connect 53 0 2 0;
#X connect 54 0 2 0;
#X connect 55 0 2 0;
#X connect 56 0 2 0;
#X connect 57 0 2 0;
#X connect 58 0 2 0;
#X connect 59 0 2 0;
#X connect 60 0 2 0;
#X coords 0 0 1 1 200 100 1;
#X restore 285 43 pd source_color_3;
#X msg 285 145 \; to_GUI src_col 3 \$1;
#N canvas 16 80 189 98 source_color_4 0;
#X obj 12 27 bng 15 250 50 0 empty empty empty 0 -6 0 8 -262144 -1
-1;
#X msg 12 139 0;
#X obj 12 226 outlet;
#X obj 12 43 bng 15 250 50 0 empty empty empty 0 -6 0 8 -166441 -1
-1;
#X msg 12 160 1;
#X obj 12 59 bng 15 250 50 0 empty empty empty 0 -6 0 8 -66577 -1 -1
;
#X obj 60 27 bng 15 250 50 0 empty empty empty 0 -6 0 8 -261689 -1
-1;
#X msg 12 181 2;
#X msg 60 139 3;
#X obj 76 27 bng 15 250 50 0 empty empty empty 0 -6 0 8 -261681 -1
-1;
#X obj 92 27 bng 15 250 50 0 empty empty empty 0 -6 0 8 -262131 -1
-1;
#X obj 108 27 bng 15 250 50 0 empty empty empty 0 -6 0 8 -225271 -1
-1;
#X obj 124 27 bng 15 250 50 0 empty empty empty 0 -6 0 8 -225280 -1
-1;
#X msg 76 139 4;
#X msg 92 139 5;
#X msg 108 139 6;
#X msg 124 139 7;
#X obj 140 27 bng 15 250 50 0 empty empty empty 0 -6 0 8 -228992 -1
-1;
#X obj 156 27 bng 15 250 50 0 empty empty empty 0 -6 0 8 -257472 -1
-1;
#X msg 140 139 8;
#X msg 156 139 9;
#X obj 28 27 bng 15 250 50 0 empty empty empty 0 -6 0 8 -233017 -1
-1;
#X obj 28 43 bng 15 250 50 0 empty empty empty 0 -6 0 8 -128992 -1
-1;
#X obj 28 59 bng 15 250 50 0 empty empty empty 0 -6 0 8 -33289 -1 -1
;
#X obj 60 43 bng 15 250 50 0 empty empty empty 0 -6 0 8 -258699 -1
-1;
#X obj 76 43 bng 15 250 50 0 empty empty empty 0 -6 0 8 -260818 -1
-1;
#X obj 92 43 bng 15 250 50 0 empty empty empty 0 -6 0 8 -241291 -1
-1;
#X obj 108 43 bng 15 250 50 0 empty empty empty 0 -6 0 8 -24198 -1
-1;
#X obj 124 43 bng 15 250 50 0 empty empty empty 0 -6 0 8 -44926 -1
-1;
#X obj 140 43 bng 15 250 50 0 empty empty empty 0 -6 0 8 -62784 -1
-1;
#X obj 156 43 bng 15 250 50 0 empty empty empty 0 -6 0 8 -250685 -1
-1;
#X msg 60 160 13;
#X msg 76 160 14;
#X msg 92 160 15;
#X msg 108 160 16;
#X msg 124 160 17;
#X msg 140 160 18;
#X msg 156 160 19;
#X msg 28 139 10;
#X msg 28 160 11;
#X msg 28 181 12;
#X obj 44 27 bng 15 250 50 0 empty empty empty 0 -6 0 8 -195568 -1
-1;
#X obj 44 43 bng 15 250 50 0 empty empty empty 0 -6 0 8 -99865 -1 -1
;
#X obj 44 59 bng 15 250 50 0 empty empty empty 0 -6 0 8 -1 -1 -1;
#X obj 60 59 bng 15 250 50 0 empty empty empty 0 -6 0 8 -143491 -1
-1;
#X obj 76 59 bng 15 250 50 0 empty empty empty 0 -6 0 8 -90881 -1 -1
;
#X obj 92 59 bng 15 250 50 0 empty empty empty 0 -6 0 8 -123526 -1
-1;
#X obj 108 59 bng 15 250 50 0 empty empty empty 0 -6 0 8 -42246 -1
-1;
#X obj 124 59 bng 15 250 50 0 empty empty empty 0 -6 0 8 -1109 -1 -1
;
#X obj 140 59 bng 15 250 50 0 empty empty empty 0 -6 0 8 -355 -1 -1
;
#X obj 156 59 bng 15 250 50 0 empty empty empty 0 -6 0 8 -90133 -1
-1;
#X msg 60 181 23;
#X msg 76 181 24;
#X msg 92 181 25;
#X msg 108 181 26;
#X msg 124 181 27;
#X msg 140 181 28;
#X msg 156 181 29;
#X msg 44 139 20;
#X msg 44 160 21;
#X msg 44 181 22;
#X connect 0 0 1 0;
#X connect 1 0 2 0;
#X connect 3 0 4 0;
#X connect 4 0 2 0;
#X connect 5 0 7 0;
#X connect 6 0 8 0;
#X connect 7 0 2 0;
#X connect 8 0 2 0;
#X connect 9 0 13 0;
#X connect 10 0 14 0;
#X connect 11 0 15 0;
#X connect 12 0 16 0;
#X connect 13 0 2 0;
#X connect 14 0 2 0;
#X connect 15 0 2 0;
#X connect 16 0 2 0;
#X connect 17 0 19 0;
#X connect 18 0 20 0;
#X connect 19 0 2 0;
#X connect 20 0 2 0;
#X connect 21 0 38 0;
#X connect 22 0 39 0;
#X connect 23 0 40 0;
#X connect 24 0 31 0;
#X connect 25 0 32 0;
#X connect 26 0 33 0;
#X connect 27 0 34 0;
#X connect 28 0 35 0;
#X connect 29 0 36 0;
#X connect 30 0 37 0;
#X connect 31 0 2 0;
#X connect 32 0 2 0;
#X connect 33 0 2 0;
#X connect 34 0 2 0;
#X connect 35 0 2 0;
#X connect 36 0 2 0;
#X connect 37 0 2 0;
#X connect 38 0 2 0;
#X connect 39 0 2 0;
#X connect 40 0 2 0;
#X connect 41 0 58 0;
#X connect 42 0 59 0;
#X connect 43 0 60 0;
#X connect 44 0 51 0;
#X connect 45 0 52 0;
#X connect 46 0 53 0;
#X connect 47 0 54 0;
#X connect 48 0 55 0;
#X connect 49 0 56 0;
#X connect 50 0 57 0;
#X connect 51 0 2 0;
#X connect 52 0 2 0;
#X connect 53 0 2 0;
#X connect 54 0 2 0;
#X connect 55 0 2 0;
#X connect 56 0 2 0;
#X connect 57 0 2 0;
#X connect 58 0 2 0;
#X connect 59 0 2 0;
#X connect 60 0 2 0;
#X coords 0 0 1 1 200 100 1;
#X restore 285 193 pd source_color_4;
#X msg 285 296 \; to_GUI src_col 4 \$1;
#X msg 287 453 \; to_GUI src_col 5 \$1;
#N canvas 16 80 189 98 source_color_5 0;
#X obj 12 27 bng 15 250 50 0 empty empty empty 0 -6 0 8 -262144 -1
-1;
#X msg 12 139 0;
#X obj 12 226 outlet;
#X obj 12 43 bng 15 250 50 0 empty empty empty 0 -6 0 8 -166441 -1
-1;
#X msg 12 160 1;
#X obj 12 59 bng 15 250 50 0 empty empty empty 0 -6 0 8 -66577 -1 -1
;
#X obj 60 27 bng 15 250 50 0 empty empty empty 0 -6 0 8 -261689 -1
-1;
#X msg 12 181 2;
#X msg 60 139 3;
#X obj 76 27 bng 15 250 50 0 empty empty empty 0 -6 0 8 -261681 -1
-1;
#X obj 92 27 bng 15 250 50 0 empty empty empty 0 -6 0 8 -262131 -1
-1;
#X obj 108 27 bng 15 250 50 0 empty empty empty 0 -6 0 8 -225271 -1
-1;
#X obj 124 27 bng 15 250 50 0 empty empty empty 0 -6 0 8 -225280 -1
-1;
#X msg 76 139 4;
#X msg 92 139 5;
#X msg 108 139 6;
#X msg 124 139 7;
#X obj 140 27 bng 15 250 50 0 empty empty empty 0 -6 0 8 -228992 -1
-1;
#X obj 156 27 bng 15 250 50 0 empty empty empty 0 -6 0 8 -257472 -1
-1;
#X msg 140 139 8;
#X msg 156 139 9;
#X obj 28 27 bng 15 250 50 0 empty empty empty 0 -6 0 8 -233017 -1
-1;
#X obj 28 43 bng 15 250 50 0 empty empty empty 0 -6 0 8 -128992 -1
-1;
#X obj 28 59 bng 15 250 50 0 empty empty empty 0 -6 0 8 -33289 -1 -1
;
#X obj 60 43 bng 15 250 50 0 empty empty empty 0 -6 0 8 -258699 -1
-1;
#X obj 76 43 bng 15 250 50 0 empty empty empty 0 -6 0 8 -260818 -1
-1;
#X obj 92 43 bng 15 250 50 0 empty empty empty 0 -6 0 8 -241291 -1
-1;
#X obj 108 43 bng 15 250 50 0 empty empty empty 0 -6 0 8 -24198 -1
-1;
#X obj 124 43 bng 15 250 50 0 empty empty empty 0 -6 0 8 -44926 -1
-1;
#X obj 140 43 bng 15 250 50 0 empty empty empty 0 -6 0 8 -62784 -1
-1;
#X obj 156 43 bng 15 250 50 0 empty empty empty 0 -6 0 8 -250685 -1
-1;
#X msg 60 160 13;
#X msg 76 160 14;
#X msg 92 160 15;
#X msg 108 160 16;
#X msg 124 160 17;
#X msg 140 160 18;
#X msg 156 160 19;
#X msg 28 139 10;
#X msg 28 160 11;
#X msg 28 181 12;
#X obj 44 27 bng 15 250 50 0 empty empty empty 0 -6 0 8 -195568 -1
-1;
#X obj 44 43 bng 15 250 50 0 empty empty empty 0 -6 0 8 -99865 -1 -1
;
#X obj 44 59 bng 15 250 50 0 empty empty empty 0 -6 0 8 -1 -1 -1;
#X obj 60 59 bng 15 250 50 0 empty empty empty 0 -6 0 8 -143491 -1
-1;
#X obj 76 59 bng 15 250 50 0 empty empty empty 0 -6 0 8 -90881 -1 -1
;
#X obj 92 59 bng 15 250 50 0 empty empty empty 0 -6 0 8 -123526 -1
-1;
#X obj 108 59 bng 15 250 50 0 empty empty empty 0 -6 0 8 -42246 -1
-1;
#X obj 124 59 bng 15 250 50 0 empty empty empty 0 -6 0 8 -1109 -1 -1
;
#X obj 140 59 bng 15 250 50 0 empty empty empty 0 -6 0 8 -355 -1 -1
;
#X obj 156 59 bng 15 250 50 0 empty empty empty 0 -6 0 8 -90133 -1
-1;
#X msg 60 181 23;
#X msg 76 181 24;
#X msg 92 181 25;
#X msg 108 181 26;
#X msg 124 181 27;
#X msg 140 181 28;
#X msg 156 181 29;
#X msg 44 139 20;
#X msg 44 160 21;
#X msg 44 181 22;
#X connect 0 0 1 0;
#X connect 1 0 2 0;
#X connect 3 0 4 0;
#X connect 4 0 2 0;
#X connect 5 0 7 0;
#X connect 6 0 8 0;
#X connect 7 0 2 0;
#X connect 8 0 2 0;
#X connect 9 0 13 0;
#X connect 10 0 14 0;
#X connect 11 0 15 0;
#X connect 12 0 16 0;
#X connect 13 0 2 0;
#X connect 14 0 2 0;
#X connect 15 0 2 0;
#X connect 16 0 2 0;
#X connect 17 0 19 0;
#X connect 18 0 20 0;
#X connect 19 0 2 0;
#X connect 20 0 2 0;
#X connect 21 0 38 0;
#X connect 22 0 39 0;
#X connect 23 0 40 0;
#X connect 24 0 31 0;
#X connect 25 0 32 0;
#X connect 26 0 33 0;
#X connect 27 0 34 0;
#X connect 28 0 35 0;
#X connect 29 0 36 0;
#X connect 30 0 37 0;
#X connect 31 0 2 0;
#X connect 32 0 2 0;
#X connect 33 0 2 0;
#X connect 34 0 2 0;
#X connect 35 0 2 0;
#X connect 36 0 2 0;
#X connect 37 0 2 0;
#X connect 38 0 2 0;
#X connect 39 0 2 0;
#X connect 40 0 2 0;
#X connect 41 0 58 0;
#X connect 42 0 59 0;
#X connect 43 0 60 0;
#X connect 44 0 51 0;
#X connect 45 0 52 0;
#X connect 46 0 53 0;
#X connect 47 0 54 0;
#X connect 48 0 55 0;
#X connect 49 0 56 0;
#X connect 50 0 57 0;
#X connect 51 0 2 0;
#X connect 52 0 2 0;
#X connect 53 0 2 0;
#X connect 54 0 2 0;
#X connect 55 0 2 0;
#X connect 56 0 2 0;
#X connect 57 0 2 0;
#X connect 58 0 2 0;
#X connect 59 0 2 0;
#X connect 60 0 2 0;
#X coords 0 0 1 1 200 100 1;
#X restore 287 351 pd source_color_5;
#X connect 2 0 1 0;
#X connect 3 0 0 0;
#X connect 4 0 5 0;
#X connect 6 0 7 0;
#X connect 8 0 9 0;
#X connect 10 0 11 0;
#X connect 13 0 12 0;
#X restore 715 525 pd colors;
#X text 9 11 cube_sphere;
#X msg 248 118 cube_sphere 5;
#X obj 42 139 cube_sphere 5 201 42 354 0 250684 334 195 24197 144 140
260817 251 230 258698 128 201 262143 183 203;
#X msg 494 16 \; to_GUI size 400;
#X msg 493 73 \; to_GUI size \$1;
#X msg 493 114 \; to_GUI src_font 40;
#X msg 494 210 \; to_GUI bang;
#X msg 493 301 \; to_GUI src_dp 1 \$1 \$2;
#X obj 492 359 pack;
#X obj 526 359 t b f;
#X floatatom 485 342 5 0 90 0 - - -;
#X floatatom 528 342 5 -720 720 0 - - -;
#X obj 493 439 pack;
#X obj 527 439 t b f;
#X floatatom 486 422 5 0 90 0 - - -;
#X floatatom 529 422 5 -720 720 0 - - -;
#X obj 494 521 pack;
#X obj 528 521 t b f;
#X floatatom 487 504 5 0 90 0 - - -;
#X floatatom 530 504 5 -720 720 0 - - -;
#X obj 496 603 pack;
#X obj 530 603 t b f;
#X floatatom 489 586 5 0 90 0 - - -;
#X floatatom 532 586 5 -720 720 0 - - -;
#X msg 492 380 \; to_GUI src_dp 2 \$1 \$2;
#X msg 493 460 \; to_GUI src_dp 3 \$1 \$2;
#X msg 496 624 \; to_GUI src_dp 5 \$1 \$2;
#X msg 494 542 \; to_GUI src_dp 4 \$1 \$2;
#X obj 735 43 route 1 2 3 4 5;
#X floatatom 665 162 5 0 0 0 - - -;
#X floatatom 705 162 5 0 0 0 - - -;
#X obj 665 140 unpack;
#X text 740 164 degree;
#X floatatom 686 211 5 0 0 0 - - -;
#X floatatom 726 211 5 0 0 0 - - -;
#X obj 686 189 unpack;
#X text 761 213 degree;
#X floatatom 706 261 5 0 0 0 - - -;
#X floatatom 746 261 5 0 0 0 - - -;
#X obj 706 239 unpack;
#X text 781 263 degree;
#X floatatom 722 312 5 0 0 0 - - -;
#X floatatom 762 312 5 0 0 0 - - -;
#X obj 722 290 unpack;
#X text 797 314 degree;
#X text 706 139 source 2;
#X text 727 188 source 3;
#X text 747 238 source 4;
#X text 763 289 source 5;
#X text 760 336 azimuth;
#X text 696 329 elevation;
#X connect 0 0 21 0;
#X connect 1 0 23 0;
#X connect 2 0 3 0;
#X connect 7 0 47 0;
#X connect 10 0 8 0;
#X connect 10 1 9 0;
#X connect 11 0 26 0;
#X connect 12 0 11 0;
#X connect 12 1 11 1;
#X connect 13 0 11 0;
#X connect 14 0 12 0;
#X connect 21 0 5 0;
#X connect 21 0 6 0;
#X connect 27 0 43 0;
#X connect 28 0 27 0;
#X connect 28 1 27 1;
#X connect 29 0 27 0;
#X connect 30 0 28 0;
#X connect 31 0 44 0;
#X connect 32 0 31 0;
#X connect 32 1 31 1;
#X connect 33 0 31 0;
#X connect 34 0 32 0;
#X connect 35 0 46 0;
#X connect 36 0 35 0;
#X connect 36 1 35 1;
#X connect 37 0 35 0;
#X connect 38 0 36 0;
#X connect 39 0 45 0;
#X connect 40 0 39 0;
#X connect 40 1 39 1;
#X connect 41 0 39 0;
#X connect 42 0 40 0;
#X connect 47 0 10 0;
#X connect 47 1 50 0;
#X connect 47 2 54 0;
#X connect 47 3 58 0;
#X connect 47 4 62 0;
#X connect 50 0 48 0;
#X connect 50 1 49 0;
#X connect 54 0 52 0;
#X connect 54 1 53 0;
#X connect 58 0 56 0;
#X connect 58 1 57 0;
#X connect 62 0 60 0;
#X connect 62 1 61 0;
