#N canvas 0 0 848 680 10;
#X obj 200 260 iem_image gates.gif 0 0 empty empty;
#X msg 325 99 open \$1;
#X obj 325 76 openpanel;
#X obj 306 77 bng 15 250 50 0 empty empty empty 0 -6 0 8 -262144 -1
-1;
#X msg 334 118 open gates.gif;
#X msg 382 175 open go_stop.gif;
#X msg 349 137 open pair.gif;
#X msg 364 156 open super_gau.gif;
#X msg 398 194 open pd.gif;
#X msg 417 213 open xxx.gif;
#X obj 200 598 unpack;
#X floatatom 195 629 5 0 0 0 - - -;
#X floatatom 233 628 5 0 0 0 - - -;
#X msg 69 40 pos 200 260;
#X msg 150 40 pos 180 280;
#X msg 71 71 delta 1 1;
#X msg 150 74 delta -1 -1;
#X msg 59 118 send from_image;
#X msg 58 141 receive to_image;
#X connect 0 0 10 0;
#X connect 1 0 0 0;
#X connect 2 0 1 0;
#X connect 3 0 2 0;
#X connect 4 0 0 0;
#X connect 5 0 0 0;
#X connect 6 0 0 0;
#X connect 7 0 0 0;
#X connect 8 0 0 0;
#X connect 9 0 0 0;
#X connect 10 0 11 0;
#X connect 10 1 12 0;
#X connect 13 0 0 0;
#X connect 14 0 0 0;
#X connect 15 0 0 0;
#X connect 16 0 0 0;
#X connect 17 0 0 0;
#X connect 18 0 0 0;
