#N canvas 113 27 820 466 10;
#X obj 18 44 dsp;
#X obj 18 14 tgl 15 0 empty empty empty 0 -6 0 8 -262144 -1 -1 0 1
;
#X floatatom 18 100 5 0 0 0 - - -;
#X floatatom 33 74 5 0 0 0 - - -;
#X obj 33 293 sig~ 1;
#X obj 115 296 sig~ 2;
#X obj 197 297 sig~ 4;
#X obj 34 366 unsig~;
#X floatatom 34 390 5 0 0 0 - - -;
#X obj 115 364 unsig~;
#X floatatom 115 388 5 0 0 0 - - -;
#X obj 256 320 any;
#X obj 409 320 pp element;
#X obj 409 275 f;
#X floatatom 422 252 4 1 3 0 - - -;
#X obj 399 253 bng 15 250 50 0 empty empty empty 0 -6 0 8 -262144 -1
-1;
#X obj 197 366 unsig~;
#X floatatom 197 390 5 0 0 0 - - -;
#X floatatom 452 253 5 0 0 0 - - -;
#X msg 256 101 diag 0 0 0;
#X msg 256 125 diag 1 1 1;
#X msg 256 146 diag 1 0 0;
#X msg 256 167 diag 0 0 2;
#X msg 256 188 diag 0 -10 0;
#X obj 409 297 pack 0 0;
#X text 653 16 SIG_OUT = A * SIG_IN;
#X text 216 14 multiplies a n-dimensional signal-in-vector with a dynamic
static (like sig~) signal-matrix to a n-dimensional signal-out-vector
;
#X text 672 34 A is quadratic;
#X text 356 95 message "diag";
#X text 367 116 (nr_rows = nr_columns = n) items <float> elements of
main-diagonal of matrix;
#X text 609 51 dim(SIG_OUT) = dim(SIG_IN) = n;
#X text 215 53 the elements of matrix are all zero except the main-diagonal
;
#X text 479 274 message "element";
#X text 493 291 1.) item <float> row_index = column-index (1 .. n)
;
#X text 493 304 2.) item <float> matrix-element at index \, index;
#X text 70 15 matrix_diag_mul_line~;
#X obj 34 337 matrix_diag_mul_line~ 3 3000;
#X text 256 341 1.arg <float> Nr. of inlets = columns = outlets = rows
;
#X text 276 364 from previous state to next state of matrix;
#X text 256 352 2.arg <float> interpolation-time in ms;
#X msg 12 152 time 100;
#X msg 12 178 time 3000;
#X msg 14 249 stop;
#X text 29 196 message "time";
#X text 36 209 1.) item <float> interpolation-time in ms;
#X text 53 248 message "stop";
#X text 53 260 interrupts the interpolation;
#X connect 0 0 2 0;
#X connect 0 1 3 0;
#X connect 1 0 0 0;
#X connect 4 0 36 0;
#X connect 5 0 36 1;
#X connect 6 0 36 2;
#X connect 7 0 8 0;
#X connect 9 0 10 0;
#X connect 11 0 36 0;
#X connect 12 0 36 0;
#X connect 13 0 24 0;
#X connect 14 0 13 1;
#X connect 15 0 13 0;
#X connect 16 0 17 0;
#X connect 18 0 24 1;
#X connect 19 0 11 0;
#X connect 20 0 11 0;
#X connect 21 0 11 0;
#X connect 22 0 11 0;
#X connect 23 0 11 0;
#X connect 24 0 12 0;
#X connect 36 0 7 0;
#X connect 36 1 9 0;
#X connect 36 2 16 0;
#X connect 40 0 36 0;
#X connect 41 0 36 0;
#X connect 42 0 36 0;
