#N canvas 296 252 697 353 10;
#X obj 110 118 popup 64 25 #ffffff signal sine~ pink~;
#X obj 101 101 cnv 15 163 63 empty empty TESTTONE 5 7 0 16 -233017
-66577 0;
#X obj 204 107 tgl 15 0 \$0_pulse \$0_pulse pulse 20 6 0 12 -262144 -1
-1 0 1;
#X obj 204 127 nbx 4 14 100 5000 0 0 \$0_period \$0_period Len -24
6 0 12 -262144 -1 -1 1000 256;
#X obj 204 147 nbx 4 14 0 1000 0 0 \$0_length \$0_length len -24 6
0 12 -262144 -1 -1 200 256;
#X obj 119 147 nbx 4 14 0 8000 0 0 \$0-f \$0-f f -8 7 0 12 -262144
-1 -1 1000 256;
#X obj 40 78 sendreceive /EXT/TESTTONE/SRC;
#X msg 40 120 set \$1;
#X obj 40 99 symbol;
#X obj 89 171 sendreceive /EXT/TESTTONE/SINE;
#X msg 89 194 set \$1;
#X msg 318 102 set \$1;
#X obj 318 67 sendreceive /EXT/TESTTONE/PULSE/ON;
#X msg 368 192 set \$1;
#X msg 379 299 set \$1;
#X obj 368 113 sendreceive /EXT/TESTTONE/PULSE/PERIOD;
#X obj 379 224 sendreceive /EXT/TESTTONE/PULSE/LENGTH;
#X obj 379 269 clip 0 5000;
#X obj 368 173 t f f;
#X obj 379 244 f 200;
#X obj 368 146 f 1000;
#X obj 444 152 loadbang;
#X obj 40 35 unpack 0 s;
#X obj 178 230 f 1000;
#X msg 530 294 range 0 \$1;
#X obj 427 244 t b f f;
#X connect 0 0 22 0;
#X connect 2 0 12 0;
#X connect 3 0 15 0;
#X connect 4 0 16 0;
#X connect 5 0 9 0;
#X connect 6 0 8 0;
#X connect 7 0 0 0;
#X connect 8 0 7 0;
#X connect 9 0 10 0;
#X connect 10 0 5 0;
#X connect 11 0 2 0;
#X connect 12 0 11 0;
#X connect 13 0 3 0;
#X connect 14 0 4 0;
#X connect 15 0 20 0;
#X connect 16 0 19 0;
#X connect 17 0 14 0;
#X connect 18 0 13 0;
#X connect 18 1 25 0;
#X connect 19 0 17 0;
#X connect 20 0 18 0;
#X connect 21 0 20 0;
#X connect 21 0 23 0;
#X connect 22 1 6 0;
#X connect 23 0 10 0;
#X connect 24 0 4 0;
#X connect 25 0 19 0;
#X connect 25 1 17 2;
#X connect 25 2 24 0;
#X coords 0 -1 1 1 165 65 1 100 100;
