#N canvas 0 0 595 353 10;
#X obj 38 41 inlet;
#X obj 297 89 Rgui_Stogui_offset \$1_gain 100;
#X obj 38 89 gui_sr_offset \$1_gain \$2_GAIN 100;
#X obj 83 129 gui_sr \$1_pre \$2_PRE;
#X msg 355 262 set \$1;
#X obj 355 241 t f f;
#X obj 355 218 route set;
#X obj 39 183 r \$1_fromgui;
#X obj 355 196 r \$1_gui;
#X obj 355 287 s \$1_togui;
#X obj 90 250 makefilename \$2;
#X obj 39 270 pack 0 s;
#X msg 39 293 \; \$2_DST \$1;
#X obj 90 230 f 1;
#X obj 39 209 t f b;
#X obj 39 66 t f f f;
#X connect 0 0 15 0;
#X connect 4 0 9 0;
#X connect 5 0 4 0;
#X connect 6 0 5 0;
#X connect 6 1 5 0;
#X connect 7 0 14 0;
#X connect 8 0 6 0;
#X connect 10 0 11 1;
#X connect 11 0 12 0;
#X connect 13 0 10 0;
#X connect 14 0 11 0;
#X connect 14 1 13 0;
#X connect 15 0 2 0;
#X connect 15 1 13 1;
#X connect 15 2 3 0;
