#N canvas 0 51 993 586 10;
#X obj 281 31 inlet ID#;
#X obj 231 156 route list;
#X msg 231 175 symbol \$2;
#X obj 119 438 outlet;
#X obj 584 60 inlet popup;
#X obj 231 136 r \$1_fromgui;
#X obj 584 82 s \$1_togui;
#X obj 119 279 r \$1_settings_fromgui;
#X msg 423 154 set \$1;
#X obj 423 110 i \$2;
#X msg 491 35 bang;
#X obj 423 68 loadbang;
#X msg 496 254 set %s;
#X text 549 253 needed \, since [gui_sr] initializes [makefilename]
with "1";
#X msg 479 233 symbol \$1_ON;
#X obj 99 50 r \$1_togui;
#X obj 112 214 symbol;
#X msg 369 234 symbol \$1_NAME;
#X obj 231 197 t s s;
#X obj 369 200 t s s s;
#X obj 423 88 t b b b;
#X obj 99 91 route set symbol;
#X obj 119 414 pack s 0 \$2;
#X obj 119 359 symbol none;
#X obj 110 71 print \$1_togui;
#X obj 49 122 route float list bang;
#X msg 107 156 none;
#X obj 479 276 gui_sr \$1_on %d_IN_PLUGIN_1;
#X obj 261 259 sendreceive 0_IN_PLUGIN_1_NAME;
#X obj 369 174 makefilename %d_IN_PLUGIN_1;
#X obj 423 132 makefilename %%d_IN_PLUGIN_%d;
#X msg 309 502 set \$1;
#X obj 339 385 symbol none;
#X obj 231 299 t s s;
#X obj 119 305 t b b;
#X obj 339 408 makefilename \$2_%s;
#X obj 339 434 makefilename %%d_IN_PLUGIN_%s_EDIT;
#X msg 339 457 set \$1;
#X obj 309 363 t b b;
#X obj 309 434 i;
#X obj 281 60 t f f f;
#X obj 309 480 makefilename %d_IN_PLUGIN_0_none_EDIT;
#X obj 279 331 t b b;
#X obj 279 542 iem_s <ID#>_IN_PLUGIN_\$2_<name>_EDIT;
#X connect 0 0 40 0;
#X connect 1 0 2 0;
#X connect 2 0 18 0;
#X connect 4 0 6 0;
#X connect 5 0 1 0;
#X connect 7 0 34 0;
#X connect 8 0 29 0;
#X connect 9 0 30 0;
#X connect 10 0 20 0;
#X connect 11 0 20 0;
#X connect 12 0 27 0;
#X connect 14 0 27 0;
#X connect 15 0 21 0;
#X connect 16 0 18 0;
#X connect 17 0 28 1;
#X connect 18 0 33 0;
#X connect 18 1 28 0;
#X connect 19 0 17 0;
#X connect 19 2 14 0;
#X connect 20 0 9 0;
#X connect 20 1 12 0;
#X connect 21 0 25 0;
#X connect 21 1 16 0;
#X connect 22 0 3 0;
#X connect 23 0 22 0;
#X connect 25 2 26 0;
#X connect 25 3 16 0;
#X connect 26 0 16 0;
#X connect 28 0 33 0;
#X connect 29 0 19 0;
#X connect 30 0 8 0;
#X connect 31 0 43 1;
#X connect 32 0 35 0;
#X connect 33 0 23 1;
#X connect 33 1 32 1;
#X connect 34 0 23 0;
#X connect 34 1 42 0;
#X connect 35 0 36 0;
#X connect 36 0 37 0;
#X connect 37 0 41 0;
#X connect 38 0 39 0;
#X connect 38 1 32 0;
#X connect 39 0 41 0;
#X connect 40 0 22 1;
#X connect 40 1 29 0;
#X connect 40 2 39 1;
#X connect 41 0 31 0;
#X connect 42 0 43 0;
#X connect 42 1 38 0;
