#N canvas 895 229 450 300 10;
#X obj 48 83 popup 115 20 #ffffff plugin;
#X obj 45 65 cnv 15 140 40 empty empty plugin\$2 20 10 0 14 -233017
-66577 0;
#X obj 165 68 tgl 15 0 \$1GUI_plugin\$2_on_fromgui \$1GUI_plugin\$2_on_togui
empty 0 -6 0 8 -262144 -1 -1 0 1;
#X obj 165 86 bng 15 250 50 0 \$1GUI_plugin\$2_settings_fromgui \$1GUI_plugin\$2_settings_togui
empty 0 -6 0 8 -62784 -1 -1;
#X obj 48 40 r \$1GUI_plugin\$2_togui;
#X obj 48 112 s \$1GUI_plugin\$2_fromgui;
#X obj 208 83 s \$1GUI_plugin\$2_togui;
#X obj 208 40 loadbang;
#X msg 208 60 options \, name plugin \, disable 1;
#X connect 0 0 5 0;
#X connect 4 0 0 0;
#X connect 7 0 8 0;
#X connect 8 0 6 0;
#X coords 0 -1 1 1 140 40 2 45 65;
