#N canvas 0 51 1009 543 10;
#X obj 281 31 inlet ID#;
#X obj 119 409 symbol;
#X obj 231 156 route list;
#X msg 231 175 symbol \$2;
#X obj 119 355 t b b;
#X obj 119 488 outlet;
#X obj 250 451 pack 0 1 s;
#X obj 584 60 inlet popup;
#X obj 250 390 f \$2;
#X obj 231 136 r \$1_fromgui;
#X obj 584 82 s \$1_togui;
#X obj 119 326 r \$1_settings_fromgui;
#X obj 281 55 t f f;
#X obj 369 174 makefilename %d_IN_PLUGIN1;
#X obj 423 132 makefilename %%d_IN_PLUGIN%d;
#X msg 423 154 set \$1;
#X obj 423 110 i \$2;
#X msg 491 35 bang;
#X obj 423 68 loadbang;
#X msg 496 254 set %s;
#X text 549 253 needed \, since [gui_sr] initializes [makefilename]
with "1";
#X msg 479 233 symbol \$1_ON;
#X msg 250 472 \$3 \$2 \$1;
#X obj 99 50 r \$1_togui;
#X obj 152 164 symbol;
#X obj 261 259 sendreceive;
#X symbolatom 352 336 10 0 0 0 - - -;
#X symbolatom 439 308 0 0 0 0 - - -;
#X msg 369 234 symbol \$1_NAME;
#X symbolatom 344 281 10 0 0 0 - - -;
#X obj 231 197 t s s;
#X obj 479 276 gui_sr \$1_on %d_IN_PLUGIN1;
#X obj 369 200 t s s s;
#X obj 423 88 t b b b;
#X obj 231 299 t s b s b;
#X obj 250 429 spigot;
#X msg 287 408 1;
#X msg 329 420 symbol none;
#X obj 99 91 route set symbol;
#X obj 99 117 route float list;
#X connect 0 0 12 0;
#X connect 1 0 5 0;
#X connect 2 0 3 0;
#X connect 3 0 30 0;
#X connect 4 0 1 0;
#X connect 4 1 8 0;
#X connect 6 0 22 0;
#X connect 7 0 10 0;
#X connect 8 0 35 0;
#X connect 9 0 2 0;
#X connect 11 0 4 0;
#X connect 12 0 6 1;
#X connect 12 1 13 0;
#X connect 13 0 32 0;
#X connect 14 0 15 0;
#X connect 15 0 13 0;
#X connect 16 0 14 0;
#X connect 17 0 33 0;
#X connect 18 0 33 0;
#X connect 19 0 31 0;
#X connect 21 0 31 0;
#X connect 23 0 38 0;
#X connect 24 0 30 0;
#X connect 25 0 26 0;
#X connect 25 0 34 0;
#X connect 28 0 25 1;
#X connect 28 0 27 0;
#X connect 29 0 25 0;
#X connect 30 0 34 0;
#X connect 30 1 25 0;
#X connect 32 0 28 0;
#X connect 32 2 21 0;
#X connect 33 0 16 0;
#X connect 33 1 19 0;
#X connect 33 2 37 0;
#X connect 34 0 1 1;
#X connect 34 1 8 0;
#X connect 34 2 6 2;
#X connect 34 3 36 0;
#X connect 35 0 6 0;
#X connect 36 0 35 1;
#X connect 37 0 6 2;
#X connect 38 0 39 0;
#X connect 38 1 24 0;
#X connect 39 2 24 0;
