#N canvas 0 51 1009 543 10;
#X obj 281 31 inlet ID#;
#X obj 231 156 route list;
#X msg 231 175 symbol \$2;
#X obj 119 488 outlet;
#X obj 584 60 inlet popup;
#X obj 231 136 r \$1_fromgui;
#X obj 584 82 s \$1_togui;
#X obj 119 326 r \$1_settings_fromgui;
#X obj 281 60 t f f;
#X obj 369 174 makefilename %d_IN_PLUGIN1;
#X obj 423 132 makefilename %%d_IN_PLUGIN%d;
#X msg 423 154 set \$1;
#X obj 423 110 i \$2;
#X msg 491 35 bang;
#X obj 423 68 loadbang;
#X msg 496 254 set %s;
#X text 549 253 needed \, since [gui_sr] initializes [makefilename]
with "1";
#X msg 479 233 symbol \$1_ON;
#X obj 99 50 r \$1_togui;
#X obj 112 214 symbol;
#X msg 369 234 symbol \$1_NAME;
#X obj 231 197 t s s;
#X obj 479 276 gui_sr \$1_on %d_IN_PLUGIN1;
#X obj 369 200 t s s s;
#X obj 423 88 t b b b;
#X obj 99 91 route set symbol;
#X obj 261 259 sendreceive 1_IN_PLUGIN1_NAME;
#X obj 119 464 pack s 0 \$2;
#X obj 119 409 symbol none;
#X obj 119 355 t b;
#X obj 231 299 t s;
#X obj 110 71 print \$1_togui;
#X obj 49 122 route float list bang;
#X msg 107 156 none;
#X connect 0 0 8 0;
#X connect 1 0 2 0;
#X connect 2 0 21 0;
#X connect 4 0 6 0;
#X connect 5 0 1 0;
#X connect 7 0 29 0;
#X connect 8 0 27 1;
#X connect 8 1 9 0;
#X connect 9 0 23 0;
#X connect 10 0 11 0;
#X connect 11 0 9 0;
#X connect 12 0 10 0;
#X connect 13 0 24 0;
#X connect 14 0 24 0;
#X connect 15 0 22 0;
#X connect 17 0 22 0;
#X connect 18 0 25 0;
#X connect 19 0 21 0;
#X connect 20 0 26 1;
#X connect 21 0 30 0;
#X connect 21 1 26 0;
#X connect 23 0 20 0;
#X connect 23 2 17 0;
#X connect 24 0 12 0;
#X connect 24 1 15 0;
#X connect 25 0 32 0;
#X connect 25 1 19 0;
#X connect 26 0 30 0;
#X connect 27 0 3 0;
#X connect 28 0 27 0;
#X connect 29 0 28 0;
#X connect 30 0 28 1;
#X connect 32 2 33 0;
#X connect 32 3 19 0;
#X connect 33 0 19 0;
