#N canvas 570 163 415 612 10;
#X obj 31 38 inlet~;
#X obj 32 513 outlet~;
#N canvas 0 0 470 320 delwrite 0;
#X obj 19 27 inlet~;
#X obj 19 195 outlet~;
#X obj 273 26 inlet~;
#X obj 19 58 delwrite~ \$0_helpdel 60000;
#X connect 0 0 3 0;
#X connect 2 0 1 0;
#X restore 31 290 pd delwrite;
#N canvas 0 0 470 320 delread 0;
#X obj 19 27 inlet~;
#X obj 19 195 outlet~;
#X obj 20 126 vd~ \$0_helpdel 1;
#X connect 0 0 2 0;
#X connect 2 0 1 0;
#X restore 31 312 pd delread;
#X obj 104 266 line~;
#X obj 104 244 pack 0 100;
#X obj 169 220 r DSP_MIX_INTERPOL_TIME;
#X text 119 476 1m: f_lo=sr/2;
#X text 118 493 100m: f_lo=0;
#X obj 98 59 receive_pluginparam \$1 \$2 \$3/GROUPING;
#X obj 118 87 receive_pluginparam \$1 \$2 \$3/GROUP;
#X obj 145 125 receive_pluginparam \$1 \$2 \$3/DEL_TIME;
#X obj 144 158 clip 0 60000;
#X text 123 7 max 60000ms hardcoded !!!;
#X connect 0 0 2 0;
#X connect 2 0 3 0;
#X connect 3 0 1 0;
#X connect 4 0 2 1;
#X connect 5 0 4 0;
#X connect 6 0 5 1;
#X connect 11 0 12 0;
#X connect 12 0 5 0;
