#N canvas 110 142 1143 633 10;
#X obj 537 264 openpanel;
#X obj 537 288 t b s;
#X msg 537 333 /tmp/poeme.wav;
#X msg 565 308 set \$1;
#X msg 537 243 bang;
#X msg 314 243 play;
#X msg 390 243 pause;
#X msg 612 198 loop \$1;
#X obj 612 78 tgl 15 0 empty empty empty 0 -6 0 8 -262144 -1 -1 0 1
;
#X obj 803 261 sendreceive \$1_SFPLAY_POS;
#X obj 537 355 sendreceive \$1_SFPLAY_FILE;
#X obj 314 331 sendreceive \$1_SFPLAY_CTRL;
#X obj 314 32 r \$0play;
#X obj 384 32 r \$0pause;
#X obj 473 82 r \$0stop;
#X obj 642 247 r \$0load;
#X obj 314 215 select 1 0;
#X obj 385 63 i;
#X msg 314 54 1;
#X msg 490 134 0;
#X obj 385 90 == 0;
#X obj 385 115 t f f;
#X obj 320 87 t f f;
#X obj 101 101 cnv 15 141 58 empty empty soundfileplayer 4 8 0 14 -233017
-66577 0;
#X obj 105 118 bng 20 250 50 0 \$0play \$0play > 7 10 0 16 -262144
-24198 -1;
#X obj 135 118 bng 20 250 50 0 \$0pause \$0pause || 3 10 0 12 -262144
-260818 -1;
#X obj 165 118 bng 20 250 50 0 \$0stop \$0stop x 5 9 0 16 -262144 -258699
-1;
#X obj 216 118 bng 20 250 50 0 \$0load \$0load empty 0 -6 0 8 -228992
-1 -1;
#X obj 107 142 hsl 128 15 0 19548.2 0 0 \$0pos \$0pos empty -2 -6 0
8 -262144 -1 -1 2143 1;
#X msg 800 439 range 0 \$1;
#X obj 800 419 sendreceive \$1_SFPLAY_LENGTH;
#X msg 803 346 set \$1;
#X msg 104 258 play \$1;
#X obj 803 283 select -1;
#X obj 803 317 i;
#X obj 903 366 print a;
#X obj 901 389 print b;
#X msg 473 213 stop;
#X obj 766 286 i;
#X obj 104 229 t f f f;
#X obj 473 106 t b b b;
#X connect 0 0 1 0;
#X connect 1 0 2 0;
#X connect 1 1 3 0;
#X connect 2 0 10 0;
#X connect 3 0 2 0;
#X connect 4 0 0 0;
#X connect 5 0 11 0;
#X connect 6 0 11 0;
#X connect 7 0 11 0;
#X connect 8 0 7 0;
#X connect 9 0 33 0;
#X connect 9 0 35 0;
#X connect 12 0 18 0;
#X connect 13 0 17 0;
#X connect 14 0 40 0;
#X connect 15 0 0 0;
#X connect 16 0 5 0;
#X connect 16 1 6 0;
#X connect 17 0 20 0;
#X connect 18 0 22 0;
#X connect 19 0 17 1;
#X connect 20 0 21 0;
#X connect 21 0 16 0;
#X connect 21 1 17 1;
#X connect 22 0 16 0;
#X connect 22 1 17 1;
#X connect 28 0 39 0;
#X connect 29 0 28 0;
#X connect 30 0 29 0;
#X connect 31 0 28 0;
#X connect 31 0 36 0;
#X connect 32 0 11 0;
#X connect 33 0 34 0;
#X connect 33 1 31 0;
#X connect 34 0 31 0;
#X connect 37 0 11 0;
#X connect 38 0 31 0;
#X connect 39 0 32 0;
#X connect 39 1 34 1;
#X connect 39 2 38 1;
#X connect 40 0 37 0;
#X connect 40 1 19 0;
#X connect 40 2 38 0;
#X coords 0 -1 1 1 143 60 1 100 100;
