#N canvas 771 12 778 763 12;
#X obj 31 38 inlet~;
#X obj 32 513 outlet~;
#X obj 104 13 receive_regname /IN/\$1/SPAT/AMBI/POS/RAD;
#X obj 121 87 receive_regname /IN/SPAT/AMBI/SPHERERANGE;
#X obj 105 289 *;
#X obj 187 208 / 10;
#X msg 188 186 1 \$1;
#X obj 122 150 max 1;
#X obj 101 629 sendreceive /IN/\$1/SPAT/AMBI/ORDER_WEIGHT;
#X text 186 105 indiviual overwrite;
#X obj 169 122 receive_pluginparam \$1 \$2 \$3/SPHERERANGE;
#X text 121 71 global;
#X text 166 150 never zero;
#N canvas 0 0 450 300 (subpatch) 0;
#X array \$0_weightfade 128 float 2;
#X coords 0 1 128 0 128 100 1;
#X restore 493 132 graph;
#N canvas 883 589 450 300 draw 0;
#X obj 86 130 * 6.28319;
#X obj 88 34 for++ 0 127 1;
#X obj 88 238 tabwrite \$0_weightfade;
#X obj 89 61 t f f;
#X obj 89 83 / 256;
#X obj 89 8 loadbang;
#X msg 30 25 bang;
#X obj 86 156 cos;
#X obj 86 208 * -0.5;
#X obj 85 182 - 1;
#X connect 0 0 7 0;
#X connect 1 0 3 0;
#X connect 3 0 4 0;
#X connect 3 1 2 1;
#X connect 4 0 0 0;
#X connect 5 0 1 0;
#X connect 6 0 1 0;
#X connect 7 0 9 0;
#X connect 8 0 2 0;
#X connect 9 0 8 0;
#X restore 504 244 pd draw;
#X obj 296 312 r ambidecoder_dimenorder;
#X obj 297 339 unpack 3 4;
#X obj 147 467 tabread \$0_weightfade;
#N canvas 0 0 450 300 generate 1;
#X obj 33 126 until;
#X obj 33 100 t f b;
#X msg 112 131 set;
#X obj 59 162 + 1;
#X msg 128 76 4;
#X msg 29 213 addcomma;
#X msg 104 212 add2 \$1;
#X obj 31 188 t b f;
#X obj 48 11 inlet order;
#X obj 30 262 outlet message;
#X obj 30 160 i 1;
#X obj 46 38 max 1;
#X msg 81 130 1;
#X connect 0 0 10 0;
#X connect 1 0 0 0;
#X connect 1 1 2 0;
#X connect 1 1 12 0;
#X connect 2 0 9 0;
#X connect 3 0 10 1;
#X connect 4 0 1 0;
#X connect 5 0 9 0;
#X connect 6 0 9 0;
#X connect 7 0 5 0;
#X connect 7 1 6 0;
#X connect 8 0 11 0;
#X connect 10 0 3 0;
#X connect 10 0 7 0;
#X connect 11 0 1 0;
#X connect 12 0 10 1;
#X restore 363 365 pd generate messages;
#X msg 404 342 4;
#X obj 147 435 * 0.25;
#X obj 199 562 t l;
#X floatatom 61 157 5 0 0 0 - - -;
#X obj 101 587 list;
#X msg 147 400 1 \, 2 \, 3 \, 4 \,;
#X obj 186 242 * 128;
#X text 133 243 0..128;
#X text 146 215 0..1;
#X text 318 426 start fade with highest order;
#X text 321 445 then procced to lower ones;
#X text 323 462 0 order always 1;
#X text 304 291 a hack now \, latet the documented receiver;
#X obj 102 186 clip 0 10;
#X obj 438 32 inlet switch;
#X obj 100 48 spigot;
#X floatatom 285 195 5 0 0 0 - - -;
#X floatatom 348 164 5 0 0 0 - - -;
#X obj 242 598 print ambiw;
#X obj 142 590 list append;
#X msg 226 444 bang;
#N canvas 0 0 450 300 (subpatch) 0;
#X array \$0_ampcorr 128 float 2;
#X coords 0 10 128 0 128 100 1;
#X restore 520 344 graph;
#N canvas 883 589 450 300 drawcorr 1;
#X obj 86 130 * 6.28319;
#X obj 88 34 for++ 0 127 1;
#X obj 89 61 t f f;
#X obj 89 83 / 256;
#X obj 89 8 loadbang;
#X msg 30 25 bang;
#X obj 86 156 cos;
#X obj 88 238 tabwrite \$0_ampcorr;
#X obj 85 182 * 2;
#X obj 87 208 + 3;
#X connect 0 0 6 0;
#X connect 1 0 2 0;
#X connect 2 0 3 0;
#X connect 2 1 7 1;
#X connect 3 0 0 0;
#X connect 4 0 1 0;
#X connect 5 0 1 0;
#X connect 6 0 8 0;
#X connect 8 0 9 0;
#X connect 9 0 7 0;
#X restore 529 458 pd drawcorr;
#X obj 119 522 tabread \$0_ampcorr;
#X obj 107 342 t f b f b;
#X obj 105 406 t b f;
#X connect 0 0 1 0;
#X connect 2 0 34 0;
#X connect 3 0 7 0;
#X connect 3 0 36 0;
#X connect 4 0 43 0;
#X connect 5 0 25 0;
#X connect 6 0 5 0;
#X connect 7 0 6 0;
#X connect 7 0 32 2;
#X connect 10 0 7 0;
#X connect 10 0 35 0;
#X connect 15 0 16 0;
#X connect 16 1 18 0;
#X connect 17 0 38 0;
#X connect 18 0 24 0;
#X connect 19 0 18 0;
#X connect 20 0 17 0;
#X connect 21 0 38 1;
#X connect 22 0 32 0;
#X connect 23 0 8 0;
#X connect 24 0 20 0;
#X connect 25 0 4 1;
#X connect 32 0 4 0;
#X connect 33 0 34 1;
#X connect 34 0 32 0;
#X connect 38 0 21 0;
#X connect 38 0 23 1;
#X connect 39 0 38 1;
#X connect 42 0 38 0;
#X connect 43 0 44 0;
#X connect 43 1 24 0;
#X connect 43 2 20 1;
#X connect 43 3 39 0;
#X connect 44 0 23 0;
#X connect 44 1 42 0;
