#N canvas 453 746 355 164 10;
#X obj 147 16 namecanvas \$0-gui;
#N canvas 1546 181 752 532 viscode 0;
#X msg 253 391 vis 1;
#X obj 253 415 s \$0-gui;
#X obj 195 34 loadbang;
#X msg 267 36 bang;
#X obj 196 155 s \$0-name;
#X msg 196 128 label \$1;
#X obj 267 126 makefilename channel:%02d;
#X msg 267 148 label \$1;
#X obj 267 175 s \$0-channel;
#X msg 354 176 label \$1;
#X obj 354 154 makefilename slot:%02d;
#X obj 354 203 s \$0-slot;
#X obj 196 94 symbol \$3;
#X obj 267 94 i \$1;
#X obj 302 94 i \$2;
#X obj 195 64 t b b b b;
#X obj 253 362 t b;
#X text 194 476 0/1;
#X obj 36 450 r \$0on_fromgui;
#X obj 36 492 s \$0on_togui;
#X obj 36 471 sr_plugin \$1 \$2 ON;
#X obj 253 339 r /IN/\$1/PLUGIN/\$2/\$3/EDIT;
#X connect 0 0 1 0;
#X connect 2 0 15 0;
#X connect 3 0 15 0;
#X connect 5 0 4 0;
#X connect 6 0 7 0;
#X connect 7 0 8 0;
#X connect 9 0 11 0;
#X connect 10 0 9 0;
#X connect 12 0 5 0;
#X connect 13 0 6 0;
#X connect 14 0 10 0;
#X connect 15 0 12 0;
#X connect 15 1 13 0;
#X connect 15 2 14 0;
#X connect 16 0 0 0;
#X connect 18 0 20 0;
#X connect 20 0 19 0;
#X connect 21 0 16 0;
#X restore 71 16 pd viscode;
#X obj 25 14 cnv 15 250 20 empty \$0-name empty 25 10 0 16 -233017
-66577 0;
#X obj 24 14 tgl 20 0 \$0on_fromgui \$0on_togui empty 0 -6 0 8 -262144
-1 -1 0 1;
#X obj 155 14 cnv 15 100 20 empty \$0-channel channel:00 0 10 0 16
-233017 -62784 0;
#X obj 265 14 cnv 15 70 20 empty \$0-slot slot:00 0 10 0 16 -233017
-62784 0;
#N canvas 655 759 325 200 code 0;
#X obj 28 43 sr_plugin \$1 \$2 \$3/SPHERERANGE;
#X obj 28 23 r \$0lrange_fromgui;
#X obj 28 65 s \$0lrange_togui;
#X obj 30 93 r \$0grange_fromgui;
#X obj 30 136 s \$0grange_togui;
#X obj 30 116 sendreceive /IN/SPAT/AMBI/SPHERERANGE;
#X connect 0 0 2 0;
#X connect 1 0 0 0;
#X connect 3 0 5 0;
#X connect 5 0 4 0;
#X restore 31 141 pd code;
#X obj 24 38 cnv 15 310 100 empty empty empty 20 12 0 14 -233017 -66577
0;
#X obj 49 80 nbx 5 14 0 1000 0 0 \$0lrange_fromgui \$0lrange_togui
RANGE_LOCAL 0 -6 0 12 -262144 -1 -1 0 256;
#X obj 212 81 nbx 5 14 0 1000 0 0 \$0grange_fromgui \$0grange_togui
RANGE_GLOBAL 0 -6 0 12 -262144 -1 -1 0 256;
#X text 201 97 deprecated(disappear);
#X text 42 46 Sphere Range is were on radius the blur begins;
