#N canvas 32 490 721 459 10;
#X obj 64 19 pink~;
#X obj 63 43 *~ 0.2;
#N canvas 0 0 667 446 pulsar 0;
#X obj 97 290 *~;
#X obj 114 186 loadbang;
#X msg 114 207 1;
#X obj 114 268 line~;
#X obj 216 138 t b b;
#X msg 216 221 0;
#X msg 247 221 1;
#X obj 216 244 t f;
#X obj 281 95 t f b f;
#X obj 96 147 inlet~;
#X obj 96 317 outlet~;
#X obj 216 73 t f f;
#X obj 246 95 == 0;
#X obj 217 50 receive_regname /EXT/TESTSPK/PULSE/ON;
#X obj 281 76 receive_regname /EXT/TESTSPK/PULSE/PERIOD;
#X obj 260 138 receive_regname /EXT/TESTSPK/PULSE/LENGTH;
#X obj 260 160 f 50;
#X obj 260 181 clip 0 200;
#X obj 216 201 del 50;
#X obj 216 116 metro 200;
#X obj 114 247 pack 0 10;
#X connect 0 0 10 0;
#X connect 1 0 2 0;
#X connect 2 0 20 0;
#X connect 3 0 0 1;
#X connect 4 0 18 0;
#X connect 4 1 6 0;
#X connect 5 0 7 0;
#X connect 6 0 7 0;
#X connect 7 0 20 0;
#X connect 8 0 19 1;
#X connect 8 1 16 0;
#X connect 8 2 17 2;
#X connect 9 0 0 0;
#X connect 11 0 19 0;
#X connect 11 1 12 0;
#X connect 12 0 7 0;
#X connect 13 0 11 0;
#X connect 14 0 8 0;
#X connect 15 0 16 0;
#X connect 16 0 17 0;
#X connect 17 0 18 1;
#X connect 18 0 5 0;
#X connect 19 0 4 0;
#X connect 20 0 3 0;
#X restore 61 65 pd pulsar;
#X obj 274 179 receive_regname /EXT/TESTSPK/FROM;
#X obj 274 201 receive_regname /EXT/TESTSPK/TO;
#X obj 362 11 receive_regname /EXT/TESTSPK/ON;
#X obj 361 44 switch~;
#X obj 124 184 metro 500;
#X obj 124 234 i 1;
#X obj 159 235 + 1;
#X obj 196 237 sel 1;
#X obj 157 209 i 1;
#X obj 202 210 >= 44;
#X obj 281 228 bng 15 250 50 0 empty empty empty 17 7 0 10 -262144
-1 -1;
#X obj 70 373 throw~ 1_OUT;
#X msg 100 349 set \$1_OUT;
#X obj 124 139 receive_regname /EXT/TESTSPK/AUTO;
#X floatatom 188 109 5 0 0 0 - - -;
#X floatatom 273 276 5 0 0 0 - - -;
#X floatatom 189 342 5 0 0 0 - - -;
#X obj 191 305 sendreceive /EXT/TESTSPK/SPK;
#X connect 0 0 1 0;
#X connect 1 0 2 0;
#X connect 2 0 14 0;
#X connect 3 0 11 1;
#X connect 4 0 12 1;
#X connect 5 0 6 0;
#X connect 7 0 8 0;
#X connect 8 0 9 0;
#X connect 8 0 12 0;
#X connect 8 0 15 0;
#X connect 8 0 20 0;
#X connect 9 0 8 1;
#X connect 10 0 11 0;
#X connect 11 0 8 1;
#X connect 12 0 10 0;
#X connect 15 0 14 0;
#X connect 16 0 7 0;
#X connect 17 0 8 0;
#X connect 18 0 20 0;
#X connect 20 0 8 0;
#X connect 20 0 19 0;
