#N canvas 1042 256 878 425 10;
#X obj 101 101 cnv 15 63 198 empty empty empty 2 10 0 12 -228992 -66577
0;
#X msg 251 253 set \$1;
#X msg 452 91 set \$1;
#X msg 502 181 set \$1;
#X msg 513 288 set \$1;
#X obj 513 258 clip 0 5000;
#X obj 502 162 t f f;
#X obj 578 141 loadbang;
#X msg 664 283 range 0 \$1;
#X obj 561 233 t b f f;
#X obj 102 227 tgl 15 0 \$0_pulse \$0_pulse pulse 20 6 0 12 -262144
-1 -1 1 1;
#X obj 103 256 nbx 4 14 100 5000 0 0 \$0_period \$0_period Len 0 -6
0 12 -262144 -1 -1 100 256;
#X obj 103 284 nbx 4 14 0 100 0 0 \$0_length \$0_length len 0 -6 0
12 -262144 -1 -1 70 256;
#X obj 109 200 nbx 3 14 0 8000 0 0 \$0-spk \$0-spk spk 0 -6 0 12 -262144
-1 -1 26 256;
#X obj 101 220 cnv 2 63 2 empty empty empty 20 12 0 14 -62784 -66577
0;
#X obj 261 198 f 24;
#X msg 228 174 set \$1;
#X obj 109 174 nbx 3 14 0 8000 0 0 \$0-to \$0-to to 0 -6 0 12 -262144
-1 -1 28 256;
#X msg 240 98 set \$1;
#X obj 108 149 nbx 3 14 0 8000 0 0 \$0-from \$0-from from 0 -6 0 12
-262144 -1 -1 25 256;
#X obj 250 43 f 1;
#X obj 238 119 f 24;
#X obj 452 56 sendreceive /EXT/TESTSPK/PULSE/ON;
#X obj 504 112 sendreceive /EXT/TESTSPK/PULSE/PERIOD;
#X obj 141 118 tgl 15 0 \$0_ON_fromgui \$0_ON_togui ON 0 -6 0 8 -233017
-1 -1 0 1;
#X obj 174 325 gui_sr_offset \$0_ON /EXT/TESTSPK/ON 0;
#X obj 502 135 f 200;
#X obj 513 233 f 50;
#X obj 513 213 sendreceive /EXT/TESTSPK/PULSE/LENGTH;
#X obj 164 363 gui_sr_offset \$0_AUTO /EXT/TESTSPK/AUTO 0;
#X obj 109 118 tgl 15 0 \$0_AUTO_fromgui \$0_AUTO_togui AUTO 0 -6 0
8 -233017 -1 -1 0 1;
#X obj 223 225 sendreceive /EXT/TESTSPK/SPK;
#X obj 228 150 sendreceive /EXT/TESTSPK/TO;
#X obj 241 76 sendreceive /EXT/TESTSPK/FROM;
#X connect 1 0 13 0;
#X connect 2 0 10 0;
#X connect 3 0 11 0;
#X connect 4 0 12 0;
#X connect 5 0 4 0;
#X connect 6 0 3 0;
#X connect 6 1 9 0;
#X connect 7 0 15 0;
#X connect 7 0 21 0;
#X connect 7 0 20 0;
#X connect 7 0 26 0;
#X connect 8 0 12 0;
#X connect 9 0 27 0;
#X connect 9 1 5 2;
#X connect 9 2 8 0;
#X connect 10 0 22 0;
#X connect 11 0 23 0;
#X connect 12 0 28 0;
#X connect 13 0 31 0;
#X connect 15 0 1 0;
#X connect 16 0 17 0;
#X connect 17 0 32 0;
#X connect 18 0 19 0;
#X connect 19 0 33 0;
#X connect 20 0 18 0;
#X connect 21 0 16 0;
#X connect 22 0 2 0;
#X connect 23 0 26 0;
#X connect 26 0 6 0;
#X connect 27 0 5 0;
#X connect 28 0 27 0;
#X connect 31 0 1 0;
#X connect 32 0 16 0;
#X connect 33 0 18 0;
#X coords 0 -1 1 1 65 200 2 100 100;
