#N canvas 690 28 640 447 10;
#X obj 62 43 t l l b;
#N canvas 463 68 749 754 generator 0;
#X obj 68 29 inlet;
#X obj 68 399 outlet;
#X obj 68 372 t a;
#X obj 240 99 dollsym 1;
#X text 85 330 <id> <width> <xpos> \$1;
#X obj 68 54 t l b;
#X obj 68 147 t f b;
#X obj 68 172 until;
#X obj 68 195 i;
#X obj 100 196 + 1;
#X obj 68 236 t f f;
#X text 126 29 #channels;
#X obj 68 89 t f;
#X msg 68 346 obj 100 \$2 OUT/ambisonic/helper/send_receive_azm_elv
\$3 \$1;
#X obj 68 305 pack 0 0 s;
#X msg 111 172 1;
#X obj 101 262 * 20;
#X obj 104 284 + 100;
#X connect 0 0 5 0;
#X connect 2 0 1 0;
#X connect 3 0 14 2;
#X connect 5 0 12 0;
#X connect 5 1 3 0;
#X connect 6 0 7 0;
#X connect 6 1 15 0;
#X connect 7 0 8 0;
#X connect 8 0 9 0;
#X connect 8 0 10 0;
#X connect 9 0 8 1;
#X connect 10 0 14 0;
#X connect 10 1 16 0;
#X connect 12 0 6 0;
#X connect 13 0 2 0;
#X connect 14 0 13 0;
#X connect 15 0 8 1;
#X connect 16 0 17 0;
#X connect 17 0 14 1;
#X restore 85 266 pd generator;
#X msg 108 136 reset;
#X obj 85 294 t a;
#X obj 85 326 patchwriter \$1;
#X msg 62 69 symbol OUT/ambisonic/\$1sphere;
#X obj 62 20 inlet #channels #type #dim #order;
#X connect 0 0 5 0;
#X connect 0 1 1 0;
#X connect 0 2 2 0;
#X connect 1 0 3 0;
#X connect 2 0 4 1;
#X connect 3 0 4 0;
#X connect 5 0 4 1;
#X connect 6 0 0 0;
