#N canvas 307 116 640 447 10;
#X obj 62 43 t l l b;
#N canvas 481 124 749 754 generator 1;
#X obj 68 29 inlet;
#X obj 68 569 outlet;
#X obj 68 542 t a;
#X text 127 29 #type #dim #order;
#X obj 240 99 dollsym 1;
#X obj 68 476 pack 0 0 0 s;
#X msg 68 516 obj \$3 115 helper/weight_slider \$1 \$2 \$4;
#X text 85 500 <id> <width> <xpos> \$1;
#X msg 68 91 \$3;
#X obj 68 54 t l b;
#X text 411 49 width=185;
#X obj 68 114 + 1;
#X text 84 133 ambichannels;
#X obj 68 155 t f f;
#X msg 100 176 185 \$1;
#X obj 100 197 /;
#X obj 100 220 i;
#X obj 132 262 - 5;
#X obj 100 241 t f f;
#X obj 68 327 t f b;
#X obj 68 352 until;
#X obj 68 375 i;
#X obj 100 376 + 1;
#X msg 111 352 0;
#X obj 68 406 t f f;
#X obj 122 428 * 1;
#X obj 122 451 + 105;
#X connect 0 0 9 0;
#X connect 2 0 1 0;
#X connect 4 0 5 3;
#X connect 5 0 6 0;
#X connect 6 0 2 0;
#X connect 8 0 11 0;
#X connect 9 0 8 0;
#X connect 9 1 4 0;
#X connect 11 0 13 0;
#X connect 13 0 19 0;
#X connect 13 1 14 0;
#X connect 14 0 15 0;
#X connect 15 0 16 0;
#X connect 16 0 18 0;
#X connect 17 0 5 1;
#X connect 18 0 25 1;
#X connect 18 1 17 0;
#X connect 19 0 20 0;
#X connect 19 1 23 0;
#X connect 20 0 21 0;
#X connect 21 0 22 0;
#X connect 21 0 24 0;
#X connect 22 0 21 1;
#X connect 23 0 21 1;
#X connect 24 0 5 0;
#X connect 24 1 25 0;
#X connect 25 0 26 0;
#X connect 26 0 5 2;
#X restore 108 237 pd generator;
#X msg 108 136 reset;
#N canvas 350 88 765 319 generic 0;
#X obj 76 44 inlet;
#X obj 76 258 outlet;
#X msg 76 103 obj 101 101 cnv 15 183 148 empty empty empty 10 12 0
14 -195568 -66577 0;
#X connect 0 0 2 0;
#X connect 2 0 1 0;
#X restore 117 209 pd generic;
#X obj 62 20 inlet #type #dim #order;
#X obj 85 294 t a;
#X msg 239 19 list circ 2 4;
#X obj 85 326 patchwriter \$1;
#X msg 62 67 symbol OUT/ambisonic/\$3weights;
#N canvas 0 0 450 300 gop 0;
#X obj 110 57 inlet;
#X obj 110 238 outlet;
#X msg 110 182 coords 0 -1 1 1 185 150 2 100 100;
#X connect 0 0 2 0;
#X connect 2 0 1 0;
#X restore 63 212 pd gop;
#X obj 85 182 t b l b;
#X connect 0 0 8 0;
#X connect 0 1 10 0;
#X connect 0 2 2 0;
#X connect 1 0 5 0;
#X connect 2 0 7 1;
#X connect 3 0 5 0;
#X connect 4 0 0 0;
#X connect 5 0 7 0;
#X connect 6 0 0 0;
#X connect 8 0 7 1;
#X connect 9 0 5 0;
#X connect 10 0 9 0;
#X connect 10 1 1 0;
#X connect 10 2 3 0;
