#N canvas 213 353 324 447 10;
#X obj 85 294 t a;
#X msg 108 136 reset;
#X obj 62 20 inlet;
#X obj 62 74 patchname_gui;
#X obj 85 376 patchwriter \$1;
#X msg 180 346 0 0 1143 954;
#X obj 62 43 t l l b b;
#N canvas 507 293 793 539 simple 0;
#X obj 94 47 inlet;
#X obj 94 324 outlet;
#X obj 94 296 list prepend obj;
#X msg 94 225 819 650 RRR/GUI \, 886 650 SFPO/GUI \, 689 650 REV/GUI
\, 754 650 REV2/GUI \, 555 854 SFPLAYER16/GUI 16;
#X obj 94 117 t b b l;
#X obj 94 269 t a;
#X msg 140 142 621 650 OUT/LFC \, 555 650 OUT/ambi \, 949 468 OUT/AUXS/\$9
\, 949 650 OUT/main \, 554 467 OUT/BUS/\$6;
#X msg 111 180 6 467 inchannel \, 1067 853 system \, 718 854 extensions
\, 812 854 logo;
#X connect 0 0 4 0;
#X connect 2 0 1 0;
#X connect 3 0 5 0;
#X connect 4 0 3 0;
#X connect 4 1 7 0;
#X connect 4 2 6 0;
#X connect 5 0 2 0;
#X connect 6 0 5 0;
#X connect 7 0 5 0;
#X restore 131 206 pd simple;
#X obj 85 173 t l l l;
#N canvas 371 322 765 492 inchans 0;
#X obj 76 44 inlet;
#X obj 76 349 outlet;
#X obj 76 101 t f b;
#X obj 76 127 until;
#X obj 76 149 i;
#X obj 107 150 + 1;
#X msg 122 128 0;
#X obj 76 181 t f f;
#X obj 76 288 pack;
#X obj 76 211 * 71;
#X obj 76 235 + 6;
#X obj 108 235 + 1;
#X msg 76 68 \$4;
#X msg 76 311 obj \$1 5 inchan \$2;
#X connect 0 0 12 0;
#X connect 2 0 3 0;
#X connect 2 1 6 0;
#X connect 3 0 4 0;
#X connect 4 0 5 0;
#X connect 4 0 7 0;
#X connect 5 0 4 1;
#X connect 6 0 4 1;
#X connect 7 0 9 0;
#X connect 7 1 11 0;
#X connect 8 0 13 0;
#X connect 9 0 10 0;
#X connect 10 0 8 0;
#X connect 11 0 8 1;
#X connect 12 0 2 0;
#X connect 13 0 1 0;
#X restore 77 240 pd inchans;
#X connect 0 0 4 0;
#X connect 1 0 4 1;
#X connect 2 0 6 0;
#X connect 3 0 4 1;
#X connect 5 0 4 2;
#X connect 6 0 3 0;
#X connect 6 1 8 0;
#X connect 6 2 1 0;
#X connect 6 3 5 0;
#X connect 7 0 0 0;
#X connect 8 1 9 0;
#X connect 8 2 7 0;
#X connect 9 0 0 0;
