#N canvas 1370 484 734 310 10;
#N canvas 1314 62 1177 813 EDIT_early_reverb 1;
#X obj 14 49 vsl 15 121 0 120 0 0 \$0early_gain_fromgui \$0early_gain_togui
empty 0 -8 0 8 -6177 -1 -1 0 1;
#X obj -1 233 fadtodb;
#X obj 15 258 - 100;
#X floatatom 14 176 4 0 0 0 - - -;
#X obj 64 49 vsl 15 121 0.16 16 1 0 \$0early_cutoff_fromgui \$0early_cutoff_togui
empty 0 -8 0 8 -14404 -1 -1 0 1;
#X floatatom 64 176 4 0 0 0 - - -;
#X obj 15 20 cnv 8 1 1 empty empty early 0 4 0 10 -262144 -1 0;
#X obj 15 28 cnv 8 1 1 empty empty echoes 0 4 0 10 -262144 -1 0;
#X obj 15 36 cnv 8 1 1 empty empty gain 0 4 0 10 -262144 -1 0;
#X obj 46 180 cnv 8 1 1 empty empty dB 0 4 0 10 -262144 -1 0;
#X obj 96 180 cnv 8 1 1 empty empty kHz 0 4 0 10 -262144 -1 0;
#X obj 65 20 cnv 8 1 1 empty empty early 0 4 0 10 -262144 -1 0;
#X obj 65 28 cnv 8 1 1 empty empty cutoff 0 4 0 10 -262144 -1 0;
#X obj 65 36 cnv 8 1 1 empty empty freq 0 4 0 10 -262144 -1 0;
#X obj 114 49 vsl 15 121 0 120 0 0 \$0rev_gain_fromgui \$0rev_gain_togui
empty 0 -8 0 8 -11118 -1 -1 0 1;
#X obj 75 229 fadtodb;
#X obj 81 259 - 100;
#X floatatom 114 176 4 0 0 0 - - -;
#X obj 115 28 cnv 8 1 1 empty empty reverb 0 4 0 10 -262144 -1 0;
#X obj 115 36 cnv 8 1 1 empty empty gain 0 4 0 10 -262144 -1 0;
#X obj 146 180 cnv 8 1 1 empty empty dB 0 4 0 10 -262144 -1 0;
#X obj 164 49 vsl 15 121 0.16 16 1 0 \$0rev_cutoff_fromgui \$0rev_cutoff_togui
empty 0 -8 0 8 -15044 -1 -1 0 1;
#X floatatom 164 176 4 0 0 0 - - -;
#X obj 196 180 cnv 8 1 1 empty empty kHz 0 4 0 10 -262144 -1 0;
#X obj 165 20 cnv 8 1 1 empty empty reverb 0 4 0 10 -262144 -1 0;
#X obj 165 28 cnv 8 1 1 empty empty cutoff 0 4 0 10 -262144 -1 0;
#X obj 165 36 cnv 8 1 1 empty empty freq 0 4 0 10 -262144 -1 0;
#X obj 214 49 vsl 15 121 0.1 60 1 0 \$0rev_dec_l_time_fromgui \$0rev_dec_l_time_togui
empty 0 -8 0 8 -200880 -1 -1 0 1;
#X floatatom 214 176 4 0 0 0 - - -;
#X obj 246 180 cnv 8 1 1 empty empty sec 0 4 0 10 -262144 -1 0;
#X obj 215 12 cnv 8 1 1 empty empty reverb 0 4 0 10 -262144 -1 0;
#X obj 215 20 cnv 8 1 1 empty empty low 0 4 0 10 -262144 -1 0;
#X obj 215 28 cnv 8 1 1 empty empty decay 0 4 0 10 -262144 -1 0;
#X obj 215 36 cnv 8 1 1 empty empty time 0 4 0 10 -262144 -1 0;
#X obj 314 49 vsl 15 121 0.1 60 1 0 \$0rev_dec_m_time_fromgui \$0rev_dec_m_time_togui
empty 0 -8 0 8 -250685 -1 -1 0 1;
#X floatatom 314 176 4 0 0 0 - - -;
#X obj 346 180 cnv 8 1 1 empty empty sec 0 4 0 10 -262144 -1 0;
#X obj 315 12 cnv 8 1 1 empty empty reverb 0 4 0 10 -262144 -1 0;
#X obj 315 20 cnv 8 1 1 empty empty mid 0 4 0 10 -262144 -1 0;
#X obj 315 28 cnv 8 1 1 empty empty decay 0 4 0 10 -262144 -1 0;
#X obj 315 36 cnv 8 1 1 empty empty time 0 4 0 10 -262144 -1 0;
#X obj 414 49 vsl 15 121 0.1 60 1 0 \$0rev_dec_h_time_fromgui \$0rev_dec_h_time_togui
empty 0 -8 0 8 -255806 -1 -1 0 1;
#X floatatom 414 176 4 0 0 0 - - -;
#X obj 446 180 cnv 8 1 1 empty empty sec 0 4 0 10 -262144 -1 0;
#X obj 415 12 cnv 8 1 1 empty empty reverb 0 4 0 10 -262144 -1 0;
#X obj 415 20 cnv 8 1 1 empty empty high 0 4 0 10 -262144 -1 0;
#X obj 415 28 cnv 8 1 1 empty empty decay 0 4 0 10 -262144 -1 0;
#X obj 415 36 cnv 8 1 1 empty empty time 0 4 0 10 -262144 -1 0;
#X obj 264 49 vsl 15 121 0.05 1 1 0 \$0_rev_dec_lm_freq_fromgui \$0_rev_dec_lm_freq_togui
empty 0 -8 0 8 -24198 -1 -1 0 1;
#X floatatom 264 176 4 0 0 0 - - -;
#X obj 296 180 cnv 8 1 1 empty empty kHz 0 4 0 10 -262144 -1 0;
#X obj 265 12 cnv 8 1 1 empty empty reverb 0 4 0 10 -262144 -1 0;
#X obj 265 20 cnv 8 1 1 empty empty low_mid 0 4 0 10 -262144 -1 0;
#X obj 265 28 cnv 8 1 1 empty empty decay 0 4 0 10 -262144 -1 0;
#X obj 265 36 cnv 8 1 1 empty empty freq 0 4 0 10 -262144 -1 0;
#X obj 364 49 vsl 15 121 1 16 1 0 \$0rev_dec_mh_freq_fromgui \$0rev_dec_mh_freq_togui
empty 0 -8 0 8 -110363 -1 -1 0 1;
#X floatatom 364 176 4 0 0 0 - - -;
#X obj 396 180 cnv 8 1 1 empty empty kHz 0 4 0 10 -262144 -1 0;
#X obj 365 12 cnv 8 1 1 empty empty reverb 0 4 0 10 -262144 -1 0;
#X obj 365 20 cnv 8 1 1 empty empty mid_high 0 4 0 10 -262144 -1 0
;
#X obj 365 28 cnv 8 1 1 empty empty decay 0 4 0 10 -262144 -1 0;
#X obj 365 36 cnv 8 1 1 empty empty freq 0 4 0 10 -262144 -1 0;
#X obj 122 714 outlet;
#X obj 180 671 pp reverb;
#X obj 62 666 pp early;
#X obj 609 126 cnv 8 1 1 empty empty delay 0 4 0 10 -262144 -1 0;
#X obj 507 4 cnv 8 1 1 empty empty early_echo 0 4 0 10 -262144 -1 0
;
#X floatatom 82 116 4 0.1 2 0 - #0early_q_togui #0early_q_fromgui;
#X obj 83 105 cnv 8 1 1 empty empty Q 0 4 0 10 -262144 -1 0;
#X floatatom 182 116 4 0.1 2 0 - #0rev_q_togui #0rev_q_fromgui;
#X obj 183 105 cnv 8 1 1 empty empty Q 0 4 0 10 -262144 -1 0;
#X obj 31 47 vfad_scale -1;
#X obj 131 47 vfad_scale -1;
#X obj 507 13 cnv 8 1 1 empty empty delay_time 0 4 0 10 -262144 -1
0;
#X obj 558 30 cnv 8 1 1 empty empty ms 0 4 0 10 -262144 -1 0;
#X floatatom 519 26 5 0.1 1000 0 - - -;
#X obj 489 28 cnv 8 1 1 empty empty max: 0 4 0 10 -262144 -1 0;
#X obj 558 46 cnv 8 1 1 empty empty ms 0 4 0 10 -262144 -1 0;
#X floatatom 519 42 5 0.1 1000 0 - - -;
#X obj 489 44 cnv 8 1 1 empty empty min: 0 4 0 10 -262144 -1 0;
#X obj 491 79 cnv 8 1 1 empty empty early_echo 0 4 0 10 -262144 -1
0;
#X obj 491 88 cnv 8 1 1 empty empty damping 0 4 0 10 -262144 -1 0;
#X obj 532 102 cnv 8 1 1 empty empty dB 0 4 0 10 -262144 -1 0;
#X floatatom 493 98 5 -100 0 0 - - -;
#X obj 532 118 cnv 8 1 1 empty empty dB 0 4 0 10 -262144 -1 0;
#X floatatom 493 114 5 -100 0 0 - - -;
#X obj 460 100 cnv 8 1 1 empty empty max: 0 4 0 10 -262144 -1 0;
#X obj 460 116 cnv 8 1 1 empty empty min: 0 4 0 10 -262144 -1 0;
#X obj 623 18 cnv 8 1 1 empty empty reverb 0 4 0 10 -262144 -1 0;
#X obj 623 38 cnv 8 1 1 empty empty modulation 0 4 0 10 -262144 -1
0;
#X obj 661 66 cnv 8 1 1 empty empty Hz 0 4 0 10 -262144 -1 0;
#X floatatom 622 62 5 0.01 10 0 - - -;
#X obj 588 65 cnv 8 1 1 empty empty max: 0 4 0 10 -262144 -1 0;
#X obj 661 82 cnv 8 1 1 empty empty Hz 0 4 0 10 -262144 -1 0;
#X floatatom 622 78 5 0.01 10 0 - - -;
#X obj 590 82 cnv 8 1 1 empty empty min: 0 4 0 10 -262144 -1 0;
#X obj 622 47 cnv 8 1 1 empty empty freq 0 4 0 10 -262144 -1 0;
#X obj 609 118 cnv 8 1 1 empty empty reverb 0 4 0 10 -262144 -1 0;
#X obj 610 134 cnv 8 1 1 empty empty modulation 0 4 0 10 -262144 -1
0;
#X obj 650 159 cnv 8 1 1 empty empty cents 0 4 0 10 -262144 -1 0;
#X floatatom 611 155 5 0 20 0 - - -;
#X obj 552 148 cnv 8 1 1 empty empty max: 0 4 0 10 -262144 -1 0;
#X obj 650 175 cnv 8 1 1 empty empty cents 0 4 0 10 -262144 -1 0;
#X floatatom 611 171 5 0 20 0 - - -;
#X obj 552 164 cnv 8 1 1 empty empty min: 0 4 0 10 -262144 -1 0;
#X obj 609 143 cnv 8 1 1 empty empty amplitude 0 4 0 10 -262144 -1
0;
#X obj 623 26 cnv 8 1 1 empty empty delay 0 4 0 10 -262144 -1 0;
#X obj 491 134 cnv 8 1 1 empty empty reverb 0 4 0 10 -262144 -1 0;
#X obj 491 143 cnv 8 1 1 empty empty delay_time 0 4 0 10 -262144 -1
0;
#X obj 532 158 cnv 8 1 1 empty empty ms 0 4 0 10 -262144 -1 0;
#X floatatom 493 154 5 0.1 1000 0 - - -;
#X obj 473 158 cnv 8 1 1 empty empty max: 0 4 0 10 -262144 -1 0;
#X obj 532 174 cnv 8 1 1 empty empty ms 0 4 0 10 -262144 -1 0;
#X floatatom 493 170 5 0.1 1000 0 - - -;
#X obj 473 174 cnv 8 1 1 empty empty min: 0 4 0 10 -262144 -1 0;
#X obj 738 -2 inlet;
#X obj 339 661 exp_uzi \$1;
#X obj 162 586 pp damp;
#X obj 339 684 pp del_time;
#X obj 568 566 pp del_mod_amp;
#X obj 532 498 pp del_mod_freq;
#X obj 170 466 neg_exp_uzi \$1;
#X obj 219 538 dbtorms;
#X obj 219 517 + 100;
#X obj 170 487 unpack 0 0;
#X obj 162 564 pack 0 0;
#X obj 736 165 makefilename %s;
#X obj 862 162 makefilename %s;
#X obj 737 136 symbol;
#X obj 862 139 symbol;
#X obj 738 54 route bang;
#X obj 858 58 route bang;
#X obj 736 195 s \$0_filename;
#X obj 146 276 schedule_max_min;
#X obj 339 639 schedule_max_min;
#X obj 170 445 schedule_max_min;
#X obj 532 452 schedule_max_min;
#X obj 568 521 schedule_max_min;
#X obj 146 298 exp_uzi \$1;
#X obj 568 543 exp_uzi \$1;
#X obj 532 475 exp_uzi \$1;
#X obj 804 89 symbol;
#X obj 870 94 symbol;
#X obj 738 26 route read write;
#X obj 714 276 gui_sr \$0early_cutoff EXT_REV_EARLY_CUTOFF;
#X obj 713 298 gui_sr \$0early_q EXT_REV_EARLY_Q;
#X obj 713 254 gui_sr_fader \$0early_gain EXT_REV_EARLY_GAIN;
#X obj 712 331 gui_sr_fader \$0rev_gain EXT_REV_REVERB_GAIN;
#X obj 712 351 gui_sr \$0rev_cutoff EXT_REV_REVERB_CUTOFF;
#X obj 713 372 gui_sr \$0rev_q EXT_REV_REVERB_Q;
#X obj 711 399 gui_sr \$0rev_dec_l_time EXT_REV_REVERB_DEC_L_TIME;
#X obj 710 421 gui_sr \$0rev_dec_lm_freq EXT_REV_REVERB_DEC_LM_FREQ
;
#X obj 709 464 gui_sr \$0rev_dec_mh_freq EXT_REV_REVERB_DEC_MH_FREQ
;
#X obj 709 442 gui_sr \$0rev_dec_m_time EXT_REV_REVERB_DEC_M_TIME;
#X obj 709 486 gui_sr \$0rev_dec_h_time EXT_REV_REVERB_DEC_H_TIME;
#X obj 146 321 s \$0early_early_togui;
#X obj 138 349 r \$0early_early_fromgui;
#X obj 137 374 unpack;
#X obj 707 535 gui_sr \$0early_realy EXT_REV_EARLY_EARLY;
#X obj 706 557 gui_sr \$0early_damp EXT_REV_EARLY_DAMP;
#X obj 706 579 gui_sr \$0rev_del_time EXT_REV_REVERB_DEL_TIME;
#X obj 707 605 gui_sr \$0rev_mod_freq EXT_REV_REVERB_MOD_FREQ;
#X obj 708 631 gui_sr \$0rev_mod_time EXT_REV_REVERB_MOD_TIME;
#X connect 0 0 1 0;
#X connect 1 0 2 0;
#X connect 2 0 3 0;
#X connect 4 0 5 0;
#X connect 14 0 15 0;
#X connect 15 0 16 0;
#X connect 16 0 17 0;
#X connect 21 0 22 0;
#X connect 27 0 28 0;
#X connect 34 0 35 0;
#X connect 41 0 42 0;
#X connect 48 0 49 0;
#X connect 55 0 56 0;
#X connect 63 0 62 0;
#X connect 64 0 62 0;
#X connect 75 0 133 1;
#X connect 78 0 133 0;
#X connect 83 0 135 1;
#X connect 85 0 135 0;
#X connect 91 0 136 1;
#X connect 94 0 136 0;
#X connect 100 0 137 1;
#X connect 103 0 137 0;
#X connect 110 0 134 1;
#X connect 113 0 134 0;
#X connect 115 0 143 0;
#X connect 116 0 118 0;
#X connect 117 0 64 0;
#X connect 118 0 63 0;
#X connect 119 0 63 0;
#X connect 120 0 63 0;
#X connect 121 0 124 0;
#X connect 122 0 125 1;
#X connect 123 0 122 0;
#X connect 124 0 125 0;
#X connect 124 1 123 0;
#X connect 125 0 117 0;
#X connect 126 0 132 0;
#X connect 127 0 132 0;
#X connect 128 0 126 0;
#X connect 129 0 127 0;
#X connect 130 0 128 0;
#X connect 130 1 128 0;
#X connect 130 1 141 0;
#X connect 131 0 129 0;
#X connect 131 1 129 0;
#X connect 131 1 142 0;
#X connect 133 0 138 0;
#X connect 134 0 116 0;
#X connect 135 0 121 0;
#X connect 136 0 140 0;
#X connect 137 0 139 0;
#X connect 138 0 155 0;
#X connect 139 0 119 0;
#X connect 140 0 120 0;
#X connect 141 0 129 1;
#X connect 142 0 128 1;
#X connect 143 0 130 0;
#X connect 143 1 131 0;
#X connect 156 0 157 0;
#X coords 0 0 1 1 710 206 1 0 0;
#X restore 11 101 pd EDIT_early_reverb;
#X obj 14 332 outlet;
#X obj 121 351 namecanvas \$0-EDIT;
#X obj 276 316 inlet;
#X obj 326 334 symbol \$0-EDIT;
#X obj 275 358 pack f s;
#X obj 276 337 t f b;
#X msg 275 380 \; \$2 vis \$1;
#N canvas 1366 42 464 434 files 0;
#X symbolatom 14 82 52 0 0 2 filename_bank #0_filename_togui #0_filename_fromgui
;
#X obj 269 241 s \$0_filename_togui;
#X obj 11 112 r \$0_filename_fromgui;
#X obj 36 411 outlet;
#N canvas 245 133 360 216 files 0;
#X obj 30 105 openpanel;
#X obj 222 35 savepanel;
#X obj 222 11 r \$0_save;
#X obj 30 81 r \$0_load;
#X obj 0 -1 cnv 15 120 60 empty empty File 20 12 0 14 -233017 -66577
0;
#X obj 3 16 bng 25 250 50 0 \$0_load \$0_load LOAD 0 30 0 10 -24198
-1 -1;
#X obj 84 15 bng 25 250 50 0 \$0_save \$0_save SAVE 2 30 0 10 -258699
-1 -1;
#X obj 38 15 bng 25 250 50 0 \$0_reload \$0_reload RELOAD -1 30 0 10
-241291 -1 -1;
#X msg 139 112 read;
#X obj 35 180 outlet;
#X msg 222 116 write \$1;
#X msg 30 137 read \$1;
#X obj 138 82 r \$0_reload;
#X connect 0 0 11 0;
#X connect 1 0 10 0;
#X connect 2 0 1 0;
#X connect 3 0 0 0;
#X connect 8 0 9 0;
#X connect 10 0 9 0;
#X connect 11 0 9 0;
#X connect 12 0 8 0;
#X coords 0 -1 1 1 120 60 1 0 0;
#X restore 254 18 pd files;
#X text 13 44 in Settings \, only the filename;
#X obj 49 145 route read write;
#X obj 272 216 pp set;
#X text 14 30 The presets are not stored;
#X obj 178 106 r GUI_NET_initialized;
#X obj 179 127 del 1000;
#X obj 36 170 route bang;
#X obj 113 303 pp write;
#X obj 45 247 sendreceive EXT_REV_PBANKFILE;
#X obj 156 272 s \$0_filename_togui;
#X obj 276 311 r \$0_preset;
#X msg 209 315 0;
#X obj 207 387 pp recall;
#X obj 186 146 t b b;
#X obj 207 349 sendreceive EXT_REV_PRESET;
#X msg 176 170 ../default.rev;
#X obj 42 224 symbol;
#X obj 46 306 pp read;
#X connect 2 0 21 0;
#X connect 4 0 6 0;
#X connect 6 0 11 0;
#X connect 6 1 12 0;
#X connect 7 0 1 0;
#X connect 9 0 10 0;
#X connect 10 0 18 0;
#X connect 11 0 21 0;
#X connect 11 1 21 0;
#X connect 12 0 3 0;
#X connect 13 0 14 0;
#X connect 13 0 22 0;
#X connect 15 0 19 0;
#X connect 16 0 19 0;
#X connect 17 0 3 0;
#X connect 18 0 16 0;
#X connect 18 1 20 0;
#X connect 19 0 17 0;
#X connect 20 0 21 0;
#X connect 21 0 13 0;
#X connect 22 0 3 0;
#X coords 0 -1 1 1 380 90 1 10 10;
#X restore 339 7 pd files;
#X text 62 12 REVERB To AMBISONIC Domain;
#X text 60 29 IEM \, Thomas Musil adapted by WR;
#X obj 668 345 s \$0_preset;
#X connect 0 0 1 0;
#X connect 3 0 6 0;
#X connect 4 0 5 1;
#X connect 5 0 7 0;
#X connect 6 0 5 0;
#X connect 6 1 4 0;
#X connect 8 0 0 0;
