#N canvas 67 205 734 310 10;
#N canvas 41 97 1101 603 EDIT_early_reverb 1;
#X obj 14 49 vsl 15 121 0 120 0 0 empty empty empty 0 -8 0 8 -6177
-1 -1 8400 1;
#X obj 15 234 fadtodb;
#X obj 15 272 - 100;
#X floatatom 14 176 4 0 0 0 - - -;
#X obj 64 49 vsl 15 121 0.16 16 1 0 empty empty empty 0 -8 0 8 -14404
-1 -1 0 1;
#X floatatom 64 176 4 0 0 0 - - -;
#X obj 15 20 cnv 8 1 1 empty empty early 0 4 0 10 -262144 -1 0;
#X obj 15 28 cnv 8 1 1 empty empty echoes 0 4 0 10 -262144 -1 0;
#X obj 15 36 cnv 8 1 1 empty empty gain 0 4 0 10 -262144 -1 0;
#X obj 46 180 cnv 8 1 1 empty empty dB 0 4 0 10 -262144 -1 0;
#X obj 96 180 cnv 8 1 1 empty empty kHz 0 4 0 10 -262144 -1 0;
#X obj 65 20 cnv 8 1 1 empty empty early 0 4 0 10 -262144 -1 0;
#X obj 65 28 cnv 8 1 1 empty empty cutoff 0 4 0 10 -262144 -1 0;
#X obj 65 36 cnv 8 1 1 empty empty freq 0 4 0 10 -262144 -1 0;
#X obj 114 49 vsl 15 121 0 120 0 0 empty empty empty 0 -8 0 8 -11118
-1 -1 8400 1;
#X obj 115 235 fadtodb;
#X obj 115 271 - 100;
#X floatatom 114 176 4 0 0 0 - - -;
#X obj 115 28 cnv 8 1 1 empty empty reverb 0 4 0 10 -262144 -1 0;
#X obj 115 36 cnv 8 1 1 empty empty gain 0 4 0 10 -262144 -1 0;
#X obj 146 180 cnv 8 1 1 empty empty dB 0 4 0 10 -262144 -1 0;
#X obj 164 49 vsl 15 121 0.16 16 1 0 empty empty empty 0 -8 0 8 -15044
-1 -1 0 1;
#X floatatom 164 176 4 0 0 0 - - -;
#X obj 196 180 cnv 8 1 1 empty empty kHz 0 4 0 10 -262144 -1 0;
#X obj 165 20 cnv 8 1 1 empty empty reverb 0 4 0 10 -262144 -1 0;
#X obj 165 28 cnv 8 1 1 empty empty cutoff 0 4 0 10 -262144 -1 0;
#X obj 165 36 cnv 8 1 1 empty empty freq 0 4 0 10 -262144 -1 0;
#X obj 214 49 vsl 15 121 0.1 60 1 0 empty empty empty 0 -8 0 8 -200880
-1 -1 0 1;
#X floatatom 214 176 4 0 0 0 - - -;
#X obj 246 180 cnv 8 1 1 empty empty sec 0 4 0 10 -262144 -1 0;
#X obj 215 12 cnv 8 1 1 empty empty reverb 0 4 0 10 -262144 -1 0;
#X obj 215 20 cnv 8 1 1 empty empty low 0 4 0 10 -262144 -1 0;
#X obj 215 28 cnv 8 1 1 empty empty decay 0 4 0 10 -262144 -1 0;
#X obj 215 36 cnv 8 1 1 empty empty time 0 4 0 10 -262144 -1 0;
#X obj 314 49 vsl 15 121 0.1 60 1 0 empty empty empty 0 -8 0 8 -250685
-1 -1 0 1;
#X floatatom 314 176 4 0 0 0 - - -;
#X obj 346 180 cnv 8 1 1 empty empty sec 0 4 0 10 -262144 -1 0;
#X obj 315 12 cnv 8 1 1 empty empty reverb 0 4 0 10 -262144 -1 0;
#X obj 315 20 cnv 8 1 1 empty empty mid 0 4 0 10 -262144 -1 0;
#X obj 315 28 cnv 8 1 1 empty empty decay 0 4 0 10 -262144 -1 0;
#X obj 315 36 cnv 8 1 1 empty empty time 0 4 0 10 -262144 -1 0;
#X obj 414 49 vsl 15 121 0.1 60 1 0 empty empty empty 0 -8 0 8 -255806
-1 -1 0 1;
#X floatatom 414 176 4 0 0 0 - - -;
#X obj 446 180 cnv 8 1 1 empty empty sec 0 4 0 10 -262144 -1 0;
#X obj 415 12 cnv 8 1 1 empty empty reverb 0 4 0 10 -262144 -1 0;
#X obj 415 20 cnv 8 1 1 empty empty high 0 4 0 10 -262144 -1 0;
#X obj 415 28 cnv 8 1 1 empty empty decay 0 4 0 10 -262144 -1 0;
#X obj 415 36 cnv 8 1 1 empty empty time 0 4 0 10 -262144 -1 0;
#X obj 264 49 vsl 15 121 0.05 1 1 0 empty empty empty 0 -8 0 8 -24198
-1 -1 0 1;
#X floatatom 264 176 4 0 0 0 - - -;
#X obj 296 180 cnv 8 1 1 empty empty kHz 0 4 0 10 -262144 -1 0;
#X obj 265 12 cnv 8 1 1 empty empty reverb 0 4 0 10 -262144 -1 0;
#X obj 265 20 cnv 8 1 1 empty empty low_mid 0 4 0 10 -262144 -1 0;
#X obj 265 28 cnv 8 1 1 empty empty decay 0 4 0 10 -262144 -1 0;
#X obj 265 36 cnv 8 1 1 empty empty freq 0 4 0 10 -262144 -1 0;
#X obj 364 49 vsl 15 121 1 16 1 0 empty empty empty 0 -8 0 8 -110363
-1 -1 0 1;
#X floatatom 364 176 4 0 0 0 - - -;
#X obj 396 180 cnv 8 1 1 empty empty kHz 0 4 0 10 -262144 -1 0;
#X obj 365 12 cnv 8 1 1 empty empty reverb 0 4 0 10 -262144 -1 0;
#X obj 365 20 cnv 8 1 1 empty empty mid_high 0 4 0 10 -262144 -1 0
;
#X obj 365 28 cnv 8 1 1 empty empty decay 0 4 0 10 -262144 -1 0;
#X obj 365 36 cnv 8 1 1 empty empty freq 0 4 0 10 -262144 -1 0;
#X obj 127 631 outlet;
#X obj 185 588 pp reverb;
#X obj 165 448 pp cutoff;
#X obj 115 354 pp gain;
#X obj 65 446 pp cutoff;
#X obj 15 347 pp gain;
#X obj 67 583 pp early;
#X obj 265 404 pp dec_lm_freq;
#X obj 365 403 pp dec_mh_freq;
#X obj 215 426 pp dec_l_time;
#X obj 315 427 pp dec_m_time;
#X obj 15 423 dbtofad;
#X obj 115 427 dbtofad;
#X obj 415 425 pp dec_h_time;
#X obj 623 17 cnv 8 1 1 empty empty recall 0 4 0 10 -262144 -1 0;
#X obj 548 107 cnv 8 1 1 empty empty delay 0 4 0 10 -262144 -1 0;
#X obj 469 12 cnv 8 1 1 empty empty early_echo 0 4 0 10 -262144 -1
0;
#X obj 15 301 pp 0;
#X obj 65 293 pp 1;
#X obj 15 379 f;
#X obj 65 416 f;
#X obj 115 380 f;
#X obj 165 395 f;
#X obj 215 381 f;
#X obj 265 372 f;
#X obj 315 369 f;
#X obj 365 368 f;
#X obj 415 367 f;
#X obj 472 360 f;
#X obj 472 383 f;
#X obj 472 404 f;
#X obj 472 448 f;
#X obj 623 36 vradio 10 1 0 10 empty empty empty 0 -6 0 8 -257989 -1
-1 0;
#X obj 623 143 t b f;
#X obj 624 25 cnv 8 1 1 empty empty preset 0 4 0 10 -262144 -1 0;
#X obj 83 331 pp 2;
#X floatatom 82 116 4 0.1 2 0 - - -;
#X obj 83 105 cnv 8 1 1 empty empty Q 0 4 0 10 -262144 -1 0;
#X floatatom 182 116 4 0.1 2 0 - - -;
#X obj 183 105 cnv 8 1 1 empty empty Q 0 4 0 10 -262144 -1 0;
#X obj 115 302 pp 3;
#X obj 165 290 pp 4;
#X obj 183 330 pp 5;
#X obj 215 290 pp 6;
#X obj 265 281 pp 7;
#X obj 315 287 pp 8;
#X obj 365 287 pp 9;
#X obj 415 291 pp 10;
#X obj 472 235 pp 11;
#X obj 472 255 pp 12;
#X obj 472 275 pp 13;
#X obj 472 296 pp 14;
#X obj 83 384 f;
#X obj 183 373 f;
#X obj 83 478 pp Q;
#X obj 183 479 pp Q;
#X obj 31 47 vfad_scale -1;
#X obj 131 47 vfad_scale -1;
#X obj 469 21 cnv 8 1 1 empty empty delay_time 0 4 0 10 -262144 -1
0;
#X obj 510 36 cnv 8 1 1 empty empty ms 0 4 0 10 -262144 -1 0;
#X floatatom 471 32 5 0.1 1000 0 - - -;
#X obj 451 36 cnv 8 1 1 empty empty max: 0 4 0 10 -262144 -1 0;
#X obj 510 52 cnv 8 1 1 empty empty ms 0 4 0 10 -262144 -1 0;
#X floatatom 471 48 5 0.1 1000 0 - - -;
#X obj 451 52 cnv 8 1 1 empty empty min: 0 4 0 10 -262144 -1 0;
#X obj 469 69 cnv 8 1 1 empty empty early_echo 0 4 0 10 -262144 -1
0;
#X obj 469 78 cnv 8 1 1 empty empty damping 0 4 0 10 -262144 -1 0;
#X obj 510 92 cnv 8 1 1 empty empty dB 0 4 0 10 -262144 -1 0;
#X floatatom 471 88 5 -100 0 0 - - -;
#X obj 510 108 cnv 8 1 1 empty empty dB 0 4 0 10 -262144 -1 0;
#X floatatom 471 104 5 -100 0 0 - - -;
#X obj 451 92 cnv 8 1 1 empty empty max: 0 4 0 10 -262144 -1 0;
#X obj 451 108 cnv 8 1 1 empty empty min: 0 4 0 10 -262144 -1 0;
#X obj 548 12 cnv 8 1 1 empty empty reverb 0 4 0 10 -262144 -1 0;
#X obj 549 28 cnv 8 1 1 empty empty modulation 0 4 0 10 -262144 -1
0;
#X obj 589 53 cnv 8 1 1 empty empty Hz 0 4 0 10 -262144 -1 0;
#X floatatom 550 49 5 0.01 10 0 - - -;
#X obj 530 53 cnv 8 1 1 empty empty max: 0 4 0 10 -262144 -1 0;
#X obj 589 69 cnv 8 1 1 empty empty Hz 0 4 0 10 -262144 -1 0;
#X floatatom 550 65 5 0.01 10 0 - - -;
#X obj 530 69 cnv 8 1 1 empty empty min: 0 4 0 10 -262144 -1 0;
#X obj 548 37 cnv 8 1 1 empty empty freq 0 4 0 10 -262144 -1 0;
#X obj 548 99 cnv 8 1 1 empty empty reverb 0 4 0 10 -262144 -1 0;
#X obj 549 115 cnv 8 1 1 empty empty modulation 0 4 0 10 -262144 -1
0;
#X obj 589 140 cnv 8 1 1 empty empty cents 0 4 0 10 -262144 -1 0;
#X floatatom 550 136 5 0 20 0 - - -;
#X obj 530 140 cnv 8 1 1 empty empty max: 0 4 0 10 -262144 -1 0;
#X obj 589 156 cnv 8 1 1 empty empty cents 0 4 0 10 -262144 -1 0;
#X floatatom 550 152 5 0 20 0 - - -;
#X obj 530 156 cnv 8 1 1 empty empty min: 0 4 0 10 -262144 -1 0;
#X obj 548 124 cnv 8 1 1 empty empty amplitude 0 4 0 10 -262144 -1
0;
#X obj 548 20 cnv 8 1 1 empty empty delay 0 4 0 10 -262144 -1 0;
#X obj 669 17 cnv 8 1 1 empty empty store 0 4 0 10 -262144 -1 0;
#X obj 669 36 vradio 10 1 0 10 empty empty empty 0 -6 0 8 -258699 -1
-1 0;
#X obj 670 25 cnv 8 1 1 empty empty preset 0 4 0 10 -262144 -1 0;
#X obj 669 142 t b f;
#X msg 681 218 store;
#X obj 551 329 f;
#X obj 551 352 f;
#X obj 551 373 f;
#X obj 551 396 f;
#X obj 469 126 cnv 8 1 1 empty empty reverb 0 4 0 10 -262144 -1 0;
#X obj 469 135 cnv 8 1 1 empty empty delay_time 0 4 0 10 -262144 -1
0;
#X obj 510 150 cnv 8 1 1 empty empty ms 0 4 0 10 -262144 -1 0;
#X floatatom 471 146 5 0.1 1000 0 - - -;
#X obj 451 150 cnv 8 1 1 empty empty max: 0 4 0 10 -262144 -1 0;
#X obj 510 166 cnv 8 1 1 empty empty ms 0 4 0 10 -262144 -1 0;
#X floatatom 471 162 5 0.1 1000 0 - - -;
#X obj 451 166 cnv 8 1 1 empty empty min: 0 4 0 10 -262144 -1 0;
#X obj 776 24 inlet;
#X obj 609 336 iem_pbank_csv 21 10;
#X obj 610 359 unpack 0 0 0 0 0 0 0 0 0 0 0 0 0 0 0 0 0 0 0 0 0;
#X obj 551 276 pp 20;
#X obj 551 255 pp 19;
#X obj 472 320 pp 15;
#X obj 472 340 pp 16;
#X obj 551 235 pp 18;
#X obj 551 215 pp 17;
#X obj 472 474 f;
#X obj 472 497 f;
#X obj 15 401 + 100;
#X obj 115 404 + 100;
#X obj 421 579 exp_uzi \$1;
#X obj 272 493 pp delay;
#X obj 282 601 pp damp;
#X obj 421 602 pp del_time;
#X obj 568 566 pp del_mod_amp;
#X obj 532 498 pp del_mod_freq;
#X obj 282 537 neg_exp_uzi \$1;
#X obj 359 580 dbtorms;
#X obj 359 559 + 100;
#X obj 282 558 unpack 0 0;
#X obj 282 579 pack 0 0;
#X msg 777 235 read \$1 brl;
#X msg 615 219 recall;
#X msg 909 246 write \$1 brl;
#X obj 774 204 makefilename %s;
#X obj 900 201 makefilename %s;
#X obj 771 175 symbol;
#X obj 842 170 symbol;
#X obj 729 85 route bang;
#X obj 849 89 route bang;
#X obj 916 152 s \$0_filename;
#X obj 272 450 schedule_max_min;
#X obj 421 557 schedule_max_min;
#X obj 282 516 schedule_max_min;
#X obj 532 452 schedule_max_min;
#X obj 568 521 schedule_max_min;
#X obj 272 472 exp_uzi \$1;
#X obj 568 543 exp_uzi \$1;
#X obj 532 475 exp_uzi \$1;
#X obj 800 477 outlet preset;
#X obj 778 52 route read write recall store;
#X obj 795 120 symbol;
#X obj 861 125 symbol;
#X connect 0 0 1 0;
#X connect 1 0 2 0;
#X connect 1 0 67 0;
#X connect 2 0 3 0;
#X connect 2 0 79 0;
#X connect 4 0 5 0;
#X connect 4 0 66 0;
#X connect 4 0 80 0;
#X connect 14 0 15 0;
#X connect 15 0 16 0;
#X connect 15 0 65 0;
#X connect 16 0 17 0;
#X connect 16 0 102 0;
#X connect 21 0 22 0;
#X connect 21 0 64 0;
#X connect 21 0 103 0;
#X connect 27 0 28 0;
#X connect 27 0 71 0;
#X connect 28 0 105 0;
#X connect 34 0 35 0;
#X connect 34 0 72 0;
#X connect 34 0 107 0;
#X connect 41 0 42 0;
#X connect 41 0 75 0;
#X connect 41 0 109 0;
#X connect 48 0 49 0;
#X connect 48 0 69 0;
#X connect 48 0 106 0;
#X connect 55 0 56 0;
#X connect 55 0 70 0;
#X connect 55 0 108 0;
#X connect 63 0 62 0;
#X connect 64 0 63 0;
#X connect 65 0 63 0;
#X connect 66 0 68 0;
#X connect 67 0 68 0;
#X connect 68 0 62 0;
#X connect 69 0 63 0;
#X connect 70 0 63 0;
#X connect 71 0 63 0;
#X connect 72 0 63 0;
#X connect 73 0 0 0;
#X connect 74 0 14 0;
#X connect 75 0 63 0;
#X connect 79 0 172 0;
#X connect 80 0 172 0;
#X connect 81 0 182 0;
#X connect 82 0 4 0;
#X connect 83 0 183 0;
#X connect 84 0 21 0;
#X connect 85 0 27 0;
#X connect 86 0 48 0;
#X connect 87 0 34 0;
#X connect 88 0 55 0;
#X connect 89 0 41 0;
#X connect 90 0 122 0;
#X connect 91 0 125 0;
#X connect 92 0 130 0;
#X connect 93 0 132 0;
#X connect 94 0 95 0;
#X connect 95 0 196 0;
#X connect 95 1 172 1;
#X connect 95 1 213 0;
#X connect 97 0 172 0;
#X connect 98 0 97 0;
#X connect 98 0 116 0;
#X connect 100 0 104 0;
#X connect 100 0 117 0;
#X connect 102 0 172 0;
#X connect 103 0 172 0;
#X connect 104 0 172 0;
#X connect 105 0 172 0;
#X connect 107 0 172 0;
#X connect 108 0 172 0;
#X connect 109 0 172 0;
#X connect 110 0 172 0;
#X connect 111 0 172 0;
#X connect 112 0 172 0;
#X connect 113 0 172 0;
#X connect 114 0 98 0;
#X connect 115 0 100 0;
#X connect 116 0 68 0;
#X connect 117 0 63 0;
#X connect 122 0 110 0;
#X connect 122 0 205 1;
#X connect 125 0 111 0;
#X connect 125 0 205 0;
#X connect 130 0 112 0;
#X connect 130 0 207 1;
#X connect 132 0 113 0;
#X connect 132 0 207 0;
#X connect 138 0 179 0;
#X connect 138 0 208 1;
#X connect 141 0 178 0;
#X connect 141 0 208 0;
#X connect 147 0 175 0;
#X connect 147 0 209 1;
#X connect 150 0 174 0;
#X connect 150 0 209 0;
#X connect 155 0 157 0;
#X connect 157 0 158 0;
#X connect 157 1 172 1;
#X connect 158 0 172 0;
#X connect 159 0 138 0;
#X connect 160 0 141 0;
#X connect 161 0 147 0;
#X connect 162 0 150 0;
#X connect 166 0 176 0;
#X connect 166 0 206 1;
#X connect 169 0 177 0;
#X connect 169 0 206 0;
#X connect 171 0 214 0;
#X connect 172 0 173 0;
#X connect 173 0 81 0;
#X connect 173 1 82 0;
#X connect 173 2 114 0;
#X connect 173 3 83 0;
#X connect 173 4 84 0;
#X connect 173 5 115 0;
#X connect 173 6 85 0;
#X connect 173 7 86 0;
#X connect 173 8 87 0;
#X connect 173 9 88 0;
#X connect 173 10 89 0;
#X connect 173 11 90 0;
#X connect 173 12 91 0;
#X connect 173 13 92 0;
#X connect 173 14 93 0;
#X connect 173 15 180 0;
#X connect 173 16 181 0;
#X connect 173 17 159 0;
#X connect 173 18 160 0;
#X connect 173 19 161 0;
#X connect 173 20 162 0;
#X connect 174 0 172 0;
#X connect 175 0 172 0;
#X connect 176 0 172 0;
#X connect 177 0 172 0;
#X connect 178 0 172 0;
#X connect 179 0 172 0;
#X connect 180 0 166 0;
#X connect 181 0 169 0;
#X connect 182 0 73 0;
#X connect 183 0 74 0;
#X connect 184 0 187 0;
#X connect 185 0 68 0;
#X connect 186 0 68 0;
#X connect 187 0 63 0;
#X connect 188 0 63 0;
#X connect 189 0 63 0;
#X connect 190 0 193 0;
#X connect 191 0 194 1;
#X connect 192 0 191 0;
#X connect 193 0 194 0;
#X connect 193 1 192 0;
#X connect 194 0 186 0;
#X connect 195 0 172 0;
#X connect 196 0 172 0;
#X connect 197 0 172 0;
#X connect 198 0 195 0;
#X connect 198 0 204 0;
#X connect 199 0 197 0;
#X connect 199 0 204 0;
#X connect 200 0 198 0;
#X connect 201 0 199 0;
#X connect 202 0 200 0;
#X connect 202 1 200 0;
#X connect 202 1 215 0;
#X connect 203 0 201 0;
#X connect 203 1 201 0;
#X connect 203 1 216 0;
#X connect 205 0 210 0;
#X connect 206 0 184 0;
#X connect 207 0 190 0;
#X connect 208 0 212 0;
#X connect 209 0 211 0;
#X connect 210 0 185 0;
#X connect 211 0 188 0;
#X connect 212 0 189 0;
#X connect 214 0 202 0;
#X connect 214 1 203 0;
#X connect 214 2 94 0;
#X connect 214 3 155 0;
#X connect 215 0 201 1;
#X connect 216 0 200 1;
#X coords 0 0 1 1 710 206 1 0 0;
#X restore 11 101 pd EDIT_early_reverb;
#X obj 14 332 outlet;
#X obj 121 351 namecanvas \$0-EDIT;
#X obj 276 316 inlet;
#X obj 326 334 symbol \$0-EDIT;
#X obj 275 358 pack f s;
#X obj 276 337 t f b;
#X msg 275 380 \; \$2 vis \$1;
#N canvas 552 134 464 434 files 1;
#X symbolatom 14 82 52 0 0 2 filename_bank #0_filename_togui #0_filename_fromgui
;
#X obj 269 241 s \$0_filename_togui;
#X obj 11 112 r \$0_filename_fromgui;
#X obj 36 411 outlet;
#N canvas 245 133 360 216 files 0;
#X obj 30 105 openpanel;
#X obj 222 35 savepanel;
#X obj 222 11 r \$0_save;
#X obj 30 81 r \$0_load;
#X obj 0 -1 cnv 15 120 60 empty empty File 20 12 0 14 -233017 -66577
0;
#X obj 3 16 bng 25 250 50 0 \$0_load \$0_load LOAD 0 30 0 10 -24198
-1 -1;
#X obj 84 15 bng 25 250 50 0 \$0_save \$0_save SAVE 2 30 0 10 -258699
-1 -1;
#X obj 38 15 bng 25 250 50 0 \$0_reload \$0_reload RELOAD -1 30 0 10
-241291 -1 -1;
#X msg 139 112 read;
#X obj 35 180 outlet;
#X msg 222 116 write \$1;
#X msg 30 137 read \$1;
#X obj 138 82 r \$0_reload;
#X connect 0 0 11 0;
#X connect 1 0 10 0;
#X connect 2 0 1 0;
#X connect 3 0 0 0;
#X connect 8 0 9 0;
#X connect 10 0 9 0;
#X connect 11 0 9 0;
#X connect 12 0 8 0;
#X coords 0 -1 1 1 120 60 1 0 0;
#X restore 254 18 pd files;
#X text 13 44 in Settings \, only the filename;
#X msg 110 370 read \$1;
#X obj 49 145 route read write;
#X obj 272 216 pp set;
#X text 14 30 The presets are not stored;
#X obj 120 224 r \$0_preset;
#X obj 178 106 r GUI_NET_initialized;
#X obj 177 125 del 1000;
#X obj 42 224 pack s 0;
#X obj 46 268 unpack s 0;
#X msg 36 375 recall \$1;
#X obj 48 334 f 0;
#X obj 48 296 t b a;
#X obj 45 197 bng 15 250 50 0 empty empty empty 0 -6 0 8 -262144 -1
-1;
#X obj 48 176 route bang;
#X obj 140 201 pp write;
#X obj 45 247 sendreceive EXT_REV_PBANKFILE;
#X msg 181 148 ../default.rev 0;
#X connect 2 0 13 0;
#X connect 4 0 7 0;
#X connect 6 0 3 0;
#X connect 6 0 7 0;
#X connect 7 0 19 0;
#X connect 7 1 8 0;
#X connect 7 1 20 0;
#X connect 8 0 1 0;
#X connect 10 0 13 1;
#X connect 11 0 12 0;
#X connect 12 0 22 0;
#X connect 13 0 21 0;
#X connect 14 0 17 0;
#X connect 14 1 16 1;
#X connect 15 0 3 0;
#X connect 16 0 15 0;
#X connect 17 0 16 0;
#X connect 17 1 6 0;
#X connect 18 0 13 0;
#X connect 19 0 18 0;
#X connect 19 1 13 0;
#X connect 20 0 3 0;
#X connect 21 0 14 0;
#X connect 22 0 13 0;
#X coords 0 -1 1 1 380 90 1 10 10;
#X restore 339 7 pd files;
#X text 62 12 REVERB To AMBISONIC Domain;
#X text 60 29 IEM \, Thomas Musil adapted by WR;
#X obj 668 345 s \$0_preset;
#X connect 0 0 1 0;
#X connect 0 1 11 0;
#X connect 3 0 6 0;
#X connect 4 0 5 1;
#X connect 5 0 7 0;
#X connect 6 0 5 0;
#X connect 6 1 4 0;
#X connect 8 0 0 0;
