#N canvas 0 0 600 300 10;
#X obj 100 100 inlet~;
#X obj 100 150 CHANNEL/FX/plugin~ \$1 1;
#X connect 0 0 1 0;
#X obj 100 175 CHANNEL/FX/plugin~ \$1 2;
#X connect 1 0 2 0;
#X obj 100 200 CHANNEL/FX/plugin~ \$1 3;
#X connect 2 0 3 0;
#X obj 100 225 CHANNEL/FX/plugin~ \$1 4;
#X connect 3 0 4 0;
#X obj 200 100 outlet~;
#X connect 4 0 5 0;
