#N canvas 0 0 450 300 10;
#X obj 100 65 inlet "1_AUX";
#X obj 100 272 outlet "AUX 1";
#X obj 100 116 s2l _;
#X obj 100 243 l2s;
#X msg 100 222 \$2 \$1;
#X obj 100 89 symbol;
#X obj 100 135 t l l;
#X obj 130 160 length;
#X obj 100 202 demux;
#X obj 130 180 != 2;
#X connect 0 0 5 0;
#X connect 2 0 6 0;
#X connect 3 0 1 0;
#X connect 4 0 3 0;
#X connect 5 0 2 0;
#X connect 6 0 8 0;
#X connect 6 1 7 0;
#X connect 7 0 9 0;
#X connect 8 0 4 0;
#X connect 8 1 3 0;
#X connect 9 0 8 1;
