#N canvas 0 0 450 300 10;
#X obj 100 65 inlet "1_AUX";
#X obj 100 182 outlet "AUX 1";
#X obj 100 111 s2l _;
#X obj 100 153 l2s;
#X msg 100 132 \$2 \$1;
#X obj 100 89 symbol;
#X connect 0 0 5 0;
#X connect 2 0 4 0;
#X connect 3 0 1 0;
#X connect 4 0 3 0;
#X connect 5 0 2 0;
