#N canvas 0 0 752 338 10;
#X obj 118 50 inlet list;
#X obj 124 289 outlet list;
#X obj 318 50 inlet element;
#X obj 260 289 outlet element;
#X obj 124 81 t b l;
#N canvas 0 0 450 300 serialize 0;
#X obj 191 177 list split 1;
#X obj 191 134 until;
#X obj 191 155 list append;
#X obj 191 111 t b l;
#X obj 321 177 bang;
#X obj 191 86 inlet list;
#X obj 191 206 outlet element;
#X connect 0 0 6 0;
#X connect 0 1 2 1;
#X connect 0 2 4 0;
#X connect 1 0 2 0;
#X connect 2 0 0 0;
#X connect 3 0 1 0;
#X connect 3 1 2 1;
#X connect 4 0 1 1;
#X connect 5 0 3 0;
#X restore 237 125 pd serialize;
#N canvas 0 0 450 300 deserialize 0;
#X obj 92 45 inlet bang;
#X obj 205 45 inlet element;
#X obj 92 264 outlet list;
#X obj 92 234 list prepend;
#X obj 205 196 t l l;
#X obj 92 123 t b b;
#X obj 205 174 list prepend;
#X connect 0 0 5 0;
#X connect 1 0 6 0;
#X connect 3 0 2 0;
#X connect 4 0 3 1;
#X connect 4 1 6 1;
#X connect 5 0 3 0;
#X connect 5 1 6 1;
#X connect 6 0 4 0;
#X restore 124 262 pd deserialize;
#X obj 237 183 list prepend;
#X obj 237 155 t b l l;
#X connect 0 0 4 0;
#X connect 2 0 7 1;
#X connect 4 0 6 0;
#X connect 4 1 5 0;
#X connect 5 0 8 0;
#X connect 6 0 1 0;
#X connect 7 0 6 1;
#X connect 8 0 7 0;
#X connect 8 1 3 0;
#X connect 8 2 7 1;
