#N canvas 85 96 683 509 10;
#X obj 101 111 inlet;
#X obj 131 440 outlet;
#X obj 131 332 route bang;
#X obj 196 353 t a b;
#X obj 131 354 t b b;
#X msg 203 395 0;
#X obj 101 133 route bang;
#X msg 168 216 1;
#X obj 168 235 f;
#X obj 101 155 t b b;
#X obj 166 154 t b a;
#X obj 259 194 loadbang;
#X msg 259 214 1;
#X obj 131 265 spigot;
#X obj 131 284 iem_s \$1;
#X obj 131 306 iem_r \$1;
#X obj 296 89 inlet;
#X msg 296 144 set \$1;
#X obj 296 119 symbol;
#X text 101 91 message in;
#X text 129 462 message out;
#X text 294 73 <symbol> send/receive-name in;
#X text 16 12 sendreceive;
#X text 126 14 convert a "message in" to a "send message" and;
#X text 136 27 a "receives message" to a "message out" with equal;
#X text 151 40 send- receive- names and suppress the feedback-loop
;
#X text 206 294 1.arg: <symbol> send- / receive- name;
#X text 336 434 (c) IOhannes m zmoelnig \, IEM 2005;
#X text 378 452 published under the Gnu GPL;
#X connect 0 0 6 0;
#X connect 2 0 4 0;
#X connect 2 1 3 0;
#X connect 3 0 1 0;
#X connect 3 1 5 0;
#X connect 4 0 1 0;
#X connect 4 1 5 0;
#X connect 5 0 8 0;
#X connect 6 0 9 0;
#X connect 6 1 10 0;
#X connect 7 0 8 0;
#X connect 8 0 13 1;
#X connect 9 0 7 0;
#X connect 9 1 13 0;
#X connect 10 0 7 0;
#X connect 10 1 13 0;
#X connect 11 0 12 0;
#X connect 12 0 13 1;
#X connect 13 0 14 0;
#X connect 15 0 2 0;
#X connect 16 0 18 0;
#X connect 17 0 14 1;
#X connect 17 0 15 0;
#X connect 18 0 17 0;
