#N canvas 0 126 457 505 10;
#X obj 107 60 inlet;
#X obj 137 389 outlet;
#X obj 137 281 route bang;
#X obj 202 302 t a b;
#X obj 137 303 t b b;
#X msg 209 344 0;
#X obj 107 82 route bang;
#X msg 174 165 1;
#X obj 174 184 f;
#X obj 107 104 t b b;
#X obj 172 103 t b a;
#X obj 265 143 loadbang;
#X msg 265 163 1;
#X obj 137 214 spigot;
#X obj 137 233 iem_s \$1;
#X obj 137 255 iem_r \$1;
#X obj 302 38 inlet;
#X msg 302 93 set \$1;
#X obj 302 68 symbol;
#X connect 0 0 6 0;
#X connect 2 0 4 0;
#X connect 2 1 3 0;
#X connect 3 0 1 0;
#X connect 3 1 5 0;
#X connect 4 0 1 0;
#X connect 4 1 5 0;
#X connect 5 0 8 0;
#X connect 6 0 9 0;
#X connect 6 1 10 0;
#X connect 7 0 8 0;
#X connect 8 0 13 1;
#X connect 9 0 7 0;
#X connect 9 1 13 0;
#X connect 10 0 7 0;
#X connect 10 1 13 0;
#X connect 11 0 12 0;
#X connect 12 0 13 1;
#X connect 13 0 14 0;
#X connect 15 0 2 0;
#X connect 16 0 18 0;
#X connect 17 0 14 1;
#X connect 17 0 15 0;
#X connect 18 0 17 0;
