#N canvas 85 96 739 596 10;
#X obj 101 151 inlet;
#X obj 131 480 outlet;
#X obj 131 372 route bang;
#X obj 196 393 t a b;
#X obj 131 394 t b b;
#X msg 203 435 0;
#X obj 101 173 route bang;
#X msg 168 256 1;
#X obj 168 275 f;
#X obj 101 195 t b b;
#X obj 166 194 t b a;
#X obj 259 234 loadbang;
#X msg 259 254 1;
#X obj 131 305 spigot;
#X obj 131 324 iem_s \$1;
#X obj 131 346 iem_r \$1;
#X obj 296 129 inlet;
#X msg 296 204 set \$1;
#X obj 296 159 symbol;
#X text 101 131 message in;
#X text 129 502 message out;
#X text 294 113 <symbol> send/receive-name in;
#X text 126 14 convert a "message in" to a "send message" and;
#X text 136 27 a "receives message" to a "message out" with equal;
#X text 151 40 send- receive- names and suppress the feedback-loop
;
#X text 206 334 1.arg: <symbol> send- / receive- name;
#X text 376 540 published under the Gnu GPL;
#X obj 296 182 t s s;
#X text 16 12 [sendreceive];
#X text 46 65 when a "bang" is received at the global-receiver [sendreceive_getName]
\, the current s/r-name is sent to [sendreceive_setName];
#X text 336 474 (c) IOhannes m zmoelnig & Thomas Musil \, IEM 2005
;
#X obj 383 247 sr_registername \$1;
#X connect 0 0 6 0;
#X connect 2 0 4 0;
#X connect 2 1 3 0;
#X connect 3 0 1 0;
#X connect 3 1 5 0;
#X connect 4 0 1 0;
#X connect 4 1 5 0;
#X connect 5 0 8 0;
#X connect 6 0 9 0;
#X connect 6 1 10 0;
#X connect 7 0 8 0;
#X connect 8 0 13 1;
#X connect 9 0 7 0;
#X connect 9 1 13 0;
#X connect 10 0 7 0;
#X connect 10 1 13 0;
#X connect 11 0 12 0;
#X connect 12 0 13 1;
#X connect 13 0 14 0;
#X connect 15 0 2 0;
#X connect 16 0 18 0;
#X connect 17 0 14 1;
#X connect 17 0 15 0;
#X connect 18 0 27 0;
#X connect 27 0 17 0;
#X connect 27 1 31 0;
