#N canvas 0 0 307 263 10;
#X obj 112 96 niagara 1;
#X obj 112 116 symbol;
#X obj 162 116 a2l;
#X obj 112 161 l;
#X obj 112 182 iem_s;
#X msg 142 161 set \$1;
#X obj 112 70 inlet;
#X obj 112 136 t b s;
#X connect 0 0 1 0;
#X connect 0 1 2 0;
#X connect 1 0 7 0;
#X connect 2 0 3 1;
#X connect 3 0 4 0;
#X connect 5 0 4 1;
#X connect 6 0 0 0;
#X connect 7 0 3 0;
#X connect 7 1 5 0;
