#N canvas 222 173 544 343 10;
#X obj 254 228 makefilename \$1_IN_PLUGIN_%s;
#X obj 254 208 makefilename \$2_%s;
#X obj 254 189 symbol \$3;
#X obj 254 160 loadbang;
#X msg 315 160 bang;
#X obj 56 255 sr_setting \$1_IN_PLUGIN_$2_$3;
#X obj 56 234 inlet;
#X obj 56 275 outlet;
#X text 29 19 [sr_pluginparam <channel#> <slot#> <paramname>];
#X text 34 60 send/receive parameters <paramname> for plugin in fx-flot
<slot#> of channel <channel#>;
#X text 33 98 parameters are stored when a settings-CUEpoint is stored.
;
#X connect 0 0 5 1;
#X connect 1 0 0 0;
#X connect 2 0 1 0;
#X connect 3 0 2 0;
#X connect 4 0 2 0;
#X connect 5 0 7 0;
#X connect 6 0 5 0;
