#N canvas 222 173 544 343 10;
#X obj 268 228 makefilename \$1_IN_PLUGIN_%s;
#X obj 268 208 makefilename \$2_%s;
#X obj 268 189 symbol \$3;
#X obj 268 160 loadbang;
#X msg 329 160 bang;
#X text 33 98 parameters are stored when a parameter-CUEpoint is stored.
;
#X obj 56 234 inlet;
#X obj 56 275 outlet;
#X text 29 19 [sr_pluginparam <channel#> <slot#> <paramname>];
#X text 34 60 send/receive parameters <paramname> for plugin in fx-flot
<slot#> of channel <channel#>;
#X obj 56 255 sr_parameter \$1_IN_PLUGIN_$2_$3;
#X connect 0 0 10 1;
#X connect 1 0 0 0;
#X connect 2 0 1 0;
#X connect 3 0 2 0;
#X connect 4 0 2 0;
#X connect 6 0 10 0;
#X connect 10 0 7 0;
