#N canvas 0 0 450 300 10;
#X msg 100 132 \$2 \$1;
#X obj 100 111 s2l;
#X obj 100 65 inlet "AUX 1";
#X obj 100 182 outlet "1_AUX";
#X obj 100 153 l2s _;
#X msg 151 132 symbol _;
#X obj 151 109 loadbang;
#X obj 100 88 symbol;
#X connect 0 0 4 0;
#X connect 1 0 0 0;
#X connect 2 0 7 0;
#X connect 4 0 3 0;
#X connect 5 0 4 1;
#X connect 6 0 5 0;
#X connect 7 0 1 0;
