#N canvas 241 48 711 454 10;
#X obj 26 124 inlet;
#X obj 131 178 symbol;
#X msg 26 246 compact \, sort \, bang \, dump;
#X msg 131 199 add \$1;
#X msg 78 269 reset;
#X obj 26 219 t b;
#X obj 26 322 index;
#X obj 26 294 nop;
#X obj 26 417 outlet;
#X obj 26 377 symbol;
#X obj 78 221 t b;
#X obj 26 147 route bang reset add symbol;
#X text 21 11 filter out duplicate names;
#X text 21 37 any symbol that comes in \, gets added to a list of symbols.
;
#X text 20 51 when "bang" is received \, the symbols are output as
a sorted list with uniqs removed.;
#X text 22 79 "reset" cleans the entire list;
#X obj 26 355 route list float;
#X connect 0 0 11 0;
#X connect 1 0 3 0;
#X connect 2 0 7 0;
#X connect 3 0 7 0;
#X connect 4 0 7 0;
#X connect 5 0 2 0;
#X connect 6 0 16 0;
#X connect 7 0 6 0;
#X connect 9 0 8 0;
#X connect 10 0 4 0;
#X connect 11 0 5 0;
#X connect 11 1 10 0;
#X connect 11 2 1 0;
#X connect 11 3 1 0;
#X connect 16 0 9 0;
